<svg xmlns="http://www.w3.org/2000/svg" viewBox="0 0 120 120">
  <!-- Background -->
  <rect width="120" height="120" rx="8" fill="#1a1a2e"/>
  <!-- Top banner -->
  <rect y="0" width="120" height="26" fill="#B5CC18"/>
  <rect y="0" width="120" height="8" rx="8" fill="#B5CC18"/>
  <text x="60" y="18" text-anchor="middle" font-family="Arial,sans-serif" font-size="10" fill="#1a1a2e" font-weight="bold">ARTIFACT KEY</text>
  <!-- Icon -->
  
    <circle cx="47" cy="48" r="10" fill="none" stroke="#B5CC18" stroke-width="1.8"/>
    <circle cx="47" cy="48" r="5" fill="#B5CC18" opacity="0.2"/>
    <line x1="57" y1="48" x2="84" y2="48" stroke="#B5CC18" stroke-width="2.5"/>
    <line x1="80" y1="48" x2="80" y2="56" stroke="#B5CC18" stroke-width="1.8"/>
    <line x1="74" y1="48" x2="74" y2="54" stroke="#B5CC18" stroke-width="1.5"/>
    <circle cx="47" cy="48" r="14" fill="#B5CC18" opacity="0.05"/>
    <rect x="30" y="66" width="12" height="10" rx="1" fill="#e8a830" opacity="0.45"/>
    <rect x="54" y="66" width="12" height="10" rx="1" fill="#7a5230" opacity="0.45"/>
    <rect x="78" y="66" width="12" height="10" rx="1" fill="#c890b8" opacity="0.45"/>
  <!-- Max cost circle (bottom-left, big) -->
  <circle cx="22" cy="104" r="14" fill="#B5CC18" opacity="0.9"/>
  <text x="22" y="110" text-anchor="middle" font-family="Arial,sans-serif" font-size="13" fill="#1a1a2e" font-weight="bold">16</text>
  <!-- Min cost (bottom-right, small) -->
  <circle cx="100" cy="106" r="10" fill="#B5CC18" opacity="0.55"/>
  <text x="100" y="111" text-anchor="middle" font-family="Arial,sans-serif" font-size="11" fill="#1a1a2e" font-weight="bold">8</text>
  <!-- Border -->
  <rect x="1" y="1" width="118" height="118" rx="7" fill="none" stroke="#B5CC18" stroke-width="2"/>
</svg>