<svg xmlns="http://www.w3.org/2000/svg" viewBox="0 0 120 120">
  <!-- Background -->
  <rect width="120" height="120" rx="8" fill="#1a1a2e"/>
  <!-- Top banner -->
  <rect y="0" width="120" height="26" fill="#3a3a4a"/>
  <rect y="0" width="120" height="8" rx="8" fill="#3a3a4a"/>
  <text x="60" y="18" text-anchor="middle" font-family="Arial,sans-serif" font-size="10" fill="#ccc" font-weight="bold">FLUX MISSILE</text>
  <!-- Icon -->
  
    <path d="M60 33 L69 48 L67 48 L67 60 L53 60 L53 48 L51 48 Z" fill="#8888a0" opacity="0.8"/>
    <path d="M53 60 L48 67 L53 64 L67 64 L72 67 L67 60" fill="#3498DB" opacity="0.6"/>
    <rect x="72" y="33" width="15" height="14" rx="3" fill="#3498DB" opacity="0.85"/>
    <text x="79.5" y="44" text-anchor="middle" font-family="Arial,sans-serif" font-size="10" fill="#1a1a2e" font-weight="bold">M</text>
  <!-- Max cost circle (bottom-left, big) -->
  <circle cx="22" cy="104" r="14" fill="#3a3a4a" opacity="0.9"/>
  <text x="22" y="110" text-anchor="middle" font-family="Arial,sans-serif" font-size="13" fill="#ccc" font-weight="bold">11</text>
  <!-- Min cost (bottom-right, small) -->
  <circle cx="100" cy="106" r="10" fill="#3a3a4a" opacity="0.55"/>
  <text x="100" y="111" text-anchor="middle" font-family="Arial,sans-serif" font-size="11" fill="#ccc" font-weight="bold">8</text>
  <!-- Border -->
  <rect x="1" y="1" width="118" height="118" rx="7" fill="none" stroke="#5a5a6a" stroke-width="2"/>
</svg>