<svg xmlns="http://www.w3.org/2000/svg" viewBox="0 0 120 120">
  <!-- Background -->
  <rect width="120" height="120" rx="8" fill="#1a1a2e"/>
  <!-- Top banner -->
  <rect y="0" width="120" height="26" fill="#B5CC18"/>
  <rect y="0" width="120" height="8" rx="8" fill="#B5CC18"/>
  <text x="60" y="18" text-anchor="middle" font-family="Arial,sans-serif" font-size="10" fill="#1a1a2e" font-weight="bold">FUSION DRIVE</text>
  <!-- Icon -->
  
    <path d="M60 33 L76 52 L71 52 L71 64 L49 64 L49 52 L44 52 Z" fill="none" stroke="#B5CC18" stroke-width="2.2"/>
    <path d="M60 38 L72 50 L69 50 L69 62 L51 62 L51 50 L48 50 Z" fill="#B5CC18" opacity="0.18"/>
    <line x1="52" y1="64" x2="49" y2="72" stroke="#B5CC18" stroke-width="1.3" opacity="0.5"/>
    <line x1="68" y1="64" x2="71" y2="72" stroke="#B5CC18" stroke-width="1.3" opacity="0.5"/>
  <!-- Max cost circle (bottom-left, big) -->
  <circle cx="22" cy="104" r="14" fill="#B5CC18" opacity="0.9"/>
  <text x="22" y="110" text-anchor="middle" font-family="Arial,sans-serif" font-size="16" fill="#1a1a2e" font-weight="bold">4</text>
  <!-- Min cost (bottom-right, small) -->
  <circle cx="100" cy="106" r="10" fill="#B5CC18" opacity="0.55"/>
  <text x="100" y="111" text-anchor="middle" font-family="Arial,sans-serif" font-size="11" fill="#1a1a2e" font-weight="bold">3</text>
  <!-- Border -->
  <rect x="1" y="1" width="118" height="118" rx="7" fill="none" stroke="#B5CC18" stroke-width="2"/>
</svg>