<svg xmlns="http://www.w3.org/2000/svg" viewBox="0 0 120 120">
  <!-- Background -->
  <rect width="120" height="120" rx="8" fill="#1a1a2e"/>
  <!-- Top banner -->
  <rect y="0" width="120" height="26" fill="#1A7A42"/>
  <rect y="0" width="120" height="8" rx="8" fill="#1A7A42"/>
  <text x="60" y="18" text-anchor="middle" font-family="Arial,sans-serif" font-size="9.5" fill="#fff" font-weight="bold">FUSION SOURCE</text>
  <!-- Icon -->
  
    <circle cx="60" cy="56" r="11" fill="#1A7A42" opacity="0.1"/>
    <circle cx="60" cy="56" r="7" fill="#1A7A42" opacity="0.18"/>
    <circle cx="60" cy="56" r="3" fill="#1A7A42" opacity="0.7"/>
    <line x1="60" y1="41" x2="60" y2="47" stroke="#1A7A42" stroke-width="1.8"/>
    <line x1="60" y1="65" x2="60" y2="71" stroke="#1A7A42" stroke-width="1.8"/>
    <line x1="45" y1="56" x2="51" y2="56" stroke="#1A7A42" stroke-width="1.8"/>
    <line x1="69" y1="56" x2="75" y2="56" stroke="#1A7A42" stroke-width="1.8"/>
    <line x1="48" y1="44" x2="52" y2="48" stroke="#1A7A42" stroke-width="1.3"/>
    <line x1="68" y1="64" x2="72" y2="68" stroke="#1A7A42" stroke-width="1.3"/>
    <line x1="72" y1="44" x2="68" y2="48" stroke="#1A7A42" stroke-width="1.3"/>
    <line x1="52" y1="64" x2="48" y2="68" stroke="#1A7A42" stroke-width="1.3"/>
    <ellipse cx="60" cy="56" rx="16" ry="6" fill="none" stroke="#1A7A42" stroke-width="1" opacity="0.35" transform="rotate(30 60 56)"/>
  <!-- Max cost circle (bottom-left, big) -->
  <circle cx="22" cy="104" r="14" fill="#1A7A42" opacity="0.9"/>
  <text x="22" y="110" text-anchor="middle" font-family="Arial,sans-serif" font-size="16" fill="#fff" font-weight="bold">4</text>
  <!-- Min cost (bottom-right, small) -->
  <circle cx="100" cy="106" r="10" fill="#1A7A42" opacity="0.55"/>
  <text x="100" y="111" text-anchor="middle" font-family="Arial,sans-serif" font-size="11" fill="#fff" font-weight="bold">3</text>
  <!-- Border -->
  <rect x="1" y="1" width="118" height="118" rx="7" fill="none" stroke="#1A7A42" stroke-width="2"/>
</svg>