<svg xmlns="http://www.w3.org/2000/svg" viewBox="0 0 120 120">
  <!-- Background -->
  <rect width="120" height="120" rx="8" fill="#1a1a2e"/>
  <!-- Top banner -->
  <rect y="0" width="120" height="26" fill="#1A7A42"/>
  <rect y="0" width="120" height="8" rx="8" fill="#1A7A42"/>
  <text x="60" y="18" text-anchor="middle" font-family="Arial,sans-serif" font-size="9.5" fill="#fff" font-weight="bold">IMPROVED HULL</text>
  <!-- Icon -->
  
    <path d="M60 75 C60 75 38 62 38 50 C38 43 42 37 47 37 C51 37 53 39 56 42 L60 47 L64 42 C67 39 69 37 73 37 C78 37 82 43 82 50 C82 62 60 75 60 75 Z" fill="none" stroke="#1A7A42" stroke-width="2.2"/>
    <path d="M60 70 C60 70 42 59 42 50 C42 45 45 40 49 40 C52 40 54 42 57 45 L60 49 L63 45 C66 42 68 40 71 40 C75 40 78 45 78 50 C78 59 60 70 60 70 Z" fill="#1A7A42" opacity="0.18"/>
  <!-- Max cost circle (bottom-left, big) -->
  <circle cx="22" cy="104" r="14" fill="#1A7A42" opacity="0.9"/>
  <text x="22" y="110" text-anchor="middle" font-family="Arial,sans-serif" font-size="16" fill="#fff" font-weight="bold">6</text>
  <!-- Min cost (bottom-right, small) -->
  <circle cx="100" cy="106" r="10" fill="#1A7A42" opacity="0.55"/>
  <text x="100" y="111" text-anchor="middle" font-family="Arial,sans-serif" font-size="11" fill="#fff" font-weight="bold">4</text>
  <!-- Border -->
  <rect x="1" y="1" width="118" height="118" rx="7" fill="none" stroke="#1A7A42" stroke-width="2"/>
</svg>