<svg xmlns="http://www.w3.org/2000/svg" viewBox="0 0 120 120">
  <!-- Background -->
  <rect width="120" height="120" rx="8" fill="#1a1a2e"/>
  <!-- Top banner -->
  <rect y="0" width="120" height="26" fill="#D63384"/>
  <rect y="0" width="120" height="8" rx="8" fill="#D63384"/>
  <text x="60" y="18" text-anchor="middle" font-family="Arial,sans-serif" font-size="9.5" fill="#fff" font-weight="bold">NEUTRON BOMBS</text>
  <!-- Icon -->
  
    <circle cx="60" cy="58" r="6.5" fill="#D63384" opacity="0.9"/>
    <path d="M60 51.5 L53 40 A20 20 0 0 1 67 40 Z" fill="#D63384" opacity="0.7"/>
    <path d="M54.5 61 L42 65 A20 20 0 0 1 49 51 Z" fill="#D63384" opacity="0.7"/>
    <path d="M65.5 61 L78 65 A20 20 0 0 0 71 51 Z" fill="#D63384" opacity="0.7"/>
    <circle cx="60" cy="58" r="3" fill="#1a1a2e"/>
  <!-- Max cost circle (bottom-left, big) -->
  <circle cx="22" cy="104" r="14" fill="#D63384" opacity="0.9"/>
  <text x="22" y="110" text-anchor="middle" font-family="Arial,sans-serif" font-size="16" fill="#fff" font-weight="bold">2</text>
  
  <!-- Border -->
  <rect x="1" y="1" width="118" height="118" rx="7" fill="none" stroke="#D63384" stroke-width="2"/>
</svg>