<svg xmlns="http://www.w3.org/2000/svg" viewBox="0 0 120 120">
  <!-- Background -->
  <rect width="120" height="120" rx="8" fill="#1a1a2e"/>
  <!-- Top banner -->
  <rect y="0" width="120" height="26" fill="#3a3a4a"/>
  <rect y="0" width="120" height="8" rx="8" fill="#3a3a4a"/>
  <text x="60" y="18" text-anchor="middle" font-family="Arial,sans-serif" font-size="9.5" fill="#ccc" font-weight="bold">SENTIENT HULL</text>
  <!-- Icon -->
  
    <path d="M60 75 C60 75 38 62 38 50 C38 43 42 37 47 37 C51 37 53 39 56 42 L60 47 L64 42 C67 39 69 37 73 37 C78 37 82 43 82 50 C82 62 60 75 60 75 Z" fill="#8888a0" opacity="0.25" stroke="#8888a0" stroke-width="2.2"/>
    <polyline points="44,53 51,53 55,46 59,59 63,46 67,53 76,53" fill="none" stroke="#8888a0" stroke-width="1.3" opacity="0.6"/>
  <!-- Max cost circle (bottom-left, big) -->
  <circle cx="22" cy="104" r="14" fill="#3a3a4a" opacity="0.9"/>
  <text x="22" y="110" text-anchor="middle" font-family="Arial,sans-serif" font-size="16" fill="#ccc" font-weight="bold">7</text>
  <!-- Min cost (bottom-right, small) -->
  <circle cx="100" cy="106" r="10" fill="#3a3a4a" opacity="0.55"/>
  <text x="100" y="111" text-anchor="middle" font-family="Arial,sans-serif" font-size="11" fill="#ccc" font-weight="bold">6</text>
  <!-- Border -->
  <rect x="1" y="1" width="118" height="118" rx="7" fill="none" stroke="#5a5a6a" stroke-width="2"/>
</svg>