<svg xmlns="http://www.w3.org/2000/svg" viewBox="0 0 120 120">
  <!-- Background -->
  <rect width="120" height="120" rx="8" fill="#1a1a2e"/>
  <!-- Top banner -->
  <rect y="0" width="120" height="26" fill="#1A7A42"/>
  <rect y="0" width="120" height="8" rx="8" fill="#1A7A42"/>
  <text x="60" y="18" text-anchor="middle" font-family="Arial,sans-serif" font-size="9.5" fill="#fff" font-weight="bold">TACHYON DRIVE</text>
  <!-- Icon -->
  
    <path d="M60 33 L76 52 L71 52 L71 64 L49 64 L49 52 L44 52 Z" fill="none" stroke="#1A7A42" stroke-width="2.2"/>
    <path d="M60 38 L72 50 L69 50 L69 62 L51 62 L51 50 L48 50 Z" fill="#1A7A42" opacity="0.2"/>
    <line x1="51" y1="64" x2="47" y2="72" stroke="#1A7A42" stroke-width="1.3" opacity="0.5"/>
    <line x1="60" y1="64" x2="60" y2="72" stroke="#1A7A42" stroke-width="1.3" opacity="0.5"/>
    <line x1="69" y1="64" x2="73" y2="72" stroke="#1A7A42" stroke-width="1.3" opacity="0.5"/>
  <!-- Max cost circle (bottom-left, big) -->
  <circle cx="22" cy="104" r="14" fill="#1A7A42" opacity="0.9"/>
  <text x="22" y="110" text-anchor="middle" font-family="Arial,sans-serif" font-size="13" fill="#fff" font-weight="bold">12</text>
  <!-- Min cost (bottom-right, small) -->
  <circle cx="100" cy="106" r="10" fill="#1A7A42" opacity="0.55"/>
  <text x="100" y="111" text-anchor="middle" font-family="Arial,sans-serif" font-size="11" fill="#fff" font-weight="bold">6</text>
  <!-- Border -->
  <rect x="1" y="1" width="118" height="118" rx="7" fill="none" stroke="#1A7A42" stroke-width="2"/>
</svg>