<svg xmlns="http://www.w3.org/2000/svg" viewBox="0 0 120 120">
  <!-- Background -->
  <rect width="120" height="120" rx="8" fill="#1a1a2e"/>
  <!-- Top banner -->
  <rect y="0" width="120" height="26" fill="#D63384"/>
  <rect y="0" width="120" height="8" rx="8" fill="#D63384"/>
  <text x="60" y="18" text-anchor="middle" font-family="Arial,sans-serif" font-size="9.5" fill="#fff" font-weight="bold">TACHYON SOURCE</text>
  <!-- Icon -->
  
    <circle cx="60" cy="56" r="16" fill="#D63384" opacity="0.05"/>
    <circle cx="60" cy="56" r="11" fill="#D63384" opacity="0.08"/>
    <circle cx="60" cy="56" r="6" fill="#D63384" opacity="0.18"/>
    <circle cx="60" cy="56" r="3" fill="#D63384" opacity="0.5"/>
    <circle cx="60" cy="56" r="1.5" fill="#D63384" opacity="0.9"/>
    <line x1="60" y1="36" x2="60" y2="43" stroke="#D63384" stroke-width="1.8"/>
    <line x1="60" y1="69" x2="60" y2="76" stroke="#D63384" stroke-width="1.8"/>
    <line x1="40" y1="56" x2="47" y2="56" stroke="#D63384" stroke-width="1.8"/>
    <line x1="73" y1="56" x2="80" y2="56" stroke="#D63384" stroke-width="1.8"/>
    <ellipse cx="60" cy="56" rx="18" ry="5" fill="none" stroke="#D63384" stroke-width="1" opacity="0.3" transform="rotate(25 60 56)"/>
    <ellipse cx="60" cy="56" rx="18" ry="5" fill="none" stroke="#D63384" stroke-width="1" opacity="0.3" transform="rotate(-25 60 56)"/>
  <!-- Max cost circle (bottom-left, big) -->
  <circle cx="22" cy="104" r="14" fill="#D63384" opacity="0.9"/>
  <text x="22" y="110" text-anchor="middle" font-family="Arial,sans-serif" font-size="13" fill="#fff" font-weight="bold">12</text>
  <!-- Min cost (bottom-right, small) -->
  <circle cx="100" cy="106" r="10" fill="#D63384" opacity="0.55"/>
  <text x="100" y="111" text-anchor="middle" font-family="Arial,sans-serif" font-size="11" fill="#fff" font-weight="bold">6</text>
  <!-- Border -->
  <rect x="1" y="1" width="118" height="118" rx="7" fill="none" stroke="#D63384" stroke-width="2"/>
</svg>