<svg width="64" height="64" viewBox="0 0 64 64" fill="none" xmlns="http://www.w3.org/2000/svg"><mask id="a" maskUnits="userSpaceOnUse" x="5.956" y="6.48" width="52" height="51" fill="#000"><path fill="#fff" d="M5.956 6.48h52v51h-52z"/><path d="M18.105 15.586v8.21h-.003l-7.146 4.106v8.212l7.147 4.106v8.194l7.148 4.106 7.149-4.106 7.147 4.106 7.15-4.106v-8.195l7.147-4.105v-8.212l-7.148-4.106v-8.21l-7.15-4.106-7.145 4.105-7.148-4.105h-.001l-7.146 4.106Z"/></mask><path d="M18.105 15.586v8.21h-.003l-7.146 4.106v8.212l7.147 4.106v8.194l7.148 4.106 7.149-4.106 7.147 4.106 7.15-4.106v-8.195l7.147-4.105v-8.212l-7.148-4.106v-8.21l-7.15-4.106-7.145 4.105-7.148-4.105h-.001l-7.146 4.106Z" stroke="#000" stroke-width="8.2" stroke-linejoin="round" mask="url(#a)"/><mask id="b" maskUnits="userSpaceOnUse" x="6.956" y="7.48" width="50" height="49" fill="#000"><path fill="#fff" d="M6.956 7.48h50v49h-50z"/><path d="M18.105 15.586v8.21h-.003l-7.146 4.106v8.212l7.147 4.106v8.194l7.148 4.106 7.149-4.106 7.147 4.106 7.15-4.106v-8.195l7.147-4.105v-8.212l-7.148-4.106v-8.21l-7.15-4.106-7.145 4.105-7.148-4.105h-.001l-7.146 4.106Z"/></mask><path d="M18.105 15.586v8.21h-.003l-7.146 4.106v8.212l7.147 4.106v8.194l7.148 4.106 7.149-4.106 7.147 4.106 7.15-4.106v-8.195l7.147-4.105v-8.212l-7.148-4.106v-8.21l-7.15-4.106-7.145 4.105-7.148-4.105h-.001l-7.146 4.106Z" stroke="#57AFD6" stroke-width="6.08" stroke-linejoin="round" mask="url(#b)"/><mask id="c" maskUnits="userSpaceOnUse" x="7.956" y="8.48" width="49" height="47" fill="#000"><path fill="#fff" d="M7.956 8.48h49v47h-49z"/><path d="M18.105 15.586v8.21h-.003l-7.146 4.106v8.212l7.147 4.106v8.194l7.148 4.106 7.149-4.106 7.147 4.106 7.15-4.106v-8.195l7.147-4.105v-8.212l-7.148-4.106v-8.21l-7.15-4.106-7.145 4.105-7.148-4.105h-.001l-7.146 4.106Z"/></mask><path d="M18.105 15.586v8.21h-.003l-7.146 4.106v8.212l7.147 4.106v8.194l7.148 4.106 7.149-4.106 7.147 4.106 7.15-4.106v-8.195l7.147-4.105v-8.212l-7.148-4.106v-8.21l-7.15-4.106-7.145 4.105-7.148-4.105h-.001l-7.146 4.106Z" stroke="#80CFF3" stroke-width="4.56" stroke-linejoin="round" mask="url(#c)"/><mask id="d" maskUnits="userSpaceOnUse" x="8.956" y="9.48" width="47" height="45" fill="#000"><path fill="#fff" d="M8.956 9.48h47v45h-47z"/><path d="M18.105 15.586v8.21h-.003l-7.146 4.106v8.212l7.147 4.106v8.194l7.148 4.106 7.149-4.106 7.147 4.106 7.15-4.106v-8.195l7.147-4.105v-8.212l-7.148-4.106v-8.21l-7.15-4.106-7.145 4.105-7.148-4.105h-.001l-7.146 4.106Z"/></mask><path d="M18.105 15.586v8.21h-.003l-7.146 4.106v8.212l7.147 4.106v8.194l7.148 4.106 7.149-4.106 7.147 4.106 7.15-4.106v-8.195l7.147-4.105v-8.212l-7.148-4.106v-8.21l-7.15-4.106-7.145 4.105-7.148-4.105h-.001l-7.146 4.106Z" stroke="#F2E8C0" stroke-width="3.04" stroke-linejoin="round" mask="url(#d)"/><mask id="e" maskUnits="userSpaceOnUse" x="9.956" y="10.48" width="45" height="43" fill="#000"><path fill="#fff" d="M9.956 10.48h45v43h-45z"/><path d="M18.105 15.586v8.21h-.003l-7.146 4.106v8.212l7.147 4.106v8.194l7.148 4.106 7.149-4.106 7.147 4.106 7.15-4.106v-8.195l7.147-4.105v-8.212l-7.148-4.106v-8.21l-7.15-4.106-7.145 4.105-7.148-4.105h-.001l-7.146 4.106Z"/></mask><path d="M18.105 15.586v8.21h-.003l-7.146 4.106v8.212l7.147 4.106v8.194l7.148 4.106 7.149-4.106 7.147 4.106 7.15-4.106v-8.195l7.147-4.105v-8.212l-7.148-4.106v-8.21l-7.15-4.106-7.145 4.105-7.148-4.105h-.001l-7.146 4.106Z" stroke="#E0B66C" stroke-width="1.52" stroke-linejoin="round" mask="url(#e)"/><path d="M32.399 15.586v8.212l7.148 4.107 7.148-4.107v-8.212l-7.148-4.106-7.148 4.106Z" fill="#A1B802"/><path d="m39.547 12.855 5.951 3.419v6.837l-5.951 3.419-5.951-3.42v-6.836l5.951-3.419Zm0-1.375-7.148 4.106v8.212l7.148 4.107 7.15-4.107v-8.212l-7.15-4.106Z" fill="#4F7301"/><path d="m39.547 12.665 6.116 3.514v7.026l-6.116 3.514-6.118-3.514V16.18l6.116-3.514h.002Zm-.002-1.185L32.4 15.586v8.212l7.148 4.107 7.15-4.107v-8.212l-7.15-4.106h-.002Z" fill="#CED501"/><path d="m39.547 12.095 6.611 3.798v7.6l-6.611 3.795-6.612-3.796v-7.598l6.612-3.799Zm0-.615-7.148 4.106v8.212l7.148 4.107 7.15-4.107v-8.212l-7.15-4.106Z" fill="#849E01"/><mask id="f" fill="#fff"><path d="m39.547 12.002 6.694 3.845v7.69l-6.694 3.846-6.695-3.845v-7.691l6.694-3.845h.001Zm0-.522-7.148 4.106v8.212l7.148 4.107 7.15-4.107v-8.212l-7.15-4.106Z"/></mask><path d="m39.547 12.002 6.694 3.845v7.69l-6.694 3.846-6.695-3.845v-7.691l6.694-3.845h.001Zm0-.522-7.148 4.106v8.212l7.148 4.107 7.15-4.107v-8.212l-7.15-4.106Z" fill="#E0B568" stroke="#000" stroke-width=".715" mask="url(#f)"/><path d="M10.956 27.902v8.212l7.148 4.106 7.147-4.106v-8.212l-7.147-4.107-7.148 4.107Z" fill="#1F9D35"/><path d="m18.104 25.17 5.95 3.42v6.836l-5.95 3.419-5.951-3.419V28.59l5.95-3.419Zm0-1.375-7.148 4.107v8.212l7.148 4.106 7.15-4.106v-8.212l-7.15-4.107Z" fill="#4F7301"/><path d="m18.104 24.98 6.116 3.514v7.026l-6.116 3.514-6.118-3.514v-7.026l6.116-3.513h.002Zm-.002-1.185-7.146 4.107v8.212l7.148 4.106 7.15-4.106v-8.212l-7.15-4.107h-.002Z" fill="#5EC148"/><path d="m18.104 24.41 6.61 3.798v7.6l-6.61 3.795-6.613-3.796V28.21l6.613-3.799Zm0-.615-7.148 4.107v8.212l7.148 4.106 7.15-4.106v-8.212l-7.15-4.107Z" fill="#1D5728"/><mask id="g" fill="#fff"><path d="m18.104 24.317 6.694 3.845v7.691l-6.694 3.846-6.695-3.846v-7.69l6.694-3.846Zm-.001-.522-7.147 4.107v8.212l7.148 4.106 7.15-4.106v-8.212l-7.15-4.107h-.001Z"/></mask><path d="m18.104 24.317 6.694 3.845v7.691l-6.694 3.846-6.695-3.846v-7.69l6.694-3.846Zm-.001-.522-7.147 4.107v8.212l7.148 4.106 7.15-4.106v-8.212l-7.15-4.107h-.001Z" fill="#E0B568" stroke="#000" stroke-width=".715" mask="url(#g)"/><path d="M39.547 27.902v8.212l7.148 4.106 7.147-4.106v-8.212l-7.147-4.107-7.148 4.107Z" fill="#1F9D35"/><path d="m46.695 25.17 5.95 3.42v6.836l-5.95 3.419-5.951-3.419V28.59l5.95-3.419Zm0-1.375-7.148 4.107v8.212l7.148 4.106 7.15-4.106v-8.212l-7.15-4.107Z" fill="#4F7301"/><path d="m46.695 24.98 6.115 3.514v7.026l-6.115 3.514-6.118-3.514v-7.026l6.116-3.513h.002Zm-.002-1.185-7.146 4.107v8.212l7.148 4.106 7.15-4.106v-8.212l-7.15-4.107h-.002Z" fill="#5EC148"/><path d="m46.695 24.41 6.61 3.798v7.6l-6.61 3.795-6.613-3.796V28.21l6.613-3.799Zm0-.615-7.148 4.107v8.212l7.148 4.106 7.15-4.106v-8.212l-7.15-4.107Z" fill="#1D5728"/><mask id="h" fill="#fff"><path d="m46.695 24.317 6.694 3.845v7.691l-6.694 3.846L40 35.853v-7.69l6.694-3.846Zm-.001-.522-7.147 4.107v8.212l7.148 4.106 7.15-4.106v-8.212l-7.15-4.107h-.001Z"/></mask><path d="m46.695 24.317 6.694 3.845v7.691l-6.694 3.846L40 35.853v-7.69l6.694-3.846Zm-.001-.522-7.147 4.107v8.212l7.148 4.106 7.15-4.106v-8.212l-7.15-4.107h-.001Z" fill="#E0B568" stroke="#000" stroke-width=".715" mask="url(#h)"/><path d="M32.399 40.202v8.212l7.148 4.106 7.148-4.106v-8.212l-7.148-4.107-7.148 4.107Z" fill="#FEC53C"/><path d="m39.547 37.47 5.951 3.42v6.836l-5.951 3.419-5.951-3.419V40.89l5.951-3.419Zm0-1.375-7.148 4.107v8.212l7.148 4.106 7.15-4.106v-8.212l-7.15-4.107Z" fill="#A3710A"/><path d="m39.547 37.28 6.116 3.514v7.027l-6.116 3.513-6.118-3.514v-7.026l6.116-3.513h.002Zm-.002-1.185L32.4 40.202v8.212l7.148 4.106 7.15-4.106v-8.212l-7.15-4.107h-.002Z" fill="#FFD867"/><path d="m39.547 36.71 6.611 3.798v7.6l-6.611 3.795-6.612-3.795V40.51l6.612-3.8Zm0-.615-7.148 4.107v8.212l7.148 4.106 7.15-4.106v-8.212l-7.15-4.107Z" fill="#966502"/><mask id="i" fill="#fff"><path d="m39.547 36.617 6.694 3.845v7.691l-6.694 3.846-6.695-3.846v-7.69l6.694-3.846h.001Zm0-.522-7.148 4.107v8.212l7.148 4.106 7.15-4.106v-8.212l-7.15-4.107Z"/></mask><path d="m39.547 36.617 6.694 3.845v7.691l-6.694 3.846-6.695-3.846v-7.69l6.694-3.846h.001Zm0-.522-7.148 4.107v8.212l7.148 4.106 7.15-4.106v-8.212l-7.15-4.107Z" fill="#E0B568" stroke="#000" stroke-width=".715" mask="url(#i)"/><path d="M18.104 40.202v8.212l7.147 4.106 7.148-4.106v-8.212l-7.148-4.107-7.148 4.107Z" fill="#B7BDB9"/><path d="m25.251 37.47 5.951 3.42v6.836l-5.95 3.419-5.952-3.419V40.89l5.951-3.419Zm0-1.375-7.148 4.107v8.212l7.148 4.106 7.15-4.106v-8.212l-7.15-4.107Z" fill="#696C6A"/><path d="m25.251 37.28 6.116 3.514v7.027l-6.116 3.513-6.117-3.514v-7.026l6.116-3.513h.001Zm-.001-1.185-7.146 4.107v8.212l7.147 4.106 7.15-4.106v-8.212l-7.15-4.107h-.001Z" fill="#C2C7C4"/><path d="m25.251 36.71 6.611 3.798v7.6l-6.61 3.795-6.613-3.796V40.51l6.612-3.8Zm0-.615-7.148 4.107v8.212l7.148 4.106 7.15-4.106v-8.212l-7.15-4.107Z" fill="#636664"/><mask id="j" fill="#fff"><path d="m25.251 36.617 6.694 3.845v7.69l-6.694 3.846-6.694-3.845v-7.69l6.694-3.846Zm0-.522-7.148 4.107v8.212l7.148 4.106 7.15-4.106v-8.212l-7.15-4.107Z"/></mask><path d="m25.251 36.617 6.694 3.845v7.69l-6.694 3.846-6.694-3.845v-7.69l6.694-3.846Zm0-.522-7.148 4.107v8.212l7.148 4.106 7.15-4.106v-8.212l-7.15-4.107Z" fill="#E0B568" stroke="#000" stroke-width=".715" mask="url(#j)"/><path d="M18.105 15.586V23.8l7.148 4.106 7.148-4.107v-8.212l-7.148-4.106-7.148 4.106Z" fill="#E36529"/><path d="m25.253 12.855 5.951 3.419v6.837l-5.95 3.419-5.952-3.42v-6.836l5.951-3.419Zm0-1.375-7.148 4.106V23.8l7.148 4.106 7.15-4.107v-8.212l-7.15-4.106Z" fill="#C01A23"/><path d="m25.253 12.665 6.116 3.514v7.026l-6.116 3.514-6.117-3.514V16.18l6.116-3.514h.002Zm-.001-1.185-7.146 4.106V23.8l7.147 4.106 7.15-4.107v-8.212l-7.15-4.106h-.001Z" fill="#F9AB44"/><path d="m25.253 12.095 6.612 3.798v7.6l-6.611 3.795-6.613-3.796v-7.598l6.613-3.799Zm0-.615-7.148 4.106V23.8l7.148 4.106 7.15-4.107v-8.212l-7.15-4.106Z" fill="#BE1622"/><mask id="k" fill="#fff"><path d="m25.253 12.002 6.694 3.845v7.69l-6.694 3.846-6.694-3.845v-7.69l6.694-3.846Zm0-.522-7.148 4.106V23.8l7.148 4.106 7.15-4.107v-8.212l-7.15-4.106Z"/></mask><path d="m25.253 12.002 6.694 3.845v7.69l-6.694 3.846-6.694-3.845v-7.69l6.694-3.846Zm0-.522-7.148 4.106V23.8l7.148 4.106 7.15-4.107v-8.212l-7.15-4.106Z" fill="#E0B568" stroke="#000" stroke-width=".715" mask="url(#k)"/><path d="M25.251 27.902v8.212L32.4 40.22l7.148-4.106v-8.212l-7.148-4.107-7.148 4.107Z" fill="#D9D295"/><path d="m32.4 25.17 5.95 3.42v6.836l-5.95 3.419-5.952-3.419V28.59L32.4 25.17Zm0-1.375-7.149 4.107v8.212L32.4 40.22l7.15-4.106v-8.212l-7.15-4.107Z" fill="#887E53"/><path d="m32.4 24.98 6.115 3.514v7.026l-6.116 3.514-6.118-3.514v-7.026l6.117-3.513h.001Zm-.002-1.185-7.147 4.107v8.212L32.4 40.22l7.15-4.106v-8.212l-7.15-4.107h-.002Z" fill="#DACC9B"/><path d="m32.4 24.41 6.61 3.798v7.6l-6.61 3.795-6.613-3.796V28.21l6.612-3.799Zm0-.615-7.149 4.107v8.212L32.4 40.22l7.15-4.106v-8.212l-7.15-4.107Z" fill="#877D52"/><mask id="l" fill="#fff"><path d="m32.4 24.317 6.693 3.845v7.691l-6.694 3.846-6.695-3.846v-7.69l6.694-3.846h.001Zm-.002-.522-7.147 4.107v8.212L32.4 40.22l7.15-4.106v-8.212l-7.15-4.107Z"/></mask><path d="m32.4 24.317 6.693 3.845v7.691l-6.694 3.846-6.695-3.846v-7.69l6.694-3.846h.001Zm-.002-.522-7.147 4.107v8.212L32.4 40.22l7.15-4.106v-8.212l-7.15-4.107Z" fill="#E0B568" stroke="#000" stroke-width=".715" mask="url(#l)"/></svg>