<svg width="65" height="64" viewBox="0 0 65 64" fill="none" xmlns="http://www.w3.org/2000/svg">
<path d="M37.9621 23.605H26.8361C26.8026 23.6049 26.7695 23.6113 26.7385 23.624C26.7076 23.6367 26.6795 23.6554 26.6558 23.679C26.6321 23.7026 26.6133 23.7307 26.6005 23.7615C26.5877 23.7924 26.5811 23.8255 26.5811 23.859V34.657C26.5811 34.797 26.6951 34.911 26.8361 34.911H37.9621C38.1021 34.911 38.2171 34.797 38.2171 34.657V23.86C38.2171 23.8265 38.2105 23.7934 38.1976 23.7626C38.1848 23.7317 38.166 23.7036 38.1423 23.68C38.1186 23.6564 38.0905 23.6377 38.0596 23.625C38.0286 23.6123 37.9955 23.6059 37.9621 23.606V23.605Z" fill="#E0E0E0"/>
<path d="M37.9621 23.605H26.8361C26.8026 23.6049 26.7695 23.6113 26.7385 23.624C26.7076 23.6367 26.6795 23.6554 26.6558 23.679C26.6321 23.7026 26.6133 23.7307 26.6005 23.7615C26.5877 23.7924 26.5811 23.8255 26.5811 23.859V34.657C26.5811 34.797 26.6951 34.911 26.8361 34.911H37.9621C38.1021 34.911 38.2171 34.797 38.2171 34.657V23.86C38.2171 23.8265 38.2105 23.7934 38.1976 23.7626C38.1848 23.7317 38.166 23.7036 38.1423 23.68C38.1186 23.6564 38.0905 23.6377 38.0596 23.625C38.0286 23.6123 37.9955 23.6059 37.9621 23.606V23.605Z" fill="black" fill-opacity="0.1"/>
<path fill-rule="evenodd" clip-rule="evenodd" d="M37.9621 23.805H26.8361C26.8289 23.8048 26.8217 23.8061 26.8151 23.8088C26.8084 23.8115 26.8023 23.8154 26.7972 23.8204C26.7921 23.8255 26.788 23.8315 26.7853 23.8381C26.7825 23.8447 26.7811 23.8518 26.7811 23.859V34.657C26.7811 34.686 26.8041 34.711 26.8361 34.711H37.9621C37.9692 34.7111 37.9764 34.7098 37.983 34.7072C37.9897 34.7045 37.9958 34.7005 38.0009 34.6955C38.006 34.6905 38.0101 34.6845 38.0128 34.6779C38.0156 34.6713 38.0171 34.6642 38.0171 34.657V23.86C38.0171 23.8528 38.0156 23.8457 38.0128 23.8391C38.0101 23.8325 38.006 23.8265 38.0009 23.8214C37.9958 23.8164 37.9897 23.8125 37.983 23.8098C37.9764 23.8071 37.9692 23.8048 37.9621 23.805ZM26.8361 23.605H37.9621C38.1021 23.605 38.2171 23.719 38.2171 23.859V34.657C38.2171 34.797 38.1031 34.911 37.9621 34.911H26.8361C26.8026 34.9111 26.7695 34.9046 26.7385 34.8919C26.7076 34.8792 26.6795 34.8605 26.6558 34.8369C26.6321 34.8133 26.6133 34.7853 26.6005 34.7544C26.5877 34.7235 26.5811 34.6904 26.5811 34.657V23.86C26.5811 23.72 26.6951 23.606 26.8361 23.606V23.605Z" fill="black"/>
<path d="M37.965 23.8609V34.6569H26.85V23.8599H37.964L37.965 23.8609ZM37.965 23.3589H26.85C26.7167 23.3595 26.589 23.4124 26.4945 23.5064C26.4 23.6003 26.3463 23.7277 26.345 23.8609V34.6569C26.3447 34.7232 26.3576 34.7888 26.3829 34.8501C26.4083 34.9113 26.4455 34.9669 26.4925 35.0136C26.5395 35.0603 26.5953 35.0972 26.6566 35.1221C26.718 35.1471 26.7837 35.1596 26.85 35.1589H37.964C38.0973 35.1587 38.2252 35.1058 38.3197 35.0118C38.4143 34.9178 38.4679 34.7903 38.469 34.6569V23.8599C38.4692 23.7937 38.4563 23.728 38.431 23.6668C38.4057 23.6056 38.3685 23.55 38.3215 23.5033C38.2745 23.4566 38.2187 23.4197 38.1573 23.3947C38.0959 23.3698 38.0302 23.3573 37.964 23.3579L37.965 23.3589Z" fill="black"/>
<path d="M22.4589 51.4591C22.3922 51.4591 22.3281 51.4327 22.2807 51.3857C22.2334 51.3387 22.2065 51.2748 22.2059 51.2081L21.6379 32.5811C21.6378 32.548 21.6442 32.5152 21.6569 32.4847C21.6695 32.4541 21.6881 32.4263 21.7115 32.403C21.735 32.3796 21.7628 32.3611 21.7934 32.3486C21.8241 32.3361 21.8569 32.3298 21.8899 32.3301H24.8959C24.9625 32.3304 25.0263 32.3569 25.0735 32.4038C25.1207 32.4508 25.1474 32.5145 25.1479 32.5811V34.8411H27.6409V32.5811C27.6408 32.5479 27.6473 32.5151 27.66 32.4844C27.6727 32.4538 27.6913 32.426 27.7149 32.4026C27.7384 32.3792 27.7664 32.3608 27.7971 32.3483C27.8279 32.3359 27.8608 32.3297 27.8939 32.3301H30.8999C30.9665 32.3304 31.0303 32.3569 31.0775 32.4038C31.1247 32.4508 31.1514 32.5145 31.1519 32.5811V34.8411H33.6449V32.5811C33.6448 32.5479 33.6513 32.5151 33.664 32.4844C33.6767 32.4538 33.6953 32.426 33.7189 32.4026C33.7424 32.3792 33.7704 32.3608 33.8011 32.3483C33.8319 32.3359 33.8648 32.3297 33.8979 32.3301H36.9029C36.9697 32.3301 37.0337 32.3565 37.0811 32.4035C37.1285 32.4505 37.1554 32.5143 37.1559 32.5811V34.8411H39.6489V32.5811C39.6488 32.548 39.6552 32.5152 39.6679 32.4847C39.6805 32.4541 39.6991 32.4263 39.7225 32.403C39.746 32.3796 39.7738 32.3611 39.8044 32.3486C39.8351 32.3361 39.8679 32.3298 39.9009 32.3301H42.9169C42.9836 32.3304 43.0475 32.3568 43.0949 32.4038C43.1422 32.4507 43.1692 32.5144 43.1699 32.5811L42.5939 51.2131C42.5939 51.2462 42.5874 51.2789 42.5746 51.3095C42.5619 51.34 42.5432 51.3677 42.5197 51.3909C42.4961 51.4142 42.4682 51.4325 42.4375 51.4449C42.4069 51.4573 42.374 51.4635 42.3409 51.4631L22.4599 51.4601L22.4589 51.4591Z" fill="#E0E0E0"/>
<path d="M22.4589 51.4591C22.3922 51.4591 22.3281 51.4327 22.2807 51.3857C22.2334 51.3387 22.2065 51.2748 22.2059 51.2081L21.6379 32.5811C21.6378 32.548 21.6442 32.5152 21.6569 32.4847C21.6695 32.4541 21.6881 32.4263 21.7115 32.403C21.735 32.3796 21.7628 32.3611 21.7934 32.3486C21.8241 32.3361 21.8569 32.3298 21.8899 32.3301H24.8959C24.9625 32.3304 25.0263 32.3569 25.0735 32.4038C25.1207 32.4508 25.1474 32.5145 25.1479 32.5811V34.8411H27.6409V32.5811C27.6408 32.5479 27.6473 32.5151 27.66 32.4844C27.6727 32.4538 27.6913 32.426 27.7149 32.4026C27.7384 32.3792 27.7664 32.3608 27.7971 32.3483C27.8279 32.3359 27.8608 32.3297 27.8939 32.3301H30.8999C30.9665 32.3304 31.0303 32.3569 31.0775 32.4038C31.1247 32.4508 31.1514 32.5145 31.1519 32.5811V34.8411H33.6449V32.5811C33.6448 32.5479 33.6513 32.5151 33.664 32.4844C33.6767 32.4538 33.6953 32.426 33.7189 32.4026C33.7424 32.3792 33.7704 32.3608 33.8011 32.3483C33.8319 32.3359 33.8648 32.3297 33.8979 32.3301H36.9029C36.9697 32.3301 37.0337 32.3565 37.0811 32.4035C37.1285 32.4505 37.1554 32.5143 37.1559 32.5811V34.8411H39.6489V32.5811C39.6488 32.548 39.6552 32.5152 39.6679 32.4847C39.6805 32.4541 39.6991 32.4263 39.7225 32.403C39.746 32.3796 39.7738 32.3611 39.8044 32.3486C39.8351 32.3361 39.8679 32.3298 39.9009 32.3301H42.9169C42.9836 32.3304 43.0475 32.3568 43.0949 32.4038C43.1422 32.4507 43.1692 32.5144 43.1699 32.5811L42.5939 51.2131C42.5939 51.2462 42.5874 51.2789 42.5746 51.3095C42.5619 51.34 42.5432 51.3677 42.5197 51.3909C42.4961 51.4142 42.4682 51.4325 42.4375 51.4449C42.4069 51.4573 42.374 51.4635 42.3409 51.4631L22.4599 51.4601L22.4589 51.4591Z" fill="black" fill-opacity="0.1"/>
<path d="M44.254 25.9099C44.1886 25.9062 44.1268 25.8787 44.0803 25.8327C44.0337 25.7867 44.0055 25.7253 44.001 25.6599L43.9 24.1529C43.8976 24.0871 43.9181 24.0224 43.958 23.9699L48.954 18.0119C48.9797 17.9831 49.0111 17.96 49.0462 17.944C49.0813 17.928 49.1194 17.9194 49.158 17.9189C49.1968 17.919 49.2351 17.9274 49.2705 17.9434C49.3058 17.9595 49.3373 17.9828 49.363 18.0119L54.356 23.9649C54.3826 23.9974 54.4013 24.0357 54.4107 24.0766C54.42 24.1175 54.4198 24.1601 54.41 24.2009L54.05 25.7069C54.0355 25.7635 54.0032 25.8138 53.9577 25.8504C53.9123 25.887 53.8563 25.9079 53.798 25.9099H44.254Z" fill="#81635E"/>
<path fill-rule="evenodd" clip-rule="evenodd" d="M54.41 24.1999C54.4197 24.1593 54.42 24.117 54.4108 24.0762C54.4016 24.0355 54.3832 23.9974 54.357 23.9649L49.363 18.0119C49.3373 17.9828 49.3058 17.9594 49.2705 17.9434C49.2351 17.9275 49.1968 17.9192 49.158 17.9192C49.1192 17.9192 49.0808 17.9275 49.0455 17.9434C49.0101 17.9594 48.9786 17.9828 48.953 18.0119L43.958 23.9699C43.9181 24.0224 43.8976 24.087 43.9 24.1529L44 25.6589C44.0034 25.7249 44.0314 25.7872 44.0783 25.8336C44.1253 25.88 44.188 25.9072 44.254 25.9099H53.798C53.8563 25.9074 53.9122 25.8864 53.9577 25.8499C54.0032 25.8133 54.0359 25.7633 54.051 25.7069L54.41 24.1999ZM53.857 25.6579L54.215 24.1529C54.2177 24.1423 54.2179 24.1311 54.2157 24.1204C54.2134 24.1096 54.2087 24.0996 54.202 24.0909L49.212 18.1429C49.2053 18.1355 49.1971 18.1295 49.188 18.1254C49.1788 18.1213 49.169 18.1191 49.159 18.1189C49.1385 18.1196 49.1192 18.1282 49.105 18.1429L44.115 24.0929C44.1049 24.1076 44.0996 24.1251 44.1 24.1429L44.2 25.6479C44.2013 25.6636 44.2079 25.6783 44.2189 25.6896C44.2298 25.7009 44.2443 25.7081 44.26 25.7099H53.793C53.8076 25.7087 53.8215 25.7031 53.833 25.6939C53.8446 25.6847 53.853 25.6721 53.857 25.6579Z" fill="black"/>
<path d="M49.149 18.1821L54.142 24.1351L53.778 25.6591H44.254L44.153 24.1531L49.146 18.1971L49.149 18.1821ZM49.146 17.6951C49.07 17.695 48.9948 17.7116 48.9259 17.7438C48.8569 17.7759 48.7959 17.8228 48.747 17.8811L43.749 23.8361C43.6633 23.9373 43.6196 24.0676 43.627 24.2001L43.726 25.7071C43.735 25.8401 43.7949 25.9646 43.8932 26.0548C43.9915 26.1449 44.1207 26.1937 44.254 26.1911H53.781C53.8972 26.1898 54.0097 26.1502 54.101 26.0784C54.1923 26.0066 54.2574 25.9066 54.286 25.7941L54.65 24.2881C54.6671 24.2096 54.6664 24.1283 54.6481 24.0501C54.6298 23.9719 54.5942 23.8988 54.544 23.8361L49.558 17.8811C49.5078 17.8237 49.446 17.7774 49.3768 17.7454C49.3075 17.7133 49.2323 17.6962 49.156 17.6951H49.146Z" fill="black"/>
<mask id="mask0_515_29" style="mask-type:luminance" maskUnits="userSpaceOnUse" x="10" y="17" width="11" height="9">
<path d="M10.7679 25.9101C10.7025 25.9065 10.6406 25.8792 10.594 25.8331C10.5474 25.787 10.5192 25.7255 10.5149 25.6601L10.4139 24.1531C10.411 24.0833 10.4346 24.0151 10.4799 23.9621L15.4599 18.0121C15.4977 17.9678 15.549 17.9371 15.6058 17.9246C15.6627 17.9122 15.7221 17.9187 15.7749 17.9431C15.8099 17.9591 15.8409 17.9831 15.8669 18.0121L20.8699 23.9651C20.8962 23.9978 20.9146 24.036 20.9238 24.0769C20.933 24.1178 20.9327 24.1603 20.9229 24.2011L20.5629 25.7071C20.5485 25.7637 20.516 25.8142 20.4703 25.8508C20.4247 25.8874 20.3684 25.9082 20.3099 25.9101H10.7679Z" fill="white"/>
</mask>
<g mask="url(#mask0_515_29)">
<path d="M10.7679 25.9101C10.7025 25.9065 10.6406 25.8792 10.594 25.8331C10.5474 25.787 10.5192 25.7255 10.5149 25.6601L10.4139 24.1531C10.411 24.0833 10.4346 24.0151 10.4799 23.9621L15.4599 18.0121C15.4977 17.9678 15.549 17.9371 15.6058 17.9246C15.6627 17.9122 15.7221 17.9187 15.7749 17.9431C15.8099 17.9591 15.8409 17.9831 15.8669 18.0121L20.8699 23.9651C20.8962 23.9978 20.9146 24.036 20.9238 24.0769C20.933 24.1178 20.9327 24.1603 20.9229 24.2011L20.5629 25.7071C20.5485 25.7637 20.516 25.8142 20.4703 25.8508C20.4247 25.8874 20.3684 25.9082 20.3099 25.9101H10.7679Z" fill="#81635E" stroke="black" stroke-width="0.4"/>
</g>
<path d="M15.6619 18.1831L20.6549 24.135L20.2949 25.642H10.7669L10.6679 24.135H10.6609L15.6609 18.18L15.6619 18.1831ZM15.6619 17.678C15.5857 17.6777 15.5103 17.6942 15.4412 17.7263C15.372 17.7585 15.3108 17.8055 15.2619 17.864L10.2689 23.824C10.1896 23.9264 10.1495 24.0537 10.1559 24.1831L10.2559 25.689C10.2637 25.8187 10.3202 25.9407 10.414 26.0306C10.5078 26.1206 10.632 26.1718 10.7619 26.174H20.2819C20.3984 26.1721 20.5109 26.1319 20.6022 26.0596C20.6935 25.9873 20.7584 25.8869 20.7869 25.774L21.1469 24.268C21.1629 24.1909 21.1618 24.1111 21.1436 24.0344C21.1255 23.9577 21.0908 23.8859 21.0419 23.824L16.0479 17.861C15.9978 17.8038 15.9362 17.7577 15.8671 17.7257C15.798 17.6936 15.7231 17.6764 15.6469 17.675L15.6619 17.678Z" fill="black"/>
<path d="M27.495 20.5201C27.4279 20.5181 27.3638 20.4916 27.315 20.4455C27.2661 20.3994 27.2359 20.337 27.23 20.2701L27.131 18.7631C27.128 18.6978 27.1486 18.6335 27.189 18.5821L32.185 12.6221C32.232 12.5681 32.2984 12.5348 32.3697 12.5295C32.4411 12.5243 32.5117 12.5475 32.566 12.5941L32.594 12.6221L37.585 18.5771C37.6108 18.6089 37.6292 18.646 37.6389 18.6858C37.6486 18.7256 37.6493 18.767 37.641 18.8071L37.28 20.3141C37.2651 20.3706 37.2326 20.4209 37.187 20.4577C37.1415 20.4944 37.0854 20.5155 37.027 20.5181L27.495 20.5201Z" fill="#81635E"/>
<path fill-rule="evenodd" clip-rule="evenodd" d="M27.498 20.32L37.02 20.318C37.035 20.3166 37.0493 20.3106 37.061 20.301C37.0728 20.2919 37.0815 20.2793 37.086 20.265L37.446 18.765C37.4481 18.7544 37.4479 18.7434 37.4453 18.7328C37.4427 18.7223 37.4378 18.7125 37.431 18.704L32.447 12.757L32.432 12.743C32.4214 12.7352 32.409 12.7305 32.396 12.7292C32.3829 12.728 32.3698 12.7303 32.358 12.736C32.35 12.7399 32.3429 12.7454 32.337 12.752L27.345 18.707C27.3355 18.7201 27.3305 18.7359 27.331 18.752L27.429 20.255C27.4305 20.2722 27.4383 20.2882 27.451 20.3C27.463 20.312 27.481 20.32 27.498 20.32ZM27.23 20.27C27.235 20.3372 27.2649 20.4002 27.314 20.4464C27.363 20.4927 27.4276 20.5189 27.495 20.52L37.027 20.518C37.0851 20.5148 37.1407 20.4933 37.1859 20.4567C37.2312 20.4201 37.2637 20.3702 37.279 20.314L37.641 18.808C37.6495 18.7678 37.6489 18.7261 37.6392 18.6861C37.6295 18.6462 37.611 18.6089 37.585 18.577L32.595 12.622L32.566 12.594C32.5391 12.5708 32.508 12.5531 32.4743 12.542C32.4406 12.5308 32.4051 12.5264 32.3697 12.529C32.3343 12.5316 32.2998 12.5412 32.2681 12.5571C32.2364 12.5731 32.2081 12.5951 32.185 12.622L27.189 18.582C27.1488 18.6332 27.1282 18.697 27.131 18.762L27.23 20.269V20.27Z" fill="black"/>
<path d="M32.3829 12.7769L37.3729 18.7319L37.0129 20.2389H27.4949L27.3949 18.7319L32.3829 12.7769ZM32.3829 12.2749C32.3064 12.2759 32.231 12.2931 32.1617 12.3256C32.0923 12.358 32.0307 12.4048 31.9809 12.4629L27.0049 18.4159C26.92 18.5183 26.8771 18.6491 26.8849 18.7819L26.9829 20.2889C26.9916 20.4205 27.0503 20.5438 27.147 20.6334C27.2437 20.723 27.3711 20.7723 27.5029 20.7709H37.0299C37.1461 20.7695 37.2585 20.7298 37.3498 20.6581C37.4411 20.5863 37.5061 20.4864 37.5349 20.3739L37.8959 18.8679C37.9144 18.7895 37.9145 18.7079 37.8961 18.6295C37.8777 18.5511 37.8414 18.478 37.7899 18.4159L32.7899 12.4629C32.7404 12.4032 32.6782 12.3554 32.6077 12.3228C32.5373 12.2903 32.4605 12.2739 32.3829 12.2749Z" fill="black"/>
<path fill-rule="evenodd" clip-rule="evenodd" d="M42.341 51.4639L22.459 51.4589C22.3922 51.4589 22.3282 51.4325 22.2808 51.3855C22.2334 51.3385 22.2065 51.2747 22.206 51.2079L21.638 32.5809C21.6378 32.5478 21.6443 32.5151 21.6569 32.4845C21.6695 32.4539 21.6881 32.4261 21.7115 32.4028C21.735 32.3794 21.7628 32.361 21.7934 32.3485C21.8241 32.336 21.8569 32.3297 21.89 32.3299H24.896C24.9625 32.3302 25.0263 32.3567 25.0735 32.4037C25.1207 32.4506 25.1474 32.5143 25.148 32.5809V34.8409H27.642V32.5809C27.6418 32.5478 27.6483 32.5151 27.6609 32.4845C27.6735 32.4539 27.6921 32.4261 27.7155 32.4028C27.739 32.3794 27.7668 32.361 27.7975 32.3485C27.8281 32.336 27.8609 32.3297 27.894 32.3299H30.9C30.9665 32.3302 31.0303 32.3567 31.0775 32.4037C31.1247 32.4506 31.1514 32.5143 31.152 32.5809V34.8409H33.645V32.5809C33.6448 32.5477 33.6513 32.5149 33.664 32.4842C33.6767 32.4536 33.6953 32.4258 33.7189 32.4024C33.7424 32.3791 33.7704 32.3606 33.8011 32.3482C33.8319 32.3357 33.8648 32.3295 33.898 32.3299H36.903C36.9697 32.3299 37.0338 32.3563 37.0812 32.4033C37.1286 32.4503 37.1554 32.5142 37.156 32.5809V34.8409H39.649V32.5809C39.6488 32.5478 39.6553 32.5151 39.6679 32.4845C39.6805 32.4539 39.6991 32.4261 39.7225 32.4028C39.746 32.3794 39.7738 32.361 39.8044 32.3485C39.8351 32.336 39.8679 32.3297 39.901 32.3299H42.917C42.9837 32.3299 43.0478 32.3563 43.0952 32.4033C43.1426 32.4503 43.1694 32.5142 43.17 32.5809L42.594 51.2129C42.594 51.246 42.5874 51.2788 42.5747 51.3093C42.5619 51.3398 42.5432 51.3675 42.5197 51.3908C42.4962 51.414 42.4682 51.4324 42.4376 51.4448C42.4069 51.4571 42.374 51.4643 42.341 51.4639ZM39.45 34.6399V32.5799C39.4498 32.5205 39.4615 32.4616 39.4842 32.4067C39.507 32.3518 39.5404 32.3019 39.5825 32.26C39.6246 32.2181 39.6746 32.1849 39.7296 32.1624C39.7846 32.1399 39.8435 32.1285 39.903 32.1289H42.918C43.0377 32.1292 43.1525 32.1767 43.2373 32.2612C43.3221 32.3456 43.3702 32.4602 43.371 32.5799V32.5859L42.795 51.2159C42.7946 51.275 42.7825 51.3334 42.7596 51.3879C42.7366 51.4423 42.7031 51.4917 42.661 51.5332C42.619 51.5747 42.5692 51.6076 42.5144 51.6298C42.4597 51.6521 42.4011 51.6633 42.342 51.6629L22.46 51.6579C22.3408 51.6577 22.2264 51.6105 22.1417 51.5267C22.0569 51.4429 22.0085 51.3291 22.007 51.2099L21.439 32.5799C21.4388 32.5206 21.4504 32.4618 21.4731 32.4069C21.4958 32.3521 21.5291 32.3023 21.5711 32.2604C21.6131 32.2184 21.663 32.1852 21.7179 32.1627C21.7728 32.1401 21.8316 32.1287 21.891 32.1289H24.897C25.0168 32.1289 25.1317 32.1764 25.2166 32.2609C25.3015 32.3454 25.3494 32.4601 25.35 32.5799V34.6399H27.443V32.5799C27.4428 32.5206 27.4544 32.4618 27.4771 32.4069C27.4998 32.3521 27.5331 32.3023 27.5751 32.2604C27.6171 32.2184 27.667 32.1852 27.7219 32.1627C27.7768 32.1401 27.8356 32.1287 27.895 32.1289H30.9C31.0195 32.1294 31.134 32.1771 31.2186 32.2615C31.3033 32.346 31.3512 32.4604 31.352 32.5799V34.6399H33.445V32.5799C33.4448 32.5205 33.4565 32.4616 33.4792 32.4067C33.502 32.3518 33.5354 32.3019 33.5775 32.26C33.6196 32.2181 33.6696 32.1849 33.7246 32.1624C33.7796 32.1399 33.8385 32.1285 33.898 32.1289H36.903C37.0228 32.1289 37.1377 32.1764 37.2226 32.2609C37.3075 32.3454 37.3554 32.4601 37.356 32.5799V34.6399H39.45Z" fill="black"/>
<path d="M42.918 32.578L42.339 51.21H22.454L21.886 32.583H24.889V35.093H27.895V32.583H30.9V35.093H33.898V32.583H36.904V35.093H39.907V32.583H42.913L42.918 32.578ZM42.913 32.081H39.907C39.7736 32.0812 39.6458 32.1341 39.5512 32.2281C39.4567 32.3221 39.403 32.4496 39.402 32.583V34.592H37.434V32.583C37.4342 32.5167 37.4213 32.4511 37.396 32.3898C37.3707 32.3286 37.3335 32.273 37.2865 32.2263C37.2395 32.1796 37.1837 32.1427 37.1223 32.1178C37.0609 32.0928 36.9952 32.0803 36.929 32.081H33.924C33.7905 32.0809 33.6624 32.1337 33.5676 32.2277C33.4728 32.3218 33.419 32.4494 33.418 32.583V34.592H31.426V32.583C31.4262 32.5166 31.4133 32.4509 31.3879 32.3896C31.3625 32.3283 31.3252 32.2727 31.2781 32.226C31.231 32.1792 31.1751 32.1424 31.1136 32.1175C31.0521 32.0926 30.9863 32.0802 30.92 32.081H27.915C27.7816 32.0812 27.6538 32.1341 27.5592 32.2281C27.4647 32.3221 27.411 32.4496 27.41 32.583V34.592H25.427V32.583C25.4272 32.5167 25.4143 32.4511 25.389 32.3898C25.3637 32.3286 25.3265 32.273 25.2795 32.2263C25.2325 32.1796 25.1767 32.1427 25.1153 32.1178C25.0539 32.0928 24.9882 32.0803 24.922 32.081H21.89C21.7877 32.0812 21.6879 32.1122 21.6035 32.17C21.5191 32.2278 21.4541 32.3097 21.417 32.405C21.393 32.4681 21.3821 32.5355 21.385 32.603L21.961 51.22C21.9607 51.2862 21.9736 51.3518 21.9989 51.4131C22.0242 51.4743 22.0615 51.5299 22.1085 51.5766C22.1555 51.6233 22.2113 51.6602 22.2726 51.6851C22.334 51.7101 22.3997 51.7226 22.466 51.722H42.351C42.4842 51.7214 42.6119 51.6685 42.7064 51.5745C42.8009 51.4806 42.8547 51.3532 42.856 51.22L43.425 32.61V32.568C43.4252 32.5016 43.4123 32.4359 43.3869 32.3746C43.3615 32.3133 43.3242 32.2577 43.2771 32.211C43.23 32.1642 43.1741 32.1274 43.1126 32.1025C43.0511 32.0776 42.9853 32.0652 42.919 32.066L42.913 32.081Z" fill="black"/>
<path d="M8.90502 51.4641C8.86915 51.464 8.8337 51.4564 8.80099 51.4417C8.76828 51.4269 8.73906 51.4055 8.71525 51.3786C8.69145 51.3518 8.67359 51.3202 8.66287 51.286C8.65214 51.2518 8.64878 51.2157 8.65302 51.1801L9.60702 29.4251L8.69302 28.1571C8.66258 28.1129 8.64588 28.0607 8.64502 28.0071V23.4371C8.64489 23.4039 8.65135 23.371 8.66404 23.3404C8.67674 23.3097 8.6954 23.2819 8.71895 23.2586C8.74249 23.2352 8.77045 23.2168 8.8012 23.2043C8.83194 23.1919 8.86485 23.1857 8.89802 23.1861H11.605C11.6718 23.1861 11.7358 23.2124 11.7832 23.2594C11.8306 23.3065 11.8575 23.3703 11.858 23.4371V25.8471H14.058V23.4371C14.0579 23.404 14.0643 23.3712 14.077 23.3406C14.0896 23.31 14.1082 23.2823 14.1316 23.2589C14.155 23.2356 14.1829 23.2171 14.2135 23.2046C14.2441 23.1921 14.2769 23.1858 14.31 23.1861H17.02C17.0535 23.1859 17.0867 23.1924 17.1177 23.2051C17.1487 23.2178 17.1769 23.2364 17.2006 23.26C17.2244 23.2836 17.2433 23.3117 17.2562 23.3425C17.2692 23.3734 17.2759 23.4066 17.276 23.4401V25.8501H19.478V23.4401C19.4779 23.4069 19.4844 23.374 19.497 23.3434C19.5097 23.3127 19.5284 23.2849 19.5519 23.2616C19.5755 23.2382 19.6035 23.2198 19.6342 23.2073C19.6649 23.1949 19.6979 23.1887 19.731 23.1891H22.458C22.5246 23.189 22.5885 23.2153 22.6359 23.2621C22.6832 23.3089 22.7102 23.3725 22.711 23.4391V28.0021C22.711 28.0561 22.6935 28.1088 22.661 28.1521L21.749 29.4251L22.711 51.1901C22.7155 51.2399 22.7048 51.29 22.6803 51.3337C22.6559 51.3774 22.6188 51.4127 22.574 51.4351C22.5443 51.4498 22.5121 51.4586 22.479 51.4611H8.90502V51.4641Z" fill="#E0E0E0"/>
<path d="M8.90502 51.4641C8.86915 51.464 8.8337 51.4564 8.80099 51.4417C8.76828 51.4269 8.73906 51.4055 8.71525 51.3786C8.69145 51.3518 8.67359 51.3202 8.66287 51.286C8.65214 51.2518 8.64878 51.2157 8.65302 51.1801L9.60702 29.4251L8.69302 28.1571C8.66258 28.1129 8.64588 28.0607 8.64502 28.0071V23.4371C8.64489 23.4039 8.65135 23.371 8.66404 23.3404C8.67674 23.3097 8.6954 23.2819 8.71895 23.2586C8.74249 23.2352 8.77045 23.2168 8.8012 23.2043C8.83194 23.1919 8.86485 23.1857 8.89802 23.1861H11.605C11.6718 23.1861 11.7358 23.2124 11.7832 23.2594C11.8306 23.3065 11.8575 23.3703 11.858 23.4371V25.8471H14.058V23.4371C14.0579 23.404 14.0643 23.3712 14.077 23.3406C14.0896 23.31 14.1082 23.2823 14.1316 23.2589C14.155 23.2356 14.1829 23.2171 14.2135 23.2046C14.2441 23.1921 14.2769 23.1858 14.31 23.1861H17.02C17.0535 23.1859 17.0867 23.1924 17.1177 23.2051C17.1487 23.2178 17.1769 23.2364 17.2006 23.26C17.2244 23.2836 17.2433 23.3117 17.2562 23.3425C17.2692 23.3734 17.2759 23.4066 17.276 23.4401V25.8501H19.478V23.4401C19.4779 23.4069 19.4844 23.374 19.497 23.3434C19.5097 23.3127 19.5284 23.2849 19.5519 23.2616C19.5755 23.2382 19.6035 23.2198 19.6342 23.2073C19.6649 23.1949 19.6979 23.1887 19.731 23.1891H22.458C22.5246 23.189 22.5885 23.2153 22.6359 23.2621C22.6832 23.3089 22.7102 23.3725 22.711 23.4391V28.0021C22.711 28.0561 22.6935 28.1088 22.661 28.1521L21.749 29.4251L22.711 51.1901C22.7155 51.2399 22.7048 51.29 22.6803 51.3337C22.6559 51.3774 22.6188 51.4127 22.574 51.4351C22.5443 51.4498 22.5121 51.4586 22.479 51.4611H8.90502V51.4641Z" fill="black" fill-opacity="0.05"/>
<mask id="mask1_515_29" style="mask-type:luminance" maskUnits="userSpaceOnUse" x="7" y="22" width="17" height="31">
<path d="M7.64502 22.186H23.645V52.186H7.64502V22.186Z" fill="white"/>
<path d="M8.90502 51.4641C8.86915 51.464 8.8337 51.4564 8.80099 51.4417C8.76828 51.4269 8.73906 51.4055 8.71525 51.3786C8.69145 51.3518 8.67359 51.3202 8.66287 51.286C8.65214 51.2518 8.64878 51.2157 8.65302 51.1801L9.60702 29.4251L8.69302 28.1571C8.66258 28.1129 8.64588 28.0607 8.64502 28.0071V23.4371C8.64489 23.4039 8.65135 23.371 8.66404 23.3404C8.67674 23.3097 8.6954 23.2819 8.71895 23.2586C8.74249 23.2352 8.77045 23.2168 8.8012 23.2043C8.83194 23.1919 8.86485 23.1857 8.89802 23.1861H11.605C11.6718 23.1861 11.7358 23.2124 11.7832 23.2594C11.8306 23.3065 11.8575 23.3703 11.858 23.4371V25.8471H14.058V23.4371C14.0579 23.404 14.0643 23.3712 14.077 23.3406C14.0896 23.31 14.1082 23.2823 14.1316 23.2589C14.155 23.2356 14.1829 23.2171 14.2135 23.2046C14.2441 23.1921 14.2769 23.1858 14.31 23.1861H17.02C17.0535 23.1859 17.0867 23.1924 17.1177 23.2051C17.1487 23.2178 17.1769 23.2364 17.2006 23.26C17.2244 23.2836 17.2433 23.3117 17.2562 23.3425C17.2692 23.3734 17.2759 23.4066 17.276 23.4401V25.8501H19.478V23.4401C19.4779 23.4069 19.4844 23.374 19.497 23.3434C19.5097 23.3127 19.5284 23.2849 19.5519 23.2616C19.5755 23.2382 19.6035 23.2198 19.6342 23.2073C19.6649 23.1949 19.6979 23.1887 19.731 23.1891H22.458C22.5246 23.189 22.5885 23.2153 22.6359 23.2621C22.6832 23.3089 22.7102 23.3725 22.711 23.4391V28.0021C22.711 28.0561 22.6935 28.1088 22.661 28.1521L21.749 29.4251L22.711 51.1901C22.7155 51.2399 22.7048 51.29 22.6803 51.3337C22.6559 51.3774 22.6188 51.4127 22.574 51.4351C22.5443 51.4498 22.5121 51.4586 22.479 51.4611H8.90502V51.4641Z" fill="black"/>
</mask>
<g mask="url(#mask1_515_29)">
<path d="M8.90502 51.4641C8.86915 51.464 8.8337 51.4564 8.80099 51.4417C8.76828 51.4269 8.73906 51.4055 8.71525 51.3786C8.69145 51.3518 8.67359 51.3202 8.66287 51.286C8.65214 51.2518 8.64878 51.2157 8.65302 51.1801L9.60702 29.4251L8.69302 28.1571C8.66258 28.1129 8.64588 28.0607 8.64502 28.0071V23.4371C8.64489 23.4039 8.65135 23.371 8.66404 23.3404C8.67674 23.3097 8.6954 23.2819 8.71895 23.2586C8.74249 23.2352 8.77045 23.2168 8.8012 23.2043C8.83194 23.1919 8.86485 23.1857 8.89802 23.1861H11.605C11.6718 23.1861 11.7358 23.2124 11.7832 23.2594C11.8306 23.3065 11.8575 23.3703 11.858 23.4371V25.8471H14.058V23.4371C14.0579 23.404 14.0643 23.3712 14.077 23.3406C14.0896 23.31 14.1082 23.2823 14.1316 23.2589C14.155 23.2356 14.1829 23.2171 14.2135 23.2046C14.2441 23.1921 14.2769 23.1858 14.31 23.1861H17.02C17.0535 23.1859 17.0867 23.1924 17.1177 23.2051C17.1487 23.2178 17.1769 23.2364 17.2006 23.26C17.2244 23.2836 17.2433 23.3117 17.2562 23.3425C17.2692 23.3734 17.2759 23.4066 17.276 23.4401V25.8501H19.478V23.4401C19.4779 23.4069 19.4844 23.374 19.497 23.3434C19.5097 23.3127 19.5284 23.2849 19.5519 23.2616C19.5755 23.2382 19.6035 23.2198 19.6342 23.2073C19.6649 23.1949 19.6979 23.1887 19.731 23.1891H22.458C22.5246 23.189 22.5885 23.2153 22.6359 23.2621C22.6832 23.3089 22.7102 23.3725 22.711 23.4391V28.0021C22.711 28.0561 22.6935 28.1088 22.661 28.1521L21.749 29.4251L22.711 51.1901C22.7155 51.2399 22.7048 51.29 22.6803 51.3337C22.6559 51.3774 22.6188 51.4127 22.574 51.4351C22.5443 51.4498 22.5121 51.4586 22.479 51.4611H8.90502V51.4641Z" stroke="black" stroke-width="0.4"/>
</g>
<path d="M8.90802 23.4381H11.615V26.1001H14.328V23.4371H17.038V26.1001H19.753V23.4411H22.458V28.0031L21.491 29.3471L22.458 51.2091H8.90502L9.87202 29.3471L8.90502 28.0081V23.4361H8.90802V23.4381ZM8.90502 22.9351C8.7716 22.9356 8.64375 22.9887 8.54922 23.0828C8.45468 23.177 8.40108 23.3046 8.40002 23.4381V28.0071C8.40002 28.1151 8.43502 28.2201 8.49802 28.3081L9.36203 29.5031L8.40203 51.1901C8.39594 51.2942 8.42256 51.3975 8.47814 51.4858C8.53373 51.574 8.6155 51.6426 8.71202 51.6821C8.77709 51.7101 8.84716 51.7248 8.91803 51.7251H22.458C22.5633 51.7244 22.6659 51.6921 22.7526 51.6323C22.8392 51.5726 22.9059 51.4882 22.944 51.3901C22.9675 51.3261 22.9778 51.2581 22.974 51.1901L22.026 29.5031L22.89 28.3061C22.9545 28.2194 22.9892 28.1141 22.989 28.0061V23.4421C22.9893 23.3758 22.9764 23.3102 22.9511 23.2489C22.9257 23.1877 22.8885 23.1321 22.8415 23.0854C22.7945 23.0387 22.7387 23.0018 22.6774 22.9769C22.616 22.9519 22.5503 22.9394 22.484 22.9401H19.754C19.6205 22.9401 19.4924 22.9928 19.3976 23.0868C19.3029 23.1809 19.2491 23.3086 19.248 23.4421V25.5971H17.556V23.4451C17.5563 23.3788 17.5434 23.3132 17.5181 23.2519C17.4927 23.1907 17.4555 23.1351 17.4085 23.0884C17.3615 23.0417 17.3057 23.0048 17.2444 22.9799C17.183 22.9549 17.1173 22.9424 17.051 22.9431H14.328C14.1948 22.9436 14.0671 22.9965 13.9726 23.0905C13.8781 23.1844 13.8243 23.3118 13.823 23.4451V25.5821H12.133V23.4401C12.1333 23.3738 12.1204 23.3082 12.0951 23.2469C12.0697 23.1857 12.0325 23.1301 11.9855 23.0834C11.9385 23.0367 11.8827 22.9998 11.8214 22.9749C11.76 22.9499 11.6943 22.9374 11.628 22.9381H8.90502V22.9351Z" fill="black"/>
<path d="M9.776 29.6089H21.612" stroke="black" stroke-width="0.48" stroke-miterlimit="10"/>
<path d="M15.657 34.135C15.3113 34.1517 14.9856 34.3024 14.749 34.555C14.5135 34.8066 14.386 35.1405 14.394 35.485V38.368H16.975V35.45C16.982 35.11 16.853 34.78 16.617 34.534C16.3798 34.2868 16.0546 34.1431 15.712 34.134L15.657 34.135Z" fill="black"/>
<mask id="mask2_515_29" style="mask-type:luminance" maskUnits="userSpaceOnUse" x="13" y="33" width="5" height="7">
<path d="M13.394 33.135H17.394V39.135H13.394V33.135Z" fill="white"/>
<path d="M15.657 34.135C15.3113 34.1517 14.9856 34.3024 14.749 34.555C14.5135 34.8066 14.386 35.1405 14.394 35.485V38.368H16.975V35.45C16.982 35.11 16.853 34.78 16.617 34.534C16.3798 34.2868 16.0546 34.1431 15.712 34.134L15.657 34.135Z" fill="black"/>
</mask>
<g mask="url(#mask2_515_29)">
<path d="M15.657 34.135C15.3113 34.1517 14.9856 34.3024 14.749 34.555C14.5135 34.8066 14.386 35.1405 14.394 35.485V38.368H16.975V35.45C16.982 35.11 16.853 34.78 16.617 34.534C16.3798 34.2868 16.0546 34.1431 15.712 34.134L15.657 34.135Z" stroke="black" stroke-width="0.732" stroke-linejoin="round"/>
</g>
<path d="M32.3091 26.197C32.0036 26.2124 31.7161 26.3458 31.5071 26.569C31.2988 26.7917 31.1861 27.0872 31.1931 27.392V29.928H33.4661V27.339C33.469 27.1131 33.4043 26.8914 33.2802 26.7025C33.1562 26.5136 32.9785 26.3661 32.7701 26.279C32.6315 26.22 32.4827 26.1887 32.3321 26.187L32.3091 26.197Z" fill="black"/>
<mask id="mask3_515_29" style="mask-type:luminance" maskUnits="userSpaceOnUse" x="30" y="25" width="5" height="7">
<path d="M30.192 25.187H34.192V31.187H30.192V25.187Z" fill="white"/>
<path d="M32.3091 26.197C32.0036 26.2124 31.7161 26.3458 31.5071 26.569C31.2988 26.7917 31.1861 27.0872 31.1931 27.392V29.928H33.4661V27.339C33.469 27.1131 33.4043 26.8914 33.2802 26.7025C33.1562 26.5136 32.9785 26.3661 32.7701 26.279C32.6315 26.22 32.4827 26.1887 32.3321 26.187L32.3091 26.197Z" fill="black"/>
</mask>
<g mask="url(#mask3_515_29)">
<path d="M32.3091 26.197C32.0036 26.2124 31.7161 26.3458 31.5071 26.569C31.2988 26.7917 31.1861 27.0872 31.1931 27.392V29.928H33.4661V27.339C33.469 27.1131 33.4043 26.8914 33.2802 26.7025C33.1562 26.5136 32.9785 26.3661 32.7701 26.279C32.6315 26.22 32.4827 26.1887 32.3321 26.187L32.3091 26.197Z" stroke="black" stroke-width="0.732" stroke-linejoin="round"/>
</g>
<path d="M29.215 51.4641V44.2341C29.215 42.3151 30.615 40.7341 32.335 40.7041H32.383C34.13 40.7041 35.555 42.2341 35.555 44.1181V51.4671H29.215V51.4641Z" fill="black"/>
<mask id="mask4_515_29" style="mask-type:luminance" maskUnits="userSpaceOnUse" x="28" y="39" width="9" height="14">
<path d="M28.215 39.7029H36.215V52.7029H28.215V39.7029Z" fill="white"/>
<path d="M29.215 51.4639V44.2339C29.215 42.3149 30.615 40.7339 32.335 40.7039H32.383C34.13 40.7039 35.555 42.2339 35.555 44.1179V51.4669H29.215V51.4639Z" fill="black"/>
</mask>
<g mask="url(#mask4_515_29)">
<path d="M29.215 51.4639V44.2339C29.215 42.3149 30.615 40.7339 32.335 40.7039H32.383C34.13 40.7039 35.555 42.2339 35.555 44.1179V51.4669H29.215V51.4639Z" stroke="black" stroke-width="0.732"/>
</g>
<path d="M32.382 40.944C33.993 40.944 35.297 42.36 35.297 44.105V51.191H29.487V44.211C29.487 42.453 30.751 40.962 32.357 40.947H32.402L32.382 40.944ZM32.402 40.444H32.347C30.487 40.477 28.975 42.172 28.975 44.228V51.208C28.9747 51.3106 29.0051 51.411 29.0623 51.4962C29.1195 51.5814 29.2009 51.6475 29.296 51.686C29.359 51.712 29.426 51.726 29.496 51.726H35.304C35.4414 51.7255 35.573 51.6708 35.6704 51.5738C35.7677 51.4769 35.8229 51.3454 35.824 51.208V44.105C35.824 42.082 34.286 40.437 32.397 40.437L32.402 40.444Z" fill="black"/>
<g opacity="0.25">
<mask id="mask5_515_29" style="mask-type:luminance" maskUnits="userSpaceOnUse" x="36" y="18" width="4" height="7">
<g opacity="0.25">
<path d="M37.229 18.6419L39.35 18.4509L39.477 22.6889L38.207 24.1899H36.257L37.214 22.5929L37.229 18.6419Z" fill="white"/>
</g>
</mask>
<g mask="url(#mask5_515_29)">
<path d="M37.229 18.6419L39.35 18.4509L39.477 22.6889L38.207 24.1899H36.257L37.214 22.5929L37.229 18.6419Z" fill="black" stroke="black" stroke-width="5.858"/>
</g>
</g>
<path d="M26.573 24.1831C26.5325 24.1831 26.4927 24.1735 26.4567 24.155C26.4207 24.1366 26.3896 24.1099 26.366 24.0771L25.399 22.7391C25.3686 22.6949 25.3519 22.6427 25.351 22.5891V18.0191C25.3508 17.986 25.3573 17.9532 25.3699 17.9226C25.3825 17.8921 25.4011 17.8643 25.4245 17.8409C25.448 17.8176 25.4758 17.7991 25.5064 17.7866C25.5371 17.7741 25.5699 17.7678 25.603 17.7681H28.298C28.3645 17.7681 28.4284 17.7943 28.4758 17.8411C28.5232 17.8879 28.5502 17.9515 28.551 18.0181V20.4271H30.751V18.0271C30.7507 17.9939 30.757 17.961 30.7696 17.9303C30.7822 17.8996 30.8007 17.8717 30.8242 17.8483C30.8476 17.8248 30.8755 17.8063 30.9062 17.7937C30.9369 17.7811 30.9698 17.7748 31.003 17.7751H33.713C33.7797 17.7751 33.8438 17.8015 33.8911 17.8485C33.9385 17.8955 33.9654 17.9593 33.966 18.0261V20.4341H36.171V18.0261C36.171 17.993 36.1775 17.9602 36.1903 17.9297C36.203 17.8992 36.2217 17.8715 36.2452 17.8482C36.2688 17.825 36.2967 17.8066 36.3274 17.7942C36.358 17.7819 36.3909 17.7757 36.424 17.7761H39.134C39.1673 17.7759 39.2004 17.7824 39.2312 17.795C39.2621 17.8077 39.2902 17.8263 39.3139 17.8498C39.3375 17.8733 39.3564 17.9012 39.3692 17.9319C39.3821 17.9627 39.3888 17.9957 39.389 18.0291V22.5911C39.3887 22.6362 39.3763 22.6804 39.353 22.7191L39.338 22.7411L38.371 24.0751C38.347 24.1082 38.3154 24.1351 38.2789 24.1534C38.2423 24.1717 38.2018 24.1808 38.161 24.1801L26.573 24.1831Z" fill="#E0E0E0"/>
<path d="M26.573 24.1831C26.5325 24.1831 26.4927 24.1735 26.4567 24.155C26.4207 24.1366 26.3896 24.1099 26.366 24.0771L25.399 22.7391C25.3686 22.6949 25.3519 22.6427 25.351 22.5891V18.0191C25.3508 17.986 25.3573 17.9532 25.3699 17.9226C25.3825 17.8921 25.4011 17.8643 25.4245 17.8409C25.448 17.8176 25.4758 17.7991 25.5064 17.7866C25.5371 17.7741 25.5699 17.7678 25.603 17.7681H28.298C28.3645 17.7681 28.4284 17.7943 28.4758 17.8411C28.5232 17.8879 28.5502 17.9515 28.551 18.0181V20.4271H30.751V18.0271C30.7507 17.9939 30.757 17.961 30.7696 17.9303C30.7822 17.8996 30.8007 17.8717 30.8242 17.8483C30.8476 17.8248 30.8755 17.8063 30.9062 17.7937C30.9369 17.7811 30.9698 17.7748 31.003 17.7751H33.713C33.7797 17.7751 33.8438 17.8015 33.8911 17.8485C33.9385 17.8955 33.9654 17.9593 33.966 18.0261V20.4341H36.171V18.0261C36.171 17.993 36.1775 17.9602 36.1903 17.9297C36.203 17.8992 36.2217 17.8715 36.2452 17.8482C36.2688 17.825 36.2967 17.8066 36.3274 17.7942C36.358 17.7819 36.3909 17.7757 36.424 17.7761H39.134C39.1673 17.7759 39.2004 17.7824 39.2312 17.795C39.2621 17.8077 39.2902 17.8263 39.3139 17.8498C39.3375 17.8733 39.3564 17.9012 39.3692 17.9319C39.3821 17.9627 39.3888 17.9957 39.389 18.0291V22.5911C39.3887 22.6362 39.3763 22.6804 39.353 22.7191L39.338 22.7411L38.371 24.0751C38.347 24.1082 38.3154 24.1351 38.2789 24.1534C38.2423 24.1717 38.2018 24.1808 38.161 24.1801L26.573 24.1831Z" fill="black" fill-opacity="0.1"/>
<path fill-rule="evenodd" clip-rule="evenodd" d="M26.572 23.9831L38.164 23.9801C38.1725 23.9802 38.181 23.9783 38.1887 23.9745C38.1963 23.9707 38.2029 23.965 38.208 23.9581L39.174 22.6271L39.184 22.6131C39.1873 22.6062 39.189 22.5987 39.189 22.5911V18.0281C39.1891 18.0211 39.1877 18.0142 39.1849 18.0079C39.1822 18.0015 39.1781 17.9958 39.173 17.9911C39.1681 17.9859 39.1622 17.9818 39.1556 17.9791C39.1491 17.9763 39.1421 17.975 39.135 17.9751H36.424C36.4169 17.9751 36.4099 17.9765 36.4033 17.9792C36.3968 17.982 36.3909 17.986 36.386 17.9911C36.3765 18.0003 36.3711 18.0129 36.371 18.0261V20.6341H33.766V18.0261C33.7658 18.0129 33.7604 18.0003 33.751 17.9911C33.746 17.986 33.7401 17.982 33.7336 17.9792C33.727 17.9765 33.72 17.9751 33.713 17.9751H31.003C30.989 17.9753 30.9757 17.9811 30.966 17.9911C30.9565 18.0003 30.9511 18.0129 30.951 18.0261V20.6261H28.351V18.0201C28.351 18.0134 28.3497 18.0067 28.3471 18.0006C28.3445 17.9944 28.3407 17.9888 28.336 17.9841C28.3257 17.9743 28.3121 17.9689 28.298 17.9691H25.603C25.5892 17.9692 25.5759 17.9745 25.566 17.9841C25.5612 17.9888 25.5574 17.9944 25.5548 18.0006C25.5522 18.0067 25.5509 18.0134 25.551 18.0201V22.5881C25.551 22.6011 25.555 22.6141 25.563 22.6251L26.528 23.9611C26.5329 23.9682 26.5394 23.974 26.5471 23.978C26.5548 23.9821 26.5633 23.9831 26.572 23.9831ZM25.399 22.7391C25.3686 22.6949 25.3519 22.6427 25.351 22.5891V18.0191C25.3508 17.986 25.3573 17.9532 25.3699 17.9226C25.3825 17.8921 25.4011 17.8643 25.4245 17.8409C25.448 17.8176 25.4758 17.7991 25.5064 17.7866C25.5371 17.7741 25.5699 17.7678 25.603 17.7681H28.298C28.3645 17.7681 28.4284 17.7943 28.4758 17.8411C28.5232 17.8879 28.5502 17.9515 28.551 18.0181V20.4271H30.751V18.0271C30.7507 17.9939 30.757 17.961 30.7696 17.9303C30.7822 17.8996 30.8007 17.8717 30.8242 17.8483C30.8476 17.8248 30.8755 17.8063 30.9062 17.7937C30.9369 17.7811 30.9698 17.7748 31.003 17.7751H33.713C33.7797 17.7751 33.8438 17.8015 33.8911 17.8485C33.9385 17.8955 33.9654 17.9593 33.966 18.0261V20.4341H36.171V18.0261C36.171 17.993 36.1775 17.9602 36.1903 17.9297C36.203 17.8992 36.2217 17.8715 36.2452 17.8482C36.2688 17.825 36.2967 17.8066 36.3274 17.7942C36.358 17.7819 36.3909 17.7757 36.424 17.7761H39.134C39.1673 17.7759 39.2004 17.7824 39.2312 17.795C39.2621 17.8077 39.2902 17.8263 39.3139 17.8498C39.3375 17.8733 39.3564 17.9012 39.3692 17.9319C39.3821 17.9627 39.3888 17.9957 39.389 18.0291V22.5911C39.3887 22.6362 39.3763 22.6804 39.353 22.7191L39.338 22.7411L38.371 24.0751C38.347 24.1082 38.3154 24.1351 38.2789 24.1534C38.2423 24.1717 38.2018 24.1808 38.161 24.1801L26.573 24.1831C26.5325 24.1831 26.4927 24.1735 26.4567 24.155C26.4207 24.1366 26.3896 24.1099 26.366 24.0771L25.399 22.7391Z" fill="black"/>
<path d="M25.603 18.0211H28.311V20.6831H31.021V18.0201H33.731V20.6821H36.444V18.0251H39.154V22.5871L38.191 23.9261H26.573L25.606 22.5871V18.0201L25.603 18.0211ZM25.601 17.5071C25.4675 17.5071 25.3394 17.5598 25.2446 17.6539C25.1498 17.7479 25.096 17.8756 25.095 18.0091V22.5691C25.0951 22.6765 25.1298 22.781 25.194 22.8671L26.159 24.2051C26.2049 24.2727 26.2666 24.3281 26.3387 24.3666C26.4109 24.4051 26.4912 24.4255 26.573 24.4261H38.191C38.2722 24.427 38.3525 24.4084 38.425 24.3718C38.4976 24.3353 38.5603 24.2819 38.608 24.2161L39.573 22.8771C39.6373 22.7907 39.672 22.6858 39.672 22.5781V18.0261C39.6722 17.9597 39.6593 17.894 39.6339 17.8327C39.6085 17.7714 39.5712 17.7158 39.5241 17.6691C39.477 17.6224 39.4211 17.5855 39.3596 17.5606C39.2981 17.5357 39.2323 17.5233 39.166 17.5241H36.446C36.3126 17.5243 36.1848 17.5772 36.0902 17.6712C35.9957 17.7652 35.942 17.8927 35.941 18.0261V20.1811H34.251V18.0261C34.2512 17.9598 34.2383 17.8942 34.213 17.833C34.1877 17.7717 34.1505 17.7162 34.1035 17.6695C34.0565 17.6227 34.0007 17.5858 33.9393 17.5609C33.8779 17.5359 33.8122 17.5234 33.746 17.5241H31.023C30.8896 17.5243 30.7618 17.5772 30.6672 17.6712C30.5727 17.7652 30.519 17.8927 30.518 18.0261V20.1811H28.828V18.0261C28.8282 17.9598 28.8153 17.8942 28.79 17.833C28.7647 17.7717 28.7275 17.7162 28.6805 17.6695C28.6335 17.6227 28.5777 17.5858 28.5163 17.5609C28.4549 17.5359 28.3892 17.5234 28.323 17.5241H25.618L25.601 17.5071Z" fill="black"/>
<mask id="mask6_515_29" style="mask-type:luminance" maskUnits="userSpaceOnUse" x="7" y="11" width="51" height="42">
<path d="M7.40002 11.2749H57.4V52.2749H7.40002V11.2749Z" fill="white"/>
<path d="M32.382 12.275C32.3057 12.276 32.2304 12.2933 32.1613 12.3257C32.0921 12.3581 32.0307 12.4049 31.981 12.463L27.751 17.524H25.618L25.6 17.507C25.4668 17.5075 25.3391 17.5604 25.2446 17.6544C25.1501 17.7483 25.0964 17.8757 25.095 18.009V22.569C25.0952 22.6763 25.1299 22.7808 25.194 22.867L26.159 24.205C26.205 24.2728 26.2668 24.3284 26.339 24.367L26.346 24.37V34.5919H25.426V32.583C25.4263 32.5167 25.4134 32.4511 25.3881 32.3898C25.3628 32.3286 25.3255 32.273 25.2786 32.2263C25.2316 32.1796 25.1758 32.1427 25.1144 32.1178C25.053 32.0928 24.9873 32.0803 24.921 32.081H22.14L22.028 29.503L22.891 28.306C22.9556 28.2193 22.9903 28.114 22.99 28.006V23.4419C22.9903 23.3757 22.9774 23.3101 22.9521 23.2488C22.9268 23.1876 22.8895 23.132 22.8426 23.0853C22.7956 23.0386 22.7398 23.0017 22.6784 22.9768C22.617 22.9518 22.5513 22.9393 22.485 22.94H20.3L16.047 17.861C15.9968 17.8036 15.935 17.7574 15.8658 17.7254C15.7965 17.6933 15.7213 17.6761 15.645 17.675L15.66 17.678C15.584 17.6779 15.5088 17.6945 15.4399 17.7266C15.371 17.7588 15.3099 17.8057 15.261 17.864L11.011 22.938H8.90405V22.9349C8.77062 22.9355 8.64278 22.9886 8.54824 23.0827C8.45371 23.1769 8.4001 23.3045 8.39905 23.438V28.007C8.39905 28.115 8.43405 28.22 8.49805 28.308L9.36105 29.503L8.40105 51.1899C8.39497 51.294 8.42158 51.3974 8.47717 51.4857C8.53275 51.5739 8.61453 51.6425 8.71105 51.6819C8.77612 51.71 8.84619 51.7246 8.91705 51.7249H22.457C22.4761 51.725 22.4951 51.724 22.514 51.722H29.434L29.494 51.7249H35.304C35.324 51.7249 35.344 51.725 35.364 51.722H42.284C42.2953 51.7233 42.3067 51.7243 42.318 51.7249H55.8941C56.0273 51.7244 56.155 51.6715 56.2495 51.5775C56.344 51.4836 56.3977 51.3562 56.399 51.2229V51.1899L55.439 29.5079L56.303 28.311C56.3663 28.2242 56.4 28.1193 56.399 28.0119V23.44C56.3993 23.3737 56.3864 23.3081 56.3611 23.2468C56.3358 23.1856 56.2985 23.13 56.2515 23.0833C56.2046 23.0366 56.1488 22.9997 56.0874 22.9748C56.026 22.9498 55.9603 22.9373 55.8941 22.938H53.79L49.557 17.881C49.5068 17.8235 49.445 17.7773 49.3758 17.7453C49.3065 17.7132 49.2313 17.6961 49.155 17.695H49.1451C49.0688 17.6947 48.9935 17.7113 48.9243 17.7434C48.8552 17.7756 48.794 17.8225 48.745 17.881L44.501 22.938H42.361L42.3511 22.93C42.2175 22.9302 42.0893 22.9832 41.9946 23.0774C41.8998 23.1716 41.8461 23.2994 41.845 23.433V28.002C41.845 28.11 41.88 28.2149 41.944 28.3029L42.805 29.4979L42.691 32.081H39.906C39.7727 32.0812 39.6449 32.1341 39.5503 32.2281C39.4557 32.3221 39.4021 32.4496 39.401 32.583V34.5919H38.468V24.346C38.5222 24.3119 38.5694 24.2677 38.607 24.216L39.572 22.877C39.636 22.7904 39.6704 22.6856 39.67 22.5779V18.0259C39.6703 17.9597 39.6574 17.8941 39.6321 17.8328C39.6068 17.7716 39.5695 17.716 39.5226 17.6693C39.4756 17.6226 39.4198 17.5857 39.3584 17.5608C39.297 17.5358 39.2313 17.5233 39.165 17.524H37.04L32.788 12.464C32.7387 12.4039 32.6766 12.3556 32.6061 12.3227C32.5357 12.2899 32.4588 12.2732 32.381 12.274L32.382 12.275Z" fill="black"/>
</mask>
<g mask="url(#mask6_515_29)">
<path d="M32.382 12.275C32.3057 12.276 32.2304 12.2933 32.1613 12.3257C32.0921 12.3581 32.0307 12.4049 31.981 12.463L27.751 17.524H25.618L25.6 17.507C25.4668 17.5075 25.3391 17.5604 25.2446 17.6544C25.1501 17.7483 25.0964 17.8757 25.095 18.009V22.569C25.0952 22.6763 25.1299 22.7808 25.194 22.867L26.159 24.205C26.205 24.2728 26.2668 24.3284 26.339 24.367L26.346 24.37V34.5919H25.426V32.583C25.4263 32.5167 25.4134 32.4511 25.3881 32.3898C25.3628 32.3286 25.3255 32.273 25.2786 32.2263C25.2316 32.1796 25.1758 32.1427 25.1144 32.1178C25.053 32.0928 24.9873 32.0803 24.921 32.081H22.14L22.028 29.503L22.891 28.306C22.9556 28.2193 22.9903 28.114 22.99 28.006V23.4419C22.9903 23.3757 22.9774 23.3101 22.9521 23.2488C22.9268 23.1876 22.8895 23.132 22.8426 23.0853C22.7956 23.0386 22.7398 23.0017 22.6784 22.9768C22.617 22.9518 22.5513 22.9393 22.485 22.94H20.3L16.047 17.861C15.9968 17.8036 15.935 17.7574 15.8658 17.7254C15.7965 17.6933 15.7213 17.6761 15.645 17.675L15.66 17.678C15.584 17.6779 15.5088 17.6945 15.4399 17.7266C15.371 17.7588 15.3099 17.8057 15.261 17.864L11.011 22.938H8.90405V22.9349C8.77062 22.9355 8.64278 22.9886 8.54824 23.0827C8.45371 23.1769 8.4001 23.3045 8.39905 23.438V28.007C8.39905 28.115 8.43405 28.22 8.49805 28.308L9.36105 29.503L8.40105 51.1899C8.39497 51.294 8.42158 51.3974 8.47717 51.4857C8.53275 51.5739 8.61453 51.6425 8.71105 51.6819C8.77612 51.71 8.84619 51.7246 8.91705 51.7249H22.457C22.4761 51.725 22.4951 51.724 22.514 51.722H29.434L29.494 51.7249H35.304C35.324 51.7249 35.344 51.725 35.364 51.722H42.284C42.2953 51.7233 42.3067 51.7243 42.318 51.7249H55.8941C56.0273 51.7244 56.155 51.6715 56.2495 51.5775C56.344 51.4836 56.3977 51.3562 56.399 51.2229V51.1899L55.439 29.5079L56.303 28.311C56.3663 28.2242 56.4 28.1193 56.399 28.0119V23.44C56.3993 23.3737 56.3864 23.3081 56.3611 23.2468C56.3358 23.1856 56.2985 23.13 56.2515 23.0833C56.2046 23.0366 56.1488 22.9997 56.0874 22.9748C56.026 22.9498 55.9603 22.9373 55.8941 22.938H53.79L49.557 17.881C49.5068 17.8235 49.445 17.7773 49.3758 17.7453C49.3065 17.7132 49.2313 17.6961 49.155 17.695H49.1451C49.0688 17.6947 48.9935 17.7113 48.9243 17.7434C48.8552 17.7756 48.794 17.8225 48.745 17.881L44.501 22.938H42.361L42.3511 22.93C42.2175 22.9302 42.0893 22.9832 41.9946 23.0774C41.8998 23.1716 41.8461 23.2994 41.845 23.433V28.002C41.845 28.11 41.88 28.2149 41.944 28.3029L42.805 29.4979L42.691 32.081H39.906C39.7727 32.0812 39.6449 32.1341 39.5503 32.2281C39.4557 32.3221 39.4021 32.4496 39.401 32.583V34.5919H38.468V24.346C38.5222 24.3119 38.5694 24.2677 38.607 24.216L39.572 22.877C39.636 22.7904 39.6704 22.6856 39.67 22.5779V18.0259C39.6703 17.9597 39.6574 17.8941 39.6321 17.8328C39.6068 17.7716 39.5695 17.716 39.5226 17.6693C39.4756 17.6226 39.4198 17.5857 39.3584 17.5608C39.297 17.5358 39.2313 17.5233 39.165 17.524H37.04L32.788 12.464C32.7387 12.4039 32.6766 12.3556 32.6061 12.3227C32.5357 12.2899 32.4588 12.2732 32.381 12.274L32.382 12.275Z" stroke="black" stroke-width="0.4"/>
</g>
<path d="M42.367 51.458C42.2938 51.4557 42.2243 51.4252 42.173 51.373C42.1487 51.3469 42.1302 51.3159 42.1188 51.2821C42.1074 51.2483 42.1034 51.2124 42.107 51.177L43.069 29.425L42.152 28.157V28.134C42.129 28.0952 42.1169 28.051 42.117 28.006V23.44C42.117 23.4069 42.1236 23.3741 42.1363 23.3436C42.1491 23.3131 42.1678 23.2854 42.1913 23.2621C42.2148 23.2389 42.2427 23.2205 42.2734 23.2081C42.3041 23.1957 42.3369 23.1896 42.37 23.19H45.077C45.1435 23.1902 45.2073 23.2165 45.2546 23.2633C45.3019 23.31 45.329 23.3735 45.33 23.44V25.848H47.532V23.44C47.532 23.4069 47.5386 23.3741 47.5513 23.3436C47.5641 23.3131 47.5828 23.2854 47.6063 23.2621C47.6298 23.2389 47.6577 23.2205 47.6884 23.2081C47.7191 23.1957 47.7519 23.1896 47.785 23.19H50.513C50.5464 23.1898 50.5794 23.1963 50.6103 23.2089C50.6411 23.2216 50.6692 23.2402 50.6929 23.2636C50.7166 23.2871 50.7354 23.3151 50.7483 23.3458C50.7612 23.3766 50.7679 23.4096 50.768 23.443V25.85H52.968V23.443C52.9679 23.4099 52.9743 23.3771 52.9869 23.3465C52.9996 23.3159 53.0181 23.2882 53.0416 23.2648C53.065 23.2415 53.0929 23.223 53.1235 23.2105C53.1541 23.198 53.1869 23.1917 53.22 23.192H55.928C55.9953 23.192 56.0598 23.2185 56.1076 23.2659C56.1554 23.3133 56.1825 23.3777 56.183 23.445V28.007C56.1822 28.0516 56.1709 28.0955 56.15 28.135L56.135 28.158L55.208 29.426L56.173 51.191C56.1772 51.2407 56.1664 51.2905 56.142 51.334C56.1176 51.3775 56.0807 51.4127 56.036 51.435C56.0064 51.4501 55.9741 51.4592 55.941 51.462L42.367 51.458Z" fill="#E0E0E0"/>
<path fill-rule="evenodd" clip-rule="evenodd" d="M42.364 51.658H42.361C42.2357 51.6546 42.1167 51.6026 42.029 51.513L42.028 51.511L42.026 51.509C41.983 51.4629 41.9502 51.4083 41.9297 51.3486C41.9092 51.289 41.9015 51.2258 41.907 51.163L42.867 29.486L41.952 28.222V28.181C41.9288 28.1256 41.9169 28.0661 41.917 28.006V23.44C41.917 23.3807 41.9287 23.3219 41.9515 23.2671C41.9743 23.2123 42.0077 23.1626 42.0499 23.1207C42.092 23.0789 42.1419 23.0458 42.1969 23.0234C42.2518 23.001 42.3106 22.9896 42.37 22.99H45.077C45.1966 22.99 45.3114 23.0373 45.3963 23.1216C45.4811 23.2059 45.5292 23.3204 45.53 23.44V25.648H47.332V23.44C47.332 23.3807 47.3437 23.3219 47.3665 23.2671C47.3893 23.2123 47.4227 23.1626 47.4648 23.1207C47.507 23.0789 47.5569 23.0458 47.6119 23.0234C47.6668 23.001 47.7256 22.9896 47.785 22.99H50.512C50.5718 22.9895 50.6311 23.0008 50.6864 23.0234C50.7418 23.0459 50.7921 23.0792 50.8345 23.1213C50.877 23.1635 50.9106 23.2136 50.9335 23.2688C50.9564 23.324 50.9681 23.3832 50.968 23.443V25.651H52.768V23.443C52.7679 23.3837 52.7795 23.3249 52.8021 23.27C52.8248 23.2152 52.8581 23.1654 52.9001 23.1235C52.9422 23.0815 52.992 23.0483 53.0469 23.0258C53.1018 23.0032 53.1606 22.9917 53.22 22.992H55.927C55.9868 22.9916 56.0461 23.0031 56.1015 23.0257C56.1569 23.0484 56.2072 23.0818 56.2496 23.124C56.292 23.1662 56.3256 23.2164 56.3485 23.2716C56.3714 23.3269 56.3831 23.3862 56.383 23.446V28.01C56.3815 28.0857 56.3623 28.16 56.327 28.227L56.322 28.237L56.299 28.272L55.411 29.486L56.373 51.177C56.3775 51.2361 56.3703 51.2956 56.3517 51.3519C56.3332 51.4082 56.3037 51.4603 56.2649 51.5052C56.2262 51.5501 56.1789 51.5869 56.1259 51.6134C56.0729 51.64 56.0151 51.6558 55.956 51.66H55.948L42.364 51.658ZM56.173 51.19L55.208 29.425L56.135 28.157L56.15 28.134C56.1709 28.0945 56.1822 28.0507 56.183 28.006V23.444C56.1834 23.3937 56.1686 23.3445 56.1406 23.3028C56.1126 23.261 56.0727 23.2287 56.026 23.21C55.995 23.1969 55.9617 23.1901 55.928 23.19H53.22C53.1532 23.1903 53.0893 23.2169 53.0421 23.2641C52.9949 23.3113 52.9683 23.3753 52.968 23.442V25.85H50.768V23.442C50.7681 23.4089 50.7615 23.3761 50.7488 23.3456C50.7361 23.315 50.7175 23.2873 50.694 23.264C50.6705 23.2398 50.6424 23.2206 50.6113 23.2075C50.5802 23.1944 50.5467 23.1878 50.513 23.188H47.785C47.7182 23.188 47.6542 23.2144 47.6068 23.2614C47.5594 23.3084 47.5325 23.3723 47.532 23.439V25.847H45.33V23.439C45.33 23.4059 45.3234 23.3732 45.3107 23.3426C45.2979 23.3121 45.2792 23.2844 45.2557 23.2612C45.2322 23.2379 45.2043 23.2196 45.1736 23.2072C45.1429 23.1948 45.1101 23.1886 45.077 23.189H42.37C42.3034 23.189 42.2395 23.2152 42.1921 23.262C42.1448 23.3088 42.1178 23.3724 42.117 23.439V28.006C42.117 28.051 42.129 28.096 42.152 28.134V28.157L43.069 29.425L42.107 51.177C42.1034 51.2125 42.1074 51.2483 42.1188 51.2822C42.1302 51.316 42.1486 51.3469 42.173 51.373C42.2243 51.4253 42.2938 51.4558 42.367 51.458L55.941 51.461C56.0076 51.4556 56.0694 51.4241 56.1129 51.3734C56.1564 51.3226 56.178 51.2567 56.173 51.19Z" fill="black"/>
<path d="M42.3521 23.4329H45.0571V26.0959H47.7671V23.4379H50.4951V26.0999H53.2051V23.4369H55.9131V27.9979L54.9451 29.3469L55.9131 51.1889H42.3491L43.3191 29.3469L42.3541 28.0089V23.4319H42.3521V23.4329ZM42.3521 22.9299C42.2185 22.9302 42.0906 22.9832 41.996 23.0774C41.9014 23.1716 41.8478 23.2994 41.8471 23.4329V28.0019C41.8471 28.1099 41.8821 28.2149 41.9451 28.3029L42.8061 29.4979L41.8461 51.1899C41.8414 51.2562 41.8501 51.3228 41.8714 51.3857C41.8928 51.4487 41.9265 51.5067 41.9705 51.5565C42.0145 51.6063 42.068 51.6468 42.1279 51.6757C42.1877 51.7047 42.2527 51.7214 42.3191 51.7249H55.8951C56.0284 51.7247 56.1562 51.6718 56.2508 51.5778C56.3454 51.4838 56.399 51.3563 56.4001 51.2229V51.1899L55.4401 29.5079L56.3041 28.3109C56.3673 28.2242 56.401 28.1193 56.4001 28.0119V23.4399C56.4003 23.3737 56.3874 23.308 56.3621 23.2468C56.3368 23.1856 56.2995 23.13 56.2526 23.0833C56.2056 23.0366 56.1498 22.9997 56.0884 22.9747C56.027 22.9498 55.9613 22.9373 55.8951 22.9379H53.1951C53.0618 22.9385 52.9341 22.9914 52.8396 23.0854C52.7451 23.1793 52.6914 23.3067 52.6901 23.4399V25.5939H51.0001V23.4399C51.0003 23.3737 50.9874 23.308 50.9621 23.2468C50.9368 23.1856 50.8995 23.13 50.8526 23.0833C50.8056 23.0366 50.7498 22.9997 50.6884 22.9747C50.627 22.9498 50.5613 22.9373 50.4951 22.9379H47.7691C47.6358 22.9385 47.5081 22.9914 47.4136 23.0854C47.3191 23.1793 47.2654 23.3067 47.2641 23.4399V25.5939H45.5741V23.4399C45.5743 23.3737 45.5614 23.308 45.5361 23.2468C45.5108 23.1856 45.4735 23.13 45.4266 23.0833C45.3796 23.0366 45.3238 22.9997 45.2624 22.9747C45.201 22.9498 45.1353 22.9373 45.0691 22.9379H42.3621L42.3521 22.9299Z" fill="black"/>
<path d="M43.152 29.6089H54.988" stroke="black" stroke-width="0.48" stroke-miterlimit="10"/>
<path d="M49.095 34.135C48.7496 34.1522 48.4244 34.3028 48.188 34.555C47.9523 34.8066 47.8246 35.1404 47.832 35.485V38.368H50.403V35.45C50.4056 35.2802 50.3748 35.1115 50.3121 34.9536C50.2495 34.7958 50.1563 34.6518 50.038 34.53C49.7976 34.2831 49.4695 34.1412 49.125 34.135H49.095Z" fill="black"/>
<mask id="mask7_515_29" style="mask-type:luminance" maskUnits="userSpaceOnUse" x="46" y="33" width="5" height="7">
<path d="M46.832 33.135H50.832V39.135H46.832V33.135Z" fill="white"/>
<path d="M49.0951 34.135C48.7498 34.1522 48.4246 34.3028 48.1881 34.555C47.9525 34.8066 47.8247 35.1404 47.8321 35.485V38.368H50.4031V35.45C50.4058 35.2802 50.3749 35.1115 50.3123 34.9536C50.2496 34.7958 50.1565 34.6518 50.0381 34.53C49.7977 34.2831 49.4696 34.1412 49.1251 34.135H49.0951Z" fill="black"/>
</mask>
<g mask="url(#mask7_515_29)">
<path d="M49.0951 34.135C48.7498 34.1522 48.4246 34.3028 48.1881 34.555C47.9525 34.8066 47.8247 35.1404 47.8321 35.485V38.368H50.4031V35.45C50.4058 35.2802 50.3749 35.1115 50.3123 34.9536C50.2496 34.7958 50.1565 34.6518 50.0381 34.53C49.7977 34.2831 49.4696 34.1412 49.1251 34.135H49.0951Z" stroke="black" stroke-width="0.732" stroke-linejoin="round"/>
</g>
</svg>
