<svg width="24" height="24" viewBox="0 0 24 24" fill="none" xmlns="http://www.w3.org/2000/svg">
<path d="M2.70169 11.6115C2.96262 11.3375 3.38531 11.3103 3.67796 11.5372L3.73458 11.5862L7.78618 15.4452C7.86395 15.3563 7.94905 15.2595 8.03928 15.1564C8.48259 14.6497 9.05791 13.992 9.58647 13.388C9.85224 13.0842 10.3142 13.0537 10.6179 13.3194C10.9215 13.5852 10.9521 14.0468 10.6864 14.3504C10.1579 14.9545 9.58256 15.6122 9.13925 16.1188C8.91759 16.3722 8.72866 16.5879 8.59545 16.7402C8.52899 16.8161 8.47643 16.8764 8.44035 16.9176C8.4224 16.9382 8.40833 16.954 8.39896 16.9647C8.39427 16.9701 8.39041 16.9744 8.38802 16.9771C8.38697 16.9783 8.38622 16.9793 8.38564 16.98L8.38469 16.9809V16.9814C8.25358 17.1312 8.06688 17.2211 7.86801 17.2302C7.69391 17.2381 7.52349 17.1833 7.38701 17.0775L7.3304 17.029L2.72691 12.6443L2.67505 12.5901C2.43416 12.3089 2.44081 11.8854 2.70169 11.6115Z" fill="#8FC9FF"/>
<path d="M20.2714 7.19597C20.5422 6.94317 20.9657 6.93161 21.2505 7.18075C21.5353 7.42991 21.5802 7.85124 21.3657 8.15321L21.3195 8.21173L13.6464 16.981C13.5153 17.1308 13.3286 17.2207 13.1297 17.2298C12.9308 17.2389 12.7363 17.1664 12.5921 17.0291L7.98863 12.6444L7.93677 12.5902C7.69588 12.3089 7.70253 11.8855 7.96341 11.6115C8.22433 11.3376 8.64703 11.3103 8.93968 11.5373L8.99629 11.5863L13.0479 15.4448L20.2196 7.24973L20.2714 7.19597Z" fill="#8FC9FF"/>
<path d="M15.0102 7.19596C15.281 6.94329 15.7046 6.93158 15.9893 7.18074C16.274 7.42988 16.3188 7.85128 16.1045 8.1532L16.0578 8.21172L12.9887 11.7195L12.9368 11.7733C12.6661 12.026 12.2425 12.0375 11.9577 11.7885C11.654 11.5227 11.623 11.0608 11.8887 10.7571L14.9579 7.24973L15.0102 7.19596Z" fill="#8FC9FF"/>
</svg>
