<svg width="48" height="48" viewBox="0 0 48 48" fill="none" xmlns="http://www.w3.org/2000/svg">
<path d="M10.3239 25.66C10.2545 25.0811 10.2187 24.5059 10.2187 24C10.2187 16.4483 16.4483 10.2188 24 10.2188C27.5225 10.2188 30.8203 11.639 33.2461 13.8539L32.0296 15.0915C31.7555 15.3656 31.6501 15.7663 31.7555 16.1461C31.8821 16.5046 32.1774 16.779 32.557 16.8633C32.7693 16.9059 39.744 19.1534 39.2998 19.0641C39.8648 19.2523 40.7003 18.6497 40.5446 17.8196C40.5017 17.6071 38.9576 9.85922 39.0469 10.3031C38.9626 9.92349 38.6882 9.60709 38.3086 9.50162C37.9502 9.39615 37.5492 9.50162 37.2751 9.77573L36.2415 10.7881C33.0563 7.81412 28.6826 6 24 6C14.1071 6 6 14.1071 6 24V24.042C6 24.6367 6.02719 25.0962 6.05878 25.4477C6.1008 25.9135 6.44412 26.295 6.9028 26.3871L9.06958 26.8202C9.7749 26.9614 10.4091 26.37 10.3239 25.66Z" fill="white"/>
<path d="M41.1035 21.6113L38.9304 21.1685C38.2242 21.0246 37.5857 21.6165 37.6725 22.3298C37.7477 22.9453 37.7812 23.5438 37.7812 24C37.7812 31.5515 31.5517 37.7812 24 37.7812C20.4775 37.7812 17.1797 36.361 14.7539 34.125L15.9703 32.9085C16.2444 32.6344 16.3499 32.2337 16.2444 31.8538C16.1178 31.4951 15.8226 31.221 15.443 31.1367C15.2307 31.0939 8.25602 28.8466 8.70014 28.9359C8.34143 28.8727 7.98273 28.9782 7.75092 29.2311C7.49768 29.4632 7.39222 29.8428 7.45539 30.1804C7.49823 30.3927 9.04264 38.0702 8.95337 37.6263C9.03742 38.0062 9.3118 38.3226 9.69138 38.4278C10.1317 38.5382 10.4991 38.4047 10.7249 38.1537L11.7376 37.1413C14.9225 40.1156 19.2962 42 24 42C33.8929 42 42 33.8929 42 24V23.9366C42 23.4691 41.9829 23.0101 41.9439 22.5539C41.9038 22.0878 41.5619 21.705 41.1035 21.6113Z" fill="white"/>
</svg>
