<svg width="48" height="48" viewBox="0 0 48 48" fill="none" xmlns="http://www.w3.org/2000/svg">
<path d="M40.56 6H7.44C6.64471 6 6 6.64471 6 7.44V40.56C6 41.3553 6.64471 42 7.44 42H40.56C41.3553 42 42 41.3553 42 40.56V7.44C42 6.64471 41.3553 6 40.56 6Z" fill="#1FAB1C"/>
<path d="M34.56 21.0001H13.44C12.6447 21.0001 12 21.6448 12 22.4401V25.5601C12 26.3554 12.6447 27.0001 13.44 27.0001H34.56C35.3553 27.0001 36 26.3554 36 25.5601V22.4401C36 21.6448 35.3553 21.0001 34.56 21.0001Z" fill="white"/>
<path d="M27 34.5601V13.4401C27 12.6448 26.3553 12.0001 25.56 12.0001H22.44C21.6447 12.0001 21 12.6448 21 13.4401V34.5601C21 35.3554 21.6447 36.0001 22.44 36.0001H25.56C26.3553 36.0001 27 35.3554 27 34.5601Z" fill="white"/>
</svg>
