<svg width="48" height="48" viewBox="0 0 48 48" fill="none" xmlns="http://www.w3.org/2000/svg">
<path d="M35.1062 8.47656H13.2651H10.4673L12.4528 9.19858L14.2579 13.1697V36.5451C14.2579 39.8664 17.7477 40.2155 19.4926 39.9748H36.9113C37.9943 39.9748 40.5936 39.5776 42.3265 37.9892C44.0593 36.4007 42.5671 33.597 41.6044 32.3936H38.7163V12.0867C38.7163 9.19858 36.3096 8.47656 35.1062 8.47656Z" fill="#CCEFFE"/>
<path d="M20.3953 19.6678C20.3953 19.4763 20.4714 19.2927 20.6068 19.1573C20.7422 19.0218 20.9258 18.9458 21.1173 18.9458H32.6697C32.8612 18.9458 33.0447 19.0218 33.1803 19.1573C33.3156 19.2927 33.3917 19.4763 33.3917 19.6678C33.3917 19.8593 33.3156 20.0429 33.1803 20.1784C33.0447 20.3138 32.8612 20.3898 32.6697 20.3898H21.1173C20.9258 20.3898 20.7422 20.3138 20.6068 20.1784C20.4714 20.0429 20.3953 19.8593 20.3953 19.6678ZM32.6697 26.166C32.8612 26.166 33.0447 26.0899 33.1803 25.9546C33.3156 25.819 33.3917 25.6355 33.3917 25.444C33.3917 25.2524 33.3156 25.0689 33.1803 24.9334C33.0447 24.798 32.8612 24.722 32.6697 24.722H21.1173C20.9258 24.722 20.7422 24.798 20.6068 24.9334C20.4714 25.0689 20.3953 25.2524 20.3953 25.444C20.3953 25.6355 20.4714 25.819 20.6068 25.9546C20.7422 26.0899 20.9258 26.166 21.1173 26.166H32.6697ZM43.5 35.5523C43.4952 36.8912 42.9613 38.1741 42.0144 39.1208C41.0676 40.0677 39.7848 40.6016 38.4458 40.6064H18.2292C16.8903 40.6016 15.6075 40.0677 14.6607 39.1208C13.7139 38.1741 13.1799 36.8912 13.1751 35.5523V12.4476C13.1751 11.4901 12.7947 10.5719 12.1177 9.89486C11.4407 9.21783 10.5224 8.83749 9.56499 8.83749C8.60753 8.83749 7.68927 9.21783 7.01224 9.89486C6.33522 10.5719 5.95488 11.4901 5.95488 12.4476C5.95155 13.3346 6.27988 14.1909 6.87545 14.8483C7.0047 14.9919 7.07162 15.181 7.06146 15.374C7.05131 15.5669 6.96492 15.7479 6.8213 15.8772C6.67767 16.0065 6.4886 16.0734 6.29563 16.0632C6.10269 16.053 5.92166 15.9667 5.79241 15.823C5.13972 15.0957 4.71192 14.1947 4.5608 13.2292C4.40967 12.2636 4.54172 11.275 4.94093 10.383C5.34014 9.49097 5.9894 8.73382 6.8101 8.20323C7.63078 7.67263 8.58772 7.39135 9.56499 7.39344H34.1137C35.4526 7.3982 36.7355 7.93221 37.6822 8.87902C38.6291 9.82583 39.1631 11.1086 39.1679 12.4476V31.9422H41.6768C41.8813 31.946 42.0758 32.0304 42.2185 32.1769C43.0452 33.1066 43.5013 34.3081 43.5 35.5523ZM21.8393 35.5523C21.8426 34.6653 21.5143 33.809 20.9188 33.1515C20.8288 33.0462 20.7694 32.918 20.7471 32.7811C20.7248 32.6444 20.7405 32.504 20.7924 32.3754C20.849 32.2456 20.9425 32.1355 21.0613 32.0585C21.18 31.9814 21.3188 31.941 21.4603 31.9422H37.7238V12.4476C37.719 11.4916 37.3372 10.5761 36.6612 9.90009C35.9852 9.22411 35.0697 8.84222 34.1137 8.83749H13.1029C13.5839 9.30751 13.9658 9.86911 14.2262 10.4891C14.4867 11.1092 14.6202 11.7751 14.6191 12.4476V35.5523C14.6191 36.5098 14.9995 37.428 15.6765 38.105C16.3535 38.7821 17.2718 39.1624 18.2292 39.1624C19.1867 39.1624 20.1049 38.7821 20.782 38.105C21.459 37.428 21.8393 36.5098 21.8393 35.5523ZM42.056 35.5523C42.06 34.7706 41.8062 34.0093 41.3339 33.3862H22.7961C23.1205 34.062 23.2872 34.8027 23.2834 35.5523C23.2845 36.2248 23.1509 36.8906 22.8904 37.5108C22.6301 38.1308 22.2481 38.6924 21.7671 39.1624H38.4458C39.4018 39.1576 40.3173 38.7758 40.9933 38.0998C41.6693 37.4238 42.0511 36.5082 42.056 35.5523Z" fill="#223948"/>
</svg>
