<svg width="128" height="128" viewBox="0 0 128 128" fill="none" xmlns="http://www.w3.org/2000/svg">
<g clip-path="url(#clip0_6091_894)">
<rect x="23" y="22" width="82" height="85" rx="41" fill="white"/>
<path d="M60.1959 32.4939C60.2821 32.4085 60.3844 32.3407 60.497 32.2945C60.6095 32.2483 60.7301 32.2246 60.8519 32.2248L66.1498 32.223C66.3957 32.223 66.6315 32.32 66.8053 32.4927C66.9791 32.6654 67.0768 32.8996 67.0768 33.1438L67.0786 36.3667C67.0786 36.611 66.9809 36.8452 66.8071 37.0179C66.6332 37.1906 66.3975 37.2876 66.1516 37.2876H60.8537C60.6077 37.2871 60.3718 37.1901 60.1975 37.0176C60.0232 36.8451 59.9246 36.6111 59.9232 36.3667V33.1474C59.9233 33.0263 59.9474 32.9064 59.9942 32.7945C60.041 32.6827 60.1096 32.5794 60.1959 32.4939ZM59.3866 31.6935C59.1936 31.8838 59.0406 32.1103 58.9365 32.3599C58.8325 32.6095 58.7794 32.8772 58.7805 33.1474V36.3703C58.7805 37.5036 59.7111 38.428 60.8519 38.428H66.1498C66.7025 38.428 67.223 38.212 67.6169 37.8224C68.0048 37.4373 68.2228 36.915 68.223 36.3703V33.1474C68.223 32.0123 67.2925 31.0879 66.1498 31.0879H60.8519C60.2993 31.0879 59.7788 31.3039 59.3866 31.6935ZM54.16 48.1782C54.3846 47.9551 54.8766 48.0542 55.2652 48.3199L56.6913 49.2885C56.8215 49.3771 56.9756 49.4246 57.1334 49.4249L69.8755 49.4213C70.0333 49.4211 70.1874 49.3736 70.3176 49.285L71.7437 48.3163C72.2642 47.9622 72.9737 47.9002 72.9737 48.5288V52.407C72.9746 52.5096 72.955 52.6114 72.9159 52.7065C72.8769 52.8016 72.8192 52.888 72.7462 52.9606C72.6732 53.0333 72.5863 53.0908 72.4907 53.1299C72.3951 53.1689 72.2927 53.1886 72.1893 53.1879L54.8231 53.1932C54.72 53.1932 54.6179 53.173 54.5226 53.1337C54.4273 53.0945 54.3408 53.0369 54.2679 52.9644C54.195 52.8918 54.1373 52.8057 54.098 52.711C54.0587 52.6162 54.0386 52.5147 54.0388 52.4123L54.037 48.5306C54.037 48.3712 54.0834 48.2561 54.16 48.1764M53.3436 47.3672C53.1922 47.5201 53.0734 47.7018 52.9944 47.9014C52.9153 48.101 52.8777 48.3144 52.8837 48.5288V52.4105C52.8856 52.9206 53.0906 53.4092 53.454 53.7695C53.8174 54.1299 54.3097 54.3327 54.8231 54.3336L72.1875 54.3318C72.442 54.3322 72.694 54.2825 72.929 54.1856C73.164 54.0886 73.3773 53.9463 73.5566 53.767C73.922 53.4039 74.1235 52.9205 74.1252 52.407L74.1235 48.5271C74.1325 48.235 74.0596 47.9461 73.9129 47.6929C73.7662 47.4396 73.5515 47.2318 73.2928 47.0927C72.5441 46.7031 71.6652 46.9793 71.093 47.3689L69.7614 48.2738L57.2475 48.2756L55.9141 47.3725C54.9996 46.7509 53.9657 46.7491 53.3436 47.3672Z" fill="#42250D"/>
<path d="M60.5614 35.1254H66.444V50.5352H60.5614V35.1254Z" fill="#9B7753"/>
<path d="M61.1086 35.6124H65.895L65.8985 50.0465H61.1104L61.1086 35.6124ZM59.941 34.4543V35.6124L59.9446 50.0482V51.2081H65.8985L67.0643 51.2064V50.0465L67.0626 35.6124V34.4525H65.895L61.1086 34.4543H59.941Z" fill="#603913"/>
<path d="M64.2567 94.4997C64.1398 94.6126 63.9982 94.6969 63.8429 94.7461C63.6876 94.7953 63.5229 94.8079 63.3618 94.783C63.2071 94.763 63.0593 94.7072 62.9302 94.6202C62.8011 94.5332 62.6943 94.4173 62.6185 94.2819L58.8304 87.3243L58.8251 51.4932L68.2016 51.4915L68.2087 87.3243L64.4207 94.2819C64.3776 94.3624 64.3223 94.4359 64.2567 94.4997Z" fill="#636362"/>
<path d="M59.31 51.7146L67.7168 51.711L67.7221 87.473L63.9359 94.4288C63.9184 94.463 63.8956 94.4941 63.8681 94.5209C63.6631 94.7263 63.2513 94.6962 63.1052 94.4288L59.3171 87.4748L59.31 51.7146ZM58.1709 50.583V51.7146L58.178 87.4748V87.7617L58.3153 88.0131L62.1033 94.969C62.3404 95.4028 62.7682 95.695 63.2781 95.7694C63.5298 95.8074 63.7869 95.7868 64.0292 95.709C64.2715 95.6313 64.4922 95.4985 64.6739 95.3213C64.7779 95.216 64.8667 95.0968 64.9377 94.9672L68.7239 88.0113L68.8594 87.7599V87.473L68.8541 51.711V50.5812H67.715L59.31 50.583H58.1709Z" fill="#414042"/>
<path d="M61.1371 37.5515H64.7023V49.9615H61.1371V37.5515Z" fill="#C49A6C"/>
<path d="M67.0126 37.2433C66.8916 37.3641 66.7477 37.46 66.5892 37.5253C66.4307 37.5906 66.2608 37.6242 66.0892 37.6241L60.9125 37.6258C60.5666 37.6254 60.235 37.4886 59.9904 37.2456C59.7458 37.0027 59.6081 36.6732 59.6077 36.3296V33.1828C59.607 32.9261 59.6832 32.675 59.8267 32.4615C59.9702 32.2479 60.1745 32.0817 60.4134 31.9839C60.5713 31.9178 60.7412 31.8846 60.9125 31.8866H66.0892C66.3475 31.8857 66.6001 31.9612 66.815 32.1034C67.0299 32.2456 67.1974 32.4482 67.2961 32.6852C67.3633 32.8419 67.3973 33.0107 67.3959 33.181V36.3296C67.3956 36.4994 67.3616 36.6676 67.2958 36.8243C67.23 36.9811 67.1338 37.1235 67.0126 37.2433Z" fill="#633B1A"/>
<path d="M60.2744 32.5471C60.3577 32.4631 60.4571 32.3965 60.5667 32.3512C60.6763 32.3059 60.7939 32.2828 60.9126 32.2832H66.0893C66.3291 32.2841 66.5589 32.3792 66.7285 32.5477C66.8982 32.7162 66.9939 32.9445 66.9948 33.1828L66.9966 36.3296C66.9957 36.5679 66.9 36.7961 66.7303 36.9646C66.5607 37.1331 66.3309 37.2282 66.091 37.2291H60.9143C60.6741 37.2287 60.4439 37.1338 60.2739 36.9653C60.1039 36.7967 60.0079 36.5682 60.007 36.3296V33.1828C60.007 32.9349 60.1104 32.71 60.2744 32.5471ZM59.7075 31.9857C59.5486 32.1428 59.4226 32.3296 59.3369 32.5354C59.2513 32.7412 59.2076 32.9619 59.2084 33.1846V36.3296C59.208 36.5521 59.2521 36.7725 59.3381 36.978C59.4241 37.1834 59.5503 37.3699 59.7093 37.5266C59.8672 37.6843 60.055 37.8093 60.2618 37.8944C60.4687 37.9795 60.6905 38.0231 60.9143 38.0225H66.0893C66.4268 38.0242 66.7572 37.9256 67.038 37.7395C67.3188 37.5533 67.5372 37.288 67.6651 36.9777C67.749 36.7717 67.7932 36.5518 67.7952 36.3296V33.1828C67.7969 32.8474 67.6977 32.5192 67.5103 32.2403C67.3229 31.9614 67.0559 31.7444 66.7435 31.6174C66.5355 31.5338 66.3136 31.4899 66.0893 31.4881H60.9126C60.6886 31.4877 60.4667 31.5315 60.2598 31.617C60.053 31.7024 59.8653 31.8277 59.7075 31.9857Z" fill="#42250D"/>
<path d="M72.7526 53.1667C72.6452 53.2741 72.5174 53.3595 72.3767 53.4178C72.236 53.4762 72.0851 53.5064 71.9326 53.5067L55.0762 53.5102C54.9235 53.5114 54.772 53.4823 54.6306 53.4247C54.4892 53.367 54.3609 53.282 54.253 53.1745C54.1451 53.067 54.0599 52.9392 54.0023 52.7986C53.9447 52.658 53.9159 52.5074 53.9176 52.3556L53.9158 48.5891C53.9158 48.2703 54.0441 48.0737 54.1529 47.9657C54.5575 47.5655 55.2545 47.7302 55.7322 48.0543L57.1173 48.9946C57.1769 49.0359 57.2479 49.0582 57.3206 49.0583L69.6883 49.0548C69.762 49.0548 69.8297 49.0341 69.8915 48.9928L71.2766 48.0525C71.642 47.8046 72.2285 47.5956 72.6706 47.8276C72.8293 47.9108 73.0931 48.118 73.0931 48.5855V52.3539C73.0933 52.5051 73.0634 52.6549 73.0053 52.7946C72.9472 52.9344 72.8619 53.0614 72.7544 53.1684" fill="#633B1A"/>
<path d="M54.4345 48.2473C54.652 48.0295 55.1297 48.1269 55.5059 48.3819L56.891 49.324C57.0157 49.409 57.1673 49.4568 57.3188 49.4568L69.6883 49.4532C69.8416 49.4532 69.9913 49.4072 70.1161 49.3204L71.5012 48.3801C72.0075 48.0366 72.6938 47.9781 72.6938 48.5855V52.3538C72.6945 52.4533 72.6753 52.552 72.6373 52.644C72.5993 52.7361 72.5432 52.8197 72.4724 52.8901C72.4016 52.9605 72.3174 53.0161 72.2247 53.0539C72.1321 53.0916 72.0328 53.1107 71.9326 53.11L55.0763 53.1135C54.8745 53.1121 54.6814 53.0318 54.539 52.8899C54.3965 52.748 54.316 52.556 54.3151 52.3556V48.5891C54.3175 48.4356 54.3573 48.3217 54.4345 48.2473ZM53.8694 47.6859C53.7526 47.8052 53.6611 47.9467 53.6005 48.1018C53.5398 48.257 53.5113 48.4227 53.5165 48.5891V52.3556C53.5165 53.2109 54.217 53.9069 55.0763 53.9069L71.9326 53.9033C72.1375 53.9036 72.3404 53.8636 72.5298 53.7859C72.7191 53.7081 72.8912 53.5939 73.0361 53.45C73.1809 53.3061 73.2958 53.1352 73.3741 52.9471C73.4524 52.759 73.4926 52.5574 73.4924 52.3538V48.5855C73.4924 48.0932 73.2606 47.6877 72.8578 47.477C72.257 47.1635 71.5315 47.3991 71.052 47.7249L69.6758 48.6581L57.3313 48.6617L55.9569 47.7267C55.2117 47.2202 54.3525 47.2043 53.8694 47.6859Z" fill="#42250D"/>
<path d="M66.1142 47.1813V46.6199C66.1142 46.6199 65.0803 46.3011 63.5045 46.3011C61.9269 46.3011 60.909 46.6217 60.909 46.6217V47.183C60.909 47.183 62.3458 46.8625 63.5045 46.8625C64.6632 46.8625 66.1142 47.1813 66.1142 47.1813ZM66.1142 43.8379V43.2766C66.1142 43.2766 65.0803 42.9578 63.5027 42.9578C61.9251 42.9578 60.909 43.2766 60.909 43.2766V43.8379C60.909 43.8379 62.3458 43.5192 63.5045 43.5192C64.6632 43.5192 66.1142 43.8379 66.1142 43.8379ZM66.1142 40.8009V40.2396C66.1142 40.2396 65.0803 39.9191 63.5027 39.9191C61.9269 39.9191 60.9072 40.2414 60.9072 40.2414V40.8009C60.9072 40.8009 62.3458 40.4822 63.5027 40.4822C64.6614 40.4822 66.1142 40.8009 66.1142 40.8009Z" fill="#603913"/>
<path d="M63.1122 94.3013L59.3901 87.4659L59.3848 56.703H67.6436L67.6489 87.4641L63.9269 94.2996C63.7682 94.5971 63.2726 94.5971 63.1122 94.3013Z" fill="#939598"/>
<path d="M63.5204 94.5227C63.4388 94.5248 63.358 94.5054 63.2863 94.4666C63.2147 94.4277 63.1546 94.3707 63.1122 94.3013L59.3901 87.4659L59.3848 56.7048H63.5133C63.5133 56.703 63.6844 94.5227 63.5204 94.5227Z" fill="#BCBEC0"/>
<path d="M58.9891 56.4232L67.9699 56.4002" stroke="#414042" stroke-width="0.284" stroke-miterlimit="10"/>
<path d="M71.4495 48.6988C71.4521 48.6131 71.4337 48.5281 71.396 48.4509L70.1179 49.3204C69.9913 49.4064 69.8416 49.4526 69.6883 49.4532H68.8398C68.7217 49.5282 68.5841 49.567 68.444 49.5648L56.0763 49.5683C55.9235 49.5674 55.7746 49.5211 55.6485 49.4355L54.3186 48.5324L54.3151 48.589V52.3574C54.3151 52.7753 54.6555 53.1135 55.078 53.1135L71.0841 53.11C71.1964 53.0439 71.2893 52.9499 71.3537 52.8371C71.4182 52.7243 71.4518 52.5968 71.4513 52.4672L71.4495 48.6988ZM60.4847 32.3948C60.3413 32.4716 60.2213 32.5852 60.1372 32.7238C60.0532 32.8625 60.0082 33.021 60.0069 33.1828V36.3296C60.0083 36.5679 60.1045 36.7959 60.2745 36.9641C60.4444 37.1323 60.6744 37.2269 60.9143 37.2274H65.2745C65.4177 37.1507 65.5375 37.0374 65.6215 36.8991C65.7056 36.7608 65.7507 36.6026 65.7523 36.4411V33.2944C65.7513 33.0558 65.6554 32.8272 65.4854 32.6587C65.3154 32.4901 65.0851 32.3952 64.8449 32.3948H60.4847Z" fill="#916136"/>
<path d="M60.7717 32.8552H63.4474C63.5337 32.856 63.618 32.882 63.6896 32.93C63.7612 32.978 63.817 33.0459 63.8501 33.1252C63.8831 33.2045 63.892 33.2917 63.8755 33.3759C63.8591 33.4602 63.818 33.5377 63.7575 33.599C63.6751 33.6807 63.5638 33.7271 63.4474 33.7282H60.7734C60.6571 33.7269 60.5459 33.6803 60.4636 33.5986C60.3814 33.5169 60.3345 33.4064 60.3331 33.2908C60.3336 33.1755 60.38 33.0649 60.4621 32.9833C60.5442 32.9017 60.6555 32.8557 60.7717 32.8552ZM57.3063 50.8557H64.123C64.2097 50.8553 64.2944 50.8294 64.3664 50.7813C64.4384 50.7332 64.4944 50.6651 64.5276 50.5854C64.5607 50.5058 64.5694 50.4182 64.5526 50.3337C64.5358 50.2491 64.4943 50.1714 64.4331 50.1102C64.3504 50.0292 64.2391 49.9834 64.123 49.9827H57.3063C57.1895 49.9827 57.0775 50.0288 56.9949 50.1108C56.9124 50.1929 56.866 50.3041 56.866 50.4201C56.866 50.6574 57.0638 50.8557 57.3063 50.8557Z" fill="#B78358"/>
<path d="M35.0094 47.0661C34.8876 47.066 34.767 47.0897 34.6545 47.1359C34.5419 47.1821 34.4396 47.2498 34.3534 47.3353L30.6064 51.0541C30.433 51.2275 30.3356 51.4621 30.3356 51.7066C30.3356 51.9511 30.433 52.1857 30.6064 52.3592L32.8988 54.6382C32.9849 54.7239 33.0872 54.7919 33.1997 54.8382C33.3123 54.8846 33.4329 54.9085 33.5548 54.9085C33.6767 54.9085 33.7973 54.8846 33.9099 54.8382C34.0225 54.7919 34.1247 54.7239 34.2108 54.6382L37.9561 50.9159C38.1292 50.7427 38.2265 50.5087 38.2268 50.2646C38.2271 50.0206 38.1305 49.7862 37.9578 49.6126L35.6654 47.3335C35.4911 47.1616 35.2551 47.0654 35.0094 47.0661ZM35.0094 45.9293C35.2817 45.9279 35.5515 45.9805 35.803 46.0839C36.0546 46.1872 36.283 46.3394 36.4747 46.5313L38.7672 48.8086C39.1551 49.195 39.373 49.7185 39.373 50.2643C39.373 50.81 39.1551 51.3335 38.7672 51.7199L35.0201 55.4422C34.6279 55.8318 34.1092 56.0443 33.553 56.0443C33.2814 56.0451 33.0123 55.9923 32.7613 55.889C32.5104 55.7856 32.2826 55.6337 32.0913 55.4422L29.7953 53.1631C29.4073 52.7767 29.1895 52.2532 29.1895 51.7075C29.1895 51.1617 29.4073 50.6383 29.7953 50.2519L33.5441 46.5296C33.9327 46.1418 34.4532 45.9293 35.0094 45.9293ZM50.4415 53.9139C50.1224 53.9139 49.8461 54.3301 49.7587 54.7887L49.4414 56.4763C49.4124 56.6306 49.3373 56.7725 49.2257 56.8836L40.2128 65.8317C40.101 65.9425 39.9581 66.0171 39.8028 66.0459L38.104 66.3629C37.4855 66.4762 36.9418 66.9313 37.3874 67.3758L40.1505 70.1206C40.2225 70.1942 40.3087 70.2527 40.404 70.2926C40.4992 70.3325 40.6015 70.3531 40.7048 70.3531C40.8082 70.3531 40.9105 70.3325 41.0057 70.2926C41.101 70.2527 41.1872 70.1942 41.2592 70.1206L53.5414 57.9249C53.6144 57.8525 53.6724 57.7665 53.7119 57.6719C53.7515 57.5772 53.7718 57.4758 53.7718 57.3733C53.7718 57.2708 53.7515 57.1693 53.7119 57.0747C53.6724 56.98 53.6144 56.894 53.5414 56.8217L50.7784 54.0769C50.7358 54.0285 50.6839 53.9892 50.6257 53.9612C50.5675 53.9332 50.5043 53.9171 50.4397 53.9139M50.4397 52.7682C50.6554 52.77 50.8686 52.8149 51.0665 52.9004C51.2644 52.9859 51.4428 53.1102 51.5912 53.2658L54.3543 56.0106C54.7162 56.3723 54.9194 56.8615 54.9194 57.3715C54.9194 57.8815 54.7162 58.3707 54.3543 58.7324L42.0721 70.9281C41.893 71.1083 41.6797 71.2513 41.4446 71.349C41.2094 71.4466 40.9571 71.4969 40.7022 71.4969C40.4473 71.4969 40.195 71.4466 39.9598 71.349C39.7246 71.2513 39.5113 71.1083 39.3322 70.9281L36.5728 68.1833C36.359 67.9833 36.2053 67.7282 36.1288 67.4465C36.0523 67.1648 36.056 66.8675 36.1396 66.5878C36.3892 65.7856 37.2092 65.3624 37.8919 65.2367L39.4784 64.9409L48.3273 56.1523L48.6268 54.5762C48.83 53.496 49.5608 52.77 50.4397 52.7682Z" fill="#42250D"/>
<path d="M36.6227 49.1823L32.4657 53.3137L43.4341 64.2096L47.5929 60.0782L36.6227 49.1823Z" fill="#9B7753"/>
<path d="M36.5835 49.9101L33.1965 53.2729L43.4697 63.4818L46.8549 60.119L36.5835 49.9101ZM36.5835 48.2721L37.4088 49.092L47.682 59.3008L48.5073 60.1207L47.682 60.9389L44.295 64.3017L43.4715 65.1216L42.6461 64.3017L32.373 54.0911L31.5476 53.2729L32.373 52.453L35.7599 49.092L36.5835 48.2721Z" fill="#603913"/>
<path d="M76.275 93.7613C76.4377 93.7587 76.5975 93.7186 76.742 93.6443C76.8865 93.5699 77.0116 93.4633 77.1075 93.3327C77.2025 93.2101 77.2672 93.0672 77.2966 92.9153C77.326 92.7634 77.3193 92.6068 77.2769 92.4579L75.0023 84.877L49.502 59.5364L42.8707 66.1203L68.3709 91.4645L76.0005 93.7223C76.0894 93.7494 76.182 93.7626 76.275 93.7613Z" fill="#636362"/>
<path d="M49.3149 60.0322L43.3699 65.9361L68.8202 91.2272L76.4497 93.4867C76.4854 93.4986 76.5234 93.5045 76.5638 93.5045C76.8562 93.5045 77.1236 93.1946 77.038 92.9024L74.7652 85.3232L49.3149 60.0322ZM49.3149 58.4331L50.1206 59.2335L75.5709 84.5228L75.7759 84.7264L75.8561 85.0027L78.129 92.5819C78.1992 92.8174 78.2124 93.0661 78.1675 93.3077C78.1226 93.5493 78.0208 93.7769 77.8705 93.972C77.7194 94.1755 77.5226 94.3414 77.2959 94.4563C77.0691 94.5713 76.8184 94.6322 76.5638 94.6342C76.4154 94.6333 76.2678 94.6118 76.1253 94.5705L68.4957 92.3109L68.2212 92.2295L68.0162 92.0258L42.5659 66.7348L41.762 65.9361L42.5659 65.1375L48.5109 59.2335L49.3149 58.4331Z" fill="#414042"/>
<path d="M37.9419 51.302L35.4213 53.806L44.2559 62.5822L46.7765 60.0765L37.9419 51.302Z" fill="#C49A6C"/>
<path d="M33.5708 55.212C33.9202 55.212 34.2482 55.0774 34.4942 54.833L38.1521 51.1975C38.3968 50.9541 38.5343 50.6242 38.5343 50.2802C38.5343 49.9362 38.3968 49.6063 38.1521 49.3629L35.9132 47.1388C35.7312 46.9566 35.4987 46.8323 35.2453 46.7819C34.992 46.7314 34.7293 46.757 34.4907 46.8554C34.3317 46.92 34.1879 47.0164 34.0682 47.1388L30.4067 50.7743C30.2236 50.9553 30.0989 51.1863 30.0484 51.438C29.9979 51.6896 30.024 51.9505 30.1233 52.1874C30.1875 52.3458 30.284 52.4893 30.4067 52.6089L32.6457 54.833C32.7662 54.9543 32.9101 55.0503 33.0687 55.1154C33.2273 55.1805 33.3992 55.2133 33.5708 55.212Z" fill="#633B1A"/>
<path d="M34.9916 47.1564C34.7598 47.1564 34.5281 47.245 34.3516 47.4185L30.6901 51.054C30.5203 51.2233 30.425 51.4526 30.425 51.6915C30.425 51.9305 30.5203 52.1598 30.6901 52.329L32.9291 54.5532C33.0994 54.7214 33.3298 54.8157 33.5699 54.8157C33.8101 54.8157 34.0405 54.7214 34.2108 54.5532L37.8705 50.9177C38.0403 50.7484 38.1357 50.5192 38.1357 50.2802C38.1357 50.0412 38.0403 49.812 37.8705 49.6427L35.6315 47.4185C35.5478 47.3346 35.4481 47.2683 35.3382 47.2232C35.2283 47.1782 35.1105 47.1555 34.9916 47.1564ZM34.9916 46.3631C35.2158 46.3623 35.4379 46.4057 35.645 46.4908C35.8522 46.5759 36.0403 46.7011 36.1984 46.8589L38.4374 49.0831C38.5963 49.2402 38.7223 49.427 38.8079 49.6328C38.8936 49.8386 38.9373 50.0593 38.9365 50.282C38.9371 50.5044 38.8933 50.7247 38.8076 50.9302C38.7219 51.1356 38.5961 51.3222 38.4374 51.479L34.7759 55.1146C34.5383 55.3525 34.2345 55.5146 33.9035 55.5799C33.5726 55.6452 33.2295 55.6108 32.9184 55.4811C32.7127 55.3944 32.5252 55.2701 32.3658 55.1146L30.1251 52.8886C29.8851 52.6524 29.7218 52.3504 29.6561 52.0212C29.5903 51.6921 29.6251 51.351 29.7561 51.0416C29.8433 50.8373 29.9685 50.6511 30.1251 50.4927L33.7865 46.8572C33.9444 46.6995 34.1322 46.5745 34.3391 46.4894C34.5459 46.4043 34.7677 46.3607 34.9916 46.3613" fill="#42250D"/>
<path d="M40.844 70.5031C40.9965 70.5035 41.1476 70.474 41.2886 70.4163C41.4296 70.3585 41.5578 70.2737 41.6657 70.1667L53.5878 58.3286C53.6965 58.2222 53.7828 58.0954 53.8417 57.9556C53.9006 57.8157 53.9309 57.6656 53.9309 57.5141C53.9309 57.3625 53.9006 57.2124 53.8417 57.0726C53.7828 56.9327 53.6965 56.8059 53.5878 56.6995L50.9068 54.0344C50.8287 53.9501 50.7344 53.8823 50.6293 53.8351C50.5242 53.7879 50.4106 53.7624 50.2954 53.7599C49.7249 53.7599 49.3506 54.3673 49.2418 54.9322L48.9317 56.5684C48.9188 56.6403 48.884 56.7065 48.8318 56.7579L40.0846 65.4438C40.0335 65.4944 39.9683 65.5283 39.8974 65.5412L38.2485 65.8494C37.8135 65.9308 37.2502 66.1947 37.1023 66.6693C37.0488 66.8393 37.0114 67.1722 37.3429 67.5016L40.024 70.1667C40.1317 70.2735 40.2596 70.3582 40.4003 70.4159C40.541 70.4737 40.6917 70.5033 40.844 70.5031Z" fill="#633B1A"/>
<path d="M50.2953 54.1566C49.9869 54.1566 49.7195 54.5603 49.6357 55.0066L49.3255 56.6428C49.2987 56.7932 49.2258 56.9317 49.117 57.0395L40.3679 65.7219C40.2594 65.8294 40.121 65.9022 39.9704 65.9308L38.3215 66.2372C37.7208 66.3487 37.1931 66.7897 37.6263 67.22L40.3073 69.8851C40.3778 69.9558 40.4616 70.0119 40.554 70.0502C40.6464 70.0884 40.7455 70.1082 40.8457 70.1082C40.9458 70.1082 41.0449 70.0884 41.1373 70.0502C41.2297 70.0119 41.3136 69.9558 41.384 69.8851L53.3061 58.0471C53.4482 57.9045 53.5279 57.712 53.5279 57.5114C53.5279 57.3108 53.4482 57.1183 53.3061 56.9757L50.6251 54.3124C50.5128 54.2026 50.4022 54.1566 50.2953 54.1566ZM50.2953 53.3615C50.4631 53.3632 50.6289 53.3987 50.7827 53.4656C50.9365 53.5326 51.075 53.6296 51.1901 53.751L53.8712 56.4161C54.1636 56.707 54.3278 57.1012 54.3278 57.5123C54.3278 57.9233 54.1636 58.3176 53.8712 58.6084L41.9491 70.4465C41.8048 70.5915 41.633 70.7067 41.4436 70.7854C41.2542 70.864 41.051 70.9045 40.8457 70.9045C40.6404 70.9045 40.4371 70.864 40.2477 70.7854C40.0583 70.7067 39.8865 70.5915 39.7422 70.4465L37.0612 67.7813C36.71 67.4325 36.587 66.9845 36.7207 66.5506C36.9221 65.9078 37.6031 65.5643 38.1735 65.458L39.8118 65.1517L48.543 56.4817L48.8496 54.856C49.0154 53.9759 49.6108 53.3615 50.2953 53.3615Z" fill="#42250D"/>
<path d="M41.2789 61.6082L40.8796 61.2116C40.8796 61.2116 41.3823 60.2589 42.4982 59.1503C43.6124 58.0436 44.5607 57.5566 44.5607 57.5566L44.96 57.9532C44.96 57.9532 43.7157 58.7324 42.8975 59.547C42.0793 60.3616 41.2789 61.6082 41.2789 61.6082ZM38.8991 59.2442L38.4998 58.8457C38.4998 58.8457 39.0025 57.893 40.1184 56.7863C41.2344 55.6777 42.1809 55.1907 42.1809 55.1907L42.5802 55.5874C42.5802 55.5874 41.336 56.3701 40.516 57.1812C39.6977 57.9957 38.8991 59.2442 38.8991 59.2442ZM36.7368 57.0944L36.3375 56.6977C36.3375 56.6977 36.8402 55.745 37.9561 54.6382C39.0703 53.5297 40.0204 53.0427 40.0204 53.0427L40.4179 53.4394C40.4179 53.4394 39.1754 54.2221 38.3554 55.0349C37.5354 55.8495 36.7368 57.0944 36.7368 57.0944Z" fill="#603913"/>
<path d="M76.9418 92.8156L74.7082 85.3693L52.8142 63.6146L46.9744 69.4158L68.8666 91.1687L76.3642 93.3894C76.6869 93.485 77.0381 93.1361 76.9418 92.8156Z" fill="#939598"/>
<path d="M76.8098 93.2601C76.9256 93.145 76.988 92.9768 76.9417 92.8174L74.7081 85.371L52.8159 63.6128L49.8942 66.5134C49.8942 66.5134 76.6939 93.3752 76.8098 93.2601Z" fill="#BCBEC0"/>
<path d="M52.8943 63.1365L46.5304 69.4282" stroke="#414042" stroke-width="0.284" stroke-miterlimit="10"/>
<path d="M38.5853 66.4267C38.523 66.3678 38.4759 66.2949 38.448 66.2142L39.9704 65.9308C40.1207 65.9027 40.2592 65.8306 40.3679 65.7236L40.9669 65.1286C41.1032 65.0973 41.2279 65.0286 41.327 64.9303L50.0742 56.2444C50.1828 56.1361 50.2561 55.9979 50.2846 55.8477L50.5805 54.2788L50.6233 54.3142L53.3043 56.9793C53.3753 57.0495 53.4316 57.133 53.47 57.2249C53.5085 57.3169 53.5283 57.4154 53.5283 57.515C53.5283 57.6145 53.5085 57.713 53.47 57.805C53.4316 57.8969 53.3753 57.9804 53.3043 58.0506L41.9847 69.2901C41.8581 69.3225 41.7252 69.3214 41.5992 69.2869C41.4731 69.2524 41.3584 69.1858 41.2663 69.0935L38.5853 66.4267ZM34.7349 47.199C34.8908 47.1531 35.0562 47.1496 35.2139 47.1889C35.3716 47.2281 35.5158 47.3087 35.6315 47.4221L37.8723 49.6463C38.0407 49.8156 38.1351 50.0442 38.1348 50.2823C38.1344 50.5205 38.0394 50.7488 37.8705 50.9177L34.7866 53.9813C34.6306 54.0277 34.4649 54.0316 34.3069 53.9927C34.1488 53.9537 34.0042 53.8733 33.8881 53.7599L31.6492 51.534C31.4799 51.3648 31.3849 51.1359 31.3849 50.8973C31.3849 50.6588 31.4799 50.4299 31.6492 50.2607L34.7349 47.199Z" fill="#916136"/>
<path d="M34.8597 47.7249L32.9648 49.6038C32.8842 49.6864 32.8391 49.7969 32.8391 49.9119C32.8391 50.0269 32.8842 50.1374 32.9648 50.22C33.0472 50.3013 33.1587 50.347 33.2749 50.347C33.3911 50.347 33.5026 50.3013 33.5851 50.22L35.4782 48.3429C35.5388 48.2817 35.5798 48.2041 35.5962 48.1199C35.6127 48.0356 35.6038 47.9484 35.5708 47.8692C35.5377 47.7899 35.4819 47.722 35.4103 47.674C35.3387 47.626 35.2545 47.6 35.1681 47.5992C35.0524 47.599 34.9412 47.6434 34.8579 47.7231M50.1206 58.017L45.3004 62.8036C45.2171 62.8847 45.1051 62.9301 44.9885 62.9301C44.8718 62.9301 44.7598 62.8847 44.6765 62.8036C44.5949 62.7214 44.5493 62.6105 44.5496 62.4951C44.5499 62.3796 44.5962 62.269 44.6783 62.1873L49.4985 57.399C49.5394 57.3582 49.588 57.3258 49.6415 57.3037C49.6951 57.2816 49.7525 57.2703 49.8104 57.2703C49.8684 57.2703 49.9258 57.2816 49.9793 57.3037C50.0329 57.3258 50.0815 57.3582 50.1224 57.399C50.2033 57.4819 50.2483 57.5929 50.248 57.7083C50.2477 57.8238 50.202 57.9346 50.1206 58.017Z" fill="#B78358"/>
<path d="M92.0084 47.075C92.2535 47.0747 92.4887 47.1709 92.6626 47.3424L96.4114 51.0647C96.5851 51.2374 96.6826 51.4714 96.6826 51.7155C96.6826 51.9595 96.5851 52.1936 96.4114 52.3663L94.119 54.6471C94.0329 54.7328 93.9307 54.8007 93.8181 54.8471C93.7055 54.8935 93.5849 54.9173 93.463 54.9173C93.3411 54.9173 93.2205 54.8935 93.1079 54.8471C92.9953 54.8007 92.8931 54.7328 92.807 54.6471L89.06 50.9248C88.8871 50.7514 88.7901 50.5172 88.7901 50.2731C88.7901 50.0291 88.8871 49.7949 89.06 49.6215L91.3524 47.3424C91.4386 47.2569 91.5409 47.1892 91.6534 47.143C91.766 47.0968 91.8866 47.0749 92.0084 47.075ZM92.0084 45.9346C91.7361 45.9333 91.4664 45.9858 91.2148 46.0892C90.9632 46.1926 90.7348 46.3447 90.5431 46.5367L88.2489 48.8157C87.8609 49.2021 87.643 49.7256 87.643 50.2714C87.643 50.8171 87.8609 51.3406 88.2489 51.727L91.9959 55.4493C92.2856 55.7381 92.6552 55.9347 93.0577 56.0142C93.4602 56.0937 93.8775 56.0524 94.2563 55.8955C94.5058 55.7911 94.7358 55.6405 94.9265 55.4493L97.2207 53.1702C97.6092 52.7837 97.8275 52.2599 97.8275 51.7137C97.8275 51.1675 97.6092 50.6437 97.2207 50.2572L93.4737 46.5385C93.2819 46.3465 93.0536 46.1943 92.802 46.091C92.5504 45.9876 92.2806 45.935 92.0084 45.9364M76.5764 53.9228C76.8937 53.9228 77.17 54.339 77.2573 54.7994L77.5764 56.4852C77.6049 56.6393 77.6794 56.7812 77.7903 56.8925L86.8032 65.8423C86.915 65.9531 87.0579 66.0278 87.2132 66.0566L88.912 66.3736C89.5323 66.4869 90.076 66.942 89.6286 67.3865L86.8673 70.1313C86.7951 70.2049 86.7088 70.2634 86.6134 70.3034C86.518 70.3433 86.4156 70.3639 86.3121 70.3639C86.2086 70.3639 86.1061 70.3433 86.0107 70.3034C85.9154 70.2634 85.829 70.2049 85.7568 70.1313L73.4746 57.9355C73.4016 57.8632 73.3436 57.7772 73.3041 57.6825C73.2646 57.5879 73.2442 57.4864 73.2442 57.3839C73.2442 57.2814 73.2646 57.18 73.3041 57.0853C73.3436 56.9907 73.4016 56.9047 73.4746 56.8323L76.2377 54.0875C76.28 54.0388 76.3319 53.9991 76.3901 53.9708C76.4483 53.9425 76.5116 53.9262 76.5764 53.9228ZM76.5764 52.7789C76.3604 52.7802 76.147 52.8247 75.9488 52.9099C75.7506 52.9951 75.5718 53.1192 75.423 53.2747L72.66 56.0213C72.298 56.3829 72.0948 56.8722 72.0948 57.3821C72.0948 57.8921 72.298 58.3814 72.66 58.743L84.9421 70.9388C85.1216 71.1183 85.335 71.2608 85.5701 71.358C85.8052 71.4552 86.0574 71.5053 86.3121 71.5053C86.5667 71.5053 86.8189 71.4552 87.054 71.358C87.2891 71.2608 87.5026 71.1183 87.682 70.9388L90.4433 68.194C90.8889 67.7513 91.0493 67.1563 90.8764 66.5984C90.6269 65.7963 89.8069 65.373 89.1241 65.2473L87.5376 64.9516L78.6887 56.1629L78.3893 54.5869C78.1843 53.5049 77.4552 52.7789 76.5764 52.7789Z" fill="#42250D"/>
<path d="M90.3933 49.1912L94.5521 53.3225L83.5838 64.2185L79.4249 60.0871L90.3933 49.1912Z" fill="#9B7753"/>
<path d="M90.4325 49.919L93.8194 53.2818L83.5462 63.4906L80.1593 60.126L90.4325 49.919ZM90.4325 48.2809L89.6089 49.0991L79.3357 59.3079L78.5104 60.1296L79.3339 60.9477L82.7209 64.3105L83.5445 65.1287L84.3716 64.3088L94.643 54.0999L95.4683 53.2818L94.643 52.4619L91.2578 49.1008L90.4325 48.2809Z" fill="#603913"/>
<path d="M50.7427 93.7719C50.5796 93.7694 50.4193 93.7292 50.2745 93.6545C50.1297 93.5798 50.0044 93.4727 49.9084 93.3416C49.8135 93.2186 49.7489 93.0753 49.7198 92.9231C49.6907 92.7709 49.6979 92.614 49.7409 92.465L52.0137 84.8859L77.5139 59.5452L84.1452 66.1292L58.6468 91.4716L51.0154 93.7312C50.9271 93.7581 50.8351 93.773 50.7427 93.7719Z" fill="#636362"/>
<path d="M77.7011 60.041L83.6461 65.945L58.1958 91.236L50.5663 93.4956C50.5294 93.5076 50.4909 93.5136 50.4522 93.5133C50.1616 93.5133 49.8924 93.2034 49.9798 92.9112L52.2508 85.3321L77.7011 60.041ZM77.7011 58.442L76.8954 59.2424L51.4451 84.5316L51.2419 84.7353L51.1599 85.0115L48.887 92.5907C48.817 92.8264 48.8041 93.0752 48.8493 93.3168C48.8946 93.5584 48.9967 93.7859 49.1473 93.9808C49.2982 94.1841 49.4947 94.3498 49.7211 94.4648C49.9476 94.5797 50.1979 94.6408 50.4522 94.6431C50.6012 94.6423 50.7494 94.6208 50.8925 94.5793L58.522 92.3198L58.7966 92.2365L58.9998 92.0347L84.4519 66.7436L85.254 65.945L84.4519 65.1446L78.5051 59.2406L77.7011 58.442Z" fill="#414042"/>
<path d="M89.0742 51.3109L91.5948 53.8148L82.7619 62.5893L80.2413 60.0853L89.0742 51.3109Z" fill="#C49A6C"/>
<path d="M93.4487 55.2208C93.2765 55.2214 93.1059 55.1881 92.9468 55.1228C92.7877 55.0574 92.6432 54.9613 92.5217 54.8401L88.862 51.2064C88.6173 50.963 88.4799 50.6331 88.4799 50.2891C88.4799 49.9451 88.6173 49.6152 88.862 49.3718L91.101 47.1476C91.283 46.9654 91.5155 46.8412 91.7688 46.7907C92.0221 46.7403 92.2849 46.7659 92.5235 46.8643C92.6839 46.9304 92.8248 47.0248 92.946 47.1476L96.6074 50.7831C96.7908 50.9639 96.9159 51.1949 96.9667 51.4465C97.0175 51.6982 96.9917 51.9592 96.8927 52.1962C96.8282 52.354 96.7317 52.4969 96.6092 52.6159L94.3685 54.8419C94.2475 54.9621 94.1038 55.0575 93.9457 55.1226C93.7875 55.1876 93.6198 55.221 93.4487 55.2208Z" fill="#633B1A"/>
<path d="M92.0244 47.1635C92.2561 47.1635 92.4879 47.2521 92.6661 47.4291L96.3258 51.0629C96.4951 51.2321 96.5901 51.461 96.5901 51.6995C96.5901 51.9381 96.4951 52.1669 96.3258 52.3361L94.0869 54.5621C93.9166 54.7297 93.6866 54.8237 93.4469 54.8237C93.2072 54.8237 92.9772 54.7297 92.8069 54.5621L89.1455 50.9265C88.9756 50.7573 88.8803 50.528 88.8803 50.289C88.8803 50.0501 88.9756 49.8208 89.1455 49.6515L91.3844 47.4274C91.5609 47.2503 91.7944 47.1653 92.0262 47.1653M92.0262 46.3737C91.8023 46.3731 91.5805 46.4167 91.3737 46.5018C91.1668 46.5869 90.979 46.7119 90.8211 46.8696L88.5804 49.0937C88.4218 49.2509 88.2961 49.4378 88.2108 49.6436C88.1254 49.8494 88.082 50.07 88.083 50.2926C88.0824 50.515 88.1262 50.7353 88.2119 50.9408C88.2976 51.1462 88.4234 51.3328 88.5822 51.4897L92.2419 55.1234C92.4794 55.362 92.7834 55.5246 93.1147 55.5903C93.4461 55.6559 93.7896 55.6216 94.1011 55.4917C94.3068 55.405 94.4943 55.2807 94.6537 55.1252L96.8927 52.8992C97.1329 52.6632 97.2966 52.3613 97.3626 52.0321C97.4287 51.703 97.3942 51.3617 97.2635 51.0523C97.1757 50.8478 97.0499 50.6616 96.8927 50.5033L93.2312 46.8678C93.0733 46.7101 92.8855 46.5851 92.6787 46.5C92.4718 46.4149 92.25 46.3714 92.0262 46.372" fill="#42250D"/>
<path d="M86.1721 70.5137C86.0199 70.5139 85.8691 70.4843 85.7284 70.4266C85.5877 70.3688 85.4599 70.2841 85.3521 70.1773L73.4283 58.3375C73.3196 58.2311 73.2333 58.1042 73.1744 57.9644C73.1155 57.8246 73.0852 57.6745 73.0852 57.5229C73.0852 57.3713 73.1155 57.2212 73.1744 57.0814C73.2333 56.9416 73.3196 56.8147 73.4283 56.7083L76.1111 54.0432C76.1891 53.9589 76.2835 53.8911 76.3886 53.844C76.4937 53.7968 76.6072 53.7712 76.7225 53.7687C77.2929 53.7687 77.6673 54.3761 77.7743 54.941L78.0844 56.5773C78.0987 56.6517 78.132 56.7148 78.1843 56.7668L86.9315 65.4527C86.985 65.5046 87.048 65.5371 87.1205 65.5501L88.7694 65.8582C89.2043 65.9397 89.7676 66.2035 89.9138 66.6781C89.9673 66.8481 90.0065 67.181 89.6732 67.5104L86.9921 70.1755C86.8844 70.2823 86.7565 70.3671 86.6158 70.4248C86.4751 70.4825 86.3243 70.5139 86.1721 70.5137Z" fill="#633B1A"/>
<path d="M76.7207 54.1654C77.0309 54.1654 77.2982 54.5692 77.382 55.0136L77.6922 56.6517C77.7205 56.801 77.7931 56.9385 77.9008 57.0466L86.648 65.7325C86.7568 65.8387 86.8976 65.9131 87.0473 65.9414L88.6945 66.2478C89.297 66.3594 89.8229 66.8003 89.3897 67.2306L86.7104 69.8957C86.64 69.9664 86.5561 70.0225 86.4637 70.0608C86.3713 70.0991 86.2722 70.1188 86.1721 70.1188C86.072 70.1188 85.9728 70.0991 85.8804 70.0608C85.788 70.0225 85.7042 69.9664 85.6337 69.8957L73.7099 58.0577C73.5678 57.9151 73.4881 57.7226 73.4881 57.522C73.4881 57.3214 73.5678 57.1289 73.7099 56.9863L76.3927 54.323C76.5032 54.2132 76.6137 54.1672 76.7207 54.1654ZM76.7207 53.3703C76.5534 53.3726 76.3883 53.4082 76.2352 53.4752C76.0821 53.5421 75.9441 53.6389 75.8294 53.7599L73.1466 56.425C72.8542 56.7158 72.6899 57.1101 72.6899 57.5211C72.6899 57.9322 72.8542 58.3264 73.1466 58.6173L85.0686 70.4553C85.2133 70.5998 85.3852 70.7144 85.5746 70.7926C85.7639 70.8708 85.967 70.9111 86.1721 70.9111C86.3772 70.9111 86.5802 70.8708 86.7696 70.7926C86.959 70.7144 87.1309 70.5998 87.2755 70.4553L89.9548 67.7902C90.3059 67.4413 90.4307 66.9933 90.297 66.5595C90.0956 65.9149 89.4146 65.5731 88.8424 65.4669L87.206 65.1605L78.4748 56.4905L78.1682 54.8649C78.0006 53.983 77.407 53.3685 76.7207 53.3703Z" fill="#42250D"/>
<path d="M85.7389 61.6171L86.1382 61.2204C86.1382 61.2204 85.6356 60.2677 84.5196 59.1592C83.4037 58.0506 82.4554 57.5654 82.4554 57.5654L82.0579 57.9621C82.0579 57.9621 83.3003 58.7413 84.1203 59.5558C84.9403 60.3704 85.7389 61.6171 85.7389 61.6171ZM88.1187 59.253L88.518 58.8546C88.518 58.8546 88.0153 57.9019 86.8994 56.7951C85.7835 55.6866 84.8369 55.1996 84.8369 55.1996L84.4376 55.5945C84.4376 55.5945 85.6819 56.3772 86.5001 57.1918C87.3183 58.0064 88.1187 59.2513 88.1187 59.2513M90.2793 57.1015L90.6803 56.7048C90.6803 56.7048 90.1759 55.7521 89.0617 54.6453C87.9476 53.5368 86.9975 53.0498 86.9975 53.0498L86.5982 53.4465C86.5982 53.4465 87.8424 54.2292 88.6606 55.042C89.4806 55.8566 90.2793 57.1015 90.2793 57.1015Z" fill="#603913"/>
<path d="M50.076 92.8262L52.3078 85.3781L74.2018 63.6216L80.0434 69.4229L58.1494 91.1794L50.6518 93.3982C50.3309 93.4956 49.9797 93.1467 50.076 92.8262Z" fill="#939598"/>
<path d="M50.2079 93.2689C50.1486 93.2132 50.1052 93.1429 50.082 93.0652C50.0589 92.9875 50.0568 92.905 50.076 92.8262L52.3078 85.3799L74.2018 63.6216L77.1217 66.5223C77.1217 66.5223 50.3238 93.384 50.2079 93.2689Z" fill="#BCBEC0"/>
<path d="M74.1217 63.1453L80.4874 69.4371" stroke="#414042" stroke-width="0.284" stroke-miterlimit="10"/>
<path d="M88.4325 66.4355C88.5026 66.3647 88.5484 66.2939 88.5698 66.223L87.0474 65.9397C86.8971 65.9116 86.7586 65.8394 86.6499 65.7325L86.0491 65.1375C85.9121 65.108 85.7868 65.039 85.6891 64.9392L76.9418 56.2533C76.8338 56.1448 76.7612 56.0066 76.7332 55.8566L76.4355 54.2876L76.3928 54.323L73.7117 56.9881C73.641 57.0584 73.5849 57.1417 73.5466 57.2335C73.5083 57.3253 73.4886 57.4236 73.4886 57.5229C73.4886 57.6223 73.5083 57.7206 73.5466 57.8124C73.5849 57.9041 73.641 57.9875 73.7117 58.0577L85.0331 69.299C85.1595 69.3308 85.2922 69.3293 85.4179 69.2945C85.5436 69.2597 85.658 69.1929 85.7497 69.1006L88.4325 66.4355ZM92.2829 47.2061C92.1269 47.1597 91.9613 47.1557 91.8032 47.1946C91.6452 47.2336 91.5006 47.314 91.3845 47.4274L89.1455 49.6534C88.9768 49.8225 88.8821 50.051 88.8821 50.2891C88.8821 50.5272 88.9768 50.7557 89.1455 50.9248L92.2294 53.9884C92.3854 54.0348 92.5511 54.0387 92.7091 53.9998C92.8672 53.9608 93.0118 53.8804 93.1279 53.767L95.3686 51.5411C95.5377 51.3716 95.6323 51.1426 95.632 50.9041C95.6317 50.6655 95.5363 50.4368 95.3668 50.2678L92.2829 47.2061Z" fill="#916136"/>
<path d="M92.1581 47.7338L94.0512 49.6126C94.1244 49.6963 94.1629 49.8044 94.159 49.9152C94.155 50.026 94.1089 50.1311 94.0299 50.2094C93.9508 50.2877 93.8448 50.3332 93.7333 50.3368C93.6218 50.3404 93.513 50.3019 93.4291 50.2289L91.5377 48.3518C91.4561 48.269 91.4103 48.1578 91.4103 48.0419C91.4103 47.926 91.4561 47.8148 91.5377 47.732C91.6202 47.6507 91.7317 47.605 91.8479 47.605C91.9641 47.605 92.0756 47.6524 92.1581 47.7338ZM76.8954 58.0258L81.7155 62.8124C81.7988 62.893 81.9104 62.9381 82.0266 62.9381C82.1428 62.9381 82.2544 62.893 82.3377 62.8124C82.4195 62.7305 82.4655 62.6197 82.4655 62.5043C82.4655 62.3888 82.4195 62.2781 82.3377 62.1962L77.5157 57.4078C77.4332 57.326 77.3213 57.28 77.2046 57.28C77.088 57.28 76.9761 57.326 76.8936 57.4078C76.8127 57.4907 76.7676 57.6017 76.7679 57.7172C76.7683 57.8326 76.814 57.9434 76.8954 58.0258Z" fill="#B78358"/>
<path d="M70.2249 80.8306L64.3102 86.7063L66.681 89.0597L72.5957 83.1841L70.2249 80.8306ZM63.5116 87.5545L60.8644 90.1771L63.0748 94.2429C63.2673 94.5935 63.7718 94.5971 63.9661 94.2465L66.1908 90.2125L63.5116 87.5545Z" fill="black" fill-opacity="0.2"/>
<path d="M64.0006 16.2397C90.3779 16.2397 111.761 37.6242 111.761 64C111.761 90.3758 90.3774 111.761 64.0006 111.761C37.6237 111.761 16.2397 90.3774 16.2397 64C16.2397 37.6226 37.6232 16.2397 64.0006 16.2397ZM64.0006 10.7047C34.6132 10.7047 10.7047 34.6127 10.7047 64C10.7047 93.3873 34.6132 117.296 64.0006 117.296C93.3879 117.296 117.296 93.3873 117.296 64C117.296 34.6127 93.3879 10.7047 64.0006 10.7047Z" fill="black"/>
<path d="M64.0011 16.2208C90.3893 16.2208 111.781 37.6134 111.781 64.0011C111.781 90.3887 90.3893 111.781 64.0011 111.781C37.6129 111.781 16.2208 90.3892 16.2208 64.0011C16.2208 37.6129 37.6129 16.2208 64.0011 16.2208ZM64.0011 11.3608C34.975 11.3608 11.3608 34.9744 11.3608 64.0005C11.3608 93.0266 34.975 116.641 64.0011 116.641C93.0272 116.641 116.641 93.0266 116.641 64.0005C116.641 34.9744 93.0272 11.3608 64.0011 11.3608Z" fill="#3A3A3A"/>
<path d="M64 22.7796C86.7286 22.7796 105.22 41.2708 105.22 64C105.22 86.7291 86.7286 105.22 64 105.22C41.2714 105.22 22.7802 86.7291 22.7802 64C22.7802 41.2708 41.2714 22.7796 64 22.7796ZM64 13.5651C36.1462 13.5651 13.5651 36.1457 13.5651 64C13.5651 91.8543 36.1462 114.435 64 114.435C91.8537 114.435 114.435 91.8553 114.435 64C114.435 36.1446 91.8553 13.5651 64 13.5651Z" fill="#9C9A9A"/>
</g>
<defs>
<clipPath id="clip0_6091_894">
<rect width="108" height="108" fill="white" transform="translate(10 10)"/>
</clipPath>
</defs>
</svg>
