<svg width="48" height="48" viewBox="0 0 48 48" fill="none" xmlns="http://www.w3.org/2000/svg">
<path d="M18.0047 33.0434C17.5358 33.0434 17.0669 32.6415 17.0669 32.1056V31.0339C17.0669 30.498 17.5358 30.0961 18.0047 30.0961H30.3301C30.8659 30.0961 31.2679 30.498 31.2679 31.0339V32.1726C31.2679 32.7085 30.8659 33.1104 30.3301 33.1104H18.0047V33.0434Z" fill="#CCEFFE"/>
<path d="M30.3305 30.699C30.4644 30.699 30.5984 30.833 30.5984 30.9669V32.1057C30.5984 32.2397 30.4644 32.3736 30.3305 32.3736H18.0051C17.9341 32.3736 17.8659 32.3454 17.8157 32.2952C17.7654 32.2449 17.7372 32.1768 17.7372 32.1057V31.0339C17.7372 30.9 17.8711 30.766 18.0051 30.766H30.3305M30.3305 29.4263H18.0051C17.1343 29.4263 16.3975 30.0961 16.3975 31.0339V32.1727C16.3975 33.0435 17.1343 33.7803 18.0051 33.7803H30.3305C31.2013 33.7803 31.9381 33.1105 31.9381 32.1727V31.0339C31.9381 30.1631 31.2013 29.4263 30.3305 29.4263Z" fill="#223948"/>
<path d="M17.3352 35.924C16.6654 35.924 16.0625 35.3881 16.0625 34.7182V33.2445C16.0625 32.5747 16.6654 31.9718 17.3352 31.9718H31.0003C31.6702 31.9718 32.273 32.5747 32.273 33.2445V34.7182C32.273 35.3881 31.6702 35.924 31.0003 35.924H17.3352Z" fill="#CCEFFE"/>
<path d="M30.9995 32.6416C31.3344 32.6416 31.6024 32.9096 31.6024 33.2445V34.7182C31.6024 34.9861 31.3344 35.2541 30.9995 35.2541H17.3344C17.2587 35.2636 17.1817 35.2568 17.1088 35.2342C17.0358 35.2116 16.9685 35.1736 16.9114 35.1229C16.8543 35.0722 16.8088 35.0098 16.7777 34.94C16.7467 34.8702 16.731 34.7946 16.7316 34.7182V33.2445C16.7316 32.9096 16.9995 32.6416 17.3344 32.6416H30.9995ZM30.9995 31.3019H17.3344C17.0768 31.2925 16.82 31.3364 16.5801 31.4307C16.3402 31.525 16.1223 31.6677 15.94 31.85C15.7577 32.0323 15.6149 32.2502 15.5206 32.4901C15.4263 32.7301 15.3825 32.9869 15.3919 33.2445V34.7182C15.3919 35.723 16.2627 36.5938 17.3344 36.5938H30.9995C32.0713 36.5938 32.9421 35.723 32.9421 34.7182V33.2445C32.9421 32.1727 32.0713 31.3019 30.9995 31.3019Z" fill="#223948"/>
<path d="M16.0619 39.0721C15.392 39.0721 14.7222 38.4023 14.7222 37.7324V37.5985L15.392 35.8568C15.526 35.3879 15.8609 35.12 16.3298 35.12H32.0045C32.4734 35.12 32.8083 35.3879 32.8753 35.7899L33.5451 37.5985V37.7324C33.5451 38.4023 33.0092 39.0721 32.2054 39.0721H16.1289H16.0619Z" fill="#CCEFFE"/>
<path d="M32.0048 35.7229C32.1388 35.7229 32.2727 35.8569 32.2727 35.9909L32.9426 37.7325C32.9426 38.0674 32.6077 38.4023 32.2727 38.4023H16.0622C15.8846 38.4023 15.7142 38.3318 15.5886 38.2062C15.4629 38.0805 15.3924 37.9101 15.3924 37.7325L16.0622 35.9909C16.0622 35.8569 16.1962 35.7899 16.3302 35.7899H32.0048M32.0048 34.4502H16.3302C15.5933 34.4502 14.9904 34.9191 14.7895 35.6559L14.1196 37.1966V37.7325C14.1196 38.2655 14.3314 38.7766 14.7082 39.1535C15.0851 39.5303 15.5962 39.7421 16.1292 39.7421H32.2058C32.7387 39.7421 33.2499 39.5303 33.6267 39.1535C34.0036 38.7766 34.2153 38.2655 34.2153 37.7325V37.1966L33.5455 35.6559C33.4115 34.9861 32.7416 34.4502 32.0048 34.4502Z" fill="#223948"/>
<path d="M16.4643 25.541C16.0624 25.541 15.7944 25.3401 15.5265 25.1391L5.21068 19.7133C4.77853 19.4719 4.41589 19.1231 4.15776 18.7007C3.89963 18.2783 3.75471 17.7965 3.737 17.3018L3.60303 12.1439V10.9382C3.60288 10.6685 3.65699 10.4016 3.76214 10.1534C3.8673 9.90507 4.02134 9.68049 4.2151 9.49298C4.40886 9.30547 4.63837 9.15887 4.88997 9.06191C5.14156 8.96495 5.4101 8.91962 5.67958 8.92861H16.3303C16.8633 8.92861 17.3744 9.14033 17.7513 9.5172C18.1281 9.89406 18.3399 10.4052 18.3399 10.9382V11.541C18.3399 12.3449 17.938 12.6128 17.67 12.7468C17.3096 12.8959 16.9209 12.9644 16.5313 12.9477H7.82312C7.75614 12.9477 7.62217 12.9477 7.62217 13.0817V16.297L16.2633 20.6511C16.9332 21.053 17.1341 21.8568 16.9332 22.5267L17.603 24.6702L17.4021 24.9382C17.1341 25.4071 16.7322 25.541 16.4643 25.541Z" fill="white"/>
<path d="M16.4643 25.541C16.0624 25.541 15.7944 25.3401 15.5265 25.1391L5.21068 19.7133C4.77853 19.4719 4.41589 19.1231 4.15776 18.7007C3.89963 18.2783 3.75471 17.7965 3.737 17.3018L3.60303 12.1439V10.9382C3.60288 10.6685 3.65699 10.4016 3.76214 10.1534C3.8673 9.90507 4.02134 9.68049 4.2151 9.49298C4.40886 9.30547 4.63837 9.15887 4.88997 9.06191C5.14156 8.96495 5.4101 8.91962 5.67958 8.92861H16.3303C16.8633 8.92861 17.3744 9.14033 17.7513 9.5172C18.1281 9.89406 18.3399 10.4052 18.3399 10.9382V11.541C18.3399 12.3449 17.938 12.6128 17.67 12.7468C17.3096 12.8959 16.9209 12.9644 16.5313 12.9477H7.82312C7.75614 12.9477 7.62217 12.9477 7.62217 13.0817V16.297L16.2633 20.6511C16.9332 21.053 17.1341 21.8568 16.9332 22.5267L17.603 24.6702L17.4021 24.9382C17.1341 25.4071 16.7322 25.541 16.4643 25.541Z" fill="url(#paint0_linear_221_1185)"/>
<path d="M16.2632 9.59838C17.067 9.59838 17.6699 10.2682 17.6699 11.0051V11.6079C17.6699 12.2778 17.201 12.2778 16.5311 12.2778H7.82297C7.35407 12.2778 6.95215 12.6797 6.95215 13.1486V16.4979C6.95215 16.6319 7.08612 16.7658 7.2201 16.8998L15.9282 21.1869C16.3301 21.4548 16.4641 22.0577 16.1962 22.4596L16.866 24.6032C16.7321 24.8041 16.5981 24.8711 16.4641 24.8711C16.2632 24.8711 16.0622 24.7371 15.8612 24.6032L5.54545 19.1103C4.8756 18.7084 4.47368 18.0386 4.4067 17.3017L4.27273 12.0768V11.0051C4.27273 10.2682 4.94258 9.66537 5.67943 9.66537H16.3301M16.3301 8.32565H5.67943C4.9688 8.32565 4.28728 8.60795 3.78479 9.11044C3.2823 9.61293 3 10.2945 3 11.0051V12.0768L3.06699 17.3017C3.06699 18.5075 3.73684 19.6462 4.8756 20.2491L15.1914 25.7419C15.5263 26.0099 15.9282 26.2108 16.4641 26.2108C16.799 26.2108 17.4689 26.0768 18.0048 25.34L18.3397 24.8041L18.1388 24.1343L17.6029 22.5266C17.8038 21.5888 17.4689 20.651 16.6651 20.1151L16.5981 20.0481H16.5311L8.22488 15.895V13.6175H16.5311C17.4689 13.6175 19.0096 13.3496 19.0096 11.541V10.9381C19.0096 10.2275 18.7273 9.54594 18.2248 9.04345C17.7223 8.54096 17.0408 8.25867 16.3301 8.25867V8.32565Z" fill="#223948"/>
<path d="M31.4693 25.5412C31.2013 25.5412 30.7994 25.4072 30.5315 24.9383L30.3305 24.6703L31.0004 22.5268C30.7994 21.8569 31.0004 21.0531 31.6702 20.6512L40.3783 16.2971V13.0818L40.1774 12.9478H31.4693C30.9334 12.9478 29.6606 12.9478 29.6606 11.5412V10.9383C29.6606 10.4053 29.8724 9.89417 30.2492 9.5173C30.6261 9.14043 31.1372 8.92871 31.6702 8.92871H42.3209C42.8539 8.92871 43.365 9.14043 43.7419 9.5173C44.1188 9.89417 44.3305 10.4053 44.3305 10.9383V12.0101L44.2635 17.2349C44.2635 18.2397 43.6606 19.1105 42.7898 19.6464L32.474 25.1392C32.2061 25.2732 31.8712 25.4742 31.5362 25.4742L31.4693 25.5412Z" fill="white"/>
<path d="M31.4693 25.5412C31.2013 25.5412 30.7994 25.4072 30.5315 24.9383L30.3305 24.6703L31.0004 22.5268C30.7994 21.8569 31.0004 21.0531 31.6702 20.6512L40.3783 16.2971V13.0818L40.1774 12.9478H31.4693C30.9334 12.9478 29.6606 12.9478 29.6606 11.5412V10.9383C29.6606 10.4053 29.8724 9.89417 30.2492 9.5173C30.6261 9.14043 31.1372 8.92871 31.6702 8.92871H42.3209C42.8539 8.92871 43.365 9.14043 43.7419 9.5173C44.1188 9.89417 44.3305 10.4053 44.3305 10.9383V12.0101L44.2635 17.2349C44.2635 18.2397 43.6606 19.1105 42.7898 19.6464L32.474 25.1392C32.2061 25.2732 31.8712 25.4742 31.5362 25.4742L31.4693 25.5412Z" fill="url(#paint1_linear_221_1185)"/>
<path d="M42.2535 9.59848C42.9903 9.59848 43.5932 10.2683 43.5932 11.0052V12.077L43.5262 17.3018C43.5262 18.0387 43.0573 18.7085 42.3875 19.1104L32.0717 24.6033C31.8707 24.7372 31.6698 24.8712 31.4688 24.8712C31.3348 24.8712 31.2008 24.8042 31.0669 24.6033L31.7367 22.4597C31.4688 22.0578 31.6028 21.4549 32.0047 21.187L40.7128 16.8999C40.8468 16.7659 40.9808 16.632 40.9808 16.498V13.1487C40.9808 12.6798 40.5788 12.3449 40.1099 12.3449H31.4688C30.7989 12.3449 30.33 12.3449 30.33 11.6081V10.9382C30.33 10.2014 30.9329 9.59848 31.6698 9.59848H42.3205M42.3205 8.25877H31.6028C30.8921 8.25877 30.2106 8.54107 29.7081 9.04356C29.2056 9.54605 28.9233 10.2276 28.9233 10.9382V11.5411C28.9233 13.3497 30.464 13.5506 31.4018 13.5506H39.641V15.8951L31.4018 19.9143V19.9813H31.2678C30.8647 20.2376 30.5554 20.6176 30.3864 21.0644C30.2173 21.5112 30.1976 22.0007 30.33 22.4597L29.7942 24.1344L29.5932 24.7372L29.9281 25.2731C30.0888 25.5381 30.3149 25.7574 30.5847 25.9098C30.8545 26.0623 31.1589 26.1429 31.4688 26.1439C32.0047 26.1439 32.4066 25.943 32.7415 25.675L43.0573 20.3162C44.1291 19.6463 44.7989 18.5076 44.8659 17.3018L44.9999 12.1439V10.9382C45 10.5806 44.9285 10.2266 44.7897 9.89711C44.6509 9.56759 44.4475 9.26918 44.1916 9.01948C43.9356 8.76977 43.6323 8.57382 43.2994 8.44318C42.9666 8.31253 42.6109 8.24983 42.2535 8.25877H42.3205Z" fill="#223948"/>
<path d="M18.0047 31.3688L18.2057 30.498L18.6076 29.2923C18.7415 28.9573 18.7415 28.9573 18.6076 28.4214L18.4736 27.9525C16.1218 26.5803 14.1836 24.5991 12.8633 22.2178C11.5429 19.8365 10.8893 17.1431 10.9712 14.4214V10.6702C10.9712 9.73245 11.775 8.99561 12.6459 8.99561H35.086C36.0238 8.99561 36.7607 9.73245 36.7607 10.6702V14.4214C36.7607 20.2492 33.8803 25.5411 29.2583 27.9525L29.1913 28.4214C29.0573 28.9573 29.0573 28.9573 29.1913 29.2923L29.5932 30.498L29.7942 31.3688H18.0047Z" fill="white"/>
<path d="M18.0047 31.3688L18.2057 30.498L18.6076 29.2923C18.7415 28.9573 18.7415 28.9573 18.6076 28.4214L18.4736 27.9525C16.1218 26.5803 14.1836 24.5991 12.8633 22.2178C11.5429 19.8365 10.8893 17.1431 10.9712 14.4214V10.6702C10.9712 9.73245 11.775 8.99561 12.6459 8.99561H35.086C36.0238 8.99561 36.7607 9.73245 36.7607 10.6702V14.4214C36.7607 20.2492 33.8803 25.5411 29.2583 27.9525L29.1913 28.4214C29.0573 28.9573 29.0573 28.9573 29.1913 29.2923L29.5932 30.498L29.7942 31.3688H18.0047Z" fill="url(#paint2_linear_221_1185)"/>
<path d="M12.6458 9.59853H35.086C35.6888 9.59853 36.0907 10.0674 36.0907 10.6703V14.4215C36.0907 20.3162 33.0764 25.3402 28.7223 27.4837C28.2534 29.6942 28.3204 28.4885 28.9233 30.699H18.8754C19.4783 28.4885 19.5453 29.6942 19.0764 27.4837C16.767 26.1932 14.8576 24.2916 13.5578 21.9874C12.258 19.6832 11.618 17.0655 11.708 14.4215V10.6703C11.708 10.0674 12.1099 9.66552 12.6458 9.66552M12.6458 8.32581C12.024 8.32581 11.4276 8.57281 10.988 9.01249C10.5483 9.45217 10.3013 10.0485 10.3013 10.6703V14.4215C10.3013 20.4502 13.2486 25.8091 17.8706 28.3545V28.5555L18.0046 28.9574V29.0244L17.6027 30.3641L17.1338 32.0387H30.6649L30.196 30.3641L29.7941 29.0244V28.6225L29.8611 28.4215C34.5501 25.876 37.4305 20.4502 37.4305 14.4885V10.7373C37.4305 9.39758 36.4257 8.39279 35.1529 8.39279H12.7128L12.6458 8.32581Z" fill="#223948"/>
<path d="M18.0042 32.7085C17.8443 32.7085 17.691 32.645 17.5779 32.532C17.4649 32.4189 17.4014 32.2656 17.4014 32.1057V31.0339C17.4014 30.699 17.6693 30.431 18.0712 30.431H30.3296C30.6645 30.431 30.9325 30.699 30.9325 31.0339V32.1727C30.9325 32.5076 30.6645 32.7755 30.3296 32.7755H18.0042V32.7085Z" fill="white"/>
<path d="M18.0042 32.7085C17.8443 32.7085 17.691 32.645 17.5779 32.532C17.4649 32.4189 17.4014 32.2656 17.4014 32.1057V31.0339C17.4014 30.699 17.6693 30.431 18.0712 30.431H30.3296C30.6645 30.431 30.9325 30.699 30.9325 31.0339V32.1727C30.9325 32.5076 30.6645 32.7755 30.3296 32.7755H18.0042V32.7085Z" fill="url(#paint3_linear_221_1185)"/>
<path d="M30.3301 30.6989C30.464 30.6989 30.598 30.8329 30.598 30.9669V32.1056C30.598 32.2396 30.464 32.3736 30.3301 32.3736H18.0047C17.9336 32.3736 17.8655 32.3454 17.8152 32.2951C17.765 32.2449 17.7368 32.1767 17.7368 32.1056V31.0339C17.7368 30.8999 17.8707 30.7659 18.0047 30.7659H30.3301M30.3301 30.0961H18.0047C17.5358 30.0961 17.0669 30.498 17.0669 31.0339V32.1726C17.0669 32.7085 17.5358 33.1104 18.0047 33.1104H30.3301C30.8659 33.1104 31.2679 32.7085 31.2679 32.1726V31.0339C31.2679 30.498 30.8659 30.0961 30.3301 30.0961Z" fill="#223948"/>
<path d="M17.3353 35.5889C16.7994 35.5889 16.3975 35.187 16.3975 34.7181V33.2444C16.3975 32.7086 16.7994 32.3066 17.3353 32.3066H31.0003C31.5362 32.3066 31.9381 32.7086 31.9381 33.2444V34.7181C31.9381 35.187 31.5362 35.5889 31.0003 35.5889H17.3353Z" fill="white"/>
<path d="M17.3353 35.5889C16.7994 35.5889 16.3975 35.187 16.3975 34.7181V33.2444C16.3975 32.7086 16.7994 32.3066 17.3353 32.3066H31.0003C31.5362 32.3066 31.9381 32.7086 31.9381 33.2444V34.7181C31.9381 35.187 31.5362 35.5889 31.0003 35.5889H17.3353Z" fill="url(#paint4_linear_221_1185)"/>
<path d="M31.0003 32.6417C31.3352 32.6417 31.6032 32.9096 31.6032 33.2445V34.7182C31.6032 34.9862 31.3352 35.2541 31.0003 35.2541H17.3352C17.2594 35.2636 17.1825 35.2569 17.1095 35.2343C17.0366 35.2116 16.9693 35.1737 16.9122 35.1229C16.8551 35.0722 16.8095 35.0098 16.7785 34.94C16.7475 34.8702 16.7318 34.7946 16.7324 34.7182V33.2445C16.7324 32.9096 17.0003 32.6417 17.3352 32.6417H31.0003ZM31.0003 31.9718H17.3352C16.6654 31.9718 16.0625 32.5747 16.0625 33.2445V34.7182C16.0625 35.3881 16.6654 35.924 17.3352 35.924H31.0003C31.6702 35.924 32.273 35.3881 32.273 34.7182V33.2445C32.273 32.5747 31.6702 31.9718 31.0003 31.9718Z" fill="#223948"/>
<path d="M16.0624 38.6703C15.5265 38.6703 15.0576 38.2684 15.0576 37.7325V37.6655L15.7275 35.9239C15.7945 35.6559 16.0624 35.455 16.3973 35.455H32.005C32.2729 35.455 32.5409 35.6559 32.6079 35.9239L33.2777 37.6655C33.2777 38.2684 32.8088 38.6703 32.2729 38.6703H16.0624Z" fill="white"/>
<path d="M16.0624 38.6703C15.5265 38.6703 15.0576 38.2684 15.0576 37.7325V37.6655L15.7275 35.9239C15.7945 35.6559 16.0624 35.455 16.3973 35.455H32.005C32.2729 35.455 32.5409 35.6559 32.6079 35.9239L33.2777 37.6655C33.2777 38.2684 32.8088 38.6703 32.2729 38.6703H16.0624Z" fill="url(#paint5_linear_221_1185)"/>
<path d="M32.0049 35.7229C32.1388 35.7229 32.2728 35.8568 32.2728 35.9908L32.9427 37.7324C32.9427 38.0674 32.6077 38.4023 32.2728 38.4023H16.0623C15.8846 38.4023 15.7142 38.3317 15.5886 38.2061C15.463 38.0805 15.3924 37.9101 15.3924 37.7324L16.0623 35.9908C16.0623 35.8568 16.1963 35.7899 16.3302 35.7899H32.0049M32.0049 35.12H16.3302C15.8613 35.12 15.5264 35.3879 15.4594 35.7899L14.7896 37.4645V37.7324C14.7896 38.4023 15.3254 39.0721 16.1293 39.0721H32.2058C33.0096 39.0721 33.5455 38.4023 33.5455 37.7324V37.4645L32.8757 35.8568C32.8757 35.3879 32.4738 35.12 32.0049 35.12Z" fill="#223948"/>
<path d="M28.3208 25.4071C28.2324 25.4252 28.1413 25.4252 28.0529 25.4071L23.8998 22.8617L19.7467 25.3402C19.6381 25.4045 19.5136 25.4368 19.3874 25.4335C19.2613 25.4302 19.1386 25.3912 19.0336 25.3212C18.9286 25.2512 18.8455 25.153 18.7939 25.0378C18.7423 24.9227 18.7243 24.7953 18.7419 24.6703L19.6127 20.0483L16.3974 16.498C16.317 16.4087 16.2622 16.2993 16.2386 16.1815C16.215 16.0636 16.2236 15.9416 16.2634 15.8282C16.2634 15.6272 16.5314 15.4263 16.7993 15.4263H21.2873L23.2969 10.8043C23.3518 10.691 23.4374 10.5955 23.544 10.5287C23.6507 10.4618 23.7739 10.4264 23.8998 10.4264C24.0256 10.4264 24.1489 10.4618 24.2555 10.5287C24.3622 10.5955 24.4478 10.691 24.5026 10.8043L26.5122 15.4263H31.2682C31.6031 15.4263 31.8041 15.6272 31.8711 15.8952C31.9381 16.0961 31.8711 16.3641 31.6701 16.565L28.1869 20.0483L28.9907 24.6703C29.0001 24.7637 28.9897 24.8581 28.9603 24.9473C28.9309 25.0364 28.883 25.1184 28.8198 25.1879C28.7567 25.2574 28.6796 25.3128 28.5936 25.3506C28.5077 25.3883 28.4147 25.4076 28.3208 25.4071Z" fill="white"/>
<path d="M23.8997 10.8043C24.0337 10.8043 24.1007 10.8043 24.1677 10.9382L26.2442 15.6272L26.5122 15.7612H31.2682C31.5361 15.7612 31.6701 16.0961 31.4691 16.2971L27.9859 19.8473C27.8519 19.8473 27.8519 19.9813 27.8519 20.1153L28.6557 24.7373C28.6557 24.9382 28.5217 25.0722 28.3208 25.0722H28.1868L24.0337 22.5937C23.9914 22.5753 23.9458 22.5658 23.8997 22.5658C23.8536 22.5658 23.808 22.5753 23.7658 22.5937L19.6127 25.0052H19.4787C19.3898 25.0052 19.3047 24.9699 19.2418 24.9071C19.179 24.8443 19.1438 24.7591 19.1438 24.6703L19.9476 20.0483C19.9476 19.9143 19.9476 19.8473 19.8136 19.7803L16.6653 16.2971C16.6292 16.2564 16.6036 16.2075 16.5907 16.1546C16.5778 16.1018 16.578 16.0466 16.5911 15.9939C16.6043 15.9411 16.6302 15.8923 16.6664 15.8518C16.7027 15.8113 16.7483 15.7802 16.7993 15.7612H21.2873C21.4213 15.7612 21.4882 15.6942 21.5552 15.5602L23.5648 11.0052C23.6318 10.8712 23.7658 10.8043 23.8997 10.8043ZM23.8997 10.1344C23.4978 10.1344 23.2299 10.3354 23.0289 10.6703L21.0193 15.0913H16.7323C16.3304 15.0913 16.0624 15.4263 15.9284 15.7612C15.7945 16.0961 15.9284 16.498 16.1294 16.766L19.2107 20.1153L18.4739 24.6033C18.4739 24.8712 18.4739 25.2062 18.6749 25.4071C18.8208 25.5954 19.0289 25.7257 19.262 25.7748C19.4951 25.8239 19.7381 25.7885 19.9476 25.6751L23.8997 23.2636L27.8519 25.6081C27.9859 25.7421 28.1868 25.7421 28.3208 25.7421C28.4648 25.7433 28.6074 25.7137 28.739 25.655C28.8705 25.5963 28.9879 25.5101 29.0832 25.4021C29.1785 25.2941 29.2494 25.1669 29.2913 25.0291C29.3331 24.8912 29.3448 24.746 29.3256 24.6033L28.5217 20.1822L31.938 16.833C32.206 16.498 32.2729 16.1631 32.206 15.7612C32.139 15.3593 31.7371 15.0913 31.4021 15.0913H26.7801L24.7705 10.6703C24.6366 10.3354 24.3016 10.1344 23.8997 10.1344Z" fill="#223948"/>
<defs>
<linearGradient id="paint0_linear_221_1185" x1="16.0512" y1="15.2932" x2="7.72825" y2="22.9814" gradientUnits="userSpaceOnUse">
<stop offset="0.1" stop-color="#70ABF1"/>
<stop offset="0.2" stop-color="#8CBEF5"/>
<stop offset="0.4" stop-color="#AAD1F9"/>
<stop offset="0.6" stop-color="#C0E0FC"/>
<stop offset="0.7" stop-color="#CDE8FE"/>
<stop offset="0.9" stop-color="#D1EBFF"/>
</linearGradient>
<linearGradient id="paint1_linear_221_1185" x1="42.0522" y1="15.294" x2="33.7329" y2="22.9444" gradientUnits="userSpaceOnUse">
<stop offset="0.1" stop-color="#70ABF1"/>
<stop offset="0.2" stop-color="#8CBEF5"/>
<stop offset="0.4" stop-color="#AAD1F9"/>
<stop offset="0.6" stop-color="#C0E0FC"/>
<stop offset="0.7" stop-color="#CDE8FE"/>
<stop offset="0.9" stop-color="#D1EBFF"/>
</linearGradient>
<linearGradient id="paint2_linear_221_1185" x1="32.7543" y1="17.5682" x2="21.6963" y2="30.8456" gradientUnits="userSpaceOnUse">
<stop offset="0.1" stop-color="#70ABF1"/>
<stop offset="0.2" stop-color="#8CBEF5"/>
<stop offset="0.4" stop-color="#AAD1F9"/>
<stop offset="0.6" stop-color="#C0E0FC"/>
<stop offset="0.7" stop-color="#CDE8FE"/>
<stop offset="0.9" stop-color="#D1EBFF"/>
</linearGradient>
<linearGradient id="paint3_linear_221_1185" x1="28.831" y1="31.3294" x2="28.4495" y2="33.6223" gradientUnits="userSpaceOnUse">
<stop offset="0.1" stop-color="#70ABF1"/>
<stop offset="0.2" stop-color="#8CBEF5"/>
<stop offset="0.4" stop-color="#AAD1F9"/>
<stop offset="0.6" stop-color="#C0E0FC"/>
<stop offset="0.7" stop-color="#CDE8FE"/>
<stop offset="0.9" stop-color="#D1EBFF"/>
</linearGradient>
<linearGradient id="paint4_linear_221_1185" x1="29.5246" y1="33.5643" x2="28.8819" y2="36.733" gradientUnits="userSpaceOnUse">
<stop offset="0.1" stop-color="#70ABF1"/>
<stop offset="0.2" stop-color="#8CBEF5"/>
<stop offset="0.4" stop-color="#AAD1F9"/>
<stop offset="0.6" stop-color="#C0E0FC"/>
<stop offset="0.7" stop-color="#CDE8FE"/>
<stop offset="0.9" stop-color="#D1EBFF"/>
</linearGradient>
<linearGradient id="paint5_linear_221_1185" x1="30.448" y1="36.687" x2="29.9157" y2="39.8284" gradientUnits="userSpaceOnUse">
<stop offset="0.1" stop-color="#70ABF1"/>
<stop offset="0.2" stop-color="#8CBEF5"/>
<stop offset="0.4" stop-color="#AAD1F9"/>
<stop offset="0.6" stop-color="#C0E0FC"/>
<stop offset="0.7" stop-color="#CDE8FE"/>
<stop offset="0.9" stop-color="#D1EBFF"/>
</linearGradient>
</defs>
</svg>
