<svg width="48" height="48" viewBox="0 0 48 48" fill="none" xmlns="http://www.w3.org/2000/svg">
<path d="M24.9805 33.9921C24.4622 33.9921 24.0405 33.5693 24.0405 33.0494V13.9518C24.0405 13.7716 24.0914 13.596 24.1887 13.4438C24.6426 12.7353 26.3732 11.0919 32.6415 11.0919C39.1976 11.0919 40.6933 12.9456 40.9958 13.5136C41.0538 13.6234 41.0894 13.7426 41.1004 13.8693L42.7484 32.8078C42.7715 33.0699 42.6826 33.3323 42.5048 33.5261C42.3272 33.7202 42.0744 33.8318 41.8118 33.8318C41.6908 33.8318 41.5723 33.8085 41.4593 33.7626C40.4746 33.3663 36.95 32.0706 32.9623 32.0706C29.4167 32.0706 26.271 33.4681 25.3913 33.8967C25.2639 33.9592 25.1218 33.9921 24.9805 33.9921Z" fill="#CCEFFE" stroke="#223948" stroke-width="1.3042"/>
<path d="M22.9719 34.0992C22.8306 34.0992 22.6888 34.0663 22.5614 34.0039C21.6812 33.5754 18.5355 32.1781 14.9897 32.1781C11.0019 32.1781 7.4776 33.4731 6.49241 33.8702C6.37985 33.9156 6.26135 33.9389 6.14012 33.9389C5.87778 33.9389 5.62526 33.8275 5.44717 33.6332C5.26954 33.4395 5.18073 33.1772 5.20379 32.9149L6.85155 13.9778C6.86297 13.849 6.89881 13.7287 6.95749 13.6186C7.25841 13.0529 8.75389 11.1989 15.3105 11.1989C21.5794 11.1989 23.3094 12.8426 23.7628 13.549C23.8598 13.7013 23.9119 13.8775 23.9119 14.0584V33.1555C23.9119 33.4115 23.8119 33.6503 23.6304 33.8288C23.453 34.0033 23.2192 34.0992 22.9719 34.0992Z" fill="#CCEFFE" stroke="#223948" stroke-width="1.3042"/>
<path d="M40.9693 36.9075L40.8561 36.8709C40.8033 36.8543 35.5783 35.1963 32.9113 35.1963C30.2443 35.1963 25.0193 36.8543 24.9668 36.8709L24.8533 36.9075H24.735C24.2128 36.908 23.7876 36.9075 23.2651 36.9075H23.1466L23.0332 36.8709C22.9804 36.8543 17.7554 35.1963 15.0886 35.1963C12.4214 35.1963 7.19615 36.8543 7.14386 36.8709L7.03039 36.9075H6.91143C5.96825 36.9075 5.2002 36.1394 5.2002 35.1961C5.2002 34.2539 6.27055 33.6991 6.59864 33.5518C6.81714 33.4653 11.1817 31.7731 15.0886 31.7731C18.9956 31.7731 23.3599 33.4653 23.5439 33.5367L23.5836 33.5539C23.6165 33.5692 23.7891 33.65 24.0001 33.7849C24.2104 33.6502 24.3834 33.5692 24.4163 33.5539L24.4565 33.5367C24.6403 33.4653 29.0048 31.7731 32.9115 31.7731C36.8183 31.7731 41.1828 33.4653 41.3668 33.5367C41.7296 33.6991 42.8002 34.2536 42.8002 35.1961C42.8002 36.1394 42.0321 36.9075 41.0885 36.9075H40.9693Z" fill="#CCEFFE" stroke="#223948" stroke-width="1.3042"/>
</svg>
