<svg width="128" height="128" viewBox="0 0 128 128" fill="none" xmlns="http://www.w3.org/2000/svg">
<path fill-rule="evenodd" clip-rule="evenodd" d="M106.272 21.426V26.8519L95.9534 27.0189C86.1162 27.1781 85.4766 27.2347 82.2449 28.2299C75.8933 30.1854 70.1631 33.7151 66.0831 38.185C64.9555 39.4201 61.8978 43.2753 59.2878 46.752C56.6779 50.2287 54.4012 53.0732 54.2284 53.0732C54.056 53.0732 52.5616 51.0978 50.9083 48.6829C42.7341 36.745 40.204 34.1405 33.5681 30.8308C26.4569 27.2839 21.5626 26.4484 8.87207 26.615L0 26.7317V34.3415V41.9512L12.5366 42.1573C23.2514 42.3333 25.3236 42.4624 26.7964 43.0478C28.9696 43.9114 31.394 45.3432 33.0049 46.7141C34.7824 48.2275 46.1572 63.6663 45.9319 64.2599C45.5222 65.3405 34.159 80.3032 32.9976 81.2921C31.3936 82.6572 28.9666 84.0901 26.7964 84.9522C25.3236 85.5376 23.2514 85.6667 12.5366 85.8427L0 86.0488V93.6585V101.268H10.415C19.0526 101.268 21.3886 101.147 24.1027 100.555C30.8143 99.0923 37.4386 95.7366 41.3956 91.7955C43.7359 89.465 45.8489 86.6919 50.9049 79.3171C52.5601 76.9026 54.056 74.9268 54.2284 74.9268C54.4012 74.9268 56.6779 77.7713 59.2878 81.248C61.8978 84.7247 64.9613 88.5861 66.0954 89.8287C70.219 94.3461 75.8138 97.79 82.2472 99.7709C85.4763 100.765 86.1181 100.822 95.9534 100.981L106.272 101.148V106.574C106.272 109.558 106.356 112 106.46 112C106.609 112 126.785 95.5493 127.997 94.4394C128.269 94.1908 107.079 76.878 106.503 76.878C106.388 76.878 106.246 79.2051 106.187 82.0488L106.079 87.2195L96.6284 87.2191C87.9481 87.2187 86.9563 87.1481 84.4614 86.3547C80.8643 85.2101 77.5928 83.0154 74.9304 79.9602C71.9895 76.5858 62.2974 64.3407 62.2974 64C62.2974 63.6593 71.9895 51.4142 74.9304 48.0398C77.5928 44.9846 80.8643 42.7899 84.4614 41.6453C86.9563 40.8519 87.9481 40.7813 96.6284 40.7809L106.079 40.7805L106.186 46.1323L106.294 51.4837L117.302 42.6654C123.357 37.815 128.169 33.7249 127.995 33.5758C125.041 31.0334 106.645 16 106.489 16C106.37 16 106.272 18.4418 106.272 21.426Z" fill="white"/>
</svg>
