<svg width="25" height="24" viewBox="0 0 25 24" fill="none" xmlns="http://www.w3.org/2000/svg">
<path d="M15.4912 4.7305C15.7318 5.75049 16.6477 6.51033 17.7414 6.51033C19.0183 6.51033 20.0535 5.47517 20.0535 4.19828C20.0535 2.9214 19.0183 1.88623 17.7414 1.88623C16.625 1.88623 15.6939 2.67751 15.4771 3.73002C13.6073 3.93055 12.1472 5.51636 12.1472 7.43819C12.1472 7.44252 12.1472 7.44578 12.1472 7.45011C10.1137 7.53574 8.25693 8.11457 6.78277 9.02833C6.23538 8.60451 5.54816 8.35195 4.80241 8.35195C3.01282 8.35195 1.5625 9.80227 1.5625 11.5919C1.5625 12.8904 2.3256 14.0091 3.42797 14.5261C3.53528 18.2874 7.63367 21.3127 12.6751 21.3127C17.7165 21.3127 21.8203 18.2841 21.9222 14.5196C23.0159 13.9993 23.7725 12.8839 23.7725 11.5929C23.7725 9.80335 22.3222 8.35304 20.5326 8.35304C19.7901 8.35304 19.1061 8.60343 18.5598 9.024C17.0726 8.10373 15.1953 7.5249 13.1412 7.44794C13.1412 7.44469 13.1412 7.44252 13.1412 7.43927C13.1412 6.06266 14.1644 4.92019 15.4912 4.73267V4.7305ZM6.6527 13.6481C6.7069 12.4731 7.48733 11.5713 8.3946 11.5713C9.30186 11.5713 9.99558 12.5241 9.94138 13.699C9.88718 14.874 9.20972 15.3011 8.30138 15.3011C7.39303 15.3011 6.5985 14.8231 6.6527 13.6481ZM16.9567 11.5713C17.865 11.5713 18.6454 12.4731 18.6986 13.6481C18.7528 14.8231 17.9571 15.3011 17.0499 15.3011C16.1426 15.3011 15.4641 14.8751 15.4099 13.699C15.3557 12.5241 16.0483 11.5713 16.9567 11.5713ZM15.8771 16.3666C16.0472 16.384 16.1556 16.5607 16.0895 16.7189C15.5313 18.0532 14.2132 18.9909 12.6751 18.9909C11.137 18.9909 9.81998 18.0532 9.26067 16.7189C9.19455 16.5607 9.30294 16.384 9.47312 16.3666C10.4703 16.2658 11.5489 16.2105 12.6751 16.2105C13.8013 16.2105 14.8787 16.2658 15.8771 16.3666Z" fill="white"/>
</svg>
