<svg width="24" height="24" viewBox="0 0 24 24" fill="none" xmlns="http://www.w3.org/2000/svg">
<g clip-path="url(#clip0_96_201)">
<path d="M12.0018 2.16094C15.2081 2.16094 15.5878 2.175 16.8487 2.23125C18.0206 2.28281 18.6534 2.47969 19.0753 2.64375C19.6331 2.85938 20.0362 3.12188 20.4534 3.53906C20.8753 3.96094 21.1331 4.35938 21.3487 4.91719C21.5128 5.33906 21.7096 5.97656 21.7612 7.14375C21.8175 8.40937 21.8315 8.78906 21.8315 11.9906C21.8315 15.1969 21.8175 15.5766 21.7612 16.8375C21.7096 18.0094 21.5128 18.6422 21.3487 19.0641C21.1331 19.6219 20.8706 20.025 20.4534 20.4422C20.0315 20.8641 19.6331 21.1219 19.0753 21.3375C18.6534 21.5016 18.0159 21.6984 16.8487 21.75C15.5831 21.8063 15.2034 21.8203 12.0018 21.8203C8.79558 21.8203 8.41589 21.8063 7.15496 21.75C5.98308 21.6984 5.35027 21.5016 4.92839 21.3375C4.37058 21.1219 3.96746 20.8594 3.55027 20.4422C3.12839 20.0203 2.87058 19.6219 2.65496 19.0641C2.49089 18.6422 2.29402 18.0047 2.24246 16.8375C2.18621 15.5719 2.17214 15.1922 2.17214 11.9906C2.17214 8.78438 2.18621 8.40469 2.24246 7.14375C2.29402 5.97187 2.49089 5.33906 2.65496 4.91719C2.87058 4.35938 3.13308 3.95625 3.55027 3.53906C3.97214 3.11719 4.37058 2.85938 4.92839 2.64375C5.35027 2.47969 5.98777 2.28281 7.15496 2.23125C8.41589 2.175 8.79558 2.16094 12.0018 2.16094ZM12.0018 0C8.74402 0 8.33621 0.0140625 7.05652 0.0703125C5.78152 0.126563 4.90496 0.332812 4.14558 0.628125C3.35339 0.9375 2.68308 1.34531 2.01746 2.01562C1.34714 2.68125 0.939331 3.35156 0.629956 4.13906C0.334644 4.90313 0.128394 5.775 0.0721436 7.05C0.0158936 8.33437 0.00183105 8.74219 0.00183105 12C0.00183105 15.2578 0.0158936 15.6656 0.0721436 16.9453C0.128394 18.2203 0.334644 19.0969 0.629956 19.8563C0.939331 20.6484 1.34714 21.3188 2.01746 21.9844C2.68308 22.65 3.35339 23.0625 4.14089 23.3672C4.90496 23.6625 5.77683 23.8687 7.05183 23.925C8.33152 23.9812 8.73933 23.9953 11.9971 23.9953C15.255 23.9953 15.6628 23.9812 16.9425 23.925C18.2175 23.8687 19.094 23.6625 19.8534 23.3672C20.6409 23.0625 21.3112 22.65 21.9768 21.9844C22.6425 21.3188 23.055 20.6484 23.3596 19.8609C23.655 19.0969 23.8612 18.225 23.9175 16.95C23.9737 15.6703 23.9878 15.2625 23.9878 12.0047C23.9878 8.74688 23.9737 8.33906 23.9175 7.05938C23.8612 5.78438 23.655 4.90781 23.3596 4.14844C23.0643 3.35156 22.6565 2.68125 21.9862 2.01562C21.3206 1.35 20.6503 0.9375 19.8628 0.632812C19.0987 0.3375 18.2268 0.13125 16.9518 0.075C15.6675 0.0140625 15.2596 0 12.0018 0Z" fill="white"/>
<path d="M12.0018 5.83594C8.59871 5.83594 5.83777 8.59688 5.83777 12C5.83777 15.4031 8.59871 18.1641 12.0018 18.1641C15.405 18.1641 18.1659 15.4031 18.1659 12C18.1659 8.59688 15.405 5.83594 12.0018 5.83594ZM12.0018 15.9984C9.79402 15.9984 8.00339 14.2078 8.00339 12C8.00339 9.79219 9.79402 8.00156 12.0018 8.00156C14.2096 8.00156 16.0003 9.79219 16.0003 12C16.0003 14.2078 14.2096 15.9984 12.0018 15.9984Z" fill="white"/>
<path d="M19.8487 5.59238C19.8487 6.38926 19.2018 7.03145 18.4096 7.03145C17.6128 7.03145 16.9706 6.38457 16.9706 5.59238C16.9706 4.79551 17.6175 4.15332 18.4096 4.15332C19.2018 4.15332 19.8487 4.8002 19.8487 5.59238Z" fill="white"/>
</g>
<defs>
<clipPath id="clip0_96_201">
<rect width="24" height="24" fill="white" transform="translate(0.00183105)"/>
</clipPath>
</defs>
</svg>
