<svg width="25" height="24" viewBox="0 0 25 24" fill="none" xmlns="http://www.w3.org/2000/svg">
<g clip-path="url(#clip0_96_200)">
<path d="M12.3352 0C5.70784 0 0.335205 5.37264 0.335205 12C0.335205 17.6275 4.20977 22.3498 9.43649 23.6467V15.6672H6.96209V12H9.43649V10.4198C9.43649 6.33552 11.285 4.4424 15.2949 4.4424C16.0552 4.4424 17.367 4.59168 17.9037 4.74048V8.06448C17.6205 8.03472 17.1285 8.01984 16.5174 8.01984C14.5499 8.01984 13.7896 8.76528 13.7896 10.703V12H17.7093L17.0358 15.6672H13.7896V23.9122C19.7315 23.1946 24.3357 18.1354 24.3357 12C24.3352 5.37264 18.9626 0 12.3352 0Z" fill="white"/>
</g>
<defs>
<clipPath id="clip0_96_200">
<rect width="24" height="24" fill="white" transform="translate(0.335205)"/>
</clipPath>
</defs>
</svg>
