<svg width="124" height="125" viewBox="0 0 124 125" fill="none" xmlns="http://www.w3.org/2000/svg">
<g filter="url(#filter0_d_8749_7764)">
<path d="M43.2274 99.785C60.0543 99.785 73.6951 95.8913 73.6951 91.0881C73.6951 86.2849 60.0543 82.3911 43.2274 82.3911C26.4006 82.3911 12.7597 86.2849 12.7597 91.0881C12.7597 95.8913 26.4006 99.785 43.2274 99.785Z" fill="#254665"/>
</g>
<g filter="url(#filter1_d_8749_7764)">
<path d="M43.3165 96.5575C53.4621 96.5575 61.6867 93.3863 61.6867 89.4744C61.6867 85.5626 53.4621 82.3914 43.3165 82.3914C33.1709 82.3914 24.9463 85.5626 24.9463 89.4744C24.9463 93.3863 33.1709 96.5575 43.3165 96.5575Z" fill="#194574" fill-opacity="0.6"/>
</g>
<g filter="url(#filter2_d_8749_7764)">
<path d="M80.7606 107.594C97.5874 107.594 111.228 103.7 111.228 98.8969C111.228 94.0937 97.5874 90.2 80.7606 90.2C63.9338 90.2 50.2929 94.0937 50.2929 98.8969C50.2929 103.7 63.9338 107.594 80.7606 107.594Z" fill="#254665"/>
</g>
<g filter="url(#filter3_d_8749_7764)">
<path d="M80.8497 104.366C90.9953 104.366 99.2199 101.195 99.2199 97.283C99.2199 93.3712 90.9953 90.2 80.8497 90.2C70.7041 90.2 62.4795 93.3712 62.4795 97.283C62.4795 101.195 70.7041 104.366 80.8497 104.366Z" fill="#194574" fill-opacity="0.6"/>
</g>
<path d="M39.4506 94.3161C26.2471 94.3161 20.3655 92.6481 19.8854 88.8354C19.6453 87.1674 19.6453 84.5461 19.7654 81.6866V77.6357C19.7654 73.3464 24.8067 64.8871 32.0086 63.8147L32.7288 63.6956L32.9689 64.053C33.449 64.053 34.8894 64.5296 39.4506 64.7679C44.1319 64.5296 45.4522 64.1722 45.9324 64.053L46.1724 63.6956H46.8926C54.0945 64.8871 59.0158 73.3464 59.0158 77.6357L59.2559 81.6866V88.8354C58.6558 92.6481 52.7742 94.3161 39.5707 94.3161H39.4506Z" fill="white"/>
<path d="M46.6519 65.0023C53.1336 65.9555 57.8148 73.7 57.8148 77.6318C57.8148 81.4445 58.1749 86.3295 57.8148 88.5932C57.4548 91.0953 53.6137 93.1208 39.4499 93.1208C25.2862 93.1208 21.4451 91.0953 20.965 88.5932C20.7249 86.2103 20.965 81.4445 20.965 77.6318C20.965 73.7 25.7663 65.9555 32.248 64.8832C32.248 64.8832 32.7282 65.5981 39.4499 65.9555C46.0517 65.7172 46.6519 64.8832 46.6519 64.8832V65.0023ZM33.3283 62.3811L31.8879 62.6194C24.3259 63.8109 18.6844 72.5085 18.6844 77.6318L18.4443 81.6828V88.9507C19.1645 93.7165 25.2862 95.5037 39.3299 95.5037C53.3737 95.5037 59.4953 93.5974 60.0955 88.9507C60.3355 87.2826 60.3355 84.5423 60.2155 81.8019V77.6318C60.2155 72.5085 54.454 63.6917 47.012 62.6194L45.5716 62.3811L45.0915 62.9768C41.2827 63.6759 37.3771 63.6759 33.5684 62.9768L33.0882 62.3811H33.3283Z" fill="#223948"/>
<path d="M39.3335 66.1941C38.4933 66.1941 36.4527 66.194 35.7325 65.9557C32.0115 65.2408 23.4893 61.9047 23.4893 46.8923C23.4893 35.8118 29.0107 29.7354 39.2135 29.7354C49.5362 29.7354 55.4178 35.931 55.4178 46.7733C55.4178 60.9517 48.576 65.0025 42.6944 65.9557L39.3335 66.075V66.1941Z" fill="white"/>
<path d="M39.2116 30.9268C50.4946 30.9268 54.2156 38.3139 54.2156 46.7732C54.2156 58.6878 49.1743 63.692 42.4525 64.7643C40.2598 65.0264 38.0434 65.0264 35.8507 64.7643C30.0892 63.5728 24.6878 58.5687 24.6878 46.8924C24.6878 38.3139 28.0486 30.9268 39.2116 30.9268ZM39.2116 28.5439C28.2887 28.5439 22.2871 34.9778 22.2871 46.7732C22.2871 62.7388 31.4095 66.3132 35.4906 67.0281C36.3309 67.2664 37.8913 67.2664 39.3317 67.2664L42.9326 67.1472C49.1743 66.0749 56.6163 61.7856 56.6163 46.8924C56.6163 35.2161 50.2546 28.5439 39.2116 28.5439Z" fill="#223948"/>
<path d="M81.0053 101.297C65.4544 101.297 58.5273 99.3322 57.9618 94.8418C57.679 92.8772 57.679 89.79 57.8204 86.4221V81.651C57.8204 76.5992 63.758 66.6359 72.2402 65.373L73.0885 65.2327L73.3712 65.6537C73.9367 65.6537 75.6332 66.215 81.0053 66.4956C86.5187 66.215 88.0738 65.794 88.6393 65.6537L88.922 65.2327H89.7703C98.2525 66.6359 104.049 76.5992 104.049 81.651L104.331 86.4221V94.8418C103.625 99.3322 96.6974 101.297 81.1466 101.297H81.0053Z" fill="white"/>
<path d="M89.4869 66.7723C97.1209 67.8949 102.634 77.0162 102.634 81.647C102.634 86.1375 103.058 91.8909 102.634 94.5572C102.21 97.504 97.6864 99.8896 81.0046 99.8896C64.3228 99.8896 59.7989 97.504 59.2334 94.5572C58.9507 91.7506 59.2334 86.1375 59.2334 81.647C59.2334 77.0162 64.8883 67.8949 72.5223 66.632C72.5223 66.632 73.0878 67.4739 81.0046 67.8949C88.78 67.6143 89.4869 66.632 89.4869 66.632V66.7723ZM73.7947 63.6851L72.0982 63.9657C63.1918 65.369 56.5474 75.6129 56.5474 81.647L56.2646 86.4182V94.9781C57.1129 100.591 64.3228 102.696 80.8632 102.696C97.4036 102.696 104.614 100.451 105.32 94.9781C105.603 93.0135 105.603 89.786 105.462 86.5585V81.647C105.462 75.6129 98.676 65.2287 89.911 63.9657L88.2145 63.6851L87.649 64.3867C83.1632 65.21 78.5633 65.21 74.0774 64.3867L73.5119 63.6851H73.7947Z" fill="#223948"/>
<path d="M80.867 68.1758C79.8774 68.1758 77.4741 68.1758 76.6259 67.8952C72.2434 67.0532 62.2061 63.124 62.2061 45.4428C62.2061 32.3923 68.7091 25.2356 80.7257 25.2356C92.8836 25.2356 99.8108 32.5326 99.8108 45.3024C99.8108 62.0014 91.7526 66.7726 84.8254 67.8952L80.867 68.0355V68.1758Z" fill="white"/>
<path d="M80.7234 26.6386C94.0122 26.6386 98.3947 35.3389 98.3947 45.3022C98.3947 59.3349 92.4572 65.2287 84.5404 66.4916C81.9579 66.8003 79.3474 66.8003 76.765 66.4916C69.9792 65.0883 63.6175 59.1946 63.6175 45.4425C63.6175 35.3389 67.5758 26.6386 80.7234 26.6386ZM80.7234 23.832C67.8586 23.832 60.79 31.4097 60.79 45.3022C60.79 64.106 71.5342 68.3159 76.3409 69.1578C77.3305 69.4385 79.1683 69.4385 80.8647 69.4385L85.1059 69.2982C92.4572 68.0352 101.222 62.9834 101.222 45.4425C101.222 31.6904 93.7295 23.832 80.7234 23.832Z" fill="#223948"/>
<path d="M92.27 103.043C91.8576 103.043 91.5827 102.837 91.3078 102.631L80.7228 97.0633C80.2794 96.8156 79.9073 96.4577 79.6425 96.0243C79.3776 95.5909 79.2289 95.0965 79.2107 94.5889L79.0732 89.2965V88.0593C79.0731 87.7826 79.1286 87.5087 79.2365 87.254C79.3444 86.9992 79.5025 86.7687 79.7013 86.5763C79.9001 86.3839 80.1356 86.2335 80.3938 86.134C80.6519 86.0345 80.9275 85.988 81.204 85.9972H92.1325C92.6794 85.9972 93.2039 86.2145 93.5906 86.6012C93.9773 86.9879 94.1945 87.5124 94.1945 88.0593V88.6779C94.1945 89.5027 93.7821 89.7776 93.5072 89.9151C93.1374 90.068 92.7386 90.1384 92.3387 90.1213H83.4034C83.3347 90.1213 83.1972 90.1213 83.1972 90.2587V93.5579L92.0638 98.0256C92.7511 98.438 92.9573 99.2628 92.7511 99.9501L93.4385 102.15L93.2323 102.424C92.9573 102.906 92.5449 103.043 92.27 103.043Z" fill="white" stroke="#223948" stroke-width="1.07739"/>
<path d="M107.667 103.043C107.392 103.043 106.98 102.906 106.705 102.425L106.498 102.15L107.186 99.9502C106.98 99.2629 107.186 98.4381 107.873 98.0257L116.808 93.558V90.2588L116.602 90.1213H107.667C107.117 90.1213 105.811 90.1213 105.811 88.678V88.0594C105.811 87.5125 106.028 86.988 106.415 86.6013C106.802 86.2146 107.326 85.9973 107.873 85.9973H118.802C119.349 85.9973 119.873 86.2146 120.26 86.6013C120.646 86.988 120.864 87.5125 120.864 88.0594V89.1591L120.795 94.5203C120.795 95.5513 120.176 96.4448 119.283 96.9947L108.698 102.631C108.423 102.768 108.079 102.974 107.736 102.974L107.667 103.043Z" fill="white" stroke="#223948" stroke-width="1.07739"/>
<path d="M93.8505 109.023L94.0567 108.129L94.4691 106.892C94.6065 106.548 94.6065 106.548 94.4691 105.999L94.3316 105.517C91.9185 104.109 89.9297 102.077 88.5749 99.633C87.2201 97.1896 86.5494 94.4259 86.6335 91.6333V87.7842C86.6335 86.822 87.4583 86.0659 88.3518 86.0659H111.377C112.34 86.0659 113.096 86.822 113.096 87.7842V91.6333C113.096 97.6131 110.14 103.043 105.398 105.517L105.329 105.999C105.192 106.548 105.192 106.548 105.329 106.892L105.741 108.129L105.948 109.023H93.8505Z" fill="white" stroke="#223948" stroke-width="1.07739"/>
<path d="M93.851 110.397C93.687 110.397 93.5296 110.332 93.4136 110.216C93.2976 110.1 93.2324 109.943 93.2324 109.779V108.679C93.2324 108.335 93.5074 108.061 93.9198 108.061H106.498C106.842 108.061 107.116 108.335 107.116 108.679V109.848C107.116 110.191 106.842 110.466 106.498 110.466H93.851V110.397Z" fill="white" stroke="#223948" stroke-width="1.07739"/>
<path d="M93.1634 113.353C92.6136 113.353 92.2012 112.941 92.2012 112.46V110.948C92.2012 110.398 92.6136 109.985 93.1634 109.985H107.185C107.735 109.985 108.147 110.398 108.147 110.948V112.46C108.147 112.941 107.735 113.353 107.185 113.353H93.1634Z" fill="white" stroke="#223948" stroke-width="1.07739"/>
<path d="M91.8577 116.515C91.3078 116.515 90.8267 116.102 90.8267 115.552V115.484L91.514 113.697C91.5827 113.422 91.8577 113.216 92.2013 113.216H108.216C108.491 113.216 108.766 113.422 108.835 113.697L109.522 115.484C109.522 116.102 109.041 116.515 108.491 116.515H91.8577Z" fill="white" stroke="#223948" stroke-width="1.07739"/>
<path d="M103.767 102.334C103.688 102.35 103.607 102.35 103.528 102.334L99.819 100.061L96.1105 102.274C96.0135 102.331 95.9023 102.36 95.7897 102.357C95.677 102.354 95.5675 102.319 95.4737 102.257C95.38 102.194 95.3058 102.107 95.2597 102.004C95.2136 101.901 95.1975 101.787 95.2132 101.676L95.9908 97.5484L93.1197 94.3782C93.0479 94.2984 92.999 94.2008 92.9779 94.0955C92.9569 93.9903 92.9645 93.8813 93.0001 93.7801C93.0001 93.6006 93.2393 93.4212 93.4786 93.4212H97.4862L99.2807 89.2939C99.3296 89.1928 99.4061 89.1075 99.5013 89.0478C99.5965 88.9882 99.7066 88.9565 99.819 88.9565C99.9314 88.9565 100.042 88.9882 100.137 89.0478C100.232 89.1075 100.308 89.1928 100.357 89.2939L102.152 93.4212H106.399C106.698 93.4212 106.877 93.6006 106.937 93.8399C106.997 94.0193 106.937 94.2586 106.758 94.438L103.647 97.5484L104.365 101.676C104.373 101.759 104.364 101.843 104.338 101.923C104.312 102.003 104.269 102.076 104.212 102.138C104.156 102.2 104.087 102.249 104.01 102.283C103.934 102.317 103.851 102.334 103.767 102.334Z" fill="white" stroke="#223948" stroke-width="0.861914"/>
<path fill-rule="evenodd" clip-rule="evenodd" d="M80.4845 13.992C82.3685 13.9404 84.2218 14.375 86.0802 14.6939C86.8673 14.9541 87.6697 15.207 88.4885 15.4526L90.6679 16.5623C94.5963 19.0821 97.5015 22.5081 99.3875 26.8395C99.8404 28.1915 100.261 29.5545 100.648 30.9272C100.801 31.465 100.915 32.0101 100.992 32.5623C101.008 33.6171 101.085 34.6701 101.222 35.7159C101.189 37.1383 101.284 38.5401 101.509 39.9203C101.583 44.9701 101.585 50.0209 101.516 55.0707C101.512 55.401 101.45 55.7272 101.337 56.0369C101.337 56.0369 101.209 56.4395 101.165 56.5035C101.057 56.8916 100.961 57.2808 100.878 57.672L100.304 59.3061C100.052 59.7954 99.8209 60.3001 99.6113 60.8214C99.4585 61.2105 99.2678 61.5832 99.042 61.9342C99.042 61.9342 98.5728 62.7156 98.2395 63.2772C97.2725 64.5055 96.2779 65.7133 95.2567 66.8983L92.7328 69.8175L88.0306 74.7228C87.7041 74.9493 87.397 75.2031 87.1126 75.4815C86.752 75.574 86.372 75.5538 86.0229 75.4237C85.7465 74.7091 85.5537 73.9642 85.4484 73.2044C85.43 72.0738 85.3727 70.9441 85.2767 69.8175C81.9504 69.6627 78.6231 69.6627 75.2968 69.8175C75.4343 71.6709 75.2202 73.5338 74.666 75.3061C74.635 75.3851 74.5784 75.4512 74.5055 75.4937C74.4326 75.5362 74.3476 75.5527 74.2643 75.5404C73.9913 75.577 73.7136 75.5366 73.4619 75.4237L72.4294 74.4895C70.5926 72.6202 68.7948 70.7121 67.0372 68.7667C65.6489 67.2541 64.31 65.696 63.0229 64.0947C61.5033 61.8553 60.2879 59.4202 59.4094 56.8544C59.3329 49.6137 59.3329 42.3723 59.4094 35.1316C59.4503 34.7755 59.5075 34.4255 59.5811 34.0808C59.7263 33.799 59.8029 33.4883 59.8101 33.1466C60.0276 31.645 60.3535 30.1614 60.7853 28.7079C61.3942 26.7682 62.2626 24.9216 63.3664 23.2194C63.5647 22.857 63.7937 22.5071 64.0544 22.1675C64.3171 21.7649 64.6033 21.3747 64.9151 21.001C66.5209 19.1903 68.3857 17.6418 70.4421 16.4038C72.3737 15.241 74.5654 14.604 76.7882 14.2263C78.0171 14.1037 79.25 14.0255 80.4845 13.992Z" fill="#4E4E50"/>
<path fill-rule="evenodd" clip-rule="evenodd" d="M90.5534 19.1315C90.5356 19.2517 90.5557 19.3745 90.6107 19.4825C92.3471 21.3259 93.9208 23.3188 95.3139 25.4386L97.2643 30.4595C97.664 31.0025 98.1802 31.3535 98.813 31.5104C99.0062 32.1153 99.0828 32.7388 99.042 33.3788C98.926 33.3701 98.8137 33.3339 98.7142 33.2731C98.6147 33.2123 98.5309 33.1286 98.4695 33.0288C95.41 28.9184 91.5481 25.9021 86.8826 23.978C85.4255 23.4804 83.929 23.1091 82.4094 22.8683C81.9208 22.7521 81.4174 22.7127 80.9169 22.7517C80.9232 22.716 80.6829 22.7819 80.7028 22.7517C80.7028 22.7517 80.3554 22.7713 80.3856 22.7517C80.3856 22.7517 80 22.8065 75.9111 22.8065L75.4 23.3226L74.6088 23.4526L74.0674 23.6387C74.0674 23.6387 74.0674 23.6387 74.6088 23.4526C69.2217 25.2435 64.8629 28.4941 61.5315 33.2043C61.3322 33.2766 61.2167 33.1981 61.187 32.971C62.2644 28.0626 64.5972 23.8975 68.1841 20.4745C72.2924 17.0835 76.9957 15.6817 82.2939 16.2701C85.3421 16.4022 88.095 17.3561 90.5534 19.1315Z" fill="#A6A8AB"/>
<path d="M77.5061 23.0865C81.6724 22.4682 84.8942 20.884 84.7021 19.548C84.51 18.212 80.9768 17.6302 76.8105 18.2485C72.6441 18.8667 69.4224 20.4509 69.6145 21.7869C69.8066 23.1229 73.3398 23.7047 77.5061 23.0865Z" fill="#ABAEB1"/>
<path d="M76.8732 22.8018C79.4371 22.4213 81.4197 21.4464 81.3015 20.6243C81.1833 19.8021 79.009 19.4441 76.4451 19.8245C73.8812 20.205 71.8986 21.1799 72.0168 22.002C72.1351 22.8242 74.3093 23.1822 76.8732 22.8018Z" fill="#BCBEC0"/>
<path fill-rule="evenodd" clip-rule="evenodd" d="M90.5534 19.1316C94.884 21.9056 97.5933 25.8098 98.6796 30.8426C98.7271 31.063 99.5 33.5 99 33.5C98.8079 33.5 98.542 33.2048 98.2873 32.8412C97.6936 31.9934 97.3613 30.9976 97.0858 30L95.3139 25.4377C93.9211 23.3179 92.3478 21.3249 90.6117 19.4815C90.5563 19.3736 90.5359 19.2519 90.5534 19.1316Z" fill="#818387"/>
<path fill-rule="evenodd" clip-rule="evenodd" d="M64.0544 22.2852C63.7982 22.6167 63.5682 22.9681 63.3664 23.336C63.2748 22.9938 63.2362 22.6393 63.2519 22.2852H64.0544Z" fill="#D7D7D7"/>
<path fill-rule="evenodd" clip-rule="evenodd" d="M78.8531 24.2703C85.9585 24.0071 91.8097 26.6156 96.4046 32.0948C96.286 32.1413 96.2676 32.2187 96.3464 32.3281C96.5017 32.5056 96.6735 32.6615 96.8626 32.7957C96.7634 32.9227 96.6489 32.9413 96.5191 32.8546C94.6031 31.2538 92.6522 29.6961 90.6679 28.1826C89.1729 27.3508 87.6206 26.6288 86.0229 26.022C85.7991 26.053 85.7224 26.1696 85.7929 26.373C86.9861 27.4294 88.0285 28.6477 88.8903 29.9931C89.3114 30.6558 89.3871 31.3557 89.1192 32.0948C87.7679 34.4835 85.798 36.1 83.2118 36.9413C79.5983 38.0055 75.9653 38.084 72.3149 37.1756C69.283 36.2084 66.9309 34.3586 65.2595 31.6282C65.0774 31.351 64.978 31.0267 64.9733 30.694C66.3513 29.6401 67.7282 28.5882 69.1031 27.5405C72.2311 32.357 76.4754 33.7 81.8359 31.5694C82.9971 31.0642 84.0202 30.283 84.8177 29.2922C84.9506 28.9485 84.969 28.5975 84.875 28.2414C83.8554 26.841 82.4914 25.7336 80.918 25.029C80.2157 24.774 79.5277 24.5211 78.8531 24.2703Z" fill="#B1B3B6"/>
<path fill-rule="evenodd" clip-rule="evenodd" d="M78.8531 24.2703C79.5277 24.5211 80.2157 24.774 80.9179 25.029C82.4915 25.7335 83.8555 26.8409 84.875 28.2414C84.97 28.5975 84.9506 28.9485 84.8177 29.2922C84.0199 30.2831 82.9965 31.0643 81.8349 31.5694C76.4754 33.6999 72.2311 32.357 69.1021 27.5405C71.9888 25.4316 75.2395 24.3415 78.8531 24.2703Z" fill="#BCBEC0"/>
<path fill-rule="evenodd" clip-rule="evenodd" d="M96.4036 32.0947C97.1341 32.9161 97.8232 33.7739 98.4685 34.6651C98.4469 34.831 98.3894 34.9902 98.3002 35.1312C98.211 35.2723 98.0922 35.3919 97.9523 35.4816C97.939 39.2596 98.0156 43.0357 98.1823 46.8106C98.2589 49.224 98.2589 51.6375 98.1823 54.0509C97.8691 56.2761 97.0439 58.3962 95.7729 60.2413C93.0893 64.026 90.013 67.5104 86.5964 70.6351C86.5392 70.0531 86.5201 69.4679 86.5392 68.8834C86.532 62.3038 86.5892 55.7242 86.7109 49.1466C86.8499 48.9649 87.0216 48.8287 87.2271 48.7368C89.8343 48.0295 92.3127 46.906 94.5687 45.4088C95.042 44.934 95.1381 44.3889 94.8549 43.7737C93.4877 42.3819 91.7576 41.4101 89.8655 40.9711C87.3927 39.8635 84.9077 39.8831 82.4094 41.0289C82.2305 41.2622 82.1538 41.5347 82.1794 41.8465C82.2877 43.7954 82.44 45.7226 82.6394 47.6271C82.7774 48.1092 82.854 48.615 82.8673 49.1456C82.6639 50.1613 82.1293 50.9593 81.2624 51.5404C80.2719 52.2011 79.2016 52.454 78.0496 52.2991C77.7751 51.6543 77.5452 50.9911 77.3616 50.3141C77.7705 48.3476 77.9044 46.3626 77.7634 44.358C77.6419 43.6118 77.4884 42.8713 77.3034 42.1386C77.2032 41.8393 77.0304 41.606 76.7882 41.4377C72.8199 39.4155 68.958 39.6292 65.2023 42.0808C64.2833 42.6486 64.0349 43.4465 64.4561 44.4746C64.7365 44.8958 65.1691 45.1893 65.6613 45.2922C67.808 46.8715 70.1795 47.9409 72.7729 48.5035C73.098 48.679 73.3464 48.9319 73.5191 49.2633C73.6142 57.4966 73.5948 65.7102 73.4619 73.9053C73.4619 41.5317 73.3852 41.5317 73.2319 73.9053C69.7644 70.3011 66.527 66.4781 63.5392 62.4597C62.1117 60.1254 61.2468 57.4852 61.0143 54.7518C60.958 50.119 60.9386 45.4873 60.958 40.8545C61.1369 39.0862 61.2136 37.2953 61.187 35.4816C62.1355 33.6566 63.4202 32.0313 64.9723 30.6929C64.9795 31.0315 65.0745 31.3433 65.2585 31.6282C66.9309 34.3595 69.283 36.2083 72.3139 37.1755C75.9653 38.0839 79.5983 38.0055 83.2118 36.9412C85.798 36.0989 87.7679 34.4834 89.1203 32.0947C89.3871 31.3567 89.3114 30.6558 88.8903 29.9931C88.0286 28.6472 86.9862 27.4286 85.7929 26.3719C85.7224 26.1696 85.7991 26.0519 86.0219 26.022C87.6199 26.6286 89.1726 27.3507 90.6679 28.1825C92.6523 29.696 94.6031 31.2537 96.5191 32.8545C96.6489 32.9412 96.7644 32.9226 96.8626 32.7957C96.6728 32.661 96.4995 32.504 96.3464 32.328C96.2676 32.2197 96.286 32.1422 96.4036 32.0947Z" fill="#A6A8AB"/>
<path d="M72.5004 71.6465V72.0039C72.3382 71.8278 72.1742 71.6465 72.0072 71.4619L72.5004 71.6465Z" stroke="#808285" stroke-width="2"/>
<path fill-rule="evenodd" clip-rule="evenodd" d="M98.4685 34.6639C99.3721 35.7715 99.736 37.0557 99.5582 38.5184C99.732 44.4342 99.7698 50.3511 99.6737 56.2701C99.6311 56.9043 99.5155 57.5313 99.3292 58.1385C98.8014 59.2323 98.2661 60.3224 97.7233 61.4087C94.702 66.0806 91.0969 70.3397 86.9971 74.0807C86.9148 74.1228 86.822 74.1396 86.7303 74.1292C86.6386 74.1187 86.5519 74.0814 86.4809 74.0219C86.3857 72.3096 86.4048 70.5929 86.5381 68.8833C86.5197 69.4686 86.5381 70.0528 86.5964 70.635C90.0131 67.5099 93.0893 64.0252 95.7729 60.2402C97.0437 58.3954 97.8689 56.2756 98.1823 54.0508C98.2589 51.6373 98.2589 49.2239 98.1823 46.8105C98.0156 43.0366 97.4866 37.2777 97.5 33.5C97.5 33.5 98.4685 34.6991 98.4685 34.6639Z" fill="#818387"/>
<path fill-rule="evenodd" clip-rule="evenodd" d="M61.187 35.4825C61.2147 37.2761 61.1382 39.0698 60.958 40.8543C60.9401 39.0606 61.0166 37.2671 61.187 35.4814V35.4825Z" fill="#626365"/>
<path fill-rule="evenodd" clip-rule="evenodd" d="M76.7882 41.4388C74.7248 41.3382 72.6584 41.3186 70.5935 41.38C68.7351 41.5813 67.1098 42.3018 65.7175 43.5405C65.5161 44.1038 65.4965 44.717 65.6613 45.2922C65.1692 45.1893 64.7365 44.8958 64.4561 44.4747C64.0349 43.4465 64.2833 42.6486 65.2023 42.0798C68.958 39.6293 72.8199 39.4166 76.7882 41.4388Z" fill="#818387"/>
<path fill-rule="evenodd" clip-rule="evenodd" d="M89.8645 40.9712C87.9958 41.2137 86.1231 41.4274 84.2443 41.6132C83.5819 41.6648 83.1035 41.9952 82.8101 42.6063C82.7502 44.2801 82.6929 45.9541 82.6384 47.6282C82.439 45.7054 82.286 43.7779 82.1794 41.8475C82.1538 41.5348 82.2305 41.2623 82.4094 41.029C84.9077 39.8832 87.3917 39.8636 89.8645 40.9712Z" fill="#808285"/>
<path fill-rule="evenodd" clip-rule="evenodd" d="M71.2815 42.3718C72.9055 42.261 74.5362 42.4392 76.0992 42.8982C76.3047 42.9891 76.4774 43.1253 76.6154 43.307C76.692 44.863 76.692 46.422 76.6154 47.978C75.8048 50.1354 76.1104 52.0812 77.5334 53.8175C79.403 55.53 81.2768 55.53 83.1546 53.8175C83.9103 53.0008 84.3744 51.9527 84.4732 50.8394C84.0431 48.3537 83.9086 45.825 84.0725 43.307L84.3588 43.0149C87.6984 41.8071 90.8141 42.2159 93.708 44.2412C93.7515 44.3647 93.7689 44.496 93.7591 44.6267C93.7492 44.7574 93.7123 44.8845 93.6508 44.9999L86.3092 48.0368C86.0661 48.1674 85.8516 48.3461 85.6784 48.5622L85.564 66.4306L85.2777 66.7228C82.1088 67.0717 78.9348 67.1099 75.7557 66.8394C75.6273 66.8223 75.5042 66.7769 75.3951 66.7062C75.2861 66.6355 75.1939 66.5414 75.125 66.4306L75.0095 48.5622C74.8316 48.3455 74.6211 48.17 74.3788 48.0358C71.9235 47.1127 69.4944 46.1199 67.0944 45.0588C66.8471 44.7037 66.8665 44.3723 67.1517 44.0657C68.3996 43.2231 69.805 42.6459 71.2815 42.3718Z" fill="#FBFBFB"/>
<path fill-rule="evenodd" clip-rule="evenodd" d="M82.8673 49.1455C83.7618 51.3989 83.1127 52.9752 80.9179 53.8763C79.6075 54.026 78.6517 53.5006 78.0496 52.2991C79.2016 52.4539 80.2719 52.201 81.2614 51.5403C82.1293 50.9592 82.6639 50.1612 82.8673 49.1455Z" fill="#818387"/>
<defs>
<filter id="filter0_d_8749_7764" x="10.7597" y="80.3911" width="68.9354" height="25.3938" filterUnits="userSpaceOnUse" color-interpolation-filters="sRGB">
<feFlood flood-opacity="0" result="BackgroundImageFix"/>
<feColorMatrix in="SourceAlpha" type="matrix" values="0 0 0 0 0 0 0 0 0 0 0 0 0 0 0 0 0 0 127 0" result="hardAlpha"/>
<feOffset dx="2" dy="2"/>
<feGaussianBlur stdDeviation="2"/>
<feComposite in2="hardAlpha" operator="out"/>
<feColorMatrix type="matrix" values="0 0 0 0 0.12549 0 0 0 0 0.12549 0 0 0 0 0.12549 0 0 0 0.15 0"/>
<feBlend mode="normal" in2="BackgroundImageFix" result="effect1_dropShadow_8749_7764"/>
<feBlend mode="normal" in="SourceGraphic" in2="effect1_dropShadow_8749_7764" result="shape"/>
</filter>
<filter id="filter1_d_8749_7764" x="22.9463" y="80.3914" width="44.7404" height="22.166" filterUnits="userSpaceOnUse" color-interpolation-filters="sRGB">
<feFlood flood-opacity="0" result="BackgroundImageFix"/>
<feColorMatrix in="SourceAlpha" type="matrix" values="0 0 0 0 0 0 0 0 0 0 0 0 0 0 0 0 0 0 127 0" result="hardAlpha"/>
<feOffset dx="2" dy="2"/>
<feGaussianBlur stdDeviation="2"/>
<feComposite in2="hardAlpha" operator="out"/>
<feColorMatrix type="matrix" values="0 0 0 0 0.12549 0 0 0 0 0.12549 0 0 0 0 0.12549 0 0 0 0.15 0"/>
<feBlend mode="normal" in2="BackgroundImageFix" result="effect1_dropShadow_8749_7764"/>
<feBlend mode="normal" in="SourceGraphic" in2="effect1_dropShadow_8749_7764" result="shape"/>
</filter>
<filter id="filter2_d_8749_7764" x="48.2929" y="88.2" width="68.9351" height="25.394" filterUnits="userSpaceOnUse" color-interpolation-filters="sRGB">
<feFlood flood-opacity="0" result="BackgroundImageFix"/>
<feColorMatrix in="SourceAlpha" type="matrix" values="0 0 0 0 0 0 0 0 0 0 0 0 0 0 0 0 0 0 127 0" result="hardAlpha"/>
<feOffset dx="2" dy="2"/>
<feGaussianBlur stdDeviation="2"/>
<feComposite in2="hardAlpha" operator="out"/>
<feColorMatrix type="matrix" values="0 0 0 0 0.12549 0 0 0 0 0.12549 0 0 0 0 0.12549 0 0 0 0.15 0"/>
<feBlend mode="normal" in2="BackgroundImageFix" result="effect1_dropShadow_8749_7764"/>
<feBlend mode="normal" in="SourceGraphic" in2="effect1_dropShadow_8749_7764" result="shape"/>
</filter>
<filter id="filter3_d_8749_7764" x="60.4795" y="88.2" width="44.7404" height="22.166" filterUnits="userSpaceOnUse" color-interpolation-filters="sRGB">
<feFlood flood-opacity="0" result="BackgroundImageFix"/>
<feColorMatrix in="SourceAlpha" type="matrix" values="0 0 0 0 0 0 0 0 0 0 0 0 0 0 0 0 0 0 127 0" result="hardAlpha"/>
<feOffset dx="2" dy="2"/>
<feGaussianBlur stdDeviation="2"/>
<feComposite in2="hardAlpha" operator="out"/>
<feColorMatrix type="matrix" values="0 0 0 0 0.12549 0 0 0 0 0.12549 0 0 0 0 0.12549 0 0 0 0.15 0"/>
<feBlend mode="normal" in2="BackgroundImageFix" result="effect1_dropShadow_8749_7764"/>
<feBlend mode="normal" in="SourceGraphic" in2="effect1_dropShadow_8749_7764" result="shape"/>
</filter>
</defs>
</svg>
