<svg width="124" height="124" viewBox="0 0 124 124" fill="none" xmlns="http://www.w3.org/2000/svg">
<g clip-path="url(#clip0_8664_18286)">
<mask id="mask0_8664_18286" style="mask-type:luminance" maskUnits="userSpaceOnUse" x="11" y="13" width="100" height="98">
<path d="M11.3622 13.3157H110.562V110.608H11.3622V13.3157Z" fill="white"/>
<path d="M34.5388 30.687V46.3491H34.533L20.9007 54.1821V69.8481L34.5349 77.6811V93.3127L48.1711 101.146L61.8092 93.3127L75.4435 101.146L89.0835 93.3127V77.6792L102.718 69.8481V54.1821L89.0816 46.3491V30.687L75.4416 22.854L61.8111 30.6851L48.1749 22.854L34.5407 30.687H34.5388Z" fill="black"/>
</mask>
<g mask="url(#mask0_8664_18286)">
<path d="M34.5388 30.687V46.3491H34.533L20.9007 54.1821V69.8481L34.5349 77.6811V93.3127L48.1711 101.146L61.8092 93.3127L75.4435 101.146L89.0835 93.3127V77.6792L102.718 69.8481V54.1821L89.0816 46.3491V30.687L75.4416 22.854L61.8111 30.6851L48.1749 22.854L34.5407 30.687H34.5388Z" stroke="black" stroke-width="15.6431" stroke-linejoin="round"/>
</g>
<mask id="mask1_8664_18286" style="mask-type:luminance" maskUnits="userSpaceOnUse" x="13" y="15" width="96" height="94">
<path d="M13.2699 15.2234H108.655V108.7H13.2699V15.2234Z" fill="white"/>
<path d="M34.5388 30.687V46.3491H34.533L20.9007 54.1821V69.8481L34.5349 77.6811V93.3127L48.1711 101.146L61.8092 93.3127L75.4435 101.146L89.0835 93.3127V77.6792L102.718 69.8481V54.1821L89.0816 46.3491V30.687L75.4416 22.854L61.8111 30.6851L48.1749 22.854L34.5407 30.687H34.5388Z" fill="black"/>
</mask>
<g mask="url(#mask1_8664_18286)">
<path d="M34.5388 30.687V46.3491H34.533L20.9007 54.1821V69.8481L34.5349 77.6811V93.3127L48.1711 101.146L61.8092 93.3127L75.4435 101.146L89.0835 93.3127V77.6792L102.718 69.8481V54.1821L89.0816 46.3491V30.687L75.4416 22.854L61.8111 30.6851L48.1749 22.854L34.5407 30.687H34.5388Z" stroke="#57AFD6" stroke-width="11.5988" stroke-linejoin="round"/>
</g>
<mask id="mask2_8664_18286" style="mask-type:luminance" maskUnits="userSpaceOnUse" x="15" y="17" width="94" height="90">
<path d="M15.1776 17.1311H108.655V106.793H15.1776V17.1311Z" fill="white"/>
<path d="M34.5388 30.687V46.3491H34.533L20.9007 54.1821V69.8481L34.5349 77.6811V93.3127L48.1711 101.146L61.8092 93.3127L75.4435 101.146L89.0835 93.3127V77.6792L102.718 69.8481V54.1821L89.0816 46.3491V30.687L75.4416 22.854L61.8111 30.6851L48.1749 22.854L34.5407 30.687H34.5388Z" fill="black"/>
</mask>
<g mask="url(#mask2_8664_18286)">
<path d="M34.5388 30.687V46.3491H34.533L20.9007 54.1821V69.8481L34.5349 77.6811V93.3127L48.1711 101.146L61.8092 93.3127L75.4435 101.146L89.0835 93.3127V77.6792L102.718 69.8481V54.1821L89.0816 46.3491V30.687L75.4416 22.854L61.8111 30.6851L48.1749 22.854L34.5407 30.687H34.5388Z" stroke="#80CFF3" stroke-width="8.69908" stroke-linejoin="round"/>
</g>
<mask id="mask3_8664_18286" style="mask-type:luminance" maskUnits="userSpaceOnUse" x="17" y="19" width="90" height="86">
<path d="M17.0853 19.0388H106.747V104.885H17.0853V19.0388Z" fill="white"/>
<path d="M34.5388 30.687V46.3491H34.533L20.9007 54.1821V69.8481L34.5349 77.6811V93.3127L48.1711 101.146L61.8092 93.3127L75.4435 101.146L89.0835 93.3127V77.6792L102.718 69.8481V54.1821L89.0816 46.3491V30.687L75.4416 22.854L61.8111 30.6851L48.1749 22.854L34.5407 30.687H34.5388Z" fill="black"/>
</mask>
<g mask="url(#mask3_8664_18286)">
<path d="M34.5388 30.687V46.3491H34.533L20.9007 54.1821V69.8481L34.5349 77.6811V93.3127L48.1711 101.146L61.8092 93.3127L75.4435 101.146L89.0835 93.3127V77.6792L102.718 69.8481V54.1821L89.0816 46.3491V30.687L75.4416 22.854L61.8111 30.6851L48.1749 22.854L34.5407 30.687H34.5388Z" stroke="#F2E8C0" stroke-width="5.79938" stroke-linejoin="round"/>
</g>
<mask id="mask4_8664_18286" style="mask-type:luminance" maskUnits="userSpaceOnUse" x="18" y="20" width="87" height="83">
<path d="M18.993 20.9465H104.839V102.977H18.993V20.9465Z" fill="white"/>
<path d="M34.5388 30.687V46.3491H34.533L20.9007 54.1821V69.8481L34.5349 77.6811V93.3127L48.1711 101.146L61.8092 93.3127L75.4435 101.146L89.0835 93.3127V77.6792L102.718 69.8481V54.1821L89.0816 46.3491V30.687L75.4416 22.854L61.8111 30.6851L48.1749 22.854L34.5407 30.687H34.5388Z" fill="black"/>
</mask>
<g mask="url(#mask4_8664_18286)">
<path d="M34.5388 30.687V46.3491H34.533L20.9007 54.1821V69.8481L34.5349 77.6811V93.3127L48.1711 101.146L61.8092 93.3127L75.4435 101.146L89.0835 93.3127V77.6792L102.718 69.8481V54.1821L89.0816 46.3491V30.687L75.4416 22.854L61.8111 30.6851L48.1749 22.854L34.5407 30.687H34.5388Z" stroke="#E0B66C" stroke-width="2.89969" stroke-linejoin="round"/>
</g>
<path d="M61.8073 30.687V46.353L75.4435 54.1879L89.0797 46.353V30.687L75.4435 22.854L61.8073 30.687Z" fill="#A1B802"/>
<path d="M75.4435 25.4771L86.7962 31.9995V45.0424L75.4435 51.5648L64.0908 45.0405V31.9995L75.4435 25.4771ZM75.4435 22.854L61.8073 30.687V46.353L75.4435 54.1879L89.0835 46.353V30.687L75.4435 22.854Z" fill="#4F7301"/>
<path d="M75.4435 25.1146L87.111 31.8183V45.2217L75.4435 51.9253L63.7722 45.2217V31.8202L75.4397 25.1165H75.4435V25.1146ZM75.4397 22.854L61.8092 30.687V46.353L75.4454 54.1879L89.0854 46.353V30.687L75.4454 22.854H75.4416H75.4397Z" fill="#CED501"/>
<path d="M75.4435 24.0272L88.0553 31.2727V45.7711L75.4435 53.0108L62.8299 45.7692V31.2746L75.4435 24.0272ZM75.4435 22.854L61.8073 30.687V46.353L75.4435 54.1879L89.0835 46.353V30.687L75.4435 22.854Z" fill="#849E01"/>
<mask id="mask5_8664_18286" style="mask-type:luminance" maskUnits="userSpaceOnUse" x="61" y="22" width="29" height="33">
<path d="M75.4435 23.8498L88.2136 31.1849V45.8551L75.4435 53.192L62.6715 45.857V31.1849L75.4435 23.8498ZM75.4435 22.854L61.8073 30.687V46.353L75.4435 54.1879L89.0835 46.353V30.687L75.4435 22.854Z" fill="white"/>
</mask>
<g mask="url(#mask5_8664_18286)">
<path d="M75.4435 23.8498L88.2136 31.1849V45.8551L75.4435 53.192L62.6715 45.857V31.1849L75.4435 23.8498ZM75.4435 22.854L61.8073 30.687V46.353L75.4435 54.1879L89.0835 46.353V30.687L75.4435 22.854Z" fill="#E0B568" stroke="black" stroke-width="1.364"/>
</g>
<path d="M20.9007 54.1821V69.848L34.5368 77.681L48.1711 69.848V54.1821L34.5368 46.3472L20.9007 54.1821Z" fill="#1F9D35"/>
<path d="M34.5368 48.9702L45.8876 55.4946V68.5355L34.5368 75.0579L23.1842 68.5355V55.4946L34.5349 48.9722L34.5368 48.9702ZM34.5368 46.3472L20.9007 54.1821V69.848L34.5368 77.681L48.1768 69.848V54.1821L34.5368 46.3472Z" fill="#4F7301"/>
<path d="M34.5368 48.6078L46.2043 55.3114V68.7149L34.5368 75.4185L22.8656 68.7149V55.3114L34.533 48.6097H34.5368V48.6078ZM34.533 46.3472L20.9007 54.1821V69.848L34.5368 77.681L48.1768 69.848V54.1821L34.5368 46.3472H34.533Z" fill="#5EC148"/>
<path d="M34.5368 47.5204L47.1467 54.7658V69.2643L34.5368 76.504L21.9213 69.2624V54.7696L34.5368 47.5204ZM34.5368 46.3472L20.9007 54.1821V69.848L34.5368 77.681L48.1768 69.848V54.1821L34.5368 46.3472Z" fill="#1D5728"/>
<mask id="mask6_8664_18286" style="mask-type:luminance" maskUnits="userSpaceOnUse" x="20" y="46" width="29" height="32">
<path d="M34.5368 47.343L47.3069 54.6781V69.3501L34.5368 76.6871L21.7649 69.3501V54.68L34.5368 47.343ZM34.5349 46.3472L20.9007 54.1821V69.848L34.5368 77.681L48.1768 69.848V54.1821L34.5349 46.3472Z" fill="white"/>
</mask>
<g mask="url(#mask6_8664_18286)">
<path d="M34.5368 47.343L47.3069 54.6781V69.3501L34.5368 76.6871L21.7649 69.3501V54.68L34.5368 47.343ZM34.5349 46.3472L20.9007 54.1821V69.848L34.5368 77.681L48.1768 69.848V54.1821L34.5349 46.3472Z" fill="#E0B568" stroke="black" stroke-width="1.364"/>
</g>
<path d="M75.4435 54.1821V69.848L89.0797 77.681L102.714 69.848V54.1821L89.0797 46.3472L75.4435 54.1821Z" fill="#1F9D35"/>
<path d="M89.0797 48.9702L100.43 55.4946V68.5355L89.0797 75.0579L77.727 68.5355V55.4946L89.0778 48.9722L89.0797 48.9702ZM89.0797 46.3472L75.4435 54.1821V69.848L89.0797 77.681L102.72 69.848V54.1821L89.0797 46.3472Z" fill="#4F7301"/>
<path d="M89.0797 48.6078L100.745 55.3114V68.7149L89.0797 75.4185L77.4084 68.7149V55.3114L89.0759 48.6097H89.0797V48.6078ZM89.0759 46.3472L75.4435 54.1821V69.848L89.0797 77.681L102.72 69.848V54.1821L89.0797 46.3472H89.0759Z" fill="#5EC148"/>
<path d="M89.0797 47.5204L101.69 54.7658V69.2643L89.0797 76.504L76.4641 69.2624V54.7696L89.0797 47.5204ZM89.0797 46.3472L75.4435 54.1821V69.848L89.0797 77.681L102.72 69.848V54.1821L89.0797 46.3472Z" fill="#1D5728"/>
<mask id="mask7_8664_18286" style="mask-type:luminance" maskUnits="userSpaceOnUse" x="75" y="46" width="28" height="32">
<path d="M89.0797 47.343L101.85 54.6781V69.3501L89.0797 76.6871L76.3077 69.3501V54.68L89.0797 47.343ZM89.0778 46.3472L75.4435 54.1821V69.848L89.0797 77.681L102.72 69.848V54.1821L89.0778 46.3472Z" fill="white"/>
</mask>
<g mask="url(#mask7_8664_18286)">
<path d="M89.0797 47.343L101.85 54.6781V69.3501L89.0797 76.6871L76.3077 69.3501V54.68L89.0797 47.343ZM89.0778 46.3472L75.4435 54.1821V69.848L89.0797 77.681L102.72 69.848V54.1821L89.0778 46.3472Z" fill="#E0B568" stroke="black" stroke-width="1.364"/>
</g>
<path d="M61.8073 77.6469V93.3129L75.4435 101.146L89.0797 93.3129V77.6469L75.4435 69.812L61.8073 77.6469Z" fill="#FEC53C"/>
<path d="M75.4435 72.4351L86.7962 78.9594V92.0004L75.4435 98.5228L64.0908 92.0004V78.9594L75.4435 72.4351ZM75.4435 69.812L61.8073 77.6469V93.3129L75.4435 101.146L89.0835 93.3129V77.6469L75.4435 69.812Z" fill="#A3710A"/>
<path d="M75.4435 72.0726L87.111 78.7763V92.1816L75.4435 98.8833L63.7722 92.1797V78.7763L75.4397 72.0745L75.4435 72.0726ZM75.4397 69.812L61.8092 77.6469V93.3129L75.4454 101.146L89.0854 93.3129V77.6469L75.4454 69.812H75.4416H75.4397Z" fill="#FFD867"/>
<path d="M75.4435 70.9852L88.0553 78.2307V92.7291L75.4435 99.9688L62.8299 92.7291V78.2345L75.4435 70.9852ZM75.4435 69.812L61.8073 77.6469V93.3129L75.4435 101.146L89.0835 93.3129V77.6469L75.4435 69.812Z" fill="#966502"/>
<mask id="mask8_8664_18286" style="mask-type:luminance" maskUnits="userSpaceOnUse" x="61" y="69" width="29" height="33">
<path d="M75.4435 70.8078L88.2136 78.1429V92.815L75.4435 100.152L62.6715 92.815V78.1448L75.4435 70.8078ZM75.4435 69.812L61.8073 77.6469V93.3129L75.4435 101.146L89.0835 93.3129V77.6469L75.4435 69.812Z" fill="white"/>
</mask>
<g mask="url(#mask8_8664_18286)">
<path d="M75.4435 70.8078L88.2136 78.1429V92.815L75.4435 100.152L62.6715 92.815V78.1448L75.4435 70.8078ZM75.4435 69.812L61.8073 77.6469V93.3129L75.4435 101.146L89.0835 93.3129V77.6469L75.4435 69.812Z" fill="#E0B568" stroke="black" stroke-width="1.364"/>
</g>
<path d="M34.5368 77.6469V93.3129L48.1711 101.146L61.8073 93.3129V77.6469L48.1711 69.812L34.5368 77.6469Z" fill="#B7BDB9"/>
<path d="M48.1711 72.4351L59.5238 78.9594V92.0004L48.173 98.5228L36.8184 92.0004V78.9594L48.1711 72.4351ZM48.1711 69.812L34.5349 77.6469V93.3129L48.1711 101.146L61.8111 93.3129V77.6469L48.1711 69.812Z" fill="#696C6A"/>
<path d="M48.1711 72.0726L59.8386 78.7763V92.1816L48.1711 98.8833L36.5018 92.1797V78.7763L48.1692 72.0745L48.1711 72.0726ZM48.1692 69.812L34.5369 77.6469V93.3129L48.1711 101.146L61.8111 93.3129V77.6469L48.1692 69.812Z" fill="#C2C7C4"/>
<path d="M48.1711 70.9852L60.7829 78.2307V92.7291L48.173 99.9688L35.5575 92.7272V78.2345L48.1711 70.9852ZM48.1711 69.812L34.5349 77.6469V93.3129L48.1711 101.146L61.8111 93.3129V77.6469L48.1711 69.812Z" fill="#636664"/>
<mask id="mask9_8664_18286" style="mask-type:luminance" maskUnits="userSpaceOnUse" x="34" y="69" width="28" height="33">
<path d="M48.1711 70.8078L60.9412 78.1429V92.8131L48.1711 100.15L35.401 92.815V78.1448L48.1711 70.8078ZM48.1711 69.812L34.5349 77.6469V93.3129L48.1711 101.146L61.8111 93.3129V77.6469L48.1711 69.812Z" fill="white"/>
</mask>
<g mask="url(#mask9_8664_18286)">
<path d="M48.1711 70.8078L60.9412 78.1429V92.8131L48.1711 100.15L35.401 92.815V78.1448L48.1711 70.8078ZM48.1711 69.812L34.5349 77.6469V93.3129L48.1711 101.146L61.8111 93.3129V77.6469L48.1711 69.812Z" fill="#E0B568" stroke="black" stroke-width="1.364"/>
</g>
<path d="M34.5388 30.687V46.3568L48.1749 54.1898L61.8111 46.3549V30.6889L48.1749 22.856L34.5388 30.687Z" fill="#E36529"/>
<path d="M48.1749 25.4771L59.5276 31.9995V45.0424L48.1769 51.5648L36.8223 45.0405V31.9995L48.1749 25.4771ZM48.1749 22.854L34.5388 30.687V46.3568L48.1749 54.1898L61.8149 46.3549V30.6889L48.1749 22.8559V22.854Z" fill="#C01A23"/>
<path d="M48.175 25.1146L59.8424 31.8183V45.2217L48.175 51.9253L36.5056 45.2217V31.8202L48.173 25.1165H48.1769L48.175 25.1146ZM48.173 22.854L34.5407 30.687V46.3568L48.175 54.1898L61.815 46.3549V30.6889L48.175 22.8559L48.173 22.854Z" fill="#F9AB44"/>
<path d="M48.1749 24.0272L60.7886 31.2727V45.7711L48.1769 53.0108L35.5613 45.7692V31.2746L48.1749 24.0272ZM48.1749 22.854L34.5388 30.687V46.3568L48.1749 54.1898L61.8149 46.3549V30.6889L48.1749 22.8559V22.854Z" fill="#BE1622"/>
<mask id="mask10_8664_18286" style="mask-type:luminance" maskUnits="userSpaceOnUse" x="34" y="22" width="28" height="33">
<path d="M48.1749 23.8498L60.945 31.1849V45.8551L48.1749 53.192L35.4049 45.857V31.1868L48.1749 23.8498ZM48.1749 22.854L34.5388 30.687V46.3568L48.1749 54.1898L61.8149 46.3549V30.6889L48.1749 22.8559V22.854Z" fill="white"/>
</mask>
<g mask="url(#mask10_8664_18286)">
<path d="M48.1749 23.8498L60.945 31.1849V45.8551L48.1749 53.192L35.4049 45.857V31.1868L48.1749 23.8498ZM48.1749 22.854L34.5388 30.687V46.3568L48.1749 54.1898L61.8149 46.3549V30.6889L48.1749 22.8559V22.854Z" fill="#E0B568" stroke="black" stroke-width="1.364"/>
</g>
<path d="M48.1711 54.1821V69.848L61.8092 77.681L75.4454 69.848V54.1821L61.8092 46.3472L48.1731 54.1821H48.1711Z" fill="#D9D295"/>
<path d="M61.8092 48.9702L73.16 55.4946V68.5355L61.8092 75.0579L50.4547 68.5355V55.4946L61.8092 48.9702ZM61.8092 46.3472L48.1711 54.1821V69.848L61.8092 77.681L75.4492 69.848V54.1821L61.8092 46.3472Z" fill="#887E53"/>
<path d="M61.8092 48.6078L73.4748 55.3114V68.7149L61.8073 75.4185L50.1361 68.7149V55.3114L61.8054 48.6097L61.8092 48.6078ZM61.8054 46.3472L48.1711 54.1821V69.848L61.8092 77.681L75.4492 69.848V54.1821L61.8092 46.3472H61.8054Z" fill="#DACC9B"/>
<path d="M61.8092 47.5204L74.4191 54.7658V69.2643L61.8092 76.504L49.1937 69.2624V54.7696L61.8073 47.5223L61.8092 47.5204ZM61.8092 46.3472L48.1711 54.1821V69.848L61.8092 77.681L75.4492 69.848V54.1821L61.8092 46.3472Z" fill="#877D52"/>
<mask id="mask11_8664_18286" style="mask-type:luminance" maskUnits="userSpaceOnUse" x="48" y="46" width="28" height="32">
<path d="M61.8092 47.343L74.5774 54.6781V69.3501L61.8073 76.6871L49.0353 69.3501V54.68L61.8054 47.343H61.8092ZM61.8054 46.3472L48.1711 54.1821V69.848L61.8092 77.681L75.4492 69.848V54.1821L61.8092 46.3472H61.8054Z" fill="white"/>
</mask>
<g mask="url(#mask11_8664_18286)">
<path d="M61.8092 47.343L74.5774 54.6781V69.3501L61.8073 76.6871L49.0353 69.3501V54.68L61.8054 47.343H61.8092ZM61.8054 46.3472L48.1711 54.1821V69.848L61.8092 77.681L75.4492 69.848V54.1821L61.8092 46.3472H61.8054Z" fill="#E0B568" stroke="black" stroke-width="1.364"/>
</g>
<path d="M92.27 101.135C91.8576 101.135 91.5827 100.929 91.3078 100.723L80.7228 95.1555C80.2794 94.9078 79.9073 94.5499 79.6425 94.1165C79.3776 93.6831 79.2289 93.1887 79.2107 92.6811L79.0732 87.3887V86.1515C79.0731 85.8748 79.1286 85.6009 79.2365 85.3462C79.3444 85.0914 79.5025 84.861 79.7013 84.6686C79.9001 84.4762 80.1356 84.3258 80.3938 84.2263C80.6519 84.1268 80.9275 84.0803 81.204 84.0895H92.1325C92.6794 84.0895 93.2039 84.3068 93.5906 84.6935C93.9773 85.0801 94.1945 85.6046 94.1945 86.1515V86.7701C94.1945 87.5949 93.7821 87.8698 93.5072 88.0073C93.1374 88.1602 92.7386 88.2306 92.3387 88.2135H83.4034C83.3347 88.2135 83.1972 88.2135 83.1972 88.3509V91.6501L92.0638 96.1178C92.7511 96.5302 92.9573 97.355 92.7511 98.0423L93.4385 100.242L93.2323 100.517C92.9573 100.998 92.5449 101.135 92.27 101.135Z" fill="white" stroke="#223948" stroke-width="1.07739"/>
<path d="M107.667 101.135C107.392 101.135 106.98 100.998 106.705 100.517L106.498 100.242L107.186 98.0424C106.98 97.3551 107.186 96.5303 107.873 96.1179L116.808 91.6502V88.351L116.602 88.2135H107.667C107.117 88.2135 105.811 88.2135 105.811 86.7702V86.1516C105.811 85.6047 106.028 85.0802 106.415 84.6935C106.802 84.3068 107.326 84.0896 107.873 84.0896H118.802C119.349 84.0896 119.873 84.3068 120.26 84.6935C120.646 85.0802 120.864 85.6047 120.864 86.1516V87.2513L120.795 92.6125C120.795 93.6435 120.176 94.537 119.283 95.0869L108.698 100.723C108.423 100.861 108.079 101.067 107.736 101.067L107.667 101.135Z" fill="white" stroke="#223948" stroke-width="1.07739"/>
<path d="M93.8505 107.115L94.0567 106.222L94.4691 104.984C94.6065 104.641 94.6065 104.641 94.4691 104.091L94.3316 103.61C91.9185 102.202 89.9297 100.169 88.5749 97.7253C87.2201 95.2819 86.5494 92.5182 86.6335 89.7256V85.8765C86.6335 84.9143 87.4583 84.1582 88.3518 84.1582H111.377C112.34 84.1582 113.096 84.9143 113.096 85.8765V89.7256C113.096 95.7054 110.14 101.135 105.398 103.61L105.329 104.091C105.192 104.641 105.192 104.641 105.329 104.984L105.741 106.222L105.948 107.115H93.8505Z" fill="white" stroke="#223948" stroke-width="1.07739"/>
<path d="M93.851 108.49C93.687 108.49 93.5296 108.425 93.4136 108.309C93.2976 108.193 93.2324 108.035 93.2324 107.871V106.771C93.2324 106.428 93.5074 106.153 93.9198 106.153H106.498C106.842 106.153 107.116 106.428 107.116 106.771V107.94C107.116 108.284 106.842 108.559 106.498 108.559H93.851V108.49Z" fill="white" stroke="#223948" stroke-width="1.07739"/>
<path d="M93.1634 111.446C92.6136 111.446 92.2012 111.033 92.2012 110.552V109.04C92.2012 108.49 92.6136 108.078 93.1634 108.078H107.185C107.735 108.078 108.147 108.49 108.147 109.04V110.552C108.147 111.033 107.735 111.446 107.185 111.446H93.1634Z" fill="white" stroke="#223948" stroke-width="1.07739"/>
<path d="M91.8577 114.607C91.3078 114.607 90.8267 114.195 90.8267 113.645V113.576L91.514 111.789C91.5827 111.514 91.8577 111.308 92.2013 111.308H108.216C108.491 111.308 108.766 111.514 108.835 111.789L109.522 113.576C109.522 114.195 109.041 114.607 108.491 114.607H91.8577Z" fill="white" stroke="#223948" stroke-width="1.07739"/>
<path d="M103.767 100.426C103.688 100.442 103.607 100.442 103.528 100.426L99.819 98.1529L96.1105 100.366C96.0135 100.424 95.9023 100.452 95.7897 100.449C95.677 100.447 95.5675 100.412 95.4737 100.349C95.38 100.287 95.3058 100.199 95.2597 100.096C95.2136 99.9933 95.1975 99.8795 95.2132 99.7679L95.9908 95.6407L93.1197 92.4705C93.0479 92.3907 92.999 92.2931 92.9779 92.1878C92.9569 92.0826 92.9645 91.9736 93.0001 91.8724C93.0001 91.6929 93.2393 91.5135 93.4786 91.5135H97.4862L99.2807 87.3862C99.3296 87.2851 99.4061 87.1998 99.5013 87.1401C99.5965 87.0805 99.7066 87.0488 99.819 87.0488C99.9314 87.0488 100.042 87.0805 100.137 87.1401C100.232 87.1998 100.308 87.2851 100.357 87.3862L102.152 91.5135H106.399C106.698 91.5135 106.877 91.6929 106.937 91.9322C106.997 92.1116 106.937 92.3509 106.758 92.5303L103.647 95.6407L104.365 99.7679C104.373 99.8514 104.364 99.9356 104.338 100.015C104.312 100.095 104.269 100.168 104.212 100.23C104.156 100.292 104.087 100.342 104.01 100.375C103.934 100.409 103.851 100.426 103.767 100.426Z" fill="white" stroke="#223948" stroke-width="0.861914"/>
</g>
<defs>
<clipPath id="clip0_8664_18286">
<rect width="124" height="122.092" fill="white" transform="translate(0 0.953857)"/>
</clipPath>
</defs>
</svg>
