<svg width="65" height="64" fill="none" xmlns="http://www.w3.org/2000/svg"><path fill-rule="evenodd" clip-rule="evenodd" d="m34.01 10.047-1.61.925-5.154-2.96a4 4 0 0 0-1.992-.532h-.002a4 4 0 0 0-1.993.532l-7.146 4.106a4 4 0 0 0-2.008 3.468v5.892l-5.142 2.955a4 4 0 0 0-2.007 3.469v8.212a4 4 0 0 0 2.007 3.468l5.14 2.953v5.879a4 4 0 0 0 2.008 3.468l7.148 4.106a4 4 0 0 0 3.985 0l5.156-2.96 5.154 2.96a4 4 0 0 0 3.985 0l7.15-4.106a4 4 0 0 0 2.008-3.468v-5.88l5.14-2.952a4 4 0 0 0 2.007-3.468v-8.212a4 4 0 0 0-2.008-3.469l-5.14-2.952V19.2h-4v4.596l7.148 4.106v8.212l-7.148 4.105v8.195l-7.15 4.106-7.146-4.106-7.149 4.106-7.148-4.106V40.22l-7.147-4.106v-8.212l7.146-4.107h.002l.002.001v-8.21l7.146-4.106h.002l7.147 4.105 2.686-1.543a9.547 9.547 0 0 1-1.077-3.995Z" fill="#000"/><path fill-rule="evenodd" clip-rule="evenodd" d="m34.115 11.094-1.714.985-5.634-3.235a3.04 3.04 0 0 0-1.514-.404h-.001a3.04 3.04 0 0 0-1.515.404l-7.146 4.106a3.04 3.04 0 0 0-1.526 2.636v6.448l-5.624 3.232a3.04 3.04 0 0 0-1.525 2.636v8.212A3.04 3.04 0 0 0 9.44 38.75l5.622 3.23v6.434a3.04 3.04 0 0 0 1.526 2.636l7.148 4.106a3.04 3.04 0 0 0 3.028 0L32.4 51.92l5.633 3.236a3.04 3.04 0 0 0 3.028 0l7.15-4.106a3.04 3.04 0 0 0 1.526-2.636v-6.435l5.621-3.23a3.04 3.04 0 0 0 1.526-2.635v-8.212a3.04 3.04 0 0 0-1.526-2.637l-5.621-3.228V19.2h-3.04v4.596l7.147 4.105v8.213l-7.148 4.105v8.195l-7.15 4.106-7.146-4.106-7.149 4.106-7.148-4.106V40.22l-7.147-4.106v-8.212l7.146-4.107h.002l.002.001v-8.21l7.146-4.106h.002l7.147 4.105 2.686-1.543a9.537 9.537 0 0 1-.972-2.948Z" fill="#57AFD6"/><path fill-rule="evenodd" clip-rule="evenodd" d="m34.272 11.88-1.871 1.076-6.012-3.453a2.28 2.28 0 0 0-1.136-.303h-.001c-.399 0-.79.105-1.136.303L16.97 13.61a2.28 2.28 0 0 0-1.144 1.976v6.888l-6.006 3.45a2.28 2.28 0 0 0-1.144 1.978v8.212c0 .816.436 1.57 1.144 1.977l6.003 3.448v6.875c0 .816.437 1.57 1.145 1.977l7.148 4.106a2.28 2.28 0 0 0 2.27 0l6.014-3.453 6.011 3.453a2.28 2.28 0 0 0 2.271 0l7.15-4.106a2.28 2.28 0 0 0 1.145-1.977v-6.875l6.003-3.448a2.28 2.28 0 0 0 1.144-1.977v-8.212a2.28 2.28 0 0 0-1.144-1.978l-6.003-3.447V19.2h-2.28v4.596l7.147 4.106v8.212l-7.148 4.105v8.195l-7.15 4.106-7.146-4.106-7.149 4.106-7.148-4.106V40.22l-7.147-4.106v-8.212l7.146-4.107h.002l.002.001v-8.21l7.146-4.106h.002l7.147 4.105 2.686-1.543a9.533 9.533 0 0 1-.815-2.162Z" fill="#80CFF3"/><path fill-rule="evenodd" clip-rule="evenodd" d="m34.489 12.632-2.088 1.2-6.39-3.67a1.52 1.52 0 0 0-.758-.202h-.001c-.266 0-.527.07-.758.202l-7.146 4.106a1.52 1.52 0 0 0-.762 1.318v7.328l-6.388 3.67a1.52 1.52 0 0 0-.762 1.318v8.212c0 .544.29 1.047.762 1.318l6.385 3.668v7.314c0 .544.291 1.047.763 1.318l7.148 4.106a1.52 1.52 0 0 0 1.514 0l6.392-3.67 6.39 3.67a1.52 1.52 0 0 0 1.514 0l7.15-4.106a1.52 1.52 0 0 0 .763-1.318v-7.315l6.384-3.667a1.52 1.52 0 0 0 .763-1.318v-8.212a1.52 1.52 0 0 0-.763-1.318l-6.384-3.667V19.2h-1.52v4.596l7.147 4.106v8.212l-7.148 4.105v8.195l-7.15 4.106-7.146-4.106-7.149 4.106-7.148-4.106V40.22l-7.147-4.106v-8.212l7.146-4.107h.002l.002.002v-8.21l7.146-4.107h.002l7.147 4.105 2.686-1.543a9.543 9.543 0 0 1-.598-1.41Z" fill="#F2E8C0"/><path fill-rule="evenodd" clip-rule="evenodd" d="m34.761 13.352-2.36 1.357-6.769-3.888a.76.76 0 0 0-.379-.1h-.001a.76.76 0 0 0-.379.1l-7.146 4.106a.76.76 0 0 0-.381.66v7.767l-6.769 3.889a.76.76 0 0 0-.381.659v8.212a.76.76 0 0 0 .381.659l6.766 3.887v7.754a.76.76 0 0 0 .382.659l7.148 4.106a.76.76 0 0 0 .757 0l6.77-3.888 6.768 3.888a.76.76 0 0 0 .757 0l7.15-4.106a.76.76 0 0 0 .381-.66V40.66l6.767-3.886a.76.76 0 0 0 .381-.66v-8.211a.76.76 0 0 0-.381-.66l-6.767-3.886V19.2h-.76v4.596l7.148 4.106v8.212l-7.148 4.105v8.195l-7.15 4.106-7.146-4.106-7.149 4.106-7.148-4.106V40.22l-7.147-4.106v-8.212l7.146-4.107h.002l.002.001v-8.21l7.146-4.106h.002l7.147 4.105 2.686-1.543a9.537 9.537 0 0 1-.326-.69Z" fill="#E0B66C"/><path fill-rule="evenodd" clip-rule="evenodd" d="M35.087 14.042 32.4 15.586v8.212l7.148 4.107 7.148-4.107V19.2H43.6a9.6 9.6 0 0 1-8.513-5.158Z" fill="#A1B802"/><path fill-rule="evenodd" clip-rule="evenodd" d="M35.087 14.042 32.4 15.586V23.8l7.148 4.106 7.15-4.107V19.2h-1.2v3.91l-5.95 3.42-5.951-3.42v-6.836l2.109-1.212a9.614 9.614 0 0 1-.618-1.02Z" fill="#4F7301"/><path fill-rule="evenodd" clip-rule="evenodd" d="M35.087 14.042 32.4 15.586v8.212l7.148 4.107 7.15-4.107V19.2h-1.034v4.005l-6.116 3.514-6.118-3.514V16.18l2.182-1.254a9.61 9.61 0 0 1-.524-.883Z" fill="#CED501"/><path fill-rule="evenodd" clip-rule="evenodd" d="M35.087 14.042 32.4 15.586V23.8l7.148 4.106 7.15-4.107V19.2h-.539v4.292l-6.611 3.796-6.612-3.796v-7.598l2.413-1.386a9.573 9.573 0 0 1-.26-.466Z" fill="#849E01"/><path fill-rule="evenodd" clip-rule="evenodd" d="M35.087 14.042 32.4 15.586v8.212l7.148 4.107 7.15-4.107V19.2h-.456v4.338l-6.694 3.845-6.695-3.845v-7.691l2.454-1.41a9.607 9.607 0 0 1-.219-.395Z" fill="#000"/><path d="M10.956 27.902v8.212l7.148 4.106 7.147-4.106v-8.212l-7.147-4.107-7.148 4.107Z" fill="#1F9D35"/><path d="m18.104 25.17 5.95 3.42v6.836l-5.95 3.419-5.951-3.419V28.59l5.95-3.419Zm0-1.375-7.148 4.107v8.212l7.148 4.106 7.15-4.106v-8.212l-7.15-4.107Z" fill="#4F7301"/><path d="m18.104 24.98 6.116 3.514v7.026l-6.116 3.514-6.118-3.514v-7.026l6.116-3.513h.002Zm-.002-1.185-7.146 4.107v8.212l7.148 4.106 7.15-4.106v-8.212l-7.15-4.107h-.002Z" fill="#5EC148"/><path d="m18.104 24.41 6.61 3.798v7.6l-6.61 3.795-6.613-3.796V28.21l6.613-3.799Zm0-.615-7.148 4.107v8.212l7.148 4.106 7.15-4.106v-8.212l-7.15-4.107Z" fill="#1D5728"/><mask id="a" fill="#fff"><path d="m18.104 24.317 6.694 3.845v7.691l-6.694 3.846-6.695-3.846v-7.69l6.694-3.846Zm-.001-.522-7.147 4.107v8.212l7.148 4.106 7.15-4.106v-8.212l-7.15-4.107h-.001Z"/></mask><path d="m18.104 24.317 6.694 3.845v7.691l-6.694 3.846-6.695-3.846v-7.69l6.694-3.846Zm-.001-.522-7.147 4.107v8.212l7.148 4.106 7.15-4.106v-8.212l-7.15-4.107h-.001Z" fill="#E0B568" stroke="#000" stroke-width=".715" mask="url(#a)"/><path d="M39.547 27.902v8.212l7.148 4.106 7.147-4.106v-8.212l-7.147-4.107-7.148 4.107Z" fill="#1F9D35"/><path d="m46.695 25.17 5.95 3.42v6.836l-5.95 3.419-5.951-3.419V28.59l5.95-3.419Zm0-1.375-7.148 4.107v8.212l7.148 4.106 7.15-4.106v-8.212l-7.15-4.107Z" fill="#4F7301"/><path d="m46.695 24.98 6.115 3.514v7.026l-6.115 3.514-6.118-3.514v-7.026l6.116-3.513h.002Zm-.002-1.185-7.146 4.107v8.212l7.148 4.106 7.15-4.106v-8.212l-7.15-4.107h-.002Z" fill="#5EC148"/><path d="m46.695 24.41 6.61 3.798v7.6l-6.61 3.795-6.613-3.796V28.21l6.613-3.799Zm0-.615-7.148 4.107v8.212l7.148 4.106 7.15-4.106v-8.212l-7.15-4.107Z" fill="#1D5728"/><mask id="b" fill="#fff"><path d="m46.695 24.317 6.694 3.845v7.691l-6.694 3.846L40 35.853v-7.69l6.694-3.846Zm-.001-.522-7.147 4.107v8.212l7.148 4.106 7.15-4.106v-8.212l-7.15-4.107h-.001Z"/></mask><path d="m46.695 24.317 6.694 3.845v7.691l-6.694 3.846L40 35.853v-7.69l6.694-3.846Zm-.001-.522-7.147 4.107v8.212l7.148 4.106 7.15-4.106v-8.212l-7.15-4.107h-.001Z" fill="#E0B568" stroke="#000" stroke-width=".715" mask="url(#b)"/><path d="M32.399 40.202v8.212l7.148 4.106 7.148-4.106v-8.212l-7.148-4.107-7.148 4.107Z" fill="#FEC53C"/><path d="m39.547 37.47 5.95 3.42v6.836l-5.95 3.419-5.951-3.419V40.89l5.95-3.419Zm0-1.375-7.148 4.107v8.212l7.148 4.106 7.15-4.106v-8.212l-7.15-4.107Z" fill="#A3710A"/><path d="m39.547 37.28 6.116 3.514v7.027l-6.116 3.513-6.118-3.514v-7.026l6.116-3.513h.002Zm-.002-1.185L32.4 40.202v8.212l7.148 4.106 7.15-4.106v-8.212l-7.15-4.107h-.002Z" fill="#FFD867"/><path d="m39.547 36.71 6.611 3.798v7.6l-6.611 3.795-6.612-3.795V40.51l6.612-3.8Zm0-.615-7.148 4.107v8.212l7.148 4.106 7.15-4.106v-8.212l-7.15-4.107Z" fill="#966502"/><mask id="c" fill="#fff"><path d="m39.547 36.617 6.694 3.845v7.691l-6.694 3.846-6.695-3.846v-7.69l6.694-3.846Zm0-.522-7.148 4.107v8.212l7.148 4.106 7.15-4.106v-8.212l-7.15-4.107Z"/></mask><path d="m39.547 36.617 6.694 3.845v7.691l-6.694 3.846-6.695-3.846v-7.69l6.694-3.846Zm0-.522-7.148 4.107v8.212l7.148 4.106 7.15-4.106v-8.212l-7.15-4.107Z" fill="#E0B568" stroke="#000" stroke-width=".715" mask="url(#c)"/><path d="M18.104 40.202v8.212l7.147 4.106 7.148-4.106v-8.212l-7.148-4.107-7.148 4.107Z" fill="#B7BDB9"/><path d="m25.251 37.47 5.951 3.42v6.836l-5.95 3.419-5.952-3.419V40.89l5.951-3.419Zm0-1.375-7.148 4.107v8.212l7.148 4.106 7.15-4.106v-8.212l-7.15-4.107Z" fill="#696C6A"/><path d="m25.251 37.28 6.116 3.514v7.027l-6.116 3.513-6.117-3.514v-7.026l6.116-3.513h.001Zm-.001-1.185-7.146 4.107v8.212l7.147 4.106 7.15-4.106v-8.212l-7.15-4.107h-.001Z" fill="#C2C7C4"/><path d="m25.251 36.71 6.611 3.798v7.6l-6.61 3.795-6.613-3.796V40.51l6.612-3.8Zm0-.615-7.148 4.107v8.212l7.148 4.106 7.15-4.106v-8.212l-7.15-4.107Z" fill="#636664"/><mask id="d" fill="#fff"><path d="m25.251 36.617 6.694 3.845v7.69l-6.694 3.846-6.694-3.845v-7.69l6.694-3.846Zm0-.522-7.148 4.107v8.212l7.148 4.106 7.15-4.106v-8.212l-7.15-4.107Z"/></mask><path d="m25.251 36.617 6.694 3.845v7.69l-6.694 3.846-6.694-3.845v-7.69l6.694-3.846Zm0-.522-7.148 4.107v8.212l7.148 4.106 7.15-4.106v-8.212l-7.15-4.107Z" fill="#E0B568" stroke="#000" stroke-width=".715" mask="url(#d)"/><path d="M18.105 15.586V23.8l7.148 4.106 7.148-4.107v-8.212l-7.148-4.106-7.148 4.106Z" fill="#E36529"/><path d="m25.253 12.855 5.951 3.419v6.837l-5.95 3.419-5.952-3.419v-6.837l5.951-3.419Zm0-1.375-7.148 4.106V23.8l7.148 4.106 7.15-4.107v-8.212l-7.15-4.106Z" fill="#C01A23"/><path d="m25.253 12.665 6.116 3.514v7.026l-6.116 3.514-6.117-3.514V16.18l6.116-3.514h.001Zm-.001-1.185-7.146 4.106V23.8l7.147 4.106 7.15-4.107v-8.212l-7.15-4.106h-.001Z" fill="#F9AB44"/><path d="m25.253 12.095 6.611 3.798v7.6l-6.61 3.795-6.613-3.796v-7.598l6.612-3.799Zm0-.615-7.148 4.106V23.8l7.148 4.106 7.15-4.107v-8.212l-7.15-4.106Z" fill="#BE1622"/><mask id="e" fill="#fff"><path d="m25.253 12.002 6.694 3.845v7.69l-6.694 3.846-6.694-3.845v-7.69l6.694-3.846Zm0-.522-7.148 4.106V23.8l7.148 4.106 7.15-4.107v-8.212l-7.15-4.106Z"/></mask><path d="m25.253 12.002 6.694 3.845v7.69l-6.694 3.846-6.694-3.845v-7.69l6.694-3.846Zm0-.522-7.148 4.106V23.8l7.148 4.106 7.15-4.107v-8.212l-7.15-4.106Z" fill="#E0B568" stroke="#000" stroke-width=".715" mask="url(#e)"/><path d="M25.251 27.902v8.212L32.4 40.22l7.148-4.106v-8.212l-7.148-4.107-7.148 4.107Z" fill="#D9D295"/><path d="m32.4 25.17 5.95 3.42v6.836l-5.95 3.419-5.952-3.419V28.59L32.4 25.17Zm0-1.375-7.149 4.107v8.212L32.4 40.22l7.15-4.106v-8.212l-7.15-4.107Z" fill="#887E53"/><path d="m32.4 24.98 6.115 3.514v7.026l-6.116 3.514-6.118-3.514v-7.026l6.117-3.513h.001Zm-.002-1.185-7.147 4.107v8.212L32.4 40.22l7.15-4.106v-8.212l-7.15-4.107h-.002Z" fill="#DACC9B"/><path d="m32.4 24.41 6.61 3.798v7.6l-6.61 3.795-6.613-3.796V28.21l6.612-3.799Zm0-.615-7.149 4.107v8.212L32.4 40.22l7.15-4.106v-8.212l-7.15-4.107Z" fill="#877D52"/><mask id="f" fill="#fff"><path d="m32.4 24.317 6.693 3.845v7.691l-6.694 3.846-6.695-3.846v-7.69l6.694-3.846h.001Zm-.002-.522-7.147 4.107v8.212L32.4 40.22l7.15-4.106v-8.212l-7.15-4.107Z"/></mask><path d="m32.4 24.317 6.693 3.845v7.691l-6.694 3.846-6.695-3.846v-7.69l6.694-3.846h.001Zm-.002-.522-7.147 4.107v8.212L32.4 40.22l7.15-4.106v-8.212l-7.15-4.107Z" fill="#E0B568" stroke="#000" stroke-width=".715" mask="url(#f)"/><path fill-rule="evenodd" clip-rule="evenodd" d="M44.19 1.6h10.02c4.744 0 8.59 3.582 8.59 8s-3.846 8-8.59 8H44.19c-4.744 0-8.59-3.582-8.59-8s3.846-8 8.59-8Z" fill="#090909"/><path d="m41.805 13.883 3.208-7.047H40.8V5.31h6.13V6.45l-3.232 7.434h-1.893ZM47.684 11.397V9.93h3.138v1.466h-3.138ZM54.608 5.2c.491 0 .943.076 1.356.229.417.152.75.383 1 .691.248.305.373.688.373 1.15 0 .344-.068.644-.204.902a2.216 2.216 0 0 1-.544.68c-.23.192-.49.36-.783.505.304.16.592.348.865.563.273.21.495.459.666.744.175.285.263.618.263.997 0 .477-.127.89-.38 1.243-.253.348-.604.617-1.052.809-.448.191-.968.287-1.56.287-.639 0-1.182-.092-1.63-.275-.448-.184-.789-.446-1.023-.786-.233-.344-.35-.755-.35-1.231 0-.391.072-.731.216-1.02a2.35 2.35 0 0 1 .596-.745c.25-.211.524-.39.824-.54a4.331 4.331 0 0 1-.696-.545 2.45 2.45 0 0 1-.496-.697 2.135 2.135 0 0 1-.181-.903c0-.454.126-.833.38-1.138a2.344 2.344 0 0 1 1.01-.685 3.813 3.813 0 0 1 1.35-.235Zm-1.332 6.402c0 .309.109.565.327.768.222.2.55.3.982.3.448 0 .783-.097 1.005-.288a.974.974 0 0 0 .333-.768.905.905 0 0 0-.193-.575 1.975 1.975 0 0 0-.473-.44 8.436 8.436 0 0 0-.579-.369l-.157-.082c-.25.114-.468.24-.655.381-.183.141-.327.3-.432.475a1.143 1.143 0 0 0-.158.598Zm1.32-5.077c-.296 0-.541.076-.736.229-.195.152-.292.367-.292.645 0 .195.047.367.14.515.098.145.224.272.38.382.16.109.333.21.52.304.18-.086.347-.181.503-.287.156-.105.282-.232.38-.38a.952.952 0 0 0 .146-.534c0-.278-.1-.493-.298-.645-.195-.153-.442-.229-.742-.229Z" fill="#fff"/></svg>