<svg width="65" height="64" fill="none" xmlns="http://www.w3.org/2000/svg"><mask id="a" maskUnits="userSpaceOnUse" x="7.4" y="11.275" width="50" height="41" fill="#000"><path fill="#fff" d="M7.4 11.275h50v41h-50z"/><path d="M32.382 12.275a.537.537 0 0 0-.401.188l-4.23 5.061h-2.133l-.018-.017a.507.507 0 0 0-.505.502v4.56a.5.5 0 0 0 .099.298l.965 1.338a.504.504 0 0 0 .18.162l.007.003v10.222h-.92v-2.009a.5.5 0 0 0-.505-.502H22.14l-.112-2.578.863-1.197a.5.5 0 0 0 .099-.3v-4.564a.5.5 0 0 0-.505-.502H20.3l-4.253-5.079a.546.546 0 0 0-.402-.186l.015.003a.52.52 0 0 0-.399.186l-4.25 5.074H8.904v-.003a.507.507 0 0 0-.505.503v4.569c0 .108.035.213.099.301l.863 1.195-.96 21.687a.5.5 0 0 0 .31.492.526.526 0 0 0 .206.043h13.54a.51.51 0 0 0 .057-.003h6.92l.06.003h5.81c.02 0 .04 0 .06-.003h6.92a.54.54 0 0 0 .034.003h13.576a.507.507 0 0 0 .505-.502v-.033l-.96-21.682.864-1.197a.5.5 0 0 0 .096-.299V23.44a.5.5 0 0 0-.505-.502H53.79l-2.966-3.544h-3.35l-2.973 3.544h-2.14l-.01-.008a.507.507 0 0 0-.506.503v4.569c0 .108.035.213.099.301l.861 1.195-.114 2.583h-2.785a.506.506 0 0 0-.505.502v2.009h-.933V24.346a.504.504 0 0 0 .139-.13l.965-1.339a.5.5 0 0 0 .098-.299v-3.984l-.968-.5-.897-.57h-.765l-4.252-5.06a.52.52 0 0 0-.407-.19Z"/></mask><path d="M32.382 12.275a.537.537 0 0 0-.401.188l-4.23 5.061h-2.133l-.018-.017a.507.507 0 0 0-.505.502v4.56a.5.5 0 0 0 .099.298l.965 1.338a.504.504 0 0 0 .18.162l.007.003v10.222h-.92v-2.009a.5.5 0 0 0-.505-.502H22.14l-.112-2.578.863-1.197a.5.5 0 0 0 .099-.3v-4.564a.5.5 0 0 0-.505-.502H20.3l-4.253-5.079a.546.546 0 0 0-.402-.186l.015.003a.52.52 0 0 0-.399.186l-4.25 5.074H8.904v-.003a.507.507 0 0 0-.505.503v4.569c0 .108.035.213.099.301l.863 1.195-.96 21.687a.5.5 0 0 0 .31.492.526.526 0 0 0 .206.043h13.54a.51.51 0 0 0 .057-.003h6.92l.06.003h5.81c.02 0 .04 0 .06-.003h6.92a.54.54 0 0 0 .034.003h13.576a.507.507 0 0 0 .505-.502v-.033l-.96-21.682.864-1.197a.5.5 0 0 0 .096-.299V23.44a.5.5 0 0 0-.505-.502H53.79l-2.966-3.544h-3.35l-2.973 3.544h-2.14l-.01-.008a.507.507 0 0 0-.506.503v4.569c0 .108.035.213.099.301l.861 1.195-.114 2.583h-2.785a.506.506 0 0 0-.505.502v2.009h-.933V24.346a.504.504 0 0 0 .139-.13l.965-1.339a.5.5 0 0 0 .098-.299v-3.984l-.968-.5-.897-.57h-.765l-4.252-5.06a.52.52 0 0 0-.407-.19Z" stroke="#000" stroke-width=".4" mask="url(#a)"/><mask id="b" fill="#fff"><path d="M10.768 25.91a.268.268 0 0 1-.253-.25l-.101-1.507a.276.276 0 0 1 .066-.191l4.98-5.95a.267.267 0 0 1 .315-.069c.035.016.066.04.092.069l5.003 5.953a.275.275 0 0 1 .053.236l-.36 1.506a.27.27 0 0 1-.253.203h-9.542Z"/></mask><path d="M10.768 25.91a.268.268 0 0 1-.253-.25l-.101-1.507a.276.276 0 0 1 .066-.191l4.98-5.95a.267.267 0 0 1 .315-.069c.035.016.066.04.092.069l5.003 5.953a.275.275 0 0 1 .053.236l-.36 1.506a.27.27 0 0 1-.253.203h-9.542Z" fill="#81635E" stroke="#000" stroke-width=".4" mask="url(#b)"/><path d="m15.662 18.183 4.993 5.952-.36 1.507h-9.528l-.099-1.507h-.007l5-5.955v.003Zm0-.505a.518.518 0 0 0-.4.186l-4.993 5.96a.542.542 0 0 0-.113.359l.1 1.506a.516.516 0 0 0 .506.485h9.52a.53.53 0 0 0 .505-.4l.36-1.506a.54.54 0 0 0-.105-.444l-4.994-5.963a.546.546 0 0 0-.401-.186l.015.003Z" fill="#000"/><mask id="c" fill="#fff"><path d="M27.495 20.52a.274.274 0 0 1-.265-.25l-.099-1.507a.273.273 0 0 1 .058-.181l4.996-5.96a.271.271 0 0 1 .381-.028l.028.028 4.991 5.955a.276.276 0 0 1 .056.23l-.361 1.507a.274.274 0 0 1-.253.204l-9.532.002Z"/></mask><path d="M27.495 20.52a.274.274 0 0 1-.265-.25l-.099-1.507a.273.273 0 0 1 .058-.181l4.996-5.96a.271.271 0 0 1 .381-.028l.028.028 4.991 5.955a.276.276 0 0 1 .056.23l-.361 1.507a.274.274 0 0 1-.253.204l-9.532.002Z" fill="#81635E" stroke="#000" stroke-width=".4" mask="url(#c)"/><path d="m32.383 12.777 4.99 5.955-.36 1.507h-9.518l-.1-1.507 4.988-5.955Zm0-.502a.538.538 0 0 0-.402.188l-4.976 5.953a.525.525 0 0 0-.12.366l.098 1.507a.516.516 0 0 0 .52.482h9.527a.528.528 0 0 0 .505-.397l.361-1.506a.521.521 0 0 0-.106-.452l-5-5.953a.52.52 0 0 0-.407-.188Z" fill="#000"/><path fill-rule="evenodd" clip-rule="evenodd" d="m47.958 19.2-4 4.77a.285.285 0 0 0-.058.183l.1 1.506a.265.265 0 0 0 .254.251h9.544a.274.274 0 0 0 .253-.203l.359-1.506a.273.273 0 0 0-.053-.236L50.36 19.2h-2.402Z" fill="#81635E"/><path fill-rule="evenodd" clip-rule="evenodd" d="m47.64 19.2-3.891 4.636a.518.518 0 0 0-.122.364l.099 1.507a.519.519 0 0 0 .528.484h9.527a.527.527 0 0 0 .505-.397l.364-1.506a.54.54 0 0 0-.106-.452L50.662 19.2h-.66l4.14 4.935-.364 1.524h-9.524l-.101-1.506 4.152-4.953h-.665Z" fill="#000"/><mask id="d" fill="#fff"><path d="M37.962 23.605H26.836a.254.254 0 0 0-.255.254v10.798c0 .14.114.254.255.254h11.126c.14 0 .255-.114.255-.254V23.86a.254.254 0 0 0-.255-.254Z"/></mask><path d="M37.962 23.605H26.836a.254.254 0 0 0-.255.254v10.798c0 .14.114.254.255.254h11.126c.14 0 .255-.114.255-.254V23.86a.254.254 0 0 0-.255-.254Z" fill="#E0E0E0"/><path d="M37.962 23.605H26.836a.254.254 0 0 0-.255.254v10.798c0 .14.114.254.255.254h11.126c.14 0 .255-.114.255-.254V23.86a.254.254 0 0 0-.255-.254Z" fill="#000" fill-opacity=".1"/><path d="M37.962 23.605H26.836a.254.254 0 0 0-.255.254v10.798c0 .14.114.254.255.254h11.126c.14 0 .255-.114.255-.254V23.86a.254.254 0 0 0-.255-.254Z" stroke="#000" stroke-width=".4" mask="url(#d)"/><path d="M37.965 23.861v10.796H26.85V23.86h11.114Zm0-.502H26.85a.507.507 0 0 0-.505.502v10.796a.5.5 0 0 0 .505.502h11.114a.506.506 0 0 0 .505-.502V23.86a.5.5 0 0 0-.505-.502Z" fill="#000"/><mask id="e" maskUnits="userSpaceOnUse" x="20.638" y="31.33" width="23" height="21" fill="#000"><path fill="#fff" d="M20.638 31.33h23v21h-23z"/><path d="M22.459 51.459a.253.253 0 0 1-.253-.251l-.568-18.627a.25.25 0 0 1 .252-.251h3.006a.253.253 0 0 1 .252.251v2.26h2.493v-2.26a.25.25 0 0 1 .253-.251H30.9a.253.253 0 0 1 .252.251v2.26h2.493v-2.26a.25.25 0 0 1 .253-.251h3.005a.253.253 0 0 1 .253.251v2.26h2.493v-2.26a.25.25 0 0 1 .252-.251h3.016a.254.254 0 0 1 .253.251l-.576 18.632a.25.25 0 0 1-.253.25L22.46 51.46Z"/></mask><path d="M22.459 51.459a.253.253 0 0 1-.253-.251l-.568-18.627a.25.25 0 0 1 .252-.251h3.006a.253.253 0 0 1 .252.251v2.26h2.493v-2.26a.25.25 0 0 1 .253-.251H30.9a.253.253 0 0 1 .252.251v2.26h2.493v-2.26a.25.25 0 0 1 .253-.251h3.005a.253.253 0 0 1 .253.251v2.26h2.493v-2.26a.25.25 0 0 1 .252-.251h3.016a.254.254 0 0 1 .253.251l-.576 18.632a.25.25 0 0 1-.253.25L22.46 51.46Z" fill="#E0E0E0"/><path d="M22.459 51.459a.253.253 0 0 1-.253-.251l-.568-18.627a.25.25 0 0 1 .252-.251h3.006a.253.253 0 0 1 .252.251v2.26h2.493v-2.26a.25.25 0 0 1 .253-.251H30.9a.253.253 0 0 1 .252.251v2.26h2.493v-2.26a.25.25 0 0 1 .253-.251h3.005a.253.253 0 0 1 .253.251v2.26h2.493v-2.26a.25.25 0 0 1 .252-.251h3.016a.254.254 0 0 1 .253.251l-.576 18.632a.25.25 0 0 1-.253.25L22.46 51.46Z" fill="#000" fill-opacity=".1"/><path d="M22.459 51.459a.253.253 0 0 1-.253-.251l-.568-18.627a.25.25 0 0 1 .252-.251h3.006a.253.253 0 0 1 .252.251v2.26h2.493v-2.26a.25.25 0 0 1 .253-.251H30.9a.253.253 0 0 1 .252.251v2.26h2.493v-2.26a.25.25 0 0 1 .253-.251h3.005a.253.253 0 0 1 .253.251v2.26h2.493v-2.26a.25.25 0 0 1 .252-.251h3.016a.254.254 0 0 1 .253.251l-.576 18.632a.25.25 0 0 1-.253.25L22.46 51.46Z" stroke="#000" stroke-width=".4" mask="url(#e)"/><path d="m42.918 32.578-.579 18.632H22.454l-.568-18.627h3.003v2.51h3.006v-2.51H30.9v2.51h2.998v-2.51h3.006v2.51h3.003v-2.51h3.006l.005-.005Zm-.005-.497h-3.006a.507.507 0 0 0-.505.502v2.009h-1.968v-2.009a.5.5 0 0 0-.505-.502h-3.005a.507.507 0 0 0-.506.502v2.009h-1.992v-2.009a.5.5 0 0 0-.506-.502h-3.005a.507.507 0 0 0-.505.502v2.009h-1.983v-2.009a.5.5 0 0 0-.505-.502H21.89a.507.507 0 0 0-.505.522l.576 18.617a.5.5 0 0 0 .505.502h19.885a.507.507 0 0 0 .505-.502l.569-18.61v-.042a.5.5 0 0 0-.506-.502l-.007.015Z" fill="#000"/><mask id="f" maskUnits="userSpaceOnUse" x="7.645" y="22.186" width="16" height="30" fill="#000"><path fill="#fff" d="M7.645 22.186h16v30h-16z"/><path d="M8.905 51.464a.254.254 0 0 1-.252-.284l.954-21.755-.914-1.268a.272.272 0 0 1-.048-.15v-4.57a.25.25 0 0 1 .253-.251h2.707a.253.253 0 0 1 .253.251v2.41h2.2v-2.41a.25.25 0 0 1 .252-.251h2.71a.255.255 0 0 1 .256.254v2.41h2.202v-2.41a.25.25 0 0 1 .253-.251h2.727a.253.253 0 0 1 .253.25v4.563a.25.25 0 0 1-.05.15l-.912 1.273.962 21.765a.249.249 0 0 1-.137.245.256.256 0 0 1-.095.026H8.905v.003Z"/></mask><path d="M8.905 51.464a.254.254 0 0 1-.252-.284l.954-21.755-.914-1.268a.272.272 0 0 1-.048-.15v-4.57a.25.25 0 0 1 .253-.251h2.707a.253.253 0 0 1 .253.251v2.41h2.2v-2.41a.25.25 0 0 1 .252-.251h2.71a.255.255 0 0 1 .256.254v2.41h2.202v-2.41a.25.25 0 0 1 .253-.251h2.727a.253.253 0 0 1 .253.25v4.563a.25.25 0 0 1-.05.15l-.912 1.273.962 21.765a.249.249 0 0 1-.137.245.256.256 0 0 1-.095.026H8.905v.003Z" fill="#E0E0E0"/><path d="M8.905 51.464a.254.254 0 0 1-.252-.284l.954-21.755-.914-1.268a.272.272 0 0 1-.048-.15v-4.57a.25.25 0 0 1 .253-.251h2.707a.253.253 0 0 1 .253.251v2.41h2.2v-2.41a.25.25 0 0 1 .252-.251h2.71a.255.255 0 0 1 .256.254v2.41h2.202v-2.41a.25.25 0 0 1 .253-.251h2.727a.253.253 0 0 1 .253.25v4.563a.25.25 0 0 1-.05.15l-.912 1.273.962 21.765a.249.249 0 0 1-.137.245.256.256 0 0 1-.095.026H8.905v.003Z" fill="#000" fill-opacity=".05"/><path d="M8.905 51.464a.254.254 0 0 1-.252-.284l.954-21.755-.914-1.268a.272.272 0 0 1-.048-.15v-4.57a.25.25 0 0 1 .253-.251h2.707a.253.253 0 0 1 .253.251v2.41h2.2v-2.41a.25.25 0 0 1 .252-.251h2.71a.255.255 0 0 1 .256.254v2.41h2.202v-2.41a.25.25 0 0 1 .253-.251h2.727a.253.253 0 0 1 .253.25v4.563a.25.25 0 0 1-.05.15l-.912 1.273.962 21.765a.249.249 0 0 1-.137.245.256.256 0 0 1-.095.026H8.905v.003Z" stroke="#000" stroke-width=".4" mask="url(#f)"/><path d="M8.908 23.438h2.707V26.1h2.713v-2.663h2.71V26.1h2.715v-2.659h2.705v4.562l-.967 1.344.967 21.862H8.905l.967-21.862-.967-1.339v-4.572h.003Zm-.003-.503a.507.507 0 0 0-.505.503v4.569c0 .108.035.213.098.301l.864 1.195-.96 21.687a.5.5 0 0 0 .31.492.525.525 0 0 0 .206.043h13.54a.525.525 0 0 0 .486-.335.5.5 0 0 0 .03-.2l-.948-21.687.864-1.197a.501.501 0 0 0 .099-.3v-4.564a.5.5 0 0 0-.505-.502h-2.73a.506.506 0 0 0-.506.502v2.155h-1.692v-2.152a.5.5 0 0 0-.505-.502h-2.723a.507.507 0 0 0-.505.502v2.137h-1.69V23.44a.5.5 0 0 0-.505-.502H8.905v-.003Z" fill="#000"/><mask id="g" maskUnits="userSpaceOnUse" x="41.087" y="22.188" width="16" height="30" fill="#000"><path fill="#fff" d="M41.087 22.188h16v30h-16z"/><path d="M42.349 51.458a.284.284 0 0 1-.195-.085.25.25 0 0 1-.065-.196l.962-21.752-.917-1.268v-.023a.25.25 0 0 1-.035-.128V23.44a.25.25 0 0 1 .253-.25h2.707a.253.253 0 0 1 .253.25v2.408h2.202v-2.408a.25.25 0 0 1 .253-.25h2.727a.254.254 0 0 1 .256.253v2.407h2.2v-2.407a.25.25 0 0 1 .252-.251h2.708a.255.255 0 0 1 .255.253v4.562a.285.285 0 0 1-.033.128l-.015.023-.927 1.268.965 21.765a.249.249 0 0 1-.137.244.255.255 0 0 1-.096.027h-.02l-13.553-.003Z"/></mask><path d="M42.349 51.458a.284.284 0 0 1-.195-.085.25.25 0 0 1-.065-.196l.962-21.752-.917-1.268v-.023a.25.25 0 0 1-.035-.128V23.44a.25.25 0 0 1 .253-.25h2.707a.253.253 0 0 1 .253.25v2.408h2.202v-2.408a.25.25 0 0 1 .253-.25h2.727a.254.254 0 0 1 .256.253v2.407h2.2v-2.407a.25.25 0 0 1 .252-.251h2.708a.255.255 0 0 1 .255.253v4.562a.285.285 0 0 1-.033.128l-.015.023-.927 1.268.965 21.765a.249.249 0 0 1-.137.244.255.255 0 0 1-.096.027h-.02l-13.553-.003Z" fill="#E0E0E0"/><path d="M42.349 51.458a.284.284 0 0 1-.195-.085.25.25 0 0 1-.065-.196l.962-21.752-.917-1.268v-.023a.25.25 0 0 1-.035-.128V23.44a.25.25 0 0 1 .253-.25h2.707a.253.253 0 0 1 .253.25v2.408h2.202v-2.408a.25.25 0 0 1 .253-.25h2.727a.254.254 0 0 1 .256.253v2.407h2.2v-2.407a.25.25 0 0 1 .252-.251h2.708a.255.255 0 0 1 .255.253v4.562a.285.285 0 0 1-.033.128l-.015.023-.927 1.268.965 21.765a.249.249 0 0 1-.137.244.255.255 0 0 1-.096.027h-.02l-13.553-.003Z" stroke="#000" stroke-width=".4" mask="url(#g)"/><path d="M42.352 23.433h2.705v2.663h2.71v-2.658h2.728V26.1h2.71v-2.663h2.708v4.561l-.968 1.349.968 21.842H42.349l.97-21.842-.965-1.338v-4.577h-.002Zm0-.503a.506.506 0 0 0-.505.503v4.569c0 .108.035.213.098.301l.861 1.195-.96 21.692a.501.501 0 0 0 .473.535h13.576a.506.506 0 0 0 .505-.502v-.033l-.96-21.682.864-1.197a.5.5 0 0 0 .096-.299V23.44a.5.5 0 0 0-.505-.502h-2.7a.507.507 0 0 0-.505.502v2.154H51V23.44a.5.5 0 0 0-.505-.502h-2.726a.507.507 0 0 0-.505.502v2.154h-1.69V23.44a.5.5 0 0 0-.505-.502h-2.707l-.01-.008Z" fill="#000"/><path d="M21.868 29.57H9.729M43.152 29.609h11.836" stroke="#000" stroke-width=".48" stroke-miterlimit="10"/><mask id="h" maskUnits="userSpaceOnUse" x="13.394" y="33.135" width="4" height="6" fill="#000"><path fill="#fff" d="M13.394 33.135h4v6h-4z"/><path d="M15.657 34.135a1.332 1.332 0 0 0-.908.42 1.316 1.316 0 0 0-.355.93v2.883h2.581V35.45c.007-.34-.122-.67-.358-.916a1.302 1.302 0 0 0-.905-.4h-.055Z"/></mask><path d="M15.657 34.135a1.332 1.332 0 0 0-.908.42 1.316 1.316 0 0 0-.355.93v2.883h2.581V35.45c.007-.34-.122-.67-.358-.916a1.302 1.302 0 0 0-.905-.4h-.055Z" fill="#000"/><path d="M15.657 34.135a1.332 1.332 0 0 0-.908.42 1.316 1.316 0 0 0-.355.93v2.883h2.581V35.45c.007-.34-.122-.67-.358-.916a1.302 1.302 0 0 0-.905-.4h-.055Z" stroke="#000" stroke-width=".732" stroke-linejoin="round" mask="url(#h)"/><mask id="i" maskUnits="userSpaceOnUse" x="46.832" y="33.135" width="4" height="6" fill="#000"><path fill="#fff" d="M46.832 33.135h4v6h-4z"/><path d="M49.095 34.135a1.334 1.334 0 0 0-.907.42 1.319 1.319 0 0 0-.356.93v2.883h2.571V35.45a1.291 1.291 0 0 0-.365-.92 1.307 1.307 0 0 0-.913-.395h-.03Z"/></mask><path d="M49.095 34.135a1.334 1.334 0 0 0-.907.42 1.319 1.319 0 0 0-.356.93v2.883h2.571V35.45a1.291 1.291 0 0 0-.365-.92 1.307 1.307 0 0 0-.913-.395h-.03Z" fill="#000"/><path d="M49.095 34.135a1.334 1.334 0 0 0-.907.42 1.319 1.319 0 0 0-.356.93v2.883h2.571V35.45a1.291 1.291 0 0 0-.365-.92 1.307 1.307 0 0 0-.913-.395h-.03Z" stroke="#000" stroke-width=".732" stroke-linejoin="round" mask="url(#i)"/><mask id="j" maskUnits="userSpaceOnUse" x="30.192" y="25.187" width="4" height="6" fill="#000"><path fill="#fff" d="M30.192 25.187h4v6h-4z"/><path d="M32.309 26.197a1.18 1.18 0 0 0-.802.372 1.166 1.166 0 0 0-.314.823v2.536h2.273v-2.589a1.133 1.133 0 0 0-.696-1.06 1.152 1.152 0 0 0-.438-.092l-.023.01Z"/></mask><path d="M32.309 26.197a1.18 1.18 0 0 0-.802.372 1.166 1.166 0 0 0-.314.823v2.536h2.273v-2.589a1.133 1.133 0 0 0-.696-1.06 1.152 1.152 0 0 0-.438-.092l-.023.01Z" fill="#000"/><path d="M32.309 26.197a1.18 1.18 0 0 0-.802.372 1.166 1.166 0 0 0-.314.823v2.536h2.273v-2.589a1.133 1.133 0 0 0-.696-1.06 1.152 1.152 0 0 0-.438-.092l-.023.01Z" stroke="#000" stroke-width=".732" stroke-linejoin="round" mask="url(#j)"/><mask id="k" maskUnits="userSpaceOnUse" x="28.215" y="39.703" width="8" height="13" fill="#000"><path fill="#fff" d="M28.215 39.703h8v13h-8z"/><path d="M29.215 51.464v-7.23c0-1.919 1.4-3.5 3.12-3.53h.048c1.747 0 3.172 1.53 3.172 3.414v7.349h-6.34v-.003Z"/></mask><path d="M29.215 51.464v-7.23c0-1.919 1.4-3.5 3.12-3.53h.048c1.747 0 3.172 1.53 3.172 3.414v7.349h-6.34v-.003Z" fill="#000"/><path d="M29.215 51.464v-7.23c0-1.919 1.4-3.5 3.12-3.53h.048c1.747 0 3.172 1.53 3.172 3.414v7.349h-6.34v-.003Z" stroke="#000" stroke-width=".732" mask="url(#k)"/><mask id="l" fill="#fff"><path d="M32.382 40.944c1.611 0 2.915 1.416 2.915 3.161v7.086h-5.81v-6.98c0-1.758 1.264-3.249 2.87-3.264h.045l-.02-.003Zm.02-.5h-.055c-1.86.033-3.372 1.728-3.372 3.784v6.98a.514.514 0 0 0 .321.478c.063.026.13.04.2.04h5.808a.522.522 0 0 0 .52-.518v-7.103c0-2.023-1.538-3.668-3.427-3.668l.005.008Z"/></mask><path d="M32.382 40.944c1.611 0 2.915 1.416 2.915 3.161v7.086h-5.81v-6.98c0-1.758 1.264-3.249 2.87-3.264h.045l-.02-.003Zm.02-.5h-.055c-1.86.033-3.372 1.728-3.372 3.784v6.98a.514.514 0 0 0 .321.478c.063.026.13.04.2.04h5.808a.522.522 0 0 0 .52-.518v-7.103c0-2.023-1.538-3.668-3.427-3.668l.005.008Z" fill="#000" stroke="#000" stroke-width="5.858" mask="url(#l)"/><g opacity=".25"><mask id="m" fill="#fff"><path d="m37.229 18.642 2.121-.191.127 4.238-1.27 1.501h-1.95l.957-1.597.015-3.951Z"/></mask><path d="m37.229 18.642 2.121-.191.127 4.238-1.27 1.501h-1.95l.957-1.597.015-3.951Z" fill="#000" stroke="#000" stroke-width="5.858" mask="url(#m)"/></g><path fill-rule="evenodd" clip-rule="evenodd" d="M38.565 17.775h-2.141a.253.253 0 0 0-.253.251v2.408h-2.205v-2.408a.25.25 0 0 0-.253-.25h-2.71a.253.253 0 0 0-.252.25v2.4h-2.2V18.02a.25.25 0 0 0-.253-.251h-2.695a.253.253 0 0 0-.252.25v4.57c0 .054.017.107.048.15l.967 1.34a.253.253 0 0 0 .207.105l11.588-.003a.252.252 0 0 0 .21-.105l.967-1.334.015-.022a.25.25 0 0 0 .036-.128V18.23a9.614 9.614 0 0 1-.824-.455Z" fill="#E0E0E0"/><path fill-rule="evenodd" clip-rule="evenodd" d="M38.565 17.775h-2.141a.253.253 0 0 0-.253.251v2.408h-2.205v-2.408a.25.25 0 0 0-.253-.25h-2.71a.253.253 0 0 0-.252.25v2.4h-2.2V18.02a.25.25 0 0 0-.253-.251h-2.695a.253.253 0 0 0-.252.25v4.57c0 .054.017.107.048.15l.967 1.34a.253.253 0 0 0 .207.105l11.588-.003a.252.252 0 0 0 .21-.105l.967-1.334.015-.022a.25.25 0 0 0 .036-.128V18.23a9.614 9.614 0 0 1-.824-.455Z" fill="#000" fill-opacity=".1"/><path fill-rule="evenodd" clip-rule="evenodd" d="M38.565 17.775h-2.141a.253.253 0 0 0-.253.251v2.408h-2.205v-2.408a.25.25 0 0 0-.253-.25h-2.71a.253.253 0 0 0-.252.25v2.4h-2.2V18.02a.25.25 0 0 0-.253-.251h-2.695a.253.253 0 0 0-.252.25v4.57c0 .054.017.107.048.15l.967 1.34a.253.253 0 0 0 .207.105l11.588-.003a.252.252 0 0 0 .21-.105l.967-1.334.015-.022a.25.25 0 0 0 .036-.128V18.23a10.38 10.38 0 0 1-.2-.101v4.462a.05.05 0 0 1-.006.022l-.009.014-.965 1.33v.001a.053.053 0 0 1-.045.022l-11.59.003h-.002a.053.053 0 0 1-.043-.022l-.966-1.337a.074.074 0 0 1-.012-.037v-4.568a.05.05 0 0 1 .015-.036.054.054 0 0 1 .037-.015h2.695c.015 0 .028.006.038.015a.05.05 0 0 1 .015.036v2.608h2.6v-2.6a.05.05 0 0 1 .015-.036.053.053 0 0 1 .037-.016h2.71c.015 0 .028.006.038.016a.05.05 0 0 1 .015.035v2.608h2.605v-2.608a.05.05 0 0 1 .015-.035.053.053 0 0 1 .038-.016h2.48a9.676 9.676 0 0 1-.339-.2Z" fill="#000"/><path fill-rule="evenodd" clip-rule="evenodd" d="M38.18 17.524h-1.734a.506.506 0 0 0-.505.502v2.155h-1.69v-2.155a.5.5 0 0 0-.505-.502h-2.723a.506.506 0 0 0-.505.502v2.155h-1.69v-2.155a.5.5 0 0 0-.505-.502h-2.705l-.017-.017a.506.506 0 0 0-.506.502v4.56a.5.5 0 0 0 .099.298l.965 1.338a.505.505 0 0 0 .414.221h11.618a.508.508 0 0 0 .417-.21l.965-1.339a.5.5 0 0 0 .099-.299v-4.216a9.583 9.583 0 0 1-.518-.252v4.478l-.963 1.339H26.573l-.967-1.339v-4.567h2.705v2.662h2.71V18.02h2.71v2.662h2.713v-2.657h2.553a9.633 9.633 0 0 1-.818-.502Z" fill="#000"/><path fill-rule="evenodd" clip-rule="evenodd" d="M44.19 1.6h10.02c4.744 0 8.59 3.582 8.59 8s-3.846 8-8.59 8H44.19c-4.744 0-8.59-3.582-8.59-8s3.846-8 8.59-8Z" fill="#090909"/><path d="M43.845 8.4c.53 0 1 .1 1.41.299.414.2.74.493.977.88.237.388.356.865.356 1.433 0 .618-.13 1.152-.391 1.603-.257.446-.642.788-1.156 1.027-.509.239-1.145.358-1.907.358-.454 0-.883-.04-1.285-.117a3.742 3.742 0 0 1-1.049-.347V11.97c.3.156.66.29 1.078.399.423.106.82.159 1.19.159.364 0 .67-.047.92-.141a1.13 1.13 0 0 0 .562-.447c.13-.203.195-.461.195-.774 0-.42-.142-.74-.426-.963-.285-.223-.72-.335-1.31-.335-.224 0-.46.022-.704.065-.241.043-.443.086-.605.129l-.728-.388.326-4.373h4.697v1.538h-3.092l-.16 1.685c.134-.028.28-.055.438-.082.158-.028.38-.042.664-.042ZM47.512 11.393V9.926h3.18v1.467h-3.18ZM51.487 10.237c0-.493.035-.98.106-1.462a5.7 5.7 0 0 1 .385-1.368c.182-.43.437-.81.764-1.139a3.373 3.373 0 0 1 1.25-.78c.506-.192 1.118-.288 1.837-.288.17 0 .367.008.592.023.23.012.419.034.569.065v1.45a4.617 4.617 0 0 0-.51-.082 4.066 4.066 0 0 0-.533-.035c-.718 0-1.275.113-1.67.34a1.882 1.882 0 0 0-.83.945c-.158.4-.25.865-.278 1.398h.077c.11-.192.249-.362.415-.511.17-.149.375-.266.616-.352.24-.09.523-.135.847-.135.505 0 .944.107 1.315.322.371.212.657.519.859.922.201.403.302.894.302 1.474 0 .618-.12 1.15-.361 1.596-.241.447-.583.789-1.025 1.028-.438.235-.96.352-1.564.352a3.39 3.39 0 0 1-1.238-.223 2.758 2.758 0 0 1-1.007-.693 3.23 3.23 0 0 1-.675-1.168c-.162-.474-.243-1.033-.243-1.679Zm3.127 2.313c.36 0 .652-.121.877-.364.225-.243.338-.622.338-1.139 0-.419-.099-.747-.296-.986-.194-.243-.488-.364-.883-.364-.269 0-.505.06-.71.182a1.293 1.293 0 0 0-.469.452c-.11.18-.166.366-.166.558 0 .2.028.397.083.593.056.195.138.373.249.534.11.16.247.29.409.387.166.098.355.147.568.147Z" fill="#fff"/></svg>