<svg width="34" height="45" viewBox="0 0 34 45" fill="none" xmlns="http://www.w3.org/2000/svg">
<g clip-path="url(#clip0_1126_6022)">
<path d="M1.93717 43.1599C1.7467 43.1597 1.56409 43.0877 1.42941 42.9599C1.29473 42.832 1.21897 42.6586 1.21875 42.4777V1.82711C1.21901 1.64628 1.29478 1.47292 1.42947 1.34507C1.56415 1.21722 1.74674 1.14532 1.93717 1.14514H31.4146C31.605 1.14532 31.7877 1.21722 31.9223 1.34507C32.057 1.47292 32.1328 1.64628 32.133 1.82711V42.4777C32.1328 42.6586 32.057 42.832 31.9224 42.9599C31.7877 43.0877 31.6051 43.1597 31.4146 43.1599H1.93717Z" fill="url(#paint0_radial_1126_6022)"/>
<path d="M30.968 2.25079V42.0542H2.38247V2.25079H30.968ZM31.414 0.0394897H1.93651C0.896491 0.0394897 0.0537109 0.83976 0.0537109 1.8271V42.4777C0.0537109 43.465 0.896491 44.2655 1.93651 44.2655H31.414C32.4538 44.2655 33.2968 43.465 33.2968 42.4777V1.8271C33.2968 0.83987 32.4538 0.0394897 31.414 0.0394897Z" fill="#F78989"/>
<path d="M31.414 1.14514C31.6043 1.14531 31.787 1.21721 31.9216 1.34506C32.0563 1.47292 32.1321 1.64627 32.1324 1.8271V42.4777C32.1321 42.6586 32.0563 42.832 31.9217 42.9599C31.787 43.0877 31.6044 43.1597 31.414 43.1599H1.93651C1.74604 43.1597 1.56343 43.0877 1.42875 42.9599C1.29407 42.832 1.21831 42.6586 1.21809 42.4777V1.8271C1.21835 1.64627 1.29412 1.47292 1.42881 1.34506C1.56349 1.21721 1.74608 1.14531 1.93651 1.14514H31.414ZM31.414 0.0394897H1.93651C0.896491 0.0394897 0.0537109 0.83976 0.0537109 1.8271V42.4777C0.0537109 43.465 0.896491 44.2655 1.93651 44.2655H31.414C32.4538 44.2655 33.2968 43.465 33.2968 42.4777V1.8271C33.2968 0.83987 32.4538 0.0394897 31.414 0.0394897Z" fill="#414042"/>
<g clip-path="url(#clip1_1126_6022)">
<mask id="path-4-outside-1_1126_6022" maskUnits="userSpaceOnUse" x="6.26074" y="13.9157" width="22" height="18" fill="black">
<rect fill="white" x="6.26074" y="13.9157" width="22" height="18"/>
<path d="M16.8498 19.9719L19.6566 22.6348V22.5C19.6566 21.8295 19.3767 21.1865 18.8786 20.7123C18.3804 20.2382 17.7048 19.9719 17.0003 19.9719H16.8498ZM13.0425 20.646L14.4149 21.9522C14.3706 22.1292 14.3441 22.3062 14.3441 22.5C14.3441 23.1705 14.6239 23.8135 15.1221 24.2876C15.6202 24.7617 16.2958 25.0281 17.0003 25.0281C17.1951 25.0281 17.3899 25.0028 17.5758 24.9607L18.9482 26.2668C18.355 26.5449 17.6998 26.7135 17.0003 26.7135C15.8262 26.7135 14.7001 26.2695 13.8699 25.4794C13.0397 24.6892 12.5732 23.6175 12.5732 22.5C12.5732 21.8342 12.7503 21.2107 13.0425 20.646ZM8.14616 15.9859L10.1649 17.9073L10.5633 18.2865C9.10241 19.382 7.95137 20.8146 7.26074 22.5C8.79251 26.1994 12.5732 28.8202 17.0003 28.8202C18.3727 28.8202 19.6831 28.5674 20.8785 28.1123L21.2592 28.4663L23.8446 30.9269L24.9691 29.8567L9.27064 14.9157M17.0003 18.2865C18.1745 18.2865 19.3005 18.7304 20.1307 19.5206C20.961 20.3108 21.4274 21.3825 21.4274 22.5C21.4274 23.0393 21.3123 23.5618 21.1087 24.0337L23.7029 26.5028C25.0311 25.4494 26.0936 24.0674 26.7399 22.5C25.2081 18.8005 21.4274 16.1798 17.0003 16.1798C15.7607 16.1798 14.5743 16.3904 13.4587 16.7696L15.38 18.5814C15.8847 18.396 16.4248 18.2865 17.0003 18.2865Z"/>
</mask>
<path d="M16.8498 19.9719L19.6566 22.6348V22.5C19.6566 21.8295 19.3767 21.1865 18.8786 20.7123C18.3804 20.2382 17.7048 19.9719 17.0003 19.9719H16.8498ZM13.0425 20.646L14.4149 21.9522C14.3706 22.1292 14.3441 22.3062 14.3441 22.5C14.3441 23.1705 14.6239 23.8135 15.1221 24.2876C15.6202 24.7617 16.2958 25.0281 17.0003 25.0281C17.1951 25.0281 17.3899 25.0028 17.5758 24.9607L18.9482 26.2668C18.355 26.5449 17.6998 26.7135 17.0003 26.7135C15.8262 26.7135 14.7001 26.2695 13.8699 25.4794C13.0397 24.6892 12.5732 23.6175 12.5732 22.5C12.5732 21.8342 12.7503 21.2107 13.0425 20.646ZM8.14616 15.9859L10.1649 17.9073L10.5633 18.2865C9.10241 19.382 7.95137 20.8146 7.26074 22.5C8.79251 26.1994 12.5732 28.8202 17.0003 28.8202C18.3727 28.8202 19.6831 28.5674 20.8785 28.1123L21.2592 28.4663L23.8446 30.9269L24.9691 29.8567L9.27064 14.9157M17.0003 18.2865C18.1745 18.2865 19.3005 18.7304 20.1307 19.5206C20.961 20.3108 21.4274 21.3825 21.4274 22.5C21.4274 23.0393 21.3123 23.5618 21.1087 24.0337L23.7029 26.5028C25.0311 25.4494 26.0936 24.0674 26.7399 22.5C25.2081 18.8005 21.4274 16.1798 17.0003 16.1798C15.7607 16.1798 14.5743 16.3904 13.4587 16.7696L15.38 18.5814C15.8847 18.396 16.4248 18.2865 17.0003 18.2865Z" fill="url(#paint1_linear_1126_6022)"/>
<path d="M16.8498 19.9719V19.4719H15.5963L16.5057 20.3346L16.8498 19.9719ZM19.6566 22.6348L19.3124 22.9975L20.1566 23.7984V22.6348H19.6566ZM13.0425 20.646L13.3872 20.2839L12.9046 19.8246L12.5985 20.4162L13.0425 20.646ZM14.4149 21.9522L14.9 22.0736L14.9707 21.7909L14.7596 21.59L14.4149 21.9522ZM17.0003 25.0281V24.5281V25.0281ZM17.5758 24.9607L17.9206 24.5985L17.7266 24.4138L17.4653 24.473L17.5758 24.9607ZM18.9482 26.2668L19.1605 26.7196L19.8229 26.409L19.293 25.9046L18.9482 26.2668ZM12.5732 22.5H13.0732H12.5732ZM10.5633 18.2865L10.8633 18.6865L11.3363 18.3319L10.9081 17.9243L10.5633 18.2865ZM7.26074 22.5L6.79808 22.3104L6.71999 22.501L6.79878 22.6913L7.26074 22.5ZM20.8785 28.1123L21.2189 27.7461L20.9911 27.5344L20.7006 27.6451L20.8785 28.1123ZM21.2592 28.4663L21.6039 28.1041L21.5996 28.1001L21.2592 28.4663ZM23.8446 30.9269L23.4999 31.2891L23.8446 31.6172L24.1893 31.2891L23.8446 30.9269ZM24.9691 29.8567L25.3138 30.2189L25.6943 29.8567L25.3138 29.4945L24.9691 29.8567ZM17.0003 18.2865V17.7865V18.2865ZM21.4274 22.5H20.9274H21.4274ZM21.1087 24.0337L20.6496 23.8356L20.5115 24.1556L20.764 24.3959L21.1087 24.0337ZM23.7029 26.5028L23.3582 26.865L23.6731 27.1646L24.0136 26.8945L23.7029 26.5028ZM26.7399 22.5L27.2022 22.6906L27.2809 22.4996L27.2019 22.3087L26.7399 22.5ZM13.4587 16.7696L13.2977 16.2962L12.5113 16.5636L13.1156 17.1334L13.4587 16.7696ZM15.38 18.5814L15.037 18.9452L15.262 19.1574L15.5524 19.0508L15.38 18.5814ZM16.5057 20.3346L19.3124 22.9975L20.0007 22.2721L17.1939 19.6092L16.5057 20.3346ZM20.1566 22.6348V22.5H19.1566V22.6348H20.1566ZM20.1566 22.5C20.1566 21.6887 19.8177 20.9159 19.2233 20.3502L18.5339 21.0745C18.9357 21.457 19.1566 21.9703 19.1566 22.5H20.1566ZM19.2233 20.3502C18.6297 19.7852 17.8297 19.4719 17.0003 19.4719V20.4719C17.58 20.4719 18.1312 20.6913 18.5339 21.0745L19.2233 20.3502ZM17.0003 19.4719H16.8498V20.4719H17.0003V19.4719ZM12.6978 21.0082L14.0702 22.3144L14.7596 21.59L13.3872 20.2839L12.6978 21.0082ZM13.9299 21.8309C13.8775 22.04 13.8441 22.2582 13.8441 22.5H14.8441C14.8441 22.3541 14.8637 22.2184 14.9 22.0736L13.9299 21.8309ZM13.8441 22.5C13.8441 23.3113 14.1829 24.084 14.7774 24.6498L15.4668 23.9254C15.0649 23.543 14.8441 23.0297 14.8441 22.5H13.8441ZM14.7774 24.6498C15.371 25.2147 16.171 25.5281 17.0003 25.5281V24.5281C16.4207 24.5281 15.8695 24.3087 15.4668 23.9254L14.7774 24.6498ZM17.0003 25.5281C17.2377 25.5281 17.4698 25.4974 17.6863 25.4483L17.4653 24.473C17.31 24.5082 17.1526 24.5281 17.0003 24.5281V25.5281ZM17.2311 25.3228L18.6035 26.629L19.293 25.9046L17.9206 24.5985L17.2311 25.3228ZM18.736 25.8141C18.201 26.0649 17.6179 26.2135 17.0003 26.2135V27.2135C17.7817 27.2135 18.509 27.0249 19.1605 26.7196L18.736 25.8141ZM17.0003 26.2135C15.951 26.2135 14.9494 25.8165 14.2146 25.1172L13.5252 25.8415C14.4509 26.7226 15.7013 27.2135 17.0003 27.2135V26.2135ZM14.2146 25.1172C13.4807 24.4186 13.0732 23.4767 13.0732 22.5H12.0732C12.0732 23.7583 12.5987 24.9597 13.5252 25.8415L14.2146 25.1172ZM13.0732 22.5C13.0732 21.9251 13.2258 21.3798 13.4866 20.8759L12.5985 20.4162C12.2749 21.0415 12.0732 21.7434 12.0732 22.5H13.0732ZM7.80145 16.3481L9.8202 18.2695L10.5096 17.5451L8.49087 15.6238L7.80145 16.3481ZM9.8202 18.2695L10.2186 18.6487L10.9081 17.9243L10.5096 17.5451L9.8202 18.2695ZM10.2634 17.8865C8.73569 19.032 7.52545 20.5353 6.79808 22.3104L7.72341 22.6896C8.37729 21.0938 9.46913 19.732 10.8633 18.6865L10.2634 17.8865ZM6.79878 22.6913C8.4094 26.5811 12.3749 29.3202 17.0003 29.3202V28.3202C12.7716 28.3202 9.17563 25.8177 7.72271 22.3087L6.79878 22.6913ZM17.0003 29.3202C18.4343 29.3202 19.805 29.056 21.0563 28.5796L20.7006 27.6451C19.5613 28.0788 18.3111 28.3202 17.0003 28.3202V29.3202ZM20.538 28.4785L20.9187 28.8325L21.5996 28.1001L21.2189 27.7461L20.538 28.4785ZM20.9145 28.8285L23.4999 31.2891L24.1893 30.5648L21.6039 28.1041L20.9145 28.8285ZM24.1893 31.2891L25.3138 30.2189L24.6244 29.4945L23.4999 30.5648L24.1893 31.2891ZM25.3138 29.4945L9.61535 14.5535L8.92593 15.2779L24.6244 30.2189L25.3138 29.4945ZM17.0003 18.7865C18.0496 18.7865 19.0513 19.1834 19.786 19.8828L20.4755 19.1584C19.5498 18.2774 18.2993 17.7865 17.0003 17.7865V18.7865ZM19.786 19.8828C20.52 20.5813 20.9274 21.5233 20.9274 22.5H21.9274C21.9274 21.2417 21.402 20.0402 20.4755 19.1584L19.786 19.8828ZM20.9274 22.5C20.9274 22.9683 20.8274 23.4235 20.6496 23.8356L21.5677 24.2318C21.7972 23.7 21.9274 23.1103 21.9274 22.5H20.9274ZM20.764 24.3959L23.3582 26.865L24.0476 26.1406L21.4534 23.6715L20.764 24.3959ZM24.0136 26.8945C25.4059 25.7903 26.522 24.34 27.2022 22.6906L26.2777 22.3094C25.6651 23.7948 24.6562 25.1085 23.3922 26.111L24.0136 26.8945ZM27.2019 22.3087C25.5913 18.4188 21.6258 15.6798 17.0003 15.6798V16.6798C21.229 16.6798 24.825 19.1823 26.2779 22.6913L27.2019 22.3087ZM17.0003 15.6798C15.7034 15.6798 14.4627 15.9003 13.2977 16.2962L13.6196 17.243C14.6859 16.8806 15.8181 16.6798 17.0003 16.6798V15.6798ZM13.1156 17.1334L15.037 18.9452L15.723 18.2177L13.8017 16.4059L13.1156 17.1334ZM15.5524 19.0508C16.0078 18.8835 16.4896 18.7865 17.0003 18.7865V17.7865C16.36 17.7865 15.7616 17.9086 15.2076 18.1121L15.5524 19.0508Z" fill="#223948" mask="url(#path-4-outside-1_1126_6022)"/>
</g>
</g>
<defs>
<radialGradient id="paint0_radial_1126_6022" cx="0" cy="0" r="1" gradientUnits="userSpaceOnUse" gradientTransform="translate(16.6754 22.1525) rotate(-90) scale(18.121 19.6847)">
<stop stop-color="#32B4BA"/>
<stop offset="0.163" stop-color="#30ABBA"/>
<stop offset="0.429" stop-color="#2B93BA"/>
<stop offset="0.762" stop-color="#236BBA"/>
<stop offset="1" stop-color="#1D4BBA"/>
</radialGradient>
<linearGradient id="paint1_linear_1126_6022" x1="17.0005" y1="14.9157" x2="17.0005" y2="30.9269" gradientUnits="userSpaceOnUse">
<stop stop-color="#F78989"/>
<stop offset="0.306775" stop-color="#FE7171"/>
<stop offset="0.713803" stop-color="#F7B3B3"/>
<stop offset="1" stop-color="#F77474"/>
</linearGradient>
<clipPath id="clip0_1126_6022">
<rect width="34" height="45" fill="white"/>
</clipPath>
<clipPath id="clip1_1126_6022">
<rect width="21.25" height="20.2247" fill="white" transform="translate(6.375 12.3876)"/>
</clipPath>
</defs>
</svg>
