<svg width="128" height="128" viewBox="0 0 128 128" fill="none" xmlns="http://www.w3.org/2000/svg">
<path d="M32.0897 21.5844C34.3239 12.2036 52.1682 15.3198 60.8111 18.0505L61.1781 22.8036C50.5511 26.3059 29.8555 30.9652 32.0897 21.5844Z" fill="#FFCC00"/>
<path d="M44.0356 13.9675C49.6671 13.917 55.9656 15.2337 60.3531 16.5427L61.2048 16.8038L62.0464 17.0686L62.4831 22.7023L62.5609 23.7246L61.5876 24.0468C56.2322 25.8117 48.2823 27.89 41.901 28.3309C38.7517 28.5485 35.7587 28.3868 33.6498 27.4131C32.5615 26.9105 31.6254 26.1521 31.0859 25.0473C30.5463 23.9417 30.4877 22.662 30.8167 21.2808C31.4863 18.4702 33.346 16.6202 35.7537 15.5034C38.1154 14.4079 41.037 13.9944 44.0356 13.9675ZM44.0592 16.5837C41.2371 16.609 38.737 17.0039 36.8544 17.8772C35.0183 18.729 33.8094 20.0079 33.3617 21.8872C33.1322 22.8508 33.2327 23.478 33.4383 23.8993C33.6445 24.3216 34.0429 24.7124 34.7467 25.0374C36.2219 25.7185 38.6477 25.9318 41.7207 25.7195C47.4216 25.3255 54.5755 23.5256 59.7923 21.8688L59.5754 19.04C55.345 17.7803 49.3329 16.5365 44.0592 16.5837Z" fill="#04182A"/>
<path d="M59.7795 21.8686C54.5632 23.5253 47.4087 25.3255 41.708 25.7197C38.6353 25.932 36.2085 25.7176 34.7332 25.0367C34.0296 24.7117 33.6313 24.3211 33.4251 23.8989C33.226 23.4909 33.1257 22.8904 33.328 21.9776C33.3565 22.0651 33.389 22.1455 33.4251 22.2195C33.6313 22.6417 34.0296 23.0323 34.7332 23.3573C36.2085 24.0382 38.6353 24.2526 41.708 24.0403C47.3628 23.6493 54.4467 21.8739 59.6518 20.2284L59.7795 21.8686Z" fill="#E1AE00"/>
<path d="M91.6315 17.1403C93.7793 26.5413 72.0945 24.9312 63.2672 22.8737L62.5355 18.1629C72.8615 13.8534 89.5014 7.8169 91.6315 17.1403Z" fill="#FFCC00"/>
<path d="M81.672 25.6082C75.2526 26.137 67.4864 25.2003 62.9709 24.1479L62.1096 23.9472L61.2424 18.3636L61.0861 17.3502L62.0319 16.9558C67.1929 14.8019 74.0659 12.1554 79.957 11.246C82.8917 10.7931 85.7408 10.7436 88.0552 11.5199C90.4675 12.3291 92.264 14.0342 92.9072 16.8496C93.2306 18.2657 93.1221 19.5759 92.5728 20.7322C92.0304 21.8735 91.1142 22.7459 90.0271 23.4085C87.892 24.7095 84.8571 25.3458 81.672 25.6082ZM81.4573 23.0006C84.5277 22.7476 87.0636 22.1518 88.6662 21.1753C89.4477 20.699 89.9435 20.1707 90.2104 19.609C90.4702 19.0622 90.569 18.3657 90.3557 17.4319C89.9339 15.5858 88.8518 14.5478 87.2224 14.0013C85.4951 13.422 83.1383 13.403 80.3561 13.8324C75.1465 14.6366 68.9963 16.9216 63.9872 18.9826L64.4231 21.7896C68.8217 22.7131 75.7518 23.4706 81.4573 23.0006Z" fill="#04182A"/>
<path d="M90.3481 17.4317C90.5612 18.3649 90.4629 19.0618 90.2033 19.6084C89.9365 20.1701 89.4398 20.6992 88.6585 21.1754C87.056 22.1517 84.5202 22.7466 81.4503 22.9996C75.7451 23.4696 68.8147 22.7121 64.4161 21.7886L63.9801 18.9816C64.0688 18.9451 64.1581 18.9092 64.2475 18.8726L64.4161 19.9474C68.8147 20.8708 75.7451 21.6283 81.4503 21.1584C84.52 20.9054 87.0559 20.3104 88.6585 19.3342C89.4398 18.8581 89.9364 18.3288 90.2033 17.7672C90.2573 17.6535 90.3009 17.5318 90.3396 17.4044C90.3417 17.4136 90.346 17.4224 90.3481 17.4317Z" fill="#E1AE00"/>
<path d="M61.0039 15.0571C55.6819 15.7569 57.2785 28.6858 58.742 35.0628L65.8225 34.7019C66.4339 27.862 66.326 14.3572 61.0039 15.0571Z" fill="#FFCC00"/>
<path d="M60.8337 13.7597C61.7932 13.6336 62.6814 13.8307 63.4522 14.3067C64.1987 14.768 64.7709 15.4509 65.2153 16.2072C66.0924 17.6999 66.6168 19.7351 66.9326 21.8602C67.5695 26.1461 67.4361 31.3462 67.1257 34.8187L67.0248 35.9511L57.7116 36.4258L57.4678 35.3553C56.7229 32.1095 55.9335 27.1678 56.0197 22.9042C56.0625 20.785 56.3232 18.7163 56.9886 17.0869C57.6637 15.4339 58.8631 14.0189 60.8337 13.7597ZM61.174 16.3534C60.4838 16.4443 59.8862 16.9086 59.4096 18.0755C58.9234 19.2661 58.6772 20.9595 58.6368 22.9567C58.5653 26.497 59.1498 30.6274 59.7864 33.7005L64.6072 33.4548C64.8357 30.1671 64.8756 25.8186 64.3445 22.2445C64.0446 20.2262 63.5806 18.5893 62.96 17.533C62.6556 17.0149 62.3521 16.7026 62.0768 16.5325C61.8255 16.3774 61.5448 16.3047 61.174 16.3534Z" fill="#04182A"/>
<path d="M61.1806 16.354C61.5508 16.3054 61.8323 16.378 62.0833 16.5328C62.3584 16.7028 62.6615 17.0154 62.9656 17.5326C63.5862 18.589 64.0504 20.2272 64.3503 22.2455C64.8813 25.8193 64.8412 30.1673 64.6126 33.4546L59.7924 33.6999C59.788 33.6783 59.7833 33.6568 59.7788 33.6352L63.3369 33.4546C63.5654 30.1673 63.6056 25.8193 63.0746 22.2455C62.7746 20.2272 62.3105 18.589 61.6899 17.5326C61.3857 17.0153 61.0827 16.7029 60.8076 16.5328C60.7773 16.5142 60.7451 16.4996 60.7139 16.4834C60.8643 16.4175 61.0198 16.3752 61.1806 16.354Z" fill="#E1AE00"/>
<path d="M65.0857 117.137C38.9238 117.137 29.3311 95.5803 29.3311 81.7841C29.3311 63.6765 35.4355 42.9821 65.0857 42.9821C88.6314 42.9821 100.84 55.9161 100.84 81.7841C100.84 94.718 92.9917 117.137 65.0857 117.137Z" fill="#E2E2E2"/>
<path d="M65.0825 43.8452C84.2679 43.8452 99.093 52.4678 99.093 81.7848C99.093 95.5811 90.3723 115.413 65.0825 115.413C38.9206 115.413 31.072 93.8566 31.072 81.7848C31.072 53.3301 45.8971 43.8452 65.0825 43.8452ZM65.0825 41.2584C48.5133 41.2584 28.4558 48.1565 28.4558 81.7848C28.4558 95.5811 38.0485 118 65.0825 118C77.2914 118 86.8841 113.689 93.8606 105.066C99.093 99.0301 101.709 90.4075 101.709 81.7848C101.709 55.0546 89.5003 41.2584 65.0825 41.2584Z" fill="#3A3A3A"/>
<path d="M99.0928 81.7841C99.0928 89.5445 96.4766 99.0294 89.5001 105.928C84.2677 111.963 103.576 89.9487 90.5177 69.9232C64.5387 75.0899 43.7992 70.5781 43.7992 70.5781C43.7992 70.5781 51.4649 57.5522 69.7782 57.5522C88.9636 57.5522 99.0928 52.4671 99.0928 81.7841Z" fill="#9C9A9A"/>
<path fill-rule="evenodd" clip-rule="evenodd" d="M58.2577 31.7128C59.4956 31.5258 60.7803 31.399 62.1131 31.3378C62.68 31.3118 63.2401 31.2974 63.7935 31.2941C77.8085 35.3461 85.519 52.5637 87.5475 66.07C75.1196 68.2447 58.4218 69.5564 45.638 69.7252C44.1958 51.4884 48.754 37.1816 58.2577 31.7128Z" fill="white"/>
<path fill-rule="evenodd" clip-rule="evenodd" d="M58.2577 31.7128C48.754 37.1816 44.1958 51.4884 45.638 69.7252C37.5812 69.8316 31.079 69.4841 28.1803 68.6126C29.0367 57.3029 33.6055 34.6197 58.2577 31.7128Z" fill="#D50020"/>
<path fill-rule="evenodd" clip-rule="evenodd" d="M87.5475 66.07C85.519 52.5637 77.8085 35.3461 63.7935 31.2941C89.8498 29.1995 98.9551 51.7695 101.672 62.3337C98.5863 63.7604 93.5679 65.0164 87.5475 66.07Z" fill="#0095D9"/>
<path d="M62.0524 30.0307C62.6153 30.0049 63.1727 29.9922 63.7233 29.9882C77.1929 28.9157 86.3622 34.2368 92.4692 41.2049C98.5339 48.125 101.556 56.6327 102.938 62.0083C103.096 62.6198 102.794 63.2569 102.221 63.5218C98.9694 65.025 93.8065 66.303 87.7733 67.3587C75.2626 69.5479 58.4926 70.8639 45.655 71.0334C41.6066 71.0869 37.9329 71.0267 34.8957 70.8416C31.8897 70.6584 29.4091 70.3484 27.8041 69.866C27.216 69.6892 26.8292 69.1256 26.8756 68.5131C27.31 62.7774 28.6897 54.0506 33.165 46.3542C37.6717 38.6039 45.3045 31.937 58.0627 30.4199C59.3462 30.2261 60.6756 30.0939 62.0524 30.0307ZM62.1737 32.6441C60.9735 32.6992 59.8156 32.8109 58.6993 32.9713C54.4123 35.5236 51.1334 40.1046 49.0864 46.3391C47.1019 52.3834 46.3066 59.9026 46.8558 68.3936C58.9701 68.1686 74.2535 66.9556 86.0462 64.9926C84.9503 58.7021 82.6325 51.7385 79.0467 45.8133C75.2477 39.5357 70.1042 34.5445 63.6059 32.6035C63.1338 32.6086 62.6564 32.622 62.1737 32.6441ZM53.229 33.992C44.447 36.3373 38.9325 41.6411 35.427 47.6698C31.5091 54.4075 30.0888 62.0824 29.577 67.608C30.8959 67.8763 32.7465 68.0887 35.0542 68.2293C37.6627 68.3883 40.781 68.4481 44.2361 68.4248C43.6884 59.7438 44.4988 51.9251 46.6009 45.5227C48.1225 40.8884 50.3337 36.9538 53.229 33.992ZM69.9402 32.5757C74.6076 35.382 78.3718 39.6451 81.2852 44.4593C85.0639 50.7034 87.481 57.9823 88.6241 64.5423C93.4054 63.6595 97.3858 62.6608 100.114 61.5758C98.6695 56.3948 95.8011 48.9753 90.5019 42.9288C85.8237 37.5908 79.2362 33.3 69.9402 32.5757Z" fill="#04182A"/>
<path d="M63.6414 32.5981C76.6181 36.3499 84.1892 52.5305 86.0674 65.0362C74.5603 67.0498 58.8887 68.146 47.052 68.3023C47.0496 68.2725 47.0475 68.2419 47.0452 68.2121C58.237 67.8742 71.6827 66.7179 81.9686 64.918C80.117 52.5899 72.9321 36.8018 60.303 32.765C60.8868 32.7086 61.4812 32.6667 62.0863 32.639C62.6109 32.6149 63.1292 32.6011 63.6414 32.5981Z" fill="#EBEBEB"/>
<path d="M53.1784 33.9967C47.6357 39.8725 42.9185 51.6232 44.247 68.4223C42.957 68.4394 41.7104 68.4377 40.5168 68.4291C40.9126 68.4263 41.3131 68.4277 41.7176 68.4223C40.4372 52.2314 45.6006 40.8901 49.685 35.1201C50.7887 34.8795 51.9726 34.1389 53.1784 33.9967Z" fill="#C1000C"/>
<path d="M70.2494 32.6294C90.1889 34.2088 97.8348 52.7216 100.112 61.5767C97.4792 62.7941 93.761 63.6525 88.6242 64.5514C88.5939 64.35 88.5586 64.1482 88.5254 63.945C92.2409 63.182 94.6995 62.5731 96.7666 61.6174C94.6101 53.2325 88.9714 35.3604 70.2494 32.6294Z" fill="#0077BB"/>
</svg>
