<svg width="48" height="48" viewBox="0 0 48 48" fill="none" xmlns="http://www.w3.org/2000/svg">
<path d="M35.1086 26.7296C34.7373 26.7292 34.3813 26.5815 34.1188 26.319C33.8562 26.0565 33.7085 25.7005 33.708 25.3292V22.8861C33.7084 22.5147 33.8561 22.1587 34.1187 21.896C34.3812 21.6334 34.7373 21.4857 35.1086 21.4852H42.8818C43.6541 21.4852 44.2822 22.1137 44.2822 22.8861V25.329C44.2822 26.1014 43.6535 26.7294 42.8818 26.7294L35.1086 26.7296Z" fill="#CCEFFE"/>
<path d="M43.5636 22.8862C43.5636 22.5103 43.2567 22.204 42.8814 22.204H35.1097L35.0419 22.2072C34.8857 22.2229 34.7384 22.2924 34.6264 22.4044C34.4986 22.5324 34.427 22.706 34.4268 22.887V25.3286L34.4299 25.3957C34.4456 25.5519 34.5144 25.6991 34.6264 25.8112C34.7543 25.9391 34.9281 26.0104 35.109 26.0108H42.8814L42.9516 26.0076C43.2942 25.9725 43.5634 25.681 43.5636 25.3294V22.8862ZM45.0003 25.3294C45.0001 26.4255 44.1651 27.328 43.0981 27.4366L42.8814 27.4475L35.109 27.4483C34.5474 27.4477 34.0077 27.224 33.6106 26.827C33.2631 26.4795 33.0488 26.0238 33.0002 25.5391L32.9893 25.3302V22.8854L33.0002 22.6757C33.0488 22.1911 33.2632 21.7352 33.6106 21.3878C34.0076 20.9908 34.546 20.7673 35.1074 20.7665H42.8814C44.0509 20.7665 45.0003 21.7173 45.0003 22.8862V25.3294Z" fill="#223948"/>
<path d="M39.6393 39.3912C39.3935 39.391 39.1521 39.3261 38.9394 39.203L32.2081 35.317C32.0485 35.2254 31.9086 35.1031 31.7965 34.9571C31.6844 34.8111 31.6024 34.6444 31.5553 34.4665C31.5071 34.2889 31.4947 34.1035 31.5187 33.921C31.5427 33.7386 31.6027 33.5627 31.6951 33.4036L32.9166 31.288C33.0399 31.0752 33.217 30.8986 33.43 30.7756C33.643 30.6527 33.8846 30.5878 34.1306 30.5875C34.3754 30.5875 34.6174 30.6525 34.83 30.7755L41.5617 34.6613C41.883 34.8475 42.1174 35.1535 42.2135 35.5123C42.3096 35.871 42.2596 36.2532 42.0745 36.5751L40.8532 38.6904C40.7299 38.9033 40.5529 39.08 40.3399 39.203C40.1268 39.326 39.8853 39.3909 39.6393 39.3912Z" fill="#CCEFFE"/>
<path d="M34.1312 29.8687L34.2699 29.8733C34.5931 29.8947 34.9085 29.9905 35.1898 30.1532L35.1891 30.154L41.9208 34.0387L41.9223 34.0394L42.0977 34.1533C42.4932 34.4379 42.7805 34.8518 42.9077 35.3265C43.0348 35.8011 42.9932 36.3029 42.7931 36.7469L42.6972 36.9333V36.934L41.4756 39.0498L41.4749 39.0506C41.2885 39.3722 41.0211 39.6397 40.6992 39.8255C40.3773 40.0113 40.0121 40.1088 39.6405 40.1093H39.6389C39.267 40.109 38.9014 40.011 38.5795 39.8247V39.824L31.8493 35.9393V35.9385C31.6081 35.7998 31.3967 35.6151 31.2272 35.3944C31.0573 35.173 30.9323 34.9204 30.8608 34.6506L30.8616 34.6499C30.7896 34.3819 30.7708 34.1025 30.807 33.8274C30.8433 33.5512 30.9339 33.2849 31.0736 33.0439H31.0728L32.2945 30.9289L32.2952 30.9273L32.3685 30.8096C32.549 30.5405 32.7892 30.3158 33.0709 30.1532C33.3928 29.9675 33.758 29.8692 34.1296 29.8687H34.1312ZM34.1312 31.3062C34.0112 31.3065 33.8936 31.3383 33.7897 31.3982C33.6856 31.4583 33.5989 31.5445 33.5387 31.6484L33.5379 31.6477L32.3178 33.7627L32.3163 33.7642C32.2716 33.8411 32.2429 33.9263 32.2313 34.0145C32.2226 34.0806 32.2235 34.1477 32.2344 34.2133L32.2492 34.2788L32.25 34.2819L32.2703 34.3458C32.2936 34.4081 32.3263 34.4667 32.367 34.5197C32.4076 34.5725 32.4556 34.6191 32.5096 34.6576L32.5657 34.6935L32.5673 34.6943L39.299 38.5805L39.2998 38.5813L39.3793 38.6203C39.4614 38.6544 39.5495 38.6715 39.6389 38.6717C39.759 38.6715 39.8772 38.6406 39.9812 38.5805C40.059 38.5356 40.127 38.4759 40.1815 38.4051L40.2314 38.3303L41.4522 36.216C41.5422 36.0592 41.5668 35.8731 41.5201 35.6984C41.4733 35.5237 41.3591 35.3738 41.2028 35.2829V35.2837L34.4711 31.3974H34.4703C34.3668 31.3376 34.2491 31.3063 34.1312 31.3062Z" fill="#223948"/>
<path d="M34.1316 17.4133C33.8856 17.413 33.6441 17.348 33.431 17.2251C33.218 17.1021 33.041 16.9254 32.9176 16.7126L31.6962 14.5971C31.6037 14.438 31.5437 14.2621 31.5197 14.0797C31.4957 13.8972 31.5081 13.7118 31.5563 13.5342C31.6035 13.3563 31.6855 13.1895 31.7976 13.0436C31.9096 12.8976 32.0495 12.7753 32.2092 12.6837L38.9404 8.79723C39.1531 8.67444 39.3943 8.60969 39.6399 8.6095C39.8858 8.60991 40.1273 8.67481 40.3403 8.79774C40.5534 8.92066 40.7304 9.0973 40.8538 9.31002L42.0751 11.4255C42.2604 11.7474 42.3104 12.1296 42.2143 12.4883C42.1182 12.847 41.8837 13.1529 41.5623 13.3389L34.8306 17.2256C34.6181 17.3483 34.377 17.413 34.1316 17.4133Z" fill="#CCEFFE"/>
<path d="M39.641 7.89075L39.7798 7.8962C40.1029 7.91792 40.4174 8.01289 40.6989 8.1753C40.9806 8.33782 41.2208 8.56273 41.4013 8.83171L41.4754 8.94942L41.4762 8.95098L42.697 11.066L42.6978 11.0668L42.7929 11.2539C42.9931 11.6979 43.0355 12.1997 42.9083 12.6743C42.7629 13.2167 42.4081 13.6792 41.9221 13.9606L41.9213 13.9614L35.1896 17.8476C34.8682 18.0332 34.5036 18.1317 34.1325 18.1322H34.1301C33.7585 18.1316 33.3933 18.0334 33.0715 17.8476C32.7496 17.6618 32.4822 17.3943 32.2958 17.0727L32.295 17.0719L31.0734 14.9561L31.0742 14.9554C30.9347 14.7147 30.8439 14.4492 30.8075 14.1734C30.7713 13.898 30.79 13.6184 30.8621 13.3502H30.8613C30.9329 13.0805 31.0579 12.8278 31.2277 12.6065C31.3976 12.3852 31.6094 12.1996 31.8514 12.0608L38.5808 8.1753L38.7032 8.10981C38.9938 7.96648 39.3143 7.89101 39.6395 7.89075H39.641ZM39.6395 9.3283C39.5501 9.32848 39.4619 9.34582 39.3799 9.37976L39.2996 9.41952L32.5679 13.3058L32.5663 13.3073C32.4892 13.3516 32.4217 13.4106 32.3675 13.4812C32.3133 13.5517 32.2734 13.6322 32.2506 13.7182L32.2498 13.7221C32.2265 13.8078 32.2203 13.8975 32.2319 13.9856C32.2406 14.0518 32.2588 14.1168 32.2864 14.1773L32.3168 14.2358L32.3184 14.2381L33.5392 16.3524L33.5891 16.4272C33.6438 16.4981 33.7122 16.5576 33.7902 16.6026C33.8939 16.6624 34.0113 16.6934 34.1309 16.6938C34.2503 16.6936 34.3674 16.663 34.4708 16.6034L41.2025 12.7164C41.3589 12.6257 41.473 12.477 41.5198 12.3024C41.5667 12.1275 41.5424 11.9409 41.452 11.784V11.7832L40.232 9.67054L40.1821 9.5957C40.1274 9.5248 40.059 9.46533 39.9809 9.42029C39.8771 9.36035 39.7594 9.32868 39.6395 9.3283Z" fill="#223948"/>
<path d="M25.1941 37.6644L15.5046 33.5966C14.238 33.2157 13.9712 32.4874 13.9712 31.9415V16.0593C13.9712 15.0463 14.7214 14.6875 15.4933 14.4091L25.1943 10.3364H25.2817C26.208 10.3364 26.9614 11.0901 26.9614 12.0162V35.9851C26.9614 36.9114 26.2078 37.6649 25.2817 37.6649H25.1943L25.1941 37.6644Z" fill="#CCEFFE"/>
<path d="M26.2567 12.0161C26.2566 11.4956 25.8449 11.0687 25.3304 11.0432L15.7665 15.0588L15.7496 15.0664L15.7328 15.0725C15.3498 15.2107 15.0839 15.3331 14.9098 15.4871C14.7734 15.6077 14.6766 15.7599 14.6765 16.0592V31.9417L14.6834 32.0588C14.6989 32.1765 14.741 32.294 14.8257 32.406C14.9253 32.5379 15.1221 32.7126 15.5232 32.8604L15.7076 32.9215L15.7435 32.9323L15.7772 32.9468L25.3312 36.957C25.8452 36.9311 26.2567 36.5052 26.2567 35.9849V12.0161ZM27.6663 35.9849C27.6663 37.3005 26.5968 38.3697 25.2815 38.3697H24.7591L24.6803 38.2137L15.254 34.2555C14.5401 34.0327 14.0295 33.6913 13.7006 33.2558C13.4055 32.8651 13.2946 32.4504 13.2715 32.0917L13.2661 31.9417V16.0592C13.2662 15.3458 13.5445 14.8123 13.9759 14.4308C14.3603 14.0909 14.8414 13.8958 15.2257 13.7562L25.0528 9.63123H25.2815C26.5971 9.63123 27.6663 10.7008 27.6663 12.0161V35.9849Z" fill="#223948"/>
<path d="M4.68154 32.9361C4.14345 32.9361 3.70557 32.498 3.70557 31.9601V15.5177C3.70557 14.9796 4.14345 14.5417 4.68154 14.5417H10.8892C11.4273 14.5417 11.8652 14.9796 11.8652 15.5177V31.9601C11.8652 32.498 11.4273 32.9361 10.8892 32.9361H4.68154Z" fill="#CCEFFE"/>
<path d="M11.1596 15.5177C11.1596 15.369 11.0376 15.247 10.8889 15.247H4.68119C4.53241 15.247 4.41042 15.369 4.41042 15.5177V31.9602C4.41044 32.1088 4.53252 32.2309 4.68119 32.2309H10.8889C11.0375 32.2309 11.1596 32.1088 11.1596 31.9602V15.5177ZM12.5701 31.9602C12.57 32.8872 11.8163 33.6413 10.8889 33.6414H4.68119C3.7537 33.6414 3.00002 32.8872 3 31.9602V15.5177C3 14.5903 3.75379 13.8365 4.68119 13.8365H10.8889C11.8163 13.8366 12.5701 14.5904 12.5701 15.5177V31.9602Z" fill="#223948"/>
</svg>
