<svg width="48" height="48" viewBox="0 0 48 48" fill="none" xmlns="http://www.w3.org/2000/svg">
<path d="M23.9876 43.3322C16.0193 43.3322 12.4698 42.3335 12.1801 40.0509C12.0352 39.0522 12.0352 37.483 12.1076 35.771V33.3456C12.1076 30.7777 15.15 25.713 19.4964 25.071L19.931 24.9996L20.0758 25.2137C20.3656 25.2137 21.2349 25.4989 23.9876 25.6417C26.8127 25.4989 27.6095 25.2851 27.8991 25.2137L28.044 24.9996H28.4788C32.825 25.713 35.795 30.7777 35.795 33.3456L35.9397 35.771V40.0509C35.5775 42.3335 32.0281 43.3322 24.06 43.3322H23.9876Z" fill="white"/>
<path d="M20.46 24.5907C20.4867 24.5953 20.5135 24.5983 20.5383 24.6027C20.7057 24.632 20.9187 24.6706 21.2071 24.7136C21.7776 24.7987 22.6518 24.9032 23.9889 24.9735C26.1464 24.8634 27.0754 24.7111 27.4928 24.6223L27.6896 24.3319H28.5335L28.5868 24.3406C30.9843 24.7341 32.9493 26.3134 34.2972 28.0707C35.6224 29.7985 36.4477 31.826 36.4623 33.3058L36.607 35.7309L36.6081 35.7505V40.1037L36.5994 40.1559C36.3542 41.6994 35.0318 42.6361 33.0313 43.1911C31.011 43.7515 28.0554 44.0001 24.0607 44.0001H23.9878C19.9931 44.0001 17.0367 43.7518 15.0248 43.1911C13.04 42.6378 11.7227 41.6991 11.5198 40.1461L11.5187 40.1472C11.3648 39.0863 11.368 37.4727 11.4393 35.7711V33.3461C11.4393 31.8586 12.2903 29.8073 13.6458 28.0739C15.0105 26.3289 16.9926 24.7699 19.3888 24.4124V24.4113L19.8227 24.3406L20.2447 24.271L20.46 24.5907ZM12.7758 35.7994C12.7125 37.2974 12.7064 38.6432 12.7965 39.5795L12.8411 39.9547L12.8433 39.9667L12.8661 40.1015C13.0141 40.7759 13.6497 41.4202 15.3836 41.9035C17.2109 42.4127 20.0142 42.6636 23.9878 42.6636H24.0607C28.0335 42.6636 30.8367 42.413 32.6735 41.9035C34.4943 41.3984 35.1369 40.7117 35.2715 39.9884V35.7853L35.128 33.3852L35.1269 33.3656V33.3461C35.1269 32.2614 34.4711 30.4933 33.2369 28.8841C32.0222 27.3006 30.3444 25.9993 28.4139 25.6673H28.3986L28.3084 25.8011L28.0593 25.862C27.7197 25.9457 26.8792 26.1646 24.0215 26.3089L23.9878 26.3111L23.953 26.3089C22.5569 26.2366 21.6302 26.1274 21.0103 26.0349C20.7014 25.9888 20.4697 25.9471 20.3067 25.9185C20.2235 25.904 20.1653 25.8944 20.1207 25.8881C20.0728 25.8813 20.0645 25.8816 20.0761 25.8816H19.7216L19.6172 25.7282L19.6052 25.7304L19.5944 25.7326V25.7315C17.6491 26.0188 15.9396 27.3101 14.6985 28.8972C13.4462 30.4986 12.7758 32.2657 12.7758 33.3461V35.7994Z" fill="#223948"/>
<path d="M23.9168 26.4957C23.4098 26.4957 22.1783 26.4957 21.7437 26.353C19.4981 25.925 14.355 23.9277 14.355 14.9398C14.355 8.30583 17.6871 4.66785 23.8444 4.66785C30.0742 4.66785 33.6236 8.37717 33.6236 14.8685C33.6236 23.3571 29.4947 25.7823 25.9452 26.353L23.9168 26.4244V26.4957Z" fill="white"/>
<path d="M32.9551 14.8684C32.9551 11.7408 32.1014 9.37645 30.5876 7.79653C29.0777 6.22073 26.8255 5.33555 23.8441 5.33555C20.8985 5.33556 18.7261 6.20291 17.2822 7.76934C15.8302 9.3446 15.0224 11.7271 15.0224 14.9402C15.0225 19.2993 16.2665 21.8705 17.6955 23.3998C18.9552 24.7478 20.4136 25.344 21.4517 25.6041L21.8682 25.6965L21.9106 25.7052L21.9519 25.7183C22.0657 25.7556 22.3862 25.7921 22.8306 25.8107C22.9707 25.8166 23.1125 25.8179 23.2482 25.8205V25.7792L25.8712 25.6867C27.5312 25.4145 29.2717 24.7194 30.6061 23.1475C31.9499 21.5643 32.9551 19.0068 32.9551 14.8684ZM34.2916 14.8684C34.2916 19.2182 33.2328 22.1177 31.6251 24.012C30.0163 25.9072 27.9303 26.7102 26.0506 27.0124L26.0104 27.0189L25.968 27.0211L24.5847 27.0689V27.1635H23.917C23.6645 27.1635 23.2164 27.1636 22.7751 27.1451C22.3895 27.1289 21.9088 27.0947 21.5865 27.0015C20.3725 26.7653 18.3975 26.1084 16.7189 24.3122C15.0152 22.4889 13.6871 19.5684 13.687 14.9402C13.687 11.5195 14.5458 8.76569 16.2992 6.86347C18.0607 4.95244 20.6326 4.00013 23.8441 4.00012C27.0925 4.00012 29.73 4.97049 31.5522 6.87217C33.3704 8.76972 34.2916 11.5051 34.2916 14.8684Z" fill="#223948"/>
</svg>
