<svg width="128" height="128" viewBox="0 0 128 128" fill="none" xmlns="http://www.w3.org/2000/svg">
<g clip-path="url(#clip0_6091_893)">
<path d="M64.0006 16.2397C90.3779 16.2397 111.761 37.6242 111.761 64C111.761 90.3758 90.3774 111.761 64.0006 111.761C37.6237 111.761 16.2397 90.3774 16.2397 64C16.2397 37.6226 37.6232 16.2397 64.0006 16.2397ZM64.0006 10.7047C34.6132 10.7047 10.7047 34.6127 10.7047 64C10.7047 93.3873 34.6132 117.296 64.0006 117.296C93.3879 117.296 117.296 93.3873 117.296 64C117.296 34.6127 93.3879 10.7047 64.0006 10.7047Z" fill="black"/>
<path d="M64.0011 16.2208C90.3893 16.2208 111.781 37.6134 111.781 64.0011C111.781 90.3887 90.3893 111.781 64.0011 111.781C37.6129 111.781 16.2208 90.3892 16.2208 64.0011C16.2208 37.6129 37.6129 16.2208 64.0011 16.2208ZM64.0011 11.3608C34.975 11.3608 11.3608 34.9744 11.3608 64.0005C11.3608 93.0266 34.975 116.641 64.0011 116.641C93.0272 116.641 116.641 93.0266 116.641 64.0005C116.641 34.9744 93.0272 11.3608 64.0011 11.3608Z" fill="#3A3A3A"/>
<path d="M64 22.7796C86.7286 22.7796 105.22 41.2708 105.22 64C105.22 86.7291 86.7286 105.22 64 105.22C41.2714 105.22 22.7802 86.7291 22.7802 64C22.7802 41.2708 41.2714 22.7796 64 22.7796ZM64 13.5651C36.1462 13.5651 13.5651 36.1457 13.5651 64C13.5651 91.8543 36.1462 114.435 64 114.435C91.8537 114.435 114.435 91.8553 114.435 64C114.435 36.1446 91.8553 13.5651 64 13.5651Z" fill="#9C9A9A"/>
<path d="M64 22.7796C86.7286 22.7796 105.22 41.2708 105.22 64C105.22 86.7291 86.7286 105.22 64 105.22C41.2714 105.22 22.7802 86.7291 22.7802 64C22.7802 41.2708 41.2714 22.7796 64 22.7796ZM64 13.5651C36.1462 13.5651 13.5651 36.1457 13.5651 64C13.5651 91.8543 36.1462 114.435 64 114.435C91.8537 114.435 114.435 91.8553 114.435 64C114.435 36.1446 91.8553 13.5651 64 13.5651Z" fill="#9C9A9A"/>
<circle cx="64.5" cy="63.5" r="41.5" fill="white"/>
</g>
<rect x="24" y="23" width="79" height="82" rx="39.5" fill="white"/>
<path d="M59.7956 32.9391C59.969 32.7676 60.2036 32.6712 60.4482 32.6709L65.7326 32.6692C65.9777 32.6696 66.2126 32.7666 66.386 32.9388C66.5595 33.111 66.6574 33.3445 66.6583 33.5883V36.8068C66.6574 37.0502 66.5597 37.2835 66.3866 37.4557C66.2136 37.6278 65.9791 37.725 65.7343 37.7259H60.4516C60.2063 37.7259 59.9709 37.6291 59.7971 37.4569C59.6232 37.2846 59.5251 37.0508 59.5242 36.8068V33.5917C59.5254 33.3479 59.6236 33.1145 59.7973 32.9425M58.9901 32.1396C58.798 32.33 58.6455 32.5563 58.5415 32.8055C58.4374 33.0547 58.3839 33.3219 58.3839 33.5917V36.8102C58.3839 37.9445 59.3113 38.8653 60.4516 38.8653H65.7326C66.2822 38.8653 66.8008 38.6501 67.1924 38.2606C67.3845 38.0701 67.537 37.8438 67.641 37.5946C67.745 37.3454 67.7986 37.0783 67.7986 36.8085V33.59C67.7986 32.4574 66.8712 31.5349 65.7309 31.5349H60.4482C59.8986 31.5349 59.3782 31.7501 58.9884 32.1396M53.7761 48.6028C53.9994 48.3807 54.4905 48.4798 54.8787 48.7429L56.3007 49.7098C56.4295 49.7986 56.584 49.8465 56.7403 49.8465L69.4456 49.8431C69.6037 49.8426 69.7581 49.795 69.8887 49.7064L71.3107 48.7395C71.8276 48.3859 72.5335 48.3261 72.5335 48.9513V52.8258C72.5348 52.9283 72.5156 53.0301 72.4768 53.1251C72.4381 53.2202 72.3806 53.3065 72.3078 53.3791C72.235 53.4517 72.1483 53.5091 72.0528 53.5478C71.9574 53.5866 71.8551 53.606 71.7521 53.6048L54.4373 53.6082C54.2296 53.6082 54.0304 53.5262 53.8836 53.3801C53.7367 53.234 53.6542 53.0358 53.6542 52.8292V48.9547C53.6496 48.8907 53.658 48.8263 53.679 48.7656C53.6999 48.7048 53.733 48.6489 53.7761 48.6011M52.9621 47.7931C52.8112 47.9455 52.6928 48.1266 52.614 48.3257C52.5352 48.5247 52.4976 48.7375 52.5035 48.9513V52.8275C52.504 53.3374 52.7079 53.8262 53.0705 54.1866C53.4331 54.547 53.9247 54.7494 54.4373 54.7494L71.7521 54.746C72.0058 54.7462 72.257 54.6965 72.4913 54.5998C72.7257 54.503 72.9384 54.3611 73.1174 54.1822C73.4815 53.8201 73.6824 53.3366 73.6841 52.8241L73.6824 48.9496C73.6824 48.3261 73.3733 47.7931 72.8546 47.5197C72.1093 47.1285 71.2317 47.4053 70.6598 47.7931L69.3322 48.6985H56.8537L55.5244 47.7982C54.6142 47.1764 53.5838 47.1764 52.9621 47.7931Z" fill="#42250D"/>
<path d="M60.1597 35.5665H66.0246V50.9518H60.1597V35.5665Z" fill="#9B7753"/>
<path d="M60.7041 36.0517H65.4784V50.4649H60.7058L60.7041 36.0517ZM59.5414 34.8969V36.0534L59.5431 50.4649V51.6231H66.6428V50.4649V36.0517V34.8951H59.5431" fill="#603913"/>
<path d="M63.8435 94.8491C63.7269 94.9618 63.5855 95.046 63.4305 95.0949C63.2754 95.1438 63.1111 95.1562 62.9505 95.131C62.7967 95.1105 62.6499 95.0546 62.5217 94.9677C62.3934 94.8808 62.2874 94.7653 62.212 94.6304L58.4337 87.6844L58.4269 51.9084L67.7764 51.9067L67.7849 87.6827L64.0067 94.6304C63.9644 94.7115 63.9093 94.7854 63.8435 94.8491Z" fill="#636362"/>
<path d="M58.9112 52.1271H67.2921L67.3006 87.8312L63.5224 94.7773C63.5049 94.8117 63.4817 94.8429 63.4537 94.8696C63.251 95.0746 62.8406 95.0438 62.6963 94.7773L58.9181 87.8329L58.9112 52.1271ZM57.7777 50.9996V52.1288L57.7811 87.8329V88.1199L57.9203 88.3711L61.6985 95.3154C61.816 95.5308 61.9831 95.7156 62.186 95.8545C62.389 95.9934 62.6221 96.0827 62.8663 96.1149C63.3816 96.1901 63.9036 96.0227 64.2574 95.6691C64.3628 95.5646 64.4525 95.4455 64.5236 95.3154L68.2985 88.3694L68.4341 88.1182V87.8312L68.4273 52.1271V50.9996H57.7777Z" fill="#414042"/>
<path d="M60.735 37.9889H64.29V50.3794H60.735V37.9889Z" fill="#C49A6C"/>
<path d="M66.5913 37.6814C66.4711 37.8026 66.3277 37.8987 66.1696 37.9641C66.0116 38.0295 65.842 38.0629 65.6708 38.0624H60.5118C60.1668 38.0615 59.8362 37.9247 59.5923 37.6821C59.3483 37.4394 59.2109 37.1106 59.21 36.7674V33.6275C59.2081 33.3713 59.2836 33.1204 59.4265 32.9072C59.5695 32.694 59.7734 32.5284 60.012 32.4317C60.1704 32.3682 60.3393 32.3346 60.5101 32.3326H65.6725C65.9301 32.3308 66.1824 32.4058 66.3967 32.548C66.611 32.6902 66.7775 32.8931 66.8747 33.1304C66.9411 33.2887 66.9743 33.4539 66.9743 33.6258V36.7692C66.9746 36.9387 66.9411 37.1067 66.8756 37.2633C66.8102 37.4199 66.7141 37.562 66.5931 37.6814" fill="#633B1A"/>
<path d="M59.8712 32.9937C59.9546 32.9095 60.0541 32.8427 60.1638 32.7973C60.2735 32.7518 60.3912 32.7286 60.5101 32.7289H65.6725C65.911 32.7312 66.139 32.8264 66.3076 32.9941C66.4762 33.1618 66.5719 33.3886 66.5742 33.6258V36.7692C66.5737 37.0069 66.4786 37.2347 66.3096 37.4028C66.1406 37.5709 65.9115 37.6656 65.6725 37.666H60.5101C60.271 37.6642 60.0423 37.569 59.8733 37.4009C59.7043 37.2327 59.6085 37.0052 59.6067 36.7674V33.6275C59.6067 33.3798 59.7098 33.156 59.8712 32.9937ZM59.3079 32.43C59.1492 32.5865 59.0235 32.7728 58.938 32.9781C58.8525 33.1834 58.8089 33.4036 58.8098 33.6258V36.7692C58.8079 37.1041 58.907 37.432 59.0944 37.7104C59.2817 37.9887 59.5488 38.2048 59.8609 38.3306C60.0681 38.416 60.2845 38.4587 60.5101 38.4587L65.6725 38.457C66.0087 38.4581 66.3375 38.3595 66.617 38.1739C66.8966 37.9883 67.1143 37.7241 67.2422 37.4149C67.3273 37.2089 67.371 36.9884 67.371 36.7657V33.6258C67.3735 33.2907 67.2748 32.9626 67.0877 32.684C66.9006 32.4053 66.6338 32.1889 66.3217 32.0627C66.1151 31.9789 65.894 31.936 65.6708 31.9363H60.5118C60.0609 31.9363 59.6284 32.1145 59.3096 32.4317" fill="#42250D"/>
<path d="M72.3171 53.5809C72.2098 53.6884 72.0822 53.7736 71.9416 53.8317C71.8009 53.8897 71.6501 53.9195 71.4979 53.9191L54.6898 53.9225C54.5375 53.9235 54.3866 53.8943 54.2457 53.8367C54.1049 53.7792 53.9769 53.6944 53.8692 53.5873C53.7616 53.4802 53.6763 53.3529 53.6185 53.2128C53.5607 53.0727 53.5313 52.9226 53.5322 52.7711V49.0094C53.5322 48.6899 53.6611 48.4952 53.7692 48.3875C54.1711 47.9861 54.8684 48.1518 55.3441 48.4747L56.7232 49.4143C56.7833 49.4568 56.8555 49.4789 56.9292 49.4775L69.2601 49.474C69.3325 49.4753 69.4034 49.4538 69.4628 49.4125L70.8436 48.473C71.2076 48.2253 71.7916 48.0168 72.2346 48.2492C72.3909 48.3312 72.6537 48.5396 72.6537 49.006V52.7677C72.6542 52.9186 72.6248 53.0682 72.567 53.2077C72.5093 53.3473 72.4243 53.4741 72.3171 53.5809Z" fill="#633B1A"/>
<path d="M54.0491 48.6677C54.2672 48.4508 54.743 48.5481 55.1174 48.8044L56.4981 49.7423C56.6243 49.829 56.7741 49.8755 56.9275 49.8755L69.2584 49.8721C69.4117 49.8721 69.5615 49.8256 69.6877 49.7388L71.0668 48.7993C71.57 48.4576 72.2552 48.3995 72.2552 49.006V52.7677C72.2557 52.867 72.2363 52.9654 72.1983 53.0572C72.1604 53.149 72.1045 53.2325 72.0339 53.3027C71.9633 53.3729 71.8794 53.4285 71.7871 53.4663C71.6948 53.504 71.5959 53.5233 71.4961 53.5228L54.6897 53.5262C54.4882 53.5262 54.295 53.4467 54.1524 53.3052C54.0097 53.1636 53.9294 52.9716 53.9289 52.7711V49.0094C53.9289 48.8539 53.9753 48.7429 54.0491 48.6677ZM53.4858 48.1074C53.3689 48.2263 53.2774 48.3675 53.2169 48.5225C53.1564 48.6775 53.1281 48.8432 53.1338 49.0094V52.7711C53.1338 53.6253 53.8327 54.3189 54.6897 54.3189L71.4978 54.3155C71.7024 54.3166 71.9052 54.2773 72.0944 54.1999C72.2836 54.1225 72.4554 54.0085 72.6 53.8646C72.7446 53.7206 72.859 53.5495 72.9366 53.3612C73.0142 53.1729 73.0534 52.9712 73.0521 52.7677V49.006C73.0521 48.514 72.8202 48.1091 72.4184 47.899C71.8207 47.5846 71.096 47.8204 70.6185 48.1467L69.2463 49.0777L56.9378 49.0811L55.5673 48.1484C54.8237 47.6427 53.9701 47.6256 53.4858 48.1074Z" fill="#42250D"/>
<path d="M65.6966 47.6034V47.0431C65.6966 47.0431 64.6661 46.7236 63.093 46.7236C61.5216 46.7236 60.5066 47.0448 60.5066 47.0448V47.6051C60.5066 47.6051 61.9372 47.284 63.093 47.284C64.2488 47.284 65.6966 47.6034 65.6966 47.6034ZM65.6966 44.2654V43.705C65.6966 43.705 64.6661 43.3856 63.0913 43.3856C61.5199 43.3856 60.5049 43.7067 60.5049 43.7067V44.2654C60.5049 44.2654 61.9372 43.9459 63.093 43.9459C64.2488 43.9459 65.6966 44.2654 65.6966 44.2654ZM65.6966 41.2331V40.6727C65.6966 40.6727 64.6644 40.3516 63.0913 40.3516C61.5181 40.3516 60.5049 40.6744 60.5049 40.6744V41.2331C60.5049 41.2331 61.9372 40.9136 63.0913 40.9136C64.2471 40.9136 65.6966 41.2331 65.6966 41.2331Z" fill="#603913"/>
<path d="M62.7031 94.6492L58.9919 87.8261L58.985 57.1103H67.2199L67.2267 87.8244L63.5172 94.6492C63.3575 94.9448 62.8646 94.943 62.7031 94.6492Z" fill="#939598"/>
<path d="M63.1102 94.8696C63.0285 94.8734 62.9474 94.8549 62.8757 94.816C62.8039 94.7772 62.7442 94.7195 62.7031 94.6492L58.9919 87.8261L58.985 57.1103H63.1033C63.1033 57.1103 63.2733 94.8696 63.1102 94.8696Z" fill="#BCBEC0"/>
<path d="M58.59 56.8318L67.5444 56.8079" stroke="#414042" stroke-width="0.96" stroke-miterlimit="10"/>
<path d="M71.0153 49.117C71.0184 49.0319 71.0001 48.9474 70.962 48.871L69.6877 49.7389C69.5615 49.8256 69.4118 49.8721 69.2584 49.8721H68.4134C68.2948 49.9453 68.158 49.9843 68.0184 49.9849H55.6876C55.5343 49.9853 55.3846 49.9394 55.2582 49.8533L53.9358 48.953L53.9307 49.0094V52.7712C53.9307 53.188 54.2707 53.5262 54.6915 53.5262L70.6512 53.5228C70.7622 53.4559 70.8541 53.3616 70.9179 53.2491C70.9816 53.1366 71.0152 53.0096 71.0153 52.8805V49.117ZM60.0824 32.84C59.9387 32.9156 59.8185 33.0287 59.7346 33.1671C59.6508 33.3056 59.6066 33.4642 59.6066 33.6259V36.7692C59.6089 37.0067 59.7048 37.2337 59.8738 37.4015C60.0428 37.5693 60.2713 37.6643 60.51 37.6661H64.8584C65.0009 37.5891 65.1201 37.4757 65.2037 37.3375C65.2874 37.1994 65.3324 37.0415 65.3341 36.8802V33.7369C65.3319 33.4991 65.2357 33.2718 65.0664 33.104C64.897 32.9362 64.6681 32.8414 64.4291 32.84H60.0824Z" fill="#916136"/>
<path d="M60.3692 33.3013L63.0363 33.2996C63.1224 33.3006 63.2063 33.3267 63.2776 33.3747C63.3489 33.4227 63.4044 33.4905 63.4374 33.5696C63.4703 33.6488 63.4791 33.7358 63.4628 33.8199C63.4464 33.904 63.4056 33.9815 63.3454 34.0427C63.263 34.1237 63.1521 34.1696 63.0363 34.1708H60.3692C60.2831 34.1698 60.1992 34.1437 60.1279 34.0957C60.0566 34.0476 60.001 33.9799 59.9681 33.9007C59.9351 33.8216 59.9263 33.7346 59.9427 33.6505C59.959 33.5664 59.9998 33.4889 60.06 33.4277C60.1425 33.3467 60.2533 33.3008 60.3692 33.2996M56.9138 51.2712L63.7095 51.2695C63.8189 51.2599 63.9208 51.2098 63.995 51.1292C64.0692 51.0485 64.1103 50.9432 64.1103 50.8339C64.1103 50.7246 64.0692 50.6193 63.995 50.5386C63.9208 50.458 63.8189 50.4079 63.7095 50.3983H56.9138C56.7972 50.3983 56.6853 50.4443 56.6029 50.5264C56.5204 50.6084 56.4741 50.7196 56.4741 50.8356C56.4741 51.0748 56.6716 51.2712 56.9138 51.2712Z" fill="#B78358"/>
<defs>
<clipPath id="clip0_6091_893">
<rect width="108" height="108" fill="white" transform="translate(10 10)"/>
</clipPath>
</defs>
</svg>
