<svg width="48" height="48" viewBox="0 0 48 48" fill="none" xmlns="http://www.w3.org/2000/svg">
<path d="M34.4987 31.4073C31.1425 31.4073 29.4435 30.0886 28.327 28.9404C27.7028 28.2932 26.751 26.3184 25.3312 22.7211C25.2631 22.5482 25.2191 22.4352 25.2037 22.3997L25.1817 22.3509C24.9444 21.8256 24.8257 21.5619 23.9971 21.5619C23.2343 21.5619 23.1399 21.7436 22.9333 22.1448C22.8805 22.2445 22.8278 22.3487 22.764 22.4529C22.7398 22.4994 22.6058 22.8341 22.4651 23.1865C21.4409 25.7332 20.3924 28.1934 19.6671 28.9492C18.5572 30.0973 16.8516 31.4161 13.4954 31.4161H13.1877C10.7084 31.3585 7.2687 30.9019 6.03568 27.6217C5.44223 26.0413 5.3763 24.4388 5.31696 23.2685C5.28838 22.6324 5.25321 21.8412 5.11695 21.6993C4.82028 21.3963 4.44953 21.1776 4.04216 21.0654L3.72566 20.9923L3.69929 20.6642L3.46191 17.4637L3.85315 17.3928C3.8993 17.3928 8.49295 16.566 12.5811 16.566C12.8184 16.566 13.0559 16.566 13.2888 16.566C15.6889 16.6259 17.7418 17.2132 19.555 17.7319C20.9991 18.1464 22.2454 18.5032 23.3531 18.5032C23.5701 18.5046 23.7867 18.5209 24.0014 18.552C24.2157 18.5232 24.4316 18.5092 24.6477 18.5098C25.7466 18.5098 27.0016 18.153 28.4456 17.7385C30.259 17.2199 32.3117 16.6303 34.7119 16.5727C34.9464 16.5727 35.1822 16.5727 35.4197 16.5727C39.5077 16.5727 44.1014 17.3906 44.1453 17.3994L44.5365 17.4703L44.2706 20.99L43.9497 21.0588C43.5434 21.1706 43.1734 21.3885 42.8772 21.6904C42.7409 21.8345 42.7057 22.6258 42.6772 23.2597C42.6244 24.43 42.5518 26.0346 41.9584 27.6128C40.7276 30.8931 37.2878 31.3497 34.8065 31.4073H34.4987Z" fill="black"/>
<path d="M35.4127 17.0005C39.5096 17.0005 44.0615 17.8206 44.0615 17.8206L43.8527 20.6221C43.3593 20.752 42.9102 21.0148 42.5538 21.3824C41.9823 21.9853 42.5537 24.7602 41.5405 27.4554C40.5272 30.1506 37.8479 30.8931 34.7951 30.9641H34.4984C31.3949 30.9641 29.7684 29.7938 28.6431 28.6301C27.6562 27.6083 25.7154 22.4618 25.6056 22.2158C25.3484 21.6461 25.144 21.1076 23.9989 21.1076C22.7593 21.1076 22.7285 21.6572 22.3922 22.2158C22.2515 22.4374 20.3416 27.6083 19.3547 28.6301C18.2294 29.7938 16.6029 30.9641 13.4994 30.9641H13.2027C10.1608 30.8931 7.46397 30.1529 6.45293 27.4554C5.44189 24.758 6.01335 21.983 5.43969 21.3824C5.08315 21.0148 4.63411 20.752 4.14072 20.6221L3.93192 17.8206C3.93192 17.8206 8.4838 17.0005 12.5719 17.0005C12.8049 17.0005 13.0379 17.0005 13.2687 17.0005C17.526 17.1047 20.7416 18.9377 23.3417 18.9377C23.5626 18.9396 23.7831 18.9588 24.0011 18.9953C24.215 18.9632 24.431 18.9477 24.6473 18.9487C27.2431 18.9487 30.463 17.1157 34.7203 17.0116C34.9504 17.0116 35.1826 17.0116 35.417 17.0116M35.417 16.125C35.1732 16.125 34.9313 16.125 34.6983 16.125C32.2433 16.1848 30.1597 16.7899 28.3244 17.3086C26.9111 17.7142 25.6869 18.0622 24.6473 18.0622C24.4312 18.0644 24.2153 18.08 24.0011 18.1087C23.7866 18.0829 23.5708 18.0703 23.3549 18.071C22.3109 18.071 21.0911 17.7208 19.6778 17.3174C17.8403 16.7921 15.7589 16.1937 13.3038 16.1339C13.073 16.1339 12.8313 16.1339 12.5851 16.1339C8.45743 16.1339 3.96928 16.934 3.78026 16.9672L3 17.1069L3.05934 17.9048L3.26815 20.7064L3.3165 21.3713L3.96049 21.5109C4.26122 21.599 4.53692 21.7577 4.76493 21.9742C4.8435 22.4131 4.88396 22.8581 4.88581 23.304C4.94076 24.5054 5.0133 26.1499 5.6331 27.7946C7.1123 31.7331 11.684 31.8395 13.1851 31.875H13.5039C17.0205 31.875 18.8185 30.4853 19.9899 29.2729C20.724 28.5126 21.6757 26.3649 22.8802 23.3728C22.9989 23.0757 23.1241 22.7677 23.1659 22.6701C23.2077 22.5726 23.2824 22.4596 23.3307 22.3687C23.5 22.0429 23.5087 22.0252 24.0055 22.0252C24.5505 22.0252 24.5791 22.085 24.7902 22.5549L24.8121 22.6059C24.8275 22.6391 24.8693 22.7477 24.933 22.9073C26.3925 26.6087 27.3507 28.5725 28.0101 29.2707C29.1794 30.4808 30.9751 31.8728 34.4961 31.8728H34.8149C36.316 31.8373 40.8877 31.7309 42.3669 27.7924C42.9845 26.1455 43.0592 24.5009 43.1141 23.3018C43.1161 22.8558 43.1565 22.4109 43.235 21.972C43.4654 21.7535 43.7442 21.5939 44.0483 21.5065L44.6923 21.3669L44.7319 20.7019L44.9406 17.9004L45 17.1025L44.2198 16.9628C44.0307 16.9296 39.5426 16.1294 35.4149 16.1294L35.417 16.125Z" fill="#231F20"/>
<path d="M34.7156 17.0005C30.4583 17.1046 27.2427 18.9376 24.6426 18.9376C24.4276 18.9405 24.213 18.9597 24.0008 18.9953C23.7869 18.9632 23.5709 18.9476 23.3546 18.9487C20.7589 18.9487 17.539 17.1157 13.2815 17.0115C9.0242 16.9074 3.93604 17.8228 3.93604 17.8228L4.14484 20.6243C4.63823 20.7542 5.08727 21.017 5.44381 21.3846C6.01526 21.9875 4.26352 18.9243 6.54276 18.2949C10.0462 17.3219 13.453 17.4992 16.0487 17.7807C23.192 18.5564 22.0447 22.014 22.1853 21.7858C22.5239 21.2361 22.7765 20.5512 24.0162 20.5512C25.1614 20.5512 25.5173 21.2161 25.7746 21.7858C25.8844 22.0318 25.1591 19.9395 27.2647 19.0906C30.4275 17.8161 32.4781 17.4504 35.7751 17.3728C38.817 17.3019 40.7335 17.5945 41.782 17.8893C42.4611 18.0865 42.4787 18.2927 42.9534 18.7027C43.5821 19.2435 43.87 20.6243 43.87 20.6243L44.0788 17.8228C44.0788 17.8228 38.9752 16.9052 34.7156 17.0005Z" fill="#414042"/>
<path d="M13.2315 30.0997C11.0051 30.0997 6.69715 28.6923 6.3301 23.3728C6.22459 21.8435 6.59385 20.6067 7.42905 19.6958C8.83572 18.1576 11.0336 18.1088 11.1194 18.1088C11.1325 18.1088 11.7787 18.0623 12.7304 18.0623C15.2932 18.0623 19.6978 18.3992 20.4055 20.6599C20.7683 21.8169 20.722 24.9709 18.9835 27.3624C17.6824 29.1511 15.6866 30.0975 13.2272 30.0975L13.2315 30.0997Z" fill="#231F20"/>
<path d="M12.7305 18.2838C15.1482 18.2838 19.5265 18.5874 20.2034 20.7218C20.8276 22.7166 20.0584 29.8713 13.2338 29.8713C10.7699 29.8713 6.89282 28.3198 6.55214 23.3505C6.21146 18.3813 11.1238 18.3303 11.1238 18.3303C11.1238 18.3303 11.7832 18.2838 12.7327 18.2838M12.7327 17.8405C11.8315 17.8405 11.1941 17.8804 11.104 17.887C10.8842 17.887 8.68632 17.9823 7.26206 19.5427C6.3829 20.5002 5.99826 21.7946 6.10816 23.386C6.2686 25.7088 7.20711 27.5972 8.82478 28.8296C10.0959 29.7845 11.6356 30.3062 13.2206 30.319C15.7614 30.319 17.8142 29.3416 19.155 27.493C20.8035 25.2256 21.0584 22.0273 20.61 20.5911C19.8979 18.317 15.9285 17.8383 12.726 17.8383L12.7327 17.8405Z" fill="black"/>
<path d="M34.5517 30.0997C32.0856 30.0997 30.0943 29.1533 28.7953 27.3646C27.0568 24.9731 27.0106 21.8235 27.3732 20.6621C28.081 18.4014 32.4856 18.0645 35.0483 18.0645C36.0023 18.0645 36.6463 18.111 36.6726 18.1132C36.7518 18.1132 38.9519 18.1598 40.3586 19.6958C41.1915 20.6067 41.5608 21.8435 41.4575 23.3728C41.0927 28.6923 36.7847 30.0997 34.556 30.0997H34.5517Z" fill="#231F20"/>
<path d="M35.0541 18.2838C36.0101 18.2838 36.6629 18.3304 36.6629 18.3304C36.6629 18.3304 41.5818 18.3924 41.2412 23.355C40.9005 28.3176 37.0234 29.8757 34.5508 29.878C27.7372 29.878 26.957 22.7233 27.5812 20.7285C28.2405 18.5875 32.6253 18.2905 35.0541 18.2905M35.0541 17.8472C31.8495 17.8472 27.8822 18.3237 27.1702 20.6C26.7306 22.0362 26.9745 25.2324 28.6252 27.502C29.968 29.3505 32.0209 30.3279 34.5595 30.3279C36.1445 30.315 37.6842 29.7933 38.9554 28.8385C40.573 27.5995 41.5137 25.7177 41.6719 23.3949C41.7819 21.8035 41.3928 20.5135 40.518 19.5516C39.0938 18.0001 36.8916 17.9026 36.6762 17.8959C36.5794 17.8959 35.9508 17.8494 35.0496 17.8494L35.0541 17.8472Z" fill="black"/>
<path d="M20.1963 20.7264C21.3635 23.9823 17.2313 20.7264 11.2904 21.613C7.81109 22.1294 6.89456 28.3132 6.54509 23.3506C6.19562 18.388 11.1234 18.3304 11.1234 18.3304C11.1234 18.3304 19.1413 17.7829 20.1963 20.7264Z" fill="#414042"/>
<path d="M27.5881 20.7263C26.9638 22.7211 28.0562 25.5315 31.3992 21.7813C34.4763 18.6074 41.2393 23.355 41.2393 23.355C41.5844 18.3946 36.6632 18.3303 36.6632 18.3303C36.6632 18.3303 28.5243 17.743 27.5881 20.7263Z" fill="#414042"/>
<path d="M6.1058 19.2549C6.21164 18.6795 6.00138 18.1578 5.63617 18.0895C5.27095 18.0211 4.88909 18.4321 4.78325 19.0074C4.67741 19.5827 4.88768 20.1045 5.25289 20.1728C5.6181 20.2411 5.99997 19.8302 6.1058 19.2549Z" fill="#808285"/>
<path d="M42.7037 20.1366C43.0582 20.0247 43.205 19.4813 43.0317 18.9229C42.8584 18.3645 42.4306 18.0025 42.0761 18.1144C41.7216 18.2263 41.5748 18.7697 41.7481 19.3281C41.9214 19.8865 42.3492 20.2485 42.7037 20.1366Z" fill="#808285"/>
</svg>
