<svg width="48" height="48" viewBox="0 0 48 48" fill="none" xmlns="http://www.w3.org/2000/svg">
<path d="M36.9919 23.4796L34.8882 22.916L36.537 16.7625C37.7461 12.2501 34.9487 7.54337 30.3205 6.30325C25.6923 5.06314 20.9163 7.74052 19.7072 12.253L18.0584 18.4064L15.9547 17.8427C14.9028 17.5609 13.5761 18.3046 13.3013 19.3302L9.45415 33.6881C9.17935 34.7137 9.95642 36.0211 11.0083 36.3029L32.0455 41.9398C33.0974 42.2217 34.4241 41.478 34.6989 40.4524L38.5461 26.0945C38.8209 25.0689 38.0438 23.7615 36.9919 23.4796ZM24.7298 35.5828L20.5224 34.4554L22.573 30.1684C21.631 29.4763 21.1193 28.0202 21.3941 26.9946C21.8338 25.3537 23.6911 24.3125 25.3741 24.7635C27.0571 25.2144 28.145 27.0448 27.7053 28.6857C27.3756 29.9164 26.4696 30.7728 25.0974 30.8448L24.7298 35.5828ZM30.6808 21.7885L22.2659 19.5338L23.9147 13.3804C24.5192 11.1242 26.9072 9.78545 29.2213 10.4055C31.5354 11.0256 32.9341 13.3789 32.3295 15.6352L30.6808 21.7885Z" fill="black" fill-opacity="0.15"/>
</svg>
