<svg width="48" height="48" viewBox="0 0 48 48" fill="none" xmlns="http://www.w3.org/2000/svg">
<path d="M6.52885 32.7354C4.90245 35.5524 6.93638 39.0719 10.1873 39.0719H37.8135C41.0625 39.0719 43.0965 35.5524 41.472 32.7354L27.6607 8.7939C26.0343 5.97682 21.9665 5.97682 20.3401 8.7939L6.52885 32.7354Z" fill="#CCEFFE"/>
<path d="M24 17.7292V25.6457" stroke="#223948" stroke-width="3.16662" stroke-linecap="round"/>
<path d="M24 31.4512V31.4513" stroke="#223948" stroke-width="3.16662" stroke-linecap="round"/>
<path d="M19.7087 8.00258C21.8161 4.86586 26.556 4.9707 28.4878 8.31663L42.3 32.2584L42.4731 32.5838C44.1341 35.9768 41.6739 40.0265 37.8141 40.0268H10.1876C6.20173 40.0268 3.70746 35.7116 5.7017 32.2573L19.5128 8.31663L19.7087 8.00258ZM26.8335 9.27124C25.5749 7.09146 22.4261 7.09081 21.1671 9.2702L21.1681 9.27124L7.35593 33.213C6.09755 35.3929 7.67171 38.1166 10.1876 38.1166H37.8141C40.2489 38.1163 41.803 35.5603 40.7546 33.4182L40.6447 33.213L26.8335 9.27124Z" fill="#223948"/>
</svg>
