<svg width="48" height="48" viewBox="0 0 48 48" fill="none" xmlns="http://www.w3.org/2000/svg">
<g clip-path="url(#clip0_230_3225)">
<path d="M40.5 32.5C41.6046 32.5 42.5 33.3954 42.5 34.5C42.5 35.6046 41.6046 36.5 40.5 36.5H7.5C6.39543 36.5 5.5 35.6046 5.5 34.5C5.5 33.3954 6.39543 32.5 7.5 32.5H40.5ZM40.5 22C41.6046 22 42.5 22.8954 42.5 24C42.5 25.1046 41.6046 26 40.5 26H7.5C6.39543 26 5.5 25.1046 5.5 24C5.5 22.8954 6.39543 22 7.5 22H40.5ZM40.5 11.5C41.6046 11.5 42.5 12.3954 42.5 13.5C42.5 14.6046 41.6046 15.5 40.5 15.5H7.5C6.39543 15.5 5.5 14.6046 5.5 13.5C5.5 12.3954 6.39543 11.5 7.5 11.5H40.5Z" fill="white"/>
</g>
<defs>
<clipPath id="clip0_230_3225">
<rect width="48" height="48" fill="white"/>
</clipPath>
</defs>
</svg>
