<svg width="128" height="128" viewBox="0 0 128 128" fill="none" xmlns="http://www.w3.org/2000/svg">
<g clip-path="url(#clip0_6018_96458)">
<path d="M88.0355 94.6489C72.1621 94.6489 65.0912 92.6686 64.514 88.1423C64.2254 86.162 64.2254 83.0502 64.3697 79.6554V74.8462C64.3697 69.754 70.4305 59.7112 79.0887 58.4382L79.9545 58.2968L80.2431 58.7211C80.8204 58.7211 82.552 59.2869 88.0355 59.5698C93.6634 59.2869 95.2507 58.8625 95.828 58.7211L96.1166 58.2968H96.9824C105.641 59.7112 111.557 69.754 111.557 74.8462L111.846 79.6554V88.1423C111.124 92.6686 104.053 94.6489 88.1798 94.6489H88.0355Z" fill="white"/>
<path d="M96.6927 59.8487C104.485 60.9803 110.113 70.1744 110.113 74.8422C110.113 79.3685 110.546 85.1679 110.113 87.8554C109.68 90.8258 105.062 93.2304 88.0344 93.2304C71.0066 93.2304 66.3889 90.8258 65.8117 87.8554C65.5231 85.0264 65.8117 79.3685 65.8117 74.8422C65.8117 70.1744 71.5838 60.9803 79.3762 59.7072C79.3762 59.7072 79.9534 60.5559 88.0344 60.9803C95.9712 60.6974 96.6927 59.7072 96.6927 59.7072V59.8487ZM80.675 56.7368L78.9433 57.0197C69.8522 58.4342 63.0699 68.7599 63.0699 74.8422L62.7813 79.6514V88.2798C63.6471 93.9377 71.0066 96.0594 87.8901 96.0594C104.774 96.0594 112.133 93.7962 112.855 88.2798C113.143 86.2995 113.143 83.0462 112.999 79.7929V74.8422C112.999 68.7599 106.072 58.2927 97.1256 57.0197L95.3939 56.7368L94.8167 57.4441C90.2378 58.2739 85.5425 58.2739 80.9636 57.4441L80.3863 56.7368H80.675Z" fill="#223948"/>
<path d="M87.8939 61.2634C86.8838 61.2634 84.4306 61.2634 83.5648 60.9805C79.0914 60.1318 68.8458 56.1712 68.8458 38.3488C68.8458 25.1941 75.4838 17.9802 87.7496 17.9802C100.16 17.9802 107.231 25.3355 107.231 38.2073C107.231 55.0396 99.0053 59.8489 91.9344 60.9805L87.8939 61.1219V61.2634Z" fill="white"/>
<path d="M87.7476 19.3946C101.312 19.3946 105.786 28.1644 105.786 38.2072C105.786 52.3521 99.7248 58.2929 91.6438 59.5659C89.0078 59.8771 86.3432 59.8771 83.7071 59.5659C76.7805 58.1514 70.2869 52.2106 70.2869 38.3487C70.2869 28.1644 74.3274 19.3946 87.7476 19.3946V19.3946ZM87.7476 16.5657C74.616 16.5657 67.4008 24.2039 67.4008 38.2072C67.4008 57.1613 78.3679 61.4047 83.2742 62.2534C84.2843 62.5363 86.1603 62.5363 87.8919 62.5363L92.221 62.3949C99.7248 61.1218 108.672 56.0297 108.672 38.3487C108.672 24.4868 101.024 16.5657 87.7476 16.5657Z" fill="#223948"/>
<path d="M42.0355 94.6489C26.1621 94.6489 19.0912 92.6686 18.514 88.1423C18.2254 86.162 18.2254 83.0502 18.3697 79.6554V74.8462C18.3697 69.754 24.4305 59.7112 33.0887 58.4382L33.9545 58.2968L34.2431 58.7211C34.8203 58.7211 36.552 59.2869 42.0355 59.5698C47.6634 59.2869 49.2507 58.8625 49.8279 58.7211L50.1165 58.2968H50.9824C59.6406 59.7112 65.5571 69.754 65.5571 74.8462L65.8457 79.6554V88.1423C65.1241 92.6686 58.0533 94.6489 42.1798 94.6489H42.0355Z" fill="white"/>
<path d="M50.6927 59.8487C58.4851 60.9803 64.1129 70.1744 64.1129 74.8422C64.1129 79.3685 64.5458 85.1679 64.1129 87.8554C63.68 90.8258 59.0623 93.2304 42.0344 93.2304C25.0066 93.2304 20.3889 90.8258 19.8117 87.8554C19.5231 85.0264 19.8117 79.3685 19.8117 74.8422C19.8117 70.1744 25.5838 60.9803 33.3762 59.7072C33.3762 59.7072 33.9534 60.5559 42.0344 60.9803C49.9711 60.6974 50.6927 59.7072 50.6927 59.7072V59.8487ZM34.675 56.7368L32.9433 57.0197C23.8522 58.4342 17.0699 68.7599 17.0699 74.8422L16.7813 79.6514V88.2798C17.6471 93.9377 25.0066 96.0594 41.8901 96.0594C58.7737 96.0594 66.1332 93.7962 66.8547 88.2798C67.1433 86.2995 67.1433 83.0462 66.999 79.7929V74.8422C66.999 68.7599 60.0724 58.2927 51.1256 57.0197L49.3939 56.7368L48.8167 57.4441C44.2378 58.2739 39.5425 58.2739 34.9636 57.4441L34.3863 56.7368H34.675Z" fill="#223948"/>
<path d="M41.8939 61.2634C40.8838 61.2634 38.4306 61.2634 37.5648 60.9805C33.0914 60.1318 22.8458 56.1712 22.8458 38.3488C22.8458 25.1941 29.4838 17.9802 41.7496 17.9802C54.1597 17.9802 61.2306 25.3355 61.2306 38.2073C61.2306 55.0396 53.0053 59.8489 45.9344 60.9805L41.8939 61.1219V61.2634Z" fill="white"/>
<path d="M41.7476 19.3946C55.3122 19.3946 59.7856 28.1644 59.7856 38.2072C59.7856 52.3521 53.7248 58.2929 45.6438 59.5659C43.0078 59.8771 40.3432 59.8771 37.7071 59.5659C30.7805 58.1514 24.2869 52.2106 24.2869 38.3487C24.2869 28.1644 28.3274 19.3946 41.7476 19.3946V19.3946ZM41.7476 16.5657C28.616 16.5657 21.4008 24.2039 21.4008 38.2072C21.4008 57.1613 32.3679 61.4047 37.2742 62.2534C38.2843 62.5363 40.1603 62.5363 41.8919 62.5363L46.221 62.3949C53.7248 61.1218 62.6717 56.0297 62.6717 38.3487C62.6717 24.4868 55.0236 16.5657 41.7476 16.5657Z" fill="#223948"/>
<path d="M63.5952 106.149C48.1753 106.149 41.3065 104.169 40.7458 99.6422C40.4654 97.6619 40.4654 94.55 40.6056 91.1553V86.346C40.6056 81.2539 46.4932 71.2111 54.904 69.9381L55.7451 69.7966L56.0255 70.221C56.5862 70.221 58.2684 70.7868 63.5952 71.0697C69.0623 70.7868 70.6043 70.3624 71.165 70.221L71.4454 69.7966H72.2865C80.6973 71.2111 86.4447 81.2539 86.4447 86.346L86.7251 91.1553V99.6422C86.0242 104.169 79.1553 106.149 63.7354 106.149H63.5952Z" fill="white"/>
<path d="M72.005 71.3486C79.5748 72.4801 85.0418 81.6743 85.0418 86.3421C85.0418 90.8684 85.4624 96.6678 85.0418 99.3553C84.6213 102.326 80.1355 104.73 63.5942 104.73C47.0528 104.73 42.5671 102.326 42.0063 99.3553C41.726 96.5263 42.0063 90.8684 42.0063 86.3421C42.0063 81.6743 47.6136 72.4801 55.1833 71.2071C55.1833 71.2071 55.744 72.0558 63.5942 72.4801C71.3041 72.1972 72.005 71.2071 72.005 71.2071V71.3486ZM56.445 68.2367L54.7628 68.5196C45.9314 69.9341 39.3429 80.2598 39.3429 86.3421L39.0625 91.1513V99.7796C39.9036 105.438 47.0528 107.559 63.454 107.559C79.8552 107.559 87.0044 105.296 87.7053 99.7796C87.9856 97.7994 87.9856 94.546 87.8455 91.2927V86.3421C87.8455 80.2598 81.1168 69.7926 72.4256 68.5196L70.7434 68.2367L70.1827 68.9439C65.7346 69.7738 61.1734 69.7738 56.7253 68.9439L56.1646 68.2367H56.445Z" fill="#223948"/>
<path d="M63.4576 72.7632C62.4764 72.7632 60.0933 72.7632 59.2522 72.4803C54.9066 71.6317 44.9538 67.6711 44.9538 49.8486C44.9538 36.694 51.4021 29.4801 63.3175 29.4801C75.373 29.4801 82.2419 36.8354 82.2419 49.7072C82.2419 66.5395 74.2516 71.3488 67.3827 72.4803L63.4576 72.6218V72.7632Z" fill="white"/>
<path d="M63.3155 30.8945C76.4925 30.8945 80.8382 39.6643 80.8382 49.7071C80.8382 63.8519 74.9506 69.7928 67.1004 71.0658C64.5397 71.377 61.9512 71.377 59.3905 71.0658C52.6618 69.6513 46.3537 63.7105 46.3537 49.8486C46.3537 39.6643 50.2787 30.8945 63.3155 30.8945V30.8945ZM63.3155 28.0656C50.5591 28.0656 43.55 35.7038 43.55 49.7071C43.55 68.6612 54.2038 72.9046 58.9699 73.7533C59.9512 74.0362 61.7736 74.0362 63.4557 74.0362L67.6612 73.8948C74.9506 72.6217 83.6418 67.5296 83.6418 49.8486C83.6418 35.9866 76.2122 28.0656 63.3155 28.0656Z" fill="#223948"/>
</g>
<defs>
<clipPath id="clip0_6018_96458">
<rect width="115" height="115" fill="white" transform="translate(6 6)"/>
</clipPath>
</defs>
</svg>
