<svg width="48" height="48" viewBox="0 0 48 48" fill="none" xmlns="http://www.w3.org/2000/svg">
<path d="M36.3516 29.3593C34.1191 29.3593 32.5155 29.214 31.449 28.9109C30.2858 28.5823 29.6752 28.0472 29.5785 27.2753C29.5058 26.7664 29.4913 25.9442 29.5365 24.8465V23.5015C29.5365 22.0404 31.2128 18.9944 33.8414 18.5997L34.2608 18.527L34.37 18.6914L34.4761 18.7102C35.0957 18.8202 35.722 18.8877 36.3508 18.9123C37.5983 18.8476 38.0956 18.7597 38.3194 18.7087L38.4227 18.5547H38.8415L38.8654 18.5583C40.0009 18.7473 41.0979 19.4757 41.9535 20.609C42.663 21.5491 43.1224 22.6779 43.1261 23.49L43.2054 24.8428V27.2607V27.2832C43.0825 28.0508 42.4595 28.5859 41.2985 28.913C40.227 29.214 38.6226 29.3593 36.3945 29.3593H36.3516Z" fill="white"/>
<path d="M38.8186 18.8477C41.2052 19.2453 42.8365 22.0695 42.8365 23.5002L42.9157 24.8523V27.2389C42.7194 28.514 40.7675 29.0686 36.3949 29.0686H36.3549C31.9794 29.0686 30.0304 28.5117 29.8712 27.2389C29.7919 26.682 29.7919 25.8068 29.8312 24.8523V23.5002C29.8312 22.068 31.5032 19.2439 33.8883 18.8862L34.1268 18.8462L34.206 18.9654C34.3653 18.9654 34.8428 19.1246 36.3542 19.2039C37.9055 19.1246 38.3431 19.0047 38.5023 18.9654L38.5816 18.8462H38.82M34.4016 18.2108L34.0308 18.2727L33.7967 18.3119C32.5864 18.4952 31.4174 19.249 30.5036 20.4361C29.7302 21.4407 29.2489 22.617 29.2489 23.5009V24.8414C29.2032 25.9508 29.2184 26.7838 29.2939 27.3174C29.4074 28.2028 30.1068 28.8331 31.3731 29.1915C32.4635 29.5004 34.0948 29.651 36.3549 29.651H36.3949C38.6528 29.651 40.2833 29.5004 41.3804 29.1915C41.991 29.0193 42.4555 28.7968 42.8015 28.5104C43.1722 28.2173 43.4189 27.7957 43.4928 27.3291L43.5001 27.2847V24.8196L43.4216 23.4827C43.4115 22.5988 42.9375 21.4356 42.1866 20.4361C41.2859 19.2432 40.1235 18.4732 38.9153 18.2741L38.868 18.2661H38.2697L38.1468 18.4508C37.891 18.4995 37.3836 18.57 36.3542 18.6238C35.7479 18.5996 35.1438 18.5347 34.5462 18.4297L34.4009 18.2116L34.4016 18.2108Z" fill="#231F20"/>
<path d="M36.3516 28.7052C34.1191 28.7052 32.5155 28.5597 31.449 28.2566C30.2858 27.928 29.6752 27.3931 29.5785 26.621C29.5058 26.1121 29.4913 25.2899 29.5365 24.1922V22.8474C29.5365 21.3861 31.2128 18.3403 33.8414 17.9456L34.0493 17.9142L34.1439 18.1018C34.7094 19.2242 35.8042 20.8054 36.4658 20.8054C36.9499 20.8054 37.9262 19.3514 38.5528 17.9972L38.648 17.8009L38.8662 17.8372C41.4621 18.2733 43.1203 21.3607 43.1269 22.8416L43.2061 24.1945V26.6122V26.6348C43.0825 27.3967 42.4595 27.9316 41.2985 28.2589C40.227 28.5597 38.6226 28.7052 36.3945 28.7052H36.3516Z" fill="#8FBAC9"/>
<path d="M38.8183 18.7024C41.2049 19.1 42.8362 21.9969 42.8362 23.4276L42.9154 24.7796V27.1664C42.7191 28.4414 40.7673 28.9961 36.3946 28.9961H36.3546C31.9791 28.9961 30.0301 28.4392 29.8709 27.1664C29.7918 26.6095 29.7918 25.7342 29.831 24.7796V23.4276C29.831 21.9955 31.5029 19.1712 33.8881 18.8136C33.8881 18.8136 35.3296 21.677 36.4695 21.677C37.4386 21.677 38.8205 18.7009 38.8205 18.7009M38.4795 18.0547L38.2905 18.4552C38.0683 18.9213 37.822 19.3754 37.5527 19.8161C36.8577 20.9414 36.5022 21.0817 36.4623 21.0948C36.4019 21.089 36.0021 21.0105 35.2344 19.9207C34.9299 19.4826 34.6538 19.0253 34.4079 18.5518L34.2138 18.1776L33.7979 18.2401C32.5861 18.4217 31.415 19.1763 30.4997 20.3649C29.7263 21.3696 29.245 22.5458 29.245 23.4297V24.7702C29.1993 25.8796 29.2145 26.7126 29.2902 27.2462C29.4035 28.1316 30.1029 28.762 31.3691 29.1203C32.4596 29.4293 34.0909 29.5798 36.351 29.5798H36.3946C38.6526 29.5798 40.2831 29.4293 41.3801 29.1203C41.9907 28.9481 42.4552 28.7256 42.8012 28.4392C43.1719 28.1462 43.4186 27.7246 43.4927 27.2579L43.4999 27.2135V24.747L43.4214 23.4101C43.4148 22.5377 42.9343 21.331 42.1936 20.3308C41.29 19.1117 40.1268 18.3295 38.918 18.1281L38.4817 18.0554L38.4795 18.0547Z" fill="#203D4C"/>
<path d="M36.3518 28.996C31.9763 28.996 30.0273 28.4392 29.8682 27.1663C31.9422 28.9582 41.229 28.7219 41.6448 27.0499C42.2263 24.6895 41.7902 23.1047 41.7902 23.1047C41.4194 21.0169 40.2331 19.4453 37.7192 18.9219C37.4139 18.8586 36.7117 21.0954 36.3744 21.0657C36.0661 21.0388 35.4446 18.6827 35.1101 18.6855C34.5948 18.69 34.4698 18.7314 33.8918 18.8129C33.8918 18.8129 35.3334 20.8039 36.4732 20.8039C37.4422 20.8039 38.8242 18.7009 38.8242 18.7009C41.2107 19.0985 42.842 21.9955 42.842 23.426L42.9154 24.7796V27.1663C42.7191 28.4413 40.7673 28.996 36.3947 28.996H36.3518Z" fill="#6497A0"/>
<path d="M37.4358 22.7441C37.5195 22.7441 37.6758 22.6641 37.6758 22.5804V21.6449C37.6758 21.6231 38.5982 21.1746 38.5982 21.1746L38.7932 21.4087C38.7932 21.4087 39.2751 21.5817 39.4473 21.1258C39.4896 21.0154 39.4953 20.2259 39.4947 19.7279C39.4947 19.7046 40.1394 19.3419 40.1213 19.3289C39.9425 19.206 39.5964 19.0249 39.5964 19.0249C39.5964 19.0249 36.9765 21.2902 36.7954 21.2902C36.6144 21.2902 35.2688 20.5392 35.2688 20.5392L33.9712 21.072L35.4041 21.7306C35.4106 21.7306 35.7043 21.9734 35.7043 21.9807L36.1092 22.5921C36.1092 22.6326 36.1253 22.6715 36.154 22.7001C36.1825 22.7287 36.2213 22.7449 36.2618 22.7449H36.3106L35.9645 28.1242C35.9601 28.2063 35.7617 28.2697 35.8278 28.3154L36.7823 28.9486C36.8336 28.9603 36.8868 28.9588 36.9372 28.9443L37.8771 28.3074C37.9076 28.2819 37.9315 28.2495 37.9469 28.2128C37.9622 28.1761 37.9684 28.1363 37.9651 28.0966L37.4243 22.7441H37.4358Z" fill="#6B9CA6"/>
<path d="M34.2954 20.7749L34.7127 19.9752L34.8427 20.048C35.4535 20.3889 36.1571 20.7516 36.2967 20.78C36.4348 20.7508 37.1138 20.3823 37.6779 20.0529L37.787 19.9883L38.4048 20.7653L36.2901 21.7446L34.2954 20.7749Z" fill="#ED2B59"/>
<path d="M37.7525 20.1758L38.1763 20.7087L36.292 21.5809L34.4928 20.7087L34.7712 20.1758C34.7712 20.1758 36.1161 20.9268 36.2979 20.9268C36.4795 20.9268 37.7517 20.1758 37.7517 20.1758M34.6498 19.776L34.5109 20.0405L34.2325 20.5735L34.0938 20.8388L34.3634 20.9696L36.1626 21.842L36.2869 21.9023L36.412 21.8442L38.2962 20.9718L38.632 20.8163L38.4016 20.5255L37.9779 19.9927L37.82 19.7941L37.602 19.9228C37.1012 20.2187 36.4876 20.5553 36.2935 20.6257C36.095 20.5532 35.4443 20.218 34.9122 19.9191L34.6513 19.7738L34.6498 19.776Z" fill="#5B0627"/>
<path d="M36.4608 28.7386C36.4197 28.7386 36.3796 28.7255 36.3467 28.7007L35.4831 28.0937C35.4305 28.0554 35.3881 28.0046 35.36 27.9458C35.3318 27.8871 35.3186 27.8223 35.3217 27.7572L35.7376 21.2873L36.9733 21.264L37.536 27.7274C37.5415 27.7903 37.5317 27.8536 37.5075 27.912C37.4834 27.9702 37.4455 28.0219 37.3972 28.0625L36.5765 28.7007C36.5428 28.7277 36.501 28.7424 36.4579 28.7423L36.4608 28.7386Z" fill="#AD1C45"/>
<path d="M36.8432 21.4087L37.3943 27.7331C37.3976 27.7728 37.3913 27.8126 37.376 27.8493C37.3608 27.886 37.3369 27.9185 37.3063 27.9439L36.4899 28.5793C36.4818 28.5857 36.4719 28.5891 36.4617 28.5891C36.4513 28.5891 36.4414 28.5857 36.4333 28.5793L35.5667 27.9782C35.5342 27.9539 35.5079 27.9219 35.4906 27.8852C35.4733 27.8485 35.4652 27.8079 35.4671 27.7673L35.8743 21.4298L36.8432 21.4116M37.1093 21.1157L36.8374 21.1208L35.8684 21.139L35.6008 21.1441L35.5835 21.4108L35.1764 27.7485V27.7528C35.1721 27.8412 35.1899 27.9293 35.2279 28.0091C35.2659 28.089 35.3232 28.1584 35.3945 28.2108L36.2603 28.8193C36.32 28.862 36.3919 28.8841 36.4653 28.8821C36.5386 28.88 36.6093 28.8542 36.6665 28.8084L37.4808 28.1744H37.4851H37.4895C37.5557 28.1188 37.6076 28.0481 37.6408 27.9683C37.6739 27.8885 37.6873 27.8018 37.68 27.7157L37.1289 21.3912L37.1056 21.1208L37.1093 21.1157Z" fill="#5B0627"/>
<path d="M36.5503 21.4138L35.875 21.4269L35.481 27.5565C35.4949 27.5913 35.5171 27.6223 35.5456 27.6467L36.2727 28.2283C36.2791 28.2342 36.2875 28.2375 36.2962 28.2375C36.3049 28.2375 36.3134 28.2342 36.3199 28.2283L37.0032 27.6263C37.0294 27.6003 37.0495 27.5689 37.062 27.5342C37.0746 27.4995 37.0793 27.4624 37.076 27.4257L36.6004 21.4145L36.5503 21.4138Z" fill="#ED2B59"/>
<path d="M36.9389 20.9805H35.7649C35.6003 20.9805 35.4668 21.114 35.4668 21.2785V22.2286C35.4668 22.3933 35.6003 22.5267 35.7649 22.5267H36.9389C37.1035 22.5267 37.237 22.3933 37.237 22.2286V21.2785C37.237 21.114 37.1035 20.9805 36.9389 20.9805Z" fill="#AD1C45"/>
<path d="M36.9395 21.1258C36.98 21.1258 37.0189 21.142 37.0475 21.1706C37.0761 21.1992 37.0921 21.2381 37.0921 21.2785V22.2294C37.0921 22.2699 37.0761 22.3088 37.0475 22.3374C37.0189 22.366 36.98 22.382 36.9395 22.382H35.7648C35.7242 22.382 35.6855 22.366 35.6569 22.3374C35.6282 22.3088 35.6121 22.2699 35.6121 22.2294V21.2779C35.6121 21.2373 35.6282 21.1985 35.6569 21.1699C35.6855 21.1413 35.7242 21.1251 35.7648 21.1251H36.9395M36.9395 20.8344H35.7648C35.7065 20.8344 35.6489 20.8458 35.595 20.8681C35.5412 20.8904 35.4924 20.9231 35.4512 20.9642C35.41 21.0055 35.3774 21.0543 35.355 21.1081C35.3327 21.162 35.3213 21.2195 35.3213 21.2779V22.2286C35.3213 22.3463 35.3681 22.4591 35.4512 22.5423C35.5344 22.6254 35.6472 22.6721 35.7648 22.6721H36.9395C37.0572 22.6721 37.17 22.6254 37.2531 22.5423C37.3363 22.4591 37.3829 22.3463 37.3829 22.2286V21.2779C37.3829 21.2195 37.3715 21.162 37.3492 21.1081C37.3269 21.0543 37.2942 21.0055 37.2531 20.9642C37.2119 20.9231 37.163 20.8904 37.1092 20.8681C37.0554 20.8458 36.9978 20.8344 36.9395 20.8344Z" fill="#5B0627"/>
<path d="M36.7999 22.1268H35.7641C35.744 22.1268 35.7241 22.1229 35.7056 22.1153C35.687 22.1076 35.6702 22.0963 35.6561 22.0822C35.6418 22.068 35.6307 22.0511 35.623 22.0326C35.6154 22.0142 35.6113 21.9943 35.6113 21.9742V21.2778C35.6113 21.2372 35.6275 21.1985 35.6561 21.1699C35.6847 21.1413 35.7236 21.1251 35.7641 21.1251C35.7641 21.1251 36.0105 21.549 36.3339 21.5612C36.6574 21.5736 36.8835 21.1251 36.8835 21.1251C36.9672 21.1251 36.9518 21.1934 36.9518 21.2778V21.9742C36.9518 22.0146 36.9358 22.0533 36.9075 22.0819C36.879 22.1106 36.8402 22.1267 36.7999 22.1268Z" fill="#ED2B59"/>
<path d="M38.9341 21.2713C38.9091 21.2713 38.8844 21.2659 38.8615 21.2556C38.8387 21.2454 38.8184 21.2304 38.8017 21.2118L37.8618 20.1619L36.5337 21.2058C36.5027 21.233 36.4629 21.2479 36.4217 21.2481C36.3998 21.2384 36.3761 21.2334 36.3524 21.2334C36.3284 21.2334 36.3048 21.2384 36.2828 21.2481C36.2414 21.2481 36.2014 21.2331 36.1702 21.2058L34.8414 20.1612L33.9014 21.211C33.8847 21.2295 33.8643 21.2444 33.8416 21.2545C33.8187 21.2647 33.794 21.2698 33.7691 21.2698C33.745 21.2698 33.7214 21.265 33.6992 21.2556C33.6771 21.2463 33.6571 21.2326 33.6404 21.2154C33.6239 21.1982 33.6109 21.178 33.6024 21.1557C33.5939 21.1335 33.59 21.1097 33.591 21.0859L33.7364 16.9998H38.9617L39.107 21.0853C39.1081 21.109 39.1042 21.1327 39.0956 21.155C39.0871 21.1772 39.0742 21.1975 39.0577 21.2146C39.0256 21.249 38.9811 21.2693 38.9341 21.2713ZM36.3513 20.8708L38.3366 17.8735H34.3187L36.3513 20.8708Z" fill="#8FBAC9"/>
<path d="M38.8252 17.1465L38.9706 21.0925C38.9708 21.0968 38.97 21.1012 38.9685 21.1052C38.9669 21.1094 38.9645 21.1132 38.9614 21.1163C38.9585 21.1193 38.9547 21.1219 38.9507 21.1235C38.9466 21.1251 38.9422 21.1259 38.9379 21.1258C38.9333 21.1259 38.9288 21.125 38.9247 21.1231C38.9206 21.1212 38.9168 21.1184 38.9138 21.1149L37.8831 19.9634L36.4444 21.0946C36.442 21.0972 36.4391 21.0992 36.4358 21.1005C36.4325 21.1019 36.429 21.1027 36.4255 21.1025C36.421 21.1027 36.4166 21.1017 36.4127 21.0996C36.4087 21.0976 36.4053 21.0946 36.4028 21.091C36.4002 21.0872 36.3987 21.083 36.3982 21.0786C36.3978 21.0742 36.3983 21.0696 36.4001 21.0656L38.607 17.7281H34.0447L36.3092 21.0669C36.3107 21.0711 36.3112 21.0755 36.3107 21.0798C36.3101 21.0841 36.3085 21.0883 36.3061 21.0919C36.3035 21.0954 36.3002 21.0984 36.2963 21.1004C36.2924 21.1024 36.2881 21.1033 36.2838 21.1033C36.2803 21.1033 36.2768 21.1027 36.2734 21.1012C36.2702 21.0998 36.2672 21.0978 36.2648 21.0953L34.8247 19.9634L33.7939 21.1149C33.791 21.1184 33.7872 21.1212 33.7832 21.1231C33.779 21.125 33.7745 21.1259 33.7699 21.1258C33.7656 21.1259 33.7611 21.1251 33.7571 21.1235C33.7531 21.1219 33.7493 21.1193 33.7464 21.1163C33.7433 21.1132 33.7408 21.1094 33.7392 21.1052C33.7378 21.1012 33.7371 21.0968 33.7372 21.0925L33.8827 17.1465H38.8259M39.1065 16.8557H33.5991L33.5889 17.1363L33.4436 21.0822C33.441 21.1487 33.4592 21.2141 33.4954 21.2699C33.5315 21.3256 33.584 21.3687 33.6455 21.3936C33.7071 21.4183 33.7749 21.4236 33.8397 21.4085C33.9043 21.3933 33.9627 21.3586 34.0069 21.309L34.856 20.3641L36.0751 21.3221C36.1571 21.374 36.2522 21.4014 36.3491 21.4014C36.4462 21.4014 36.5412 21.374 36.6232 21.3221L37.8417 20.3647L38.6907 21.3098C38.7349 21.3593 38.7934 21.394 38.858 21.4092C38.9227 21.4243 38.9905 21.4191 39.052 21.3943C39.1137 21.3695 39.1662 21.3262 39.2023 21.2706C39.2385 21.2149 39.2565 21.1493 39.2541 21.0829L39.1086 17.1371L39.0985 16.8565L39.1065 16.8557ZM34.5943 18.0189H38.067L36.3514 20.6097L34.5936 18.0189H34.5943Z" fill="#203D4C"/>
<path d="M36.3482 20.0231C35.8336 20.0231 35.2454 19.9431 35.0485 19.8864C34.0365 19.6837 33.1146 19.1663 32.414 18.4085C31.3235 17.2236 30.771 15.4847 30.771 13.2392C30.771 9.35788 32.7251 7.21997 36.2727 7.21997C38.0326 7.21997 39.4777 7.7659 40.4519 8.79819C41.426 9.83043 41.9334 11.3207 41.9334 13.1992C41.9334 18.1591 39.5082 19.5964 37.4743 19.9278C37.1031 19.9879 36.7279 20.0198 36.3519 20.0231H36.3482Z" fill="white"/>
<path d="M36.2722 7.51076C39.6931 7.51076 41.6421 9.57891 41.6421 13.1992C41.6421 17.9331 39.3763 19.323 37.4258 19.6407C37.0702 19.6981 36.7108 19.7287 36.3507 19.7324H36.3462C35.8032 19.7324 35.2355 19.643 35.1169 19.6037C33.8812 19.3652 31.0598 18.2515 31.0598 13.2392C31.0598 9.53965 32.8897 7.51076 36.2707 7.51076M36.2707 6.92919C34.419 6.92919 32.971 7.49041 31.9663 8.59682C30.9785 9.68726 30.4775 11.2466 30.4775 13.2392C30.4775 15.5596 31.0591 17.3654 32.1976 18.6055C32.9378 19.4063 33.9114 19.9538 34.9803 20.17C35.4288 20.2672 35.8866 20.3158 36.3456 20.3153H36.3499C36.7422 20.3118 37.1337 20.2784 37.521 20.2158C38.847 19.9976 39.9199 19.4038 40.7117 18.4478C41.7134 17.2367 42.2215 15.4717 42.2215 13.2006C42.2215 11.2452 41.6967 9.69748 40.6607 8.59974C39.6248 7.50204 38.112 6.92773 36.2699 6.92773L36.2707 6.92919Z" fill="#231F20"/>
<path d="M11.6284 29.3282C9.39596 29.3282 7.7923 29.1828 6.72586 28.8797C5.56272 28.551 4.95208 28.0161 4.85541 27.244C4.7827 26.7351 4.76817 25.9129 4.81323 24.8152V23.4704C4.81323 22.0092 6.48959 18.9633 9.11826 18.5686L9.53771 18.4958L9.64675 18.6601L9.75289 18.6791C10.3725 18.7891 10.999 18.8566 11.6277 18.8812C12.8752 18.8165 13.3724 18.7284 13.5963 18.6776L13.6996 18.5234H14.1182L14.1423 18.527C15.2778 18.7161 16.3747 19.4445 17.2304 20.5778C17.9398 21.5178 18.3993 22.6468 18.403 23.4587L18.4821 24.8116V27.2295V27.2521C18.3593 28.0197 17.7363 28.5547 16.5754 28.8819C15.5038 29.1828 13.8995 29.3282 11.6713 29.3282H11.6284Z" fill="white"/>
<path d="M14.0954 18.8164C16.482 19.2139 18.1133 22.0383 18.1133 23.4688L18.1926 24.821V27.2076C17.9963 28.4826 16.0444 29.0373 11.6717 29.0373H11.6318C7.25624 29.0373 5.30728 28.4805 5.14807 27.2076C5.06883 26.6508 5.06883 25.7754 5.10809 24.821V23.4688C5.10809 22.0368 6.78008 19.2126 9.16522 18.8549L9.40366 18.8149L9.4829 18.9342C9.64211 18.9342 10.1197 19.0934 11.631 19.1725C13.1824 19.0934 13.62 18.9734 13.7792 18.9342L13.8584 18.8149H14.0969M9.67846 18.1796L9.3077 18.2413L9.07362 18.2805C7.86325 18.4638 6.69431 19.2176 5.78052 20.4047C5.00704 21.4094 4.5258 22.5856 4.5258 23.4696V24.8101C4.48 25.9194 4.49527 26.7525 4.57087 27.2861C4.68427 28.1715 5.3836 28.8018 6.64995 29.1602C7.74038 29.4692 9.37168 29.6196 11.6318 29.6196H11.6717C13.9297 29.6196 15.5603 29.4692 16.6572 29.1602C17.2678 28.9879 17.7324 28.7655 18.0785 28.479C18.449 28.1861 18.6958 27.7643 18.7698 27.2977L18.777 27.2533V24.7882L18.6985 23.4514C18.6883 22.5674 18.2144 21.4042 17.4634 20.4047C16.5627 19.2118 15.4003 18.442 14.1921 18.2428L14.1449 18.2348H13.5466L13.4238 18.4194C13.1678 18.4681 12.6604 18.5387 11.631 18.5924C11.0248 18.5682 10.4207 18.5034 9.82312 18.3983L9.67772 18.1802L9.67846 18.1796Z" fill="#231F20"/>
<path d="M11.625 19.9918C11.1104 19.9918 10.5223 19.9118 10.3252 19.8552C9.31332 19.6524 8.3913 19.1352 7.69078 18.3773C6.60033 17.1924 6.04785 15.4535 6.04785 13.2079C6.04785 9.32671 8.00191 7.18872 11.5495 7.18872C13.3094 7.18872 14.7545 7.73467 15.7287 8.76695C16.7028 9.79926 17.2102 11.2895 17.2102 13.1679C17.2102 18.128 14.7851 19.5651 12.7511 19.8966C12.3799 19.9567 12.0047 19.9886 11.6287 19.9918H11.625Z" fill="white"/>
<path d="M11.55 7.47951C14.9709 7.47951 16.9199 9.54772 16.9199 13.1679C16.9199 17.9018 14.6541 19.2918 12.7036 19.6095C12.348 19.6669 11.9887 19.6975 11.6285 19.701H11.6241C11.0811 19.701 10.5133 19.6116 10.3948 19.5724C9.15898 19.334 6.33766 18.2203 6.33766 13.2079C6.33766 9.50847 8.16741 7.47951 11.5485 7.47951M11.5485 6.89794C9.69692 6.89794 8.24883 7.45914 7.24417 8.56557C6.25624 9.65595 5.75537 11.2153 5.75537 13.2079C5.75537 15.5283 6.33693 17.3341 7.47534 18.5743C8.2156 19.3752 9.18924 19.9225 10.2581 20.1386C10.7066 20.2358 11.1644 20.2846 11.6234 20.2841H11.6277C12.02 20.2805 12.4115 20.2473 12.7988 20.1845C14.1248 19.9664 15.1977 19.3725 15.9895 18.4166C16.9912 17.2054 17.4994 15.4404 17.4994 13.1694C17.4994 11.2138 16.9745 9.66616 15.9385 8.56849C14.9026 7.47078 13.3898 6.89648 11.5477 6.89648L11.5485 6.89794Z" fill="black"/>
<path d="M15.2414 15.9834C14.1313 15.9834 13.5694 15.5509 13.2001 15.1743C12.9937 14.9621 12.6789 14.3143 12.2093 13.1345C12.1868 13.0779 12.1721 13.0408 12.1672 13.0291L12.1598 13.0131C12.0813 12.8409 12.042 12.7543 11.768 12.7543C11.5158 12.7543 11.4845 12.814 11.4162 12.9455C11.3987 12.9783 11.3812 13.0124 11.3601 13.0466C11.3522 13.0619 11.3078 13.1716 11.2613 13.2872C10.9225 14.1225 10.5758 14.9294 10.3359 15.1773C9.9688 15.5539 9.40469 15.9863 8.29463 15.9863H8.19286C7.37284 15.9674 6.23517 15.8178 5.82735 14.7418C5.63107 14.2234 5.60926 13.6979 5.58963 13.3141C5.58018 13.1054 5.56855 12.846 5.52347 12.7994C5.42536 12.7 5.30272 12.6283 5.168 12.5915L5.06331 12.5675L5.05459 12.4599L4.97607 11.4101L5.10547 11.3869C5.12075 11.3869 6.64008 11.1157 7.99221 11.1157C8.07072 11.1157 8.14924 11.1157 8.2263 11.1157C9.02012 11.1354 9.6991 11.328 10.2988 11.4981C10.7764 11.6341 11.1886 11.7511 11.5551 11.7511C11.6267 11.7516 11.6984 11.7569 11.7695 11.7671C11.8404 11.7577 11.9117 11.7531 11.9833 11.7532C12.3467 11.7532 12.7618 11.6363 13.2393 11.5004C13.8391 11.3302 14.5181 11.1368 15.3119 11.1179C15.3894 11.1179 15.4675 11.1179 15.5461 11.1179C16.8981 11.1179 18.4174 11.3862 18.4319 11.389L18.5614 11.4123L18.4735 12.5667L18.3673 12.5893C18.2328 12.626 18.1105 12.6974 18.0125 12.7965C17.9675 12.8437 17.9559 13.1033 17.9463 13.3111C17.929 13.695 17.9049 14.2213 17.7087 14.7389C17.3016 15.8148 16.1639 15.9646 15.3432 15.9834H15.2414Z" fill="black"/>
<path d="M15.5436 11.2582C16.8986 11.2582 18.4042 11.5272 18.4042 11.5272L18.3351 12.4461C18.1719 12.4886 18.0235 12.5748 17.9055 12.6954C17.7164 12.8932 17.9055 13.8033 17.5704 14.6873C17.2353 15.5712 16.3491 15.8148 15.3394 15.8381H15.2413C14.2148 15.8381 13.6768 15.4542 13.3047 15.0726C12.9782 14.7374 12.3363 13.0495 12.3 12.9687C12.2149 12.782 12.1473 12.6053 11.7685 12.6053C11.3585 12.6053 11.3484 12.7856 11.2371 12.9687C11.1906 13.0414 10.5589 14.7374 10.2325 15.0726C9.86031 15.4542 9.32237 15.8381 8.29591 15.8381H8.19777C7.19166 15.8148 6.29969 15.572 5.96528 14.6873C5.63089 13.8026 5.8199 12.8925 5.63016 12.6954C5.51223 12.5748 5.36372 12.4886 5.20053 12.4461L5.13147 11.5272C5.13147 11.5272 6.637 11.2582 7.98913 11.2582C8.06619 11.2582 8.14324 11.2582 8.21957 11.2582C9.62768 11.2924 10.6913 11.8936 11.5512 11.8936C11.6243 11.8943 11.6972 11.9006 11.7694 11.9126C11.8401 11.9019 11.9115 11.8968 11.983 11.8972C12.8415 11.8972 13.9065 11.296 15.3147 11.2619C15.3908 11.2619 15.4675 11.2619 15.5451 11.2619M15.5451 10.9711C15.4644 10.9711 15.3844 10.9711 15.3074 10.9711C14.4954 10.9907 13.8063 11.1891 13.1993 11.3593C12.7318 11.4923 12.3269 11.6064 11.983 11.6064C11.9116 11.6072 11.8402 11.6123 11.7694 11.6218C11.6984 11.6133 11.627 11.6091 11.5556 11.6094C11.2102 11.6094 10.8068 11.4944 10.3394 11.3622C9.73165 11.1899 9.04322 10.9937 8.2312 10.974C8.15488 10.974 8.07492 10.974 7.99348 10.974C6.62827 10.974 5.14383 11.2365 5.08131 11.2473L4.82324 11.2932L4.84287 11.5548L4.91193 12.4737L4.92793 12.6918L5.14092 12.7376C5.24038 12.7665 5.33157 12.8185 5.40699 12.8895C5.43298 13.0335 5.44636 13.1794 5.44696 13.3257C5.46514 13.7197 5.48914 14.2591 5.69413 14.7986C6.18337 16.0903 7.69545 16.1252 8.19195 16.1368H8.29736C9.46048 16.1368 10.0551 15.681 10.4426 15.2834C10.6854 15.034 11.0002 14.3296 11.3986 13.3482C11.4378 13.2508 11.4792 13.1498 11.4931 13.1178C11.5069 13.0858 11.5315 13.0487 11.5475 13.019C11.6036 12.9121 11.6064 12.9062 11.7707 12.9062C11.951 12.9062 11.9605 12.9258 12.0303 13.08L12.0376 13.0967C12.0427 13.1076 12.0564 13.1432 12.0775 13.1955C12.5603 14.4096 12.8771 15.0536 13.0952 15.2827C13.482 15.6796 14.0759 16.1361 15.2405 16.1361H15.3459C15.8425 16.1244 17.3545 16.0896 17.8438 14.7978C18.048 14.2577 18.0727 13.7182 18.0909 13.325C18.0915 13.1787 18.1048 13.0327 18.1309 12.8889C18.207 12.8172 18.2992 12.7648 18.3998 12.7361L18.6129 12.6903L18.6259 12.4722L18.695 11.5533L18.7147 11.2917L18.4565 11.2459C18.394 11.235 16.9095 10.9725 15.5444 10.9725L15.5451 10.9711Z" fill="#231F20"/>
<path d="M15.3135 11.2581C13.9054 11.2923 12.8419 11.8935 11.982 11.8935C11.9109 11.8944 11.8399 11.9007 11.7697 11.9124C11.699 11.9018 11.6275 11.8967 11.5559 11.8971C10.6974 11.8971 9.63243 11.2959 8.22432 11.2618C6.81621 11.2276 5.1333 11.5278 5.1333 11.5278L5.20236 12.4467C5.36555 12.4893 5.51408 12.5755 5.63199 12.6961C5.821 12.8937 5.24162 11.8892 5.99546 11.6827C7.15423 11.3635 8.28101 11.4217 9.13955 11.514C11.5022 11.7685 11.1226 12.9025 11.1692 12.8276C11.2811 12.6473 11.3648 12.4228 11.7748 12.4228C12.1535 12.4228 12.2713 12.6408 12.3563 12.8276C12.3927 12.9084 12.1527 12.2221 12.8493 11.9436C13.8953 11.5257 14.5736 11.4057 15.664 11.3803C16.67 11.3569 17.3039 11.4529 17.6508 11.5496C17.8753 11.6144 17.8812 11.682 18.0382 11.8165C18.2461 11.9938 18.3414 12.4467 18.3414 12.4467L18.4104 11.5278C18.4104 11.5278 16.7225 11.2269 15.3135 11.2581Z" fill="#414042"/>
<path d="M8.20789 15.5545C7.47149 15.5545 6.04665 15.0929 5.92525 13.3482C5.89036 12.8467 6.01249 12.441 6.28874 12.1422C6.75398 11.6378 7.48094 11.6218 7.50929 11.6218C7.51365 11.6218 7.72738 11.6064 8.04214 11.6064C8.88977 11.6064 10.3466 11.717 10.5807 12.4585C10.7007 12.8379 10.6853 13.8724 10.1103 14.6568C9.67997 15.2435 9.0199 15.5539 8.20644 15.5539L8.20789 15.5545Z" fill="#231F20"/>
<path d="M8.04158 11.6792C8.84123 11.6792 10.2893 11.7788 10.5132 12.4789C10.7197 13.1331 10.4652 15.4797 8.20805 15.4797C7.39314 15.4797 6.1108 14.9708 5.99811 13.341C5.88544 11.7112 7.51018 11.6944 7.51018 11.6944C7.51018 11.6944 7.72826 11.6792 8.04231 11.6792M8.04231 11.5338C7.74426 11.5338 7.53344 11.5469 7.50364 11.5491C7.43094 11.5491 6.70399 11.5804 6.23292 12.0921C5.94214 12.4061 5.81492 12.8307 5.85127 13.3526C5.90434 14.1145 6.21475 14.7338 6.74978 15.1381C7.17018 15.4512 7.67946 15.6223 8.20369 15.6265C9.04405 15.6265 9.72303 15.306 10.1665 14.6997C10.7117 13.9561 10.796 12.9071 10.6477 12.436C10.4122 11.6901 9.0993 11.5331 8.04013 11.5331L8.04231 11.5338Z" fill="black"/>
<path d="M15.2584 15.5546C14.4429 15.5546 13.7842 15.2442 13.3546 14.6576C12.7796 13.8732 12.7643 12.8401 12.8842 12.4592C13.1182 11.7177 14.5752 11.6073 15.4228 11.6073C15.7382 11.6073 15.9513 11.6225 15.96 11.6233C15.9861 11.6233 16.7138 11.6385 17.1791 12.1422C17.4546 12.4411 17.5767 12.8467 17.5425 13.3483C17.4219 15.0929 15.997 15.5546 15.2599 15.5546H15.2584Z" fill="#231F20"/>
<path d="M15.4252 11.6792C15.7414 11.6792 15.9573 11.6944 15.9573 11.6944C15.9573 11.6944 17.5843 11.7148 17.4715 13.3425C17.3588 14.9701 16.0765 15.4812 15.2587 15.4818C13.0051 15.4818 12.7471 13.1353 12.9535 12.481C13.1716 11.7788 14.6219 11.6813 15.4252 11.6813M15.4252 11.536C14.3653 11.536 13.0531 11.6922 12.8176 12.4389C12.6722 12.9099 12.7529 13.9582 13.2989 14.7026C13.7431 15.3088 14.422 15.6294 15.2616 15.6294C15.7859 15.6253 16.2951 15.4541 16.7155 15.1409C17.2506 14.7346 17.5617 14.1174 17.614 13.3555C17.6504 12.8336 17.5218 12.4105 17.2323 12.095C16.7614 11.5862 16.0328 11.5542 15.9617 11.552C15.9297 11.552 15.7217 11.5367 15.4237 11.5367L15.4252 11.536Z" fill="black"/>
<path d="M10.5112 12.4803C10.8973 13.5481 9.53056 12.4803 7.5656 12.7711C6.41483 12.9405 6.11168 14.9686 5.9961 13.341C5.88051 11.7133 7.51034 11.6943 7.51034 11.6943C7.51034 11.6943 10.1623 11.5149 10.5112 12.4803Z" fill="#414042"/>
<path d="M12.9556 12.4802C12.7493 13.1344 13.1105 14.0563 14.2163 12.8263C15.234 11.7852 17.4708 13.3424 17.4708 13.3424C17.5849 11.7154 15.9573 11.6943 15.9573 11.6943C15.9573 11.6943 13.2654 11.5018 12.9556 12.4802Z" fill="#414042"/>
<path d="M5.85078 11.9976C5.88579 11.8088 5.81625 11.6378 5.69545 11.6154C5.57466 11.5929 5.44836 11.7277 5.41336 11.9164C5.37835 12.1051 5.44789 12.2763 5.56869 12.2987C5.68948 12.321 5.81577 12.1863 5.85078 11.9976Z" fill="#808285"/>
<path d="M17.9553 12.2868C18.0726 12.2501 18.1212 12.072 18.0638 11.8887C18.0066 11.7056 17.865 11.5869 17.7478 11.6236C17.6305 11.6603 17.582 11.8384 17.6393 12.0217C17.6967 12.2048 17.8381 12.3235 17.9553 12.2868Z" fill="#808285"/>
<path d="M8.59347 27.7398C8.51332 27.7398 8.43443 27.7198 8.36388 27.6817C8.29333 27.6437 8.23335 27.5887 8.18929 27.5217C8.13959 27.5721 8.07943 27.611 8.01307 27.6356C7.94671 27.6603 7.87574 27.6701 7.80518 27.6644C7.73462 27.6586 7.66619 27.6375 7.60468 27.6024C7.54319 27.5673 7.49014 27.5192 7.44925 27.4614C7.39712 27.5106 7.33468 27.5477 7.26647 27.5699C7.19824 27.5919 7.12595 27.5986 7.05482 27.5893C6.9837 27.5801 6.91553 27.5552 6.85524 27.5163C6.79496 27.4775 6.74409 27.4256 6.7063 27.3647C6.67379 27.3714 6.64065 27.3749 6.60743 27.3748C6.47884 27.3748 6.3555 27.3237 6.26458 27.2328C6.17365 27.1419 6.12256 27.0185 6.12256 26.89V25.5655L6.17707 20.0232C6.1778 19.9514 6.19456 19.8808 6.22614 19.8164C6.25772 19.752 6.30331 19.6956 6.35956 19.6511C6.41583 19.6066 6.48131 19.5752 6.55126 19.5594C6.6212 19.5435 6.69379 19.5435 6.76373 19.5594L9.14087 20.0268L9.07981 26.0264V27.2557C9.07971 27.3194 9.06705 27.3824 9.04256 27.4413C9.01805 27.5001 8.98219 27.5536 8.93702 27.5985C8.89185 27.6435 8.83826 27.6792 8.77931 27.7034C8.72036 27.7276 8.65721 27.7399 8.59347 27.7398Z" fill="#38040C"/>
<path d="M6.65819 19.7288C6.68068 19.7286 6.70312 19.731 6.72507 19.736L8.95899 20.1721L8.89866 25.9514V27.2497C8.90067 27.2907 8.89433 27.3317 8.88002 27.3703C8.86572 27.4088 8.84374 27.444 8.81542 27.4737C8.78711 27.5034 8.75304 27.5271 8.71531 27.5432C8.67757 27.5595 8.63694 27.5678 8.59588 27.5678C8.55483 27.5678 8.5142 27.5595 8.47646 27.5432C8.43872 27.5271 8.40467 27.5034 8.37634 27.4737C8.34803 27.444 8.32606 27.4088 8.31174 27.3703C8.29744 27.3317 8.29109 27.2907 8.29311 27.2497V26.1985C8.24852 26.2069 8.20005 26.2145 8.14771 26.2219V27.1822C8.14391 27.26 8.11034 27.3332 8.05398 27.3869C7.99761 27.4405 7.92277 27.4705 7.84494 27.4705C7.76711 27.4705 7.69227 27.4405 7.6359 27.3869C7.57954 27.3332 7.54597 27.26 7.54217 27.1822V26.2553C7.50074 26.2553 7.45929 26.2553 7.42076 26.2495V27.1095C7.41695 27.1872 7.3834 27.2605 7.32703 27.3141C7.27067 27.3679 7.19581 27.3978 7.11798 27.3978C7.04016 27.3978 6.96531 27.3679 6.90894 27.3141C6.85259 27.2605 6.81902 27.1872 6.81521 27.1095C6.77245 27.1498 6.71879 27.1769 6.66086 27.1872C6.60294 27.1976 6.54327 27.1907 6.48918 27.1675C6.43511 27.1443 6.38898 27.1059 6.3565 27.0568C6.32401 27.0077 6.30657 26.9502 6.30634 26.8915V25.5829C6.30634 25.5829 6.30634 25.5829 6.30634 25.5778L6.36086 20.0245C6.36162 19.946 6.39334 19.8709 6.44913 19.8155C6.50492 19.7601 6.58031 19.7289 6.65891 19.7288M6.65891 19.3652C6.48495 19.366 6.31821 19.4349 6.19452 19.5572C6.07083 19.6796 6.00005 19.8456 5.99739 20.0196L5.94287 25.5589C5.94287 25.5661 5.94287 25.5734 5.94287 25.5807V26.8892C5.94306 27.066 6.01336 27.2354 6.13832 27.3604C6.2633 27.4854 6.43274 27.5556 6.60948 27.5559H6.6262C6.7246 27.6652 6.8565 27.7387 7.00121 27.765C7.14592 27.7914 7.29527 27.7689 7.42585 27.7012C7.52863 27.7847 7.65394 27.8355 7.78577 27.8473C7.91761 27.859 8.04995 27.8312 8.16589 27.7673C8.26297 27.8477 8.38087 27.8989 8.50586 27.9149C8.63086 27.9309 8.75784 27.911 8.87204 27.8578C8.98624 27.8046 9.08297 27.7199 9.151 27.6138C9.21901 27.5077 9.25554 27.3846 9.25632 27.2585V26.1005V25.9587L9.31666 20.1794V19.877L9.02007 19.8188L6.79049 19.3827C6.74416 19.3726 6.69688 19.3675 6.64946 19.3674L6.65891 19.3652Z" fill="#3A050D"/>
<path d="M6.60826 27.2673C6.50857 27.2673 6.41299 27.2277 6.3425 27.1571C6.27201 27.0867 6.23242 26.9911 6.23242 26.8915V25.583C6.23668 25.4862 6.27809 25.3949 6.34804 25.328C6.41799 25.261 6.51108 25.2236 6.6079 25.2236C6.70471 25.2236 6.79779 25.261 6.86774 25.328C6.93769 25.3949 6.97911 25.4862 6.98336 25.583V26.8915C6.98336 26.991 6.94386 27.0864 6.87354 27.1569C6.80321 27.2275 6.70781 27.2671 6.60826 27.2673Z" fill="#B72036"/>
<path d="M6.60869 25.2799C6.68902 25.28 6.76601 25.312 6.82282 25.3689C6.87963 25.4256 6.91164 25.5026 6.91182 25.583V26.8915C6.91164 26.9718 6.87963 27.0488 6.82282 27.1056C6.76601 27.1624 6.68902 27.1944 6.60869 27.1946C6.52835 27.1944 6.45135 27.1624 6.39454 27.1056C6.33774 27.0488 6.30574 26.9718 6.30554 26.8915V25.583C6.30574 25.5026 6.33774 25.4256 6.39454 25.3689C6.45135 25.312 6.52835 25.28 6.60869 25.2799ZM6.60869 25.1344C6.48972 25.1344 6.37564 25.1817 6.29152 25.2657C6.20741 25.3499 6.16016 25.464 6.16016 25.583V26.8915C6.16481 27.0073 6.21407 27.1167 6.29761 27.1968C6.38115 27.2771 6.49249 27.322 6.60833 27.322C6.72415 27.322 6.83549 27.2771 6.91903 27.1968C7.00257 27.1167 7.05183 27.0073 7.05648 26.8915V25.583C7.05648 25.464 7.00923 25.3499 6.92512 25.2657C6.841 25.1817 6.72692 25.1344 6.60796 25.1344H6.60869Z" fill="#3A040C"/>
<path d="M6.60784 27.1945C6.44136 27.1945 6.58966 27.1945 6.58311 26.9423C6.58311 26.9423 6.61074 26.4392 6.59547 26.3063C6.42318 26.2335 6.30469 26.0155 6.30469 26.0155C6.30469 25.849 6.30469 25.2769 6.60784 25.2769C6.68816 25.277 6.76516 25.309 6.82197 25.3659C6.87877 25.4227 6.91078 25.4996 6.91097 25.58V26.8885C6.91125 26.9286 6.90363 26.9682 6.88853 27.0053C6.87344 27.0423 6.85117 27.0761 6.82301 27.1046C6.79483 27.1329 6.76133 27.1555 6.7244 27.171C6.68748 27.1864 6.64786 27.1945 6.60784 27.1945Z" fill="#720D26"/>
<path d="M7.11704 27.4852C7.06769 27.4852 7.01882 27.4755 6.97321 27.4566C6.92761 27.4377 6.88618 27.41 6.85129 27.3752C6.81639 27.3402 6.7887 27.2988 6.76982 27.2532C6.75093 27.2075 6.74121 27.1587 6.74121 27.1094V25.8009C6.74546 25.7041 6.78688 25.6128 6.85683 25.5459C6.92678 25.4789 7.01986 25.4415 7.11668 25.4415C7.2135 25.4415 7.30657 25.4789 7.37652 25.5459C7.44647 25.6128 7.48789 25.7041 7.49215 25.8009V27.1094C7.49215 27.2089 7.45265 27.3045 7.38233 27.3749C7.312 27.4454 7.21659 27.485 7.11704 27.4852Z" fill="#B72036"/>
<path d="M7.11712 25.4986C7.19744 25.4989 7.27444 25.5309 7.33125 25.5876C7.38805 25.6445 7.42006 25.7215 7.42025 25.8018V27.1103C7.42225 27.1513 7.41592 27.1923 7.4016 27.2307C7.3873 27.2693 7.36532 27.3044 7.33701 27.3342C7.30869 27.364 7.27464 27.3876 7.2369 27.4038C7.19916 27.4199 7.15854 27.4282 7.11748 27.4282C7.07642 27.4282 7.03578 27.4199 6.99804 27.4038C6.96031 27.3876 6.92625 27.364 6.89794 27.3342C6.86962 27.3044 6.84764 27.2693 6.83334 27.2307C6.81902 27.1923 6.81269 27.1513 6.81469 27.1103V25.8018C6.8149 25.7215 6.84689 25.6445 6.90369 25.5876C6.96051 25.5309 7.0375 25.4989 7.11784 25.4986M7.11784 25.3533C6.99888 25.3533 6.88479 25.4005 6.80068 25.4846C6.71657 25.5688 6.66931 25.6828 6.66931 25.8018V27.1103C6.66688 27.1706 6.67666 27.2309 6.69809 27.2875C6.71952 27.3439 6.75214 27.3955 6.79399 27.4391C6.83585 27.4827 6.88608 27.5174 6.94167 27.541C6.99725 27.5647 7.05705 27.5769 7.11748 27.5769C7.1779 27.5769 7.2377 27.5647 7.29329 27.541C7.34886 27.5174 7.39909 27.4827 7.44095 27.4391C7.48281 27.3955 7.51543 27.3439 7.53685 27.2875C7.55828 27.2309 7.56807 27.1706 7.56563 27.1103V25.8018C7.56563 25.6828 7.51838 25.5688 7.43427 25.4846C7.35015 25.4005 7.23607 25.3533 7.11712 25.3533H7.11784Z" fill="#3A040C"/>
<path d="M7.11685 27.4127C6.95039 27.4127 7.24407 27.4127 7.23754 27.1603C7.23754 27.1603 7.26442 26.661 7.24917 26.5279C7.10634 26.4721 6.96075 26.4236 6.81299 26.3826C6.81299 26.216 6.81299 25.4985 7.11612 25.4985C7.19646 25.4988 7.27346 25.5308 7.33027 25.5875C7.38707 25.6444 7.41907 25.7214 7.41927 25.8017V27.1102C7.41888 27.1903 7.3869 27.267 7.33027 27.3237C7.27365 27.3803 7.19695 27.4123 7.11685 27.4127Z" fill="#770E29"/>
<path d="M7.84396 27.5579C7.74429 27.5579 7.64869 27.5184 7.57822 27.4478C7.50773 27.3773 7.46814 27.2818 7.46814 27.1821V25.8735C7.46591 25.8228 7.47396 25.7723 7.49182 25.7247C7.50968 25.6772 7.53698 25.6338 7.57207 25.5972C7.60715 25.5605 7.64929 25.5313 7.69597 25.5115C7.74264 25.4914 7.79285 25.4812 7.8436 25.4812C7.89435 25.4812 7.94457 25.4914 7.99124 25.5115C8.03791 25.5313 8.08005 25.5605 8.11514 25.5972C8.15022 25.6338 8.17752 25.6772 8.19539 25.7247C8.21324 25.7723 8.22131 25.8228 8.21908 25.8735V27.1821C8.21908 27.2816 8.17958 27.3771 8.10925 27.4475C8.03893 27.5181 7.94352 27.5578 7.84396 27.5579Z" fill="#B72036"/>
<path d="M7.84403 25.5714C7.92437 25.5715 8.00136 25.6035 8.05818 25.6604C8.11498 25.7172 8.14697 25.7941 8.14718 25.8745V27.183C8.14697 27.2634 8.11498 27.3403 8.05818 27.3972C8.00136 27.4539 7.92437 27.4859 7.84403 27.4862C7.7637 27.4859 7.6867 27.4539 7.62989 27.3972C7.57309 27.3403 7.54108 27.2634 7.54089 27.183V25.8745C7.54108 25.7941 7.57309 25.7172 7.62989 25.6604C7.6867 25.6035 7.7637 25.5715 7.84403 25.5714ZM7.84403 25.426C7.72507 25.426 7.61099 25.4732 7.52687 25.5574C7.44275 25.6414 7.39551 25.7555 7.39551 25.8745V27.183C7.40016 27.2988 7.44942 27.4082 7.53296 27.4885C7.6165 27.5687 7.72783 27.6135 7.84366 27.6135C7.9595 27.6135 8.07084 27.5687 8.15438 27.4885C8.23792 27.4082 8.28717 27.2988 8.29183 27.183V25.8745C8.29183 25.7555 8.24458 25.6414 8.16046 25.5574C8.07635 25.4732 7.96227 25.426 7.8433 25.426H7.84403Z" fill="#3A040C"/>
<path d="M7.84415 27.4852C7.67769 27.4852 7.97137 27.4852 7.96484 27.233C7.96484 27.233 8.00335 26.6609 7.9881 26.5278C7.84388 26.48 7.69296 26.4555 7.54102 26.4551C7.54102 26.2887 7.54102 25.5712 7.84415 25.5712C7.92449 25.5713 8.00149 25.6033 8.0583 25.6602C8.1151 25.717 8.1471 25.7939 8.1473 25.8743V27.1828C8.14691 27.2631 8.11483 27.3399 8.05805 27.3965C8.00126 27.4532 7.92437 27.4851 7.84415 27.4852Z" fill="#770E29"/>
<path d="M8.5936 27.6307C8.49393 27.6307 8.39834 27.591 8.32785 27.5206C8.25737 27.4501 8.21777 27.3545 8.21777 27.2548V25.9463C8.22204 25.8496 8.26344 25.7582 8.33339 25.6912C8.40334 25.6243 8.49643 25.587 8.59324 25.587C8.69006 25.587 8.78315 25.6243 8.8531 25.6912C8.92305 25.7582 8.96445 25.8496 8.96872 25.9463V27.2548C8.96872 27.3544 8.92922 27.4498 8.85889 27.5203C8.78857 27.5907 8.69315 27.6304 8.5936 27.6307Z" fill="#B72036"/>
<path d="M8.59331 25.644C8.67366 25.6441 8.75065 25.6761 8.80746 25.733C8.86426 25.7897 8.89626 25.8668 8.89646 25.9472V27.2557C8.89264 27.3334 8.85909 27.4066 8.80272 27.4603C8.74636 27.5139 8.6715 27.5439 8.59368 27.5439C8.51585 27.5439 8.44101 27.5139 8.38464 27.4603C8.32828 27.4066 8.29471 27.3334 8.2909 27.2557V25.9472C8.29109 25.8668 8.32309 25.7897 8.3799 25.733C8.4367 25.6761 8.5137 25.6441 8.59404 25.644M8.59404 25.4985C8.47509 25.4985 8.361 25.5459 8.27688 25.6299C8.19276 25.714 8.14551 25.8282 8.14551 25.9472V27.2557C8.15017 27.3714 8.19943 27.4809 8.28297 27.5611C8.36651 27.6412 8.47784 27.6861 8.59368 27.6861C8.70951 27.6861 8.82085 27.6412 8.90439 27.5611C8.98792 27.4809 9.03718 27.3714 9.04185 27.2557V25.9472C9.04185 25.8282 8.99459 25.714 8.91047 25.6299C8.82637 25.5459 8.71228 25.4985 8.59331 25.4985H8.59404Z" fill="#3A040C"/>
<path d="M8.5932 27.5579C8.42672 27.5579 8.72041 27.5579 8.71387 27.3057C8.71387 27.3057 8.74295 26.6266 8.72768 26.4937C8.5554 26.4209 8.2915 26.5271 8.2915 26.5271C8.2915 26.3606 8.2915 25.6431 8.59465 25.6431C8.67499 25.6433 8.75199 25.6753 8.80879 25.7321C8.8656 25.7889 8.8976 25.866 8.89779 25.9462V27.2547C8.89769 27.2947 8.88974 27.3342 8.87438 27.371C8.85903 27.4079 8.83656 27.4413 8.80828 27.4694C8.77999 27.4975 8.74644 27.5198 8.70953 27.535C8.67263 27.5502 8.6331 27.558 8.5932 27.5579Z" fill="#771024"/>
<path d="M7.60391 26.3673C6.56509 26.3673 6.2227 25.705 6.20743 25.6767L6.1958 25.6534L6.25104 20.0239C6.25161 19.963 6.26579 19.903 6.29257 19.8483C6.31935 19.7936 6.35804 19.7456 6.4058 19.7078C6.45356 19.67 6.50918 19.6434 6.56856 19.63C6.62796 19.6164 6.68961 19.6164 6.74901 19.6298L9.06873 20.0864L9.00693 25.9973L8.97931 26.0278C8.94951 26.0613 8.65726 26.3549 7.63299 26.3673H7.60391Z" fill="#B72036"/>
<path d="M6.6583 19.7287C6.68079 19.7286 6.70323 19.731 6.72517 19.736L8.9591 20.1721L8.89877 25.9514C8.89877 25.9514 8.63852 26.2422 7.63241 26.2546H7.60406C6.62049 26.2546 6.30499 25.6243 6.30499 25.6243L6.35952 20.0217C6.36028 19.943 6.392 19.8679 6.44779 19.8125C6.50358 19.7571 6.57895 19.7259 6.65757 19.7258M6.65757 19.5077C6.5221 19.5082 6.39223 19.5617 6.29577 19.6569C6.19929 19.752 6.1439 19.8812 6.14143 20.0165L6.08691 25.6192V25.6715L6.11017 25.7188C6.12543 25.7493 6.49837 26.4697 7.60406 26.4697H7.63459C8.68286 26.4573 9.00636 26.1549 9.06088 26.0946L9.1154 26.0335V25.9572L9.17574 20.1779V19.9969L8.99763 19.962L6.76662 19.5258C6.73009 19.5178 6.69279 19.5136 6.65538 19.5135L6.65757 19.5077Z" fill="#3A050D"/>
<path d="M6.72524 19.7367C6.67282 19.7246 6.61812 19.727 6.56692 19.7436C6.51573 19.7601 6.46995 19.7901 6.43446 19.8306L6.36177 20.0254L6.35449 20.7849C6.73832 21.9481 8.72728 22.9353 8.72728 22.9353C8.72728 22.9353 8.99406 25.2376 8.47284 25.8431C8.31925 26.0258 8.1179 26.1623 7.89128 26.2372C8.1316 26.2273 8.36975 26.1873 8.60006 26.1179C8.71033 26.0866 8.81218 26.0309 8.89811 25.9551L8.95845 20.1758L6.72524 19.7367Z" fill="#770E29"/>
<path d="M7.58594 26.2575H7.63245C7.70515 26.2575 7.77785 26.2575 7.84691 26.2502L7.89125 26.2372C7.83164 26.2408 7.7684 26.2438 7.70151 26.2459C7.6627 26.2461 7.624 26.25 7.58594 26.2575Z" fill="black"/>
<path d="M11.6646 22.9834C11.6456 22.9834 11.1956 22.9754 10.987 22.9608C7.97962 22.7472 6.44866 21.0918 6.15351 20.032L6.14551 20.0028V19.9731C6.14551 19.2119 6.83613 18.3774 7.38133 18.2546L7.4424 18.2407L7.50128 18.2618C7.5972 18.3042 7.68483 18.3632 7.76008 18.4363C8.11265 18.7308 8.93847 19.4206 11.5301 19.5006H11.7853C14.3703 19.4206 15.1954 18.7308 15.548 18.4363C15.6231 18.3632 15.7108 18.3042 15.8068 18.2618L15.8657 18.2407L15.9267 18.2546C16.4712 18.3781 17.1625 19.2119 17.1625 19.9731V20.0028L17.1545 20.032C16.8855 20.9981 15.5058 22.5618 12.8081 22.9121C12.4301 22.9608 12.0493 22.9851 11.6682 22.9848L11.6646 22.9834Z" fill="#B72036"/>
<path d="M15.8788 18.4674C16.2946 18.5619 16.9445 19.2816 16.9445 19.9737C16.6814 20.9187 15.3409 22.3632 12.7798 22.6961C12.4112 22.7442 12.04 22.7686 11.6682 22.7688C11.6682 22.7688 11.2074 22.7608 11.0024 22.7463C8.13235 22.542 6.64065 20.9769 6.36295 19.9766C6.36295 19.2846 7.01284 18.5649 7.42867 18.4704C7.69764 18.5649 8.26103 19.6204 11.5229 19.7215H11.7845C15.0465 19.6211 15.6098 18.5649 15.8788 18.4704M15.8526 18.0175L15.7341 18.0589C15.6131 18.1091 15.5025 18.1813 15.4077 18.272C15.0725 18.5517 14.2889 19.2067 11.7781 19.2852H11.5302C9.01924 19.2067 8.23485 18.5517 7.90046 18.272C7.80572 18.1813 7.69505 18.1091 7.57405 18.0589L7.45556 18.0175L7.33343 18.045C6.70098 18.1905 5.92822 19.1079 5.92822 19.9766V20.0362L5.94422 20.0936C6.25608 21.2131 7.8532 22.9593 10.9725 23.181C11.1907 23.1962 11.6428 23.2043 11.6625 23.2043H11.6697C12.06 23.2051 12.45 23.1808 12.8372 23.1316C14.0563 22.9731 15.1461 22.55 15.9878 21.9146C16.6886 21.384 17.1909 20.7202 17.369 20.0936L17.385 20.0362V19.9766C17.385 19.1043 16.6123 18.1883 15.9799 18.045L15.8577 18.0175H15.8526Z" fill="#3A050D"/>
<path d="M11.0036 22.744C10.8682 22.7212 10.7315 22.7077 10.5942 22.7041C10.7273 22.7186 10.8632 22.7331 11.0036 22.744Z" fill="black"/>
<path d="M15.8791 18.4675L15.8551 18.4784L15.8449 18.4842H15.8391C15.6704 18.5896 15.4261 18.9793 14.4498 19.2977C13.8588 19.5042 13.0135 19.6772 11.7856 19.715C11.7856 19.715 12.9015 19.8334 12.085 20.4536C11.8379 20.6412 13.3449 20.6128 13.2969 21.6509C13.2635 22.3727 12.8565 22.5334 12.4093 22.7312C12.5358 22.7203 12.6602 22.7086 12.7808 22.6926C15.3412 22.3604 16.6824 20.9145 16.9456 19.9702C16.9448 19.2817 16.2949 18.5614 15.8791 18.4675Z" fill="#770E29"/>
<path d="M7.71431 18.1431C7.71561 18.1451 7.71783 18.1486 7.72101 18.1533C7.72735 18.1628 7.73749 18.1777 7.7512 18.1973C7.77866 18.2365 7.82064 18.2944 7.87645 18.3659C7.98831 18.5091 8.15464 18.7052 8.37023 18.9134C8.80458 19.3328 9.42094 19.7842 10.1782 19.9709L10.2521 19.9885C11.8038 20.3459 13.3244 19.9131 14.021 19.4994C14.3942 19.2778 14.7548 19.0221 15.0405 18.7773C15.3381 18.5223 15.5155 18.3116 15.5726 18.1844L16.1857 18.4599C16.0633 18.7325 15.7848 19.0248 15.4778 19.2878C15.1589 19.5611 14.766 19.8388 14.3642 20.0774C13.5352 20.5697 11.8383 21.0441 10.1001 20.6434L10.0173 20.6235C9.10254 20.398 8.38484 19.862 7.90323 19.3969C7.66087 19.1629 7.47382 18.9424 7.3467 18.7797C7.28304 18.6982 7.23411 18.6308 7.20058 18.5829C7.18382 18.559 7.1709 18.5399 7.16185 18.5263C7.15732 18.5195 7.15365 18.5141 7.15108 18.5102C7.1498 18.5082 7.14885 18.5065 7.14806 18.5053C7.14766 18.5047 7.14728 18.5042 7.14701 18.5037C7.14688 18.5035 7.14672 18.5034 7.14662 18.5032L7.14648 18.5029L7.71313 18.1414C7.71333 18.1417 7.71376 18.1422 7.71431 18.1431ZM7.71313 18.1412V18.1414L7.713 18.1412V18.1411L7.71313 18.1412Z" fill="#3A050D"/>
<path d="M24.0936 40.6262C21.2567 40.6262 19.2194 40.4399 17.8642 40.0569C16.387 39.6393 15.6107 38.9589 15.4876 37.9784C15.3944 37.3317 15.3768 36.2869 15.4345 34.8927V33.1834C15.4345 31.3269 17.5642 27.4572 20.9044 26.9559L21.4375 26.8625L21.5754 27.0713L21.7106 27.0957C22.4977 27.2363 23.2937 27.3231 24.0927 27.3557C25.6771 27.2737 26.3091 27.1618 26.5942 27.0974L26.7248 26.9018H27.2569H27.2877C28.7303 27.1422 30.1237 28.0677 31.2113 29.5113C32.1126 30.7062 32.6969 32.1405 32.7025 33.1722L32.8032 34.8908V37.9915C32.6466 38.9665 31.8553 39.6467 30.3799 40.0624C29.0183 40.4445 26.9801 40.6291 24.1486 40.6291H24.0946" fill="white"/>
<path d="M32.6824 33.176H31.0514C30.7224 33.176 30.6189 33.0734 30.6189 32.7444V28.8748C30.3377 28.5594 30.0227 28.276 29.6795 28.0295C29.2951 27.752 28.89 27.5044 28.4679 27.2886V32.585C28.4679 32.7427 28.4052 32.8941 28.2938 33.0055C28.1822 33.117 28.0309 33.1796 27.8733 33.1796L20.0166 33.1862C19.6876 33.1862 19.6177 32.9205 19.6177 32.5916V27.3052C19.2137 27.5256 18.8217 27.7673 18.4434 28.0295C18.096 28.29 17.7704 28.5784 17.4695 28.8915V32.5944C17.4695 32.7519 17.407 32.9031 17.2956 33.0145C17.1843 33.126 17.0334 33.1887 16.8758 33.189H15.4116V34.8973C15.3547 36.2952 15.3734 37.3364 15.4657 37.9831C15.5887 38.9646 16.3641 39.6439 17.8423 40.0615C19.1974 40.4464 21.2347 40.6309 24.0717 40.6309H24.1257C26.9572 40.6309 28.9954 40.4445 30.357 40.0643C31.8314 39.6486 32.6237 38.9691 32.7803 37.9934V34.8945L32.6824 33.176Z" fill="#2E76AD"/>
<path d="M20.8096 38.958C20.7554 38.9582 20.7028 38.9391 20.6614 38.904C20.62 38.869 20.5922 38.8205 20.5832 38.767L20.0929 35.7846C20.0875 35.7519 20.0893 35.7183 20.0981 35.6864C20.107 35.6546 20.1227 35.6247 20.1442 35.5996C20.1658 35.5743 20.1924 35.554 20.2225 35.54C20.2526 35.5262 20.2853 35.519 20.3185 35.519H27.8163C27.8495 35.5189 27.8822 35.5259 27.9123 35.5397C27.9424 35.5537 27.9692 35.5739 27.9907 35.5992C28.0121 35.6244 28.0282 35.6544 28.0372 35.6867C28.0462 35.719 28.0481 35.7526 28.0429 35.7855L27.5516 38.7679C27.5429 38.8213 27.5153 38.8698 27.474 38.9049C27.4326 38.9399 27.3803 38.9591 27.3262 38.959L20.8096 38.958Z" fill="#2E76AD"/>
<path d="M27.816 35.7435L27.3257 38.7259H20.8102L20.3189 35.7435H27.8169H27.816ZM27.8169 35.286H20.318C20.2517 35.286 20.1861 35.3005 20.126 35.3285C20.0658 35.3563 20.0123 35.3971 19.9694 35.4476C19.9265 35.4983 19.895 35.5576 19.8774 35.6217C19.8597 35.6857 19.8562 35.7526 19.8669 35.8181L20.3572 38.8005C20.3731 38.9093 20.4277 39.0087 20.5108 39.0806C20.5938 39.1524 20.7002 39.1919 20.8102 39.1919H27.3266C27.4352 39.1919 27.5404 39.1532 27.623 39.0829C27.7059 39.0126 27.761 38.9151 27.7786 38.8079L28.2689 35.8255C28.2796 35.76 28.2762 35.6928 28.2583 35.6288C28.2405 35.5648 28.2091 35.5054 28.1662 35.4547C28.1232 35.4042 28.0697 35.3634 28.0093 35.3356C27.9489 35.3078 27.8833 35.2933 27.8169 35.2934V35.286Z" fill="#2A5E85"/>
<path d="M18.5069 34.8443C18.6643 34.8078 19.3018 34.6801 19.3083 33.9122V27.2858L19.8592 27.0005V33.0212L19.7986 33.779L19.5926 34.3232L19.3381 34.5898L19.039 34.7528L18.7305 34.846L18.5069 34.8443ZM29.5389 34.8443C29.6963 34.8078 30.3348 34.6801 30.3403 33.9122V28.3324L30.8911 28.7052V33.025L30.8306 33.7827L30.6247 34.3269L30.3711 34.5935L30.0682 34.7575L29.7589 34.8507L29.5389 34.8443ZM31.4597 33.0118V37.5898C31.4402 37.7921 31.5753 38.7399 29.497 39.2888C27.6162 39.7856 26.316 39.8919 23.1174 39.9413C20.7843 39.9675 18.4533 39.7935 16.1499 39.4213L18.6364 40.4333L24.1557 40.4828L27.7169 40.4222L29.7402 40.1425L31.0953 39.6579L32.168 38.9701L32.6731 38.1612L32.7141 36.9673L32.6937 33.0324L31.4597 33.0118Z" fill="#1F5F8F"/>
<path d="M21.5553 26.4236L21.0789 26.5029L20.7789 26.5532C19.2262 26.788 17.7257 27.7555 16.5533 29.2792C15.5607 30.5682 14.9427 32.0752 14.9427 33.2113V34.9318C14.8841 36.3559 14.9036 37.4248 15.0005 38.109C15.1469 39.245 16.0435 40.0541 17.6689 40.5144C19.0668 40.9106 21.1619 41.1035 24.0614 41.1035H24.1135C27.0102 41.1035 29.1034 40.9106 30.5107 40.5144C31.2946 40.2925 31.8901 40.0074 32.3347 39.6402C32.81 39.2638 33.1268 38.7227 33.222 38.1239L33.2312 38.067V34.8992L33.1305 33.1834C33.1175 32.0491 32.5089 30.5569 31.5462 29.2747C30.3905 27.7434 28.8984 26.7582 27.3522 26.5001L27.2917 26.4897H26.5238L26.3662 26.7265C26.0372 26.789 25.3867 26.8793 24.0661 26.9483C23.2866 26.919 22.5101 26.8371 21.7416 26.7032L21.5553 26.4236ZM27.2237 27.241C30.2862 27.7508 32.3794 31.3753 32.3794 33.2057L32.4811 34.9412V38.0036C32.2294 39.6402 29.7241 40.3513 24.1135 40.3513H24.0614C18.447 40.3513 15.9456 39.6374 15.7415 38.0036C15.6399 37.2888 15.6399 36.1658 15.6902 34.9412V33.2057C15.6902 31.3688 17.8338 27.7442 20.8964 27.2857L21.2029 27.2344L21.3045 27.3872C21.5086 27.3872 22.121 27.5915 24.0614 27.693C26.0512 27.5915 26.6132 27.4377 26.8172 27.3872L26.9189 27.2344H27.2255" fill="#231F20"/>
<path d="M33.241 34.8674L33.1403 33.1488L33.1143 32.7173H31.0779V28.7069L30.9689 28.5792C30.6639 28.2353 30.3217 27.9265 29.9483 27.6584C29.5442 27.3655 29.1179 27.1043 28.6733 26.8773L28.0144 26.555V32.5849C28.0144 32.6029 28.0109 32.6206 28.0041 32.6373C27.9972 32.654 27.9871 32.669 27.9743 32.6818C27.9616 32.6946 27.9465 32.7046 27.9298 32.7115C27.9133 32.7184 27.8954 32.722 27.8774 32.7219L20.0869 32.7284C20.0812 32.683 20.0788 32.6372 20.0795 32.5914V26.5334L19.401 26.9063C18.9769 27.1374 18.566 27.3916 18.1698 27.6677C17.8007 27.9448 17.4547 28.2515 17.1352 28.5849L17.016 28.7162V32.5962C17.016 32.6325 17.0016 32.6673 16.9759 32.6929C16.9632 32.7057 16.9481 32.7158 16.9314 32.7227C16.9148 32.7295 16.897 32.7331 16.879 32.7331H14.9581L14.9423 33.1906V34.9271C14.8835 36.3511 14.9031 37.4201 15.0001 38.1042C15.1463 39.2403 16.0429 40.0492 17.6683 40.5097C19.0663 40.9058 21.1615 41.0987 24.0609 41.0987H24.1131C27.0097 41.0987 29.103 40.9058 30.5103 40.5097C31.2941 40.2879 31.8896 40.0026 32.3342 39.6354C32.5703 39.4494 32.7691 39.2204 32.9204 38.9607C33.0016 38.8225 33.0684 38.6763 33.1199 38.5246C33.1738 38.3764 33.2135 38.2235 33.2382 38.0679L33.2439 38.0314V34.8674H33.241ZM16.8799 33.1898C17.0374 33.1896 17.1885 33.1268 17.2998 33.0153C17.411 32.9038 17.4736 32.7528 17.4736 32.5952V29.3332C17.76 28.985 18.087 28.6721 18.4475 28.4012C19.1559 27.8625 19.6219 27.677 19.6219 27.677V32.5877V32.6697L19.6292 33.3975V33.4134L19.6162 33.7686V33.8272C19.6149 33.9116 19.6017 33.9954 19.5771 34.0761C19.5436 34.1828 19.494 34.2836 19.4299 34.3753C19.4131 34.3977 19.3963 34.42 19.3776 34.4424C19.3214 34.5086 19.2568 34.567 19.1856 34.6167L19.1381 34.6465C19.0771 34.6833 19.013 34.7147 18.9462 34.7397C18.9175 34.751 18.8886 34.7612 18.8594 34.7705C18.7955 34.7898 18.7305 34.8054 18.6646 34.8171C18.6059 34.8264 18.5473 34.8347 18.4885 34.8394V34.8721C18.6196 34.8798 18.7511 34.8736 18.8808 34.8534C18.9638 34.8405 19.0452 34.8195 19.1242 34.7909C19.1559 34.7797 19.1865 34.7667 19.2173 34.7536L19.263 34.7313C19.2993 34.7136 19.3348 34.6949 19.3692 34.6745C19.4527 34.629 19.529 34.5716 19.5958 34.5039C19.6821 34.4198 19.7583 34.326 19.8231 34.2244C19.8316 34.2094 19.8399 34.1955 19.8473 34.1805C19.8548 34.1656 19.8613 34.1497 19.8688 34.1348C19.9208 34.0263 19.962 33.913 19.9918 33.7966C19.998 33.7693 20.0039 33.7419 20.0096 33.7146V33.7089L20.0226 33.6316V33.6222C20.0226 33.598 20.03 33.5729 20.0328 33.5495V33.5374C20.0328 33.5141 20.0375 33.4918 20.0393 33.4684V33.4544C20.0393 33.433 20.0393 33.4125 20.044 33.392V33.3715V33.324C20.044 33.2718 20.0506 33.2233 20.0533 33.1795L27.8681 33.173C28.0258 33.173 28.1771 33.1104 28.2885 32.9988C28.4001 32.8873 28.4628 32.7361 28.4628 32.5784V27.7284C28.4628 27.7284 28.869 27.8663 29.6743 28.4356C30.0367 28.6844 30.3543 28.9925 30.6138 29.3471V32.7434C30.6138 32.7787 30.6138 32.8104 30.6184 32.8412L30.624 33.4004V33.4134L30.611 33.7686V33.8272C30.6096 33.9116 30.5965 33.9954 30.5719 34.0761C30.5509 34.1405 30.5241 34.203 30.4916 34.2625C30.4717 34.3009 30.4492 34.338 30.4245 34.3734C30.4077 34.3962 30.3904 34.4186 30.3723 34.4405C30.3162 34.5067 30.2516 34.5652 30.1804 34.6148L30.1328 34.6446C30.0719 34.6816 30.0076 34.7128 29.9408 34.7378C29.9123 34.7491 29.8834 34.7593 29.8542 34.7686C29.7896 34.7879 29.7239 34.8035 29.6575 34.8152C29.6035 34.8245 29.5485 34.8311 29.4926 34.8366H29.4833V34.8683C29.6144 34.876 29.7459 34.8698 29.8756 34.8496C29.9249 34.8413 29.9744 34.8311 30.0228 34.8179C30.0867 34.7998 30.1489 34.777 30.2093 34.7499L30.255 34.7276C30.2944 34.7081 30.3332 34.6872 30.3714 34.6652C30.392 34.653 30.4124 34.6409 30.432 34.6278C30.4747 34.6002 30.5149 34.5691 30.5522 34.5346C30.5651 34.5236 30.5772 34.5117 30.5885 34.4993C30.6623 34.4275 30.7294 34.3491 30.789 34.2654C30.7983 34.2514 30.8075 34.2374 30.816 34.2234C30.8246 34.2093 30.8324 34.1946 30.8393 34.1796L30.8617 34.1339C30.9136 34.0254 30.9549 33.9121 30.9847 33.7956C30.9912 33.7667 30.9978 33.7388 31.0023 33.7108C31.008 33.6838 31.0117 33.6558 31.0163 33.6288V33.6231C31.0163 33.5971 31.0229 33.571 31.0257 33.5458C31.0263 33.5427 31.0263 33.5395 31.0257 33.5364C31.0257 33.5122 31.0312 33.489 31.0331 33.4657V33.4527V33.3892V33.3688V33.324C31.0331 33.269 31.0397 33.2178 31.0433 33.173H32.3482L32.4572 34.9382V38.0008C32.2056 39.6373 29.7004 40.3484 24.0898 40.3484H24.0375C18.4233 40.3484 15.9218 39.6345 15.7177 38.0008C15.6161 37.286 15.6161 36.1628 15.6665 34.9382V33.1898H16.8799Z" fill="#1D415C"/>
<path d="M24.0494 28.7443C23.4889 28.7445 22.9299 28.6852 22.382 28.5673C21.4115 28.373 20.5008 27.9521 19.724 27.3389C19.4658 27.1354 19.2239 26.9119 19.0007 26.6706C17.6027 25.1506 16.8926 22.9184 16.8926 20.0376C16.8926 15.0571 19.4006 12.3134 23.9524 12.3134C26.2106 12.3134 28.0653 13.0142 29.316 14.3386C30.5667 15.6629 31.2164 17.5753 31.2164 19.9864C31.2164 26.351 28.1045 28.1945 25.4949 28.6204C25.0184 28.6978 24.5367 28.7387 24.0541 28.7425H24.0494" fill="white"/>
<path d="M17.1626 19.4774C17.7787 19.7011 20.8785 20.661 24.352 20.6452C27.8256 20.6293 31.0623 19.4336 31.0623 19.4336L31.04 18.2714H17.1626V19.4774Z" fill="#CECECE"/>
<path d="M23.9507 11.9423C21.575 11.9423 19.7166 12.6627 18.4276 14.0859C17.1601 15.4839 16.5171 17.4858 16.5171 20.0432C16.5171 23.0209 17.2627 25.3379 18.7241 26.9288C19.6743 27.9564 20.9238 28.6587 22.2955 28.9363C22.8711 29.0612 23.4586 29.1237 24.0476 29.1228H24.0531C24.5565 29.1179 25.0587 29.0753 25.5555 28.995C27.2574 28.7154 28.6311 27.952 29.6499 26.7256C30.935 25.172 31.5874 22.9044 31.5874 19.9929C31.5874 17.4831 30.9136 15.497 29.5845 14.0887C28.2556 12.6805 26.3141 11.9451 23.9497 11.9451L23.9507 11.9423ZM23.9497 12.6907C28.3404 12.6907 30.8409 15.3441 30.8409 19.9901C30.8409 26.0648 27.9331 27.8477 25.4307 28.2559C24.9744 28.3296 24.5134 28.3688 24.0514 28.3734H24.0457C23.3487 28.3734 22.6197 28.2587 22.4678 28.2084C20.8834 27.9018 17.2618 26.4731 17.2618 20.0413C17.2618 15.2937 19.6095 12.6907 23.9479 12.6907" fill="#231F20"/>
<path d="M18.5677 33.9402C18.4538 33.9401 18.3426 33.9061 18.248 33.8427C18.1533 33.7793 18.0797 33.6893 18.0362 33.5841C17.9928 33.4788 17.9815 33.3629 18.0038 33.2513C18.0262 33.1396 18.081 33.0372 18.1617 32.9566C18.2423 32.8762 18.3449 32.8214 18.4566 32.7992C18.5684 32.777 18.6841 32.7886 18.7892 32.8321C18.8945 32.8758 18.9843 32.9496 19.0476 33.0444C19.1108 33.1391 19.1447 33.2504 19.1447 33.3643C19.1444 33.5171 19.0835 33.6637 18.9753 33.7716C18.8671 33.8796 18.7205 33.9402 18.5677 33.9402Z" fill="#E2A22C"/>
<path d="M18.5676 32.9476C18.6494 32.9474 18.7294 32.9715 18.7974 33.0168C18.8654 33.062 18.9184 33.1264 18.9498 33.2018C18.9812 33.2774 18.9895 33.3603 18.9736 33.4404C18.9578 33.5206 18.9185 33.5942 18.8608 33.652C18.8032 33.71 18.7296 33.7492 18.6495 33.7654C18.5694 33.7814 18.4863 33.7732 18.4109 33.742C18.3353 33.7108 18.2708 33.6578 18.2253 33.5899C18.1724 33.5106 18.1484 33.4153 18.1577 33.3202C18.167 33.2253 18.2089 33.1365 18.2763 33.0688C18.3536 32.9915 18.4583 32.9478 18.5676 32.9476ZM18.5676 32.6205C18.4213 32.6205 18.2783 32.6639 18.1566 32.7451C18.0348 32.8264 17.9399 32.9421 17.884 33.0772C17.8279 33.2124 17.8133 33.3612 17.8419 33.5048C17.8704 33.6484 17.9409 33.7803 18.0444 33.8838C18.1478 33.9873 18.2798 34.0578 18.4234 34.0861C18.5668 34.1148 18.7156 34.1001 18.8509 34.0442C18.9861 33.9881 19.1016 33.8932 19.183 33.7716C19.2643 33.6499 19.3077 33.5068 19.3077 33.3604C19.3077 33.1642 19.2297 32.9759 19.091 32.8372C18.9521 32.6985 18.7639 32.6205 18.5676 32.6205Z" fill="#1D415C"/>
<path d="M29.595 33.9402C29.4812 33.9401 29.37 33.9061 29.2753 33.8427C29.1807 33.7794 29.1071 33.6893 29.0636 33.5841C29.0202 33.4788 29.0089 33.3629 29.0312 33.2513C29.0535 33.1396 29.1085 33.0372 29.189 32.9566C29.2697 32.8762 29.3723 32.8214 29.484 32.7992C29.5957 32.777 29.7115 32.7886 29.8166 32.8321C29.9219 32.8758 30.0117 32.9496 30.075 33.0444C30.1383 33.1391 30.172 33.2504 30.172 33.3643C30.1718 33.5171 30.1109 33.6635 30.0027 33.7716C29.8946 33.8796 29.7479 33.9402 29.595 33.9402Z" fill="#E2A22C"/>
<path d="M29.595 32.9476C29.6767 32.9474 29.7566 32.9715 29.8246 33.0168C29.8926 33.062 29.9457 33.1264 29.977 33.2018C30.0085 33.2774 30.0167 33.3603 30.001 33.4404C29.9851 33.5206 29.9459 33.5942 29.8882 33.652C29.8305 33.71 29.757 33.7492 29.6768 33.7654C29.5967 33.7814 29.5136 33.7732 29.4381 33.742C29.3626 33.7108 29.2981 33.6578 29.2527 33.5899C29.2074 33.522 29.183 33.4422 29.183 33.3604C29.183 33.2511 29.2265 33.1463 29.3036 33.0688C29.3808 32.9914 29.4857 32.9478 29.595 32.9476ZM29.595 32.6205C29.4486 32.6205 29.3055 32.6639 29.1838 32.7451C29.0622 32.8264 28.9674 32.9421 28.9113 33.0772C28.8553 33.2124 28.8406 33.3612 28.8693 33.5048C28.8976 33.6484 28.9681 33.7803 29.0716 33.8838C29.1751 33.9873 29.307 34.0578 29.4506 34.0861C29.5942 34.1148 29.743 34.1001 29.8782 34.0442C30.0135 33.9881 30.129 33.8932 30.2103 33.7716C30.2915 33.6499 30.3349 33.5068 30.3349 33.3604C30.3349 33.1642 30.2569 32.9759 30.1182 32.8372C29.9795 32.6985 29.7912 32.6205 29.595 32.6205Z" fill="#1D415C"/>
<path d="M35.1552 14.5873C33.7573 14.2322 31.2344 14.0598 30.3722 14.0095C30.4421 14.364 30.5329 14.7141 30.6444 15.058L30.3321 15.1773C30.1354 14.6656 29.6062 12.3114 29.4887 9.82104C29.1985 10.0193 28.7108 10.1895 28.0254 10.3318C26.9527 10.5527 25.5287 10.6747 24.0179 10.6747C22.5072 10.6747 21.0812 10.5527 20.0104 10.3318C19.3269 10.1902 18.8395 10.0203 18.5481 9.82198C18.4315 12.3114 17.9013 14.6684 17.7093 15.1773L17.3979 15.058C17.5049 14.7137 17.5923 14.3636 17.6598 14.0095C16.8564 14.0645 14.1183 14.2695 12.8676 14.6162C12.4016 14.7457 11.7566 14.9657 11.5357 15.374C11.4878 15.4689 11.4604 15.5731 11.4554 15.6793C11.4504 15.7856 11.4681 15.8918 11.5068 15.9909C11.7603 16.7821 13.4641 17.6684 16.1864 18.4187C18.6552 19.1009 21.0793 19.3749 24.2947 19.3329C28.3302 19.2808 30.539 18.784 32.3341 18.2547C34.9203 17.4904 36.6781 16.8055 36.8496 15.948C36.9893 15.2285 36.6734 14.9741 35.1552 14.5873ZM20.0727 10.0066C21.1241 10.2237 22.5239 10.3429 24.0151 10.3429C25.5063 10.3429 26.9043 10.2237 27.9583 10.0066C29.1559 9.7596 29.4775 9.46787 29.4775 9.34862C29.4775 9.22924 29.1606 8.93848 27.963 8.69058C26.9117 8.47343 25.511 8.35413 24.0198 8.35413C22.5286 8.35413 21.1307 8.47343 20.0775 8.69058C18.8799 8.93848 18.563 9.22924 18.563 9.34862C18.563 9.46787 18.8752 9.7596 20.0727 10.0066Z" fill="#F5B642"/>
<path d="M28.0168 10.2182C28.0168 10.2182 28.11 13.6189 28.4223 14.7727C28.7345 15.9266 30.2321 13.8995 30.2321 13.8995L29.7327 11.4968L29.6394 9.438L28.8938 9.93663L28.0168 10.2182ZM26.1343 8.17236C25.9991 8.55938 25.793 8.91779 25.5266 9.22921C25.1043 9.70459 24.0205 10.2862 23.4398 10.3914C22.8592 10.4967 25.1835 10.3654 25.1835 10.3654L27.4027 10.1538L28.961 9.86296L29.6218 9.30382L29.5424 8.93101L28.3309 8.55821L26.8211 8.27768L26.1343 8.17236Z" fill="#DD9C26"/>
<path d="M17.6987 15.1792C18.1647 15.3982 20.9149 17.2006 26.0652 17.3293C30.4008 17.4374 33.3208 16.3972 34.2574 15.99C35.1941 15.5826 36.3478 14.9918 36.1288 14.742C35.9098 14.4923 33.1026 14.0551 33.1026 14.0551L30.2694 13.7942L29.452 15.1167L24.7091 15.5826L17.6987 15.1792ZM33.1185 17.5194C33.1185 17.5194 32.9862 18.1531 32.907 18.2593C32.8277 18.3657 35.5827 17.3433 35.5827 17.3433L36.7448 16.551L37.0887 15.5473L36.1876 16.4187L33.1185 17.5194Z" fill="#DD9C26"/>
<path d="M19.0713 9.9487C18.9719 11.4616 18.7918 12.968 18.5317 14.4614C18.1253 16.6767 17.9072 13.9301 17.9072 13.9301L18.157 12.027L18.3751 9.53113L19.0713 9.9487Z" fill="#DD9C26"/>
<path d="M20.7504 10.3168L23.6014 10.5032C23.6014 10.5032 23.3162 14.8771 23.3731 15.3599C23.4373 15.9079 20.2043 15.4884 20.2816 15.098C20.5063 13.9087 20.7504 10.4212 20.7504 10.3168Z" fill="#FFD48A"/>
<path d="M11.3702 15.2966L11.7197 15.8568L12.5827 16.3927L13.772 17.046L15.568 17.6761L18.0629 18.2819L20.4422 18.6556L23.637 18.8652L22.6781 18.8419L22.7013 19.471L21.6781 19.4477L18.623 19.0983L16.1737 18.6322L14.1922 17.9323L12.4895 17.1625L11.4634 16.3461L11.3003 15.7403L11.3702 15.2966Z" fill="#FFDB9C"/>
<path d="M35.2372 14.2657C33.7358 13.8845 31.0749 13.7158 30.3023 13.6729C30.0192 12.2635 29.8533 10.8329 29.8065 9.39599C29.8073 9.38012 29.8073 9.36426 29.8065 9.34853C29.8065 8.93934 29.2072 8.60754 28.0254 8.3643C26.9526 8.14248 25.5286 8.02039 24.0178 8.02039C22.5071 8.02039 21.0811 8.14248 20.0103 8.3643C18.8295 8.60754 18.2301 8.93934 18.2301 9.34853C18.2292 9.36426 18.2292 9.38012 18.2301 9.39599C18.1831 10.8319 18.0173 12.2616 17.7343 13.6701C17.0614 13.7139 14.134 13.919 12.7817 14.2946C12.257 14.4409 11.5272 14.6944 11.2458 15.2154C11.1766 15.3499 11.1361 15.4973 11.127 15.6483C11.1179 15.7992 11.1402 15.9505 11.1926 16.0923C11.5654 17.264 14.0707 18.2201 16.1033 18.7811C18.4417 19.428 20.7362 19.7132 23.6767 19.7132H24.3049C28.3814 19.661 30.6471 19.1735 32.4598 18.6414C35.2399 17.8193 37.0079 17.0346 37.2129 16.0103C37.4366 14.8911 36.5503 14.5984 35.2372 14.2657ZM20.0103 8.76225C21.0616 8.5451 22.5266 8.43606 24.0178 8.43606C25.509 8.43606 26.9089 8.5451 27.9629 8.76225C29.1605 9.01016 29.4774 9.22915 29.4774 9.34853C29.4774 9.46778 29.1373 9.72685 27.9397 9.97381C26.8883 10.1909 25.4988 10.2534 24.0076 10.2534C22.5164 10.2534 21.164 10.1444 20.1109 9.9273C18.9134 9.68033 18.5629 9.46778 18.5629 9.34853C18.5629 9.22915 18.8127 9.01016 20.0103 8.76225ZM12.8543 14.6814C14.104 14.3346 16.8431 14.1296 17.6465 14.0746C17.5758 14.4296 17.4981 14.7151 17.3876 15.0597L17.781 15.231C17.9775 14.7193 18.5079 12.3651 18.6197 9.87567C18.9105 10.0733 19.3159 10.1913 20 10.3336C21.0737 10.5545 22.4978 10.6765 24.0076 10.6765C25.5175 10.6765 26.9452 10.5545 28.0151 10.3336C28.6986 10.1919 29.1284 10.0592 29.4204 9.86048C29.5379 12.3507 30.0672 14.7068 30.2639 15.2166L30.634 15.0597C30.5225 14.7159 30.4316 14.3658 30.3619 14.0112C31.224 14.0616 33.7441 14.2787 35.1448 14.6338C36.3258 14.933 36.7562 15.0971 36.8318 15.5192C36.815 15.7223 36.2921 16.0998 35.1448 16.5909C34.238 16.9796 33.1561 17.4 30.5493 17.9423C28.9014 18.2853 27.3031 18.5491 24.0784 18.5948C22.1489 18.6136 20.2872 18.4626 18.3868 18.1288C15.7715 17.6842 14.0343 16.9889 13.587 16.7774C13.1133 16.563 12.6723 16.269 12.2356 15.987C11.6763 15.6078 11.6111 15.4735 11.6298 15.3329C11.8953 14.9712 12.4161 14.8034 12.8543 14.6814ZM32.3294 18.2509C30.5389 18.7803 28.3217 19.2761 24.29 19.3292C21.0792 19.3712 18.6551 19.0972 16.1862 18.4149C13.4658 17.6638 11.7602 16.7784 11.5068 15.987C11.4784 15.9014 11.4615 15.8124 11.4564 15.7223C11.7845 16.1884 12.6046 16.658 13.4472 17.0571C13.9029 17.2732 15.5935 17.9657 18.2469 18.4149C20.0319 18.7275 21.8646 18.9207 23.6767 18.9275H24.0784C27.3263 18.8818 28.9657 18.592 30.6266 18.2462C33.2576 17.6991 34.375 17.2685 35.2949 16.8753C36.0238 16.5646 36.536 16.2762 36.8318 16.0103C36.5867 16.8389 34.8523 17.509 32.3294 18.2546V18.2509Z" fill="#7D4F21"/>
<path d="M17.7501 13.7942C17.9823 13.6693 18.2013 14.2201 21.2638 14.6134C23.358 14.8818 25.2145 14.9005 27.3058 14.5305C29.5939 14.125 30.1289 13.6842 30.2695 13.7942C30.4309 13.92 30.6321 14.8929 30.5288 15.044C30.401 15.2304 29.016 15.6805 27.1176 15.9387C25.4335 16.168 23.276 16.2872 21.0252 15.9694C18.8694 15.6648 17.4491 15.0943 17.3988 14.9443C17.3484 14.7943 17.6169 13.8659 17.7501 13.7942Z" fill="#C23131" stroke="#940D0D" stroke-width="0.377776" stroke-miterlimit="10"/>
<path d="M18.3298 14.0636C18.2766 14.1689 18.0409 15.0607 18.0409 15.2183C18.0409 15.3757 17.3325 14.9816 17.3325 14.9816L17.7501 13.7942L18.3298 14.0636ZM28.7457 14.2732C28.824 14.4829 28.9554 15.3757 28.9554 15.6116C28.9554 15.8474 30.5286 15.0441 30.5286 15.0441L30.2695 13.7942L28.7457 14.2732Z" fill="#A41F1F"/>
<path d="M20.1511 14.536L19.9937 15.7691C19.9937 15.8744 21.7169 16.0841 21.7169 16.0841C21.7169 16.0841 23.5698 16.2706 23.5958 16.1623C23.6219 16.0542 23.5698 14.8511 23.5698 14.8511L21.7691 14.7457L20.1511 14.536Z" fill="#D74646"/>
<path d="M17.7501 13.7942C17.9823 13.6693 18.2013 14.2201 21.2638 14.6134C23.358 14.8818 25.2145 14.9005 27.3058 14.5305C29.5939 14.125 30.1289 13.6842 30.2695 13.7942C30.4309 13.92 30.6321 14.8929 30.5288 15.044C30.401 15.2304 29.016 15.6805 27.1176 15.9387C25.4335 16.168 23.276 16.2872 21.0252 15.9694C18.8694 15.6648 17.4491 15.0943 17.3988 14.9443C17.3484 14.7943 17.6169 13.8659 17.7501 13.7942Z" stroke="#970808" stroke-width="0.377776" stroke-miterlimit="10"/>
<path d="M25.6969 12.3795C25.7913 12.3736 25.885 12.3589 25.9766 12.3357C26.0711 12.3156 26.1644 12.2908 26.2562 12.2611C26.4378 12.2012 26.6158 12.1309 26.7892 12.0505L27.2945 11.7792L27.7735 11.455C27.7768 11.4524 27.7807 11.4507 27.7849 11.4497C27.7891 11.4486 27.7932 11.4486 27.7974 11.4493C27.8016 11.4499 27.8056 11.4515 27.8091 11.4538C27.8127 11.4559 27.8158 11.459 27.8182 11.4624C27.823 11.4681 27.8255 11.4754 27.8255 11.4829C27.8255 11.4903 27.823 11.4976 27.8182 11.5034C27.6846 11.6503 27.5363 11.783 27.3755 11.8996C27.213 12.0152 27.0401 12.1157 26.8591 12.1996C26.6783 12.2845 26.4894 12.3509 26.2953 12.3981C26.101 12.4518 25.899 12.4716 25.6979 12.4568C25.6929 12.4564 25.688 12.4549 25.6836 12.4525C25.6793 12.4502 25.6754 12.447 25.6723 12.443C25.6691 12.4391 25.6668 12.4346 25.6655 12.4298C25.6641 12.4249 25.6637 12.42 25.6644 12.415C25.6651 12.4059 25.669 12.3974 25.6755 12.3911C25.682 12.3846 25.6907 12.381 25.6997 12.3804L25.6969 12.3795ZM25.9944 13.0962L26.5536 12.9415L27.0913 12.7457C27.266 12.6706 27.4359 12.5851 27.6002 12.4895C27.7638 12.3901 27.9216 12.2816 28.0727 12.1641C28.0769 12.1609 28.0816 12.1585 28.0869 12.157C28.0921 12.1555 28.0975 12.1553 28.1027 12.1559C28.108 12.1566 28.1131 12.1584 28.1178 12.161C28.1223 12.1637 28.1264 12.1672 28.1296 12.1715C28.1357 12.1789 28.1389 12.1881 28.1389 12.1976C28.1389 12.2072 28.1357 12.2164 28.1296 12.2237C27.9923 12.3666 27.8402 12.4945 27.6757 12.605C27.5102 12.7143 27.3348 12.808 27.152 12.8845C26.9709 12.9618 26.7839 13.024 26.5927 13.0709C26.4025 13.1165 26.2099 13.1513 26.0158 13.1753C26.0052 13.1766 25.9946 13.1738 25.986 13.1673C25.9775 13.1609 25.9717 13.1513 25.9701 13.1408C25.9686 13.1318 25.9704 13.1224 25.9747 13.1144C25.9791 13.1063 25.986 13.1 25.9944 13.0962Z" fill="#7D4F21"/>
<path d="M26.9301 11.3523L27.137 11.8938L27.37 12.4157C27.4568 12.5863 27.5543 12.7513 27.6617 12.9097C27.7719 13.0661 27.8915 13.2158 28.0196 13.358C28.0244 13.3631 28.0271 13.37 28.0271 13.3771C28.0271 13.3842 28.0244 13.3911 28.0196 13.3962C28.0145 13.4 28.0083 13.402 28.0018 13.402C27.9955 13.402 27.9893 13.4 27.9841 13.3962C27.8311 13.2717 27.6909 13.1322 27.5657 12.9796C27.4426 12.8248 27.3337 12.6592 27.2404 12.4847C27.1465 12.311 27.0676 12.1295 27.0046 11.9422C26.9434 11.7564 26.8955 11.5665 26.8611 11.3738C26.8595 11.3641 26.8618 11.3543 26.8673 11.3463C26.8728 11.3382 26.8813 11.3327 26.891 11.3309C26.8989 11.3296 26.9071 11.3311 26.9142 11.335C26.9213 11.3389 26.9269 11.3449 26.9301 11.3523ZM26.2348 11.7205L26.4473 12.2574L26.685 12.7783C26.7721 12.9474 26.8697 13.1111 26.9766 13.2685C27.087 13.4267 27.2062 13.5785 27.3337 13.7233C27.336 13.7256 27.3377 13.7283 27.3389 13.7312C27.3401 13.7342 27.3408 13.7374 27.3408 13.7406C27.3408 13.7437 27.3403 13.747 27.3389 13.7499C27.3377 13.7529 27.3358 13.7556 27.3337 13.7578C27.3291 13.7615 27.3236 13.7635 27.3178 13.7635C27.312 13.7635 27.3064 13.7615 27.3019 13.7578C27.1472 13.6356 27.0059 13.4973 26.8806 13.345C26.7571 13.1904 26.6484 13.0243 26.5563 12.8492C26.4629 12.6749 26.3853 12.4928 26.3243 12.3048C26.2651 12.1185 26.219 11.9281 26.1864 11.7353C26.1853 11.7285 26.1869 11.7215 26.1909 11.7157C26.1948 11.7099 26.201 11.706 26.2077 11.7047C26.2134 11.704 26.219 11.7052 26.2239 11.708C26.2287 11.711 26.2326 11.7153 26.2348 11.7205Z" fill="#7D4F21"/>
</svg>
