<svg width="48" height="48" viewBox="0 0 48 48" fill="none" xmlns="http://www.w3.org/2000/svg">
<path d="M29.1402 37.9761L29.1627 37.8456L29.3143 36.9641H28.4198H19.5809H18.6865L18.8382 37.8456C18.8382 37.8456 18.8518 37.9251 18.8606 37.9761C19.2912 40.4863 21.4537 42.3101 23.9998 42.3101C26.5464 42.3101 28.7097 40.4866 29.1402 37.9761Z" fill="white" stroke="#223948" stroke-width="1.26932"/>
<path d="M38.4506 31.0832L38.4386 31.0731C37.6851 30.4472 37.1028 29.9549 36.6716 29.1261C36.2387 28.2939 35.9241 27.0473 35.9241 24.887V21.3557C35.9241 16.0943 32.4196 11.4482 27.4551 9.94449C27.5065 9.70837 27.5325 9.4671 27.5325 9.22219C27.5325 7.27395 25.9484 5.69012 23.9999 5.69012C22.0516 5.69012 20.4678 7.2741 20.4678 9.22219C20.4678 9.46711 20.4939 9.70837 20.5452 9.94451C15.5806 11.4482 12.0763 16.0943 12.0763 21.3557V24.887C12.0763 27.0473 11.7617 28.2939 11.3288 29.1261C10.8975 29.9549 10.3155 30.4474 9.56191 31.0731L9.55005 31.0829C9.51573 31.1114 9.48152 31.14 9.4474 31.1686C8.60082 31.8805 8.17334 32.956 8.17334 34.0621V35.8615C8.17334 36.4372 8.64007 36.904 9.21581 36.904H38.7845C39.3602 36.904 39.827 36.4372 39.827 35.8615V34.0595C39.827 32.9553 39.4007 31.8818 38.5557 31.171C38.5208 31.1416 38.4858 31.1123 38.4506 31.0832Z" fill="white" stroke="#223948" stroke-width="1.26932"/>
</svg>
