<svg width="48" height="48" viewBox="0 0 48 48" fill="none" xmlns="http://www.w3.org/2000/svg">
<path d="M17.9689 43.2771C18.4437 43.2771 18.8719 43.0317 19.1145 42.6195L32.9846 19.0255C33.2333 18.6011 33.2361 18.0735 32.9921 17.6472C32.7481 17.2213 32.2917 16.9566 31.8008 16.9566H27.088L32.8762 6.98163C33.1452 6.51812 33.1466 5.94108 32.8786 5.47615C32.611 5.01123 32.1117 4.72247 31.5747 4.72247H21.6327C20.88 4.72247 20.2233 5.23168 20.0354 5.96087L14.8689 26.0366C14.7709 26.42 14.8538 26.8176 15.0945 27.1294C15.3371 27.4403 15.7017 27.6198 16.0955 27.6198H20.6181L16.6829 41.5827C16.5689 41.9878 16.6471 42.4122 16.9001 42.7462C17.1521 43.0783 17.5511 43.2771 17.9689 43.2771Z" fill="white"/>
<path d="M31.5754 4C32.3706 4.0002 33.1085 4.42648 33.505 5.11543L33.5744 5.24603C33.8785 5.86591 33.8773 6.59528 33.5721 7.21332L33.5015 7.34392L28.3444 16.2332H31.8013C32.5512 16.2333 33.2464 16.6373 33.6191 17.2874L33.685 17.4122C33.9902 18.0395 33.9643 18.7842 33.6086 19.3912L19.7375 42.9858C19.3659 43.6172 18.7016 44 17.9691 44C17.3246 44 16.7125 43.6951 16.3242 43.1834C15.9326 42.6664 15.8133 42.0065 15.9877 41.3867L19.6634 28.3429H16.0959C15.4776 28.3429 14.9034 28.0591 14.5251 27.5745L14.5228 27.571C14.1465 27.0835 14.0155 26.4574 14.1686 25.8579L19.3351 5.78021L19.3939 5.58725C19.7244 4.64327 20.618 4 21.633 4H31.5754ZM21.633 5.44488C21.2633 5.44488 20.9343 5.66389 20.787 5.99318L20.7353 6.14143L15.5688 26.2144L15.57 26.2156C15.5273 26.3827 15.5616 26.5513 15.6664 26.6874C15.7733 26.8227 15.9279 26.8968 16.0959 26.8968H21.573L17.3784 41.7786C17.325 41.9687 17.3621 42.1584 17.4761 42.3092L17.5749 42.4116C17.685 42.502 17.8257 42.5539 17.9691 42.5539C18.1861 42.5539 18.378 42.4456 18.4915 42.2527L32.3614 18.6594L32.4002 18.5829C32.4669 18.4237 32.4671 18.2432 32.4025 18.084L32.3649 18.0064C32.2496 17.8054 32.0326 17.6794 31.8013 17.6793H25.8323L32.2507 6.61913L32.2966 6.52618C32.3752 6.33596 32.3758 6.12002 32.2978 5.92964L32.2519 5.83669C32.1135 5.59627 31.8536 5.44508 31.5754 5.44488H21.633Z" fill="#223948"/>
</svg>
