<svg width="48" height="48" viewBox="0 0 48 48" fill="none" xmlns="http://www.w3.org/2000/svg">
<path d="M34.2329 10.9764V7.46218C34.2329 6.32048 33.3144 5.39496 32.1727 5.39496C27.09 5.39496 15.0749 5.39497 10.2472 5.39497C9.10551 5.39498 8.18604 6.3205 8.18604 7.46219V34.9561C8.18604 36.0978 9.11156 37.0233 10.2533 37.0233H13.7675" fill="#CCEFFE"/>
<path d="M34.2329 10.9764V7.46218C34.2329 6.32048 33.3144 5.39496 32.1727 5.39496C27.09 5.39496 15.0749 5.39497 10.2472 5.39497C9.10551 5.39498 8.18604 6.3205 8.18604 7.46219V34.9561C8.18604 36.0978 9.11156 37.0233 10.2533 37.0233H13.7675" stroke="#223948" stroke-width="1.3052" stroke-linejoin="round"/>
<path d="M39.814 13.0438C39.814 11.9021 38.8885 10.9766 37.7468 10.9766H15.8343C14.6926 10.9766 13.7671 11.9021 13.7671 13.0438V40.5378C13.7671 41.6795 14.6926 42.605 15.8343 42.605H37.7468C38.8885 42.605 39.814 41.6795 39.814 40.5378V13.0438Z" fill="#CCEFFE" stroke="#223948" stroke-width="1.3052" stroke-linejoin="round"/>
<rect x="20.2358" y="21.1664" width="13.1088" height="2.17534" rx="0.528156" fill="#223948"/>
<rect x="20.2358" y="28.3791" width="13.1088" height="2.17534" rx="0.528156" fill="#223948"/>
</svg>
