<svg xmlns="http://www.w3.org/2000/svg" width="400" height="400" viewBox="0 0 400 400"><defs><style>.\31 6f56484-7bf5-40a2-872c-37c9fc518093{fill:#a97c50;}.\33 4cf7629-5f5f-42d6-b564-f25ab3e303aa{fill:#414042;}.\35 0c44ed3-2ccf-48a1-9cb7-b0c4022a5378{fill:#916136;}.\31 f67602e-fd67-4c0c-83a7-c369179dc9f9{fill:#42250d;}.\32 b1efa1c-05c6-4628-b232-7ca1743496e6{fill:#9b7753;}.\36 7dc124d-dd16-4203-b61c-6ed363423c1d{fill:#603913;}.\31 a1fe726-d7cb-49b2-8ae2-1167bbafc3a7{fill:#636362;}.\37 37a2888-c820-42f6-b2cf-118b3badb498{fill:#c49a6c;}.b74c0761-9d59-4037-9ef3-fe54fb9e06b9{fill:#633b1a;}.be0f632a-31cf-44cb-850f-824d99bee770{fill:#939598;}.\39 538086e-27f0-42be-9298-8579fa25d36d{fill:#bcbec0;}.c4c5f957-1d80-4d02-8b8e-f4534dc5e81b{fill:none;stroke:#414042;stroke-miterlimit:10;stroke-width:3px;}.\34 7d0d34a-a6c1-421e-ae08-d9eda6e0d138{fill:#231f20;opacity:0.25;}.\33 32ea847-59ff-49e9-9567-bb5f0b9fc019{fill:#b78358;}</style></defs><title>Swords</title><g id="ab8445ff-4702-4d98-9149-4cbece482f7a" data-name="Swords"><g id="0f4acbec-11d9-48ee-be44-481e84cf1bd8" data-name="Layer 7"><path class="16f56484-7bf5-40a2-872c-37c9fc518093" d="M322,353.72a6,6,0,0,1-1.7-.25l-47.75-14.23-72.37-72.37L127.8,339.24,80,353.47a6,6,0,0,1-1.7.25,6.58,6.58,0,0,1-5.22-2.7,6.21,6.21,0,0,1-1-5.52l14.23-47.75,72.37-72.37-36-36-16.51,16.51a8.27,8.27,0,0,1-11.69,0L77.66,189.05a6.12,6.12,0,0,1-1.76-6.25c1.06-3.42,4.79-5.27,7.94-5.86L94.16,175a1.26,1.26,0,0,0,.66-.35l14.74-14.74-49.7-49.7a9.86,9.86,0,0,1-12.06-1.44L34.71,95.7a9.84,9.84,0,0,1,0-13.89l22-22a9.84,9.84,0,0,1,13.89,0L83.67,72.92A9.84,9.84,0,0,1,85.11,85l49.7,49.7,14.74-14.74a1.26,1.26,0,0,0,.35-.66L151.83,109c.91-4.83,4-8.2,7.58-8.2a6.32,6.32,0,0,1,4.53,2l16.78,16.78a8.28,8.28,0,0,1,0,11.69l-16.58,16.58,36,36,36-36-16.58-16.58a8.27,8.27,0,0,1,0-11.69l16.78-16.78a6.32,6.32,0,0,1,4.53-2c3.55,0,6.67,3.37,7.58,8.2l1.94,10.31a1.27,1.27,0,0,0,.35.66l14.74,14.74L315.24,85a9.85,9.85,0,0,1,1.44-12.06l13.09-13.09a9.84,9.84,0,0,1,13.89,0l22,22a9.83,9.83,0,0,1,0,13.89l-13.09,13.09a9.86,9.86,0,0,1-12.06,1.44l-49.69,49.7,14.74,14.74a1.26,1.26,0,0,0,.66.35l10.32,1.94c3.14.59,6.88,2.44,7.94,5.86a6.13,6.13,0,0,1-1.76,6.25l-16.78,16.78a8.27,8.27,0,0,1-11.69,0l-16.51-16.51-36,36L314,297.75l14.23,47.75a6.21,6.21,0,0,1-1,5.52A6.57,6.57,0,0,1,322,353.72Z"/><path class="34cf7629-5f5f-42d6-b564-f25ab3e303aa" d="M336.72,60.46a6.3,6.3,0,0,1,4.47,1.84l22,22a6.34,6.34,0,0,1,0,8.94l-13.09,13.09a6.34,6.34,0,0,1-8.94,0l-.84-.84-54.45,54.45,17.21,17.21a4.77,4.77,0,0,0,2.49,1.31l10.31,1.94c3.77.71,7.06,3.48,4.35,6.19l-16.78,16.78a4.77,4.77,0,0,1-6.74,0l-19-19-41,41,74.22,74.22,14,46.91a3.08,3.08,0,0,1-2.91,3.71,2.45,2.45,0,0,1-.7-.1l-46.91-14-74.22-74.22L126,336.14,79,350.11a2.45,2.45,0,0,1-.7.1,3.08,3.08,0,0,1-2.91-3.71l14-46.91,74.22-74.22-41-41-19,19a4.77,4.77,0,0,1-6.74,0L80.14,186.58c-2.71-2.71.59-5.48,4.35-6.19l10.31-1.94a4.77,4.77,0,0,0,2.49-1.31l17.21-17.21L60.06,105.47l-.84.84a6.34,6.34,0,0,1-8.94,0L37.19,93.22a6.34,6.34,0,0,1,0-8.94l22-22a6.34,6.34,0,0,1,8.94,0L81.19,75.4a6.34,6.34,0,0,1,0,8.94l-.84.84,54.45,54.45L152,122.42a4.77,4.77,0,0,0,1.31-2.49l1.94-10.31c.53-2.8,2.2-5.35,4.14-5.35a2.92,2.92,0,0,1,2.06,1L178.24,122a4.77,4.77,0,0,1,0,6.74l-19.06,19.06,41,41,41-41-19.06-19.06a4.77,4.77,0,0,1,0-6.74l16.78-16.78a2.92,2.92,0,0,1,2.06-1c1.94,0,3.61,2.54,4.14,5.35L247,119.92a4.76,4.76,0,0,0,1.31,2.49l17.21,17.21L320,85.18l-.84-.84a6.34,6.34,0,0,1,0-8.94l13.09-13.09a6.3,6.3,0,0,1,4.47-1.84m0-7a13.23,13.23,0,0,0-9.42,3.89L314.21,70.45A13.34,13.34,0,0,0,311,84.23l-45.5,45.5L253.77,118,252,108.32c-1.24-6.61-5.67-11.05-11-11.06a9.75,9.75,0,0,0-7,3l-16.78,16.78a11.77,11.77,0,0,0,0,16.64l14.11,14.11-31.1,31.1-31.1-31.1,14.11-14.11a11.77,11.77,0,0,0,0-16.64l-16.78-16.78a9.75,9.75,0,0,0-7-3c-5.35,0-9.77,4.44-11,11.05L146.58,118l-11.77,11.77-45.5-45.5a13.34,13.34,0,0,0-3.17-13.78L73.05,57.36a13.34,13.34,0,0,0-18.84,0l-22,22a13.34,13.34,0,0,0,0,18.84l13.09,13.09a13.23,13.23,0,0,0,9.42,3.89,13.38,13.38,0,0,0,4.37-.73l45.49,45.49L92.83,171.7l-9.63,1.81c-4.15.78-9.12,3.36-10.64,8.26a9.64,9.64,0,0,0,2.63,9.76L92,208.31a11.77,11.77,0,0,0,16.64,0l14-14,31.1,31.1L84.46,294.65l-1.25,1.25-.51,1.7-14,46.91a9.67,9.67,0,0,0,1.6,8.61,10.09,10.09,0,0,0,8,4.11,9.45,9.45,0,0,0,2.7-.39l46.9-14,1.7-.51,1.25-1.25,69.27-69.27,69.27,69.27,1.25,1.25,1.7.51,46.91,14a9.45,9.45,0,0,0,2.7.39,10.09,10.09,0,0,0,8-4.11,9.67,9.67,0,0,0,1.6-8.61l-14-46.91-.51-1.7-1.25-1.25-69.27-69.27,31.1-31.1,14,14a11.77,11.77,0,0,0,16.64,0l16.78-16.78a9.64,9.64,0,0,0,2.63-9.76c-1.52-4.91-6.49-7.49-10.64-8.26l-9.64-1.81-11.77-11.77,45.49-45.49a13.38,13.38,0,0,0,4.37.73,13.23,13.23,0,0,0,9.42-3.89l13.09-13.09a13.34,13.34,0,0,0,0-18.84l-22-22a13.23,13.23,0,0,0-9.42-3.89Z"/><path class="50c44ed3-2ccf-48a1-9cb7-b0c4022a5378" d="M54.75,111.93a9.11,9.11,0,0,1-6.48-2.68l-14-14a9.18,9.18,0,0,1,0-13l22.9-22.9a9.18,9.18,0,0,1,13,0l14,14a9.18,9.18,0,0,1,0,13l-22.9,22.9A9.11,9.11,0,0,1,54.75,111.93Z"/><path class="1f67602e-fd67-4c0c-83a7-c369179dc9f9" d="M63.63,60.19a5.65,5.65,0,0,1,4,1.65l14,14a5.68,5.68,0,0,1,0,8l-22.9,22.9a5.68,5.68,0,0,1-8,0l-14-14a5.68,5.68,0,0,1,0-8l22.9-22.9a5.65,5.65,0,0,1,4-1.65m0-7a12.58,12.58,0,0,0-9,3.7L31.77,79.8a12.68,12.68,0,0,0,0,17.91l14,14a12.68,12.68,0,0,0,17.91,0l22.9-22.9a12.68,12.68,0,0,0,0-17.91l-14-14a12.58,12.58,0,0,0-9-3.7Z"/><path class="50c44ed3-2ccf-48a1-9cb7-b0c4022a5378" d="M100.29,208.25a8.21,8.21,0,0,1-5.84-2.42L77.66,189.05a6.12,6.12,0,0,1-1.76-6.25c1.06-3.42,4.79-5.27,7.94-5.86L94.16,175a1.26,1.26,0,0,0,.66-.35l54.72-54.72a1.26,1.26,0,0,0,.35-.66L151.83,109c.91-4.83,4-8.2,7.58-8.2a6.32,6.32,0,0,1,4.53,2l16.78,16.78a8.27,8.27,0,0,1,0,11.69l-74.58,74.58A8.21,8.21,0,0,1,100.29,208.25Z"/><path class="1f67602e-fd67-4c0c-83a7-c369179dc9f9" d="M159.4,104.26a2.92,2.92,0,0,1,2.06,1L178.24,122a4.77,4.77,0,0,1,0,6.74l-74.58,74.58a4.77,4.77,0,0,1-6.74,0L80.14,186.58c-2.71-2.71.59-5.48,4.35-6.19l10.31-1.94a4.77,4.77,0,0,0,2.49-1.31L152,122.42a4.77,4.77,0,0,0,1.31-2.49l1.94-10.31c.53-2.8,2.2-5.35,4.14-5.35m0-7c-5.35,0-9.77,4.44-11,11.06L146.58,118,92.83,171.7l-9.63,1.81c-4.15.78-9.12,3.36-10.64,8.26a9.64,9.64,0,0,0,2.63,9.76L92,208.31a11.77,11.77,0,0,0,16.64,0l74.58-74.58a11.78,11.78,0,0,0,0-16.64l-16.78-16.78a9.75,9.75,0,0,0-7-3Z"/><path class="50c44ed3-2ccf-48a1-9cb7-b0c4022a5378" d="M345.6,111.93a9.1,9.1,0,0,1-6.48-2.68l-22.9-22.9a9.18,9.18,0,0,1,0-13l14-14a9.18,9.18,0,0,1,13,0l22.9,22.9a9.18,9.18,0,0,1,0,13l-14,14A9.1,9.1,0,0,1,345.6,111.93Z"/><path class="1f67602e-fd67-4c0c-83a7-c369179dc9f9" d="M336.72,60.19a5.65,5.65,0,0,1,4,1.65l22.9,22.9a5.68,5.68,0,0,1,0,8l-14,14a5.68,5.68,0,0,1-8,0l-22.9-22.9a5.68,5.68,0,0,1,0-8l14-14a5.65,5.65,0,0,1,4-1.65m0-7a12.58,12.58,0,0,0-9,3.7l-14,14a12.68,12.68,0,0,0,0,17.91l22.9,22.9a12.68,12.68,0,0,0,17.91,0l14-14a12.68,12.68,0,0,0,0-17.91l-22.9-22.9a12.58,12.58,0,0,0-9-3.7Z"/><path class="50c44ed3-2ccf-48a1-9cb7-b0c4022a5378" d="M300.06,208.25a8.21,8.21,0,0,1-5.84-2.42l-74.58-74.58a8.26,8.26,0,0,1,0-11.69l16.78-16.78a6.32,6.32,0,0,1,4.53-2c3.55,0,6.67,3.37,7.58,8.2l1.94,10.31a1.25,1.25,0,0,0,.35.66l54.72,54.72a1.26,1.26,0,0,0,.66.35l10.32,1.94c3.14.59,6.88,2.44,7.94,5.86a6.13,6.13,0,0,1-1.76,6.25l-16.78,16.78A8.21,8.21,0,0,1,300.06,208.25Z"/><path class="1f67602e-fd67-4c0c-83a7-c369179dc9f9" d="M240.95,104.26c1.94,0,3.61,2.54,4.14,5.35L247,119.92a4.77,4.77,0,0,0,1.31,2.49l54.72,54.72a4.77,4.77,0,0,0,2.49,1.31l10.31,1.94c3.77.71,7.06,3.48,4.35,6.19l-16.78,16.78a4.77,4.77,0,0,1-6.74,0l-74.58-74.58a4.77,4.77,0,0,1,0-6.74l16.78-16.78a2.92,2.92,0,0,1,2.06-1m0-7a9.75,9.75,0,0,0-7,3l-16.78,16.78a11.78,11.78,0,0,0,0,16.64l74.58,74.58a11.77,11.77,0,0,0,16.64,0l16.78-16.78a9.64,9.64,0,0,0,2.63-9.76c-1.52-4.91-6.49-7.49-10.64-8.26l-9.63-1.81L253.77,118,252,108.32c-1.24-6.61-5.67-11.06-11-11.06Z"/><rect class="2b1efa1c-05c6-4628-b232-7ca1743496e6" x="77.3" y="73.2" width="35.7" height="94.15" transform="translate(-57.18 102.51) rotate(-45)"/><path class="67dc124d-dd16-4203-b61c-6ed363423c1d" d="M74.49,79.31l61.63,61.63-20.3,20.3L54.19,99.61l20.3-20.3m0-9.9-4.95,4.95-20.3,20.3-4.95,4.95,4.95,4.95,61.63,61.63,4.95,4.95,4.95-4.95,20.3-20.3,4.95-4.95L141.06,136,79.44,74.36l-4.95-4.95Z"/><rect class="2b1efa1c-05c6-4628-b232-7ca1743496e6" x="258.12" y="102.42" width="94.15" height="35.7" transform="translate(4.34 251.03) rotate(-45)"/><path class="67dc124d-dd16-4203-b61c-6ed363423c1d" d="M325.86,79.31l20.3,20.3-61.63,61.63-20.3-20.3,61.63-61.63m0-9.9-4.95,4.95L259.28,136l-4.95,4.95,4.95,4.95,20.3,20.3,4.95,4.95,4.95-4.95,61.63-61.63,4.95-4.95-4.95-4.95-20.3-20.3-4.95-4.95Z"/></g><path class="1a1fe726-d7cb-49b2-8ae2-1167bbafc3a7" d="M322,352.22a4.45,4.45,0,0,1-1.27-.19l-47.39-14.12L115.07,179.64l39.37-39.37L312.71,298.54l14.12,47.39a4.72,4.72,0,0,1-.81,4.19A5.07,5.07,0,0,1,322,352.22Z"/><path class="34cf7629-5f5f-42d6-b564-f25ab3e303aa" d="M154.44,143.1l156.5,156.5,14,46.91a3.08,3.08,0,0,1-2.91,3.71,2.45,2.45,0,0,1-.7-.1l-46.91-14L117.9,179.64l36.54-36.54m0-5.66-2.83,2.83-36.54,36.54-2.83,2.83,2.83,2.83L271.57,339l.72.72,1,.29,46.91,14a6.45,6.45,0,0,0,1.84.27,7.08,7.08,0,0,0,5.62-2.9,6.7,6.7,0,0,0,1.13-6l-14-46.91-.29-1-.72-.72-156.5-156.5-2.83-2.83Z"/><rect class="737a2888-c820-42f6-b2cf-118b3badb498" x="92.64" y="91.61" width="23.04" height="67.34" transform="translate(-58.08 110.34) rotate(-45)"/><path class="b74c0761-9d59-4037-9ef3-fe54fb9e06b9" d="M54.75,110.93A8.11,8.11,0,0,1,49,108.54l-14-14A8.18,8.18,0,0,1,35,83l22.9-22.9a8.18,8.18,0,0,1,11.55,0l14,14a8.18,8.18,0,0,1,0,11.55l-22.9,22.9A8.11,8.11,0,0,1,54.75,110.93Z"/><path class="1f67602e-fd67-4c0c-83a7-c369179dc9f9" d="M63.63,60.19a5.65,5.65,0,0,1,4,1.65l14,14a5.68,5.68,0,0,1,0,8l-22.9,22.9a5.68,5.68,0,0,1-8,0l-14-14a5.68,5.68,0,0,1,0-8l22.9-22.9a5.65,5.65,0,0,1,4-1.65m0-5a10.59,10.59,0,0,0-7.54,3.12l-22.9,22.9a10.68,10.68,0,0,0,0,15.08l14,14a10.68,10.68,0,0,0,15.08,0l22.9-22.9a10.68,10.68,0,0,0,0-15.08l-14-14a10.59,10.59,0,0,0-7.54-3.12Z"/><path class="b74c0761-9d59-4037-9ef3-fe54fb9e06b9" d="M100.29,207.25a7.22,7.22,0,0,1-5.14-2.13L78.37,188.35a5,5,0,0,1-1.51-5.24c.93-3,4.44-4.66,7.17-5.17L94.34,176a2.26,2.26,0,0,0,1.18-.62l54.72-54.72a2.26,2.26,0,0,0,.62-1.19l1.94-10.31c.67-3.56,3-7.39,6.59-7.39a5.34,5.34,0,0,1,3.82,1.73L180,120.27a7.27,7.27,0,0,1,0,10.27l-74.58,74.58A7.22,7.22,0,0,1,100.29,207.25Z"/><path class="1f67602e-fd67-4c0c-83a7-c369179dc9f9" d="M159.4,104.26a2.92,2.92,0,0,1,2.06,1L178.24,122a4.77,4.77,0,0,1,0,6.74l-74.58,74.58a4.77,4.77,0,0,1-6.74,0L80.14,186.58c-2.71-2.71.59-5.48,4.35-6.19l10.31-1.94a4.77,4.77,0,0,0,2.49-1.31L152,122.42a4.77,4.77,0,0,0,1.31-2.49l1.94-10.31c.53-2.8,2.2-5.35,4.14-5.35m0-5h0c-4.29,0-8,3.88-9,9.42l-1.92,10.24L93.81,173.55l-10.24,1.92c-3.57.67-7.84,2.83-9.1,6.89a7.58,7.58,0,0,0,2.13,7.75l16.78,16.78a9.77,9.77,0,0,0,13.81,0l74.58-74.58a9.78,9.78,0,0,0,0-13.81L165,101.72a7.79,7.79,0,0,0-5.59-2.46Z"/><path class="67dc124d-dd16-4203-b61c-6ed363423c1d" d="M103,151.22l-2.5-2.5a60.14,60.14,0,0,1,10.13-13,58.76,58.76,0,0,1,12.91-10.05l2.5,2.5a89.17,89.17,0,0,0-12.91,10.05A91.11,91.11,0,0,0,103,151.22Z"/><path class="67dc124d-dd16-4203-b61c-6ed363423c1d" d="M88.08,136.32l-2.5-2.5a60.14,60.14,0,0,1,10.13-13,58.76,58.76,0,0,1,12.91-10.05l2.5,2.5a89.17,89.17,0,0,0-12.91,10.05A91.11,91.11,0,0,0,88.08,136.32Z"/><path class="67dc124d-dd16-4203-b61c-6ed363423c1d" d="M74.56,122.8l-2.5-2.5a60.14,60.14,0,0,1,10.13-13A58.76,58.76,0,0,1,95.1,97.26l2.5,2.5a89.17,89.17,0,0,0-12.91,10.05A91.11,91.11,0,0,0,74.56,122.8Z"/><path class="be0f632a-31cf-44cb-850f-824d99bee770" d="M324.92,346.5l-14-46.91-137-137-36.54,36.54,137,137,46.91,14A3,3,0,0,0,324.92,346.5Z"/><path class="9538086e-27f0-42be-9298-8579fa25d36d" d="M324.1,349.29h0a2.85,2.85,0,0,0,.82-2.79l-14-46.91-137-137-18.27,18.27S323.37,350,324.1,349.29Z"/><line class="c4c5f957-1d80-4d02-8b8e-f4534dc5e81b" x1="173.92" y1="162.57" x2="137.38" y2="199.12"/><path class="1a1fe726-d7cb-49b2-8ae2-1167bbafc3a7" d="M78.34,353.72a6.58,6.58,0,0,1-5.22-2.7,6.21,6.21,0,0,1-1-5.51l14.23-47.75,159.6-159.6,41.49,41.49L127.8,339.24,80,353.47a6,6,0,0,1-1.7.25Z"/><path class="34cf7629-5f5f-42d6-b564-f25ab3e303aa" d="M245.9,143.1l36.54,36.54L126,336.14,79,350.11a2.45,2.45,0,0,1-.7.1,3.08,3.08,0,0,1-2.91-3.71l14-46.91L245.9,143.1m0-9.9L241,138.15,84.46,294.65l-1.25,1.25-.51,1.7-14,46.91a9.67,9.67,0,0,0,1.6,8.61,10.09,10.09,0,0,0,8,4.11,9.45,9.45,0,0,0,2.7-.39l46.91-14,1.7-.51,1.25-1.25,156.5-156.5,4.95-4.95-4.95-4.95-36.54-36.54-4.95-4.95Z"/><rect class="737a2888-c820-42f6-b2cf-118b3badb498" x="260.78" y="110.96" width="75.83" height="21.63" transform="translate(1.38 246.87) rotate(-45)"/><path class="b74c0761-9d59-4037-9ef3-fe54fb9e06b9" d="M345.6,110.93a8.11,8.11,0,0,1-5.78-2.39l-22.9-22.9a8.18,8.18,0,0,1,0-11.55l14-14a8.18,8.18,0,0,1,11.55,0L365.39,83a8.18,8.18,0,0,1,0,11.55l-14,14A8.11,8.11,0,0,1,345.6,110.93Z"/><path class="1f67602e-fd67-4c0c-83a7-c369179dc9f9" d="M336.72,60.19a5.65,5.65,0,0,1,4,1.65l22.9,22.9a5.68,5.68,0,0,1,0,8l-14,14a5.68,5.68,0,0,1-8,0l-22.9-22.9a5.68,5.68,0,0,1,0-8l14-14a5.65,5.65,0,0,1,4-1.65m0-5a10.59,10.59,0,0,0-7.54,3.12l-14,14a10.68,10.68,0,0,0,0,15.08l22.9,22.9a10.68,10.68,0,0,0,15.08,0l14-14a10.68,10.68,0,0,0,0-15.08l-22.9-22.9a10.59,10.59,0,0,0-7.54-3.12Z"/><path class="b74c0761-9d59-4037-9ef3-fe54fb9e06b9" d="M300.06,207.25a7.22,7.22,0,0,1-5.14-2.13l-74.58-74.58a7.27,7.27,0,0,1,0-10.27l16.78-16.78a5.34,5.34,0,0,1,3.82-1.73c3.58,0,5.92,3.83,6.59,7.39l1.94,10.31a2.26,2.26,0,0,0,.63,1.19l54.72,54.72A2.26,2.26,0,0,0,306,176l10.32,1.94c2.73.51,6.24,2.17,7.17,5.17a5,5,0,0,1-1.51,5.24L305.2,205.13A7.22,7.22,0,0,1,300.06,207.25Z"/><path class="1f67602e-fd67-4c0c-83a7-c369179dc9f9" d="M240.95,104.26c1.94,0,3.61,2.54,4.14,5.35L247,119.92a4.77,4.77,0,0,0,1.31,2.49l54.72,54.72a4.77,4.77,0,0,0,2.49,1.31l10.31,1.94c3.77.71,7.06,3.48,4.35,6.19l-16.78,16.78a4.77,4.77,0,0,1-6.74,0l-74.58-74.58a4.77,4.77,0,0,1,0-6.74l16.78-16.78a2.92,2.92,0,0,1,2.06-1m0-5a7.79,7.79,0,0,0-5.59,2.46L218.58,118.5a9.78,9.78,0,0,0,0,13.81l74.58,74.58a9.77,9.77,0,0,0,13.81,0l16.78-16.78a7.58,7.58,0,0,0,2.13-7.75c-1.25-4.06-5.52-6.22-9.1-6.89l-10.24-1.92-54.62-54.62L250,108.69c-1-5.55-4.76-9.42-9-9.42Z"/><path class="67dc124d-dd16-4203-b61c-6ed363423c1d" d="M297.37,151.22l2.5-2.5a60.14,60.14,0,0,0-10.13-13,58.76,58.76,0,0,0-12.91-10.05l-2.5,2.5a89.17,89.17,0,0,1,12.91,10.05A91.11,91.11,0,0,1,297.37,151.22Z"/><path class="67dc124d-dd16-4203-b61c-6ed363423c1d" d="M312.26,136.32l2.5-2.5a60.14,60.14,0,0,0-10.13-13,58.76,58.76,0,0,0-12.91-10.05l-2.5,2.5a89.17,89.17,0,0,1,12.91,10.05A91.11,91.11,0,0,1,312.26,136.32Z"/><path class="67dc124d-dd16-4203-b61c-6ed363423c1d" d="M325.79,122.8l2.5-2.5a60.14,60.14,0,0,0-10.13-13,58.76,58.76,0,0,0-12.91-10.05l-2.5,2.5a89.17,89.17,0,0,1,12.91,10.05A91.11,91.11,0,0,1,325.79,122.8Z"/><path class="be0f632a-31cf-44cb-850f-824d99bee770" d="M75.43,346.5l14-46.91,137-137L263,199.12l-137,137L79,350.11A3,3,0,0,1,75.43,346.5Z"/><path class="9538086e-27f0-42be-9298-8579fa25d36d" d="M76.25,349.29h0a2.85,2.85,0,0,1-.82-2.79l14-46.91,137-137,18.27,18.27S77,350,76.25,349.29Z"/><line class="c4c5f957-1d80-4d02-8b8e-f4534dc5e81b" x1="226.43" y1="162.57" x2="262.97" y2="199.12"/><rect class="47d0d34a-a6c1-421e-ae08-d9eda6e0d138" x="202.74" y="240.05" width="51.68" height="27.47" transform="translate(-112.5 235.96) rotate(-45)"/><path class="50c44ed3-2ccf-48a1-9cb7-b0c4022a5378" d="M65.25,60.45a5.66,5.66,0,0,0-5.62,1.39l-22.9,22.9a5.68,5.68,0,0,0,0,8l10.41,10.41a5.66,5.66,0,0,0,5.62-1.39l22.9-22.9a5.68,5.68,0,0,0,0-8Z"/><path class="50c44ed3-2ccf-48a1-9cb7-b0c4022a5378" d="M159.47,104.27c-2-.06-3.67,2.51-4.2,5.34l-1.94,10.31a4.77,4.77,0,0,1-1.31,2.49L97.29,177.14a4.77,4.77,0,0,1-2.49,1.31l-10.31,1.94c-3.77.71-7.06,3.48-4.35,6.19l13,13a4.75,4.75,0,0,0,4.49-1.25l74.58-74.58a4.77,4.77,0,0,0,0-6.74Z"/><path class="50c44ed3-2ccf-48a1-9cb7-b0c4022a5378" d="M314.21,181.58a3.39,3.39,0,0,0,.86-1.34l-9.53-1.79a4.77,4.77,0,0,1-2.49-1.31l-3.75-3.75a4.76,4.76,0,0,1-2.25-1.25l-54.72-54.72a4.76,4.76,0,0,1-1.31-2.49L239.16,105c-.09.08-.18.14-.27.23L222.11,122a4.77,4.77,0,0,0,0,6.74l70.82,70.82a4.75,4.75,0,0,0,4.49-1.25Z"/><path class="50c44ed3-2ccf-48a1-9cb7-b0c4022a5378" d="M338.33,60.45a5.66,5.66,0,0,0-5.62,1.39l-14,14a5.68,5.68,0,0,0,0,8L338,103.17a5.66,5.66,0,0,0,5.62-1.39l14-14a5.68,5.68,0,0,0,0-8Z"/><rect class="332ea847-59ff-49e9-9567-bb5f0b9fc019" x="43.79" y="71.9" width="22.24" height="5.5" rx="2.75" ry="2.75" transform="translate(-36.7 60.69) rotate(-45)"/><rect class="332ea847-59ff-49e9-9567-bb5f0b9fc019" x="113.3" y="142" width="48.15" height="5.5" rx="2.75" ry="2.75" transform="translate(-62.12 139.54) rotate(-45)"/><rect class="332ea847-59ff-49e9-9567-bb5f0b9fc019" x="330.41" y="68.88" width="22.24" height="5.5" rx="2.75" ry="2.75" transform="translate(532.37 363.78) rotate(-135)"/><rect class="332ea847-59ff-49e9-9567-bb5f0b9fc019" x="234.98" y="138.98" width="48.15" height="5.5" rx="2.75" ry="2.75" transform="translate(342.02 425.12) rotate(-135)"/></g></svg>