<svg width="48" height="48" viewBox="0 0 48 48" fill="none" xmlns="http://www.w3.org/2000/svg">
<path d="M13.6851 30.0169C11.1917 30.0169 9.16309 27.9883 9.16309 25.4949V10.0339C9.16309 7.54045 11.1917 5.51227 13.6851 5.51227H34.3148C36.8082 5.51227 38.8368 7.54086 38.8368 10.0339V25.4949C38.8368 27.9883 36.8082 30.0169 34.3148 30.0169H13.6851Z" fill="#FFFFFE"/>
<path d="M34.3148 6.52454C36.2531 6.52454 37.8246 8.09599 37.8246 10.0343V25.4949C37.8246 27.4332 36.2531 29.0046 34.3148 29.0046H13.6852C11.7469 29.0046 10.1754 27.4332 10.1754 25.4949V10.0343C10.1754 8.09599 11.7469 6.52454 13.6852 6.52454H34.3148ZM34.3148 4.5H13.6852C10.6334 4.5 8.15088 6.98249 8.15088 10.0343V25.4949C8.15088 28.5467 10.6334 31.0292 13.6852 31.0292H34.3148C37.3666 31.0292 39.8491 28.5467 39.8491 25.4949V10.0343C39.8491 6.98249 37.367 4.5 34.3148 4.5Z" fill="#223948"/>
<path d="M14.0233 27.0676C12.6722 27.0676 11.5732 25.9687 11.5732 24.6175V10.9113C11.5732 9.56016 12.6722 8.46124 14.0233 8.46124H33.7533C35.1049 8.46124 36.2034 9.56016 36.2034 10.9113V24.6175C36.2034 25.9687 35.1049 27.0676 33.7533 27.0676H14.0233Z" fill="#FFFFFE"/>
<path d="M33.7536 9.06909C34.7716 9.06909 35.5964 9.8943 35.5964 10.9118V24.618C35.5964 25.6359 34.7716 26.4607 33.7536 26.4607H14.0237C13.0057 26.4607 12.1805 25.6359 12.1805 24.618V10.9118C12.1805 9.8943 13.0057 9.06909 14.0237 9.06909H33.7536ZM33.7536 7.85437H14.0237C12.3376 7.85437 10.9658 9.22579 10.9658 10.9118V24.618C10.9658 26.304 12.3376 27.6754 14.0237 27.6754H33.7536C35.4393 27.6754 36.8111 26.304 36.8111 24.618V10.9118C36.8107 9.22579 35.4393 7.85437 33.7536 7.85437Z" fill="#223948"/>
<path d="M17.0307 17.1356C15.4564 17.1356 14.1753 15.8544 14.1753 14.2802C14.1753 12.7059 15.4564 11.4247 17.0307 11.4247C18.605 11.4247 19.8861 12.7059 19.8861 14.2802C19.8861 15.8544 18.605 17.1356 17.0307 17.1356Z" fill="#FFFFFE"/>
<path d="M17.0311 12.0321C18.2726 12.0321 19.2792 13.0387 19.2792 14.2802C19.2792 15.5216 18.273 16.5282 17.0311 16.5282C15.7893 16.5282 14.7831 15.522 14.7831 14.2802C14.7831 13.0387 15.7893 12.0321 17.0311 12.0321ZM17.0311 10.8174C15.1216 10.8174 13.5684 12.3706 13.5684 14.2802C13.5684 16.1897 15.1216 17.7429 17.0311 17.7429C18.9407 17.7429 20.4939 16.1897 20.4939 14.2802C20.4939 12.3706 18.9407 10.8174 17.0311 10.8174Z" fill="#223948"/>
<path d="M30.4057 17.1356C28.8306 17.1356 27.5503 15.8544 27.5503 14.2802C27.5503 12.7059 28.8306 11.4247 30.4057 11.4247C31.98 11.4247 33.2611 12.7059 33.2611 14.2802C33.2611 15.8544 31.98 17.1356 30.4057 17.1356Z" fill="#FFFFFE"/>
<path d="M30.4057 12.0321C31.6472 12.0321 32.6538 13.0387 32.6538 14.2802C32.6538 15.5216 31.6476 16.5282 30.4057 16.5282C29.1651 16.5282 28.1581 15.522 28.1581 14.2802C28.1581 13.0387 29.1651 12.0321 30.4057 12.0321ZM30.4057 10.8174C28.4966 10.8174 26.9434 12.3706 26.9434 14.2802C26.9434 16.1897 28.4966 17.7429 30.4057 17.7429C32.3153 17.7429 33.8685 16.1897 33.8685 14.2802C33.8685 12.3706 32.3153 10.8174 30.4057 10.8174Z" fill="#223948"/>
<path d="M18.3229 24.351C17.292 24.351 16.626 23.6732 16.626 22.6245C16.626 21.5754 17.2925 20.8976 18.3229 20.8976H18.7279V24.351H18.3229Z" fill="#223948"/>
<path d="M18.3226 21.3025V23.9461C17.4261 23.9461 17.0305 23.3513 17.0305 22.6241C17.0305 21.8969 17.4261 21.3025 18.3226 21.3025ZM19.1324 20.4927H18.3226C17.0653 20.4927 16.2207 21.3495 16.2207 22.6245C16.2207 23.8996 17.0653 24.7564 18.3226 24.7564H19.1324V20.4927ZM29.0174 24.351V20.8976H29.4223C30.4528 20.8976 31.1185 21.5754 31.1185 22.6245C31.1185 23.6732 30.4524 24.351 29.4223 24.351H29.0174Z" fill="#223948"/>
<path d="M29.4221 21.3025C30.319 21.3025 30.7142 21.8973 30.7142 22.6245C30.7142 23.3517 30.3178 23.9465 29.4221 23.9465V21.3025ZM29.4221 20.4927H28.6123V24.756H29.4221C30.6794 24.756 31.524 23.8992 31.524 22.6241C31.5244 21.3491 30.6802 20.4927 29.4221 20.4927Z" fill="#223948"/>
<path d="M20.3213 20.8976H23.2816V24.351H20.3213V20.8976Z" fill="#223948"/>
<path d="M22.8764 21.3025V23.9461H20.7263V21.3025H22.8764ZM23.6862 20.4927H19.9165V24.756H23.6862V20.4927Z" fill="#223948"/>
<path d="M24.8105 20.8976H27.7712V24.351H24.8105V20.8976Z" fill="#223948"/>
<path d="M27.3651 21.3025V23.9461H25.2146V21.3025H27.3651ZM28.1749 20.4927H24.4048V24.756H28.1749V20.4927Z" fill="#223948"/>
<path d="M8.63323 42.4881C8.04085 42.4881 7.48977 42.2221 7.1213 41.7589C6.75284 41.2957 6.6176 40.6984 6.75081 40.1214L9.03449 31.6981C9.22845 30.8535 10.0034 30.238 10.908 30.238H37.0942C37.9988 30.238 38.773 30.8539 38.9766 31.7358L41.2417 40.0842C41.3846 40.6984 41.2494 41.2949 40.8805 41.7589C40.5116 42.2229 39.9605 42.4885 39.3682 42.4885L8.63323 42.4881Z" fill="#FFFFFE"/>
<path d="M37.093 31.2503C37.5218 31.2503 37.8935 31.5455 37.9899 31.9634L40.2639 40.3494C40.3967 40.926 39.959 41.4759 39.3674 41.4759H8.63287C8.0413 41.4759 7.6036 40.926 7.73641 40.3494L10.0108 31.9634C10.1067 31.5459 10.4784 31.2503 10.9072 31.2503H37.093ZM37.093 29.2258H10.9072C9.54432 29.2258 8.37616 30.1421 8.0494 31.4605L5.78272 39.819L5.7726 39.8558L5.7641 39.8931C5.56084 40.7725 5.76653 41.682 6.32854 42.3889C6.89055 43.0951 7.73033 43.5 8.63287 43.5H39.3674C40.2699 43.5 41.1105 43.0951 41.6717 42.3889C42.2333 41.682 42.4394 40.7725 42.2362 39.8931L42.2277 39.8558L42.2176 39.819L39.9501 31.4601C39.6245 30.1425 38.4556 29.2258 37.093 29.2258Z" fill="#223948"/>
<path d="M11.0453 39.2764C10.8226 39.2764 10.6169 39.1752 10.4813 38.9991C10.3452 38.8221 10.3003 38.5982 10.357 38.3832L11.5271 33.6207C11.6114 33.302 11.894 33.0842 12.2167 33.0842H35.7831C36.1059 33.0842 36.3881 33.302 36.4711 33.6146L37.6441 38.3905C37.6992 38.5986 37.6538 38.8225 37.5178 38.9995C37.3825 39.176 37.1768 39.2772 36.9537 39.2772L11.0453 39.2764Z" fill="#FFFFFE"/>
<path d="M35.7833 33.489C35.9226 33.489 36.0445 33.5825 36.0793 33.7169L37.2511 38.4863C37.3025 38.6807 37.1564 38.8714 36.9555 38.8714H11.0451C10.8438 38.8714 10.6972 38.6807 10.7491 38.4863L11.9209 33.7169C11.9382 33.6516 11.9767 33.5938 12.0303 33.5525C12.0839 33.5113 12.1496 33.489 12.2173 33.489H35.7833ZM35.7833 32.6791H12.2169C11.7107 32.6791 11.2665 33.0209 11.1374 33.5104L9.96233 38.2936C9.87649 38.6175 9.94735 38.969 10.1603 39.2463C10.3733 39.5229 10.6956 39.6816 11.0451 39.6816H36.9555C37.3045 39.6816 37.6269 39.5225 37.8406 39.2463C38.0528 38.969 38.1245 38.6175 38.0346 38.2798L36.8664 33.5242C36.7332 33.0209 36.2894 32.6791 35.7833 32.6791Z" fill="#223948"/>
<path d="M22.0503 39.0238L22.441 33.0842H25.9313L26.3225 39.0238H22.0503Z" fill="#FFFFFE"/>
<path d="M25.5526 33.489L25.8899 38.6187H22.4826L22.8198 33.489H25.5526ZM26.311 32.6791H22.0619L22.0121 33.4355L21.6744 38.5657L21.6177 39.4285H26.7556L26.6981 38.5657L26.3608 33.4355L26.311 32.6791Z" fill="#223948"/>
<path d="M14.1597 39.0238L15.3319 33.0842H18.859L18.0776 39.0238H14.1597Z" fill="#FFFFFE"/>
<path d="M18.3966 33.489L17.7221 38.6187H14.652L15.6643 33.489H18.3966ZM19.3202 32.6791H14.9982L14.8695 33.3318L13.8576 38.462L13.6665 39.4285H18.4323L18.525 38.7244L19.2 33.5946L19.3202 32.6791Z" fill="#223948"/>
<path d="M30.2409 39.0238L29.4595 33.0842H32.9866L34.1592 39.0238H30.2409Z" fill="#FFFFFE"/>
<path d="M32.6536 33.489L33.6658 38.6187H30.5958L29.9212 33.489H32.6536ZM33.3188 32.6791H28.998L29.1183 33.5946L29.7937 38.7244L29.8864 39.4285H34.6522L34.4615 38.462L33.4492 33.3318L33.3188 32.6791Z" fill="#223948"/>
<path d="M14.3217 39.0236C14.1119 39.0236 13.9164 38.9305 13.7852 38.7665C13.7204 38.6863 13.6745 38.5925 13.651 38.4921C13.6274 38.3917 13.6268 38.2873 13.6491 38.1867L13.8617 37.2189C13.9317 36.9003 14.2083 36.678 14.5343 36.678H33.4657C33.7868 36.678 34.0694 36.9055 34.1383 37.2189L34.3504 38.1875C34.3954 38.3915 34.3464 38.6029 34.2152 38.7665C34.084 38.9301 33.8876 39.024 33.6783 39.024L14.3217 39.0236Z" fill="#FFFFFE"/>
<path d="M33.4665 37.0834C33.5993 37.0834 33.7147 37.1761 33.7434 37.3061L33.956 38.2742C33.9949 38.4516 33.8605 38.6196 33.6787 38.6196H14.3216C14.1402 38.6196 14.0054 38.452 14.0443 38.2742L14.2569 37.3061C14.2852 37.1765 14.4006 37.0834 14.5342 37.0834H33.4665ZM33.4665 36.2736H14.5346C14.0248 36.2736 13.5758 36.6347 13.4661 37.1324L13.2539 38.1005C13.1822 38.4261 13.2612 38.7613 13.4697 39.0205C13.6782 39.2796 13.9888 39.429 14.3216 39.429H33.6787C34.0111 39.429 34.3221 39.28 34.5306 39.0205C34.7391 38.7609 34.8177 38.4256 34.746 38.1005L34.5338 37.1324C34.4249 36.6347 33.9755 36.2736 33.4665 36.2736Z" fill="#223948"/>
</svg>
