<svg xmlns="http://www.w3.org/2000/svg" width="48" height="48" fill="none"><g clip-path="url(#a)"><path fill="#EAC300" d="m6.512 13.858 17.24-9.748 17.24 10.07v20.301l-17.24 9.909-17.24-10.15z"/><path fill="#FDF977" d="m7.157 14.26 16.595-9.344 16.596 9.667v19.495l-16.596 9.506-16.595-9.747z"/><path fill="#EAC300" d="M8.768 15.227 23.752 6.77l15.065 8.7v17.643L23.752 41.65 8.768 32.87z"/><path fill="#AF9559" d="M11.346 16.839 23.752 9.99l13.05 7.492.242 14.823-12.647 7.17-12.407-7.09-.644-1.047z"/><path fill="#EAC300" d="m9.574 15.872 14.42-8.217 14.823 8.539v16.918L23.752 41.65l-14.34-8.378z"/><path fill="#EAC300" d="M11.346 16.839 23.752 9.99l13.05 7.492v14.742l-12.486 6.929-12.326-6.767-.644-1.048z"/><path fill="#FFE65F" d="M11.346 16.839 23.752 9.99l12.406 7.09V31.5l-12.245 6.928-12.567-7.09z"/><path fill="#FDF977" d="M11.346 16.839 23.752 9.99l12.406 7.09V31.5l-12.245 6.928-12.567-7.09z"/><path stroke="#E8C949" stroke-miterlimit="10" stroke-width="1.128" d="M29.391 20.867c-.241-.162-1.933-1.29-4.028-.645-1.37.483-2.9 1.692-2.98 3.464-.08 2.014 1.772 3.625 3.464 4.028 1.53.322 2.82-.242 3.303-.483l2.094 3.544c-.644.484-2.82 2.175-6.203 2.175s-5.639-1.691-6.203-2.175c-.403-.322-3.464-2.578-3.625-6.767-.161-4.511 3.303-7.17 3.625-7.33a10.714 10.714 0 0 1 13.05.563z"/><path fill="#EAC300" d="M29.391 20.867c-.241-.162-1.933-1.29-4.028-.645-1.37.483-2.9 1.692-2.98 3.464-.08 2.014 1.772 3.625 3.464 4.028 1.53.322 2.82-.242 3.303-.483l2.094 3.544c-.644.484-2.9 2.175-6.203 2.175-3.383 0-5.639-1.691-6.203-2.175-.403-.322-3.464-2.578-3.625-6.767-.161-4.511 3.303-7.17 3.625-7.33a10.714 10.714 0 0 1 13.05.563z"/><path fill="#EAC300" d="M29.391 20.867c-.241-.162-1.933-1.29-4.028-.645-1.37.483-3.142 1.772-3.222 3.464-.242 2.82 1.611 4.27 3.625 4.834 1.45.402 3.142-.323 3.625-.564.645 1.208 1.128 1.611 1.773 2.82-.564.483-2.82 2.174-6.123 2.174-3.383 0-4.995-1.61-5.64-2.094-1.127-1.209-2.98-2.175-3.302-5.962-.322-3.947 1.853-6.283 2.578-7.008a10.15 10.15 0 0 1 12.728 0z"/><path stroke="#FFFEB4" stroke-miterlimit="10" stroke-width=".564" d="M29.391 20.867c-.241-.162-1.933-1.29-4.028-.645-1.37.483-2.9 1.692-2.98 3.464-.08 2.014 1.772 3.625 3.464 4.028 1.53.322 2.82-.242 3.303-.483l2.094 3.544c-.644.484-2.82 2.175-6.203 2.175s-5.639-1.691-6.203-2.175c-.403-.322-3.464-2.578-3.625-6.767-.161-4.511 3.303-7.17 3.625-7.33a10.714 10.714 0 0 1 13.05.563z"/></g><defs><clipPath id="a"><path fill="#fff" d="M6.512 4.11H41v40.28H6.512z"/></clipPath></defs></svg>