<svg width="18" height="18" viewBox="0 0 18 18" fill="none" xmlns="http://www.w3.org/2000/svg">
<path d="M16.75 8.75C16.75 13.1683 13.1683 16.75 8.75 16.75M16.75 8.75C16.75 4.33179 13.1683 0.75 8.75 0.75M16.75 8.75H0.75M8.75 16.75C4.33179 16.75 0.75 13.1683 0.75 8.75M8.75 16.75C10.7306 16.75 12.3362 13.1683 12.3362 8.75C12.3362 4.33179 10.7306 0.75 8.75 0.75M8.75 16.75C6.76942 16.75 5.16379 13.1683 5.16379 8.75C5.16379 4.33179 6.76942 0.75 8.75 0.75M8.75 0.75C4.33179 0.75 0.75 4.33179 0.75 8.75" stroke="white" stroke-width="1.5"/>
</svg>
