<svg width="47" height="40" viewBox="0 0 47 40" fill="none" xmlns="http://www.w3.org/2000/svg">
<path fill-rule="evenodd" clip-rule="evenodd" d="M24.4447 7.1286V11.7517H37.2619C39.3388 11.7517 41.037 13.4398 41.037 15.5042V20.2452H46.17C46.6252 20.2452 47 20.614 47 21.0702V30.6815C47 31.1339 46.629 31.5065 46.17 31.5065H41.037V36.2475C41.037 38.3119 39.3388 40 37.2619 40H9.34033C7.26343 40 5.56519 38.3119 5.56519 36.2475V31.5065H0.829997C0.371012 31.5065 0 31.1377 0 30.6853V21.0702C0 20.6178 0.371012 20.2452 0.829997 20.2452H5.56519V15.508C5.56519 13.4436 7.26343 11.7555 9.34033 11.7555H22.1575V7.1286C20.6849 6.64956 19.6254 5.27706 19.6254 3.65365C19.6254 1.63483 21.2701 0 23.3011 0C25.3321 0 26.9768 1.63483 26.9768 3.65365C26.9768 5.27706 25.9135 6.64956 24.4447 7.1286ZM15.6934 30.3165H31.3027C32.0639 30.3165 32.6873 30.9362 32.6873 31.6928V32.3391C32.6873 33.0957 32.0639 33.7154 31.3027 33.7154H15.6934C14.9323 33.7154 14.3088 33.0957 14.3088 32.3391V31.6928C14.3088 30.9324 14.9323 30.3165 15.6934 30.3165ZM30.1017 18.0933C32.1557 18.0933 33.8233 19.7472 33.8233 21.7926C33.8233 23.8342 32.1595 25.4881 30.1017 25.4881C28.0439 25.4881 26.384 23.8342 26.384 21.7926C26.3801 19.7472 28.0478 18.0933 30.1017 18.0933ZM16.8983 18.0933C18.9522 18.0933 20.616 19.7472 20.616 21.7926C20.616 23.8342 18.9522 25.4881 16.8983 25.4881C14.8443 25.4881 13.1805 23.8342 13.1805 21.7926C13.1805 19.7472 14.8443 18.0933 16.8983 18.0933Z" fill="white"/>
</svg>
