<svg width="31" height="40" viewBox="0 0 31 40" fill="none" xmlns="http://www.w3.org/2000/svg">
<path d="M10.6088 20.3311C10.9466 20.3803 11.079 20.5299 11.3216 20.7585C12.6061 21.7802 14.3522 22.0495 15.9465 21.9358C17.2601 21.75 18.5786 21.3284 19.5357 20.3713C20.284 20.3512 21.0369 20.5243 21.7617 20.6934C21.864 20.7173 21.9664 20.7411 22.0718 20.7657C24.6537 21.394 27.3935 22.4135 28.8504 24.7866C29.6396 26.1354 29.9457 27.6039 30.1767 29.1312C30.1881 29.2037 30.1994 29.2762 30.2111 29.3509C30.3308 30.1877 30.3601 31.0311 30.3953 31.8748C30.4004 31.9931 30.4004 31.9931 30.4057 32.1139C30.426 32.5986 30.4399 33.0831 30.4477 33.5682C30.4511 33.733 30.4562 33.8978 30.4628 34.0625C30.5236 35.6134 30.5236 35.6134 30.0095 36.1961C29.8661 36.3248 29.7189 36.4496 29.567 36.5682C29.4777 36.6491 29.3883 36.73 29.2963 36.8134C28.1508 37.6704 26.8691 38.2352 25.5177 38.6848C25.4404 38.7108 25.3632 38.7368 25.2836 38.7636C24.1585 39.1349 23.0281 39.4009 21.8595 39.5879C21.6915 39.6147 21.6915 39.6147 21.5201 39.6422C21.2281 39.6863 20.936 39.7273 20.6431 39.765C20.5181 39.7811 20.3933 39.7979 20.2685 39.8153C18.7708 40.0196 17.265 40.0015 15.7568 39.9972C15.3884 39.9962 15.0201 39.9968 14.6518 39.9979C13.0818 40.0017 11.5247 39.9873 9.96456 39.7892C9.79767 39.7683 9.79767 39.7683 9.6274 39.747C9.35541 39.7097 9.08492 39.6678 8.81418 39.6224C8.71914 39.6066 8.62409 39.5909 8.52616 39.5747C6.34691 39.2035 4.26796 38.6616 2.32605 37.5805C2.23458 37.5296 2.14312 37.4787 2.04888 37.4263C1.30462 36.9814 0.510701 36.376 0.0252934 35.6479C0.00708987 35.3678 -0.000428607 35.0963 0.000847824 34.8161C0.000592485 34.7328 0.000337147 34.6495 7.40712e-05 34.5636C-0.000309616 34.2924 0.000852519 34.0211 0.0022858 33.7498C0.00254067 33.6578 0.00279555 33.5658 0.00305815 33.471C0.00762456 32.0734 0.0351825 30.6865 0.209354 29.298C0.223412 29.1849 0.223412 29.1849 0.237754 29.0695C0.555128 26.6471 1.35598 24.4072 3.33838 22.8561C4.35249 22.1573 5.42664 21.6764 6.59395 21.2916C6.68861 21.2602 6.78328 21.2288 6.88081 21.1965C8.10596 20.799 9.33569 20.5167 10.6088 20.3311Z" fill="white"/>
<path d="M15.1355 0.00431236C15.3423 0.00460377 15.5489 0.00243164 15.7556 0.0001109C17.7588 -0.00868306 19.6448 0.504437 21.1176 1.92568C22.7583 3.58545 23.2244 6.03237 23.2358 8.29034C23.2363 8.37351 23.2368 8.45668 23.2374 8.54237C23.2382 8.71754 23.2388 8.89271 23.2392 9.06788C23.2401 9.33099 23.2429 9.59404 23.2458 9.85715C23.254 11.2405 23.1213 12.5059 22.6016 13.803C22.5696 13.8846 22.5376 13.9661 22.5045 14.0501C21.5999 16.2915 20.0151 18.1284 17.7765 19.1049C16.0737 19.7955 14.1899 19.725 12.505 19.0384C11.4672 18.5943 10.6684 17.9348 9.87269 17.1505C9.78336 17.063 9.78336 17.063 9.69223 16.9737C8.50884 15.7181 7.77845 14.0214 7.38788 12.3651C7.37142 12.3002 7.35497 12.2354 7.33802 12.1686C7.15647 11.3478 7.17282 10.518 7.17477 9.68176C7.17505 9.4233 7.1729 9.16494 7.17056 8.90649C7.16282 6.65302 7.44305 3.9712 9.04442 2.24203C9.10469 2.17346 9.16495 2.10489 9.22704 2.03425C10.7974 0.343606 12.9368 -0.00213954 15.1355 0.00431236Z" fill="white"/>
</svg>
