<svg width="48" height="48" viewBox="0 0 48 48" fill="none" xmlns="http://www.w3.org/2000/svg">
<path fill-rule="evenodd" clip-rule="evenodd" d="M15.2171 12.5256C14.4103 9.29832 17.3335 6.37508 20.5609 7.18191C23.2324 7.8498 25.1068 10.2505 25.1068 13.0043L25.1066 17.0715H21.0392C18.2854 17.0715 15.885 15.1972 15.2171 12.5256ZM20.0257 9.32244C18.4143 8.9196 16.9548 10.3791 17.3577 11.9905C17.78 13.6799 19.2979 14.8651 21.0392 14.8651H22.9002L22.9004 13.0043C22.9004 11.263 21.7151 9.7448 20.0257 9.32244Z" fill="white"/>
<path d="M25.1453 12.7458C25.0359 10.1669 23.2962 7.93852 20.821 7.20682L20.5714 7.13877C17.3117 6.32385 14.3588 9.27686 15.1737 12.5365L15.2418 12.786C15.9978 15.3435 18.3512 17.1154 21.0385 17.1155H25.1505V13.0046L25.1453 12.7458ZM17.3998 11.9797C17.0052 10.4008 18.4357 8.97018 20.0147 9.36487L20.3219 9.4556C21.8264 9.97072 22.8563 11.3912 22.8563 13.0046V14.8213H21.0385C19.4253 14.8212 18.0056 13.7914 17.4906 12.2869L17.3998 11.9797ZM19.5538 11.2084C19.3668 11.1617 19.1967 11.3317 19.2434 11.5188L19.2888 11.6704C19.5335 12.385 20.1919 12.88 20.9509 12.9159C20.9149 12.1571 20.4199 11.4985 19.7053 11.2538L19.5538 11.2084ZM27.0508 19.0158H21.0385C17.5063 19.0156 14.4135 16.6867 13.4199 13.3252L13.3302 12.9974C12.1673 8.34584 16.3808 4.13232 21.0323 5.2952L21.3613 5.3849C24.7225 6.37893 27.0508 9.47264 27.0508 13.0046V19.0158Z" fill="#223948"/>
<path fill-rule="evenodd" clip-rule="evenodd" d="M32.8712 12.5256C33.6781 9.29832 30.7548 6.37508 27.5274 7.18191C24.8559 7.8498 22.9814 10.2505 22.9814 13.0043L22.9816 17.0715H27.0491C29.8029 17.0715 32.2034 15.1972 32.8712 12.5256ZM28.0626 9.32244C29.6741 8.9196 31.1334 10.3791 30.7307 11.9905C30.3083 13.6799 28.7904 14.8651 27.0491 14.8651H25.188L25.1878 13.0043C25.1878 11.263 26.3731 9.7448 28.0626 9.32244Z" fill="white"/>
<path d="M27.4907 5.20138C31.8209 4.42208 35.63 8.23195 34.8505 12.5623L34.7577 12.9974C33.8734 16.5345 30.6945 19.0158 27.0484 19.0158H21.0372L21.0361 13.0046C21.0361 9.3585 23.5184 6.17952 27.0556 5.29521L27.4907 5.20138ZM28.2207 9.33395C29.6908 9.06926 30.9837 10.3622 30.719 11.8323L30.687 11.9797C30.2696 13.6495 28.7693 14.8214 27.0484 14.8214H25.2316V13.0046C25.232 11.284 26.4036 9.78229 28.0733 9.36488L28.2207 9.33395ZM28.5341 11.2085C27.7392 11.4072 27.1736 12.1043 27.135 12.9159C27.9474 12.8783 28.6446 12.3144 28.8435 11.5188L28.8517 11.4497C28.8485 11.3151 28.7377 11.2045 28.6032 11.2012L28.5341 11.2085ZM22.9374 17.1155H27.0484C29.8223 17.1155 32.2413 15.2276 32.9142 12.5365L32.9791 12.2313C33.5252 9.19652 30.8554 6.52706 27.8206 7.07382L27.5165 7.13878C24.8253 7.81159 22.9374 10.2306 22.9374 13.0046V17.1155Z" fill="#223948"/>
<path fill-rule="evenodd" clip-rule="evenodd" d="M30.6492 11.9909C31.0522 10.3796 29.5926 8.92003 27.9813 9.32285C26.2918 9.74521 25.1067 11.2631 25.1067 13.0044V14.8655H26.9676C28.7092 14.8655 30.227 13.6802 30.6492 11.9909ZM32.7898 12.526C33.5966 9.29865 30.6733 6.37551 27.4461 7.18234L32.7898 12.526ZM32.7898 12.526C32.1221 15.1976 29.7217 17.0719 26.9676 17.0719H22.9004V13.0044C22.9004 10.2506 24.7746 7.85023 27.4461 7.18234" fill="white"/>
<path fill-rule="evenodd" clip-rule="evenodd" d="M15.2171 12.5256C14.4103 9.29832 17.3335 6.37508 20.5609 7.18191C23.2324 7.8498 25.1068 10.2507 25.1068 13.0044L25.1066 17.0715H21.0392C18.2854 17.0715 15.885 15.1972 15.2171 12.5256ZM20.0257 9.32244C18.4143 8.9196 16.9548 10.3791 17.3577 11.9905C17.78 13.6799 19.2979 14.8651 21.0392 14.8651H22.9002L22.9004 13.0044C22.9004 11.2632 21.7151 9.7448 20.0257 9.32244Z" fill="white"/>
<path d="M32.6726 13.8909H15.328H15.263C13.7413 13.8909 12.5088 13.8909 11.5382 14.0214C10.528 14.1572 9.6685 14.4489 8.98462 15.1328C8.30072 15.8167 8.00899 16.6762 7.87316 17.6864C7.74267 18.657 7.74269 19.8895 7.74271 21.4112V21.4762V21.6379C7.74271 21.6488 7.74271 21.6602 7.74269 21.6717C7.74257 21.8378 7.74243 22.0406 7.766 22.2158C7.79466 22.429 7.87208 22.7293 8.1273 22.9845C8.38254 23.2397 8.68279 23.3172 8.89588 23.3459C9.07115 23.3693 9.27401 23.3691 9.44011 23.3691C9.45158 23.3691 9.46286 23.3691 9.47396 23.3691H22.7417C22.7818 23.3691 22.8214 23.3663 22.8604 23.3614H25.1393C25.1783 23.3663 25.2179 23.3691 25.2582 23.3691H38.5265C38.5377 23.3691 38.549 23.3691 38.5603 23.3691C38.7264 23.3691 38.9293 23.3693 39.1047 23.3459C39.3177 23.3172 39.618 23.2397 39.8731 22.9845C40.1285 22.7293 40.2059 22.429 40.2345 22.2158C40.258 22.0406 40.258 21.8378 40.2578 21.6717C40.2578 21.6602 40.2578 21.6488 40.2578 21.6379V21.4762V21.4112C40.2578 19.8895 40.2578 18.657 40.1273 17.6864C39.9915 16.6762 39.6997 15.8167 39.016 15.1328C38.332 14.4489 37.4725 14.1572 36.4624 14.0214C35.4917 13.8909 34.2592 13.8909 32.7374 13.8909H32.6726Z" fill="white"/>
<path d="M39.3071 21.4117C39.3071 20.0587 39.3065 19.0019 39.2257 18.1607L39.1855 17.8132C39.079 17.0212 38.8801 16.4434 38.5122 15.9913L38.3441 15.8046C37.9261 15.3867 37.3949 15.1493 36.6624 15.0148L36.3356 14.9633C35.6658 14.8733 34.8468 14.8498 33.8269 14.8437L32.7371 14.8416H15.2634C13.9103 14.8416 12.8536 14.8423 12.0124 14.9231L11.6649 14.9633C10.8729 15.0698 10.2951 15.2685 9.843 15.6366L9.65637 15.8046C9.2384 16.2226 9.001 16.7538 8.86657 17.4863L8.81501 17.8132C8.69497 18.7063 8.69332 19.8655 8.69334 21.4117V21.6736C8.69322 21.8533 8.69435 21.9892 8.70778 22.0891L8.72118 22.1633C8.73758 22.2302 8.76314 22.2764 8.79955 22.3128L8.83976 22.3458C8.88368 22.3747 8.94074 22.3926 9.02123 22.4036H9.02226C9.12278 22.417 9.25874 22.419 9.43985 22.419H22.7397L22.7995 22.4108H25.1999L25.2597 22.419H38.5606C38.6512 22.419 38.7306 22.419 38.7998 22.417L38.9782 22.4036C39.0865 22.389 39.1523 22.3613 39.2009 22.3128H39.202L39.2339 22.2726C39.263 22.2287 39.2817 22.1711 39.2927 22.0891C39.3061 21.9886 39.3073 21.8513 39.3071 21.6725V21.4117ZM41.2084 21.6705L41.2043 21.9695C41.2006 22.087 41.1932 22.2167 41.1765 22.3417V22.3427C41.1338 22.6598 41.0061 23.1936 40.5444 23.6553L40.5455 23.6563C40.1991 24.0027 39.8111 24.1605 39.5051 24.2358L39.2308 24.2873C39.1059 24.3041 38.976 24.3125 38.8586 24.3162L38.5606 24.3193H25.2587C25.2178 24.3193 25.1778 24.3136 25.1391 24.3111V24.3121H22.8604V24.3111C22.8218 24.3135 22.7824 24.3193 22.7418 24.3193H9.43985C9.32661 24.3193 9.14666 24.3206 8.95833 24.3069L8.76964 24.2873C8.49171 24.25 8.04733 24.1483 7.63133 23.8141L7.45502 23.6563C7.10889 23.3101 6.95081 22.9228 6.87555 22.617L6.824 22.3427C6.79036 22.0927 6.79192 21.8233 6.79203 21.6715V21.4117C6.79201 19.9146 6.79033 18.6077 6.93123 17.5595L6.99722 17.143C7.17516 16.1744 7.53407 15.2399 8.31288 14.4612L8.48197 14.3003C9.3395 13.529 10.366 13.2201 11.4113 13.0795L11.8165 13.0331C12.7892 12.9391 13.9534 12.9403 15.2634 12.9403H32.7371L33.8238 12.9424C34.8718 12.9484 35.8031 12.9738 36.5892 13.0795L37.0058 13.1455C37.9743 13.3234 38.9087 13.6824 39.6876 14.4612L39.8484 14.6302C40.6197 15.4878 40.9287 16.5142 41.0692 17.5595L41.1156 17.9648C41.2097 18.9374 41.2084 20.1017 41.2084 21.4117V21.6705Z" fill="#223948"/>
<path d="M37.1967 23.8194H25.9846C25.9735 23.8194 25.9623 23.8194 25.9508 23.8194C25.7847 23.8192 25.5819 23.8192 25.4067 23.8427C25.1935 23.8713 24.8932 23.9489 24.638 24.2041C24.3828 24.4592 24.3053 24.7595 24.2766 24.9725C24.2532 25.1479 24.2532 25.3508 24.2534 25.5168C24.2534 25.5284 24.2534 25.5395 24.2534 25.5507V40.2178C24.2534 40.229 24.2534 40.2403 24.2534 40.2517C24.2532 40.4177 24.2532 40.6206 24.2766 40.796C24.3053 41.009 24.3828 41.3093 24.638 41.5644C24.8932 41.8198 25.1935 41.8972 25.4067 41.9258C25.5819 41.9493 25.7847 41.9493 25.9508 41.9491C25.9623 41.9491 25.9735 41.9491 25.9846 41.9491H31.3427H31.4076C32.9294 41.9491 34.1618 41.9491 35.1325 41.8186C36.1426 41.6828 37.0022 41.391 37.6861 40.7073C38.3699 40.0233 38.6616 39.1638 38.7975 38.1537C38.9279 37.183 38.9279 35.9505 38.9279 34.4287V34.3639V25.5507C38.9279 25.5395 38.9279 25.5284 38.9279 25.5168C38.9281 25.3508 38.9283 25.1479 38.9046 24.9725C38.876 24.7595 38.7986 24.4592 38.5433 24.2041C38.2881 23.9489 37.9878 23.8713 37.7748 23.8427C37.5994 23.8192 37.3966 23.8192 37.2305 23.8194C37.2192 23.8194 37.2078 23.8194 37.1967 23.8194ZM23.752 40.2178V25.5507C23.752 25.5395 23.752 25.5284 23.752 25.5168C23.7522 25.3508 23.7524 25.1479 23.7287 24.9725C23.7001 24.7595 23.6227 24.4592 23.3674 24.2041C23.1122 23.9489 22.8119 23.8713 22.5989 23.8427C22.4237 23.8192 22.2208 23.8192 22.0546 23.8194C22.0432 23.8194 22.0319 23.8194 22.0208 23.8194H10.8094C10.7983 23.8194 10.787 23.8194 10.7756 23.8194C10.6095 23.8192 10.4066 23.8192 10.2313 23.8427C10.0182 23.8713 9.71799 23.9489 9.46275 24.2041C9.20751 24.4592 9.13009 24.7595 9.10145 24.9725C9.07788 25.1479 9.07802 25.3508 9.07814 25.5168C9.07814 25.5284 9.07816 25.5395 9.07816 25.5507V34.3639V34.4287C9.07812 35.9505 9.0781 37.183 9.20861 38.1537C9.34442 39.1638 9.63617 40.0233 10.3201 40.7073C11.0039 41.391 11.8635 41.6828 12.8736 41.8186C13.8443 41.9491 15.0768 41.9491 16.5984 41.9491H16.6634H22.0208C22.0319 41.9491 22.0432 41.9491 22.0546 41.9491C22.2208 41.9493 22.4237 41.9493 22.5989 41.9258C22.8119 41.8972 23.1122 41.8198 23.3674 41.5644C23.6227 41.3093 23.7001 41.009 23.7287 40.796C23.7524 40.6206 23.7522 40.4177 23.752 40.2517C23.752 40.2403 23.752 40.229 23.752 40.2178Z" fill="white"/>
<path d="M22.8018 25.5155L22.7997 25.2773C22.7977 25.2086 22.7941 25.1498 22.7874 25.1V25.0989C22.7764 25.0174 22.7575 24.9603 22.7286 24.9164L22.6956 24.8762C22.6469 24.8275 22.5805 24.7991 22.4719 24.7845V24.7834C22.3714 24.7701 22.2341 24.7698 22.0553 24.77H10.7743C10.6846 24.7699 10.6054 24.77 10.5361 24.7721L10.3577 24.7845C10.2493 24.7991 10.1838 24.8275 10.135 24.8762C10.0987 24.9126 10.073 24.9582 10.0566 25.0247L10.0432 25.0989C10.0297 25.1994 10.0287 25.3362 10.0288 25.5165V34.4292L10.0309 35.518C10.037 36.5378 10.0605 37.3568 10.1505 38.0266L10.202 38.3535C10.3364 39.086 10.5739 39.6171 10.9918 40.0352L11.1784 40.2032C11.6306 40.5712 12.2083 40.77 13.0004 40.8765L13.3478 40.9167C14.1891 40.9975 15.2458 40.9992 16.5988 40.9992H22.0553L22.2935 40.9961C22.3625 40.9941 22.4217 40.9904 22.4719 40.9838L22.5461 40.9704C22.6129 40.954 22.6593 40.9294 22.6956 40.893V40.892L22.7286 40.8528C22.7577 40.8088 22.7764 40.7512 22.7874 40.6693L22.7997 40.4909C22.8018 40.4219 22.8019 40.3428 22.8018 40.2527V25.5155ZM25.2032 40.2527C25.203 40.4314 25.2052 40.5685 25.2187 40.6693L25.2321 40.7435C25.2484 40.81 25.274 40.8555 25.3104 40.892V40.893L25.3496 40.925C25.3936 40.9542 25.4509 40.9727 25.5331 40.9838L25.7115 40.9961C25.7808 40.9982 25.86 40.9993 25.9497 40.9992H31.4072C32.9535 40.9992 34.1125 40.9965 35.0057 40.8765L35.3325 40.825C36.0651 40.6905 36.5962 40.4531 37.0142 40.0352L37.1823 39.8496C37.5505 39.3973 37.749 38.8188 37.8556 38.0266L37.8958 37.6791C37.9765 36.838 37.9772 35.7819 37.9772 34.4292V25.5155L37.9752 25.2773C37.9732 25.2086 37.9695 25.1498 37.9628 25.1V25.0989C37.9482 24.9901 37.9204 24.9246 37.8721 24.8762H37.871C37.8346 24.8398 37.7889 24.8142 37.7226 24.7979L37.6483 24.7845C37.5476 24.771 37.4105 24.7698 37.2318 24.77H25.9497C25.86 24.7699 25.7808 24.77 25.7115 24.7721L25.5331 24.7845C25.4244 24.7991 25.3591 24.8276 25.3104 24.8762C25.2738 24.9128 25.2484 24.9589 25.2321 25.0257L25.2187 25.0989C25.2052 25.1997 25.203 25.3367 25.2032 25.5155V40.2527ZM39.8786 34.4292C39.8786 35.7389 39.8797 36.9025 39.7858 37.875L39.7394 38.2803C39.5894 39.3953 39.2475 40.4886 38.3577 41.3787V41.3797C37.5789 42.1581 36.6443 42.5164 35.6759 42.6943L35.2593 42.7603C34.2111 42.9012 32.9044 42.8995 31.4072 42.8995H25.9507V42.8985C25.8359 42.8986 25.6567 42.9007 25.4692 42.8871L25.2805 42.8675C24.9713 42.826 24.4558 42.7031 24.002 42.2685C23.6648 42.5911 23.2952 42.7433 22.9998 42.816L22.7255 42.8675C22.4761 42.9009 22.2075 42.8987 22.0543 42.8985V42.8995H16.5988C15.2888 42.8995 14.1246 42.9007 13.1519 42.8067L12.7467 42.7603C11.6318 42.6104 10.5382 42.2693 9.64832 41.3797V41.3787C8.86958 40.5998 8.51057 39.6654 8.33266 38.6968L8.26668 38.2803C8.16099 37.4941 8.13558 36.5629 8.12954 35.5149L8.12748 34.4292V25.5165C8.12736 25.3646 8.12593 25.0961 8.15944 24.8463L8.211 24.5721C8.28622 24.2662 8.44393 23.8782 8.79046 23.5317C9.25209 23.0702 9.78747 22.9434 10.1051 22.9007L10.2938 22.8821C10.4813 22.8685 10.6604 22.8696 10.7753 22.8697V22.8687H22.0543V22.8697C22.1691 22.8696 22.3482 22.8685 22.5358 22.8821L22.7255 22.9007L22.9998 22.9522C23.2954 23.025 23.6649 23.1774 24.002 23.4997C24.4555 23.0656 24.9708 22.9423 25.2805 22.9007L25.4692 22.8821C25.6567 22.8685 25.8359 22.8696 25.9507 22.8697V22.8687H37.2307V22.8697C37.384 22.8696 37.6517 22.8673 37.9009 22.9007H37.902L38.1752 22.9522C38.4812 23.0275 38.8692 23.1853 39.2156 23.5317L39.2145 23.5327C39.6763 23.9943 39.8039 24.5284 39.8466 24.8453L39.8651 25.035C39.8788 25.2231 39.8787 25.4025 39.8786 25.5165V34.4292Z" fill="#223948"/>
</svg>
