<svg width="400" height="400" viewBox="0 0 400 400" fill="none" xmlns="http://www.w3.org/2000/svg">
<path d="M202.667 368C144 368 117.333 362.667 112 341.333C111.47 332.452 111.47 323.548 112 314.667V293.333C112 277.333 133.333 234.667 165.333 229.333H170.667V234.667C181.283 236.128 192.05 236.128 202.667 234.667C211.524 235.729 220.476 235.729 229.333 234.667V229.333H234.667C266.667 234.667 288 277.333 288 293.333V314.667C288.505 323.548 288.505 332.452 288 341.333C282.667 362.667 256 368 202.667 368Z" fill="white"/>
<path d="M234.667 234.667C261.333 240 282.667 277.333 282.667 293.333V341.333C282.667 352 261.333 362.667 197.333 362.667C133.333 362.667 117.333 352 117.333 341.333V293.333C117.333 277.333 138.667 240 165.333 234.667L197.333 240L234.667 234.667ZM170.667 224H165.333C133.333 229.333 106.667 272 106.667 293.333V314.667C105.885 325.319 105.885 336.014 106.667 346.667C112 368 138.667 373.333 197.333 373.333C256 373.333 288 368 293.333 346.667C294.078 336.013 294.078 325.32 293.333 314.667V293.333C293.333 272 266.667 229.333 234.667 224H229.333L224 229.333C215.132 230.19 206.202 230.19 197.333 229.333C190.231 229.842 183.102 229.842 176 229.333L170.667 224Z" fill="#223948"/>
<path d="M197.333 240C192.006 240.364 186.66 240.364 181.333 240C165.333 240 128 224 128 154.667C128 106.667 154.667 80 197.333 80C240 80 272 106.667 272 154.667C272 218.667 240 240 213.333 240C208.005 240.334 202.661 240.334 197.333 240Z" fill="white"/>
<path d="M197.333 85.3333C250.667 85.3333 266.667 117.333 266.667 154.667C266.667 208 245.333 229.333 213.333 234.667C208.007 235.048 202.66 235.048 197.333 234.667C193.78 234.836 190.22 234.836 186.667 234.667C160 229.333 133.333 208 133.333 154.667C133.333 117.333 149.333 85.3333 197.333 85.3333ZM197.333 74.6666C149.333 74.6666 122.667 101.333 122.667 154.667C122.667 229.333 165.333 245.333 181.333 245.333C186.66 245.697 192.006 245.697 197.333 245.333C202.662 245.641 208.004 245.641 213.333 245.333C245.333 240 277.333 224 277.333 154.667C277.333 101.333 250.667 74.6666 197.333 74.6666Z" fill="#223948"/>
<path d="M200 135.467C265.391 135.467 318.4 126.393 318.4 115.2C318.4 104.007 265.391 94.9333 200 94.9333C134.609 94.9333 81.6 104.007 81.6 115.2C81.6 126.393 134.609 135.467 200 135.467Z" fill="#223948"/>
<path d="M128 101.333C128 53.3333 160 16 197.333 16C234.667 16 266.667 53.3333 266.667 101.333" fill="#223948"/>
</svg>
