<svg width="48" height="48" viewBox="0 0 48 48" fill="none" xmlns="http://www.w3.org/2000/svg">
<path d="M29.4594 43.1206C28.859 43.1206 28.2939 42.887 27.8694 42.4619C11.2512 25.9345 11.1883 25.8039 11.108 25.6382C10.7837 24.9685 10.8245 22.9848 11.1 22.3798C11.1799 22.204 11.2626 22.0227 27.871 5.53686C28.2939 5.11373 28.859 4.8797 29.4596 4.8797C30.0602 4.8797 30.6251 5.11373 31.0496 5.53883L35.846 10.335C36.7225 11.2122 36.7225 12.6388 35.846 13.5156L25.3611 24.0006L35.846 34.4857C36.7225 35.3619 36.7225 36.7898 35.846 37.666L31.0496 42.4621C30.6249 42.887 30.06 43.1206 29.4594 43.1206Z" fill="#CCEFFE"/>
<path d="M29.4592 4C30.2927 4 31.0814 4.32702 31.6708 4.9169L36.4681 9.7132L36.5788 9.8296C37.6509 11.0171 37.6511 12.8336 36.5788 14.021L36.4681 14.1374L26.6036 24L36.4681 33.8636C37.6881 35.0831 37.687 37.0672 36.4671 38.2868L36.4681 38.2878L31.6718 43.0841C31.0818 43.6743 30.2926 44 29.4592 44C28.627 43.9999 27.8391 43.6744 27.2495 43.085L17.6302 33.5067C15.2853 31.1669 13.7159 29.5948 12.6631 28.5339C11.6123 27.475 11.0692 26.9184 10.7835 26.6152C10.589 26.4088 10.4734 26.2815 10.3904 26.1534L10.317 26.0218C10.1732 25.7249 10.1004 25.3621 10.0593 25.0447C10.0157 24.7078 9.99795 24.3371 10.0002 23.979C10.0024 23.6208 10.0248 23.2579 10.0679 22.9343C10.1082 22.6317 10.1754 22.2885 10.2998 22.0155C10.3879 21.822 10.5096 21.6786 10.7749 21.3934C11.0639 21.0828 11.6094 20.519 12.6621 19.4556C14.772 17.3244 18.9477 13.1555 27.2514 4.91308C27.8393 4.326 28.6271 4.00011 29.4592 4ZM29.4592 5.75937C29.0914 5.75948 28.7501 5.90064 28.4927 6.15819L28.4908 6.16105C20.1863 14.4043 16.0156 18.5682 13.912 20.6931C12.8582 21.7576 12.33 22.3027 12.062 22.5908C11.9689 22.6908 11.9155 22.7531 11.8845 22.7892C11.8782 22.8101 11.8711 22.8364 11.8636 22.8684C11.845 22.9467 11.827 23.0467 11.8111 23.1661C11.7792 23.4053 11.7605 23.6937 11.7586 23.9905C11.7568 24.2875 11.7721 24.5765 11.8035 24.8186C11.8299 25.0229 11.8647 25.1502 11.8865 25.2146C11.9184 25.251 11.9723 25.312 12.0639 25.4092C12.3319 25.6936 12.8588 26.2351 13.9111 27.2955C14.9614 28.354 16.5291 29.9234 18.8724 32.2616L28.4898 41.838L28.4917 41.8409L28.5929 41.9324C28.8367 42.1331 29.1377 42.2415 29.4592 42.2416C29.8269 42.2416 30.1682 42.1003 30.4276 41.8409L35.2239 37.0446L35.3184 36.9406C35.7263 36.4399 35.7261 35.7125 35.3184 35.2117L35.2239 35.1077L24.1172 24.001L35.2239 12.8942L35.3174 12.7902C35.7259 12.2889 35.7261 11.5621 35.3174 11.0604L35.2239 10.9564L30.4276 6.16105C30.1682 5.90122 29.8265 5.75937 29.4592 5.75937Z" fill="#223948"/>
</svg>
