<svg width="128" height="128" viewBox="0 0 128 128" fill="none" xmlns="http://www.w3.org/2000/svg">
<g filter="url(#filter0_d_6093_97145)">
<path d="M41.4181 105.105C59.8744 105.105 74.8361 100.834 74.8361 95.5661C74.8361 90.2978 59.8744 86.0269 41.4181 86.0269C22.9618 86.0269 8 90.2978 8 95.5661C8 100.834 22.9618 105.105 41.4181 105.105Z" fill="#254665"/>
</g>
<g filter="url(#filter1_d_6093_97145)">
<path d="M41.5151 101.565C52.6432 101.565 61.6642 98.0867 61.6642 93.796C61.6642 89.5054 52.6432 86.0271 41.5151 86.0271C30.3871 86.0271 21.366 89.5054 21.366 93.796C21.366 98.0867 30.3871 101.565 41.5151 101.565Z" fill="#194574" fill-opacity="0.6"/>
</g>
<g filter="url(#filter2_d_6093_97145)">
<path d="M82.5823 113.671C101.039 113.671 116 109.4 116 104.131C116 98.863 101.039 94.5923 82.5823 94.5923C64.1261 94.5923 49.1642 98.863 49.1642 104.131C49.1642 109.4 64.1261 113.671 82.5823 113.671Z" fill="#254665"/>
</g>
<g filter="url(#filter3_d_6093_97145)">
<path d="M82.685 110.13C93.813 110.13 102.834 106.652 102.834 102.361C102.834 98.0704 93.813 94.5922 82.685 94.5922C71.5569 94.5922 62.5359 98.0704 62.5359 102.361C62.5359 106.652 71.5569 110.13 82.685 110.13Z" fill="#194574" fill-opacity="0.6"/>
</g>
<path d="M37.2739 99.1067C22.7918 99.1067 16.3407 97.2771 15.8141 93.0952C15.5508 91.2657 15.5508 88.3906 15.6825 85.2542V80.811C15.6825 76.1063 21.212 66.8279 29.1113 65.6516L29.9012 65.521L30.1645 65.913C30.6911 65.913 32.271 66.4358 37.2739 66.6971C42.4085 66.4358 43.8567 66.0438 44.3834 65.913L44.6466 65.521H45.4366C53.3359 66.8279 58.7337 76.1063 58.7337 80.811L58.9971 85.2542V93.0952C58.3389 97.2771 51.8877 99.1067 37.4056 99.1067H37.2739Z" fill="white"/>
<path d="M45.1729 66.9544C52.2823 67.9999 57.4168 76.4943 57.4168 80.8069C57.4168 84.9888 57.8118 90.3468 57.4168 92.8297C57.0219 95.5741 52.8089 97.7957 37.2735 97.7957C21.7383 97.7957 17.5252 95.5741 16.9986 92.8297C16.7353 90.2161 16.9986 84.9888 16.9986 80.8069C16.9986 76.4943 22.2649 67.9999 29.3742 66.8237C29.3742 66.8237 29.9009 67.6079 37.2735 67.9999C44.5146 67.7385 45.1729 66.8237 45.1729 66.8237V66.9544ZM30.5591 64.0793L28.9792 64.3407C20.685 65.6476 14.4972 75.1874 14.4972 80.8069L14.2338 85.2501V93.2218C15.0238 98.4491 21.7383 100.409 37.1419 100.409C52.5456 100.409 59.26 98.3185 59.9183 93.2218C60.1816 91.3922 60.1816 88.3865 60.05 85.3808V80.8069C60.05 75.1874 53.7305 65.5169 45.5679 64.3407L43.988 64.0793L43.4614 64.7327C39.2838 65.4995 35 65.4995 30.8225 64.7327L30.2958 64.0793H30.5591Z" fill="#223948"/>
<path d="M37.1472 68.2614C36.2257 68.2614 33.9875 68.2613 33.1975 67.9999C29.1162 67.2158 19.7687 63.5566 19.7687 47.0905C19.7687 34.937 25.8248 28.2722 37.0156 28.2722C48.3379 28.2722 54.7891 35.0678 54.7891 46.96C54.7891 62.5114 47.2847 66.9544 40.8336 67.9999L37.1472 68.1308V68.2614Z" fill="white"/>
<path d="M37.0133 29.5793C49.3889 29.5793 53.4703 37.6818 53.4703 46.9602C53.4703 60.0286 47.9408 65.5174 40.5681 66.6935C38.163 66.981 35.732 66.981 33.327 66.6935C27.0076 65.3866 21.0831 59.898 21.0831 47.091C21.0831 37.6818 24.7694 29.5793 37.0133 29.5793ZM37.0133 26.9657C25.0327 26.9657 18.45 34.0226 18.45 46.9602C18.45 64.4719 28.4557 68.3924 32.932 69.1765C33.8537 69.4379 35.5652 69.4379 37.1451 69.4379L41.0947 69.3072C47.9408 68.131 56.1034 63.4264 56.1034 47.091C56.1034 34.284 49.1257 26.9657 37.0133 26.9657Z" fill="#223948"/>
<path d="M82.8523 106.764C65.7955 106.764 58.1976 104.609 57.5773 99.6835C57.2672 97.5286 57.2672 94.1425 57.4222 90.4484V85.2153C57.4222 79.6743 63.9348 68.7462 73.2384 67.361L74.1688 67.2072L74.4789 67.6689C75.0992 67.6689 76.96 68.2846 82.8523 68.5923C88.8996 68.2846 90.6052 67.8228 91.2255 67.6689L91.5356 67.2072H92.466C101.77 68.7462 108.127 79.6743 108.127 85.2153L108.437 90.4484V99.6835C107.662 104.609 100.064 106.764 83.0072 106.764H82.8523Z" fill="white"/>
<path d="M92.1547 68.8957C100.528 70.127 106.575 80.1315 106.575 85.2108C106.575 90.1361 107.04 96.4466 106.575 99.3711C106.11 102.603 101.148 105.22 82.851 105.22C64.5538 105.22 59.5918 102.603 58.9716 99.3711C58.6615 96.2928 58.9716 90.1361 58.9716 85.2108C58.9716 80.1315 65.1741 70.127 73.5473 68.7418C73.5473 68.7418 74.1676 69.6652 82.851 70.127C91.3793 69.8192 92.1547 68.7418 92.1547 68.7418V68.8957ZM74.9429 65.5095L73.0821 65.8173C63.3133 67.3565 56.0255 78.5924 56.0255 85.2108L55.7153 90.444V99.8328C56.6457 105.989 64.5538 108.298 82.6959 108.298C100.838 108.298 108.747 105.836 109.521 99.8328C109.831 97.678 109.831 94.1379 109.677 90.5979V85.2108C109.677 78.5924 102.234 67.2026 92.6198 65.8173L90.7591 65.5095L90.1388 66.2791C85.2186 67.1821 80.1733 67.1821 75.253 66.2791L74.6327 65.5095H74.9429Z" fill="#223948"/>
<path d="M82.7015 70.4354C81.6161 70.4354 78.9801 70.4354 78.0497 70.1277C73.2428 69.2041 62.2336 64.8944 62.2336 45.5011C62.2336 31.1868 69.3663 23.3371 82.5465 23.3371C95.8818 23.3371 103.48 31.3407 103.48 45.3471C103.48 63.6631 94.6412 68.8964 87.0432 70.1277L82.7015 70.2815V70.4354Z" fill="white"/>
<path d="M82.543 24.8759C97.1187 24.8759 101.926 34.4187 101.926 45.3468C101.926 60.7383 95.4131 67.2029 86.7297 68.588C83.8971 68.9266 81.0338 68.9266 78.2013 68.588C70.7584 67.0489 63.7807 60.5844 63.7807 45.5006C63.7807 34.4187 68.1223 24.8759 82.543 24.8759ZM82.543 21.7975C68.4325 21.7975 60.6794 30.109 60.6794 45.3468C60.6794 65.9714 72.464 70.589 77.7362 71.5124C78.8216 71.8203 80.8374 71.8203 82.698 71.8203L87.3499 71.6664C95.4131 70.2811 105.027 64.7401 105.027 45.5006C105.027 30.4169 96.8086 21.7975 82.543 21.7975Z" fill="#223948"/>
<path fill-rule="evenodd" clip-rule="evenodd" d="M82.2814 11.0045C84.3478 10.948 86.3806 11.4246 88.4189 11.7744C89.2823 12.0598 90.1624 12.3372 91.0605 12.6066L93.4509 13.8237C97.7597 16.5876 100.946 20.3453 103.015 25.0961C103.512 26.5791 103.973 28.0741 104.397 29.5797C104.565 30.1696 104.69 30.7674 104.775 31.3731C104.792 32.5301 104.877 33.685 105.027 34.8321C104.991 36.3922 105.095 37.9298 105.342 39.4436C105.423 44.9824 105.425 50.5223 105.349 56.0611C105.345 56.4234 105.277 56.7812 105.153 57.1209C105.153 57.1209 105.013 57.5625 104.964 57.6327C104.846 58.0584 104.741 58.4852 104.65 58.9143L104.02 60.7067C103.744 61.2433 103.49 61.7969 103.26 62.3687C103.093 62.7955 102.884 63.2043 102.636 63.5893C102.636 63.5893 102.121 64.4463 101.756 65.0623C100.695 66.4096 99.6041 67.7343 98.4841 69.0341L95.7158 72.2359L90.5582 77.6163C90.2001 77.8647 89.8633 78.1431 89.5513 78.4484C89.1558 78.5499 88.739 78.5277 88.3561 78.385C88.0529 77.6012 87.8415 76.7842 87.726 75.9508C87.7058 74.7107 87.6429 73.4716 87.5376 72.2359C83.8892 72.0662 80.2397 72.0662 76.5913 72.2359C76.7421 74.2688 76.5073 76.3121 75.8994 78.256C75.8654 78.3427 75.8034 78.4152 75.7234 78.4618C75.6434 78.5084 75.5502 78.5265 75.4588 78.513C75.1594 78.5532 74.8548 78.5089 74.5787 78.385L73.4463 77.3604C71.4316 75.3101 69.4597 73.2172 67.5319 71.0834C66.0092 69.4243 64.5406 67.7153 63.1289 65.959C61.4621 63.5027 60.129 60.8318 59.1655 58.0176C59.0816 50.0757 59.0816 42.1331 59.1655 34.1912C59.2103 33.8006 59.2731 33.4167 59.3538 33.0387C59.5131 32.7296 59.5971 32.3888 59.605 32.014C59.8435 30.367 60.201 28.7397 60.6746 27.1455C61.3425 25.0179 62.295 22.9925 63.5056 21.1255C63.7232 20.728 63.9743 20.3442 64.2603 19.9717C64.5484 19.5301 64.8623 19.1022 65.2043 18.6923C66.9656 16.7062 69.011 15.0078 71.2665 13.6499C73.3852 12.3745 75.7891 11.6758 78.2272 11.2615C79.5751 11.1271 80.9273 11.0413 82.2814 11.0045Z" fill="#4E4E50"/>
<path fill-rule="evenodd" clip-rule="evenodd" d="M93.3266 16.6418C93.307 16.7736 93.3291 16.9083 93.3894 17.0268C95.294 19.0487 97.0201 21.2345 98.5481 23.5596L100.687 29.0667C101.126 29.6623 101.692 30.0473 102.386 30.2194C102.598 30.8829 102.682 31.5667 102.637 32.2687C102.51 32.2592 102.387 32.2195 102.278 32.1528C102.168 32.0861 102.077 31.9943 102.009 31.8848C98.6535 27.3764 94.4176 24.068 89.3003 21.9576C87.7021 21.4118 86.0607 21.0045 84.3939 20.7404C83.858 20.613 83.3059 20.5697 82.7569 20.6125C82.7638 20.5734 82.5002 20.6456 82.5221 20.6125C82.5221 20.6125 82.141 20.634 82.1742 20.6125C82.1742 20.6125 81.7512 20.6726 77.2664 20.6726L76.7058 21.2387L75.838 21.3813L75.2441 21.5854C75.2441 21.5854 75.2441 21.5854 75.838 21.3813C69.9292 23.3456 65.1483 26.911 61.4943 32.0773C61.2757 32.1566 61.149 32.0705 61.1165 31.8214C62.2982 26.4377 64.8569 21.8693 68.7911 18.1148C73.2972 14.3954 78.456 12.8579 84.2673 13.5033C87.6106 13.6482 90.6301 14.6944 93.3266 16.6418Z" fill="#A6A8AB"/>
<path d="M79.0123 20.9799C83.5821 20.3017 87.1159 18.5641 86.9052 17.0988C86.6945 15.6334 82.8191 14.9952 78.2494 15.6734C73.6795 16.3515 70.1458 18.0891 70.3565 19.5545C70.5673 21.0198 74.4426 21.658 79.0123 20.9799Z" fill="#ABAEB1"/>
<path d="M78.3191 20.6673C81.1313 20.2499 83.3059 19.1806 83.1762 18.2789C83.0466 17.3771 80.6617 16.9844 77.8496 17.4017C75.0374 17.819 72.8628 18.8883 72.9924 19.79C73.1222 20.6919 75.5069 21.0845 78.3191 20.6673Z" fill="#BCBEC0"/>
<path fill-rule="evenodd" clip-rule="evenodd" d="M93.3266 16.6417C98.0765 19.6843 101.048 23.9666 102.24 29.4868C102.292 29.7285 103.14 32.4015 102.591 32.4015C102.38 32.4015 102.089 32.0777 101.809 31.6789C101.158 30.749 100.794 29.6568 100.492 28.5626L98.5481 23.5585C97.0204 21.2334 95.2947 19.0474 93.3905 17.0255C93.3298 16.9072 93.3074 16.7737 93.3266 16.6417Z" fill="#818387"/>
<path fill-rule="evenodd" clip-rule="evenodd" d="M80.4925 22.2781C88.286 21.9894 94.7038 24.8505 99.7436 30.8603C99.6136 30.9113 99.5934 30.9962 99.6798 31.1162C99.8501 31.3109 100.039 31.4819 100.246 31.629C100.137 31.7683 100.012 31.7887 99.8692 31.6936C97.7677 29.9378 95.6279 28.2293 93.4514 26.5692C91.8117 25.6569 90.109 24.865 88.3566 24.1994C88.1112 24.2334 88.027 24.3613 88.1044 24.5844C89.4131 25.7431 90.5564 27.0794 91.5017 28.5551C91.9636 29.2819 92.0466 30.0496 91.7528 30.8603C90.2706 33.4803 88.1099 35.2533 85.2733 36.1761C81.3099 37.3433 77.3251 37.4294 73.3212 36.4331C69.9957 35.3722 67.4158 33.3433 65.5826 30.3485C65.3829 30.0444 65.2738 29.6887 65.2687 29.3238C66.7801 28.1679 68.2904 27.0141 69.7984 25.865C73.2293 31.1479 77.8846 32.6209 83.7642 30.284C85.0378 29.7299 86.16 28.873 87.0347 27.7863C87.1805 27.4093 87.2007 27.0243 87.0976 26.6337C85.9792 25.0977 84.4832 23.8831 82.7574 23.1103C81.9871 22.8306 81.2325 22.5532 80.4925 22.2781Z" fill="#B1B3B6"/>
<path fill-rule="evenodd" clip-rule="evenodd" d="M80.4926 22.2781C81.2325 22.5532 81.9872 22.8306 82.7574 23.1102C84.4833 23.883 85.9794 25.0976 87.0976 26.6337C87.2018 27.0243 87.1806 27.4093 87.0348 27.7863C86.1597 28.8731 85.0372 29.73 83.7632 30.284C77.8847 32.6208 73.2294 31.1479 69.7974 25.8649C72.9636 23.5518 76.5291 22.3562 80.4926 22.2781Z" fill="#BCBEC0"/>
<path fill-rule="evenodd" clip-rule="evenodd" d="M99.7444 30.8602C100.546 31.7612 101.301 32.702 102.009 33.6795C101.986 33.8615 101.923 34.0361 101.825 34.1908C101.727 34.3455 101.597 34.4767 101.443 34.5751C101.428 38.7189 101.512 42.8607 101.695 47.0011C101.779 49.6482 101.779 52.2955 101.695 54.9426C101.352 57.3832 100.447 59.7086 99.0526 61.7324C96.1092 65.8836 92.735 69.7054 88.9875 73.1327C88.9248 72.4943 88.9038 71.8525 88.9248 71.2114C88.9169 63.9946 88.9796 56.7779 89.1131 49.5633C89.2656 49.364 89.4539 49.2147 89.6793 49.1139C92.539 48.3381 95.2574 47.1058 97.7318 45.4636C98.251 44.9428 98.3564 44.3449 98.0457 43.6702C96.5461 42.1436 94.6485 41.0777 92.5732 40.5962C89.8609 39.3813 87.1353 39.4028 84.3951 40.6596C84.1988 40.9155 84.1147 41.2143 84.1428 41.5563C84.2616 43.694 84.4286 45.8078 84.6473 47.8967C84.7987 48.4255 84.8827 48.9803 84.8973 49.5622C84.6742 50.6763 84.0878 51.5516 83.137 52.1889C82.0506 52.9136 80.8766 53.191 79.6131 53.0211C79.312 52.3139 79.0598 51.5865 78.8585 50.8439C79.307 48.687 79.4538 46.5098 79.2992 44.311C79.1659 43.4926 78.9975 42.6804 78.7946 41.8767C78.6847 41.5484 78.4952 41.2925 78.2295 41.1079C73.877 38.8899 69.6411 39.1243 65.5217 41.8133C64.5137 42.4361 64.2413 43.3113 64.7033 44.4389C65.0108 44.9009 65.4853 45.2228 66.0252 45.3357C68.3797 47.0679 70.9809 48.2409 73.8254 48.858C74.182 49.0505 74.4544 49.3279 74.6439 49.6913C74.7482 58.7219 74.7269 67.7309 74.5811 76.7196C74.5811 41.211 74.497 41.211 74.3289 76.7196C70.5256 72.7663 66.9747 68.5731 63.6976 64.1656C62.1318 61.6053 61.1832 58.7094 60.9282 55.7113C60.8664 50.6299 60.8451 45.5497 60.8664 40.4683C61.0626 38.5287 61.1468 36.5644 61.1176 34.5751C62.1579 32.5734 63.567 30.7907 65.2694 29.3227C65.2773 29.6941 65.3815 30.0361 65.5834 30.3485C67.4177 33.3443 69.9976 35.3722 73.322 36.433C77.327 37.4294 81.3118 37.3434 85.2752 36.176C88.1118 35.2522 90.2725 33.4802 91.7558 30.8602C92.0485 30.0508 91.9654 29.282 91.5035 28.5551C90.5584 27.0789 89.4151 25.7423 88.1062 24.5832C88.0289 24.3614 88.113 24.2323 88.3574 24.1995C90.1101 24.8648 91.8132 25.6568 93.4533 26.5692C95.6298 28.2292 97.7695 29.9378 99.8711 31.6936C100.013 31.7887 100.14 31.7683 100.248 31.6291C100.04 31.4814 99.8496 31.3091 99.6817 31.1161C99.5952 30.9973 99.6154 30.9123 99.7444 30.8602Z" fill="#A6A8AB"/>
<path d="M73.524 74.2419V74.6339C73.3461 74.4408 73.1663 74.2419 72.9831 74.0394L73.524 74.2419Z" stroke="#808285" stroke-width="2"/>
<path fill-rule="evenodd" clip-rule="evenodd" d="M102.008 33.6783C102.999 34.8931 103.399 36.3017 103.204 37.906C103.394 44.3947 103.436 50.8846 103.33 57.3767C103.284 58.0723 103.157 58.76 102.952 59.426C102.373 60.6258 101.786 61.8214 101.191 63.0129C97.8771 68.1372 93.9229 72.8088 89.4261 76.912C89.3358 76.9582 89.234 76.9766 89.1335 76.9652C89.0329 76.9537 88.9378 76.9128 88.8599 76.8475C88.7555 74.9694 88.7764 73.0865 88.9227 71.2113C88.9025 71.8533 88.9226 72.4941 88.9866 73.1327C92.7341 69.7049 96.1082 65.8828 99.0517 61.7313C100.446 59.7078 101.351 57.3828 101.694 54.9425C101.778 52.2953 101.778 49.6482 101.694 47.0011C101.512 42.8618 100.931 36.5452 100.946 32.4017C100.946 32.4017 102.008 33.7169 102.008 33.6783Z" fill="#818387"/>
<path fill-rule="evenodd" clip-rule="evenodd" d="M61.1161 34.576C61.1465 36.5433 61.0626 38.5107 60.8649 40.468C60.8453 38.5006 60.9292 36.5334 61.1161 34.5748V34.576Z" fill="#626365"/>
<path fill-rule="evenodd" clip-rule="evenodd" d="M78.2291 41.109C75.9659 40.9987 73.6994 40.9772 71.4346 41.0445C69.3962 41.2653 67.6135 42.0556 66.0864 43.4142C65.8655 44.0321 65.844 44.7047 66.0248 45.3356C65.485 45.2227 65.0104 44.9008 64.7028 44.4389C64.2409 43.3111 64.5133 42.436 65.5213 41.8121C69.6407 39.1243 73.8766 38.891 78.2291 41.109Z" fill="#818387"/>
<path fill-rule="evenodd" clip-rule="evenodd" d="M92.5704 40.5962C90.5207 40.8622 88.4667 41.0966 86.4059 41.3004C85.6794 41.357 85.1547 41.7194 84.8328 42.3897C84.7671 44.2256 84.7043 46.0617 84.6445 47.8979C84.4258 45.7889 84.258 43.6747 84.1411 41.5574C84.113 41.2144 84.1971 40.9155 84.3933 40.6596C87.1336 39.4029 89.8581 39.3814 92.5704 40.5962Z" fill="#808285"/>
<path fill-rule="evenodd" clip-rule="evenodd" d="M72.1881 42.1325C73.9694 42.0109 75.758 42.2064 77.4723 42.7098C77.6977 42.8095 77.8871 42.9589 78.0385 43.1582C78.1225 44.8649 78.1225 46.5749 78.0385 48.2815C77.1494 50.6479 77.4846 52.7821 79.0454 54.6865C81.096 56.5648 83.1513 56.5648 85.2109 54.6865C86.0398 53.7907 86.5489 52.6411 86.6572 51.42C86.1855 48.6936 86.0379 45.9201 86.2177 43.1582L86.5317 42.8378C90.1947 41.5131 93.6121 41.9615 96.7863 44.1829C96.834 44.3184 96.8531 44.4624 96.8423 44.6057C96.8315 44.7491 96.791 44.8885 96.7235 45.0151L88.671 48.346C88.4044 48.4893 88.1691 48.6853 87.9791 48.9223L87.8537 68.521L87.5396 68.8415C84.0639 69.2242 80.5825 69.2661 77.0956 68.9694C76.9547 68.9506 76.8197 68.9008 76.7 68.8233C76.5805 68.7458 76.4794 68.6425 76.4038 68.521L76.2771 48.9223C76.082 48.6846 75.8511 48.4921 75.5853 48.3449C72.8923 47.3325 70.2279 46.2435 67.5955 45.0797C67.3243 44.6902 67.3456 44.3267 67.6584 43.9904C69.0271 43.0662 70.5686 42.4331 72.1881 42.1325Z" fill="#FBFBFB"/>
<path fill-rule="evenodd" clip-rule="evenodd" d="M84.8949 49.5618C85.876 52.0334 85.164 53.7624 82.7567 54.7507C81.3194 54.9149 80.2711 54.3387 79.6107 53.0208C80.8742 53.1906 82.0482 52.9132 83.1335 52.1885C84.0854 51.5512 84.6718 50.6759 84.8949 49.5618Z" fill="#818387"/>
<defs>
<filter id="filter0_d_6093_97145" x="6" y="84.0269" width="74.8361" height="27.0782" filterUnits="userSpaceOnUse" color-interpolation-filters="sRGB">
<feFlood flood-opacity="0" result="BackgroundImageFix"/>
<feColorMatrix in="SourceAlpha" type="matrix" values="0 0 0 0 0 0 0 0 0 0 0 0 0 0 0 0 0 0 127 0" result="hardAlpha"/>
<feOffset dx="2" dy="2"/>
<feGaussianBlur stdDeviation="2"/>
<feComposite in2="hardAlpha" operator="out"/>
<feColorMatrix type="matrix" values="0 0 0 0 0.12549 0 0 0 0 0.12549 0 0 0 0 0.12549 0 0 0 0.15 0"/>
<feBlend mode="normal" in2="BackgroundImageFix" result="effect1_dropShadow_6093_97145"/>
<feBlend mode="normal" in="SourceGraphic" in2="effect1_dropShadow_6093_97145" result="shape"/>
</filter>
<filter id="filter1_d_6093_97145" x="19.366" y="84.0271" width="48.2982" height="23.5379" filterUnits="userSpaceOnUse" color-interpolation-filters="sRGB">
<feFlood flood-opacity="0" result="BackgroundImageFix"/>
<feColorMatrix in="SourceAlpha" type="matrix" values="0 0 0 0 0 0 0 0 0 0 0 0 0 0 0 0 0 0 127 0" result="hardAlpha"/>
<feOffset dx="2" dy="2"/>
<feGaussianBlur stdDeviation="2"/>
<feComposite in2="hardAlpha" operator="out"/>
<feColorMatrix type="matrix" values="0 0 0 0 0.12549 0 0 0 0 0.12549 0 0 0 0 0.12549 0 0 0 0.15 0"/>
<feBlend mode="normal" in2="BackgroundImageFix" result="effect1_dropShadow_6093_97145"/>
<feBlend mode="normal" in="SourceGraphic" in2="effect1_dropShadow_6093_97145" result="shape"/>
</filter>
<filter id="filter2_d_6093_97145" x="47.1642" y="92.5923" width="74.8358" height="27.0784" filterUnits="userSpaceOnUse" color-interpolation-filters="sRGB">
<feFlood flood-opacity="0" result="BackgroundImageFix"/>
<feColorMatrix in="SourceAlpha" type="matrix" values="0 0 0 0 0 0 0 0 0 0 0 0 0 0 0 0 0 0 127 0" result="hardAlpha"/>
<feOffset dx="2" dy="2"/>
<feGaussianBlur stdDeviation="2"/>
<feComposite in2="hardAlpha" operator="out"/>
<feColorMatrix type="matrix" values="0 0 0 0 0.12549 0 0 0 0 0.12549 0 0 0 0 0.12549 0 0 0 0.15 0"/>
<feBlend mode="normal" in2="BackgroundImageFix" result="effect1_dropShadow_6093_97145"/>
<feBlend mode="normal" in="SourceGraphic" in2="effect1_dropShadow_6093_97145" result="shape"/>
</filter>
<filter id="filter3_d_6093_97145" x="60.5359" y="92.5922" width="48.2982" height="23.5378" filterUnits="userSpaceOnUse" color-interpolation-filters="sRGB">
<feFlood flood-opacity="0" result="BackgroundImageFix"/>
<feColorMatrix in="SourceAlpha" type="matrix" values="0 0 0 0 0 0 0 0 0 0 0 0 0 0 0 0 0 0 127 0" result="hardAlpha"/>
<feOffset dx="2" dy="2"/>
<feGaussianBlur stdDeviation="2"/>
<feComposite in2="hardAlpha" operator="out"/>
<feColorMatrix type="matrix" values="0 0 0 0 0.12549 0 0 0 0 0.12549 0 0 0 0 0.12549 0 0 0 0.15 0"/>
<feBlend mode="normal" in2="BackgroundImageFix" result="effect1_dropShadow_6093_97145"/>
<feBlend mode="normal" in="SourceGraphic" in2="effect1_dropShadow_6093_97145" result="shape"/>
</filter>
</defs>
</svg>
