<svg width="48" height="48" viewBox="0 0 48 48" fill="none" xmlns="http://www.w3.org/2000/svg">
<path d="M36.1875 21.5625H33.75V14.25C33.75 8.8875 29.3625 4.5 24 4.5C18.6375 4.5 14.25 8.8875 14.25 14.25V21.5625H11.8125C10.5937 21.5625 9.375 22.7813 9.375 24V41.0625C9.375 42.2812 10.5937 43.5 11.8125 43.5H36.1875C37.4063 43.5 38.625 42.2812 38.625 41.0625V24C38.625 22.7813 37.4063 21.5625 36.1875 21.5625ZM26.4375 38.625H21.5625L22.5375 33.2625C21.3188 32.775 20.3438 31.3125 20.3438 30.0938C20.3438 28.1438 22.05 26.4375 24 26.4375C25.95 26.4375 27.6563 28.1438 27.6563 30.0938C27.6563 31.5563 26.925 32.775 25.4625 33.2625L26.4375 38.625ZM28.875 21.5625H19.125V14.25C19.125 11.5687 21.3188 9.375 24 9.375C26.6813 9.375 28.875 11.5687 28.875 14.25V21.5625Z" fill="white"/>
</svg>
