<svg width="128" height="128" viewBox="0 0 128 128" fill="none" xmlns="http://www.w3.org/2000/svg">
<g clip-path="url(#clip0_6091_892)">
<path d="M64.0006 16.2397C90.3779 16.2397 111.761 37.6242 111.761 64C111.761 90.3758 90.3774 111.761 64.0006 111.761C37.6237 111.761 16.2397 90.3774 16.2397 64C16.2397 37.6226 37.6232 16.2397 64.0006 16.2397ZM64.0006 10.7047C34.6132 10.7047 10.7047 34.6127 10.7047 64C10.7047 93.3873 34.6132 117.296 64.0006 117.296C93.3879 117.296 117.296 93.3873 117.296 64C117.296 34.6127 93.3879 10.7047 64.0006 10.7047Z" fill="black"/>
<path d="M64.0011 16.2208C90.3893 16.2208 111.781 37.6134 111.781 64.0011C111.781 90.3887 90.3893 111.781 64.0011 111.781C37.6129 111.781 16.2208 90.3892 16.2208 64.0011C16.2208 37.6129 37.6129 16.2208 64.0011 16.2208ZM64.0011 11.3608C34.975 11.3608 11.3608 34.9744 11.3608 64.0005C11.3608 93.0266 34.975 116.641 64.0011 116.641C93.0272 116.641 116.641 93.0266 116.641 64.0005C116.641 34.9744 93.0272 11.3608 64.0011 11.3608Z" fill="#3A3A3A"/>
<path d="M64 22.7796C86.7286 22.7796 105.22 41.2708 105.22 64C105.22 86.7291 86.7286 105.22 64 105.22C41.2714 105.22 22.7802 86.7291 22.7802 64C22.7802 41.2708 41.2714 22.7796 64 22.7796ZM64 13.5651C36.1462 13.5651 13.5651 36.1457 13.5651 64C13.5651 91.8543 36.1462 114.435 64 114.435C91.8537 114.435 114.435 91.8553 114.435 64C114.435 36.1446 91.8553 13.5651 64 13.5651Z" fill="#9C9A9A"/>
<path d="M64 22.7796C86.7286 22.7796 105.22 41.2708 105.22 64C105.22 86.7291 86.7286 105.22 64 105.22C41.2714 105.22 22.7802 86.7291 22.7802 64C22.7802 41.2708 41.2714 22.7796 64 22.7796ZM64 13.5651C36.1462 13.5651 13.5651 36.1457 13.5651 64C13.5651 91.8543 36.1462 114.435 64 114.435C91.8537 114.435 114.435 91.8553 114.435 64C114.435 36.1446 91.8553 13.5651 64 13.5651Z" fill="#9C9A9A"/>
<circle cx="64.5" cy="63.5" r="41.5" fill="white"/>
</g>
<path d="M85.7705 90.6724C85.6669 90.6724 85.5638 90.6569 85.4648 90.6263L76.8916 88.0877L63.8995 75.1642L50.9058 88.0877L42.324 90.628C42.1866 90.6693 42.0424 90.683 41.8997 90.6684C41.757 90.6537 41.6187 90.611 41.4927 90.5426C41.3339 90.4607 41.1957 90.3441 41.0886 90.2015C40.9816 90.0588 40.9083 89.894 40.8745 89.7192C40.8433 89.5486 40.8527 89.3731 40.902 89.2067L43.4557 80.6787L56.4495 67.7534L49.9852 61.325L47.021 64.2736C46.8832 64.4107 46.7196 64.5194 46.5396 64.5936C46.3596 64.6678 46.1666 64.706 45.9717 64.706C45.7768 64.706 45.5838 64.6678 45.4038 64.5936C45.2237 64.5194 45.0602 64.4107 44.9224 64.2736L41.9032 61.2669C41.7504 61.129 41.6397 60.951 41.5839 60.7534C41.528 60.5559 41.5291 60.3466 41.5872 60.1497C41.7778 59.5398 42.4459 59.2101 43.0126 59.1042L44.8657 58.7574C44.9108 58.7489 44.9522 58.7268 44.9842 58.6942L47.629 56.0633L38.7071 47.1868C38.3694 47.3905 37.9729 47.476 37.5808 47.4295C37.1886 47.3831 36.8234 47.2074 36.5432 46.9306L34.1921 44.5936C33.8628 44.2639 33.678 43.8181 33.678 43.3533C33.678 42.8886 33.8628 42.4427 34.1921 42.1131L38.1421 38.1839C38.4735 37.8563 38.9217 37.6725 39.3889 37.6725C39.8561 37.6725 40.3044 37.8563 40.6358 38.1839L42.9817 40.5243C43.2617 40.8035 43.4393 41.1681 43.486 41.5597C43.5327 41.9512 43.4458 42.3471 43.2393 42.6837L52.1629 51.5584L54.8094 48.9276C54.8426 48.8953 54.8648 48.8535 54.8729 48.808L55.2181 46.9699C55.383 46.1072 55.9377 45.5041 56.58 45.5041C56.733 45.5062 56.884 45.539 57.0239 45.6007C57.1638 45.6623 57.2897 45.7515 57.3941 45.8629L60.4064 48.8593C60.6839 49.1365 60.8397 49.5118 60.8397 49.9031C60.8397 50.2943 60.6839 50.6696 60.4064 50.9469L57.4284 53.9074L63.8927 60.3359L70.3552 53.9074L67.379 50.9469C67.1005 50.6698 66.9441 50.294 66.9441 49.9022C66.9441 49.5104 67.1005 49.1347 67.379 48.8576L70.3913 45.8612C70.4956 45.7503 70.6212 45.6616 70.7608 45.6002C70.9004 45.5388 71.051 45.5062 71.2036 45.5041C71.8408 45.5041 72.4024 46.1072 72.5655 46.9699L72.9141 48.8097C72.9221 48.8553 72.9428 48.8952 72.976 48.9293L75.6225 51.5602L84.5563 42.6837C84.3511 42.3476 84.265 41.9528 84.3117 41.5624C84.3584 41.1719 84.5352 40.8083 84.8139 40.5294L87.165 38.1924C87.4965 37.8649 87.9447 37.681 88.4119 37.681C88.8791 37.681 89.3273 37.8649 89.6587 38.1924L93.6087 42.1216C93.9387 42.4505 94.1241 42.8963 94.1241 43.361C94.1241 43.8257 93.9387 44.2715 93.6087 44.6004L91.2576 46.9391C90.9774 47.216 90.6122 47.3916 90.22 47.4381C89.8279 47.4845 89.4314 47.3991 89.0937 47.1954L80.1718 56.0736L82.8166 58.7044C82.8491 58.7374 82.8911 58.7595 82.9368 58.7676L84.7899 59.1144C85.3532 59.2203 86.0247 59.55 86.2153 60.1616C86.273 60.3583 86.274 60.5672 86.2181 60.7645C86.1623 60.9617 86.0518 61.1394 85.8993 61.2772L82.8853 64.2736C82.6071 64.5499 82.23 64.7051 81.8368 64.7051C81.4437 64.7051 81.0666 64.5499 80.7884 64.2736L77.8242 61.325L71.3599 67.7534L84.3331 80.6787L86.8885 89.205C86.9382 89.3719 86.9478 89.548 86.9165 89.7192C86.8852 89.8904 86.8138 90.0519 86.7082 90.1907C86.5998 90.3378 86.4585 90.4579 86.2955 90.5415C86.1325 90.6251 85.9539 90.6699 85.7705 90.6724Z" fill="black"/>
<path d="M88.4119 38.3001C88.5611 38.2997 88.7089 38.3287 88.8468 38.3852C88.9848 38.4418 89.1101 38.5249 89.2157 38.6298L93.1657 42.559C93.3773 42.7711 93.4961 43.0579 93.4961 43.3568C93.4961 43.6556 93.3773 43.9424 93.1657 44.1545L90.8128 46.4933C90.7076 46.5981 90.5826 46.6813 90.4449 46.738C90.3073 46.7948 90.1598 46.824 90.0108 46.824C89.8619 46.824 89.7143 46.7948 89.5767 46.738C89.4391 46.6813 89.3141 46.5981 89.2088 46.4933L89.0594 46.3429L79.284 56.0668L82.3736 59.14C82.4938 59.2596 82.6501 59.3416 82.8201 59.3741L84.6715 59.7209C85.3481 59.8473 85.9389 60.341 85.4512 60.8262L82.4389 63.8226C82.278 63.9812 82.0608 64.0701 81.8343 64.0701C81.6079 64.0701 81.3906 63.9812 81.2298 63.8226L77.8191 60.4281L70.4583 67.7517L83.7818 81.005L86.2961 89.3827C86.3127 89.4612 86.3118 89.5424 86.2935 89.6205C86.2752 89.6986 86.24 89.7718 86.1902 89.835C86.1405 89.8982 86.0774 89.9497 86.0056 89.9861C85.9337 90.0224 85.8546 90.0427 85.774 90.0455C85.7311 90.0451 85.6884 90.0393 85.6469 90.0284L77.2266 87.5274L63.9013 74.2725L50.583 87.5325L42.1437 90.0267C42.1028 90.0375 42.0607 90.0432 42.0183 90.0438C41.9379 90.041 41.8591 90.0207 41.7873 89.9845C41.7156 89.9482 41.6526 89.8968 41.6029 89.8338C41.5532 89.7709 41.5179 89.6979 41.4995 89.62C41.4811 89.5421 41.4799 89.4611 41.4962 89.3827L44.0088 81.005L57.3357 67.75L49.9733 60.4281L46.5625 63.8226C46.4017 63.9817 46.184 64.071 45.9572 64.071C45.7303 64.071 45.5127 63.9817 45.3518 63.8226L42.3498 60.8228C41.862 60.3393 42.4545 59.8456 43.1295 59.7175L44.9808 59.3724C45.1499 59.3406 45.3054 59.2591 45.4274 59.1383L48.5187 56.0633L38.7433 46.3395L38.5939 46.4881C38.3805 46.6992 38.0919 46.8176 37.791 46.8176C37.4901 46.8176 37.2014 46.6992 36.9881 46.4881L34.6387 44.1511C34.4265 43.9389 34.3074 43.6518 34.3074 43.3525C34.3074 43.0532 34.4265 42.7661 34.6387 42.5538L38.5887 38.6247C38.802 38.4141 39.0903 38.296 39.3907 38.296C39.6912 38.296 39.9795 38.4141 40.1927 38.6247L42.537 40.9685C42.7491 41.1807 42.8682 41.4679 42.8682 41.7671C42.8682 42.0664 42.7491 42.3536 42.537 42.5658L42.3859 42.7161L52.1612 52.44L55.2491 49.365C55.3705 49.2437 55.4525 49.0889 55.4844 48.9208L55.833 47.0792C55.9292 46.5804 56.228 46.1243 56.5767 46.1243C56.6473 46.1274 56.7165 46.1449 56.78 46.1757C56.8436 46.2066 56.9 46.2501 56.9459 46.3036L59.9599 49.2915C60.1193 49.4515 60.2088 49.6676 60.2088 49.8928C60.2088 50.1181 60.1193 50.3342 59.9599 50.4942L56.5389 53.8989L63.8996 61.2208L71.2604 53.8989L67.8393 50.4942C67.6799 50.3342 67.5905 50.1181 67.5905 49.8928C67.5905 49.6676 67.6799 49.4515 67.8393 49.2915L70.8516 46.2934C70.8976 46.2402 70.9542 46.197 71.0177 46.1664C71.0812 46.1359 71.1504 46.1186 71.2208 46.1157C71.5695 46.1157 71.8683 46.5701 71.9645 47.0724L72.3045 48.9191C72.3372 49.0882 72.4179 49.2437 72.5398 49.3632L75.6311 52.4383L85.4099 42.7144L85.2605 42.5641C85.0484 42.3519 84.9293 42.0647 84.9293 41.7654C84.9293 41.4661 85.0484 41.179 85.2605 40.9668L87.6082 38.6315C87.8213 38.4207 88.1097 38.3028 88.4102 38.3035M88.4102 37.053C88.0964 37.0516 87.7854 37.1121 87.4953 37.2312C87.2052 37.3503 86.9418 37.5254 86.7203 37.7466L84.3692 40.0853C84.0504 40.4 83.8272 40.7977 83.7255 41.2329C83.6237 41.6681 83.6474 42.1229 83.7939 42.5453L75.6242 50.6718L73.5187 48.5774L73.201 46.8486C72.9777 45.6681 72.1826 44.8738 71.226 44.872C70.991 44.873 70.7586 44.921 70.5426 45.0131C70.3267 45.1053 70.1315 45.2397 69.9689 45.4085L66.9566 48.4049C66.7603 48.6 66.6046 48.8317 66.4983 49.0867C66.3921 49.3417 66.3374 49.6151 66.3374 49.8911C66.3374 50.1672 66.3921 50.4405 66.4983 50.6955C66.6046 50.9505 66.7603 51.1822 66.9566 51.3774L69.4897 53.8972L63.9082 59.4492L58.3232 53.8972L60.8564 51.3774C61.0527 51.1822 61.2084 50.9505 61.3146 50.6955C61.4209 50.4405 61.4755 50.1672 61.4755 49.8911C61.4755 49.6151 61.4209 49.3417 61.3146 49.0867C61.2084 48.8317 61.0527 48.6 60.8564 48.4049L57.8441 45.4085C57.6814 45.2397 57.4863 45.1053 57.2703 45.0131C57.0544 44.921 56.822 44.873 56.587 44.872C55.6269 44.872 54.8335 45.6664 54.612 46.8469L54.2754 48.5757L52.163 50.677L43.9933 42.5538C44.139 42.1316 44.1629 41.6773 44.0624 41.2422C43.962 40.8072 43.7411 40.4088 43.4249 40.0921L41.0738 37.7466C40.6249 37.3007 40.0165 37.0503 39.3821 37.0503C38.7478 37.0503 38.1394 37.3007 37.6905 37.7466L33.7422 41.6758C33.294 42.1223 33.0422 42.7275 33.0422 43.3585C33.0422 43.9895 33.294 44.5947 33.7422 45.0412L36.0916 47.3782C36.3132 47.5998 36.5768 47.7754 36.8672 47.8948C37.1576 48.0142 37.469 48.0749 37.7832 48.0735C38.0504 48.0733 38.3156 48.0288 38.5681 47.9419L46.7343 56.0668L44.6253 58.1663L42.8959 58.4909C42.1506 58.6275 41.2592 59.0888 40.9862 59.9652C40.8955 60.2707 40.8917 60.5952 40.975 60.9027C41.0584 61.2103 41.2257 61.4889 41.4585 61.7077L44.4759 64.7041C44.6721 64.8993 44.905 65.0542 45.1614 65.1599C45.4177 65.2656 45.6925 65.32 45.97 65.32C46.2476 65.32 46.5223 65.2656 46.7787 65.1599C47.0351 65.0542 47.268 64.8993 47.4642 64.7041L49.9767 62.2048L55.56 67.7569L43.1226 80.1235L42.8994 80.3456L42.8066 80.6497L40.2941 89.0273C40.2168 89.288 40.2025 89.5631 40.2523 89.8303C40.3022 90.0974 40.4147 90.3491 40.5809 90.5648C40.7463 90.7898 40.9623 90.9734 41.2115 91.1009C41.4607 91.2284 41.7364 91.2964 42.0166 91.2994C42.1815 91.2994 42.3429 91.2761 42.5009 91.2294L50.9213 88.7284L51.227 88.6378L51.4502 88.4157L63.8876 76.044L76.3215 88.414L76.5482 88.6361L76.8522 88.7284L85.2743 91.2294C85.7042 91.3549 86.1664 91.3083 86.5623 91.0995C86.813 90.9714 87.0294 90.7886 87.196 90.5648C87.3622 90.3491 87.4747 90.0974 87.5246 89.8303C87.5744 89.5631 87.5601 89.288 87.4828 89.0273L84.9686 80.6497L84.8775 80.3456L84.6543 80.1235L72.2169 67.7517L77.8002 62.1997L80.3144 64.699C80.5106 64.8942 80.7435 65.0491 80.9999 65.1548C81.2563 65.2604 81.5311 65.3148 81.8086 65.3148C82.0861 65.3148 82.3609 65.2604 82.6172 65.1548C82.8736 65.0491 83.1065 64.8942 83.3027 64.699L86.3133 61.7025C86.546 61.4838 86.7134 61.2052 86.7967 60.8976C86.8801 60.5901 86.8762 60.2655 86.7856 59.96C86.5125 59.082 85.6212 58.6224 84.8758 58.484L83.1447 58.1595L81.0323 56.0582L89.1985 47.9351C89.623 48.0805 90.08 48.1048 90.5177 48.0051C90.9554 47.9055 91.3563 47.6859 91.675 47.3713L94.0244 45.0326C94.4717 44.586 94.7228 43.9812 94.7228 43.3508C94.7228 42.7203 94.4717 42.1156 94.0244 41.6689L90.0744 37.7398C89.8529 37.5186 89.5894 37.3434 89.2993 37.2244C89.0093 37.1053 88.6983 37.0447 88.3845 37.0462L88.4102 37.053Z" fill="#414042"/>
<path d="M37.7902 47.4926C37.5742 47.4934 37.3602 47.4516 37.1606 47.3694C36.961 47.2873 36.7798 47.1666 36.6275 47.0143L34.1115 44.5133C33.9581 44.361 33.8363 44.18 33.7533 43.9808C33.6702 43.7817 33.6274 43.5681 33.6274 43.3525C33.6274 43.1368 33.6702 42.9233 33.7533 42.7241C33.8363 42.5249 33.9581 42.344 34.1115 42.1917L38.2229 38.1036C38.3761 37.951 38.558 37.8299 38.7582 37.7473C38.9585 37.6647 39.1731 37.6221 39.3899 37.6221C39.6067 37.6221 39.8213 37.6647 40.0216 37.7473C40.2218 37.8299 40.4037 37.951 40.5569 38.1036L43.0694 40.6029C43.2231 40.7553 43.3451 40.9363 43.4283 41.1357C43.5115 41.335 43.5543 41.5487 43.5543 41.7646C43.5543 41.9804 43.5115 42.1942 43.4283 42.3935C43.3451 42.5929 43.2231 42.7739 43.0694 42.9263L38.9597 47.0143C38.8064 47.1676 38.6238 47.289 38.4226 47.3711C38.2215 47.4532 38.0059 47.4946 37.7884 47.4926" fill="black"/>
<path d="M39.3838 38.2522C39.6533 38.2534 39.9116 38.3595 40.1034 38.5478L42.616 41.0471C42.8052 41.2371 42.9113 41.4937 42.9113 41.7612C42.9113 42.0286 42.8052 42.2852 42.616 42.4752L38.5045 46.565C38.3137 46.7536 38.0557 46.8595 37.7867 46.8595C37.5177 46.8595 37.2596 46.7536 37.0688 46.565L34.5545 44.0657C34.3653 43.8757 34.2592 43.6191 34.2592 43.3516C34.2592 43.0842 34.3653 42.8275 34.5545 42.6375L38.666 38.5461C38.8573 38.3582 39.1149 38.2538 39.3838 38.2522ZM39.3838 37C39.0842 36.9986 38.7872 37.0563 38.5101 37.1698C38.233 37.2833 37.9813 37.4503 37.7695 37.6612L33.6649 41.7526C33.2391 42.177 33 42.752 33 43.3516C33 43.9512 33.2391 44.5262 33.6649 44.9506L36.1775 47.4516C36.6042 47.8757 37.1826 48.1139 37.7858 48.1139C38.389 48.1139 38.9674 47.8757 39.3941 47.4516L43.5039 43.3619C43.9296 42.9375 44.1688 42.3624 44.1688 41.7629C44.1688 41.1633 43.9296 40.5882 43.5039 40.1639L40.9913 37.6629C40.7799 37.4515 40.5283 37.2843 40.251 37.1711C39.9738 37.0579 39.6766 37.0009 39.377 37.0034L39.3838 37Z" fill="#42250D"/>
<path d="M45.9666 64.6938C45.772 64.694 45.5792 64.6559 45.3994 64.5817C45.2197 64.5075 45.0564 64.3987 44.919 64.2616L41.9033 61.2652C41.7505 61.1272 41.6398 60.9493 41.5839 60.7517C41.528 60.5541 41.5292 60.3449 41.5873 60.1479C41.7762 59.538 42.446 59.2083 43.0127 59.1024L44.8658 58.7556C44.9109 58.7472 44.9522 58.7251 44.9843 58.6924L54.8077 48.9208C54.8406 48.8889 54.8628 48.8477 54.8713 48.8029L55.2182 46.9698C55.3814 46.1071 55.9361 45.5058 56.5801 45.5058C56.7327 45.5079 56.8833 45.5405 57.0229 45.6019C57.1625 45.6632 57.2881 45.752 57.3924 45.8628L60.4047 48.8593C60.5425 48.9963 60.6519 49.159 60.7264 49.3381C60.801 49.5172 60.8394 49.7092 60.8394 49.903C60.8394 50.0969 60.801 50.2889 60.7264 50.468C60.6519 50.6471 60.5425 50.8098 60.4047 50.9468L47.0159 64.265C46.8779 64.4014 46.7142 64.5094 46.5341 64.5827C46.354 64.656 46.1612 64.6949 45.9666 64.6938Z" fill="black"/>
<path d="M56.5783 46.1225C56.6488 46.1254 56.7179 46.1427 56.7815 46.1732C56.845 46.2038 56.9015 46.247 56.9475 46.3002L59.9598 49.2898C60.1198 49.4498 60.2095 49.6663 60.2095 49.8919C60.2095 50.1176 60.1198 50.3341 59.9598 50.4941L46.5711 63.8123C46.4102 63.9714 46.1925 64.0607 45.9657 64.0607C45.7388 64.0607 45.5212 63.9714 45.3603 63.8123L42.348 60.8227C41.862 60.3393 42.4545 59.8438 43.1294 59.7174L44.9808 59.3706C45.1496 59.3394 45.3051 59.2584 45.4273 59.1383L55.2508 49.3666C55.3715 49.2451 55.4529 49.0904 55.4843 48.9225L55.8329 47.0792C55.9274 46.5803 56.2279 46.1242 56.5766 46.1242M56.5766 44.8737C55.6148 44.8737 54.8231 45.6664 54.6016 46.8486L54.2753 48.5757L44.627 58.1663L42.8976 58.4908C42.1522 58.6275 41.2609 59.0888 40.9878 59.9651C40.8972 60.2706 40.8933 60.5951 40.9767 60.9027C41.06 61.2103 41.2274 61.4889 41.4601 61.7076L44.4776 64.7041C44.6737 64.8993 44.9066 65.0542 45.163 65.1599C45.4194 65.2655 45.6942 65.3199 45.9717 65.3199C46.2492 65.3199 46.524 65.2655 46.7804 65.1599C47.0367 65.0542 47.2696 64.8993 47.4658 64.7041L60.8546 51.3859C61.0509 51.1907 61.2066 50.9591 61.3128 50.704C61.4191 50.449 61.4737 50.1757 61.4737 49.8996C61.4737 49.6236 61.4191 49.3502 61.3128 49.0952C61.2066 48.8402 61.0509 48.6085 60.8546 48.4134L57.8423 45.417C57.6796 45.2482 57.4845 45.1138 57.2685 45.0217C57.0526 44.9295 56.8202 44.8815 56.5852 44.8806L56.5766 44.8737Z" fill="#42250D"/>
<path d="M90.0056 47.4926C89.7896 47.4934 89.5756 47.4516 89.376 47.3694C89.1765 47.2873 88.9953 47.1666 88.8429 47.0143L84.7315 42.9246C84.5781 42.7722 84.4563 42.5913 84.3733 42.3921C84.2902 42.1929 84.2474 41.9794 84.2474 41.7637C84.2474 41.5481 84.2902 41.3346 84.3733 41.1354C84.4563 40.9362 84.5781 40.7553 84.7315 40.6029L87.2458 38.1036C87.3989 37.951 87.5808 37.8299 87.781 37.7473C87.9813 37.6647 88.1959 37.6221 88.4127 37.6221C88.6295 37.6221 88.8442 37.6647 89.0444 37.7473C89.2447 37.8299 89.4265 37.951 89.5797 38.1036L93.6911 42.1917C93.8448 42.344 93.9668 42.5251 94.05 42.7244C94.1332 42.9238 94.176 43.1375 94.176 43.3533C94.176 43.5692 94.1332 43.7829 94.05 43.9823C93.9668 44.1816 93.8448 44.3626 93.6911 44.515L91.1769 47.0143C91.0235 47.1676 90.8409 47.289 90.6398 47.3711C90.4386 47.4532 90.223 47.4946 90.0056 47.4926Z" fill="black"/>
<path d="M88.4119 38.2522C88.6808 38.2538 88.9384 38.3599 89.1298 38.5478L93.2412 42.6375C93.4304 42.8275 93.5366 43.0842 93.5366 43.3516C93.5366 43.6191 93.4304 43.8757 93.2412 44.0657L90.7287 46.565C90.5378 46.7541 90.2794 46.8603 90.01 46.8603C89.7406 46.8603 89.4821 46.7541 89.2912 46.565L85.1798 42.4769C84.9901 42.2869 84.8836 42.0299 84.8836 41.762C84.8836 41.4941 84.9901 41.2372 85.1798 41.0471L87.6941 38.5478C87.8854 38.3599 88.143 38.2538 88.4119 38.2522ZM88.4119 37.0017C88.1123 37.0003 87.8153 37.058 87.5382 37.1715C87.2611 37.285 87.0094 37.452 86.7976 37.6629L84.2833 40.1639C83.8575 40.5882 83.6184 41.1633 83.6184 41.7629C83.6184 42.3624 83.8575 42.9375 84.2833 43.3619L88.3948 47.4516C88.8214 47.8751 89.3995 48.113 90.0022 48.113C90.605 48.113 91.1831 47.8751 91.6097 47.4516L94.1223 44.9506C94.548 44.5262 94.7872 43.9512 94.7872 43.3516C94.7872 42.752 94.548 42.177 94.1223 41.7526L90.0125 37.6629C89.8007 37.452 89.549 37.285 89.2719 37.1715C88.9948 37.058 88.6978 37.0003 88.3982 37.0017H88.4119Z" fill="#42250D"/>
<path d="M81.8308 64.6938C81.6362 64.694 81.4434 64.6559 81.2636 64.5817C81.0839 64.5075 80.9206 64.3987 80.7832 64.2616L67.3927 50.9434C67.2549 50.8064 67.1456 50.6436 67.071 50.4645C66.9964 50.2854 66.958 50.0935 66.958 49.8996C66.958 49.7058 66.9964 49.5138 67.071 49.3347C67.1456 49.1556 67.2549 48.9929 67.3927 48.8558L70.405 45.8594C70.5093 45.7481 70.6352 45.6589 70.7751 45.5972C70.915 45.5356 71.0661 45.5027 71.2191 45.5007C71.8545 45.5007 72.4161 46.1037 72.5792 46.9664L72.9279 48.8063C72.936 48.8518 72.9582 48.8936 72.9914 48.9259L82.8149 58.6975C82.8471 58.7296 82.8885 58.7511 82.9334 58.759L84.7847 59.1058C85.3498 59.2118 86.0213 59.5415 86.2102 60.153C86.2681 60.3496 86.2693 60.5584 86.2138 60.7556C86.1582 60.9529 86.0481 61.1306 85.8959 61.2686L82.8819 64.265C82.7438 64.4019 82.5798 64.5103 82.3994 64.5839C82.2191 64.6575 82.0258 64.6949 81.8308 64.6938Z" fill="black"/>
<path d="M71.2192 46.1225C71.5661 46.1225 71.8666 46.5752 71.9611 47.0792L72.3046 48.9191C72.3355 49.0882 72.4179 49.2436 72.5398 49.3632L82.3633 59.1349C82.4853 59.2562 82.6415 59.3382 82.8098 59.3689L84.6612 59.7157C85.3378 59.8421 85.9286 60.3375 85.4426 60.821L82.4303 63.8174C82.2694 63.9765 82.0518 64.0658 81.8249 64.0658C81.5981 64.0658 81.3804 63.9765 81.2195 63.8174L67.8308 50.4993C67.6714 50.3393 67.5819 50.1232 67.5819 49.8979C67.5819 49.6727 67.6714 49.4566 67.8308 49.2966L70.8431 46.2985C70.8891 46.2453 70.9456 46.2021 71.0091 46.1715C71.0727 46.1409 71.1418 46.1237 71.2123 46.1208M71.2123 44.8703C70.9776 44.8715 70.7455 44.9196 70.5299 45.0117C70.3142 45.1039 70.1193 45.2382 69.9569 45.4067L66.9446 48.4031C66.7483 48.5983 66.5926 48.83 66.4864 49.085C66.3801 49.34 66.3254 49.6133 66.3254 49.8894C66.3254 50.1654 66.3801 50.4388 66.4864 50.6938C66.5926 50.9488 66.7483 51.1805 66.9446 51.3756L80.3334 64.6938C80.5295 64.8891 80.7625 65.0439 81.0188 65.1496C81.2752 65.2553 81.55 65.3097 81.8275 65.3097C82.105 65.3097 82.3798 65.2553 82.6362 65.1496C82.8925 65.0439 83.1255 64.8891 83.3216 64.6938L86.3322 61.6957C86.565 61.4769 86.7323 61.1983 86.8156 60.8907C86.899 60.5832 86.8951 60.2587 86.8045 59.9532C86.5314 59.0768 85.6401 58.6156 84.8948 58.4789L83.1654 58.1543L73.5205 48.5757L73.2028 46.8468C72.9795 45.6681 72.1843 44.872 71.2278 44.872L71.2123 44.8703Z" fill="#42250D"/>
<path d="M41.3331 40.784L36.8009 45.294L48.7539 57.1806L53.2844 52.674L41.3331 40.784Z" fill="#9B7753"/>
<path d="M41.3348 41.6672L52.3982 52.6723L48.7539 56.299L37.6905 45.2923L41.3348 41.6672ZM41.3348 39.899L40.4452 40.784L36.8009 44.409L35.913 45.2923L36.8009 46.1772L47.866 57.1823L48.7539 58.0655L49.6435 57.1823L53.2878 53.5572L54.1757 52.6723L53.2861 51.7908L42.2227 40.784L41.3348 39.899Z" fill="#42250D"/>
<path d="M86.461 40.784L74.5079 52.6723L79.0419 57.1806L90.9949 45.2906L86.461 40.784Z" fill="#9B7753"/>
<path d="M86.4626 41.6672L90.107 45.2923L79.0418 56.2991L75.3975 52.6723L86.4626 41.6672ZM86.4626 39.899L85.573 40.784L74.5096 51.7908L73.62 52.6757L74.5096 53.5589L78.1539 57.184L79.0418 58.0689L79.9314 57.184L90.9948 46.1789L91.8845 45.294L90.9948 44.4108L87.3505 40.784L86.4626 39.9008V39.899Z" fill="#603913"/>
<path d="M85.7706 90.4042C85.6933 90.4031 85.6164 90.3916 85.5422 90.37L77.0342 87.8485L48.62 59.5842L55.6871 52.5544L84.1013 80.8188L86.6362 89.2801C86.672 89.4075 86.6776 89.5413 86.6526 89.6711C86.6275 89.801 86.5725 89.9233 86.4919 90.0284C86.4093 90.1424 86.3011 90.2358 86.1759 90.301C86.0507 90.3662 85.9119 90.4016 85.7706 90.4042Z" fill="#636362"/>
<path d="M55.687 53.0583L83.7835 81.0067L86.2978 89.3843C86.3143 89.4628 86.3135 89.544 86.2952 89.6222C86.2769 89.7003 86.2416 89.7735 86.1919 89.8367C86.1421 89.8998 86.0791 89.9514 86.0072 89.9878C85.9353 90.0241 85.8563 90.0444 85.7757 90.0472C85.7328 90.0468 85.6901 90.041 85.6486 90.0301L77.2282 87.5291L49.1283 59.5842L55.687 53.0583ZM55.687 52.0487L55.1786 52.5544L48.6182 59.0802L48.1116 59.5842L48.6199 60.0898L76.7164 88.0433L76.8452 88.1714L77.0238 88.2227L85.4459 90.7237C85.5941 90.7681 85.7496 90.7829 85.9035 90.767C86.0574 90.7512 86.2066 90.7051 86.3424 90.6314C86.5174 90.5419 86.669 90.4133 86.7855 90.2556C86.9024 90.1056 86.9818 89.9301 87.0171 89.7435C87.0523 89.557 87.0424 89.3647 86.9881 89.1827L84.4756 80.8051L84.4241 80.6274L84.2936 80.4976L56.197 52.5492L55.6887 52.0453L55.687 52.0487Z" fill="#414042"/>
<path d="M43.849 44.1699L40.9243 47.0792L49.4718 55.5816L52.3982 52.6723L43.849 44.1699Z" fill="#C49A6C"/>
<path d="M37.7901 47.3133C37.4033 47.3123 37.0327 47.1587 36.7596 46.8862L34.2437 44.3886C33.9699 44.1149 33.8163 43.7445 33.8163 43.3585C33.8163 42.9724 33.9699 42.602 34.2437 42.3283L38.3534 38.2369C38.6287 37.9636 39.0017 37.8101 39.3907 37.8101C39.7796 37.8101 40.1527 37.9636 40.428 38.2369L42.9405 40.7362C43.2153 41.01 43.3696 41.3811 43.3696 41.768C43.3696 42.1549 43.2153 42.526 42.9405 42.7998L38.8291 46.8879C38.6927 47.0241 38.5304 47.1319 38.3518 47.2052C38.1731 47.2786 37.9816 47.3159 37.7884 47.315" fill="#633B1A"/>
<path d="M39.3838 38.2523C39.6533 38.2534 39.9116 38.3595 40.1034 38.5478L42.6159 41.0471C42.8055 41.2369 42.9119 41.4936 42.9119 41.7612C42.9119 42.0287 42.8055 42.2855 42.6159 42.4753L38.5045 46.565C38.3135 46.7532 38.0555 46.8588 37.7866 46.8588C37.5177 46.8588 37.2598 46.7532 37.0687 46.565L34.5545 44.0657C34.3653 43.8757 34.2591 43.6191 34.2591 43.3516C34.2591 43.0842 34.3653 42.8276 34.5545 42.6375L38.6659 38.5461C38.8573 38.3582 39.1149 38.2538 39.3838 38.2523ZM39.3838 37.3588C39.1323 37.3573 38.8831 37.4059 38.6507 37.5015C38.4183 37.5971 38.2074 37.738 38.0305 37.9157L33.919 42.0055C33.5608 42.3628 33.3596 42.8469 33.3596 43.3516C33.3596 43.8563 33.5608 44.3404 33.919 44.6978L36.4333 47.1971C36.7926 47.5534 37.2792 47.7536 37.7866 47.7536C38.294 47.7536 38.7806 47.5534 39.1399 47.1971L43.2513 43.109C43.6097 42.7514 43.8109 42.267 43.8109 41.762C43.8109 41.2571 43.6097 40.7727 43.2513 40.415L40.7405 37.9174C40.5634 37.7395 40.3522 37.5985 40.1195 37.5029C39.8868 37.4072 39.6373 37.3588 39.3855 37.3605" fill="#42250D"/>
<path d="M45.9665 64.5144C45.7949 64.5156 45.6247 64.4827 45.4661 64.4176C45.3074 64.3525 45.1634 64.2564 45.0426 64.1352L42.0303 61.1405C41.8983 61.0277 41.8023 60.879 41.7541 60.7127C41.7059 60.5464 41.7076 60.3697 41.7589 60.2043C41.9272 59.6679 42.5575 59.3723 43.047 59.2818L44.8983 58.9333C44.978 58.9183 45.0515 58.8803 45.1096 58.824L54.933 49.0523C54.9909 48.9938 55.0298 48.9194 55.0447 48.8388L55.3933 46.9972C55.5135 46.3617 55.9326 45.6783 56.5766 45.6783C56.706 45.681 56.8335 45.7096 56.9516 45.7624C57.0696 45.8152 57.1757 45.8912 57.2635 45.9858L60.2758 48.9823C60.5197 49.2256 60.6566 49.5552 60.6566 49.8988C60.6566 50.2424 60.5197 50.5719 60.2758 50.8153L46.8888 64.1369C46.7683 64.2577 46.6249 64.3535 46.4669 64.4186C46.3088 64.4837 46.1393 64.5169 45.9683 64.5161" fill="#633B1A"/>
<path d="M56.5784 46.1225C56.649 46.1256 56.7182 46.1432 56.7817 46.174C56.8453 46.2049 56.9017 46.2484 56.9476 46.3019L59.9599 49.2915C60.1193 49.4514 60.2087 49.6676 60.2087 49.8928C60.2087 50.1181 60.1193 50.3342 59.9599 50.4941L46.5711 63.814C46.4102 63.9731 46.1926 64.0624 45.9657 64.0624C45.7389 64.0624 45.5212 63.9731 45.3604 63.814L42.3481 60.8244C41.862 60.3393 42.4545 59.8456 43.1295 59.7191L44.9808 59.3724C45.1499 59.3406 45.3054 59.2591 45.4273 59.1383L55.2508 49.3666C55.3716 49.2452 55.4529 49.0904 55.4844 48.9225L55.833 47.0809C55.9275 46.5804 56.228 46.1242 56.5766 46.1242M56.5766 45.2325C55.8055 45.2325 55.1392 45.9244 54.9606 46.9135L54.6171 48.7414L44.8022 58.496L42.9646 58.8394C42.324 58.9589 41.5563 59.345 41.3314 60.0694C41.2577 60.3123 41.2544 60.571 41.3218 60.8158C41.3893 61.0606 41.5247 61.2814 41.7126 61.4531L44.7249 64.4512C44.8876 64.6134 45.0809 64.7421 45.2937 64.8299C45.5064 64.9177 45.7345 64.9629 45.9649 64.9629C46.1952 64.9629 46.4233 64.9177 46.6361 64.8299C46.8489 64.7421 47.0421 64.6134 47.2048 64.4512L60.5936 51.1331C60.7567 50.9712 60.886 50.779 60.9743 50.5673C61.0625 50.3557 61.108 50.1288 61.108 49.8996C61.108 49.6705 61.0625 49.4436 60.9743 49.232C60.886 49.0203 60.7567 48.8281 60.5936 48.6662L57.583 45.6698C57.4538 45.5337 57.2985 45.4247 57.1262 45.3493C56.954 45.2739 56.7683 45.2336 56.5801 45.2308L56.5766 45.2325Z" fill="#42250D"/>
<path d="M46.4526 54.5087L46.0044 54.0646C46.499 53.2104 47.1121 52.428 47.8214 51.7412C48.5057 51.038 49.2862 50.4341 50.1398 49.9475L50.5881 50.3916C49.7614 50.9201 48.9886 51.5186 48.2696 52.1871C47.5944 52.9052 46.9863 53.6811 46.4526 54.5087ZM43.7735 51.8488L43.3252 51.4013C43.8216 50.5471 44.433 49.7664 45.144 49.0796C45.8298 48.3781 46.61 47.7744 47.4624 47.2859L47.909 47.7318C47.0823 48.2591 46.3101 48.857 45.5922 49.5255C44.9164 50.2435 44.3077 51.0212 43.7735 51.8488ZM41.3468 49.4333L40.8986 48.9874C41.3932 48.1332 42.0063 47.3525 42.7156 46.6641C43.4 45.9614 44.1805 45.3581 45.034 44.872L45.4823 45.3196C44.6579 45.8458 43.88 46.4471 43.1638 47.1133C42.4883 47.832 41.8826 48.6053 41.3468 49.4333Z" fill="#603913"/>
<path d="M86.2943 89.3826L83.7801 81.005L59.1853 56.5399L52.6249 63.0657L77.2196 87.5291L85.6417 90.0301C85.7319 90.0527 85.8264 90.0516 85.9161 90.027C86.0057 90.0024 86.0874 89.9551 86.1532 89.8897C86.2189 89.8243 86.2665 89.743 86.2913 89.6538C86.316 89.5647 86.3171 89.4723 86.2943 89.3826Z" fill="#939598"/>
<path d="M86.1467 89.8815C86.2138 89.819 86.2629 89.7398 86.2889 89.6521C86.3148 89.5643 86.3167 89.4713 86.2944 89.3826L83.7801 81.005L59.1854 56.5399L55.9052 59.8028C55.9052 59.8028 86.0162 90.0079 86.1467 89.8815Z" fill="#BCBEC0"/>
<path d="M59.1853 56.5348L52.6249 63.0623" stroke="#414042" stroke-width="0.314" stroke-miterlimit="10"/>
<path d="M42.0252 90.6725C41.7533 90.6684 41.491 90.5715 41.2825 90.3979C41.0739 90.2244 40.9317 89.9847 40.8797 89.7192C40.849 89.5485 40.859 89.3729 40.9089 89.2067L43.4626 80.6787L72.1173 52.1769L79.5673 59.5859L50.9041 88.0878L42.324 90.6298C42.2249 90.6598 42.1219 90.6747 42.0183 90.6742L42.0252 90.6725Z" fill="#636362"/>
<path d="M72.107 53.0601L78.6674 59.5859L50.5812 87.5342L42.1436 90.0284C42.1027 90.0392 42.0606 90.0449 42.0183 90.0455C41.9375 90.0433 41.8581 90.0234 41.7859 89.9872C41.7137 89.951 41.6504 89.8995 41.6006 89.8362C41.5507 89.7729 41.5155 89.6994 41.4974 89.621C41.4794 89.5426 41.479 89.4612 41.4962 89.3826L44.0087 81.005L72.107 53.0601ZM72.107 51.2919L71.2277 52.1751L43.1243 80.1235L42.8993 80.3456L42.8083 80.6496L40.294 89.0273C40.2167 89.2879 40.2024 89.5631 40.2523 89.8302C40.3021 90.0974 40.4147 90.3491 40.5808 90.5648C40.7474 90.7891 40.9638 90.972 41.2131 91.0995C41.4624 91.2269 41.738 91.2953 42.0183 91.2994C42.182 91.2994 42.3434 91.276 42.5026 91.2293L50.9247 88.7284L51.2286 88.6378L51.4536 88.4157L79.5501 60.4674L80.438 59.5825L79.5501 58.6993L72.9897 52.1734L72.1018 51.2902L72.107 51.2919Z" fill="#39373A"/>
<path d="M85.0253 43.0953L75.3993 52.6723L78.1471 55.4022L87.7714 45.827L85.0253 43.0953Z" fill="#C49A6C"/>
<path d="M90.0057 47.3133C89.813 47.3137 89.6221 47.2762 89.4441 47.2029C89.2661 47.1296 89.1044 47.0219 88.9684 46.8862L84.8569 42.7981C84.5822 42.5243 84.4279 42.1532 84.4279 41.7663C84.4279 41.3794 84.5822 41.0083 84.8569 40.7345L87.3712 38.2352C87.6464 37.9624 88.0191 37.8092 88.4077 37.8092C88.7962 37.8092 89.1689 37.9624 89.4441 38.2352L93.559 42.3266C93.8332 42.6004 93.9872 42.9711 93.9872 43.3576C93.9872 43.7441 93.8332 44.1148 93.559 44.3886L91.0464 46.8879C90.91 47.0241 90.7478 47.1319 90.5691 47.2052C90.3905 47.2786 90.1989 47.3159 90.0057 47.315" fill="#633B1A"/>
<path d="M88.4119 38.2523C88.6808 38.2538 88.9384 38.3599 89.1297 38.5478L93.2412 42.6375C93.4308 42.8273 93.5372 43.0841 93.5372 43.3516C93.5372 43.6192 93.4308 43.8759 93.2412 44.0657L90.7269 46.565C90.5359 46.7532 90.2779 46.8588 90.009 46.8588C89.7402 46.8588 89.4822 46.7532 89.2912 46.565L85.1797 42.477C84.99 42.2869 84.8836 42.0299 84.8836 41.762C84.8836 41.4942 84.99 41.2372 85.1797 41.0471L87.694 38.5478C87.8854 38.3599 88.143 38.2538 88.4119 38.2523ZM88.4119 37.3605C88.1604 37.3591 87.9111 37.4076 87.6788 37.5032C87.4464 37.5988 87.2355 37.7397 87.0586 37.9174L84.5443 40.4167C84.186 40.7744 83.9847 41.2588 83.9847 41.7637C83.9847 42.2687 84.186 42.7531 84.5443 43.1108L88.6557 47.1988C89.015 47.5552 89.5017 47.7553 90.009 47.7553C90.5164 47.7553 91.0031 47.5552 91.3624 47.1988L93.8766 44.6995C94.2344 44.3419 94.4353 43.8579 94.4353 43.3533C94.4353 42.8488 94.2344 42.3648 93.8766 42.0072L89.7652 37.9174C89.5882 37.7397 89.3774 37.5988 89.145 37.5032C88.9126 37.4076 88.6634 37.3591 88.4119 37.3605Z" fill="#42250D"/>
<path d="M81.8309 64.5144C81.4849 64.5141 81.1532 64.377 80.9087 64.1335L67.5182 50.8153C67.2738 50.5719 67.1366 50.2419 67.1366 49.8979C67.1366 49.5539 67.2738 49.224 67.5182 48.9806L70.5305 45.9841C70.6183 45.8895 70.7244 45.8135 70.8425 45.7607C70.9605 45.7079 71.088 45.6793 71.2175 45.6766C71.8598 45.6766 72.2805 46.36 72.4007 46.9955L72.7477 48.8371C72.7648 48.9191 72.8026 48.9897 72.861 49.0489L82.6845 58.8206C82.7426 58.8784 82.8167 58.9177 82.8974 58.9333L84.7505 59.2801C85.24 59.3706 85.8702 59.6679 86.0386 60.2026C86.0897 60.3681 86.0911 60.5449 86.0426 60.7113C85.9941 60.8776 85.8978 61.0262 85.7655 61.1388L82.7532 64.1352C82.6325 64.2562 82.4888 64.3521 82.3305 64.4173C82.1721 64.4824 82.0023 64.5154 81.8309 64.5144Z" fill="#633B1A"/>
<path d="M71.2191 46.1225C71.566 46.1225 71.8665 46.5769 71.961 47.0792L72.3045 48.9191C72.3354 49.0882 72.4178 49.2436 72.5397 49.3632L82.3632 59.1349C82.4852 59.2562 82.6414 59.3399 82.8098 59.3706L84.6611 59.7157C85.3378 59.8439 85.9285 60.3376 85.4425 60.821L82.4302 63.8191C82.2693 63.9782 82.0517 64.0675 81.8248 64.0675C81.598 64.0675 81.3803 63.9782 81.2194 63.8191L67.8307 50.4993C67.6713 50.3393 67.5818 50.1232 67.5818 49.8979C67.5818 49.6727 67.6713 49.4566 67.8307 49.2966L70.843 46.3002C70.8888 46.2467 70.9453 46.2032 71.0088 46.1723C71.0724 46.1414 71.1416 46.1239 71.2122 46.1208M71.2122 45.2274C71.0239 45.2304 70.8381 45.2709 70.6658 45.3466C70.4936 45.4224 70.3383 45.5317 70.2092 45.6681L67.2038 48.6662C67.041 48.8281 66.9119 49.0202 66.8238 49.2317C66.7357 49.4432 66.6903 49.6699 66.6903 49.8988C66.6903 50.1277 66.7357 50.3544 66.8238 50.5659C66.9119 50.7774 67.041 50.9695 67.2038 51.1314L80.5909 64.4512C80.7536 64.6134 80.9469 64.7421 81.1596 64.8299C81.3724 64.9177 81.6005 64.9629 81.8308 64.9629C82.0612 64.9629 82.2893 64.9177 82.502 64.8299C82.7148 64.7421 82.9081 64.6134 83.0708 64.4512L86.0831 61.4531C86.2713 61.2816 86.4071 61.0608 86.4748 60.8161C86.5426 60.5713 86.5395 60.3125 86.4661 60.0694C86.2428 59.345 85.4751 58.9589 84.8328 58.8394L82.9952 58.4977L73.1889 48.7431L72.8437 46.9152C72.6634 45.9226 71.9885 45.2325 71.2277 45.2325L71.2122 45.2274Z" fill="#42250D"/>
<path d="M81.3482 54.5087L81.7965 54.0645C81.3001 53.2109 80.6882 52.4291 79.9778 51.7412C79.2935 51.038 78.513 50.4341 77.6593 49.9475L77.2128 50.3916C78.0394 50.9201 78.8117 51.5186 79.5295 52.1871C80.205 52.9057 80.8113 53.6785 81.3482 54.5087ZM84.0205 51.8488L84.4705 51.4013C83.9734 50.5481 83.3609 49.7669 82.65 49.0796C81.9647 48.3782 81.1851 47.7745 80.3333 47.2859L79.885 47.7318C80.7094 48.2579 81.4874 48.8593 82.2035 49.5255C82.8767 50.243 83.4864 51.022 84.0205 51.8488ZM86.4506 49.4333L86.8971 48.9874C86.4013 48.1338 85.7899 47.3521 85.0801 46.664C84.3958 45.9608 83.6153 45.3569 82.7617 44.8703L82.3134 45.3162C83.1412 45.8446 83.914 46.4431 84.6319 47.1116C85.3074 47.8314 85.9136 48.6053 86.4506 49.4333Z" fill="#603913"/>
<path d="M41.503 89.3826L44.0156 81.005L68.6138 56.5399L75.1794 63.0623L50.5812 87.5291L42.1436 90.0267C42.0549 90.0459 41.9626 90.0426 41.8755 90.0169C41.7884 89.9913 41.7092 89.9441 41.6453 89.8799C41.5814 89.8156 41.5348 89.7363 41.51 89.6494C41.4851 89.5625 41.4827 89.4707 41.503 89.3826Z" fill="#939598"/>
<path d="M41.6508 89.8815C41.5837 89.819 41.5346 89.7398 41.5087 89.6521C41.4827 89.5643 41.4808 89.4713 41.5031 89.3826L44.0174 81.005L68.6122 56.5399L71.8924 59.8028C71.8924 59.8028 41.7865 90.0062 41.6491 89.8797" fill="#BCBEC0"/>
<path d="M68.6122 56.5348L75.1726 63.0623" stroke="#414042" stroke-width="0.314" stroke-miterlimit="10"/>
<path d="M70.5357 67.8269L63.9752 74.3527L67.4615 77.8207L74.022 71.2948L70.5357 67.8269Z" fill="black" fill-opacity="0.2"/>
<path d="M39.6758 38.2984C39.5005 38.2452 39.314 38.2404 39.1362 38.2843C38.9584 38.3282 38.7958 38.4193 38.6659 38.5478L34.5545 42.6375C34.3653 42.8275 34.2592 43.0842 34.2592 43.3516C34.2592 43.619 34.3653 43.8757 34.5545 44.0657L36.4247 45.9244C36.5996 45.9774 36.7856 45.9823 36.9631 45.9387C37.1406 45.8951 37.3029 45.8046 37.4328 45.6766L41.5443 41.5869C41.7335 41.3969 41.8396 41.1403 41.8396 40.8728C41.8396 40.6054 41.7335 40.3487 41.5443 40.1587L39.6758 38.2984ZM56.5921 46.1242C56.2314 46.114 55.9309 46.5718 55.8364 47.0775L55.4878 48.9191C55.4558 49.0872 55.3739 49.242 55.2525 49.3632L45.429 59.1383C45.3064 59.2587 45.1502 59.3397 44.9808 59.3706L43.1294 59.7174C42.4528 59.8439 41.862 60.3393 42.348 60.8227L44.6837 63.1461C44.826 63.1801 44.9747 63.1775 45.1156 63.1383C45.2566 63.0991 45.3852 63.0248 45.4891 62.9223L58.8779 49.6024C59.0373 49.4424 59.1268 49.2263 59.1268 49.0011C59.1268 48.7758 59.0373 48.5597 58.8779 48.3997L56.5921 46.1242ZM84.3709 59.931C84.4405 59.8644 84.4934 59.7824 84.5254 59.6918L82.8132 59.3724C82.6441 59.3406 82.4886 59.2591 82.3667 59.1383L81.6934 58.4686C81.5409 58.4321 81.4013 58.3547 81.2899 58.2449L71.4664 48.4732C71.345 48.3519 71.263 48.1972 71.2311 48.029L70.8962 46.2541L70.8481 46.2951L67.8358 49.2915C67.6764 49.4514 67.587 49.6676 67.587 49.8928C67.587 50.1181 67.6764 50.3342 67.8358 50.4941L80.5497 63.1409C80.6921 63.1755 80.841 63.1733 80.9823 63.1344C81.1236 63.0955 81.2525 63.0213 81.3568 62.9189L84.3709 59.931ZM88.7004 38.2984C88.5254 38.2456 88.3393 38.2409 88.1618 38.2848C87.9843 38.3287 87.8221 38.4196 87.6923 38.5478L85.178 41.0471C84.9888 41.2371 84.8827 41.4937 84.8827 41.7611C84.8827 42.0286 84.9888 42.2852 85.178 42.4752L88.642 45.9278C88.8169 45.9808 89.0029 45.9857 89.1804 45.9421C89.3579 45.8985 89.5202 45.808 89.6501 45.6801L92.1644 43.1791C92.3536 42.989 92.4597 42.7324 92.4597 42.465C92.4597 42.1975 92.3536 41.9409 92.1644 41.7509L88.7004 38.2984Z" fill="#916136"/>
<path d="M38.5337 39.431L36.4076 41.5442C36.3149 41.6364 36.2628 41.7614 36.2628 41.8918C36.2628 42.0222 36.3149 42.1473 36.4076 42.2395C36.5003 42.3317 36.626 42.3835 36.7571 42.3835C36.8882 42.3835 37.0139 42.3317 37.1066 42.2395L39.2293 40.1245C39.3217 40.0326 39.3737 39.9078 39.3737 39.7778C39.3737 39.6477 39.3217 39.5229 39.2293 39.431C39.1368 39.339 39.0114 39.2873 38.8806 39.2873C38.7499 39.2873 38.6262 39.339 38.5337 39.431ZM54.9812 50.3148L49.5679 55.6977C49.4846 55.7915 49.4403 55.9133 49.444 56.0384C49.4478 56.1635 49.4994 56.2825 49.5883 56.3712C49.6771 56.4598 49.7966 56.5114 49.9224 56.5154C50.0482 56.5195 50.1707 56.4757 50.2652 56.393L55.6801 51.0066C55.7633 50.9127 55.8073 50.7907 55.8032 50.6656C55.7991 50.5405 55.7473 50.4216 55.6582 50.3332C55.5691 50.2448 55.4495 50.1935 55.3237 50.1898C55.1979 50.186 55.0754 50.2318 54.9812 50.3148ZM87.8623 39.5864L89.9885 41.6996C90.0343 41.7452 90.0886 41.7813 90.1484 41.8059C90.2082 41.8306 90.2724 41.8433 90.3371 41.8433C90.4018 41.8433 90.466 41.8306 90.5258 41.8059C90.5856 41.7813 90.6399 41.7452 90.6857 41.6996C90.7315 41.6541 90.7678 41.6 90.7926 41.5405C90.8174 41.481 90.8301 41.4172 90.8301 41.3528C90.8301 41.2884 90.8174 41.2247 90.7926 41.1652C90.7678 41.1057 90.7315 41.0516 90.6857 41.006L88.5613 38.8911C88.5154 38.8455 88.4609 38.8093 88.401 38.7846C88.341 38.7598 88.2767 38.7471 88.2118 38.7471C88.1469 38.7471 88.0827 38.7598 88.0227 38.7846C87.9627 38.8093 87.9082 38.8455 87.8623 38.8911C87.8164 38.9368 87.78 38.991 87.7552 39.0506C87.7304 39.1103 87.7176 39.1742 87.7176 39.2388C87.7176 39.3033 87.7304 39.3673 87.7552 39.4269C87.78 39.4866 87.8164 39.5408 87.8623 39.5864ZM71.4132 50.4668L76.8281 55.8532C76.9226 55.9359 77.0452 55.9797 77.1709 55.9756C77.2967 55.9715 77.4162 55.9199 77.5051 55.8313C77.5939 55.7427 77.6455 55.6237 77.6493 55.4986C77.653 55.3735 77.6087 55.2516 77.5254 55.1579L72.1121 49.7732C72.0179 49.6903 71.8954 49.6462 71.7696 49.65C71.6438 49.6537 71.5242 49.705 71.4351 49.7934C71.346 49.8818 71.2942 50.0007 71.2901 50.1258C71.286 50.2509 71.33 50.3728 71.4132 50.4668Z" fill="#B78358"/>
<defs>
<clipPath id="clip0_6091_892">
<rect width="108" height="108" fill="white" transform="translate(10 10)"/>
</clipPath>
</defs>
</svg>
