<svg width="48" height="48" viewBox="0 0 48 48" fill="none" xmlns="http://www.w3.org/2000/svg">
<path d="M6.59102 37.5318C5.76602 37.5318 5.09473 36.8605 5.09473 36.0351V11.9644C5.09473 11.1394 5.76602 10.4681 6.59102 10.4681H41.4094C42.234 10.4681 42.9053 11.1394 42.9053 11.9644V36.0351C42.9053 36.8605 42.234 37.5318 41.4094 37.5318H6.59102Z" fill="white" stroke="#223948" stroke-width="1.4"/>
<path d="M5.03809 13.5207C5.03809 13.5207 23.0019 26.8029 24.0003 26.8029C24.9982 26.8029 42.8088 13.5207 42.8088 13.5207" fill="#FFFFFE"/>
<path d="M5.03809 13.5207C5.03809 13.5207 23.0019 26.8029 24.0003 26.8029C24.9982 26.8029 42.8088 13.5207 42.8088 13.5207" stroke="#223948" stroke-width="1.2" stroke-miterlimit="10"/>
<path d="M28.1471 24.3017L42.8083 35.0989M5.03809 35.0989L19.6958 24.2181" stroke="#223948" stroke-width="1.2" stroke-miterlimit="10"/>
</svg>
