<svg width="12" height="12" viewBox="0 0 12 12" fill="none" xmlns="http://www.w3.org/2000/svg">
<path d="M4.45382 0.0392314C2.35352 0.347191 0.63693 1.89709 0.142147 3.93164C0.00078099 4.53241 -0.0396094 5.28969 0.0411714 5.88037C0.354197 8.11181 2.05059 9.87879 4.28721 10.2827C4.66082 10.3483 5.47368 10.3634 5.86748 10.3079C6.4279 10.2322 6.94793 10.0706 7.4629 9.82326L7.6901 9.71219V8.85899C7.6901 7.89472 7.70525 7.76346 7.86176 7.47065C8.04856 7.11725 8.36159 6.92036 8.76549 6.90017C9.06842 6.88502 9.28047 6.95065 9.58845 7.15259C9.71467 7.23842 9.83584 7.31414 9.85099 7.32424C9.91662 7.36463 10.1842 6.60735 10.2852 6.08231C10.366 5.67338 10.371 4.69396 10.2953 4.29008C9.88128 2.0334 8.1243 0.342142 5.88768 0.0291344C5.53426 -0.0112538 4.79714 -0.0112538 4.45382 0.0392314ZM5.43834 1.90718C5.5696 1.97786 5.64534 2.10407 5.67563 2.28582C5.69078 2.37165 5.70087 2.93708 5.70087 3.5429V4.64853L6.79646 4.65862C7.73049 4.66872 7.90215 4.67377 7.97788 4.70911C8.29091 4.85047 8.38179 5.2493 8.15964 5.50173C8.00817 5.67338 8.01827 5.67338 6.26129 5.67338H4.68102L4.69111 3.91144L4.70121 2.14951L4.76685 2.05359C4.86277 1.91223 4.98394 1.8567 5.18085 1.85165C5.29697 1.85165 5.36765 1.87184 5.43834 1.90718Z" fill="white"/>
<path d="M8.61849 7.62203C8.51247 7.67756 8.45188 7.73814 8.39635 7.82902C8.36101 7.8997 8.35596 8.09154 8.35596 9.77775C8.35596 11.5649 8.35596 11.6507 8.40645 11.7467C8.49732 11.9335 8.77501 12.0496 8.96686 11.9789C9.08803 11.9385 11.7538 10.1614 11.8194 10.0807C11.9406 9.92415 11.9457 9.67677 11.8295 9.52027C11.8043 9.48493 11.158 9.03561 10.3957 8.52571L9.0123 7.59679L8.85579 7.58669C8.74471 7.58164 8.67403 7.59174 8.61849 7.62203Z" fill="white"/>
</svg>
