<svg width="48" height="48" viewBox="0 0 48 48" fill="none" xmlns="http://www.w3.org/2000/svg">
<path d="M23.9878 42.8488C16.2187 42.8488 12.7579 41.8752 12.4754 39.6496C12.3342 38.6759 12.3342 37.1459 12.4048 35.4766V33.1119C12.4048 30.6082 15.3711 25.6702 19.6088 25.0442L20.0325 24.9746L20.1738 25.1833C20.4563 25.1833 21.3038 25.4614 23.9878 25.6006C26.7422 25.4614 27.5191 25.2529 27.8015 25.1833L27.9428 24.9746H28.3667C32.6043 25.6702 35.5 30.6082 35.5 33.1119L35.6411 35.4766V39.6496C35.2879 41.8752 31.8272 42.8488 24.0583 42.8488H23.9878Z" fill="white"/>
<path d="M20.5487 24.5759C20.5748 24.5804 20.6009 24.5833 20.6251 24.5876C20.7883 24.6162 20.996 24.6538 21.2772 24.6957C21.8334 24.7787 22.6858 24.8806 23.9894 24.9491C26.093 24.8418 26.9987 24.6932 27.4057 24.6066L27.5976 24.3235H28.4204L28.4723 24.332C30.8099 24.7157 32.7258 26.2555 34.04 27.9688C35.3321 29.6535 36.1368 31.6303 36.151 33.0731L36.292 35.4376L36.2931 35.4567V39.701L36.2846 39.7519C36.0456 41.2568 34.7562 42.1701 32.8058 42.7112C30.8359 43.2576 27.9542 43.5001 24.0594 43.5001H23.9883C20.0935 43.5001 17.211 43.2579 15.2494 42.7112C13.3142 42.1718 12.0298 41.2566 11.832 39.7424L11.831 39.7434C11.6809 38.7091 11.6841 37.1358 11.7536 35.4768V33.1123C11.7536 31.662 12.5833 29.6621 13.9049 27.972C15.2355 26.2706 17.168 24.7506 19.5043 24.402V24.4009L19.9274 24.332L20.3388 24.2642L20.5487 24.5759ZM13.0567 35.5044C12.9949 36.9649 12.9889 38.277 13.0768 39.19L13.1203 39.5558L13.1224 39.5674L13.1447 39.6989C13.289 40.3564 13.9087 40.9846 15.5993 41.4558C17.3809 41.9523 20.1141 42.197 23.9883 42.197H24.0594C27.9329 42.197 30.6661 41.9526 32.4569 41.4558C34.2322 40.9634 34.8587 40.2938 34.99 39.5886V35.4906L34.85 33.1505L34.849 33.1314V33.1123C34.849 32.0548 34.2095 30.3309 33.0062 28.7619C31.8219 27.218 30.186 25.9493 28.3037 25.6256H28.2889L28.2009 25.756L27.9581 25.8154C27.6269 25.897 26.8074 26.1104 24.0212 26.2512L23.9883 26.2533L23.9544 26.2512C22.5932 26.1806 21.6897 26.0741 21.0852 25.984C20.7841 25.939 20.5582 25.8984 20.3992 25.8705C20.3182 25.8563 20.2614 25.847 20.2179 25.8408C20.1712 25.8342 20.1631 25.8345 20.1744 25.8345H19.8288L19.727 25.685L19.7153 25.6871L19.7047 25.6892V25.6881C17.8081 25.9683 16.1414 27.2273 14.9313 28.7747C13.7103 30.3361 13.0567 32.059 13.0567 33.1123V35.5044Z" fill="#223948"/>
<path d="M23.919 26.4333C23.4246 26.4333 22.2239 26.4333 21.8002 26.2941C19.6107 25.8769 14.5962 23.9295 14.5962 15.1663C14.5962 8.69816 17.845 5.15112 23.8484 5.15112C29.9224 5.15112 33.3831 8.76771 33.3831 15.0967C33.3831 23.3731 29.3574 25.7377 25.8966 26.2941L23.919 26.3637V26.4333Z" fill="white"/>
<path d="M32.7312 15.0967C32.7312 12.0473 31.8988 9.74204 30.4229 8.20162C28.9507 6.66521 26.7549 5.80217 23.848 5.80217C20.976 5.80217 18.858 6.64784 17.4502 8.17511C16.0345 9.71098 15.2469 12.0339 15.2469 15.1667C15.247 19.4168 16.4598 21.9238 17.8531 23.4148C19.0813 24.7291 20.5033 25.3104 21.5153 25.564L21.9214 25.6541L21.9628 25.6626L22.0031 25.6753C22.114 25.7117 22.4265 25.7473 22.8598 25.7655C22.9964 25.7712 23.1346 25.7725 23.267 25.775V25.7347L25.8244 25.6446C27.4429 25.3791 29.1399 24.7015 30.4409 23.1688C31.7511 21.6252 32.7312 19.1316 32.7312 15.0967ZM34.0343 15.0967C34.0343 19.3378 33.002 22.1648 31.4344 24.0117C29.8659 25.8595 27.832 26.6424 25.9993 26.9371L25.9601 26.9434L25.9188 26.9456L24.5701 26.9922V27.0845H23.919C23.6728 27.0845 23.236 27.0845 22.8057 27.0664C22.4297 27.0507 21.9611 27.0174 21.6468 26.9265C20.4632 26.6962 18.5375 26.0557 16.9009 24.3044C15.2398 22.5266 13.9449 19.6792 13.9448 15.1667C13.9448 11.8315 14.7822 9.14655 16.4917 7.29189C18.2091 5.42863 20.7167 4.50013 23.848 4.50012C27.0152 4.50012 29.5867 5.44623 31.3634 7.30037C33.1361 9.15048 34.0343 11.8175 34.0343 15.0967Z" fill="#223948"/>
</svg>
