<svg width="48" height="48" viewBox="0 0 48 48" fill="none" xmlns="http://www.w3.org/2000/svg">
<path d="M23.2044 41.9947C19.1646 40.7038 6.13079 35.1114 7.98797 17.3307C8.01341 16.9482 8.014 16.8531 8.01449 16.6403C7.9681 14.7155 6.54715 13.1558 6.53276 13.1403L6.33789 12.9294V12.6421C6.33789 12.5018 6.33789 12.4872 7.01773 10.3278C7.14438 9.92541 7.32623 9.35118 7.47285 8.90105C7.53755 8.70256 7.59245 8.53705 7.63248 8.42107C7.71255 8.1893 7.84663 7.80133 8.31967 7.75239C8.34746 7.74955 8.3779 7.74769 8.41147 7.74769C8.64686 7.74769 8.90574 7.82795 9.68835 8.08164C11.091 8.53627 13.7017 9.3824 16.069 9.38221C16.4383 9.38221 16.7918 9.36126 17.1198 9.32015C19.7419 8.991 21.9775 7.52307 23.0802 6.6742L23.995 5.94092L24.9098 6.6742C26.0124 7.52307 28.2483 8.991 30.8702 9.32015C31.1985 9.36136 31.5519 9.38221 31.921 9.38221C34.2885 9.38221 36.8996 8.53598 38.3023 8.08135C39.0845 7.82785 39.3432 7.74769 39.5785 7.74769C39.6118 7.74769 39.6427 7.74955 39.6703 7.75239C40.1432 7.80123 40.2773 8.1893 40.3574 8.42107C40.3974 8.53715 40.4523 8.70256 40.5171 8.90105C40.6638 9.35128 40.8454 9.92541 40.9721 10.3278C41.6518 12.4872 41.6518 12.5019 41.6518 12.6421V12.9294L41.457 13.1403C41.4438 13.1546 40.0215 14.7315 39.9753 16.6403C39.9757 16.8531 39.9763 16.9481 40.0018 17.3308C41.8591 35.1115 28.8253 40.7038 24.7854 41.9947L23.995 42.2334L23.2044 41.9947Z" fill="#4F8FAF"/>
<path d="M23.9946 6.88165L24.4559 7.25142C25.6788 8.19366 28.0102 9.70084 30.7785 10.0483C31.1513 10.0952 31.5338 10.1161 31.9207 10.1161C35.3346 10.1161 39.0994 8.48161 39.5782 8.48161C39.5843 8.48161 39.5897 8.48181 39.5946 8.4823C39.6361 8.4866 40.9178 12.6002 40.9178 12.642C40.9178 12.642 39.2904 14.4037 39.2412 16.6326C39.2417 16.8629 39.2421 16.9731 39.2703 17.3932C41.0789 34.6477 28.4767 40.0443 24.5619 41.2951L23.9946 41.4666L23.4274 41.2954C19.5125 40.0446 6.91044 34.6479 8.71908 17.3935C8.74717 16.9734 8.74765 16.863 8.74805 16.6328C8.69901 14.404 7.07145 12.6423 7.07145 12.6423C7.07145 12.6005 8.35302 8.4869 8.39472 8.48259C8.40015 8.48209 8.40561 8.48187 8.41106 8.48191C8.89045 8.48191 12.6548 10.1164 16.0686 10.1164C16.4554 10.1164 16.8383 10.0954 17.2108 10.0486C19.9789 9.70114 22.3105 8.19396 23.5333 7.25171L23.9946 6.88165ZM23.9946 5L23.0763 5.73612L22.6264 6.09689C21.5809 6.90083 19.4732 8.28479 17.028 8.59172C16.73 8.62911 16.4072 8.6481 16.0686 8.6481C13.8172 8.6481 11.2781 7.82526 9.91403 7.38306C9.10754 7.12174 8.77379 7.01358 8.41126 7.01358C8.35429 7.01358 8.29782 7.01642 8.24262 7.0222C8.03248 7.04402 7.31897 7.17919 7.00254 8.00281C6.98669 8.04411 6.96476 8.1045 6.93824 8.18133C6.89762 8.29888 6.84408 8.45998 6.77449 8.67374C6.627 9.12671 6.44436 9.70339 6.31722 10.1072C5.60352 12.3743 5.60352 12.3743 5.60352 12.642V13.2252L5.99051 13.6353C6.05169 13.7043 7.23725 15.0647 7.28002 16.6485C7.27963 16.8409 7.27875 16.9271 7.25614 17.2682C6.8202 21.4584 7.17529 25.3034 8.31162 28.6973C9.27432 31.5731 10.8023 34.1465 12.8531 36.3466C16.4466 40.2016 20.7408 41.9779 22.9806 42.6937L22.9919 42.6973L23.0033 42.7007L23.5704 42.8719L23.9947 43L24.4189 42.8719L24.9861 42.7007L24.9975 42.6973L25.0087 42.6937C27.2486 41.978 31.5429 40.2016 35.1362 36.3466C37.187 34.1464 38.7148 31.5731 39.6777 28.6973C40.814 25.3033 41.169 21.4583 40.7331 17.2682C40.7106 16.9271 40.7097 16.8409 40.7092 16.6485C40.7521 15.0645 41.938 13.7041 41.9988 13.6353L42.3963 13.214L42.3859 12.6419C42.3859 12.3742 42.3859 12.3742 41.6722 10.1071C41.5451 9.70319 41.3625 9.12651 41.215 8.67364C41.1454 8.45989 41.0918 8.29878 41.0511 8.18123C41.0246 8.1044 41.0028 8.04411 40.9869 8.00271C40.6705 7.17919 39.9571 7.04393 39.7459 7.022C39.6905 7.01623 39.6343 7.01349 39.5784 7.01349C39.216 7.01349 38.8822 7.12154 38.0758 7.38287C36.7116 7.82507 34.1725 8.648 31.9208 8.648C31.582 8.648 31.2593 8.62901 30.9613 8.59162C28.5162 8.28469 26.4082 6.90073 25.3629 6.09679L24.9129 5.73602L23.9946 5Z" fill="#223948"/>
<path d="M23.9945 6.88159L23.5331 7.25136C22.3103 8.19361 19.9788 9.70079 17.2107 10.0483C13.5097 10.5129 8.84156 8.43604 8.39446 8.48234C8.35287 8.48665 7.07129 12.6001 7.07129 12.642C7.07129 12.642 8.69885 14.4037 8.74789 16.6325C8.7474 16.8628 8.74701 16.973 8.71892 17.3932C6.91019 34.6479 19.5124 40.0444 23.4273 41.2953L23.9945 41.4665V6.88159Z" fill="url(#paint0_linear_221_1465)"/>
<path d="M23.9945 8.13038C25.2766 9.0968 27.7347 10.6527 30.6562 11.0196C31.055 11.0696 31.4802 11.095 31.9204 11.095C34.5588 11.095 37.3373 10.1946 38.83 9.71067C38.8744 9.69638 38.9195 9.6817 38.9648 9.66702C39.2315 10.4956 39.6244 11.7507 39.8324 12.4278C39.2817 13.1639 38.304 14.7295 38.2624 16.6112L38.2622 16.6229V16.6347C38.2629 16.8911 38.2643 17.0228 38.2935 17.4588L38.2947 17.4772L38.2968 17.4956C39.039 24.577 37.3735 30.3581 33.3463 34.6784C30.1361 38.1223 26.2857 39.7162 24.2713 40.3608L23.9945 40.4441L23.7178 40.3605C21.7033 39.7159 17.8529 38.122 14.6427 34.6781C10.6155 30.3578 8.95 24.5766 9.69229 17.4953L9.69424 17.4769L9.69552 17.4585C9.72468 17.0225 9.72615 16.8908 9.72674 16.6345V16.6226L9.72644 16.6109C9.68504 14.7291 8.70737 13.1635 8.15653 12.4274C8.36451 11.7504 8.75748 10.4953 9.02419 9.66673C9.06951 9.68141 9.11482 9.69609 9.15945 9.71048C10.652 10.1942 13.4303 11.0947 16.0684 11.0947C16.5085 11.0947 16.9338 11.0693 17.3325 11.0193C20.2543 10.6528 22.7123 9.0968 23.9945 8.13038ZM23.9945 6.88159L23.5331 7.25136C22.3103 8.19361 19.9788 9.70079 17.2107 10.0483C16.8381 10.0951 16.4553 10.1161 16.0685 10.1161C12.6547 10.1161 8.8903 8.48156 8.4109 8.48156C8.40493 8.48156 8.39955 8.48175 8.39456 8.48234C8.35296 8.48665 7.07129 12.6001 7.07129 12.642C7.07129 12.642 8.69885 14.4037 8.74789 16.6325C8.7474 16.8628 8.74701 16.973 8.71892 17.3932C6.91019 34.6479 19.5124 40.0444 23.4273 41.2953L23.9945 41.4665L24.5617 41.2953C28.4765 40.0445 41.0787 34.6479 39.27 17.3935C39.2418 16.9733 39.2414 16.863 39.241 16.6328C39.2899 14.404 40.9175 12.6423 40.9175 12.6423C40.9175 12.6004 39.6359 8.48694 39.5943 8.48263C39.5894 8.48205 39.5839 8.48185 39.5779 8.48185C39.099 8.48185 35.3344 10.1164 31.9204 10.1164C31.5335 10.1164 31.151 10.0953 30.7782 10.0486C28.01 9.70108 25.6785 8.1939 24.4557 7.25166L23.9945 6.88159Z" fill="white"/>
<mask id="mask0_221_1465" style="mask-type:luminance" maskUnits="userSpaceOnUse" x="14" y="14" width="20" height="20">
<path d="M33.3906 14.7781H14.5986V33.5701H33.3906V14.7781Z" fill="white"/>
</mask>
<g mask="url(#mask0_221_1465)">
<path d="M22.7879 30.845C22.5487 30.845 22.324 30.7521 22.1547 30.5831L15.4555 23.8963C15.093 23.5344 15.093 22.9455 15.4555 22.5837L17.4451 20.5981C17.6206 20.4227 17.854 20.3261 18.1025 20.3261C18.351 20.3261 18.5846 20.4227 18.76 20.5981L22.7774 24.6084L29.4394 17.5416C29.625 17.3558 29.8585 17.2594 30.107 17.2594C30.3555 17.2594 30.5889 17.356 30.7644 17.5313L32.7538 19.5171C33.1161 19.879 33.1161 20.4677 32.7538 20.8297L23.4287 30.5754C23.252 30.7521 23.0271 30.845 22.7879 30.845Z" fill="#CCEFFE"/>
<path d="M30.1064 17.7337C30.2227 17.7337 30.3391 17.7779 30.4277 17.8666L32.4171 19.8524C32.5945 20.0296 32.5945 20.3168 32.4171 20.4941L23.0844 30.2475C23.0025 30.3295 22.8949 30.3702 22.7875 30.3702C22.68 30.3702 22.5724 30.3293 22.4905 30.2475L15.7913 23.5609C15.6138 23.3835 15.6138 23.0965 15.7913 22.9193L17.7807 20.9334C17.8694 20.8447 17.9856 20.8005 18.102 20.8005C18.2184 20.8005 18.3345 20.8447 18.4233 20.9334L22.7875 25.2896L29.7852 17.8666C29.8738 17.7779 29.9902 17.7337 30.1064 17.7337ZM30.1064 16.7848C29.7308 16.7848 29.378 16.9309 29.1126 17.1959L29.1025 17.2059L29.0928 17.2163L22.7667 23.9269L19.0956 20.2625C18.8304 19.9975 18.4774 19.8516 18.102 19.8516C17.7265 19.8516 17.3736 19.9977 17.1082 20.2627L15.119 22.2485C14.5712 22.7948 14.571 23.6846 15.1188 24.2315L21.818 30.9184C22.0769 31.1769 22.4213 31.3192 22.7873 31.3192C23.1535 31.3192 23.4979 31.1769 23.7568 30.9182L23.7644 30.9106L23.7718 30.9029L33.0991 21.1551C33.6368 20.6073 33.6338 19.725 33.0894 19.1817L31.1 17.1957C30.8348 16.9307 30.4818 16.7848 30.1064 16.7848Z" fill="#223948"/>
</g>
<defs>
<linearGradient id="paint0_linear_221_1465" x1="15.5329" y1="6.88157" x2="15.5329" y2="41.4665" gradientUnits="userSpaceOnUse">
<stop offset="0.227" stop-color="#C0E9FF"/>
<stop offset="0.3403" stop-color="#BCE6FC" stop-opacity="0.8169"/>
<stop offset="0.4578" stop-color="#AFDCF3" stop-opacity="0.6272"/>
<stop offset="0.5771" stop-color="#9BCBE5" stop-opacity="0.4344"/>
<stop offset="0.6977" stop-color="#7EB4D0" stop-opacity="0.2395"/>
<stop offset="0.8183" stop-color="#5997B6" stop-opacity="0.0447"/>
<stop offset="0.8459" stop-color="#4F8FAF" stop-opacity="0"/>
</linearGradient>
</defs>
</svg>
