<svg xmlns="http://www.w3.org/2000/svg" width="150" height="150" fill="none" xmlns:v="https://vecta.io/nano"><g clip-path="url(#A)"><path d="M67.675 137.025c-28.395 0-41.043-3.475-42.076-11.418-.516-3.475-.516-8.936-.258-14.893v-8.44c0-8.936 10.842-26.559 26.33-28.793l1.549-.248.516.745c1.032 0 4.13.993 13.939 1.489 10.067-.496 12.907-1.241 13.939-1.489l.516-.745h1.549c15.488 2.482 26.071 20.106 26.071 29.042l.516 8.44v14.893c-1.29 7.943-13.939 11.418-42.334 11.418h-.258z" fill="#fff"/><path d="M83.161 75.955c13.939 1.986 24.007 18.12 24.007 26.311 0 7.943.774 18.121 0 22.837-.775 5.212-9.035 9.432-39.495 9.432s-38.72-4.22-39.753-9.432c-.516-4.965 0-14.894 0-22.837 0-8.191 10.325-24.325 24.265-26.559 0 0 1.033 1.489 15.488 2.234 14.197-.496 15.488-2.234 15.488-2.234v.248zm-28.653-5.461l-3.098.496c-16.262 2.482-28.395 20.602-28.395 31.275l-.516 8.44v15.141c1.549 9.929 14.714 13.653 44.915 13.653s43.367-3.972 44.657-13.653c.517-3.475.517-9.184.258-14.893v-8.688c0-10.673-12.39-29.041-28.394-31.275l-3.098-.496-1.033 1.241a70.82 70.82 0 0 1-24.781 0l-1.032-1.241h.516z" fill="#223948"/><path d="M67.422 78.438c-1.807 0-6.195 0-7.744-.496-8.002-1.489-26.33-8.439-26.33-39.715 0-23.084 11.874-35.744 33.816-35.744 22.2 0 34.848 12.907 34.848 35.496 0 29.538-14.713 37.978-27.362 39.964l-7.228.248v.248z" fill="#fff"/><path d="M67.161 4.964c24.265 0 32.267 15.39 32.267 33.013 0 24.822-10.842 35.247-25.297 37.481a61.73 61.73 0 0 1-14.197 0c-12.391-2.482-24.007-12.907-24.007-37.233 0-17.872 7.228-33.262 31.234-33.262h0zm0-4.964C43.67 0 30.764 13.404 30.764 37.978c0 33.262 19.618 40.708 28.395 42.198 1.807.496 5.163.496 8.26.496l7.744-.248c13.423-2.234 29.427-11.17 29.427-42.198C104.59 13.9 90.909 0 67.161 0z" fill="#223948"/><rect x="83.75" y="106.25" width="41.75" height="41.75" rx="20.875" fill="#1fab1c"/><g clip-path="url(#B)"><path d="M103.156 135.245c-.291 0-.565-.113-.771-.318l-8.155-8.14a1.13 1.13 0 0 1 0-1.598l2.422-2.417c.214-.213.498-.331.8-.331s.587.118.8.331l4.89 4.882 8.11-8.602a1.13 1.13 0 0 1 1.613-.013l2.421 2.417a1.13 1.13 0 0 1 0 1.598l-11.351 11.863a1.09 1.09 0 0 1-.78.328z" fill="#fff"/><path d="M112.064 119.285a.55.55 0 0 1 .391.162l2.422 2.417a.55.55 0 0 1 0 .781l-11.36 11.873c-.1.099-.231.149-.362.149a.51.51 0 0 1-.361-.149l-8.155-8.14a.55.55 0 0 1 0-.781l2.422-2.417a.55.55 0 0 1 .782 0l5.312 5.303 8.518-9.036a.55.55 0 0 1 .391-.162h0zm0-1.155a1.7 1.7 0 0 0-1.209.5l-.013.013-.012.012-7.7 8.169-4.469-4.461a1.7 1.7 0 0 0-1.209-.5c-.457 0-.887.178-1.21.5l-2.421 2.418c-.667.665-.667 1.748 0 2.414l8.155 8.139c.315.315.734.488 1.18.488s.865-.173 1.18-.488l.009-.009.009-.01 11.354-11.865c.655-.667.651-1.741-.012-2.402l-2.421-2.418c-.323-.322-.753-.5-1.21-.5h0z" fill="#223948"/></g><rect x="83.75" y="106.25" width="41.75" height="41.75" rx="20.875" stroke="#223948" stroke-width="4"/></g><defs><clipPath id="A"><path fill="#fff" d="M0 0h150v150H0z"/></clipPath><clipPath id="B"><path fill="#fff" transform="translate(93.188 115.688)" d="M0 0h22.875v22.875H0z"/></clipPath></defs></svg>