<svg width="65" height="64" fill="none" xmlns="http://www.w3.org/2000/svg"><path d="M50.789 38.308h-8.413s.285 2.075-2.35 2.589v1.467s-3.083 1.91-9.312.409v1.507s11.48 2.332 16.108-.855v-1.913s2.386-.288 3.967-3.204Z" fill="#424242"/><path d="M50.789 38.308h-8.413s.285 2.075-2.35 2.589v1.467s-3.083 1.91-9.312.409v1.507s11.48 2.332 16.108-.855v-1.913s2.386-.288 3.967-3.204Z" fill="#000" fill-opacity=".6"/><path fill-rule="evenodd" clip-rule="evenodd" d="M42.267 38.213h8.522v.095l.083.045c-.8 1.475-1.805 2.289-2.614 2.733a5.069 5.069 0 0 1-1.012.426c-.127.037-.229.06-.3.075l-.03.005v1.883l-.04.028c-1.175.809-2.777 1.263-4.51 1.494-1.735.23-3.61.237-5.338.145a49.354 49.354 0 0 1-6.299-.763l-.025-.005h-.006l-.002-.001.018-.093-.018.093-.076-.016v-1.704l.116.028c3.102.747 5.417.644 6.953.357a9.122 9.122 0 0 0 1.723-.487 5.302 5.302 0 0 0 .52-.242v-1.49l.077-.015c1.288-.251 1.849-.88 2.094-1.433a2.229 2.229 0 0 0 .181-1.031l-.001-.016v-.003l-.016-.108Zm.21.19a2.415 2.415 0 0 1-.202 1.046c-.265.6-.861 1.253-2.154 1.525v1.442l-.044.028-.05-.08.05.08h-.002l-.002.002-.007.004a1.607 1.607 0 0 1-.14.077c-.1.05-.247.12-.443.2a9.317 9.317 0 0 1-1.76.497c-1.543.288-3.846.391-6.914-.332v1.31a16.276 16.276 0 0 0 .424.079 49.21 49.21 0 0 0 5.805.672c1.721.093 3.583.085 5.303-.143 1.7-.227 3.251-.668 4.387-1.435v-1.947l.083-.01h.005l.019-.003.075-.014c.065-.013.162-.035.283-.07.243-.071.584-.196.974-.41.755-.415 1.694-1.166 2.461-2.519h-8.15Z" fill="#231F20"/><path d="M34.664 43.347V17.814a.372.372 0 0 1 .045-.183.488.488 0 0 1 .135-.156.678.678 0 0 1 .204-.106.756.756 0 0 1 .69.105c.118.09.183.211.181.337V43.33l-1.255.018Z" fill="#231F20"/><path d="M48.772 20.158H21.925c-8.852 12.428 0 20.712 0 20.712h26.511c-8.245-10.572.336-20.712.336-20.712Z" fill="#424242"/><path d="M48.772 20.158H21.925c-8.852 12.428 0 20.712 0 20.712h26.511c-8.245-10.572.336-20.712.336-20.712Z" fill="#fff" fill-opacity=".05"/><path fill-rule="evenodd" clip-rule="evenodd" d="M21.681 19.984a.3.3 0 0 1 .244-.126h26.847a.3.3 0 0 1 .229.493l-.001.002-.004.004-.017.02a11.424 11.424 0 0 0-.318.414 19.243 19.243 0 0 0-2.86 5.841c-1.095 3.785-1.18 8.859 2.872 14.054a.3.3 0 0 1-.237.484h-26.51a.3.3 0 0 1-.206-.08l.205-.22-.205.219-.002-.002-.006-.006-.021-.02a8.638 8.638 0 0 1-.352-.37c-.231-.259-.55-.64-.903-1.135a14.992 14.992 0 0 1-2.117-4.294c-1.134-3.714-1.118-8.989 3.362-15.278Zm.367 20.586h25.785c-3.821-5.21-3.71-10.294-2.61-14.104a19.842 19.842 0 0 1 2.939-6.008H22.08c-4.284 6.082-4.26 11.118-3.188 14.629a14.397 14.397 0 0 0 2.032 4.12c.338.476.642.84.86 1.083.11.121.197.213.257.274l.006.006Z" fill="#000"/><path fill-rule="evenodd" clip-rule="evenodd" d="M44.19 1.6h10.02c4.744 0 8.59 3.582 8.59 8s-3.846 8-8.59 8H44.19c-4.744 0-8.59-3.582-8.59-8s3.846-8 8.59-8Z" fill="#090909"/><path d="M43.845 8.4c.53 0 1 .1 1.41.299.414.2.74.493.977.88.237.388.356.865.356 1.433 0 .618-.13 1.152-.391 1.603-.257.446-.642.788-1.156 1.027-.509.239-1.145.358-1.907.358-.454 0-.883-.04-1.285-.117a3.742 3.742 0 0 1-1.049-.347V11.97c.3.156.66.29 1.078.399.423.106.82.159 1.19.159.364 0 .67-.047.92-.141a1.13 1.13 0 0 0 .562-.447c.13-.203.195-.461.195-.774 0-.42-.142-.74-.426-.963-.285-.223-.72-.335-1.31-.335-.224 0-.46.022-.704.065-.241.043-.443.086-.605.129l-.728-.388.326-4.373h4.697v1.538h-3.092l-.16 1.685c.134-.028.28-.055.438-.082.158-.028.38-.042.664-.042ZM47.512 11.393V9.926h3.18v1.467h-3.18ZM51.487 10.237c0-.493.035-.98.106-1.462a5.7 5.7 0 0 1 .385-1.368c.182-.43.437-.81.764-1.139a3.373 3.373 0 0 1 1.25-.78c.506-.192 1.118-.288 1.837-.288.17 0 .367.008.592.023.23.012.419.034.569.065v1.45a4.617 4.617 0 0 0-.51-.082 4.066 4.066 0 0 0-.533-.035c-.718 0-1.275.113-1.67.34a1.882 1.882 0 0 0-.83.945c-.158.4-.25.865-.278 1.398h.077c.11-.192.249-.362.415-.511.17-.149.375-.266.616-.352.24-.09.523-.135.847-.135.505 0 .944.107 1.315.322.371.212.657.519.859.922.201.403.302.894.302 1.474 0 .618-.12 1.15-.361 1.596-.241.447-.583.789-1.025 1.028-.438.235-.96.352-1.564.352a3.39 3.39 0 0 1-1.238-.223 2.758 2.758 0 0 1-1.007-.693 3.23 3.23 0 0 1-.675-1.168c-.162-.474-.243-1.033-.243-1.679Zm3.127 2.313c.36 0 .652-.121.877-.364.225-.243.338-.622.338-1.139 0-.419-.099-.747-.296-.986-.194-.243-.488-.364-.883-.364-.269 0-.505.06-.71.182a1.293 1.293 0 0 0-.469.452c-.11.18-.166.366-.166.558 0 .2.028.397.083.593.056.195.138.373.249.534.11.16.247.29.409.387.166.098.355.147.568.147Z" fill="#fff"/><path fill-rule="evenodd" clip-rule="evenodd" d="M28.672 9.573a.48.48 0 0 1 .391-.201h4.092a.48.48 0 0 1 .48.48c0 4.231 2.453 7.14 5.917 8.318a.48.48 0 0 1 .24.182l.02.026.013.013.004.004a1.414 1.414 0 0 1 .16.174.48.48 0 0 1-.379.774H36.4v.344h12.372a.48.48 0 0 1 .366.79l-.003.004-.013.016-.055.068a16.595 16.595 0 0 0-.939 1.344 19.338 19.338 0 0 0-1.871 3.891c-1.108 3.19-1.598 7.479.772 12.028h3.573a.598.598 0 0 1 .44-.052.594.594 0 0 1 .438.561V43.933a7.688 7.688 0 0 1-.005.27c-.006.181-.02.44-.047.753-.055.624-.17 1.473-.407 2.361-.467 1.741-1.459 3.815-3.602 4.437-.316.092-.69.21-1.123.348l-.02.006c-4.627 1.47-15.41 4.893-25.61-2.798a.476.476 0 0 1-.092-.091l.381-.292c10.002 7.542 20.575 4.185 25.195 2.718.432-.138.813-.258 1.135-.352C51.057 50.198 51 43.915 51 43.915v-5.567a.116.116 0 0 0-.084-.109.113.113 0 0 0-.127.051l-.01.018H46.74c-4.48-8.248.252-15.731 1.66-17.66.23-.314.37-.48.37-.48H35.92v-1.305h3.691c-.047-.06-.077-.089-.105-.115a.623.623 0 0 1-.108-.123 10.44 10.44 0 0 1-.641-.242c-3.304-1.372-5.601-4.345-5.601-8.531h-4.092c-3.852 5.404 0 9.01 0 9.01a29.7 29.7 0 0 1-.328.35l-.002-.001-.004-.004-.012-.011a2.658 2.658 0 0 1-.17-.178 6.052 6.052 0 0 1-.417-.525 6.876 6.876 0 0 1-.97-1.969c-.526-1.72-.5-4.128 1.512-6.95Zm-6.747 10.594h12.739v-1.304h-5.6l-.33.35c.09.083.207.13.33.13h5.12v.344H21.925a.48.48 0 0 0-.39.202c-3.342 4.69-4.228 8.839-3.987 12.218.168 2.36.884 4.321 1.666 5.811a31.773 31.773 0 0 1-4.819-3.778 30.824 30.824 0 0 1-1.766-1.816 21.033 21.033 0 0 1-.572-.67l-.028-.035-.007-.008-.001-.001a.48.48 0 0 0-.327-.182c-.315-.033-.635-.006-.877.183a.8.8 0 0 0-.294.714c.016.195.085.372.135.48a1.939 1.939 0 0 0 .098.186l.008.013.003.005v.002h.001l.405-.257-.405.258.009.013.083.121a124.145 124.145 0 0 0 .963 1.387c.567.805 1.244 1.75 1.657 2.255a33.04 33.04 0 0 1 1.95 2.9c.752 2.389 2.035 4.765 3.123 6.536A43.456 43.456 0 0 0 20.41 49l.12.162.032.042.009.011.003.005.381-.292s-3.62-4.732-5.084-9.437a33.51 33.51 0 0 0-2.013-2.998c-.799-.977-2.685-3.738-2.685-3.738s-.614-.963.47-.848c0 0 3.089 3.939 8.06 6.873.295.175.598.347.908.513-.181-.258-.37-.547-.561-.865-1.996-3.33-4.118-9.845 1.875-18.26Zm8.796 22.607a20.366 20.366 0 0 0 3.68.552l.263.012V40.88h-10.43c.535.18 1.082.342 1.64.48a18.35 18.35 0 0 0 4.847.544v.87Zm-1.97-1.414c.641.057 1.294.08 1.958.064a.48.48 0 0 1 .492.48v.489c1.102.246 2.096.381 2.983.44V41.36h-5.433Zm6.13 1.984a16.85 16.85 0 0 0 1.104-.015c.142-.007.28-.016.414-.026 2.423-.194 3.628-.94 3.628-.94v-1.466l.082-.017h-4.19v2.45l-1.038.014Zm1.518-.523a10.916 10.916 0 0 0 2.208-.399 6.88 6.88 0 0 0 .9-.33l.04-.02v-.712h-3.148v1.461Z" fill="#000"/><path fill-rule="evenodd" clip-rule="evenodd" d="M28.819 9.678a.3.3 0 0 1 .244-.126h4.272a.3.3 0 0 1 .3.286c.184 3.89 2.494 7.154 6.024 8.356a.3.3 0 0 1 .15.113c.086.124.177.248.273.372a.3.3 0 0 1-.237.484H29.063a.3.3 0 0 1-.205-.081l.205-.22-.205.22-.002-.002-.003-.003-.01-.01a2.834 2.834 0 0 1-.161-.17 5.866 5.866 0 0 1-.405-.508 6.697 6.697 0 0 1-.945-1.917c-.51-1.667-.493-4.017 1.487-6.794Zm.37 8.885h9.852c-3.396-1.38-5.697-4.593-5.988-8.411h-3.834c-1.783 2.57-1.76 4.68-1.314 6.144.23.751.574 1.342.86 1.745a5.258 5.258 0 0 0 .424.522Z" fill="#000"/><path d="M34.607 23.267s-.493-.508-2.272-.562c0 0-2.349-.084-3.45 1.491-1.1 1.575-1.456 4.076-1.456 4.076s-.62 1.69 1.05 1.23l.172 2.2s.406.924 1.342.194c0 0 .406.71 1.265 0 0 0 .641.993 1.37-.193l.449-2.116s1.413.561 1.95.132c.537-.43.6-.95.708-2.633.107-1.683.305-2.782-1.128-3.82Zm-6.127 4.272c-.43-1.035.298-1.187.298-1.187s.58-.388 1.114.754c.302.821-.335 1.102-.335 1.102s-.648.365-1.077-.67Zm2.228 2.4a.67.67 0 0 1-.457-.294.452.452 0 0 1-.406.283c-.292 0-.258-.338-.258-.409.069-.299.182-.586.335-.851.188-.308.336-.277.336-.277a.46.46 0 0 1 .373.182c.164.272.296.562.392.865.007.132-.043.504-.315.5Zm2.624-2.028c-.906 1.057-1.52.371-1.52.371s-.648-.581.023-1.43c1.074-1.135 1.604-.449 1.604-.449s.799.463-.107 1.514v-.006Z" fill="#fff"/><path d="M26.567 32.078s-.601-.835.127-1.197c.728-.361 1.4.646 1.386 1.014l6.654 3.404s1.601-.318 1.484.645c-.118.964-.856.636-.856.636s.816.645.044.977c-.772.33-1.245-.602-1.356-1.079l-6.732-3.352s-.852.885-1.466.087c-.715-.93.715-1.135.715-1.135Z" fill="#fff"/><path d="M35.312 32.078s.6-.835-.128-1.197c-.728-.361-1.4.646-1.386 1.014L27.144 35.3s-1.601-.318-1.487.645c.114.964.859.636.859.636s-.815.645-.044.977c.772.33 1.255-.592 1.343-1.079l6.732-3.352s.849.885 1.466.087c.725-.93-.701-1.135-.701-1.135Z" fill="#fff"/><path d="M11.643 31.906s8.054 10.271 19.078 9.998v2.386s11.138 2.504 16.108-.855V41.51s2.168-.077 3.96-3.22a.114.114 0 0 1 .211.057v5.567s.057 6.283-3.715 7.378c-3.772 1.095-15.393 5.881-26.33-2.366 0 0-3.62-4.732-5.083-9.437a33.51 33.51 0 0 0-2.014-2.998c-.799-.977-2.685-3.738-2.685-3.738s-.614-.963.47-.848Z" fill="#424242"/><path d="M11.643 31.906s8.054 10.271 19.078 9.998v2.386s11.138 2.504 16.108-.855V41.51s2.168-.077 3.96-3.22a.114.114 0 0 1 .211.057v5.567s.057 6.283-3.715 7.378c-3.772 1.095-15.393 5.881-26.33-2.366 0 0-3.62-4.732-5.083-9.437a33.51 33.51 0 0 0-2.014-2.998c-.799-.977-2.685-3.738-2.685-3.738s-.614-.963.47-.848Z" fill="#000" fill-opacity=".2"/><path fill-rule="evenodd" clip-rule="evenodd" d="m11.425 32.59-.001-.002a1.353 1.353 0 0 1-.057-.108.701.701 0 0 1-.066-.217.16.16 0 0 1 0-.04c.015-.007.067-.029.191-.027l.012.015c.064.077.157.19.28.331.245.285.606.689 1.074 1.173a33.734 33.734 0 0 0 4.01 3.533c3.356 2.506 8.077 5.002 13.553 4.96v2.322l.234.053.066-.293-.066.293h.003l.006.002.025.005a15.397 15.397 0 0 0 .462.095 44.776 44.776 0 0 0 5.742.736c1.715.104 3.594.103 5.363-.138 1.765-.24 3.445-.724 4.74-1.6l.133-.089v-1.822a4.299 4.299 0 0 0 1.15-.428c.716-.385 1.594-1.082 2.421-2.335V43.932a6.042 6.042 0 0 1-.005.245 13.3 13.3 0 0 1-.428 2.939c-.451 1.687-1.34 3.388-3.066 3.889-.326.095-.71.216-1.143.354-4.623 1.465-15.028 4.764-24.889-2.646l-.015-.02a32.697 32.697 0 0 1-.542-.75 42.636 42.636 0 0 1-1.394-2.127c-1.083-1.762-2.34-4.097-3.06-6.415l-.01-.034-.019-.03a33.795 33.795 0 0 0-2.031-3.025l-.008-.01c-.391-.478-1.056-1.404-1.628-2.218a156.227 156.227 0 0 1-.959-1.38l-.078-.114Zm9.53 16.337-.238.182-.003-.004-.008-.01-.031-.042a32.897 32.897 0 0 1-.553-.767 43.312 43.312 0 0 1-1.415-2.156c-1.089-1.771-2.367-4.14-3.111-6.517a33.208 33.208 0 0 0-1.974-2.936c-.408-.5-1.083-1.44-1.651-2.248a154.39 154.39 0 0 1-.962-1.385l-.083-.12.247-.17-.253.161-.001-.002-.002-.004-.007-.011a1.812 1.812 0 0 1-.088-.168 1.284 1.284 0 0 1-.12-.42.62.62 0 0 1 .226-.557c.187-.146.449-.177.747-.146l-.032.299.236-.186.001.002.004.005.017.02.067.084a27.414 27.414 0 0 0 1.321 1.467c.92.95 2.259 2.214 3.939 3.469 3.365 2.514 8.068 4.971 13.485 4.837l.308-.008v2.45a40.202 40.202 0 0 0 1.566.286c1.115.182 2.652.388 4.342.49 1.691.103 3.529.1 5.246-.134 1.657-.226 3.181-.665 4.354-1.415v-2.051l.287-.01h.001l.012-.001.057-.006c.053-.007.134-.02.238-.046.21-.051.512-.15.87-.343.715-.385 1.665-1.15 2.534-2.674l.004-.007a.415.415 0 0 1 .768.206v5.648a13.783 13.783 0 0 1-.05.951 13.898 13.898 0 0 1-.403 2.33c-.463 1.73-1.431 3.717-3.478 4.311a50.11 50.11 0 0 0-1.126.35c-4.612 1.466-15.336 4.876-25.468-2.764l-.033-.025-.025-.033.239-.182Zm-9.782-16.173-.247.17-.006-.009.253-.161Z" fill="#000"/><path d="M20.554 49.524c-.385-.474-.713-1.325-1.809-1.251-.686.05-1.693.54-2.002 1.037-.308.497-.05 2.195.14 2.72a3.032 3.032 0 0 0 1.06 1.398c.308.233 1.423.327 1.793.494 1.2.532 2.666 1.08 3.816.602.132-.068.276-.113.424-.132a1.065 1.065 0 0 1 .771.458c1.273 1.387 3.51 2.219 5.601 2.087.938-.063 1.829-.3 2.77-.366 1.12-.02 2.241.03 3.356.152 1.119.066 2.314 0 3.21-.435.416-.206.77-.49 1.207-.665a7.52 7.52 0 0 1 1.732-.33 9.725 9.725 0 0 0 3.282-1.045c.212-.091.395-.238.533-.423.077-.133.096-.28.18-.389a1.4 1.4 0 0 1 .552-.389 7.01 7.01 0 0 0 2.658-2.004c.613-.851 2.7-2.219 1.709-2.93-.42-.307-1.77.455-2.044.536-3.272.999-6.666 2.918-10.604 3.295-1.23.117-2.485.144-3.734.152-3.391.03-7.063-.117-9.88-1.756a13.28 13.28 0 0 0-1.963-1.1c-.725-.272-1.65-.319-2.187.09l-.57.194Z" fill="#7ED2EF"/><path fill-rule="evenodd" clip-rule="evenodd" d="M16.882 52.03c-.189-.525-.447-2.223-.139-2.72.309-.497 1.316-.987 2.002-1.037.894-.06 1.276.494 1.597.958.072.105.141.205.212.293l.571-.195c.536-.408 1.462-.361 2.187-.089.684.31 1.341.678 1.964 1.1 2.816 1.64 6.488 1.787 9.879 1.756 1.25-.008 2.503-.035 3.734-.152 2.631-.252 5.02-1.192 7.292-2.087 1.127-.444 2.226-.876 3.312-1.208.062-.018.18-.072.33-.14.51-.232 1.39-.633 1.714-.396.712.511-.165 1.361-.942 2.115-.305.295-.594.575-.767.815a7.01 7.01 0 0 1-2.658 2.005 1.4 1.4 0 0 0-.551.388.756.756 0 0 0-.102.209c-.022.06-.045.121-.08.18a1.309 1.309 0 0 1-.532.423 9.724 9.724 0 0 1-3.282 1.045 7.52 7.52 0 0 0-1.732.33c-.252.102-.477.239-.703.377-.164.1-.33.2-.505.288-.895.435-2.09.5-3.21.435a26.363 26.363 0 0 0-3.355-.152c-.466.033-.92.108-1.374.182-.462.076-.923.152-1.396.184-2.09.132-4.328-.7-5.6-2.087a1.074 1.074 0 0 0-.772-.458 1.29 1.29 0 0 0-.424.132c-1.15.478-2.616-.07-3.815-.602-.158-.071-.45-.129-.756-.19-.416-.082-.86-.17-1.038-.304a3.031 3.031 0 0 1-1.06-1.398Zm.705 1.881a3.632 3.632 0 0 1-1.267-1.672l-.002-.006c-.12-.33-.238-.942-.29-1.52a5.755 5.755 0 0 1-.018-.883c.017-.255.064-.58.223-.836.242-.39.689-.698 1.098-.905.424-.215.925-.382 1.37-.415h.004c.742-.05 1.26.226 1.632.59.173.171.31.356.417.509l.028.04.067-.024c.39-.26.86-.353 1.29-.36.472-.006.959.09 1.384.25l.019.006.018.008c.709.322 1.39.702 2.035 1.138 2.654 1.537 6.158 1.696 9.554 1.665h.002c1.245-.008 2.478-.035 3.68-.15 1.892-.18 3.668-.733 5.4-1.378a98.91 98.91 0 0 0 1.699-.657c1.142-.45 2.28-.898 3.388-1.235l.003-.002h.002l.078-.033.171-.077.048-.022c.172-.078.395-.178.626-.267.226-.086.489-.173.74-.212.218-.034.593-.06.903.164.202.146.367.34.452.587.084.247.069.488.012.695-.104.384-.374.736-.619 1.014-.224.253-.488.51-.723.737l-.1.096c-.274.267-.48.475-.596.638l-.01.014-.012.014a7.61 7.61 0 0 1-2.886 2.177l-.01.004-.01.004a.8.8 0 0 0-.287.191 1.017 1.017 0 0 0-.013.034l-.006.017c-.02.056-.062.17-.125.278l-.017.028-.019.026a1.91 1.91 0 0 1-.753.608 10.327 10.327 0 0 1-3.467 1.1l-.017.001-.018.002a6.925 6.925 0 0 0-1.571.296 3.738 3.738 0 0 0-.503.269l-.085.052a7.12 7.12 0 0 1-.557.317l-.003.001c-1.04.506-2.366.562-3.508.495l-.014-.001-.015-.002a25.787 25.787 0 0 0-3.264-.148 14.58 14.58 0 0 0-1.316.176h-.001a14.85 14.85 0 0 1-1.44.188h-.002c-2.248.142-4.67-.742-6.08-2.28l-.029-.03-.024-.034a.474.474 0 0 0-.273-.19.685.685 0 0 0-.154.056l-.022.012-.022.009c-.734.305-1.527.267-2.247.11-.723-.158-1.435-.449-2.042-.718l-.003-.001a1.794 1.794 0 0 0-.277-.076 14.762 14.762 0 0 0-.34-.07l-.175-.035a7.47 7.47 0 0 1-.562-.131 1.74 1.74 0 0 1-.55-.246Z" fill="#000"/><path d="M33.647 10.15h-4.434c-3.597 5.047 0 8.414 0 8.414h10.76c-.093-.12-.18-.24-.263-.36a8.969 8.969 0 0 1-6.063-8.054Z" fill="#424242"/><path d="M33.647 10.15h-4.434c-3.597 5.047 0 8.414 0 8.414h10.76c-.093-.12-.18-.24-.263-.36a8.969 8.969 0 0 1-6.063-8.054Z" fill="#fff" fill-opacity=".05"/></svg>