<svg width="65" height="64" fill="none" xmlns="http://www.w3.org/2000/svg"><mask id="a" maskUnits="userSpaceOnUse" x="5.176" y="9.667" width="42" height="35" fill="#000"><path fill="#fff" d="M5.176 9.667h42v35h-42z"/><path d="M26.499 10.667a.454.454 0 0 0-.34.16l-3.586 4.288h-1.806l-.015-.015a.43.43 0 0 0-.429.426v3.863c0 .091.03.18.084.253l.817 1.134a.427.427 0 0 0 .153.137l.006.003v8.662h-.779v-1.702a.424.424 0 0 0-.428-.426H17.82l-.096-2.184.732-1.015a.424.424 0 0 0 .084-.253V20.13a.424.424 0 0 0-.428-.425h-1.85L12.657 15.4a.462.462 0 0 0-.34-.158l.012.002a.44.44 0 0 0-.338.158l-3.602 4.3H6.604V19.7a.43.43 0 0 0-.428.426v3.872c0 .092.03.18.084.255l.732 1.013-.814 18.378a.423.423 0 0 0 .262.416.447.447 0 0 0 .175.037h11.474a.451.451 0 0 0 .048-.003h5.865a.428.428 0 0 0 .05.003h4.923c.017 0 .034-.001.05-.003h5.865l.029.003h11.504a.43.43 0 0 0 .428-.426v-.027l-.813-18.374.732-1.015a.424.424 0 0 0 .08-.253v-3.874a.424.424 0 0 0-.427-.425H44.64l-.29-.344c-2.426.028-3.792-.187-6.01-1.522l-1.572 1.866h-1.814l-.009-.007a.429.429 0 0 0-.428.426v3.872c0 .091.03.18.084.255l.73 1.013-.097 2.188h-2.36a.43.43 0 0 0-.428.426v1.702h-.79v-8.682a.426.426 0 0 0 .117-.111l.818-1.134a.424.424 0 0 0 .083-.253V15.54a.424.424 0 0 0-.428-.426h-1.8l-3.604-4.289a.44.44 0 0 0-.344-.16Z"/></mask><path d="M26.499 10.667a.454.454 0 0 0-.34.16l-3.586 4.288h-1.806l-.015-.015a.43.43 0 0 0-.429.426v3.863c0 .091.03.18.084.253l.817 1.134a.427.427 0 0 0 .153.137l.006.003v8.662h-.779v-1.702a.424.424 0 0 0-.428-.426H17.82l-.096-2.184.732-1.015a.424.424 0 0 0 .084-.253V20.13a.424.424 0 0 0-.428-.425h-1.85L12.657 15.4a.462.462 0 0 0-.34-.158l.012.002a.44.44 0 0 0-.338.158l-3.602 4.3H6.604V19.7a.43.43 0 0 0-.428.426v3.872c0 .092.03.18.084.255l.732 1.013-.814 18.378a.423.423 0 0 0 .262.416.447.447 0 0 0 .175.037h11.474a.451.451 0 0 0 .048-.003h5.865a.428.428 0 0 0 .05.003h4.923c.017 0 .034-.001.05-.003h5.865l.029.003h11.504a.43.43 0 0 0 .428-.426v-.027l-.813-18.374.732-1.015a.424.424 0 0 0 .08-.253v-3.874a.424.424 0 0 0-.427-.425H44.64l-.29-.344c-2.426.028-3.792-.187-6.01-1.522l-1.572 1.866h-1.814l-.009-.007a.429.429 0 0 0-.428.426v3.872c0 .091.03.18.084.255l.73 1.013-.097 2.188h-2.36a.43.43 0 0 0-.428.426v1.702h-.79v-8.682a.426.426 0 0 0 .117-.111l.818-1.134a.424.424 0 0 0 .083-.253V15.54a.424.424 0 0 0-.428-.426h-1.8l-3.604-4.289a.44.44 0 0 0-.344-.16Z" stroke="#000" stroke-width=".339" mask="url(#a)"/><path fill-rule="evenodd" clip-rule="evenodd" d="m38.626 17.812-2.318 2.765a.242.242 0 0 0-.05.155l.086 1.277a.225.225 0 0 0 .214.212h8.088a.232.232 0 0 0 .214-.172l.304-1.276a.23.23 0 0 0-.045-.2L43.968 19.2H43.6a9.555 9.555 0 0 1-4.974-1.388Z" fill="#81635E"/><path fill-rule="evenodd" clip-rule="evenodd" d="m38.626 17.812-2.318 2.765a.242.242 0 0 0-.05.155l.086 1.277a.225.225 0 0 0 .214.212h8.088a.232.232 0 0 0 .214-.172l.304-1.276a.23.23 0 0 0-.045-.2L43.968 19.2h-.221l1.241 1.48a.062.062 0 0 1 .012.052l-.304 1.276a.06.06 0 0 1-.02.03.063.063 0 0 1-.034.014h-8.078a.058.058 0 0 1-.034-.017.055.055 0 0 1-.017-.036l-.085-1.275c0-.015.004-.03.013-.042l2.332-2.782a9.101 9.101 0 0 1-.147-.088Z" fill="#000"/><path fill-rule="evenodd" clip-rule="evenodd" d="m38.448 17.702-2.318 2.762a.439.439 0 0 0-.102.308l.083 1.277a.44.44 0 0 0 .447.41h8.074a.447.447 0 0 0 .428-.336l.308-1.276a.457.457 0 0 0-.09-.383L44.22 19.2h-.555l1.273 1.517-.309 1.291h-8.07l-.086-1.276 2.35-2.803a9.657 9.657 0 0 1-.375-.227Z" fill="#000"/><mask id="b" fill="#fff"><path d="M8.182 22.221a.227.227 0 0 1-.214-.212l-.085-1.277a.233.233 0 0 1 .055-.162l4.22-5.042a.227.227 0 0 1 .346 0l4.24 5.045a.233.233 0 0 1 .044.2l-.306 1.276a.23.23 0 0 1-.214.172H8.182Z"/></mask><path d="M8.182 22.221a.227.227 0 0 1-.214-.212l-.085-1.277a.233.233 0 0 1 .055-.162l4.22-5.042a.227.227 0 0 1 .346 0l4.24 5.045a.233.233 0 0 1 .044.2l-.306 1.276a.23.23 0 0 1-.214.172H8.182Z" fill="#81635E" stroke="#000" stroke-width=".339" mask="url(#b)"/><path d="m12.33 15.673 4.231 5.044-.306 1.277H8.182l-.084-1.277h-.006l4.238-5.046v.002Zm0-.428a.44.44 0 0 0-.338.158l-4.232 5.05a.46.46 0 0 0-.096.305l.085 1.276a.437.437 0 0 0 .428.41h8.067a.45.45 0 0 0 .428-.337l.306-1.277a.457.457 0 0 0-.09-.377l-4.23-5.053a.463.463 0 0 0-.341-.157l.013.002Z" fill="#000"/><mask id="c" fill="#fff"><path d="M22.357 17.654a.232.232 0 0 1-.225-.213l-.083-1.276a.23.23 0 0 1 .049-.154l4.233-5.05a.228.228 0 0 1 .323-.024l.024.024 4.23 5.046a.231.231 0 0 1 .046.196l-.306 1.276a.232.232 0 0 1-.214.173l-8.077.002Z"/></mask><path d="M22.357 17.654a.232.232 0 0 1-.225-.213l-.083-1.276a.23.23 0 0 1 .049-.154l4.233-5.05a.228.228 0 0 1 .323-.024l.024.024 4.23 5.046a.231.231 0 0 1 .046.196l-.306 1.276a.232.232 0 0 1-.214.173l-8.077.002Z" fill="#81635E" stroke="#000" stroke-width=".339" mask="url(#c)"/><path d="m26.499 11.092 4.23 5.047-.307 1.276h-8.065l-.085-1.276 4.227-5.047Zm0-.425a.454.454 0 0 0-.34.16l-4.217 5.044a.445.445 0 0 0-.103.31l.084 1.277a.437.437 0 0 0 .44.408h8.074a.447.447 0 0 0 .428-.336l.306-1.276a.441.441 0 0 0-.09-.383l-4.238-5.045a.44.44 0 0 0-.344-.16Z" fill="#000"/><mask id="d" fill="#fff"><path d="M31.226 20.268h-9.428a.215.215 0 0 0-.216.215v9.15c0 .12.097.215.216.215h9.428c.12 0 .217-.096.217-.214v-9.151a.216.216 0 0 0-.217-.215Z"/></mask><path d="M31.226 20.268h-9.428a.215.215 0 0 0-.216.215v9.15c0 .12.097.215.216.215h9.428c.12 0 .217-.096.217-.214v-9.151a.216.216 0 0 0-.217-.215Z" fill="#E0E0E0"/><path d="M31.226 20.268h-9.428a.215.215 0 0 0-.216.215v9.15c0 .12.097.215.216.215h9.428c.12 0 .217-.096.217-.214v-9.151a.216.216 0 0 0-.217-.215Z" fill="#000" fill-opacity=".1"/><path d="M31.226 20.268h-9.428a.215.215 0 0 0-.216.215v9.15c0 .12.097.215.216.215h9.428c.12 0 .217-.096.217-.214v-9.151a.216.216 0 0 0-.217-.215Z" stroke="#000" stroke-width=".339" mask="url(#d)"/><path d="M31.229 20.485v9.148h-9.417v-9.148h9.417Zm0-.426h-9.417a.43.43 0 0 0-.428.426v9.148a.424.424 0 0 0 .428.426h9.417a.43.43 0 0 0 .428-.426v-9.148a.424.424 0 0 0-.428-.426Z" fill="#000"/><mask id="e" maskUnits="userSpaceOnUse" x="16.394" y="26.661" width="20" height="18" fill="#000"><path fill="#fff" d="M16.394 26.661h20v18h-20z"/><path d="M18.09 43.87a.215.215 0 0 1-.215-.212l-.481-15.784a.212.212 0 0 1 .214-.213h2.547a.215.215 0 0 1 .214.213v1.915h2.112v-1.915a.212.212 0 0 1 .214-.213h2.547a.215.215 0 0 1 .214.213v1.915h2.113v-1.915a.212.212 0 0 1 .214-.213h2.547a.214.214 0 0 1 .214.213v1.915h2.112v-1.915a.212.212 0 0 1 .214-.213h2.556a.214.214 0 0 1 .214.213l-.488 15.788a.212.212 0 0 1-.214.213l-16.849-.004Z"/></mask><path d="M18.09 43.87a.215.215 0 0 1-.215-.212l-.481-15.784a.212.212 0 0 1 .214-.213h2.547a.215.215 0 0 1 .214.213v1.915h2.112v-1.915a.212.212 0 0 1 .214-.213h2.547a.215.215 0 0 1 .214.213v1.915h2.113v-1.915a.212.212 0 0 1 .214-.213h2.547a.214.214 0 0 1 .214.213v1.915h2.112v-1.915a.212.212 0 0 1 .214-.213h2.556a.214.214 0 0 1 .214.213l-.488 15.788a.212.212 0 0 1-.214.213l-16.849-.004Z" fill="#E0E0E0"/><path d="M18.09 43.87a.215.215 0 0 1-.215-.212l-.481-15.784a.212.212 0 0 1 .214-.213h2.547a.215.215 0 0 1 .214.213v1.915h2.112v-1.915a.212.212 0 0 1 .214-.213h2.547a.215.215 0 0 1 .214.213v1.915h2.113v-1.915a.212.212 0 0 1 .214-.213h2.547a.214.214 0 0 1 .214.213v1.915h2.112v-1.915a.212.212 0 0 1 .214-.213h2.556a.214.214 0 0 1 .214.213l-.488 15.788a.212.212 0 0 1-.214.213l-16.849-.004Z" fill="#000" fill-opacity=".1"/><path d="M18.09 43.87a.215.215 0 0 1-.215-.212l-.481-15.784a.212.212 0 0 1 .214-.213h2.547a.215.215 0 0 1 .214.213v1.915h2.112v-1.915a.212.212 0 0 1 .214-.213h2.547a.215.215 0 0 1 .214.213v1.915h2.113v-1.915a.212.212 0 0 1 .214-.213h2.547a.214.214 0 0 1 .214.213v1.915h2.112v-1.915a.212.212 0 0 1 .214-.213h2.556a.214.214 0 0 1 .214.213l-.488 15.788a.212.212 0 0 1-.214.213l-16.849-.004Z" stroke="#000" stroke-width=".339" mask="url(#e)"/><path d="m35.426 27.872-.49 15.788h-16.85l-.482-15.784h2.545v2.127h2.547v-2.127h2.547v2.127h2.54v-2.127h2.547v2.127h2.545v-2.127h2.547l.004-.004Zm-.004-.422h-2.547a.43.43 0 0 0-.428.426v1.702H30.78v-1.702a.424.424 0 0 0-.428-.426h-2.547a.43.43 0 0 0-.428.426v1.702h-1.69v-1.702a.424.424 0 0 0-.427-.426h-2.547a.43.43 0 0 0-.428.426v1.702h-1.68v-1.702a.425.425 0 0 0-.428-.426h-2.569a.432.432 0 0 0-.4.275.423.423 0 0 0-.028.168l.488 15.776a.424.424 0 0 0 .428.425h16.85a.43.43 0 0 0 .429-.425l.481-15.77v-.036a.424.424 0 0 0-.428-.425l-.006.012Z" fill="#000"/><mask id="f" maskUnits="userSpaceOnUse" x="5.384" y="18.913" width="14" height="26" fill="#000"><path fill="#fff" d="M5.384 18.913h14v26h-14z"/><path d="M6.604 43.875a.215.215 0 0 1-.214-.24L7.2 25.2l-.776-1.075a.231.231 0 0 1-.04-.127v-3.873a.212.212 0 0 1 .214-.212h2.294a.215.215 0 0 1 .214.212v2.043h1.864v-2.043a.212.212 0 0 1 .214-.212h2.297a.214.214 0 0 1 .2.133.21.21 0 0 1 .016.082v2.042h1.867v-2.042a.212.212 0 0 1 .213-.213h2.312a.215.215 0 0 1 .214.213v3.865c0 .046-.015.091-.043.128l-.772 1.079.815 18.443a.213.213 0 0 1-.197.23H6.604v.002Z"/></mask><path d="M6.604 43.875a.215.215 0 0 1-.214-.24L7.2 25.2l-.776-1.075a.231.231 0 0 1-.04-.127v-3.873a.212.212 0 0 1 .214-.212h2.294a.215.215 0 0 1 .214.212v2.043h1.864v-2.043a.212.212 0 0 1 .214-.212h2.297a.214.214 0 0 1 .2.133.21.21 0 0 1 .016.082v2.042h1.867v-2.042a.212.212 0 0 1 .213-.213h2.312a.215.215 0 0 1 .214.213v3.865c0 .046-.015.091-.043.128l-.772 1.079.815 18.443a.213.213 0 0 1-.197.23H6.604v.002Z" fill="#E0E0E0"/><path d="M6.604 43.875a.215.215 0 0 1-.214-.24L7.2 25.2l-.776-1.075a.231.231 0 0 1-.04-.127v-3.873a.212.212 0 0 1 .214-.212h2.294a.215.215 0 0 1 .214.212v2.043h1.864v-2.043a.212.212 0 0 1 .214-.212h2.297a.214.214 0 0 1 .2.133.21.21 0 0 1 .016.082v2.042h1.867v-2.042a.212.212 0 0 1 .213-.213h2.312a.215.215 0 0 1 .214.213v3.865c0 .046-.015.091-.043.128l-.772 1.079.815 18.443a.213.213 0 0 1-.197.23H6.604v.002Z" fill="#000" fill-opacity=".05"/><path d="M6.604 43.875a.215.215 0 0 1-.214-.24L7.2 25.2l-.776-1.075a.231.231 0 0 1-.04-.127v-3.873a.212.212 0 0 1 .214-.212h2.294a.215.215 0 0 1 .214.212v2.043h1.864v-2.043a.212.212 0 0 1 .214-.212h2.297a.214.214 0 0 1 .2.133.21.21 0 0 1 .016.082v2.042h1.867v-2.042a.212.212 0 0 1 .213-.213h2.312a.215.215 0 0 1 .214.213v3.865c0 .046-.015.091-.043.128l-.772 1.079.815 18.443a.213.213 0 0 1-.197.23H6.604v.002Z" stroke="#000" stroke-width=".339" mask="url(#f)"/><path d="M6.606 20.126h2.295v2.257h2.298v-2.257h2.297v2.257h2.3V20.13h2.293v3.866l-.82 1.138.82 18.526H6.604l.82-18.526L6.604 24v-3.874h.002Zm-.002-.426a.43.43 0 0 0-.428.426v3.872c0 .092.03.18.083.255l.732 1.013-.813 18.378a.423.423 0 0 0 .262.416.444.444 0 0 0 .175.037h11.474a.444.444 0 0 0 .411-.284.426.426 0 0 0 .026-.17l-.803-18.377.732-1.015a.423.423 0 0 0 .084-.253V20.13a.424.424 0 0 0-.429-.425h-2.313a.43.43 0 0 0-.428.425v1.826h-1.434v-1.824a.424.424 0 0 0-.428-.425h-2.308a.429.429 0 0 0-.428.425v1.81H9.34v-1.814a.424.424 0 0 0-.428-.425H6.604V19.7Z" fill="#000"/><mask id="g" maskUnits="userSpaceOnUse" x="33.723" y="18.915" width="14" height="26" fill="#000"><path fill="#fff" d="M33.723 18.915h14v26h-14z"/><path d="M34.944 43.87a.24.24 0 0 1-.165-.072.213.213 0 0 1-.055-.166l.815-18.433-.777-1.074v-.02a.212.212 0 0 1-.03-.108v-3.87a.212.212 0 0 1 .214-.212h2.295a.215.215 0 0 1 .214.212v2.04h1.866v-2.04a.212.212 0 0 1 .214-.212h2.312a.216.216 0 0 1 .216.215v2.04h1.864v-2.04a.212.212 0 0 1 .214-.213h2.294a.214.214 0 0 1 .217.215v3.865c0 .038-.01.075-.028.109l-.013.019-.785 1.074.817 18.444a.211.211 0 0 1-.116.207.215.215 0 0 1-.08.023h-.018l-11.485-.002Z"/></mask><path d="M34.944 43.87a.24.24 0 0 1-.165-.072.213.213 0 0 1-.055-.166l.815-18.433-.777-1.074v-.02a.212.212 0 0 1-.03-.108v-3.87a.212.212 0 0 1 .214-.212h2.295a.215.215 0 0 1 .214.212v2.04h1.866v-2.04a.212.212 0 0 1 .214-.212h2.312a.216.216 0 0 1 .216.215v2.04h1.864v-2.04a.212.212 0 0 1 .214-.213h2.294a.214.214 0 0 1 .217.215v3.865c0 .038-.01.075-.028.109l-.013.019-.785 1.074.817 18.444a.211.211 0 0 1-.116.207.215.215 0 0 1-.08.023h-.018l-11.485-.002Z" fill="#E0E0E0"/><path d="M34.944 43.87a.24.24 0 0 1-.165-.072.213.213 0 0 1-.055-.166l.815-18.433-.777-1.074v-.02a.212.212 0 0 1-.03-.108v-3.87a.212.212 0 0 1 .214-.212h2.295a.215.215 0 0 1 .214.212v2.04h1.866v-2.04a.212.212 0 0 1 .214-.212h2.312a.216.216 0 0 1 .216.215v2.04h1.864v-2.04a.212.212 0 0 1 .214-.213h2.294a.214.214 0 0 1 .217.215v3.865c0 .038-.01.075-.028.109l-.013.019-.785 1.074.817 18.444a.211.211 0 0 1-.116.207.215.215 0 0 1-.08.023h-.018l-11.485-.002Z" stroke="#000" stroke-width=".339" mask="url(#g)"/><path d="M34.947 20.122h2.292v2.257h2.296v-2.253h2.312v2.257h2.296v-2.257h2.295v3.866l-.82 1.142.82 18.51H34.944l.822-18.51L34.95 24v-3.878h-.002Zm0-.426a.43.43 0 0 0-.429.426v3.872c0 .091.03.18.084.255l.73 1.013-.814 18.382a.422.422 0 0 0 .239.41.43.43 0 0 0 .162.043h11.504a.43.43 0 0 0 .428-.426v-.027l-.813-18.374.732-1.014a.424.424 0 0 0 .08-.254v-3.874a.425.425 0 0 0-.427-.425h-2.288a.43.43 0 0 0-.428.425v1.825h-1.432v-1.825a.425.425 0 0 0-.428-.425h-2.31a.43.43 0 0 0-.428.425v1.825h-1.431v-1.825a.425.425 0 0 0-.428-.425h-2.295l-.008-.007Z" fill="#000"/><path d="M17.589 25.323H7.302M35.625 25.356h10.03" stroke="#000" stroke-width=".15" stroke-miterlimit="10"/><mask id="h" maskUnits="userSpaceOnUse" x="10.255" y="28.191" width="4" height="5" fill="#000"><path fill="#fff" d="M10.255 28.191h4v5h-4z"/><path d="M12.325 29.19c-.293.015-.569.143-.769.356-.2.214-.308.497-.3.79v2.442h2.187v-2.473a1.09 1.09 0 0 0-.304-.776c-.2-.21-.476-.33-.766-.338h-.047Z"/></mask><path d="M12.325 29.19c-.293.015-.569.143-.769.356-.2.214-.308.497-.3.79v2.442h2.187v-2.473a1.09 1.09 0 0 0-.304-.776c-.2-.21-.476-.33-.766-.338h-.047Z" fill="#000"/><path d="M12.325 29.19c-.293.015-.569.143-.769.356-.2.214-.308.497-.3.79v2.442h2.187v-2.473a1.09 1.09 0 0 0-.304-.776c-.2-.21-.476-.33-.766-.338h-.047Z" stroke="#000" stroke-width=".621" stroke-linejoin="round" mask="url(#h)"/><mask id="i" maskUnits="userSpaceOnUse" x="38.59" y="28.191" width="4" height="5" fill="#000"><path fill="#fff" d="M38.59 28.191h4v5h-4z"/><path d="M40.66 29.19a1.131 1.131 0 0 0-.768.357c-.2.214-.308.496-.302.788v2.443h2.18v-2.473c.004-.29-.108-.57-.31-.78a1.108 1.108 0 0 0-.774-.334h-.025Z"/></mask><path d="M40.66 29.19a1.131 1.131 0 0 0-.768.357c-.2.214-.308.496-.302.788v2.443h2.18v-2.473c.004-.29-.108-.57-.31-.78a1.108 1.108 0 0 0-.774-.334h-.025Z" fill="#000"/><path d="M40.66 29.19a1.131 1.131 0 0 0-.768.357c-.2.214-.308.496-.302.788v2.443h2.18v-2.473c.004-.29-.108-.57-.31-.78a1.108 1.108 0 0 0-.774-.334h-.025Z" stroke="#000" stroke-width=".621" stroke-linejoin="round" mask="url(#i)"/><mask id="j" maskUnits="userSpaceOnUse" x="24.49" y="21.456" width="4" height="5" fill="#000"><path fill="#fff" d="M24.49 21.456h4v5h-4z"/><path d="M26.436 22.464a1 1 0 0 0-.68.316.988.988 0 0 0-.266.697v2.149h1.927v-2.194a.962.962 0 0 0-.59-.899.977.977 0 0 0-.371-.077l-.02.008Z"/></mask><path d="M26.436 22.464a1 1 0 0 0-.68.316.988.988 0 0 0-.266.697v2.149h1.927v-2.194a.962.962 0 0 0-.59-.899.977.977 0 0 0-.371-.077l-.02.008Z" fill="#000"/><path d="M26.436 22.464a1 1 0 0 0-.68.316.988.988 0 0 0-.266.697v2.149h1.927v-2.194a.962.962 0 0 0-.59-.899.977.977 0 0 0-.371-.077l-.02.008Z" stroke="#000" stroke-width=".621" stroke-linejoin="round" mask="url(#j)"/><mask id="k" maskUnits="userSpaceOnUse" x="22.815" y="33.757" width="7" height="11" fill="#000"><path fill="#fff" d="M22.815 33.757h7v11h-7z"/><path d="M23.815 43.876v-6.128c0-1.625 1.186-2.965 2.643-2.991h.04c1.482 0 2.689 1.298 2.689 2.893v6.228h-5.372v-.002Z"/></mask><path d="M23.815 43.876v-6.128c0-1.625 1.186-2.965 2.643-2.991h.04c1.482 0 2.689 1.298 2.689 2.893v6.228h-5.372v-.002Z" fill="#000"/><path d="M23.815 43.876v-6.128c0-1.625 1.186-2.965 2.643-2.991h.04c1.482 0 2.689 1.298 2.689 2.893v6.228h-5.372v-.002Z" stroke="#000" stroke-width=".621" mask="url(#k)"/><mask id="l" fill="#fff"><path d="M26.498 34.961c1.366 0 2.47 1.2 2.47 2.679v6.004h-4.922v-5.915c0-1.49 1.07-2.753 2.43-2.766h.04l-.018-.002Zm.017-.423h-.047c-1.575.028-2.857 1.464-2.857 3.206v5.914a.435.435 0 0 0 .272.405c.054.022.111.034.169.034h4.923a.442.442 0 0 0 .44-.439V37.64c0-1.715-1.303-3.109-2.904-3.109l.004.007Z"/></mask><path d="M26.498 34.961c1.366 0 2.47 1.2 2.47 2.679v6.004h-4.922v-5.915c0-1.49 1.07-2.753 2.43-2.766h.04l-.018-.002Zm.017-.423h-.047c-1.575.028-2.857 1.464-2.857 3.206v5.914a.435.435 0 0 0 .272.405c.054.022.111.034.169.034h4.923a.442.442 0 0 0 .44-.439V37.64c0-1.715-1.303-3.109-2.904-3.109l.004.007Z" fill="#000" stroke="#000" stroke-width="4.964" mask="url(#l)"/><g opacity=".25"><mask id="m" fill="#fff"><path d="m30.605 16.062 1.798-.162.107 3.591-1.076 1.273H29.78l.812-1.353.012-3.35Z"/></mask><path d="m30.605 16.062 1.798-.162.107 3.591-1.076 1.273H29.78l.812-1.353.012-3.35Z" fill="#000" stroke="#000" stroke-width="4.964" mask="url(#m)"/></g><mask id="n" fill="#fff"><path d="M21.576 20.757a.217.217 0 0 1-.176-.09l-.82-1.133a.231.231 0 0 1-.04-.128v-3.872a.212.212 0 0 1 .214-.213h2.284a.215.215 0 0 1 .214.213v2.04h1.864v-2.033a.212.212 0 0 1 .214-.213h2.297a.215.215 0 0 1 .213.213v2.04h1.869v-2.04a.212.212 0 0 1 .214-.213h2.297a.216.216 0 0 1 .2.132.21.21 0 0 1 .016.083v3.865c0 .039-.01.076-.03.109l-.013.02-.82 1.129a.213.213 0 0 1-.177.09l-9.82.001Z"/></mask><path d="M21.576 20.757a.217.217 0 0 1-.176-.09l-.82-1.133a.231.231 0 0 1-.04-.128v-3.872a.212.212 0 0 1 .214-.213h2.284a.215.215 0 0 1 .214.213v2.04h1.864v-2.033a.212.212 0 0 1 .214-.213h2.297a.215.215 0 0 1 .213.213v2.04h1.869v-2.04a.212.212 0 0 1 .214-.213h2.297a.216.216 0 0 1 .2.132.21.21 0 0 1 .016.083v3.865c0 .039-.01.076-.03.109l-.013.02-.82 1.129a.213.213 0 0 1-.177.09l-9.82.001Z" fill="#E0E0E0"/><path d="M21.576 20.757a.217.217 0 0 1-.176-.09l-.82-1.133a.231.231 0 0 1-.04-.128v-3.872a.212.212 0 0 1 .214-.213h2.284a.215.215 0 0 1 .214.213v2.04h1.864v-2.033a.212.212 0 0 1 .214-.213h2.297a.215.215 0 0 1 .213.213v2.04h1.869v-2.04a.212.212 0 0 1 .214-.213h2.297a.216.216 0 0 1 .2.132.21.21 0 0 1 .016.083v3.865c0 .039-.01.076-.03.109l-.013.02-.82 1.129a.213.213 0 0 1-.177.09l-9.82.001Z" fill="#000" fill-opacity=".1"/><path d="M21.576 20.757a.217.217 0 0 1-.176-.09l-.82-1.133a.231.231 0 0 1-.04-.128v-3.872a.212.212 0 0 1 .214-.213h2.284a.215.215 0 0 1 .214.213v2.04h1.864v-2.033a.212.212 0 0 1 .214-.213h2.297a.215.215 0 0 1 .213.213v2.04h1.869v-2.04a.212.212 0 0 1 .214-.213h2.297a.216.216 0 0 1 .2.132.21.21 0 0 1 .016.083v3.865c0 .039-.01.076-.03.109l-.013.02-.82 1.129a.213.213 0 0 1-.177.09l-9.82.001Z" stroke="#000" stroke-width=".339" mask="url(#n)"/><path d="M20.754 15.536h2.294v2.256h2.297v-2.256h2.296v2.256h2.3V15.54h2.296v3.865l-.816 1.134h-9.845l-.82-1.134v-3.87h-.002Zm-.002-.436a.43.43 0 0 0-.428.426v3.863c0 .091.029.18.083.253l.818 1.134a.428.428 0 0 0 .35.188h9.846a.43.43 0 0 0 .353-.179l.818-1.134a.424.424 0 0 0 .083-.253V15.54a.424.424 0 0 0-.428-.426h-2.305a.43.43 0 0 0-.428.426v1.825h-1.432v-1.825a.424.424 0 0 0-.428-.426h-2.307a.43.43 0 0 0-.428.426v1.825h-1.432v-1.825a.424.424 0 0 0-.428-.426h-2.292l-.015-.015Z" fill="#000"/><mask id="o" maskUnits="userSpaceOnUse" x="35.027" y="26.661" width="24" height="27" fill="#000"><path fill="#fff" d="M35.027 26.661h24v27h-24z"/><path fill-rule="evenodd" clip-rule="evenodd" d="M57.365 34.408h-7.26v-.443h2.636c-2.022-2.608.088-5.09.088-5.09h-2.725v-.847a.364.364 0 0 0-.354-.367.356.356 0 0 0-.33.23.367.367 0 0 0-.025.139v.845h-3.164c-2.176 3.053 0 5.09 0 5.09h3.164v.443H42.2c-3.71 5.207-1.916 9.126-.743 10.804-3.107-1.674-5.066-4.173-5.066-4.173-.612-.065-.265.48-.265.48s1.065 1.56 1.516 2.111c.41.543.79 1.109 1.138 1.694.826 2.658 2.872 5.33 2.872 5.33 5.65 4.261 11.623 2.365 14.233 1.536.244-.077.46-.146.641-.198 2.131-.62 2.099-4.169 2.099-4.169v-3.145a.065.065 0 0 0-.048-.061.065.065 0 0 0-.071.029l-.006.01h-2.28c-2.943-5.416 1.146-10.248 1.146-10.248Zm-4.94 12.539s-.969.6-2.92.553l.6-.01v-1.381h2.367a2.95 2.95 0 0 1-.047.01v.828Zm-3.03-.838h-5.892c1.13.382 2.361.61 3.665.578v.492c.845.203 1.587.295 2.227.318V46.11Z"/></mask><path d="M57.17 46.109v-.136a.136.136 0 0 0-.07.02l.07.116Zm.006 0v.135a.136.136 0 0 0 .107-.219l-.107.084Zm-.912.357-.016-.135a.136.136 0 0 0-.12.135h.136Zm.003 1.086.076.112a.136.136 0 0 0 .06-.112h-.136Zm0-1.087-.004-.135a.136.136 0 0 0-.131.136h.136Zm1.408-.734.093.098a.136.136 0 0 0-.184-.199l.09.1Zm-.501.375-.07-.115a.135.135 0 0 0-.037.199l.107-.084Zm-.004.138h.006v-.27h-.006v.27Zm-.906.222.016.134h.007l.017-.003.057-.01c.05-.01.12-.028.206-.054.172-.054.41-.147.674-.308l-.141-.232a2.76 2.76 0 0 1-.613.28 1.907 1.907 0 0 1-.227.056l-.01.002h-.002l.016.135Zm.136 1.08v-1.08h-.272v1.08h.272Zm-.208-.106c-.678.458-1.575.721-2.55.854-.972.133-2.012.134-2.969.076a24.975 24.975 0 0 1-3.471-.466l-.004-.001-.03.132-.03.132h.001l.004.002.014.003.054.011c.047.01.117.025.206.042a25.254 25.254 0 0 0 3.24.415c.967.06 2.026.058 3.022-.078.995-.135 1.938-.407 2.664-.898l-.151-.224Zm-.06-.974v1.086h.271v-1.087h-.271Zm1.45-.834c-.361.343-.697.517-.939.606a1.73 1.73 0 0 1-.377.092h-.004l.005.136.006.135h.011a.911.911 0 0 0 .122-.017c.08-.015.194-.042.33-.092.275-.1.643-.294 1.032-.663l-.187-.197Zm-.337.59c.166-.101.343-.23.52-.39l-.181-.202c-.165.15-.328.268-.48.36l.14.232Zm.038-.197-.002-.002-.214.167.002.002.214-.167ZM49.504 47.5l-.005-.27a.271.271 0 0 0-.001.542l.006-.272Zm2.92-.553.144.23a.271.271 0 0 0 .128-.23h-.271Zm-2.32.542.005.271a.271.271 0 0 0 .267-.27h-.272Zm0-1.38v-.271a.271.271 0 0 0-.27.27h.27Zm2.367 0 .057.265a.271.271 0 0 0-.056-.536v.27Zm-.046.01-.052-.267a.271.271 0 0 0-.22.266h.272Zm-2.32-11.711h-.272c0 .15.122.27.271.27v-.27Zm7.26 0 .207.175a.27.27 0 0 0-.207-.447v.272Zm-7.26-.443v-.27a.271.271 0 0 0-.272.27h.271Zm2.636 0v.271a.271.271 0 0 0 .215-.437l-.215.166Zm.088-5.09.206.175a.27.27 0 0 0-.206-.447v.272Zm-2.725 0h-.27c0 .15.12.27.27.27v-.27Zm0-.847-.27-.003v.003h.27Zm-.102-.257-.195.188.195-.188Zm-.252-.11.004-.27h-.008l.004.27Zm-.138.03.109.249-.109-.249Zm-.115.08-.196-.187.196.188Zm-.102.259h.271v-.004l-.27.004Zm0 .845v.27c.15 0 .271-.12.271-.27h-.27Zm-3.164 0v-.271a.271.271 0 0 0-.22.113l.22.158Zm0 5.09-.185.198c.05.047.116.074.185.074v-.272Zm3.164 0h.271a.271.271 0 0 0-.27-.27v.27Zm0 .443v.27c.15 0 .271-.12.271-.27h-.27Zm-7.196 0v-.272a.271.271 0 0 0-.221.114l.22.158Zm-.743 10.804-.128.239a.271.271 0 0 0 .35-.394l-.222.155Zm-5.066-4.173.214-.167a.272.272 0 0 0-.185-.103l-.029.27Zm-.265.48-.229.145.005.007.224-.153Zm1.516 2.111.217-.163-.007-.009-.21.172Zm1.138 1.694.259-.08a.273.273 0 0 0-.026-.06l-.233.14Zm2.872 5.33-.215.166c.015.02.032.037.052.051l.163-.216Zm14.233 1.536-.082-.258.082.258Zm.641-.198.076.26-.076-.26Zm2.099-4.169h-.271v.003l.271-.003Zm0-3.145h.271v-.005l-.271.005Zm-.048-.061.072-.262-.072.262Zm-.04.002-.101-.251.1.251Zm-.031.027-.232-.14-.004.005.236.135Zm-.006.01v.27a.271.271 0 0 0 .235-.136l-.235-.134Zm-2.28 0-.24.129a.271.271 0 0 0 .24.142v-.271Zm-12.716 1.453v-.271a.271.271 0 0 0-.087.528l.087-.257Zm5.892 0h.271a.271.271 0 0 0-.27-.271v.27Zm-2.227.578h.27a.271.271 0 0 0-.277-.271l.007.271Zm0 .492h-.271c0 .125.086.234.207.264l.064-.264Zm2.227.318-.01.271a.271.271 0 0 0 .282-.27h-.272Zm.103.275c1.005.023 1.763-.119 2.276-.27.255-.077.45-.155.582-.216a2.681 2.681 0 0 0 .21-.107l.001-.001-.142-.231-.143-.23v-.001h.001l-.005.003a3.897 3.897 0 0 1-.658.262c-.46.137-1.163.27-2.11.248l-.012.543Zm.601-.554-.6.011.01.543.6-.012-.01-.542Zm-.266-1.11v1.381h.543v-1.38h-.543Zm2.639-.27h-2.368v.542h2.367v-.542Zm.005.546.05-.01-.112-.53a4.46 4.46 0 0 1-.042.008l.104.532Zm.22.563v-.829h-.543v.829h.542Zm-2.593-12.268h7.261v-.543h-7.26v.543Zm-.27-.714v.443h.541v-.443h-.542Zm2.907-.27h-2.637v.541h2.637v-.542Zm.088-4.82-.207-.176-.001.001-.002.003-.006.007-.02.024-.07.092a5.061 5.061 0 0 0-.758 1.54c-.293 1.012-.313 2.379.762 3.766l.429-.333c-.948-1.222-.925-2.4-.67-3.282a4.511 4.511 0 0 1 .732-1.445l.014-.018a.446.446 0 0 1 .003-.003v-.001l-.206-.175Zm-2.725.27h2.725v-.541h-2.725v.542Zm-.27-1.117v.847h.541v-.847h-.542Zm-.027-.069c.017.018.026.041.026.066l.543.006a.635.635 0 0 0-.179-.448l-.39.377Zm-.061-.026c.023 0 .045.01.061.026l.39-.377a.63.63 0 0 0-.443-.192l-.008.543Zm-.025.007a.086.086 0 0 1 .033-.008l-.008-.542a.631.631 0 0 0-.242.053l.217.497Zm-.029.02a.089.089 0 0 1 .029-.02l-.217-.497a.63.63 0 0 0-.203.14l.391.377Zm-.019.03a.09.09 0 0 1 .02-.03l-.392-.376a.633.633 0 0 0-.133.207l.505.199Zm-.007.036c0-.013.003-.025.007-.036l-.505-.198a.635.635 0 0 0-.044.242l.542-.008Zm0 .849v-.845h-.542v.845h.542Zm-3.435.27h3.164v-.541h-3.164v.542Zm0 4.82.186-.198-.003-.002-.013-.014a2.85 2.85 0 0 1-.255-.31 3.34 3.34 0 0 1-.471-.955c-.248-.81-.263-1.995.777-3.454l-.441-.315c-1.137 1.595-1.152 2.955-.855 3.927a3.885 3.885 0 0 0 .784 1.409 2.297 2.297 0 0 0 .102.107l.003.002v.001l.186-.198Zm3.164-.27h-3.164v.541h3.164v-.542Zm.271.713v-.443h-.542v.443h.542Zm-7.467.27h7.196v-.541H42.2v.542Zm-.52 10.379a7.886 7.886 0 0 1-1.412-3.943c-.126-1.772.331-3.992 2.153-6.549l-.442-.315c-1.888 2.65-2.388 4.994-2.252 6.903a8.429 8.429 0 0 0 1.508 4.215l.444-.311Zm-5.289-4.018-.213.167v.001l.002.002.005.006a3.307 3.307 0 0 0 .088.108c.062.074.152.18.27.313.237.265.584.635 1.03 1.058.889.845 2.175 1.905 3.756 2.757l.257-.478c-1.526-.822-2.773-1.849-3.64-2.672-.433-.411-.77-.77-.998-1.026a11.934 11.934 0 0 1-.343-.402v-.001l-.214.167Zm-.265.48.228-.146h.001a.449.449 0 0 1-.056-.14c-.001-.014.005.032-.04.067-.03.023-.025-.005.104.009l.057-.54c-.178-.019-.359-.003-.496.104a.452.452 0 0 0-.166.403c.01.11.049.21.077.271.015.033.03.061.04.08l.015.025.004.008.002.002v.001h.001l.229-.145Zm1.726 1.94a26.875 26.875 0 0 1-.915-1.248 90.428 90.428 0 0 1-.575-.828l-.01-.013-.002-.004-.224.152-.224.153v.001l.003.004.01.013.034.05.127.186c.107.155.255.368.417.598.322.457.707.994.94 1.279l.42-.344Zm1.16 1.726a19.211 19.211 0 0 0-1.153-1.718l-.433.326c.403.536.777 1.093 1.12 1.67l.467-.278Zm2.64 5.47.215-.165v-.001l-.005-.006a24.062 24.062 0 0 1-1.105-1.64c-.61-.991-1.315-2.302-1.718-3.6l-.518.161c.423 1.36 1.154 2.715 1.774 3.724a24.61 24.61 0 0 0 1.117 1.659l.018.024a.384.384 0 0 0 .005.006l.001.002.216-.164Zm14.151 1.277c-2.611.829-8.457 2.677-13.988-1.494l-.326.433c5.77 4.351 11.87 2.406 14.478 1.578l-.164-.517Zm.648-.2c-.186.053-.405.122-.648.2l.164.517c.245-.078.457-.145.635-.197l-.151-.52Zm2.174-3.909-.271.002v.035l-.003.108a7.403 7.403 0 0 1-.238 1.637c-.253.946-.742 1.859-1.662 2.126l.151.52c1.21-.35 1.771-1.522 2.035-2.506a7.952 7.952 0 0 0 .259-1.879V47.821l-.271.002Zm-.271-3.145v3.145h.542v-3.145h-.542Zm.043.128a.206.206 0 0 1-.043-.122l.542-.011a.336.336 0 0 0-.07-.2l-.429.333Zm.11.073a.206.206 0 0 1-.11-.073l.428-.333a.336.336 0 0 0-.176-.118l-.143.524Zm.13-.008a.207.207 0 0 1-.13.008l.142-.524a.336.336 0 0 0-.213.013l.202.503Zm.1-.085a.206.206 0 0 1-.1.085l-.201-.503a.336.336 0 0 0-.162.137l.463.281Zm-.002.004.006-.01-.47-.269-.006.01.47.27Zm-2.516.137H58.5v-.543h-2.28v.543Zm1.147-10.52a25.367 25.367 0 0 0-.207-.174l-.001.001-.003.003-.01.013a3.754 3.754 0 0 0-.166.214 11.463 11.463 0 0 0-1.545 2.948c-.672 1.934-.97 4.58.547 7.373l.476-.259c-1.424-2.622-1.149-5.1-.512-6.936.32-.92.729-1.674 1.058-2.199a9.368 9.368 0 0 1 .561-.797l.008-.01.001-.001-.207-.175ZM43.503 46.38h5.892v-.542h-5.892v.542Zm3.658.036a10.32 10.32 0 0 1-3.57-.564l-.175.514c1.156.39 2.418.625 3.759.592l-.014-.542Zm.278.763v-.492h-.542v.492h.542Zm1.966.047a10.967 10.967 0 0 1-2.174-.31l-.127.527a11.51 11.51 0 0 0 2.282.325l.019-.542Zm-.28-1.117v1.388h.541V46.11h-.542Z" fill="#000" mask="url(#o)"/><path d="M58.505 44.656h-4.753s.161 1.172-1.327 1.462v.829s-1.742 1.079-5.26.231v.852s6.485 1.317 9.099-.483v-1.081s1.348-.163 2.24-1.81Z" fill="#424242"/><path d="M58.505 44.656h-4.753s.161 1.172-1.327 1.462v.829s-1.742 1.079-5.26.231v.852s6.485 1.317 9.099-.483v-1.081s1.348-.163 2.24-1.81Z" fill="#000" fill-opacity=".6"/><path d="M58.505 44.656h-4.753s.161 1.172-1.327 1.462v.829s-1.742 1.079-5.26.231v.852s6.485 1.317 9.099-.483v-1.081s1.348-.163 2.24-1.81Z" stroke="#231F20" stroke-width=".107" stroke-miterlimit="10"/><path d="M49.395 47.502V28.03a.365.365 0 0 1 .217-.339.356.356 0 0 1 .138-.03.36.36 0 0 1 .354.367v19.461l-.709.013Z" fill="#231F20"/><path d="M42.199 34.408h15.166s-4.847 5.728-.19 11.7H42.2s-5.001-4.68 0-11.7Zm4.032-5.446h6.598s-2.11 2.483-.088 5.09h-6.51s-2.176-2.036 0-5.09Z" fill="#424242"/><path d="M42.199 34.408h15.166s-4.847 5.728-.19 11.7H42.2s-5.001-4.68 0-11.7Zm4.032-5.446h6.598s-2.11 2.483-.088 5.09h-6.51s-2.176-2.036 0-5.09Z" fill="#fff" fill-opacity=".05"/><path d="M42.199 34.408h15.166s-4.847 5.728-.19 11.7H42.2s-5.001-4.68 0-11.7Zm4.032-5.446h6.598s-2.11 2.483-.088 5.09h-6.51s-2.176-2.036 0-5.09Z" stroke="#000" stroke-width=".339" stroke-miterlimit="10" stroke-linejoin="round"/><path d="M49.363 36.158s-.279-.286-1.283-.317c0 0-1.327-.047-1.95.843-.62.89-.822 2.302-.822 2.302s-.35.955.593.695l.097 1.243s.23.522.759.11c0 0 .229.4.714 0 0 0 .362.56.774-.11l.254-1.195s.798.317 1.101.075c.303-.243.34-.537.4-1.488.06-.95.173-1.571-.637-2.158Zm-3.462 2.414c-.242-.584.17-.67.17-.67s.327-.22.629.425c.17.465-.19.623-.19.623s-.366.206-.608-.378Zm1.26 1.356a.379.379 0 0 1-.258-.166.255.255 0 0 1-.23.16c-.165 0-.146-.191-.146-.231.039-.17.103-.331.19-.481.106-.174.19-.157.19-.157a.261.261 0 0 1 .21.103c.093.154.167.318.222.49.003.073-.025.284-.179.282Zm1.482-1.146c-.512.598-.859.21-.859.21s-.366-.328.013-.808c.607-.641.907-.254.907-.254s.45.262-.061.856v-.004Z" fill="#fff"/><path d="M44.82 41.136s-.339-.472.073-.676c.411-.204.79.365.783.573l3.76 1.923s.904-.18.837.365c-.066.544-.483.359-.483.359s.46.364.024.551c-.436.188-.703-.34-.766-.609l-3.803-1.894s-.481.5-.828.05c-.404-.525.404-.642.404-.642Z" fill="#fff"/><path d="M49.761 41.136s.34-.472-.072-.676c-.411-.204-.79.365-.783.573l-3.76 1.923s-.904-.18-.839.365c.064.544.485.359.485.359s-.46.364-.024.551c.436.188.709-.334.758-.609l3.803-1.894s.48.5.828.05c.41-.525-.396-.642-.396-.642Z" fill="#fff"/><path d="M36.39 41.039s4.55 5.803 10.778 5.648v1.348s6.292 1.415 9.1-.483v-1.087s1.224-.043 2.237-1.82a.065.065 0 0 1 .071-.028.065.065 0 0 1 .048.061v3.145s.032 3.55-2.099 4.169c-2.13.618-8.696 3.322-14.874-1.337 0 0-2.046-2.673-2.872-5.331a18.934 18.934 0 0 0-1.138-1.694c-.45-.552-1.516-2.112-1.516-2.112s-.347-.544.265-.48Z" fill="#424242"/><path d="M36.39 41.039s4.55 5.803 10.778 5.648v1.348s6.292 1.415 9.1-.483v-1.087s1.224-.043 2.237-1.82a.065.065 0 0 1 .071-.028.065.065 0 0 1 .048.061v3.145s.032 3.55-2.099 4.169c-2.13.618-8.696 3.322-14.874-1.337 0 0-2.046-2.673-2.872-5.331a18.934 18.934 0 0 0-1.138-1.694c-.45-.552-1.516-2.112-1.516-2.112s-.347-.544.265-.48Z" fill="#000" fill-opacity=".2"/><path d="M36.39 41.039s4.55 5.803 10.778 5.648v1.348s6.292 1.415 9.1-.483v-1.087s1.224-.043 2.237-1.82a.065.065 0 0 1 .071-.028.065.065 0 0 1 .048.061v3.145s.032 3.55-2.099 4.169c-2.13.618-8.696 3.322-14.874-1.337 0 0-2.046-2.673-2.872-5.331a18.934 18.934 0 0 0-1.138-1.694c-.45-.552-1.516-2.112-1.516-2.112s-.347-.544.265-.48Z" stroke="#000" stroke-width=".339" stroke-miterlimit="10"/><mask id="p" maskUnits="userSpaceOnUse" x="38.6" y="49.4" width="21" height="7" fill="#000"><path fill="#fff" d="M38.6 49.4h21v7h-21z"/><path d="M41.779 51.217c-.213-.261-.393-.73-.997-.69-.378.029-.933.298-1.103.572-.17.274-.028 1.21.076 1.499.115.31.319.578.585.77.17.13.784.18.988.273.661.293 1.47.595 2.103.331a.708.708 0 0 1 .233-.072.587.587 0 0 1 .425.252c.702.765 1.935 1.223 3.087 1.15.516-.034 1.007-.165 1.526-.201.618-.012 1.235.016 1.85.083.616.037 1.275 0 1.768-.24.23-.113.425-.27.665-.366.31-.098.63-.159.955-.182a5.36 5.36 0 0 0 1.808-.575.722.722 0 0 0 .294-.234c.042-.073.053-.154.1-.214a.771.771 0 0 1 .304-.214 3.863 3.863 0 0 0 1.464-1.105c.338-.469 1.488-1.222.942-1.614-.232-.17-.976.25-1.127.295-1.802.55-3.673 1.608-5.843 1.816a23.46 23.46 0 0 1-2.058.083c-1.868.017-3.892-.064-5.443-.967a7.316 7.316 0 0 0-1.082-.606c-.4-.15-.91-.176-1.205.05l-.315.106Z"/></mask><path d="M41.779 51.217c-.213-.261-.393-.73-.997-.69-.378.029-.933.298-1.103.572-.17.274-.028 1.21.076 1.499.115.31.319.578.585.77.17.13.784.18.988.273.661.293 1.47.595 2.103.331a.708.708 0 0 1 .233-.072.587.587 0 0 1 .425.252c.702.765 1.935 1.223 3.087 1.15.516-.034 1.007-.165 1.526-.201.618-.012 1.235.016 1.85.083.616.037 1.275 0 1.768-.24.23-.113.425-.27.665-.366.31-.098.63-.159.955-.182a5.36 5.36 0 0 0 1.808-.575.722.722 0 0 0 .294-.234c.042-.073.053-.154.1-.214a.771.771 0 0 1 .304-.214 3.863 3.863 0 0 0 1.464-1.105c.338-.469 1.488-1.222.942-1.614-.232-.17-.976.25-1.127.295-1.802.55-3.673 1.608-5.843 1.816a23.46 23.46 0 0 1-2.058.083c-1.868.017-3.892-.064-5.443-.967a7.316 7.316 0 0 0-1.082-.606c-.4-.15-.91-.176-1.205.05l-.315.106Z" fill="#7ED2EF"/><path d="M41.779 51.217c-.213-.261-.393-.73-.997-.69-.378.029-.933.298-1.103.572-.17.274-.028 1.21.076 1.499.115.31.319.578.585.77.17.13.784.18.988.273.661.293 1.47.595 2.103.331a.708.708 0 0 1 .233-.072.587.587 0 0 1 .425.252c.702.765 1.935 1.223 3.087 1.15.516-.034 1.007-.165 1.526-.201.618-.012 1.235.016 1.85.083.616.037 1.275 0 1.768-.24.23-.113.425-.27.665-.366.31-.098.63-.159.955-.182a5.36 5.36 0 0 0 1.808-.575.722.722 0 0 0 .294-.234c.042-.073.053-.154.1-.214a.771.771 0 0 1 .304-.214 3.863 3.863 0 0 0 1.464-1.105c.338-.469 1.488-1.222.942-1.614-.232-.17-.976.25-1.127.295-1.802.55-3.673 1.608-5.843 1.816a23.46 23.46 0 0 1-2.058.083c-1.868.017-3.892-.064-5.443-.967a7.316 7.316 0 0 0-1.082-.606c-.4-.15-.91-.176-1.205.05l-.315.106Z" stroke="#000" stroke-width=".64" mask="url(#p)"/><path fill-rule="evenodd" clip-rule="evenodd" d="M44.19 1.6h10.02c4.744 0 8.59 3.582 8.59 8s-3.846 8-8.59 8H44.19c-4.744 0-8.59-3.582-8.59-8s3.846-8 8.59-8Z" fill="#090909"/><path d="M43.845 8.4c.53 0 1 .1 1.41.299.414.2.74.493.977.88.237.388.356.865.356 1.433 0 .618-.13 1.152-.391 1.602-.257.447-.642.79-1.156 1.028-.509.239-1.145.358-1.907.358-.454 0-.883-.04-1.285-.117a3.742 3.742 0 0 1-1.049-.347V11.97c.3.156.66.29 1.078.399.423.106.82.159 1.19.159.364 0 .67-.047.92-.141.248-.098.435-.247.562-.447.13-.203.195-.461.195-.774 0-.42-.142-.74-.426-.963-.285-.223-.72-.335-1.31-.335-.224 0-.46.022-.704.065a7.67 7.67 0 0 0-.605.129l-.728-.388.326-4.373h4.697v1.538h-3.092l-.16 1.685c.134-.028.28-.055.438-.082.158-.028.38-.042.664-.042ZM47.512 11.393V9.926h3.18v1.467h-3.18ZM51.487 10.237c0-.493.035-.98.106-1.462a5.7 5.7 0 0 1 .385-1.368c.182-.43.437-.81.764-1.139a3.373 3.373 0 0 1 1.25-.78c.506-.192 1.118-.288 1.837-.288.17 0 .367.008.592.023.23.012.419.034.569.065v1.45a4.62 4.62 0 0 0-.51-.082 4.068 4.068 0 0 0-.533-.035c-.718 0-1.275.113-1.67.34a1.882 1.882 0 0 0-.83.945c-.158.4-.25.865-.278 1.398h.077c.11-.192.249-.362.415-.511.17-.149.375-.266.616-.352.24-.09.523-.135.847-.135.505 0 .944.107 1.315.322.371.212.657.519.859.922.201.403.302.894.302 1.474 0 .618-.12 1.15-.361 1.596-.241.447-.583.789-1.025 1.028-.438.235-.96.352-1.564.352-.442 0-.855-.074-1.238-.223a2.758 2.758 0 0 1-1.007-.693 3.23 3.23 0 0 1-.675-1.168c-.162-.474-.243-1.033-.243-1.679Zm3.127 2.313c.36 0 .652-.121.877-.364.225-.243.338-.622.338-1.139 0-.419-.099-.747-.296-.986-.194-.243-.488-.364-.883-.364-.269 0-.505.06-.71.182a1.292 1.292 0 0 0-.469.452c-.11.18-.166.366-.166.558 0 .2.028.397.083.593.056.195.138.373.249.534.11.16.247.29.409.387.166.098.355.147.568.147Z" fill="#fff"/></svg>