<svg width="64" height="64" fill="none" xmlns="http://www.w3.org/2000/svg"><mask id="a" maskUnits="userSpaceOnUse" x="9.7" y="7.419" width="42" height="47" fill="#000"><path fill="#fff" d="M9.7 7.419h42v47h-42z"/><path fill-rule="evenodd" clip-rule="evenodd" d="M21.925 20.061h12.74v-.704h-5.602a.3.3 0 0 1-.205-.081l-.002-.002-.003-.003-.01-.01a3.917 3.917 0 0 1-.161-.17 5.854 5.854 0 0 1-.405-.508 6.695 6.695 0 0 1-.945-1.917c-.51-1.668-.493-4.017 1.487-6.795a.3.3 0 0 1 .244-.125h5.601v-.674a.647.647 0 0 1 .384-.6.633.633 0 0 1 .244-.053.645.645 0 0 1 .628.649v.678h4.821a.3.3 0 0 1 .23.494l-.002.001-.007.008a3.233 3.233 0 0 0-.133.172 8.173 8.173 0 0 0-1.22 2.482c-.465 1.604-.505 3.752 1.215 5.97a.3.3 0 0 1-.237.484h-4.668v.704h12.853a.3.3 0 0 1 .229.494l-.001.001-.004.005-.017.02a11.424 11.424 0 0 0-.318.414 19.244 19.244 0 0 0-2.86 5.841c-.92 3.179-1.127 7.266 1.23 11.571h3.456l.041-.071.004-.008a.415.415 0 0 1 .768.207v5.648a13.783 13.783 0 0 1-.05.951 13.9 13.9 0 0 1-.403 2.33c-.463 1.73-1.431 3.717-3.478 4.311a50.11 50.11 0 0 0-1.126.35C41.631 53.59 30.907 57 20.775 49.36l-.033-.025-.025-.033-.003-.004-.008-.01-.031-.042-.12-.16a43.312 43.312 0 0 1-1.849-2.762c-1.088-1.772-2.366-4.142-3.11-6.518a33.208 33.208 0 0 0-1.974-2.936c-.408-.5-1.083-1.44-1.651-2.248a149.587 149.587 0 0 1-.962-1.385l-.083-.12-.006-.01.253-.16-.253.16-.001-.001-.002-.004-.007-.011a1.785 1.785 0 0 1-.088-.168 1.284 1.284 0 0 1-.12-.42.62.62 0 0 1 .226-.557c.187-.146.449-.177.747-.146l.204.113.001.002.004.005.017.02.067.084a27.478 27.478 0 0 0 1.321 1.467c.92.95 2.259 2.214 3.939 3.469.76.567 1.587 1.132 2.476 1.665a14.926 14.926 0 0 1-1.385-3.16c-1.134-3.715-1.118-8.99 3.362-15.279a.3.3 0 0 1 .244-.126Zm15.764 23.17c-.506.095-1.095.17-1.77.2v-2.057h4.013v1.129a5.249 5.249 0 0 1-.52.242c-.38.153-.955.343-1.723.487Zm-6.668-.29V41.79l-.308.008a17.817 17.817 0 0 1-4.291-.424h8.242v2.063a19.545 19.545 0 0 1-3.643-.496Z"/></mask><path d="M35.92 43.432h-.2v.21l.208-.01-.009-.2Zm1.769-.2-.037-.197.037.197Zm-1.77-1.858v-.2h-.2v.2h.2Zm4.013 0h.2v-.2h-.2v.2Zm0 1.129.098.175.102-.057v-.118h-.2Zm-.093.05-.09-.179.09.178Zm-.427.192-.074-.186.074.186ZM34.664 20.06v.2h.2v-.2h-.2Zm0-.704h.2v-.2h-.2v.2Zm-5.806-.081-.137.145.137-.145Zm-.002-.002-.137.145.137-.145Zm-.003-.003-.139.144.002.001.137-.145Zm-.01-.01-.14.143h.001l.139-.143Zm-.036-.036-.143.14.143-.14Zm-.125-.134.149-.133-.15.133Zm-.405-.508.163-.116-.163.116Zm-.945-1.917.19-.059-.19.059Zm1.487-6.795-.163-.116.163.116Zm5.845-.125v.2h.2v-.2h-.2Zm0-.674h.2v-.003l-.2.003Zm.045-.247.186.073-.186-.073Zm.135-.21.144.138-.144-.138Zm.204-.143-.08-.183.08.183Zm.244-.053.003-.2h-.007l.004.2Zm.446.195-.143.139.143-.14Zm.181.454-.2-.002v.002h.2Zm0 .678h-.2v.2h.2v-.2Zm5.095.174-.182.084.182-.084Zm-.044.32-.152-.13-.001.001.153.129Zm-.001.001-.153-.128h-.001l.154.128Zm-.007.008-.154-.128.154.128Zm-.027.034-.156-.125.156.125Zm-.106.138.161.119-.16-.119Zm-.359.54.171.103-.17-.104Zm-.86 1.942-.193-.055.193.055Zm1.214 5.97.158-.123-.158.123Zm.032.316-.18-.088.18.088Zm-4.937.168v-.2h-.2v.2h.2Zm0 .704h-.2v.2h.2v-.2Zm13.125.174-.181.084.181-.084Zm-.043.32-.153-.13v.001l.153.129Zm-.001.001-.153-.129.153.13Zm-.004.005-.153-.128h-.001l.154.128Zm-.017.02-.154-.128v.001l.154.127Zm-.066.083-.157-.124.157.124Zm-.252.331-.161-.118.161.118Zm-.845 1.271-.17-.103.17.103Zm-2.016 4.57.192.056-.192-.056Zm1.232 11.571-.176.096.057.104h.119v-.2Zm3.455 0v.2h.115l.058-.1-.173-.1Zm.041-.071-.174-.1.174.1Zm.004-.008-.17-.103-.004.005.174.099Zm.2-.169.075.186-.075-.186Zm.262-.015-.052.193.052-.193Zm.219.145-.158.123.158-.123Zm.087.246-.2.005.2-.005Zm0 .007h.2v-.005l-.2.005Zm0 5.564h-.2v.002l.2-.002Zm0 .006h.2v-.001h-.2Zm0 .015h.2-.2Zm0 .056.2.002-.2-.002Zm-.005.208.2.006-.2-.006Zm-.046.743.2.017-.2-.017Zm-.402 2.33-.193-.051.193.052Zm-3.478 4.311.056.192-.056-.192Zm-1.126.35.06.19-.06-.19ZM20.775 49.36l.12-.16-.12.16Zm-.033-.025-.159.121.017.022.022.017.12-.16Zm-.025-.033-.159.122.16-.122Zm-.003-.004-.159.121.16-.12Zm-.008-.01-.16.12.16-.12Zm-.031-.042-.16.12.16-.12Zm-.12-.16-.16.118.16-.119Zm-.434-.607-.164.115.164-.115Zm-1.414-2.156-.17.105.17-.105Zm-3.111-6.517.19-.06-.006-.022-.013-.02-.171.102Zm-1.974-2.936.16-.12-.005-.006-.155.126Zm-1.651-2.248.163-.115-.163.115Zm-.737-1.058-.165.114.165-.114Zm-.225-.327-.165.113.165-.113Zm-.083-.12-.167.11.002.003.165-.113Zm.247-.17.108.169-.215-.338.107.169Zm-.254.159-.17.106h.001l.169-.106Zm-.002-.004-.17.105v.001l.17-.106Zm-.007-.011-.171.103v.001l.17-.104Zm-.022-.038.174-.098-.174.098Zm-.066-.13.182-.083-.182.083Zm-.12-.42.2-.015-.2.015Zm.226-.557-.123-.157.123.157Zm.747-.146.097-.175-.036-.02-.04-.004-.021.2Zm.204.113.157-.123-.025-.032-.035-.02-.097.175Zm.001.002-.157.123.157-.123Zm.004.005-.157.124.157-.125Zm.017.02-.157.125.157-.125Zm.067.084-.154.126.154-.127Zm.27.32-.152.13.152-.13Zm1.052 1.147-.144.139.143-.14Zm3.938 3.469.12-.16-.12.16Zm2.476 1.665-.103.171.669.4-.393-.672-.173.1Zm-1.385-3.16-.191.058.19-.058Zm3.362-15.279-.163-.116.163.116Zm9.34 21.603h.2v-.205l-.205.005.005.2Zm0 1.151h-.2v.16l.155.035.045-.195Zm-.308-1.144.005.2-.005-.2Zm-4.291-.423v-.2h-1.834l1.79.395.044-.195Zm8.242 0h.2v-.2h-.2v.2Zm0 2.063-.007.2.207.007v-.207h-.2Zm1.264.195a13.003 13.003 0 0 0 1.798-.204l-.074-.393c-.496.093-1.077.167-1.742.197l.018.4Zm-.209-2.258v2.058h.4v-2.058h-.4Zm4.213-.2H35.92v.4h4.013v-.4Zm.2 1.329v-1.13h-.4v1.13h.4Zm-.202.228.1-.053-.195-.35c-.02.012-.05.027-.087.046l.182.357Zm-.443.2c.196-.08.344-.15.443-.2l-.182-.357c-.089.046-.226.11-.41.185l.149.371Zm-1.761.497a9.319 9.319 0 0 0 1.761-.498l-.15-.37c-.369.148-.93.334-1.685.475l.074.393Zm-3.062-23.567H21.925v.4h12.74v-.4Zm-.2-.504v.704h.4v-.704h-.4Zm-5.4.2h5.6v-.4h-5.6v.4Zm-.343-.135a.5.5 0 0 0 .342.135v-.4a.1.1 0 0 1-.068-.027l-.274.292Zm-.002-.003.002.002.274-.29-.001-.003-.275.291Zm-.004-.003.004.003.275-.29-.003-.003-.276.29Zm-.011-.011.01.01.278-.288-.01-.01-.278.288Zm-.04-.04.04.04.279-.287a1.602 1.602 0 0 1-.033-.033l-.286.28Zm-.131-.14c.054.06.099.107.131.14l.286-.28a3.68 3.68 0 0 1-.12-.127l-.297.267Zm-.419-.526c.163.228.31.404.419.526l.298-.267a5.663 5.663 0 0 1-.391-.491l-.326.232Zm-.974-1.975c.26.851.65 1.52.974 1.975l.326-.232a6.497 6.497 0 0 1-.917-1.86l-.383.117Zm1.516-6.969c-2.016 2.828-2.043 5.242-1.516 6.969l.383-.117c-.49-1.607-.485-3.892 1.459-6.62l-.326-.232Zm.407-.21a.5.5 0 0 0-.407.21l.326.233a.1.1 0 0 1 .081-.042v-.4Zm5.601 0h-5.6v.4h5.6v-.4Zm-.2-.473v.674h.4v-.674h-.4Zm.059-.32a.847.847 0 0 0-.059.323l.4-.006a.444.444 0 0 1 .03-.17l-.371-.147Zm.177-.276a.843.843 0 0 0-.177.276l.372.146a.444.444 0 0 1 .093-.145l-.288-.277Zm.268-.187a.836.836 0 0 0-.268.187l.288.277a.438.438 0 0 1 .14-.097l-.16-.367Zm.32-.07a.833.833 0 0 0-.32.07l.16.367a.434.434 0 0 1 .167-.037l-.007-.4Zm.594.256a.835.835 0 0 0-.587-.255l-.007.4c.116.001.226.049.307.133l.287-.278Zm.237.596a.844.844 0 0 0-.237-.597l-.287.279c.08.083.125.196.124.313l.4.005Zm0 .675v-.678h-.4v.678h.4Zm4.622-.2H35.92v.4h4.822v-.4Zm.454.29a.5.5 0 0 0-.454-.29v.4a.1.1 0 0 1 .091.058l.363-.168Zm-.072.533a.5.5 0 0 0 .072-.533l-.363.168a.1.1 0 0 1-.014.106l.305.26Zm-.001.001.001-.002-.306-.257-.001.002.306.257Zm-.006.007.007-.008-.308-.255-.007.007.308.256Zm-.024.03a2.09 2.09 0 0 1 .025-.03l-.309-.255-.03.036.314.25Zm-.102.133c.044-.06.079-.104.102-.133l-.313-.249c-.026.033-.064.081-.11.145l.322.237Zm-.349.524a7.16 7.16 0 0 1 .35-.524l-.323-.237a7.578 7.578 0 0 0-.369.553l.342.208Zm-.84 1.895a7.973 7.973 0 0 1 .84-1.895l-.342-.208a8.369 8.369 0 0 0-.882 1.992l.385.111Zm1.181 5.791c-1.672-2.156-1.632-4.235-1.18-5.79l-.385-.112c-.479 1.651-.518 3.87 1.249 6.147l.316-.245Zm.054.527a.5.5 0 0 0-.054-.527l-.316.245a.1.1 0 0 1 .01.106l.36.176Zm-.449.28a.5.5 0 0 0 .449-.28l-.36-.176a.1.1 0 0 1-.089.056v.4Zm-4.668 0h4.668v-.4h-4.668v.4Zm.2.504v-.704h-.4v.704h.4Zm12.653-.2H35.919v.4h12.853v-.4Zm.453.29a.5.5 0 0 0-.453-.29v.4a.1.1 0 0 1 .09.058l.363-.168Zm-.071.533a.5.5 0 0 0 .071-.533l-.363.168a.1.1 0 0 1-.014.107l.306.258Zm0 0-.306-.258-.001.001.306.258Zm-.004.005.004-.005-.308-.256-.003.005.307.256Zm-.016.02.016-.021-.308-.255-.017.02.309.255Zm-.065.08c.03-.037.05-.064.065-.081l-.31-.254-.068.086.313.248Zm-.247.324c.106-.143.19-.253.247-.325l-.313-.248c-.06.076-.148.189-.256.337l.322.236Zm-.834 1.257c.329-.544.623-.969.834-1.257l-.322-.236c-.217.296-.519.73-.855 1.286l.343.207Zm-1.996 4.522a19.048 19.048 0 0 1 1.996-4.522l-.343-.207a19.45 19.45 0 0 0-2.037 4.618l.384.11Zm1.215 11.419c-2.326-4.248-2.122-8.279-1.215-11.42l-.384-.11c-.93 3.216-1.14 7.36 1.248 11.722l.35-.192Zm3.28-.104H47.03v.4h3.456v-.4Zm.173.3a9.4 9.4 0 0 0 .042-.072l-.348-.198-.04.07.346.2Zm.042-.072.004-.007-.348-.198-.004.007.348.198Zm.001-.003c.024-.04.06-.07.103-.087l-.148-.372a.614.614 0 0 0-.297.252l.342.207Zm.103-.087a.214.214 0 0 1 .136-.008l.105-.386a.613.613 0 0 0-.39.022l.15.372Zm.136-.008a.214.214 0 0 1 .113.075l.316-.246a.614.614 0 0 0-.324-.215l-.105.386Zm.113.075a.215.215 0 0 1 .045.127l.4-.008a.615.615 0 0 0-.13-.365l-.315.246Zm.045.128v.006l.4-.009v-.006l-.4.009Zm0 .002v5.564h.4v-5.564h-.4Zm0 5.57v.015h.4v-.016l-.4.001Zm0 .015v.053l.4.005v-.058h-.4Zm0 .053c0 .047-.002.116-.005.204l.4.013.005-.212-.4-.005Zm-.005.204c-.006.175-.018.427-.045.732l.398.035c.028-.313.04-.572.047-.754l-.4-.013Zm-.045.732c-.054.61-.166 1.436-.396 2.297l.386.103c.238-.89.353-1.74.408-2.365l-.398-.035Zm-.396 2.297c-.46 1.715-1.401 3.607-3.34 4.17l.11.384c2.155-.625 3.15-2.708 3.616-4.45l-.386-.104Zm-3.34 4.17c-.322.093-.702.214-1.132.35l.122.382c.43-.137.805-.256 1.12-.348l-.11-.384Zm-1.132.35c-4.613 1.468-15.243 4.842-25.287-2.732l-.24.32c10.22 7.706 21.037 4.26 25.649 2.794l-.122-.381Zm-25.287-2.732-.032-.025-.241.32.032.024.241-.32Zm.006.013-.025-.032-.318.243.025.032.318-.243Zm-.027-.036-.009-.01-.318.242.008.01.319-.242Zm-.008-.01-.032-.042-.32.241.032.042.32-.24Zm-.032-.041a24.59 24.59 0 0 1-.117-.16l-.323.238.12.162.32-.24Zm-.117-.16c-.103-.138-.25-.342-.432-.602l-.328.23c.184.262.333.468.437.61l.323-.237Zm-.432-.602a43.13 43.13 0 0 1-1.408-2.146l-.34.21c.55.895 1.053 1.642 1.42 2.166l.328-.23Zm-1.408-2.146c-1.085-1.765-2.354-4.119-3.09-6.471l-.382.12c.75 2.398 2.04 4.783 3.131 6.56l.341-.209Zm-3.11-6.514a33.418 33.418 0 0 0-1.985-2.954l-.32.24c.705.937 1.36 1.912 1.962 2.919l.343-.205Zm-1.99-2.96c-.403-.493-1.073-1.427-1.643-2.237l-.327.23c.568.807 1.247 1.754 1.66 2.26l.31-.253Zm-1.643-2.237c-.286-.406-.546-.782-.736-1.057l-.329.228c.19.275.451.652.738 1.06l.327-.23Zm-.736-1.057-.224-.326-.33.226.225.328.33-.228Zm-.224-.326-.083-.12-.33.226.083.12.33-.226Zm-.081-.118L11.087 33l-.334.22.006.009.334-.22Zm-.065.27.253-.16-.215-.338-.253.161.215.338Zm.038-.498-.221.141-.027.017-.003.002.002-.001.003-.002.008-.005.017-.007c.002-.001.015-.007.032-.01a.349.349 0 0 1 .056-.005c.09.028.157.094-.013.2-.17.105-.102.172-.013.2a.194.194 0 0 0 .089-.015l.016-.008a.157.157 0 0 0 .012-.006l.003-.002a.164.164 0 0 0 .004-.002l.028-.018.222-.142-.215-.337Zm.023.223V33l-.339.214.001.002.338-.214Zm0-.001-.003-.004-.339.212.002.004.34-.212Zm-.002-.002-.007-.011-.34.208.006.012.341-.209Zm-.006-.01a1.58 1.58 0 0 1-.02-.033l-.348.196.026.043.342-.206Zm-.02-.033a1.626 1.626 0 0 1-.057-.115l-.364.167c.027.059.053.108.073.144l.349-.196Zm-.057-.115a1.09 1.09 0 0 1-.102-.352l-.399.031c.016.2.087.378.137.488l.364-.167Zm-.102-.352c-.01-.133.018-.282.149-.384l-.246-.315a.82.82 0 0 0-.302.73l.4-.032Zm.149-.384c.125-.098.322-.135.603-.105l.042-.398c-.316-.033-.643-.007-.891.188l.246.315Zm.527-.129.204.113.194-.35-.204-.113-.194.35Zm.144.062.001.001.314-.247v-.001l-.315.247Zm.001.002.004.005.314-.248-.004-.006-.314.249Zm.005.005.016.021.313-.25-.017-.02-.312.25Zm.017.021.069.085.309-.253a9.576 9.576 0 0 1-.066-.082l-.312.25Zm.069.085c.06.075.152.184.272.324l.303-.261a17.365 17.365 0 0 1-.266-.316l-.31.253Zm.272.324c.241.279.598.678 1.06 1.156l.287-.279a27.266 27.266 0 0 1-1.044-1.138l-.303.261Zm1.06 1.156a33.33 33.33 0 0 0 3.962 3.49l.24-.32c-1.67-1.248-3.001-2.504-3.915-3.449l-.287.279Zm3.962 3.49c.764.571 1.598 1.14 2.493 1.676l.206-.343a29.162 29.162 0 0 1-2.46-1.653l-.239.32Zm1.02-1.597a15.123 15.123 0 0 0 1.403 3.202l.346-.201a14.72 14.72 0 0 1-1.367-3.118l-.383.117Zm3.39-15.453c-4.515 6.34-4.543 11.679-3.39 15.453l.382-.117c-1.116-3.654-1.11-8.864 3.334-15.104l-.326-.232Zm.407-.21a.5.5 0 0 0-.407.21l.326.232a.1.1 0 0 1 .081-.042v-.4Zm8.896 21.929v1.151h.4V41.79h-.4Zm-.103.208.308-.008-.01-.4-.307.008.01.4Zm-4.34-.429c1.383.305 2.834.466 4.34.428l-.01-.4c-1.47.037-2.89-.12-4.243-.419l-.086.391Zm8.286-.395h-8.242v.4h8.242v-.4Zm.2 2.263v-2.063h-.4v2.063h.4Zm-3.887-.3a19.75 19.75 0 0 0 3.68.5l.014-.4a19.348 19.348 0 0 1-3.606-.49l-.088.39Zm20.123.97v.006l.4-.002v-.006l-.4.003Zm-30.224 5.075-.003-.004-.318.243.003.004.318-.243Z" fill="#000" mask="url(#a)"/><path d="M50.789 38.502h-8.413s.285 2.075-2.35 2.589v1.466s-3.083 1.91-9.312.41v1.507s11.48 2.332 16.108-.855v-1.913s2.386-.288 3.967-3.205Z" fill="#424242"/><path d="M50.789 38.502h-8.413s.285 2.075-2.35 2.589v1.466s-3.083 1.91-9.312.41v1.507s11.48 2.332 16.108-.855v-1.913s2.386-.288 3.967-3.205Z" fill="#000" fill-opacity=".6"/><path fill-rule="evenodd" clip-rule="evenodd" d="M42.267 38.407h8.522v.095l.083.044c-.8 1.476-1.805 2.29-2.614 2.734a5.06 5.06 0 0 1-1.012.426 3.497 3.497 0 0 1-.33.08v1.882l-.04.029c-1.175.809-2.777 1.263-4.51 1.494-1.735.23-3.61.237-5.338.145a49.357 49.357 0 0 1-6.201-.744l-.098-.019-.025-.005-.006-.001h-.002l.018-.093-.018.093-.076-.016v-1.705l.117.029c3.101.747 5.416.644 6.952.357a9.128 9.128 0 0 0 1.723-.487 5.249 5.249 0 0 0 .52-.242v-1.49l.077-.015c1.288-.252 1.85-.88 2.094-1.433a2.226 2.226 0 0 0 .181-1.031l-.001-.016v-.003l-.016-.108Zm.21.189a2.415 2.415 0 0 1-.202 1.046c-.265.6-.861 1.253-2.154 1.526v1.442l-.044.028-.05-.08.05.08h-.001l-.002.002-.008.004a5.432 5.432 0 0 1-.583.276 9.307 9.307 0 0 1-1.76.498c-1.543.288-3.846.391-6.914-.332v1.31l.053.01a45.594 45.594 0 0 0 1.732.288c1.147.17 2.724.361 4.444.453 1.721.092 3.584.085 5.303-.144 1.7-.226 3.251-.667 4.387-1.434v-1.947l.083-.01h.005l.019-.004a3.342 3.342 0 0 0 .359-.084c.242-.07.583-.195.973-.41.755-.414 1.694-1.165 2.462-2.518h-8.151Z" fill="#231F20"/><path d="M34.664 43.54V9.073a.645.645 0 0 1 .384-.6.633.633 0 0 1 .244-.053.645.645 0 0 1 .628.649v34.45l-1.256.023Z" fill="#231F20"/><path d="M21.925 20.361h26.847s-8.581 10.14-.336 20.713h-26.51s-8.853-8.285 0-20.713Zm7.138-10.315h11.678s-3.735 4.394-.154 9.01H29.063s-3.852-3.606 0-9.01Z" fill="#424242"/><path d="M21.925 20.361h26.847s-8.581 10.14-.336 20.713h-26.51s-8.853-8.285 0-20.713Zm7.138-10.315h11.678s-3.735 4.394-.154 9.01H29.063s-3.852-3.606 0-9.01Z" fill="#fff" fill-opacity=".05"/><path fill-rule="evenodd" clip-rule="evenodd" d="M28.819 9.871a.3.3 0 0 1 .244-.125h11.678a.3.3 0 0 1 .23.494l-.002.001-.007.008a3.233 3.233 0 0 0-.133.172 8.173 8.173 0 0 0-1.22 2.482c-.465 1.604-.505 3.752 1.215 5.97a.3.3 0 0 1-.237.484H29.063a.3.3 0 0 1-.205-.081l.205-.22-.205.22-.002-.002-.003-.003-.01-.01a3.917 3.917 0 0 1-.161-.17 5.854 5.854 0 0 1-.405-.508 6.695 6.695 0 0 1-.945-1.917c-.51-1.668-.493-4.017 1.487-6.795Zm.37 8.886h10.81c-1.503-2.23-1.439-4.391-.966-6.02a8.77 8.77 0 0 1 1.117-2.391H29.22c-1.783 2.57-1.76 4.68-1.314 6.144.23.751.574 1.342.86 1.745a5.262 5.262 0 0 0 .424.522Zm-7.508 1.43a.3.3 0 0 1 .244-.126h26.847a.3.3 0 0 1 .229.494l-.001.001-.004.005-.017.02a11.424 11.424 0 0 0-.318.414 19.244 19.244 0 0 0-2.86 5.841c-1.095 3.785-1.18 8.858 2.872 14.053a.3.3 0 0 1-.237.485h-26.51a.3.3 0 0 1-.206-.081l.205-.22-.205.22v-.001l-.002-.002-.006-.005-.021-.02a8.735 8.735 0 0 1-.352-.37 13.08 13.08 0 0 1-.903-1.136 14.993 14.993 0 0 1-2.117-4.293c-1.134-3.715-1.118-8.99 3.362-15.279Zm.367 20.587h25.785c-3.821-5.21-3.71-10.294-2.61-14.105a19.843 19.843 0 0 1 2.939-6.008H22.08c-4.284 6.083-4.26 11.119-3.188 14.63a14.397 14.397 0 0 0 2.032 4.12c.338.475.642.839.86 1.082.11.122.197.214.257.274l.006.007Z" fill="#000"/><path d="M34.607 23.46s-.493-.507-2.272-.56c0 0-2.349-.085-3.45 1.49-1.1 1.575-1.456 4.076-1.456 4.076s-.62 1.69 1.05 1.23l.172 2.2s.406.923 1.342.193c0 0 .406.71 1.265 0 0 0 .641.994 1.37-.192l.449-2.116s1.413.561 1.95.132c.537-.43.6-.95.708-2.633.107-1.684.305-2.782-1.128-3.82Zm-6.127 4.273c-.43-1.035.298-1.187.298-1.187s.58-.388 1.114.754c.302.821-.335 1.102-.335 1.102s-.648.365-1.077-.67Zm2.228 2.4a.668.668 0 0 1-.457-.295.453.453 0 0 1-.406.284c-.292 0-.258-.338-.258-.409.069-.299.182-.586.335-.851.188-.308.336-.278.336-.278a.46.46 0 0 1 .373.183c.164.272.296.562.392.865.007.132-.043.504-.315.5Zm2.624-2.029c-.906 1.058-1.52.372-1.52.372s-.648-.581.023-1.43c1.074-1.135 1.604-.449 1.604-.449s.8.463-.107 1.514v-.007Z" fill="#fff"/><path d="M26.567 32.272s-.601-.835.127-1.197c.728-.362 1.4.646 1.386 1.014l6.654 3.404s1.601-.318 1.484.645c-.118.964-.856.636-.856.636s.816.645.044.977c-.772.33-1.245-.602-1.356-1.079l-6.732-3.353s-.852.886-1.466.088c-.715-.93.715-1.135.715-1.135Z" fill="#fff"/><path d="M35.312 32.272s.6-.835-.128-1.197c-.728-.362-1.4.646-1.386 1.014l-6.654 3.404s-1.601-.318-1.487.645c.114.964.86.636.86.636s-.816.645-.044.977c.771.33 1.255-.592 1.342-1.079l6.732-3.353s.849.886 1.466.088c.725-.93-.701-1.135-.701-1.135Z" fill="#fff"/><path d="M11.643 32.1s8.054 10.271 19.078 9.997v2.387s11.138 2.504 16.108-.855v-1.924s2.168-.077 3.96-3.22a.114.114 0 0 1 .127-.052.115.115 0 0 1 .084.109v5.566s.057 6.284-3.715 7.379c-3.772 1.095-15.393 5.881-26.33-2.366 0 0-3.62-4.732-5.083-9.437a33.51 33.51 0 0 0-2.014-2.998c-.799-.977-2.685-3.738-2.685-3.738s-.614-.963.47-.849Z" fill="#424242"/><path d="M11.643 32.1s8.054 10.271 19.078 9.997v2.387s11.138 2.504 16.108-.855v-1.924s2.168-.077 3.96-3.22a.114.114 0 0 1 .127-.052.115.115 0 0 1 .084.109v5.566s.057 6.284-3.715 7.379c-3.772 1.095-15.393 5.881-26.33-2.366 0 0-3.62-4.732-5.083-9.437a33.51 33.51 0 0 0-2.014-2.998c-.799-.977-2.685-3.738-2.685-3.738s-.614-.963.47-.849Z" fill="#000" fill-opacity=".2"/><path fill-rule="evenodd" clip-rule="evenodd" d="m11.425 32.784-.001-.002a1.353 1.353 0 0 1-.057-.108.702.702 0 0 1-.066-.217.16.16 0 0 1 0-.04c.015-.008.067-.029.191-.027l.012.015c.064.077.157.19.28.331.245.284.606.689 1.074 1.173a33.743 33.743 0 0 0 4.01 3.532c3.356 2.507 8.077 5.002 13.553 4.961v2.322l.234.052.066-.292-.066.292h.003l.006.002.025.006.096.02a40.938 40.938 0 0 0 1.706.314c1.129.184 2.686.394 4.402.498 1.715.103 3.594.102 5.363-.14 1.765-.24 3.445-.723 4.74-1.599l.133-.09v-1.821a4.293 4.293 0 0 0 1.15-.428c.716-.386 1.594-1.082 2.421-2.336V44.126a6.042 6.042 0 0 1-.005.245 13.3 13.3 0 0 1-.428 2.939c-.451 1.686-1.34 3.388-3.066 3.889-.326.095-.71.216-1.143.354-4.623 1.465-15.028 4.764-24.889-2.646l-.015-.02a33.058 33.058 0 0 1-.542-.75 42.683 42.683 0 0 1-1.394-2.127c-1.083-1.762-2.34-4.097-3.06-6.415l-.01-.034-.019-.03a33.793 33.793 0 0 0-2.031-3.025l-.008-.01c-.391-.478-1.056-1.404-1.628-2.218a153.416 153.416 0 0 1-.959-1.38l-.078-.114Zm9.53 16.337-.238.182-.003-.004-.008-.01-.031-.042-.12-.16a43.312 43.312 0 0 1-1.849-2.762c-1.088-1.772-2.366-4.142-3.11-6.518a33.208 33.208 0 0 0-1.974-2.936c-.408-.5-1.083-1.44-1.651-2.248a149.587 149.587 0 0 1-.962-1.385l-.083-.12.247-.17-.253.16-.001-.001-.002-.004-.007-.011a1.785 1.785 0 0 1-.088-.168 1.284 1.284 0 0 1-.12-.42.62.62 0 0 1 .226-.557c.187-.146.449-.177.747-.146l.204.113.001.002.004.005.017.02.067.084a27.414 27.414 0 0 0 1.321 1.467c.92.95 2.259 2.214 3.939 3.469 3.365 2.514 8.068 4.971 13.485 4.837l.308-.008v2.45a40.202 40.202 0 0 0 1.566.286c1.115.182 2.652.388 4.342.49 1.691.103 3.529.1 5.246-.134 1.657-.226 3.181-.665 4.354-1.415v-2.051l.287-.01h.001l.012-.001.057-.007c.053-.007.134-.02.238-.045a3.7 3.7 0 0 0 .87-.344c.715-.384 1.665-1.148 2.534-2.673l.004-.008a.415.415 0 0 1 .768.207V44.183a13.783 13.783 0 0 1-.05.951 13.9 13.9 0 0 1-.403 2.33c-.463 1.73-1.431 3.717-3.478 4.311a50.11 50.11 0 0 0-1.126.35C41.631 53.59 30.907 57 20.775 49.36l-.033-.025-.025-.033.239-.182Zm-9.782-16.173-.247.17-.006-.01.253-.16Z" fill="#000"/><path d="M20.554 49.718c-.385-.475-.713-1.325-1.809-1.252-.686.05-1.693.54-2.002 1.038-.308.497-.05 2.195.14 2.72a3.031 3.031 0 0 0 1.06 1.398c.308.233 1.423.326 1.793.493 1.2.533 2.666 1.08 3.816.603a1.29 1.29 0 0 1 .424-.132 1.068 1.068 0 0 1 .771.458c1.273 1.387 3.51 2.219 5.601 2.086.938-.062 1.829-.299 2.77-.365a26.4 26.4 0 0 1 3.356.152c1.119.066 2.314 0 3.21-.435.416-.206.77-.49 1.207-.665a7.52 7.52 0 0 1 1.732-.33 9.725 9.725 0 0 0 3.282-1.045 1.31 1.31 0 0 0 .533-.424c.077-.132.096-.28.18-.388a1.4 1.4 0 0 1 .552-.389 7.01 7.01 0 0 0 2.658-2.004c.613-.851 2.7-2.219 1.709-2.93-.42-.307-1.77.455-2.044.536-3.272.999-6.666 2.918-10.604 3.295-1.23.117-2.485.144-3.734.151-3.391.032-7.063-.116-9.88-1.756a13.29 13.29 0 0 0-1.963-1.1c-.725-.271-1.65-.318-2.187.09l-.57.194Z" fill="#7ED2EF"/><path fill-rule="evenodd" clip-rule="evenodd" d="M16.882 52.223c-.189-.524-.447-2.222-.139-2.72.309-.496 1.316-.986 2.002-1.037.894-.06 1.276.495 1.597.959.072.105.141.205.212.293l.571-.195c.536-.408 1.462-.361 2.187-.09.684.311 1.341.679 1.964 1.1 2.816 1.64 6.488 1.788 9.879 1.756 1.25-.007 2.503-.035 3.734-.151 2.631-.252 5.02-1.192 7.292-2.087 1.127-.444 2.226-.876 3.312-1.208.062-.018.18-.072.33-.14.51-.232 1.39-.633 1.714-.396.712.511-.165 1.36-.942 2.114-.305.296-.594.576-.767.816a7.01 7.01 0 0 1-2.658 2.004 1.4 1.4 0 0 0-.551.389.756.756 0 0 0-.102.208c-.022.06-.045.122-.08.18a1.31 1.31 0 0 1-.532.424 9.726 9.726 0 0 1-3.282 1.045 7.52 7.52 0 0 0-1.732.33c-.252.101-.477.239-.703.377-.164.1-.33.2-.505.288-.895.435-2.09.5-3.21.435a26.4 26.4 0 0 0-3.355-.152c-.466.033-.92.108-1.374.182-.462.076-.923.152-1.396.183-2.09.133-4.328-.699-5.6-2.086a1.075 1.075 0 0 0-.772-.458 1.29 1.29 0 0 0-.424.132c-1.15.478-2.616-.07-3.815-.603-.158-.07-.45-.128-.756-.189-.416-.082-.86-.17-1.038-.304a3.03 3.03 0 0 1-1.06-1.399Zm.705 1.882a3.632 3.632 0 0 1-1.267-1.673l-.002-.005c-.12-.33-.238-.943-.29-1.52a5.756 5.756 0 0 1-.018-.883c.017-.255.064-.58.223-.837.242-.388.689-.697 1.098-.904.424-.216.925-.382 1.37-.415h.004c.742-.05 1.26.225 1.632.59.173.171.31.356.417.509l.028.04.067-.024c.39-.26.86-.353 1.29-.36.472-.006.959.09 1.384.25l.019.006.018.008c.709.322 1.39.702 2.035 1.138 2.654 1.537 6.158 1.696 9.554 1.665h.002c1.245-.008 2.478-.035 3.68-.15 1.892-.18 3.668-.733 5.4-1.379.565-.21 1.133-.433 1.699-.656 1.142-.45 2.28-.898 3.388-1.236h.003c-.002 0-.001 0 .002-.002l.078-.032.171-.077.048-.022c.172-.079.395-.179.626-.267.226-.087.489-.173.74-.212.218-.034.593-.06.903.164.202.146.367.34.452.587.084.247.069.488.012.695-.104.384-.374.736-.619 1.014-.224.253-.488.51-.723.737l-.1.096c-.274.267-.48.475-.596.637l-.01.015-.012.014a7.609 7.609 0 0 1-2.886 2.176l-.01.005-.01.004a.798.798 0 0 0-.287.191.993.993 0 0 0-.02.051c-.02.056-.061.17-.124.278l-.017.028-.019.026a1.909 1.909 0 0 1-.753.607 10.322 10.322 0 0 1-3.467 1.1l-.017.002-.018.002a6.914 6.914 0 0 0-1.571.296 3.727 3.727 0 0 0-.503.269l-.085.051c-.164.1-.355.218-.557.318l-.003.001c-1.04.506-2.366.562-3.508.495l-.014-.001-.015-.002a25.787 25.787 0 0 0-3.264-.148 14.58 14.58 0 0 0-1.316.176h-.001c-.453.075-.938.155-1.44.188h-.002c-2.248.142-4.67-.742-6.08-2.28l-.029-.03-.024-.034a.475.475 0 0 0-.273-.19.69.69 0 0 0-.154.056l-.022.011-.022.01c-.734.305-1.527.267-2.247.11-.723-.158-1.435-.449-2.042-.718l-.003-.002a1.807 1.807 0 0 0-.277-.076c-.105-.023-.218-.045-.34-.07a37.725 37.725 0 0 1-.175-.034 7.374 7.374 0 0 1-.562-.131 1.739 1.739 0 0 1-.55-.246Z" fill="#000"/></svg>