<svg width="128" height="128" viewBox="0 0 128 128" fill="none" xmlns="http://www.w3.org/2000/svg">
<path d="M65.7091 18.0099C65.9089 18.0099 98.6819 45.0635 98.6819 45.0635C98.8818 45.2639 99.0816 45.5645 99.0816 45.8651L106.875 93.0585C107.075 94.0605 106.875 94.6617 106.276 94.6617C106.076 94.6617 105.876 94.6617 105.576 94.3611L100.281 90.1528L98.4821 93.1587L89.2897 108.99H38.6314L29.4389 93.9603L27.2407 90.4534L22.3448 94.4613L21.6454 94.6617C21.1458 94.6617 20.846 93.9603 21.0458 93.0585L28.8394 45.9653C28.8394 45.5645 29.0393 45.2639 29.339 45.0635C29.339 45.0635 62.0121 18.0099 62.3119 18.0099H65.7091ZM62.212 13C60.4134 13 59.6141 13.7014 57.6157 15.3046C52.5318 19.3788 47.5022 23.5207 42.5282 27.7292L26.1417 41.256C24.9773 42.2197 24.1972 43.571 23.9435 45.0635L16.1499 92.1567C15.7502 94.2609 16.1499 96.2649 17.3489 97.6677C18.3481 98.9702 20.0467 99.6716 21.6454 99.6716C23.0692 99.6829 24.4506 99.1857 25.5421 98.2688L25.9418 97.8681L34.4348 111.595C34.8743 112.319 35.4898 112.92 36.2238 113.34C36.9578 113.761 37.7861 113.988 38.6314 114H89.2897C90.1615 113.995 91.0168 113.761 91.7706 113.321C92.5243 112.882 93.1502 112.252 93.5861 111.495L101.58 97.6677L102.479 98.2688C103.544 99.1636 104.886 99.6594 106.276 99.6716C107.974 99.6716 109.473 98.9702 110.572 97.6677C111.168 96.9146 111.592 96.0404 111.817 95.106C112.041 94.1716 112.06 93.1993 111.871 92.2569L104.077 45.1637V44.9633C103.778 43.5605 102.978 42.1577 101.879 41.256C92.6318 33.6268 83.3728 26.0117 74.1022 18.4107C67.6075 13 67.6075 13 65.7091 13H62.3119H62.212Z" fill="black"/>
<path d="M37.832 110.593L27.5405 93.5595L63.8106 65.1032L100.281 92.7579L90.089 110.593H37.832Z" fill="url(#paint0_linear_2_496)"/>
<path d="M64.0105 67.0069L98.4821 93.1587L89.2897 108.99H38.6314L29.439 93.9603L64.0105 66.9067M64.0105 63.1994L62.0122 64.502L27.5405 91.5556L25.4423 93.2589L26.8411 95.5635L36.0335 110.493L36.9328 111.896H90.9883L91.8876 110.393L101.08 94.5615L102.379 92.2569L100.281 90.6538L65.809 64.6022L63.8107 63.1994H64.0105Z" fill="#482402"/>
<path d="M21.6454 96.1647C21.3433 96.1766 21.0426 96.1197 20.7657 95.9982C20.4887 95.8767 20.2429 95.6938 20.0467 95.4633C19.5471 94.7619 19.3473 93.8601 19.5471 92.8581L27.3407 45.6647C27.4406 44.9633 27.8403 44.3621 28.3399 43.9613C61.4126 16.4067 61.5126 16.4067 62.3119 16.4067H63.7107V61.6964C63.7107 62.498 63.411 63.2996 62.7116 63.9008L23.2441 95.5635C22.7445 95.9643 22.2449 96.1647 21.6454 96.1647Z" fill="url(#paint1_linear_2_496)"/>
<path d="M62.2119 18.0099V61.7966C62.2119 62.1974 62.112 62.5982 61.7123 62.7986L22.3448 94.3611L21.6453 94.6617C21.1457 94.6617 20.846 93.9603 21.0458 93.0585L28.8394 45.9653C28.8394 45.5645 29.0392 45.2639 29.339 45.0635C29.339 45.0635 62.0121 18.0099 62.3119 18.0099M62.2119 15.004C61.1128 15.004 61.1128 15.004 55.1178 20.0139L43.7272 29.2321L27.3406 42.7589C26.6412 43.4603 26.0417 44.3621 25.8419 45.3641L18.0483 92.5575C17.8485 94.0605 18.0483 95.4633 18.9475 96.3651C19.5471 97.2669 20.6461 97.6677 21.6453 97.6677C22.603 97.6566 23.5249 97.301 24.2432 96.6657L63.6108 65.2034C64.61 64.3016 65.2095 63.0992 65.2095 61.7966V15.004H62.2119Z" fill="#482402"/>
<path d="M106.276 96.1647C105.676 96.1647 105.177 95.9643 104.677 95.5635L65.2095 64.001C64.61 63.3998 64.2103 62.5982 64.2103 61.7966V16.4067H65.7091C66.4085 16.4067 66.8082 16.7073 99.6811 43.8611C100.081 44.2619 100.48 44.8631 100.58 45.5645L108.374 92.6577C108.574 93.7599 108.374 94.6617 107.874 95.3631C107.678 95.5936 107.432 95.7765 107.155 95.898C106.878 96.0195 106.578 96.0764 106.276 96.0645V96.1647Z" fill="url(#paint2_linear_2_496)"/>
<path d="M65.7091 18.0099C65.9089 18.0099 98.6819 45.0635 98.6819 45.0635C98.8818 45.2639 99.0816 45.5645 99.0816 45.8651L106.875 93.0585C107.075 94.0605 106.875 94.6617 106.276 94.6617C106.076 94.6617 105.876 94.6617 105.576 94.3611L66.2087 62.7986C65.9089 62.5982 65.7091 62.1974 65.7091 61.7966V18.0099ZM65.7091 15.004H62.7115V61.7966C62.7115 63.0992 63.3111 64.3016 64.3102 65.1032L103.678 96.7659C104.677 97.5675 105.676 97.7679 106.276 97.7679C107.275 97.7679 108.274 97.2669 108.973 96.3651C109.873 95.3631 110.172 94.0605 109.873 92.5575L102.079 45.4643V45.3641C101.879 44.3621 101.38 43.3601 100.58 42.7589L84.1939 29.2321L72.8032 19.9137C66.8082 15.004 66.8082 15.004 65.7091 15.004Z" fill="#482402"/>
<path d="M69.6058 112.297H58.3151L57.3159 100.473C57.3082 99.3528 57.6128 98.2525 58.1954 97.2965C58.778 96.3404 59.6154 95.5667 60.6132 95.0625C62.6116 94.0605 65.0096 94.0605 67.008 95.0625H67.2078C68.2397 95.5599 69.108 96.3432 69.71 97.3198C70.312 98.2964 70.6226 99.4254 70.605 100.573L69.6058 112.297Z" fill="black"/>
<defs>
<linearGradient id="paint0_linear_2_496" x1="63.9105" y1="65.1032" x2="63.9105" y2="110.493" gradientUnits="userSpaceOnUse">
<stop offset="0.1" stop-color="#E07D65"/>
<stop offset="0.3" stop-color="#DC7961"/>
<stop offset="0.5" stop-color="#D06E54"/>
<stop offset="0.7" stop-color="#BD5B3E"/>
<stop offset="0.9" stop-color="#A24120"/>
<stop offset="1" stop-color="#93320F"/>
</linearGradient>
<linearGradient id="paint1_linear_2_496" x1="61.1129" y1="67.2073" x2="26.2928" y2="47.1521" gradientUnits="userSpaceOnUse">
<stop offset="0.1" stop-color="#E07D65"/>
<stop offset="1" stop-color="#93320F"/>
</linearGradient>
<linearGradient id="paint2_linear_2_496" x1="101.58" y1="47.0675" x2="66.7595" y2="67.1227" gradientUnits="userSpaceOnUse">
<stop stop-color="#93320F"/>
<stop offset="0.9" stop-color="#E07D65"/>
</linearGradient>
</defs>
</svg>
