<?xml version="1.0"?>
<svg xmlns="http://www.w3.org/2000/svg" width="58" height="58" viewBox="0 0 58 58" style="background-color:transparent;">
  <rect width="100%" height="100%" fill="none"/>
  <g transform="translate(11,6)">
    <path xmlns="http://www.w3.org/2000/svg" d="M9.54239 44.2415C9.3794 44.2759 9.20942 44.2444 9.06973 44.1537C8.93004 44.0631 8.83205 43.9208 8.79726 43.758L1.01916 7.16493C0.984769 7.0021 1.01643 6.83226 1.10718 6.69268C1.19794 6.55311 1.34039 6.45518 1.50327 6.42039L26.7206 1.06028C26.8836 1.02581 27.0535 1.05733 27.1932 1.14792C27.3329 1.23852 27.4309 1.3808 27.4657 1.54354L35.2438 38.1366C35.2782 38.2995 35.2466 38.4693 35.1559 38.609C35.0651 38.7486 34.9227 38.8465 34.7597 38.8814L9.54239 44.2415Z" fill="url(#paint0_radial_2106_40653)"/>
    <path xmlns="http://www.w3.org/2000/svg" d="M26.5181 1.32022C26.6779 1.28642 26.8447 1.31786 26.9818 1.40766C27.119 1.49746 27.2154 1.63828 27.2498 1.79922L34.942 37.9881C34.9761 38.1491 34.9453 38.317 34.8565 38.4549C34.7677 38.5927 34.6281 38.6893 34.4684 38.7235L9.73906 43.9799C9.57923 44.0136 9.41242 43.9822 9.27523 43.8923C9.13804 43.8025 9.04168 43.6616 9.00727 43.5007L1.31509 7.31182C1.28108 7.15079 1.31185 6.98295 1.40065 6.84512C1.48945 6.70728 1.62902 6.61072 1.78875 6.5766L26.5181 1.32022ZM26.3089 0.335923L1.57953 5.5923C0.70703 5.77776 0.151432 6.64048 0.338265 7.51945L8.03044 43.7083C8.21727 44.5873 9.07578 45.1496 9.94828 44.9642L34.6776 39.7078C35.5499 39.5224 36.1057 38.6594 35.9188 37.7804L28.2267 1.59159C28.0398 0.712715 27.1812 0.150508 26.3089 0.335923Z" fill="black"/>
    <path xmlns="http://www.w3.org/2000/svg" d="M22.7217 21.8363L22.8154 21.8404C22.8423 21.8437 22.864 21.8476 22.8765 21.8503C22.911 21.8579 22.9467 21.8688 22.9804 21.8792C23.0485 21.9002 23.131 21.929 23.222 21.9636C23.4053 22.0333 23.6449 22.133 23.919 22.2507C24.4684 22.4868 25.1701 22.8044 25.8637 23.1283C26.5573 23.4522 27.2469 23.7837 27.7706 24.0488C28.0315 24.1809 28.2554 24.2985 28.4194 24.3911C28.5006 24.437 28.5742 24.4808 28.6312 24.5188C28.659 24.5373 28.6902 24.5593 28.7188 24.5831C28.7315 24.5936 28.8032 24.6507 28.8487 24.7432C28.9011 24.8503 28.9821 25.0219 28.9578 25.2471C28.9357 25.4519 28.8335 25.6436 28.7004 25.8399C28.433 26.2343 27.8782 26.873 26.8587 28.0395C25.9469 29.0827 25.4328 29.665 25.1198 29.9855C24.8317 30.2806 24.6208 30.4648 24.3224 30.4705C24.1958 30.4729 24.0425 30.4654 23.8926 30.4071C23.7273 30.3429 23.6026 30.2315 23.5093 30.0882C23.4237 29.9567 23.364 29.7979 23.3136 29.6277C23.262 29.4539 23.2122 29.2401 23.1577 28.9839L23.0475 28.4652L21.7904 28.7134C21.0003 28.8691 20.5605 28.9557 20.2767 28.9853C20.1275 29.0008 20.0027 29.0028 19.8808 28.9875C19.7609 28.9725 19.6597 28.9424 19.5687 28.9141C19.3341 28.8411 19.062 28.6807 18.79 28.4866C18.51 28.2868 18.2011 28.0292 17.8884 27.7348L17.6352 27.4971L17.4403 27.3129L17.5324 27.0606L18.0605 25.6136C18.3498 24.8211 18.6398 24.0375 18.7038 23.8774L18.8144 23.5993L19.0303 23.0602L19.4638 23.4463L20.1675 24.0705L20.7164 24.5578L21.5347 24.3869L22.1529 24.2565L22.0406 23.7283C21.9494 23.2989 21.8904 23.0215 21.8823 22.8284C21.8776 22.7164 21.888 22.6088 21.9262 22.4996C21.9614 22.3994 22.0145 22.318 22.0498 22.2637C22.1193 22.1567 22.2059 22.0502 22.3238 21.9698C22.4486 21.8847 22.5837 21.8445 22.7217 21.8363ZM20.8932 12.938C20.9214 12.9381 20.9416 12.9416 20.9481 12.9424C20.9735 12.9456 20.996 12.9506 21.0105 12.9541C21.0402 12.9613 21.0711 12.9706 21.0977 12.9794C21.1529 12.9978 21.2231 13.0235 21.3024 13.0547C21.4631 13.1179 21.6828 13.2106 21.9446 13.3236C22.4692 13.55 23.1732 13.8657 23.9305 14.2163C25.3349 14.8667 26.0995 15.223 26.5022 15.4748C26.7031 15.6004 26.8741 15.7352 26.9764 15.9161C27.0873 16.1123 27.082 16.3026 27.0777 16.4207C27.0735 16.5342 27.0273 16.629 27.006 16.6706C26.9772 16.7267 26.9398 16.7867 26.8987 16.8471C26.816 16.969 26.6953 17.1267 26.5367 17.3234C26.2178 17.719 25.7212 18.301 25.0058 19.1204C24.1595 20.0897 23.652 20.6625 23.3274 20.9987C23.1659 21.166 23.0371 21.2882 22.9259 21.3736C22.8105 21.4622 22.694 21.5267 22.5582 21.5556C22.4262 21.5836 22.2604 21.6066 22.0912 21.566C21.9005 21.5202 21.7557 21.4078 21.6504 21.2583C21.5551 21.1229 21.4895 20.9542 21.4351 20.776C21.3793 20.5932 21.3263 20.3675 21.2689 20.0975L21.1588 19.5797L19.8874 19.85L18.3013 24.1726C17.8433 25.4202 17.409 26.5887 17.0786 27.4666C16.9134 27.9054 16.7738 28.2727 16.67 28.5409C16.5722 28.7933 16.4951 28.9891 16.4609 29.0555C16.3494 29.2719 16.1214 29.5526 15.9325 29.712C15.8602 29.7729 15.7763 29.8421 15.6492 29.906C15.5304 29.9657 15.3878 30.0139 15.197 30.066C14.8186 30.1692 14.1569 30.311 12.9037 30.5774L10.1354 31.1658L9.98455 31.0431L9.80602 30.8984C9.73925 30.8443 9.6711 30.7768 9.61029 30.6774C9.55473 30.5865 9.51381 30.4836 9.47786 30.3691C9.40777 30.1457 9.329 29.7909 9.20471 29.2061C9.11346 28.7769 9.02216 28.4118 8.98568 28.1475C8.94896 27.8813 8.94113 27.5636 9.16128 27.3015C9.35481 27.0712 9.66452 26.9664 9.96721 26.8846C10.2884 26.7978 10.742 26.706 11.3175 26.5766L12.9743 26.2035L14.5804 21.8246C15.0433 20.5618 15.4807 19.3844 15.8128 18.5056C15.9787 18.0668 16.1186 17.7013 16.2225 17.4362C16.2743 17.3037 16.318 17.1943 16.3515 17.1132C16.3788 17.0471 16.4129 16.9662 16.4409 16.9185C16.549 16.7347 16.7654 16.4874 16.9381 16.3406L17.0612 16.2435C17.1867 16.1548 17.326 16.0874 17.554 16.016C17.8294 15.9297 18.2643 15.8284 19.0153 15.6575L20.2644 15.372L20.1595 14.8781C20.0627 14.423 20.0024 14.0835 20.0128 13.831C20.0184 13.6942 20.0451 13.5555 20.1163 13.4257C20.1888 13.2935 20.2889 13.2046 20.385 13.1399C20.4921 13.0679 20.6595 12.9837 20.7882 12.9514L20.8932 12.938ZM9.68224 17.6482C10.5829 17.4649 11.0878 17.3646 11.4042 17.3232C11.566 17.302 11.6981 17.2928 11.8198 17.3007C11.9467 17.309 12.0455 17.3347 12.1362 17.3613C12.6515 17.5125 12.9021 17.7119 13.972 18.6473C14.2509 18.8912 14.4775 19.1029 14.6358 19.267C14.7139 19.3479 14.7842 19.4255 14.8361 19.495C14.8613 19.5289 14.8906 19.572 14.9146 19.6201C14.9289 19.6489 14.9861 19.7623 14.9634 19.9062C14.9564 19.9507 14.9388 20.0042 14.9337 20.0203C14.9235 20.0528 14.9092 20.0945 14.8929 20.1428C14.8601 20.2402 14.8152 20.372 14.7615 20.5252C14.6539 20.8322 14.5111 21.2311 14.3674 21.6303C14.2238 22.0295 14.0785 22.4299 13.9642 22.7393C13.9071 22.8939 13.8578 23.0273 13.8198 23.1264L13.7273 23.3488C13.6525 23.4894 13.5236 23.5458 13.4321 23.5613C13.3539 23.5745 13.2908 23.5618 13.2652 23.5558C13.2102 23.543 13.1675 23.5215 13.1513 23.5132C13.1105 23.4921 13.0693 23.4646 13.0362 23.4418C12.9653 23.3928 12.8728 23.3229 12.7687 23.24C12.5581 23.0723 12.2761 22.8345 11.9729 22.5676L11.0322 21.7402L9.82992 21.9738C9.39461 22.0584 9.03908 22.1365 8.7754 22.17C8.52248 22.2021 8.22708 22.2153 7.97703 22.0541C7.72394 21.8909 7.61892 21.6152 7.54975 21.3732C7.47812 21.1225 7.41183 20.7713 7.32214 20.3493C7.1822 19.691 7.09893 19.261 7.09354 18.9732C7.09069 18.8209 7.10815 18.6653 7.17886 18.5198C7.25271 18.3679 7.3618 18.2727 7.45589 18.2073C7.49887 18.1775 7.542 18.1603 7.55828 18.1536C7.58135 18.1441 7.60541 18.1354 7.62769 18.1279C7.67285 18.1127 7.72815 18.0956 7.78894 18.0786C7.91144 18.0445 8.07449 18.0039 8.26461 17.9586C8.64591 17.8676 9.14889 17.7568 9.68224 17.6482Z" fill="url(#paint1_linear_2106_40653)" stroke="#223948" stroke-width="0.815496"/>
    <defs xmlns="http://www.w3.org/2000/svg">
      <radialGradient id="paint0_radial_2106_40653" cx="0" cy="0" r="1" gradientUnits="userSpaceOnUse" gradientTransform="translate(18.1311 22.651) rotate(-102) scale(16.6767 17.2161)">
        <stop stop-color="#32B4BA"/>
        <stop offset="0.163" stop-color="#30ABBA"/>
        <stop offset="0.429" stop-color="#2B93BA"/>
        <stop offset="0.762" stop-color="#236BBA"/>
        <stop offset="1" stop-color="#1D4BBA"/>
      </radialGradient>
      <linearGradient id="paint1_linear_2106_40653" x1="19.9022" y1="31.006" x2="16.3534" y2="14.3104" gradientUnits="userSpaceOnUse">
        <stop stop-color="#70AEFE"/>
        <stop offset="0.16" stop-color="#83BCFE"/>
        <stop offset="0.527" stop-color="#ABD7FE"/>
        <stop offset="0.82" stop-color="#C3E9FE"/>
        <stop offset="1" stop-color="#CCEFFE"/>
      </linearGradient>
    </defs>
  </g>
</svg>
