<svg width="24" height="24" viewBox="0 0 24 24" fill="none" xmlns="http://www.w3.org/2000/svg">
<g clip-path="url(#clip0_96_195)">
<path d="M20.3188 4.15557C18.7892 3.45369 17.1488 2.93658 15.4337 2.6404C15.4025 2.63469 15.3713 2.64897 15.3552 2.67754C15.1442 3.05276 14.9106 3.54226 14.7469 3.927C12.9022 3.65083 11.067 3.65083 9.26015 3.927C9.09648 3.5337 8.85432 3.05276 8.64241 2.67754C8.62632 2.64992 8.59512 2.63564 8.56388 2.6404C6.84974 2.93563 5.20939 3.45275 3.67877 4.15557C3.66552 4.16129 3.65416 4.17082 3.64662 4.18319C0.535223 8.83155 -0.317119 13.3657 0.101011 17.8436C0.102903 17.8655 0.115201 17.8864 0.132229 17.8997C2.18504 19.4073 4.17354 20.3225 6.12511 20.9291C6.15634 20.9386 6.18944 20.9272 6.20931 20.9015C6.67096 20.2711 7.08247 19.6063 7.43531 18.9073C7.45613 18.8664 7.43625 18.8178 7.3937 18.8016C6.74096 18.554 6.11943 18.2521 5.52156 17.9093C5.47427 17.8816 5.47048 17.814 5.51399 17.7816C5.6398 17.6873 5.76565 17.5893 5.88579 17.4902C5.90752 17.4721 5.93781 17.4683 5.96336 17.4797C9.89112 19.273 14.1434 19.273 18.0248 17.4797C18.0503 17.4674 18.0806 17.4712 18.1033 17.4893C18.2235 17.5883 18.3493 17.6873 18.4761 17.7816C18.5196 17.814 18.5167 17.8816 18.4694 17.9093C17.8716 18.2588 17.25 18.554 16.5963 18.8006C16.5538 18.8168 16.5349 18.8664 16.5557 18.9073C16.9161 19.6054 17.3276 20.2701 17.7807 20.9005C17.7997 20.9272 17.8337 20.9386 17.8649 20.9291C19.826 20.3225 21.8144 19.4073 23.8673 17.8997C23.8852 17.8864 23.8966 17.8664 23.8985 17.8445C24.3989 12.6676 23.0603 8.17064 20.35 4.18414C20.3434 4.17082 20.3321 4.16129 20.3188 4.15557ZM8.02185 15.117C6.83933 15.117 5.86496 14.0313 5.86496 12.6981C5.86496 11.3648 6.82043 10.2791 8.02185 10.2791C9.2327 10.2791 10.1976 11.3743 10.1787 12.6981C10.1787 14.0313 9.22324 15.117 8.02185 15.117ZM15.9966 15.117C14.8141 15.117 13.8397 14.0313 13.8397 12.6981C13.8397 11.3648 14.7952 10.2791 15.9966 10.2791C17.2075 10.2791 18.1724 11.3743 18.1535 12.6981C18.1535 14.0313 17.2075 15.117 15.9966 15.117Z" fill="white"/>
</g>
<defs>
<clipPath id="clip0_96_195">
<rect width="24" height="24" fill="white" transform="translate(0.00183105)"/>
</clipPath>
</defs>
</svg>
