<svg width="25" height="24" viewBox="0 0 25 24" fill="none" xmlns="http://www.w3.org/2000/svg">
<g clip-path="url(#clip0_96_196)">
<path d="M24.0961 7.1998C24.0961 7.1998 23.8618 5.54512 23.1399 4.81855C22.2258 3.8623 21.204 3.85762 20.7352 3.80137C17.379 3.55762 12.3399 3.55762 12.3399 3.55762H12.3305C12.3305 3.55762 7.29146 3.55762 3.93521 3.80137C3.46646 3.85762 2.44458 3.8623 1.53052 4.81855C0.808643 5.54512 0.578955 7.1998 0.578955 7.1998C0.578955 7.1998 0.335205 9.14512 0.335205 11.0857V12.9045C0.335205 14.8451 0.574268 16.7904 0.574268 16.7904C0.574268 16.7904 0.808643 18.4451 1.52583 19.1717C2.43989 20.1279 3.63989 20.0951 4.17427 20.1982C6.09614 20.3811 12.3352 20.4373 12.3352 20.4373C12.3352 20.4373 17.379 20.4279 20.7352 20.1889C21.204 20.1326 22.2258 20.1279 23.1399 19.1717C23.8618 18.4451 24.0961 16.7904 24.0961 16.7904C24.0961 16.7904 24.3352 14.8498 24.3352 12.9045V11.0857C24.3352 9.14512 24.0961 7.1998 24.0961 7.1998ZM9.85552 15.1123V8.36699L16.3383 11.7514L9.85552 15.1123Z" fill="white"/>
</g>
<defs>
<clipPath id="clip0_96_196">
<rect width="24" height="24" fill="white" transform="translate(0.335205)"/>
</clipPath>
</defs>
</svg>
